<svg xmlns="http://www.w3.org/2000/svg" viewBox="0 0 960 720" role="img" aria-labelledby="t">
  <title id="t">CzechMate — stylizovaný náhled šachovnice s LED poli</title>
  <defs>
    <linearGradient id="bg" x1="0" y1="0" x2="1" y2="1">
      <stop offset="0" stop-color="#0f1815"/>
      <stop offset="1" stop-color="#070d0b"/>
    </linearGradient>
    <linearGradient id="sqA" x1="0" y1="0" x2="0" y2="1">
      <stop offset="0" stop-color="#4a3f33"/>
      <stop offset="1" stop-color="#352e26"/>
    </linearGradient>
    <linearGradient id="sqB" x1="0" y1="0" x2="0" y2="1">
      <stop offset="0" stop-color="#6b5847"/>
      <stop offset="1" stop-color="#514536"/>
    </linearGradient>
  </defs>
  <rect width="960" height="720" fill="url(#bg)"/>
  <g transform="translate(180 100)">
    <rect x="-20" y="-20" width="640" height="640" rx="12" fill="#0a100e" stroke="#6fa986" stroke-opacity="0.35"/>
    <g>
      <rect x="0" y="0" width="80" height="80" fill="url(#sqA)"/>
      <rect x="80" y="0" width="80" height="80" fill="url(#sqB)"/>
      <rect x="160" y="0" width="80" height="80" fill="url(#sqA)"/>
      <rect x="240" y="0" width="80" height="80" fill="url(#sqB)"/>
      <rect x="320" y="0" width="80" height="80" fill="url(#sqA)"/>
      <rect x="400" y="0" width="80" height="80" fill="url(#sqB)"/>
      <rect x="480" y="0" width="80" height="80" fill="url(#sqA)"/>
      <rect x="560" y="0" width="80" height="80" fill="url(#sqB)"/>
      <rect x="0" y="80" width="80" height="80" fill="url(#sqB)"/>
      <rect x="80" y="80" width="80" height="80" fill="url(#sqA)"/>
      <rect x="160" y="80" width="80" height="80" fill="url(#sqB)"/>
      <rect x="240" y="80" width="80" height="80" fill="url(#sqA)"/>
      <rect x="320" y="80" width="80" height="80" fill="url(#sqB)"/>
      <rect x="400" y="80" width="80" height="80" fill="url(#sqA)"/>
      <rect x="480" y="80" width="80" height="80" fill="url(#sqB)"/>
      <rect x="560" y="80" width="80" height="80" fill="url(#sqA)"/>
      <rect x="0" y="160" width="80" height="80" fill="url(#sqA)"/>
      <rect x="80" y="160" width="80" height="80" fill="url(#sqB)"/>
      <rect x="160" y="160" width="80" height="80" fill="url(#sqA)"/>
      <rect x="240" y="160" width="80" height="80" fill="url(#sqB)"/>
      <rect x="320" y="160" width="80" height="80" fill="url(#sqA)"/>
      <rect x="400" y="160" width="80" height="80" fill="url(#sqB)"/>
      <rect x="480" y="160" width="80" height="80" fill="url(#sqA)"/>
      <rect x="560" y="160" width="80" height="80" fill="url(#sqB)"/>
      <rect x="0" y="240" width="80" height="80" fill="url(#sqB)"/>
      <rect x="80" y="240" width="80" height="80" fill="url(#sqA)"/>
      <rect x="160" y="240" width="80" height="80" fill="url(#sqB)"/>
      <rect x="240" y="240" width="80" height="80" fill="url(#sqA)"/>
      <rect x="320" y="240" width="80" height="80" fill="url(#sqB)"/>
      <rect x="400" y="240" width="80" height="80" fill="url(#sqA)"/>
      <rect x="480" y="240" width="80" height="80" fill="url(#sqB)"/>
      <rect x="560" y="240" width="80" height="80" fill="url(#sqA)"/>
      <rect x="0" y="320" width="80" height="80" fill="url(#sqA)"/>
      <rect x="80" y="320" width="80" height="80" fill="url(#sqB)"/>
      <rect x="160" y="320" width="80" height="80" fill="url(#sqA)"/>
      <rect x="240" y="320" width="80" height="80" fill="url(#sqB)"/>
      <rect x="320" y="320" width="80" height="80" fill="url(#sqA)"/>
      <rect x="400" y="320" width="80" height="80" fill="url(#sqB)"/>
      <rect x="480" y="320" width="80" height="80" fill="url(#sqA)"/>
      <rect x="560" y="320" width="80" height="80" fill="url(#sqB)"/>
      <rect x="0" y="400" width="80" height="80" fill="url(#sqB)"/>
      <rect x="80" y="400" width="80" height="80" fill="url(#sqA)"/>
      <rect x="160" y="400" width="80" height="80" fill="url(#sqB)"/>
      <rect x="240" y="400" width="80" height="80" fill="url(#sqA)"/>
      <rect x="320" y="400" width="80" height="80" fill="url(#sqB)"/>
      <rect x="400" y="400" width="80" height="80" fill="url(#sqA)"/>
      <rect x="480" y="400" width="80" height="80" fill="url(#sqB)"/>
      <rect x="560" y="400" width="80" height="80" fill="url(#sqA)"/>
      <rect x="0" y="480" width="80" height="80" fill="url(#sqA)"/>
      <rect x="80" y="480" width="80" height="80" fill="url(#sqB)"/>
      <rect x="160" y="480" width="80" height="80" fill="url(#sqA)"/>
      <rect x="240" y="480" width="80" height="80" fill="url(#sqB)"/>
      <rect x="320" y="480" width="80" height="80" fill="url(#sqA)"/>
      <rect x="400" y="480" width="80" height="80" fill="url(#sqB)"/>
      <rect x="480" y="480" width="80" height="80" fill="url(#sqA)"/>
      <rect x="560" y="480" width="80" height="80" fill="url(#sqB)"/>
    </g>
    <circle cx="320" cy="320" r="120" fill="none" stroke="#8fbc9f" stroke-opacity="0.25" stroke-width="2"/>
  </g>
</svg>
