solid OpenSCAD_Model
  facet normal 0 1 -0
    outer loop
      vertex 5.35757 12.9343 0
      vertex -5.35757 12.9343 3.84
      vertex 5.35757 12.9343 3.84
    endloop
  endfacet
  facet normal 0 1 0
    outer loop
      vertex -5.35757 12.9343 3.84
      vertex 5.35757 12.9343 0
      vertex -5.35757 12.9343 0
    endloop
  endfacet
  facet normal 0.707107 0.707107 0
    outer loop
      vertex 12.9343 5.35757 3.84
      vertex 5.35757 12.9343 0
      vertex 5.35757 12.9343 3.84
    endloop
  endfacet
  facet normal 0.707107 0.707107 0
    outer loop
      vertex 5.35757 12.9343 0
      vertex 12.9343 5.35757 3.84
      vertex 12.9343 5.35757 0
    endloop
  endfacet
  facet normal 1 -0 0
    outer loop
      vertex 12.9343 -5.35757 3.84
      vertex 12.9343 5.35757 0
      vertex 12.9343 5.35757 3.84
    endloop
  endfacet
  facet normal 1 0 0
    outer loop
      vertex 12.9343 5.35757 0
      vertex 12.9343 -5.35757 3.84
      vertex 12.9343 -5.35757 0
    endloop
  endfacet
  facet normal -1 0 0
    outer loop
      vertex -12.9343 -5.35757 0
      vertex -12.9343 5.35757 3.84
      vertex -12.9343 5.35757 0
    endloop
  endfacet
  facet normal -1 -0 0
    outer loop
      vertex -12.9343 5.35757 3.84
      vertex -12.9343 -5.35757 0
      vertex -12.9343 -5.35757 3.84
    endloop
  endfacet
  facet normal -0.707107 -0.707107 0
    outer loop
      vertex -5.35757 -12.9343 0
      vertex -12.9343 -5.35757 3.84
      vertex -12.9343 -5.35757 0
    endloop
  endfacet
  facet normal -0.707107 -0.707107 0
    outer loop
      vertex -12.9343 -5.35757 3.84
      vertex -5.35757 -12.9343 0
      vertex -5.35757 -12.9343 3.84
    endloop
  endfacet
  facet normal -0.707107 0.707107 0
    outer loop
      vertex -12.9343 5.35757 0
      vertex -5.35757 12.9343 3.84
      vertex -5.35757 12.9343 0
    endloop
  endfacet
  facet normal -0.707107 0.707107 0
    outer loop
      vertex -5.35757 12.9343 3.84
      vertex -12.9343 5.35757 0
      vertex -12.9343 5.35757 3.84
    endloop
  endfacet
  facet normal 0.707107 -0.707107 0
    outer loop
      vertex 5.35757 -12.9343 3.84
      vertex 12.9343 -5.35757 0
      vertex 12.9343 -5.35757 3.84
    endloop
  endfacet
  facet normal 0.707107 -0.707107 0
    outer loop
      vertex 12.9343 -5.35757 0
      vertex 5.35757 -12.9343 3.84
      vertex 5.35757 -12.9343 0
    endloop
  endfacet
  facet normal 0 0 -1
    outer loop
      vertex 5.35757 -12.9343 0
      vertex 12.9343 5.35757 0
      vertex 12.9343 -5.35757 0
    endloop
  endfacet
  facet normal 0 0 -1
    outer loop
      vertex 5.35757 -12.9343 0
      vertex 5.35757 12.9343 0
      vertex 12.9343 5.35757 0
    endloop
  endfacet
  facet normal 0 0 -1
    outer loop
      vertex -5.35757 -12.9343 0
      vertex 5.35757 12.9343 0
      vertex 5.35757 -12.9343 0
    endloop
  endfacet
  facet normal 0 0 -1
    outer loop
      vertex -5.35757 -12.9343 0
      vertex -5.35757 12.9343 0
      vertex 5.35757 12.9343 0
    endloop
  endfacet
  facet normal 0 0 -1
    outer loop
      vertex -12.9343 -5.35757 0
      vertex -5.35757 12.9343 0
      vertex -5.35757 -12.9343 0
    endloop
  endfacet
  facet normal 0 0 -1
    outer loop
      vertex -5.35757 12.9343 0
      vertex -12.9343 -5.35757 0
      vertex -12.9343 5.35757 0
    endloop
  endfacet
  facet normal 0 -1 0
    outer loop
      vertex -5.35757 -12.9343 0
      vertex 5.35757 -12.9343 3.84
      vertex -5.35757 -12.9343 3.84
    endloop
  endfacet
  facet normal 0 -1 -0
    outer loop
      vertex 5.35757 -12.9343 3.84
      vertex -5.35757 -12.9343 0
      vertex 5.35757 -12.9343 0
    endloop
  endfacet
  facet normal 0.420093 0.420093 0.804391
    outer loop
      vertex 5.35757 12.9343 3.84
      vertex 11.3637 4.70701 5
      vertex 12.9343 5.35757 3.84
    endloop
  endfacet
  facet normal 0.420093 0.420093 0.804391
    outer loop
      vertex 11.3637 4.70701 5
      vertex 5.35757 12.9343 3.84
      vertex 4.70701 11.3637 5
    endloop
  endfacet
  facet normal 0 -0.5941 0.804391
    outer loop
      vertex -4.70701 -11.3637 5
      vertex 5.35757 -12.9343 3.84
      vertex 4.70701 -11.3637 5
    endloop
  endfacet
  facet normal 0 -0.5941 0.804391
    outer loop
      vertex 5.35757 -12.9343 3.84
      vertex -4.70701 -11.3637 5
      vertex -5.35757 -12.9343 3.84
    endloop
  endfacet
  facet normal 0.5941 0 0.804391
    outer loop
      vertex 11.3637 4.70701 5
      vertex 12.9343 -5.35757 3.84
      vertex 12.9343 5.35757 3.84
    endloop
  endfacet
  facet normal 0.5941 0 0.804391
    outer loop
      vertex 12.9343 -5.35757 3.84
      vertex 11.3637 4.70701 5
      vertex 11.3637 -4.70701 5
    endloop
  endfacet
  facet normal 0 0.5941 0.804391
    outer loop
      vertex 5.35757 12.9343 3.84
      vertex -4.70701 11.3637 5
      vertex 4.70701 11.3637 5
    endloop
  endfacet
  facet normal 0 0.5941 0.804391
    outer loop
      vertex -4.70701 11.3637 5
      vertex 5.35757 12.9343 3.84
      vertex -5.35757 12.9343 3.84
    endloop
  endfacet
  facet normal 0.420093 -0.420093 0.804391
    outer loop
      vertex 11.3637 -4.70701 5
      vertex 5.35757 -12.9343 3.84
      vertex 12.9343 -5.35757 3.84
    endloop
  endfacet
  facet normal 0.420093 -0.420093 0.804391
    outer loop
      vertex 5.35757 -12.9343 3.84
      vertex 11.3637 -4.70701 5
      vertex 4.70701 -11.3637 5
    endloop
  endfacet
  facet normal -0.420093 -0.420093 0.804391
    outer loop
      vertex -11.3637 -4.70701 5
      vertex -5.35757 -12.9343 3.84
      vertex -4.70701 -11.3637 5
    endloop
  endfacet
  facet normal -0.420093 -0.420093 0.804391
    outer loop
      vertex -5.35757 -12.9343 3.84
      vertex -11.3637 -4.70701 5
      vertex -12.9343 -5.35757 3.84
    endloop
  endfacet
  facet normal -0.5941 0 0.804391
    outer loop
      vertex -12.9343 5.35757 3.84
      vertex -11.3637 -4.70701 5
      vertex -11.3637 4.70701 5
    endloop
  endfacet
  facet normal -0.5941 0 0.804391
    outer loop
      vertex -11.3637 -4.70701 5
      vertex -12.9343 5.35757 3.84
      vertex -12.9343 -5.35757 3.84
    endloop
  endfacet
  facet normal -0.420093 0.420093 0.804391
    outer loop
      vertex -5.35757 12.9343 3.84
      vertex -11.3637 4.70701 5
      vertex -4.70701 11.3637 5
    endloop
  endfacet
  facet normal -0.420093 0.420093 0.804391
    outer loop
      vertex -11.3637 4.70701 5
      vertex -5.35757 12.9343 3.84
      vertex -12.9343 5.35757 3.84
    endloop
  endfacet
  facet normal 0.707107 0.707107 0
    outer loop
      vertex 11.3637 4.70701 5.04
      vertex 4.70701 11.3637 5
      vertex 4.70701 11.3637 5.04
    endloop
  endfacet
  facet normal 0.707107 0.707107 0
    outer loop
      vertex 4.70701 11.3637 5
      vertex 11.3637 4.70701 5.04
      vertex 11.3637 4.70701 5
    endloop
  endfacet
  facet normal 0 1 -0
    outer loop
      vertex 4.70701 11.3637 5
      vertex -4.70701 11.3637 5.04
      vertex 4.70701 11.3637 5.04
    endloop
  endfacet
  facet normal 0 1 0
    outer loop
      vertex -4.70701 11.3637 5.04
      vertex 4.70701 11.3637 5
      vertex -4.70701 11.3637 5
    endloop
  endfacet
  facet normal 0 -1 0
    outer loop
      vertex -4.70701 -11.3637 5
      vertex 4.70701 -11.3637 5.04
      vertex -4.70701 -11.3637 5.04
    endloop
  endfacet
  facet normal 0 -1 -0
    outer loop
      vertex 4.70701 -11.3637 5.04
      vertex -4.70701 -11.3637 5
      vertex 4.70701 -11.3637 5
    endloop
  endfacet
  facet normal 0 0.784622 0.619974
    outer loop
      vertex 3.2289 7.81575 9.53019
      vertex 4.70701 11.3637 5.04
      vertex -3.2289 7.81575 9.53019
    endloop
  endfacet
  facet normal -0.000153185 0.784647 0.619943
    outer loop
      vertex 4.70701 11.3637 5.04
      vertex 3.2289 7.81575 9.53019
      vertex 3.23685 7.81444 9.53185
    endloop
  endfacet
  facet normal -0 0.784622 0.619974
    outer loop
      vertex -4.70701 11.3637 5.04
      vertex -3.2289 7.81575 9.53019
      vertex 4.70701 11.3637 5.04
    endloop
  endfacet
  facet normal 0.000153185 0.784647 0.619943
    outer loop
      vertex -3.2289 7.81575 9.53019
      vertex -4.70701 11.3637 5.04
      vertex -3.23685 7.81444 9.53185
    endloop
  endfacet
  facet normal -0.707107 -0.707107 0
    outer loop
      vertex -4.70701 -11.3637 5
      vertex -11.3637 -4.70701 5.04
      vertex -11.3637 -4.70701 5
    endloop
  endfacet
  facet normal -0.707107 -0.707107 0
    outer loop
      vertex -11.3637 -4.70701 5.04
      vertex -4.70701 -11.3637 5
      vertex -4.70701 -11.3637 5.04
    endloop
  endfacet
  facet normal -0.784622 0 0.619974
    outer loop
      vertex -11.3637 4.70701 5.04
      vertex -7.76059 -3.21454 9.6
      vertex -7.76059 3.21454 9.6
    endloop
  endfacet
  facet normal -0.784622 0 0.619974
    outer loop
      vertex -7.76059 -3.21454 9.6
      vertex -11.3637 4.70701 5.04
      vertex -11.3637 -4.70701 5.04
    endloop
  endfacet
  facet normal 0.707107 -0.707107 0
    outer loop
      vertex 4.70701 -11.3637 5.04
      vertex 11.3637 -4.70701 5
      vertex 11.3637 -4.70701 5.04
    endloop
  endfacet
  facet normal 0.707107 -0.707107 0
    outer loop
      vertex 11.3637 -4.70701 5
      vertex 4.70701 -11.3637 5.04
      vertex 4.70701 -11.3637 5
    endloop
  endfacet
  facet normal -0.555291 0.554464 0.619856
    outer loop
      vertex -4.70701 11.3637 5.04
      vertex -3.24712 7.81103 9.5257
      vertex -3.23685 7.81444 9.53185
    endloop
  endfacet
  facet normal -0.554811 0.554811 0.619975
    outer loop
      vertex -4.70701 11.3637 5.04
      vertex -7.74405 3.3141 9.5257
      vertex -3.24712 7.81103 9.5257
    endloop
  endfacet
  facet normal -0.554791 0.55484 0.619968
    outer loop
      vertex -7.74405 3.3141 9.5257
      vertex -11.3637 4.70701 5.04
      vertex -7.76059 3.21454 9.6
    endloop
  endfacet
  facet normal -0.554811 0.554811 0.619975
    outer loop
      vertex -11.3637 4.70701 5.04
      vertex -7.74405 3.3141 9.5257
      vertex -4.70701 11.3637 5.04
    endloop
  endfacet
  facet normal 0.784622 -0 0.619974
    outer loop
      vertex 7.76059 -3.21454 9.6
      vertex 11.3637 4.70701 5.04
      vertex 7.76059 3.21454 9.6
    endloop
  endfacet
  facet normal 0.784622 0 0.619974
    outer loop
      vertex 11.3637 4.70701 5.04
      vertex 7.76059 -3.21454 9.6
      vertex 11.3637 -4.70701 5.04
    endloop
  endfacet
  facet normal 0.554791 0.55484 0.619968
    outer loop
      vertex 11.3637 4.70701 5.04
      vertex 7.74405 3.3141 9.5257
      vertex 7.76059 3.21454 9.6
    endloop
  endfacet
  facet normal 0.554811 0.554811 0.619975
    outer loop
      vertex 4.70701 11.3637 5.04
      vertex 7.74405 3.3141 9.5257
      vertex 11.3637 4.70701 5.04
    endloop
  endfacet
  facet normal 0.554811 0.554811 0.619975
    outer loop
      vertex 4.70701 11.3637 5.04
      vertex 3.24712 7.81103 9.5257
      vertex 7.74405 3.3141 9.5257
    endloop
  endfacet
  facet normal 0.555291 0.554464 0.619856
    outer loop
      vertex 3.24712 7.81103 9.5257
      vertex 4.70701 11.3637 5.04
      vertex 3.23685 7.81444 9.53185
    endloop
  endfacet
  facet normal -0.554811 -0.554811 0.619975
    outer loop
      vertex -7.76059 -3.21454 9.6
      vertex -4.70701 -11.3637 5.04
      vertex -3.21454 -7.76059 9.6
    endloop
  endfacet
  facet normal -0.554811 -0.554811 0.619975
    outer loop
      vertex -4.70701 -11.3637 5.04
      vertex -7.76059 -3.21454 9.6
      vertex -11.3637 -4.70701 5.04
    endloop
  endfacet
  facet normal -1 0 0
    outer loop
      vertex -11.3637 -4.70701 5
      vertex -11.3637 4.70701 5.04
      vertex -11.3637 4.70701 5
    endloop
  endfacet
  facet normal -1 -0 0
    outer loop
      vertex -11.3637 4.70701 5.04
      vertex -11.3637 -4.70701 5
      vertex -11.3637 -4.70701 5.04
    endloop
  endfacet
  facet normal -0.707107 0.707107 0
    outer loop
      vertex -11.3637 4.70701 5
      vertex -4.70701 11.3637 5.04
      vertex -4.70701 11.3637 5
    endloop
  endfacet
  facet normal -0.707107 0.707107 0
    outer loop
      vertex -4.70701 11.3637 5.04
      vertex -11.3637 4.70701 5
      vertex -11.3637 4.70701 5.04
    endloop
  endfacet
  facet normal 0.554811 -0.554811 0.619975
    outer loop
      vertex 7.76059 -3.21454 9.6
      vertex 4.70701 -11.3637 5.04
      vertex 11.3637 -4.70701 5.04
    endloop
  endfacet
  facet normal 0.554811 -0.554811 0.619975
    outer loop
      vertex 4.70701 -11.3637 5.04
      vertex 7.76059 -3.21454 9.6
      vertex 3.21454 -7.76059 9.6
    endloop
  endfacet
  facet normal 0 -0.784622 0.619974
    outer loop
      vertex -4.70701 -11.3637 5.04
      vertex 3.21454 -7.76059 9.6
      vertex -3.21454 -7.76059 9.6
    endloop
  endfacet
  facet normal 0 -0.784622 0.619974
    outer loop
      vertex 3.21454 -7.76059 9.6
      vertex -4.70701 -11.3637 5.04
      vertex 4.70701 -11.3637 5.04
    endloop
  endfacet
  facet normal 1 -0 0
    outer loop
      vertex 11.3637 -4.70701 5.04
      vertex 11.3637 4.70701 5
      vertex 11.3637 4.70701 5.04
    endloop
  endfacet
  facet normal 1 0 0
    outer loop
      vertex 11.3637 4.70701 5
      vertex 11.3637 -4.70701 5.04
      vertex 11.3637 -4.70701 5
    endloop
  endfacet
  facet normal 0.70692 -0.707272 0.00554443
    outer loop
      vertex 7.63 -3.03 50.23
      vertex 3.21454 -7.76059 9.75
      vertex 5.63 -5.23 24.59
    endloop
  endfacet
  facet normal 0.199093 0.959543 -0.199093
    outer loop
      vertex 3.24712 7.81103 9.5257
      vertex 4.43 12.43 32.97
      vertex 6.23 12.43 34.77
    endloop
  endfacet
  facet normal 0.199359 0.959488 -0.199096
    outer loop
      vertex 4.43 12.43 32.97
      vertex 3.24712 7.81103 9.5257
      vertex 3.23685 7.81444 9.53185
    endloop
  endfacet
  facet normal 0.199666 0.959423 -0.199099
    outer loop
      vertex 4.43 12.43 32.97
      vertex 3.23685 7.81444 9.53185
      vertex 3.2289 7.81575 9.53019
    endloop
  endfacet
  facet normal -0.691602 0.691602 -0.208263
    outer loop
      vertex -3.24712 7.81103 9.5257
      vertex -7.74405 3.3141 9.5257
      vertex -6.23 12.43 34.77
    endloop
  endfacet
  facet normal -0.999995 0 0.00322602
    outer loop
      vertex -7.76059 -3.21454 9.75
      vertex -7.63 -2.97 50.23
      vertex -7.76059 3.21454 9.75
    endloop
  endfacet
  facet normal -0.999995 0 0.00322602
    outer loop
      vertex -7.63 -2.97 50.23
      vertex -7.76059 -3.21454 9.75
      vertex -7.63 -3.03 50.23
    endloop
  endfacet
  facet normal -0.995069 0.0975162 0.0181087
    outer loop
      vertex -6.23 12.43 44.23
      vertex -7.76059 3.21454 9.75
      vertex -7.63 -2.97 50.23
    endloop
  endfacet
  facet normal 0.707107 -0 0.707107
    outer loop
      vertex 5.83 -3.03 52.03
      vertex 7.63 -2.97 50.23
      vertex 5.83 -2.97 52.03
    endloop
  endfacet
  facet normal 0.707107 0 0.707107
    outer loop
      vertex 7.63 -2.97 50.23
      vertex 5.83 -3.03 52.03
      vertex 7.63 -3.03 50.23
    endloop
  endfacet
  facet normal 0 0.98117 -0.193148
    outer loop
      vertex 3.2289 7.81575 9.53019
      vertex -4.43 12.43 32.97
      vertex 4.43 12.43 32.97
    endloop
  endfacet
  facet normal 0 0.98117 -0.193148
    outer loop
      vertex -4.43 12.43 32.97
      vertex 3.2289 7.81575 9.53019
      vertex -3.2289 7.81575 9.53019
    endloop
  endfacet
  facet normal -0.986482 0.163867 -8.26062e-06
    outer loop
      vertex -7.76059 3.21454 9.75
      vertex -6.23 12.43 34.77
      vertex -7.74405 3.3141 9.5257
    endloop
  endfacet
  facet normal -0.986479 0.163885 0
    outer loop
      vertex -7.76059 3.21454 9.75
      vertex -7.74405 3.3141 9.5257
      vertex -7.76059 3.21454 9.6
    endloop
  endfacet
  facet normal -0.986486 0.163845 0
    outer loop
      vertex -6.23 12.43 34.77
      vertex -7.76059 3.21454 9.75
      vertex -6.23 12.43 44.23
    endloop
  endfacet
  facet normal -0.669515 0.321715 0.669515
    outer loop
      vertex -4.43 12.43 46.03
      vertex -6.23 12.43 44.23
      vertex -5.83 -2.97 52.03
    endloop
  endfacet
  facet normal -0.707107 0 0.707107
    outer loop
      vertex -7.63 -3.03 50.23
      vertex -5.83 -2.97 52.03
      vertex -7.63 -2.97 50.23
    endloop
  endfacet
  facet normal -0.707107 0 0.707107
    outer loop
      vertex -5.83 -2.97 52.03
      vertex -7.63 -3.03 50.23
      vertex -5.83 -3.03 52.03
    endloop
  endfacet
  facet normal -1 0 0
    outer loop
      vertex -7.76059 -3.21454 9.6
      vertex -7.76059 3.21454 9.75
      vertex -7.76059 3.21454 9.6
    endloop
  endfacet
  facet normal -1 -0 0
    outer loop
      vertex -7.76059 3.21454 9.75
      vertex -7.76059 -3.21454 9.6
      vertex -7.76059 -3.21454 9.75
    endloop
  endfacet
  facet normal 0 1 0
    outer loop
      vertex 6.23 12.43 44.23
      vertex -4.43 12.43 46.03
      vertex 4.43 12.43 46.03
    endloop
  endfacet
  facet normal 0 1 0
    outer loop
      vertex 6.23 12.43 44.23
      vertex -6.23 12.43 44.23
      vertex -4.43 12.43 46.03
    endloop
  endfacet
  facet normal 0 1 -0
    outer loop
      vertex 6.23 12.43 34.77
      vertex -6.23 12.43 44.23
      vertex 6.23 12.43 44.23
    endloop
  endfacet
  facet normal 0 1 0
    outer loop
      vertex 6.23 12.43 34.77
      vertex -6.23 12.43 34.77
      vertex -6.23 12.43 44.23
    endloop
  endfacet
  facet normal 0 1 -0
    outer loop
      vertex 4.43 12.43 32.97
      vertex -6.23 12.43 34.77
      vertex 6.23 12.43 34.77
    endloop
  endfacet
  facet normal 0 1 0
    outer loop
      vertex -6.23 12.43 34.77
      vertex 4.43 12.43 32.97
      vertex -4.43 12.43 32.97
    endloop
  endfacet
  facet normal -0.199666 0.959423 -0.199099
    outer loop
      vertex -4.43 12.43 32.97
      vertex -3.2289 7.81575 9.53019
      vertex -3.23685 7.81444 9.53185
    endloop
  endfacet
  facet normal -0.199359 0.959488 -0.199096
    outer loop
      vertex -3.24712 7.81103 9.5257
      vertex -4.43 12.43 32.97
      vertex -3.23685 7.81444 9.53185
    endloop
  endfacet
  facet normal -0.199093 0.959543 -0.199093
    outer loop
      vertex -4.43 12.43 32.97
      vertex -3.24712 7.81103 9.5257
      vertex -6.23 12.43 34.77
    endloop
  endfacet
  facet normal 0.995069 0.0975162 0.0181087
    outer loop
      vertex 7.76059 3.21454 9.75
      vertex 6.23 12.43 44.23
      vertex 7.63 -2.97 50.23
    endloop
  endfacet
  facet normal -0.669515 0.321715 0.669515
    outer loop
      vertex -6.23 12.43 44.23
      vertex -7.63 -2.97 50.23
      vertex -5.83 -2.97 52.03
    endloop
  endfacet
  facet normal 0.707107 -0.707107 0
    outer loop
      vertex 3.21454 -7.76059 9.75
      vertex 7.76059 -3.21454 9.6
      vertex 7.76059 -3.21454 9.75
    endloop
  endfacet
  facet normal 0.707107 -0.707107 0
    outer loop
      vertex 7.76059 -3.21454 9.6
      vertex 3.21454 -7.76059 9.75
      vertex 3.21454 -7.76059 9.6
    endloop
  endfacet
  facet normal -0.104218 -0.989079 0.104218
    outer loop
      vertex -5.83 -3.03 52.03
      vertex -7.63 -3.03 50.23
      vertex -3.21454 -7.76059 9.75
    endloop
  endfacet
  facet normal -0.70692 -0.707272 0.00554443
    outer loop
      vertex -3.21454 -7.76059 9.75
      vertex -7.63 -3.03 50.23
      vertex -5.63 -5.23 24.59
    endloop
  endfacet
  facet normal 0 -1 0
    outer loop
      vertex -3.21454 -7.76059 9.6
      vertex 3.21454 -7.76059 9.75
      vertex -3.21454 -7.76059 9.75
    endloop
  endfacet
  facet normal 0 -1 -0
    outer loop
      vertex 3.21454 -7.76059 9.75
      vertex -3.21454 -7.76059 9.6
      vertex 3.21454 -7.76059 9.6
    endloop
  endfacet
  facet normal 0.986486 0.163845 0
    outer loop
      vertex 7.76059 3.21454 9.75
      vertex 6.23 12.43 34.77
      vertex 6.23 12.43 44.23
    endloop
  endfacet
  facet normal 0.986482 0.163867 -8.26062e-06
    outer loop
      vertex 6.23 12.43 34.77
      vertex 7.76059 3.21454 9.75
      vertex 7.74405 3.3141 9.5257
    endloop
  endfacet
  facet normal 0.986479 0.163885 0
    outer loop
      vertex 7.74405 3.3141 9.5257
      vertex 7.76059 3.21454 9.75
      vertex 7.76059 3.21454 9.6
    endloop
  endfacet
  facet normal 0.999995 0 0.00322602
    outer loop
      vertex 7.76059 -3.21454 9.75
      vertex 7.63 -2.97 50.23
      vertex 7.63 -3.03 50.23
    endloop
  endfacet
  facet normal 0.999995 0 0.00322602
    outer loop
      vertex 7.63 -2.97 50.23
      vertex 7.76059 -3.21454 9.75
      vertex 7.76059 3.21454 9.75
    endloop
  endfacet
  facet normal 1 -0 0
    outer loop
      vertex 7.76059 -3.21454 9.75
      vertex 7.76059 3.21454 9.6
      vertex 7.76059 3.21454 9.75
    endloop
  endfacet
  facet normal 1 0 0
    outer loop
      vertex 7.76059 3.21454 9.6
      vertex 7.76059 -3.21454 9.75
      vertex 7.76059 -3.21454 9.6
    endloop
  endfacet
  facet normal -0.707107 -0.707107 0
    outer loop
      vertex -3.21454 -7.76059 9.6
      vertex -7.76059 -3.21454 9.75
      vertex -7.76059 -3.21454 9.6
    endloop
  endfacet
  facet normal -0.707107 -0.707107 0
    outer loop
      vertex -7.76059 -3.21454 9.75
      vertex -3.21454 -7.76059 9.6
      vertex -3.21454 -7.76059 9.75
    endloop
  endfacet
  facet normal 0.691602 0.691602 -0.208263
    outer loop
      vertex 7.74405 3.3141 9.5257
      vertex 3.24712 7.81103 9.5257
      vertex 6.23 12.43 34.77
    endloop
  endfacet
  facet normal -0 0 1
    outer loop
      vertex -5.83 -2.97 52.03
      vertex 5.83 -3.03 52.03
      vertex 5.83 -2.97 52.03
    endloop
  endfacet
  facet normal 0 0 1
    outer loop
      vertex 5.83 -3.03 52.03
      vertex -5.83 -2.97 52.03
      vertex -5.83 -3.03 52.03
    endloop
  endfacet
  facet normal -0 0.36303 0.931777
    outer loop
      vertex -4.43 12.43 46.03
      vertex 5.83 -2.97 52.03
      vertex 4.43 12.43 46.03
    endloop
  endfacet
  facet normal 0 0.36303 0.931777
    outer loop
      vertex 5.83 -2.97 52.03
      vertex -4.43 12.43 46.03
      vertex -5.83 -2.97 52.03
    endloop
  endfacet
  facet normal 0 -0.993799 0.111193
    outer loop
      vertex -3.21454 -7.76059 9.75
      vertex 5.83 -3.03 52.03
      vertex -5.83 -3.03 52.03
    endloop
  endfacet
  facet normal 0 -0.993799 0.111193
    outer loop
      vertex 5.83 -3.03 52.03
      vertex -3.21454 -7.76059 9.75
      vertex 3.21454 -7.76059 9.75
    endloop
  endfacet
  facet normal 0.104218 -0.989079 0.104218
    outer loop
      vertex 5.83 -3.03 52.03
      vertex 3.21454 -7.76059 9.75
      vertex 7.63 -3.03 50.23
    endloop
  endfacet
  facet normal 0.669515 0.321715 0.669515
    outer loop
      vertex 6.23 12.43 44.23
      vertex 5.83 -2.97 52.03
      vertex 7.63 -2.97 50.23
    endloop
  endfacet
  facet normal 0.669515 0.321715 0.669515
    outer loop
      vertex 6.23 12.43 44.23
      vertex 4.43 12.43 46.03
      vertex 5.83 -2.97 52.03
    endloop
  endfacet
  facet normal 0.707096 -0.707096 0.00548571
    outer loop
      vertex 5.63 -5.23 24.59
      vertex 3.21454 -7.76059 9.75
      vertex 7.76059 -3.21454 9.75
    endloop
  endfacet
  facet normal 0.707163 -0.707029 0.00550453
    outer loop
      vertex 7.63 -3.03 50.23
      vertex 5.63 -5.23 24.59
      vertex 7.76059 -3.21454 9.75
    endloop
  endfacet
  facet normal -0.707163 -0.707029 0.00550453
    outer loop
      vertex -7.63 -3.03 50.23
      vertex -7.76059 -3.21454 9.75
      vertex -5.63 -5.23 24.59
    endloop
  endfacet
  facet normal -0.707096 -0.707096 0.00548571
    outer loop
      vertex -5.63 -5.23 24.59
      vertex -7.76059 -3.21454 9.75
      vertex -3.21454 -7.76059 9.75
    endloop
  endfacet
  facet normal -0.587794 -0.80901 0
    outer loop
      vertex 5.26106 2.61742 0.799999
      vertex 5.57601 2.38859 3
      vertex 5.26106 2.61742 3
    endloop
  endfacet
  facet normal -0.587794 -0.80901 -0
    outer loop
      vertex 5.57601 2.38859 3
      vertex 5.26106 2.61742 0.799999
      vertex 5.57601 2.38859 0.799999
    endloop
  endfacet
  facet normal 0.481747 -0.87631 0
    outer loop
      vertex 1.93894 2.61742 0.799999
      vertex 2.28008 2.80496 3
      vertex 1.93894 2.61742 3
    endloop
  endfacet
  facet normal 0.481747 -0.87631 0
    outer loop
      vertex 2.28008 2.80496 3
      vertex 1.93894 2.61742 0.799999
      vertex 2.28008 2.80496 0.799999
    endloop
  endfacet
  facet normal 0.951058 -0.309012 0
    outer loop
      vertex 0.597392 0.770938 3
      vertex 0.717692 1.14119 0.799999
      vertex 0.717692 1.14119 3
    endloop
  endfacet
  facet normal 0.951058 -0.309012 0
    outer loop
      vertex 0.717692 1.14119 0.799999
      vertex 0.597392 0.770938 3
      vertex 0.597392 0.770938 0.799999
    endloop
  endfacet
  facet normal -0.951058 0.309012 0
    outer loop
      vertex 6.48231 -1.14119 0.799999
      vertex 6.60261 -0.770938 3
      vertex 6.60261 -0.770938 0.799999
    endloop
  endfacet
  facet normal -0.951058 0.309012 0
    outer loop
      vertex 6.60261 -0.770938 3
      vertex 6.48231 -1.14119 0.799999
      vertex 6.48231 -1.14119 3
    endloop
  endfacet
  facet normal 0.368116 0.92978 -0
    outer loop
      vertex 2.64205 -2.94827 0.799999
      vertex 2.28008 -2.80496 3
      vertex 2.64205 -2.94827 3
    endloop
  endfacet
  facet normal 0.368116 0.92978 0
    outer loop
      vertex 2.28008 -2.80496 3
      vertex 2.64205 -2.94827 0.799999
      vertex 2.28008 -2.80496 0.799999
    endloop
  endfacet
  facet normal -0.904823 -0.425787 0
    outer loop
      vertex 6.48231 1.14119 0.799999
      vertex 6.31655 1.49344 3
      vertex 6.31655 1.49344 0.799999
    endloop
  endfacet
  facet normal -0.904823 -0.425787 0
    outer loop
      vertex 6.31655 1.49344 3
      vertex 6.48231 1.14119 0.799999
      vertex 6.48231 1.14119 3
    endloop
  endfacet
  facet normal -0.982286 -0.187387 0
    outer loop
      vertex 6.67556 0.388533 0.799999
      vertex 6.60261 0.770938 3
      vertex 6.60261 0.770938 0.799999
    endloop
  endfacet
  facet normal -0.982286 -0.187387 0
    outer loop
      vertex 6.60261 0.770938 3
      vertex 6.67556 0.388533 0.799999
      vertex 6.67556 0.388533 3
    endloop
  endfacet
  facet normal -0.84432 -0.53584 0
    outer loop
      vertex 6.31655 1.49344 0.799999
      vertex 6.10795 1.82213 3
      vertex 6.10795 1.82213 0.799999
    endloop
  endfacet
  facet normal -0.84432 -0.53584 0
    outer loop
      vertex 6.10795 1.82213 3
      vertex 6.31655 1.49344 0.799999
      vertex 6.31655 1.49344 3
    endloop
  endfacet
  facet normal -0.368116 -0.92978 0
    outer loop
      vertex 4.55795 2.94827 0.799999
      vertex 4.91992 2.80496 3
      vertex 4.55795 2.94827 3
    endloop
  endfacet
  facet normal -0.368116 -0.92978 -0
    outer loop
      vertex 4.91992 2.80496 3
      vertex 4.55795 2.94827 0.799999
      vertex 4.91992 2.80496 0.799999
    endloop
  endfacet
  facet normal 0 -1 0
    outer loop
      vertex 3.40535 3.09388 0.799999
      vertex 3.79465 3.09388 3
      vertex 3.40535 3.09388 3
    endloop
  endfacet
  facet normal 0 -1 -0
    outer loop
      vertex 3.79465 3.09388 3
      vertex 3.40535 3.09388 0.799999
      vertex 3.79465 3.09388 0.799999
    endloop
  endfacet
  facet normal 0 0 1
    outer loop
      vertex 6.67556 0.388533 0.799999
      vertex 6.67556 -0.388533 0.799999
      vertex 6.7 0 0.799999
    endloop
  endfacet
  facet normal 0 0 1
    outer loop
      vertex 6.60261 0.770938 0.799999
      vertex 6.67556 -0.388533 0.799999
      vertex 6.67556 0.388533 0.799999
    endloop
  endfacet
  facet normal 0 0 1
    outer loop
      vertex 6.60261 0.770938 0.799999
      vertex 6.60261 -0.770938 0.799999
      vertex 6.67556 -0.388533 0.799999
    endloop
  endfacet
  facet normal 0 0 1
    outer loop
      vertex 6.48231 1.14119 0.799999
      vertex 6.60261 -0.770938 0.799999
      vertex 6.60261 0.770938 0.799999
    endloop
  endfacet
  facet normal 0 0 1
    outer loop
      vertex 6.48231 1.14119 0.799999
      vertex 6.48231 -1.14119 0.799999
      vertex 6.60261 -0.770938 0.799999
    endloop
  endfacet
  facet normal 0 0 1
    outer loop
      vertex 6.31655 1.49344 0.799999
      vertex 6.48231 -1.14119 0.799999
      vertex 6.48231 1.14119 0.799999
    endloop
  endfacet
  facet normal 0 0 1
    outer loop
      vertex 6.31655 1.49344 0.799999
      vertex 6.31655 -1.49344 0.799999
      vertex 6.48231 -1.14119 0.799999
    endloop
  endfacet
  facet normal 0 0 1
    outer loop
      vertex 6.10795 1.82213 0.799999
      vertex 6.31655 -1.49344 0.799999
      vertex 6.31655 1.49344 0.799999
    endloop
  endfacet
  facet normal 0 0 1
    outer loop
      vertex 6.10795 1.82213 0.799999
      vertex 6.10795 -1.82213 0.799999
      vertex 6.31655 -1.49344 0.799999
    endloop
  endfacet
  facet normal 0 0 1
    outer loop
      vertex 5.8598 2.1221 0.799999
      vertex 6.10795 -1.82213 0.799999
      vertex 6.10795 1.82213 0.799999
    endloop
  endfacet
  facet normal 0 0 1
    outer loop
      vertex 5.8598 2.1221 0.799999
      vertex 5.8598 -2.1221 0.799999
      vertex 6.10795 -1.82213 0.799999
    endloop
  endfacet
  facet normal 0 0 1
    outer loop
      vertex 5.57601 2.38859 0.799999
      vertex 5.8598 -2.1221 0.799999
      vertex 5.8598 2.1221 0.799999
    endloop
  endfacet
  facet normal 0 0 1
    outer loop
      vertex 5.57601 2.38859 0.799999
      vertex 5.57601 -2.38859 0.799999
      vertex 5.8598 -2.1221 0.799999
    endloop
  endfacet
  facet normal 0 0 1
    outer loop
      vertex 5.26106 2.61742 0.799999
      vertex 5.57601 -2.38859 0.799999
      vertex 5.57601 2.38859 0.799999
    endloop
  endfacet
  facet normal 0 0 1
    outer loop
      vertex 5.26106 2.61742 0.799999
      vertex 5.26106 -2.61742 0.799999
      vertex 5.57601 -2.38859 0.799999
    endloop
  endfacet
  facet normal 0 0 1
    outer loop
      vertex 4.91992 2.80496 0.799999
      vertex 5.26106 -2.61742 0.799999
      vertex 5.26106 2.61742 0.799999
    endloop
  endfacet
  facet normal 0 0 1
    outer loop
      vertex 4.91992 2.80496 0.799999
      vertex 4.91992 -2.80496 0.799999
      vertex 5.26106 -2.61742 0.799999
    endloop
  endfacet
  facet normal 0 0 1
    outer loop
      vertex 4.55795 2.94827 0.799999
      vertex 4.91992 -2.80496 0.799999
      vertex 4.91992 2.80496 0.799999
    endloop
  endfacet
  facet normal 0 0 1
    outer loop
      vertex 4.55795 2.94827 0.799999
      vertex 4.55795 -2.94827 0.799999
      vertex 4.91992 -2.80496 0.799999
    endloop
  endfacet
  facet normal 0 0 1
    outer loop
      vertex 4.18088 3.04509 0.799999
      vertex 4.55795 -2.94827 0.799999
      vertex 4.55795 2.94827 0.799999
    endloop
  endfacet
  facet normal 0 0 1
    outer loop
      vertex 4.18088 3.04509 0.799999
      vertex 4.18088 -3.04509 0.799999
      vertex 4.55795 -2.94827 0.799999
    endloop
  endfacet
  facet normal 0 0 1
    outer loop
      vertex 3.79465 3.09388 0.799999
      vertex 4.18088 -3.04509 0.799999
      vertex 4.18088 3.04509 0.799999
    endloop
  endfacet
  facet normal 0 0 1
    outer loop
      vertex 3.79465 3.09388 0.799999
      vertex 3.79465 -3.09388 0.799999
      vertex 4.18088 -3.04509 0.799999
    endloop
  endfacet
  facet normal -0 0 1
    outer loop
      vertex 3.40535 3.09388 0.799999
      vertex 3.79465 -3.09388 0.799999
      vertex 3.79465 3.09388 0.799999
    endloop
  endfacet
  facet normal 0 0 1
    outer loop
      vertex 3.40535 3.09388 0.799999
      vertex 3.40535 -3.09388 0.799999
      vertex 3.79465 -3.09388 0.799999
    endloop
  endfacet
  facet normal -0 0 1
    outer loop
      vertex 3.01912 3.04509 0.799999
      vertex 3.40535 -3.09388 0.799999
      vertex 3.40535 3.09388 0.799999
    endloop
  endfacet
  facet normal 0 0 1
    outer loop
      vertex 3.01912 3.04509 0.799999
      vertex 3.01912 -3.04509 0.799999
      vertex 3.40535 -3.09388 0.799999
    endloop
  endfacet
  facet normal -0 0 1
    outer loop
      vertex 2.64205 2.94827 0.799999
      vertex 3.01912 -3.04509 0.799999
      vertex 3.01912 3.04509 0.799999
    endloop
  endfacet
  facet normal 0 0 1
    outer loop
      vertex 2.64205 2.94827 0.799999
      vertex 2.64205 -2.94827 0.799999
      vertex 3.01912 -3.04509 0.799999
    endloop
  endfacet
  facet normal -0 0 1
    outer loop
      vertex 2.28008 2.80496 0.799999
      vertex 2.64205 -2.94827 0.799999
      vertex 2.64205 2.94827 0.799999
    endloop
  endfacet
  facet normal 0 0 1
    outer loop
      vertex 2.28008 2.80496 0.799999
      vertex 2.28008 -2.80496 0.799999
      vertex 2.64205 -2.94827 0.799999
    endloop
  endfacet
  facet normal -0 0 1
    outer loop
      vertex 1.93894 2.61742 0.799999
      vertex 2.28008 -2.80496 0.799999
      vertex 2.28008 2.80496 0.799999
    endloop
  endfacet
  facet normal 0 0 1
    outer loop
      vertex 1.93894 2.61742 0.799999
      vertex 1.93894 -2.61742 0.799999
      vertex 2.28008 -2.80496 0.799999
    endloop
  endfacet
  facet normal -0 0 1
    outer loop
      vertex 1.62399 2.38859 0.799999
      vertex 1.93894 -2.61742 0.799999
      vertex 1.93894 2.61742 0.799999
    endloop
  endfacet
  facet normal 0 0 1
    outer loop
      vertex 1.62399 2.38859 0.799999
      vertex 1.62399 -2.38859 0.799999
      vertex 1.93894 -2.61742 0.799999
    endloop
  endfacet
  facet normal -0 0 1
    outer loop
      vertex 1.3402 2.1221 0.799999
      vertex 1.62399 -2.38859 0.799999
      vertex 1.62399 2.38859 0.799999
    endloop
  endfacet
  facet normal 0 0 1
    outer loop
      vertex 1.3402 2.1221 0.799999
      vertex 1.3402 -2.1221 0.799999
      vertex 1.62399 -2.38859 0.799999
    endloop
  endfacet
  facet normal -0 0 1
    outer loop
      vertex 1.09205 1.82213 0.799999
      vertex 1.3402 -2.1221 0.799999
      vertex 1.3402 2.1221 0.799999
    endloop
  endfacet
  facet normal 0 0 1
    outer loop
      vertex 1.09205 1.82213 0.799999
      vertex 1.09205 -1.82213 0.799999
      vertex 1.3402 -2.1221 0.799999
    endloop
  endfacet
  facet normal -0 0 1
    outer loop
      vertex 0.883449 1.49344 0.799999
      vertex 1.09205 -1.82213 0.799999
      vertex 1.09205 1.82213 0.799999
    endloop
  endfacet
  facet normal 0 0 1
    outer loop
      vertex 0.883449 1.49344 0.799999
      vertex 0.883449 -1.49344 0.799999
      vertex 1.09205 -1.82213 0.799999
    endloop
  endfacet
  facet normal -0 0 1
    outer loop
      vertex 0.717692 1.14119 0.799999
      vertex 0.883449 -1.49344 0.799999
      vertex 0.883449 1.49344 0.799999
    endloop
  endfacet
  facet normal 0 0 1
    outer loop
      vertex 0.717692 1.14119 0.799999
      vertex 0.717692 -1.14119 0.799999
      vertex 0.883449 -1.49344 0.799999
    endloop
  endfacet
  facet normal -0 0 1
    outer loop
      vertex 0.597392 0.770938 0.799999
      vertex 0.717692 -1.14119 0.799999
      vertex 0.717692 1.14119 0.799999
    endloop
  endfacet
  facet normal 0 0 1
    outer loop
      vertex 0.597392 0.770938 0.799999
      vertex 0.597392 -0.770938 0.799999
      vertex 0.717692 -1.14119 0.799999
    endloop
  endfacet
  facet normal -0 0 1
    outer loop
      vertex 0.524444 0.388533 0.799999
      vertex 0.597392 -0.770938 0.799999
      vertex 0.597392 0.770938 0.799999
    endloop
  endfacet
  facet normal 0 0 1
    outer loop
      vertex 0.524444 0.388533 0.799999
      vertex 0.524444 -0.388533 0.799999
      vertex 0.597392 -0.770938 0.799999
    endloop
  endfacet
  facet normal 0 -0 1
    outer loop
      vertex 0.524444 -0.388533 0.799999
      vertex 0.524444 0.388533 0.799999
      vertex 0.5 0 0.799999
    endloop
  endfacet
  facet normal 0.998027 -0.0627894 0
    outer loop
      vertex 0.5 0 3
      vertex 0.524444 0.388533 0.799999
      vertex 0.524444 0.388533 3
    endloop
  endfacet
  facet normal 0.998027 -0.0627894 0
    outer loop
      vertex 0.524444 0.388533 0.799999
      vertex 0.5 0 3
      vertex 0.5 0 0.799999
    endloop
  endfacet
  facet normal 0.844319 -0.535841 0
    outer loop
      vertex 0.883449 1.49344 3
      vertex 1.09205 1.82213 0.799999
      vertex 1.09205 1.82213 3
    endloop
  endfacet
  facet normal 0.844319 -0.535841 0
    outer loop
      vertex 1.09205 1.82213 0.799999
      vertex 0.883449 1.49344 3
      vertex 0.883449 1.49344 0.799999
    endloop
  endfacet
  facet normal 0.587794 -0.80901 0
    outer loop
      vertex 1.62399 2.38859 0.799999
      vertex 1.93894 2.61742 3
      vertex 1.62399 2.38859 3
    endloop
  endfacet
  facet normal 0.587794 -0.80901 0
    outer loop
      vertex 1.93894 2.61742 3
      vertex 1.62399 2.38859 0.799999
      vertex 1.93894 2.61742 0.799999
    endloop
  endfacet
  facet normal 0.248702 -0.96858 0
    outer loop
      vertex 2.64205 2.94827 0.799999
      vertex 3.01912 3.04509 3
      vertex 2.64205 2.94827 3
    endloop
  endfacet
  facet normal 0.248702 -0.96858 0
    outer loop
      vertex 3.01912 3.04509 3
      vertex 2.64205 2.94827 0.799999
      vertex 3.01912 3.04509 0.799999
    endloop
  endfacet
  facet normal -0.998027 -0.0627792 0
    outer loop
      vertex 6.7 0 0.799999
      vertex 6.67556 0.388533 3
      vertex 6.67556 0.388533 0.799999
    endloop
  endfacet
  facet normal -0.998027 -0.0627792 0
    outer loop
      vertex 6.67556 0.388533 3
      vertex 6.7 0 0.799999
      vertex 6.7 0 3
    endloop
  endfacet
  facet normal -0.587794 0.80901 0
    outer loop
      vertex 5.57601 -2.38859 0.799999
      vertex 5.26106 -2.61742 3
      vertex 5.57601 -2.38859 3
    endloop
  endfacet
  facet normal -0.587794 0.80901 0
    outer loop
      vertex 5.26106 -2.61742 3
      vertex 5.57601 -2.38859 0.799999
      vertex 5.26106 -2.61742 0.799999
    endloop
  endfacet
  facet normal -0.84432 0.53584 0
    outer loop
      vertex 6.10795 -1.82213 0.799999
      vertex 6.31655 -1.49344 3
      vertex 6.31655 -1.49344 0.799999
    endloop
  endfacet
  facet normal -0.84432 0.53584 0
    outer loop
      vertex 6.31655 -1.49344 3
      vertex 6.10795 -1.82213 0.799999
      vertex 6.10795 -1.82213 3
    endloop
  endfacet
  facet normal 0 1 -0
    outer loop
      vertex 3.79465 -3.09388 0.799999
      vertex 3.40535 -3.09388 3
      vertex 3.79465 -3.09388 3
    endloop
  endfacet
  facet normal 0 1 0
    outer loop
      vertex 3.40535 -3.09388 3
      vertex 3.79465 -3.09388 0.799999
      vertex 3.40535 -3.09388 0.799999
    endloop
  endfacet
  facet normal 0.587794 0.80901 -0
    outer loop
      vertex 1.93894 -2.61742 0.799999
      vertex 1.62399 -2.38859 3
      vertex 1.93894 -2.61742 3
    endloop
  endfacet
  facet normal 0.587794 0.80901 0
    outer loop
      vertex 1.62399 -2.38859 3
      vertex 1.93894 -2.61742 0.799999
      vertex 1.62399 -2.38859 0.799999
    endloop
  endfacet
  facet normal 0.844319 0.535841 0
    outer loop
      vertex 1.09205 -1.82213 3
      vertex 0.883449 -1.49344 0.799999
      vertex 0.883449 -1.49344 3
    endloop
  endfacet
  facet normal 0.844319 0.535841 0
    outer loop
      vertex 0.883449 -1.49344 0.799999
      vertex 1.09205 -1.82213 3
      vertex 1.09205 -1.82213 0.799999
    endloop
  endfacet
  facet normal 0.951058 0.309012 0
    outer loop
      vertex 0.717692 -1.14119 3
      vertex 0.597392 -0.770938 0.799999
      vertex 0.597392 -0.770938 3
    endloop
  endfacet
  facet normal 0.951058 0.309012 0
    outer loop
      vertex 0.597392 -0.770938 0.799999
      vertex 0.717692 -1.14119 3
      vertex 0.717692 -1.14119 0.799999
    endloop
  endfacet
  facet normal -0.951058 -0.309012 0
    outer loop
      vertex 6.60261 0.770938 0.799999
      vertex 6.48231 1.14119 3
      vertex 6.48231 1.14119 0.799999
    endloop
  endfacet
  facet normal -0.951058 -0.309012 0
    outer loop
      vertex 6.48231 1.14119 3
      vertex 6.60261 0.770938 0.799999
      vertex 6.60261 0.770938 3
    endloop
  endfacet
  facet normal -0.770522 -0.637414 0
    outer loop
      vertex 6.10795 1.82213 0.799999
      vertex 5.8598 2.1221 3
      vertex 5.8598 2.1221 0.799999
    endloop
  endfacet
  facet normal -0.770522 -0.637414 0
    outer loop
      vertex 5.8598 2.1221 3
      vertex 6.10795 1.82213 0.799999
      vertex 6.10795 1.82213 3
    endloop
  endfacet
  facet normal -0.684538 -0.728977 0
    outer loop
      vertex 5.57601 2.38859 0.799999
      vertex 5.8598 2.1221 3
      vertex 5.57601 2.38859 3
    endloop
  endfacet
  facet normal -0.684538 -0.728977 -0
    outer loop
      vertex 5.8598 2.1221 3
      vertex 5.57601 2.38859 0.799999
      vertex 5.8598 2.1221 0.799999
    endloop
  endfacet
  facet normal -0.481747 -0.87631 0
    outer loop
      vertex 4.91992 2.80496 0.799999
      vertex 5.26106 2.61742 3
      vertex 4.91992 2.80496 3
    endloop
  endfacet
  facet normal -0.481747 -0.87631 -0
    outer loop
      vertex 5.26106 2.61742 3
      vertex 4.91992 2.80496 0.799999
      vertex 5.26106 2.61742 0.799999
    endloop
  endfacet
  facet normal -0.248702 -0.96858 0
    outer loop
      vertex 4.18088 3.04509 0.799999
      vertex 4.55795 2.94827 3
      vertex 4.18088 3.04509 3
    endloop
  endfacet
  facet normal -0.248702 -0.96858 -0
    outer loop
      vertex 4.55795 2.94827 3
      vertex 4.18088 3.04509 0.799999
      vertex 4.55795 2.94827 0.799999
    endloop
  endfacet
  facet normal -0.125328 -0.992115 0
    outer loop
      vertex 3.79465 3.09388 0.799999
      vertex 4.18088 3.04509 3
      vertex 3.79465 3.09388 3
    endloop
  endfacet
  facet normal -0.125328 -0.992115 -0
    outer loop
      vertex 4.18088 3.04509 3
      vertex 3.79465 3.09388 0.799999
      vertex 4.18088 3.04509 0.799999
    endloop
  endfacet
  facet normal 0.998027 0.0627894 0
    outer loop
      vertex 0.524444 -0.388533 3
      vertex 0.5 0 0.799999
      vertex 0.5 0 3
    endloop
  endfacet
  facet normal 0.998027 0.0627894 0
    outer loop
      vertex 0.5 0 0.799999
      vertex 0.524444 -0.388533 3
      vertex 0.524444 -0.388533 0.799999
    endloop
  endfacet
  facet normal 0.982287 -0.187382 0
    outer loop
      vertex 0.524444 0.388533 3
      vertex 0.597392 0.770938 0.799999
      vertex 0.597392 0.770938 3
    endloop
  endfacet
  facet normal 0.982287 -0.187382 0
    outer loop
      vertex 0.597392 0.770938 0.799999
      vertex 0.524444 0.388533 3
      vertex 0.524444 0.388533 0.799999
    endloop
  endfacet
  facet normal 0.904826 -0.425781 0
    outer loop
      vertex 0.717692 1.14119 3
      vertex 0.883449 1.49344 0.799999
      vertex 0.883449 1.49344 3
    endloop
  endfacet
  facet normal 0.904826 -0.425781 0
    outer loop
      vertex 0.883449 1.49344 0.799999
      vertex 0.717692 1.14119 3
      vertex 0.717692 1.14119 0.799999
    endloop
  endfacet
  facet normal 0.368116 -0.92978 0
    outer loop
      vertex 2.28008 2.80496 0.799999
      vertex 2.64205 2.94827 3
      vertex 2.28008 2.80496 3
    endloop
  endfacet
  facet normal 0.368116 -0.92978 0
    outer loop
      vertex 2.64205 2.94827 3
      vertex 2.28008 2.80496 0.799999
      vertex 2.64205 2.94827 0.799999
    endloop
  endfacet
  facet normal 0.125328 -0.992115 0
    outer loop
      vertex 3.01912 3.04509 0.799999
      vertex 3.40535 3.09388 3
      vertex 3.01912 3.04509 3
    endloop
  endfacet
  facet normal 0.125328 -0.992115 0
    outer loop
      vertex 3.40535 3.09388 3
      vertex 3.01912 3.04509 0.799999
      vertex 3.40535 3.09388 0.799999
    endloop
  endfacet
  facet normal 0.684538 -0.728977 0
    outer loop
      vertex 1.3402 2.1221 0.799999
      vertex 1.62399 2.38859 3
      vertex 1.3402 2.1221 3
    endloop
  endfacet
  facet normal 0.684538 -0.728977 0
    outer loop
      vertex 1.62399 2.38859 3
      vertex 1.3402 2.1221 0.799999
      vertex 1.62399 2.38859 0.799999
    endloop
  endfacet
  facet normal 0.770522 -0.637414 0
    outer loop
      vertex 1.09205 1.82213 3
      vertex 1.3402 2.1221 0.799999
      vertex 1.3402 2.1221 3
    endloop
  endfacet
  facet normal 0.770522 -0.637414 0
    outer loop
      vertex 1.3402 2.1221 0.799999
      vertex 1.09205 1.82213 3
      vertex 1.09205 1.82213 0.799999
    endloop
  endfacet
  facet normal -0.982286 0.187387 0
    outer loop
      vertex 6.60261 -0.770938 0.799999
      vertex 6.67556 -0.388533 3
      vertex 6.67556 -0.388533 0.799999
    endloop
  endfacet
  facet normal -0.982286 0.187387 0
    outer loop
      vertex 6.67556 -0.388533 3
      vertex 6.60261 -0.770938 0.799999
      vertex 6.60261 -0.770938 3
    endloop
  endfacet
  facet normal -0.125328 0.992115 0
    outer loop
      vertex 4.18088 -3.04509 0.799999
      vertex 3.79465 -3.09388 3
      vertex 4.18088 -3.04509 3
    endloop
  endfacet
  facet normal -0.125328 0.992115 0
    outer loop
      vertex 3.79465 -3.09388 3
      vertex 4.18088 -3.04509 0.799999
      vertex 3.79465 -3.09388 0.799999
    endloop
  endfacet
  facet normal -0.248702 0.96858 0
    outer loop
      vertex 4.55795 -2.94827 0.799999
      vertex 4.18088 -3.04509 3
      vertex 4.55795 -2.94827 3
    endloop
  endfacet
  facet normal -0.248702 0.96858 0
    outer loop
      vertex 4.18088 -3.04509 3
      vertex 4.55795 -2.94827 0.799999
      vertex 4.18088 -3.04509 0.799999
    endloop
  endfacet
  facet normal -0.368116 0.92978 0
    outer loop
      vertex 4.91992 -2.80496 0.799999
      vertex 4.55795 -2.94827 3
      vertex 4.91992 -2.80496 3
    endloop
  endfacet
  facet normal -0.368116 0.92978 0
    outer loop
      vertex 4.55795 -2.94827 3
      vertex 4.91992 -2.80496 0.799999
      vertex 4.55795 -2.94827 0.799999
    endloop
  endfacet
  facet normal -0.684538 0.728977 0
    outer loop
      vertex 5.8598 -2.1221 0.799999
      vertex 5.57601 -2.38859 3
      vertex 5.8598 -2.1221 3
    endloop
  endfacet
  facet normal -0.684538 0.728977 0
    outer loop
      vertex 5.57601 -2.38859 3
      vertex 5.8598 -2.1221 0.799999
      vertex 5.57601 -2.38859 0.799999
    endloop
  endfacet
  facet normal -0.904823 0.425787 0
    outer loop
      vertex 6.31655 -1.49344 0.799999
      vertex 6.48231 -1.14119 3
      vertex 6.48231 -1.14119 0.799999
    endloop
  endfacet
  facet normal -0.904823 0.425787 0
    outer loop
      vertex 6.48231 -1.14119 3
      vertex 6.31655 -1.49344 0.799999
      vertex 6.31655 -1.49344 3
    endloop
  endfacet
  facet normal 0.248702 0.96858 -0
    outer loop
      vertex 3.01912 -3.04509 0.799999
      vertex 2.64205 -2.94827 3
      vertex 3.01912 -3.04509 3
    endloop
  endfacet
  facet normal 0.248702 0.96858 0
    outer loop
      vertex 2.64205 -2.94827 3
      vertex 3.01912 -3.04509 0.799999
      vertex 2.64205 -2.94827 0.799999
    endloop
  endfacet
  facet normal 0.481747 0.87631 -0
    outer loop
      vertex 2.28008 -2.80496 0.799999
      vertex 1.93894 -2.61742 3
      vertex 2.28008 -2.80496 3
    endloop
  endfacet
  facet normal 0.481747 0.87631 0
    outer loop
      vertex 1.93894 -2.61742 3
      vertex 2.28008 -2.80496 0.799999
      vertex 1.93894 -2.61742 0.799999
    endloop
  endfacet
  facet normal 0.904826 0.425781 0
    outer loop
      vertex 0.883449 -1.49344 3
      vertex 0.717692 -1.14119 0.799999
      vertex 0.717692 -1.14119 3
    endloop
  endfacet
  facet normal 0.904826 0.425781 0
    outer loop
      vertex 0.717692 -1.14119 0.799999
      vertex 0.883449 -1.49344 3
      vertex 0.883449 -1.49344 0.799999
    endloop
  endfacet
  facet normal 0.982287 0.187382 0
    outer loop
      vertex 0.597392 -0.770938 3
      vertex 0.524444 -0.388533 0.799999
      vertex 0.524444 -0.388533 3
    endloop
  endfacet
  facet normal 0.982287 0.187382 0
    outer loop
      vertex 0.524444 -0.388533 0.799999
      vertex 0.597392 -0.770938 3
      vertex 0.597392 -0.770938 0.799999
    endloop
  endfacet
  facet normal 0.770522 0.637414 0
    outer loop
      vertex 1.3402 -2.1221 3
      vertex 1.09205 -1.82213 0.799999
      vertex 1.09205 -1.82213 3
    endloop
  endfacet
  facet normal 0.770522 0.637414 0
    outer loop
      vertex 1.09205 -1.82213 0.799999
      vertex 1.3402 -2.1221 3
      vertex 1.3402 -2.1221 0.799999
    endloop
  endfacet
  facet normal 0 0 -1
    outer loop
      vertex 6.67556 -0.388533 3
      vertex 6.67556 0.388533 3
      vertex 6.7 0 3
    endloop
  endfacet
  facet normal 0 0 -1
    outer loop
      vertex 6.60261 -0.770938 3
      vertex 6.67556 0.388533 3
      vertex 6.67556 -0.388533 3
    endloop
  endfacet
  facet normal 0 0 -1
    outer loop
      vertex 6.60261 -0.770938 3
      vertex 6.60261 0.770938 3
      vertex 6.67556 0.388533 3
    endloop
  endfacet
  facet normal 0 0 -1
    outer loop
      vertex 6.48231 -1.14119 3
      vertex 6.60261 0.770938 3
      vertex 6.60261 -0.770938 3
    endloop
  endfacet
  facet normal 0 0 -1
    outer loop
      vertex 6.48231 -1.14119 3
      vertex 6.48231 1.14119 3
      vertex 6.60261 0.770938 3
    endloop
  endfacet
  facet normal 0 0 -1
    outer loop
      vertex 6.31655 -1.49344 3
      vertex 6.48231 1.14119 3
      vertex 6.48231 -1.14119 3
    endloop
  endfacet
  facet normal 0 0 -1
    outer loop
      vertex 6.31655 -1.49344 3
      vertex 6.31655 1.49344 3
      vertex 6.48231 1.14119 3
    endloop
  endfacet
  facet normal 0 0 -1
    outer loop
      vertex 6.10795 -1.82213 3
      vertex 6.31655 1.49344 3
      vertex 6.31655 -1.49344 3
    endloop
  endfacet
  facet normal 0 0 -1
    outer loop
      vertex 6.10795 -1.82213 3
      vertex 6.10795 1.82213 3
      vertex 6.31655 1.49344 3
    endloop
  endfacet
  facet normal 0 0 -1
    outer loop
      vertex 5.8598 -2.1221 3
      vertex 6.10795 1.82213 3
      vertex 6.10795 -1.82213 3
    endloop
  endfacet
  facet normal 0 0 -1
    outer loop
      vertex 5.8598 -2.1221 3
      vertex 5.8598 2.1221 3
      vertex 6.10795 1.82213 3
    endloop
  endfacet
  facet normal 0 0 -1
    outer loop
      vertex 5.57601 -2.38859 3
      vertex 5.8598 2.1221 3
      vertex 5.8598 -2.1221 3
    endloop
  endfacet
  facet normal 0 0 -1
    outer loop
      vertex 5.57601 -2.38859 3
      vertex 5.57601 2.38859 3
      vertex 5.8598 2.1221 3
    endloop
  endfacet
  facet normal 0 0 -1
    outer loop
      vertex 5.26106 -2.61742 3
      vertex 5.57601 2.38859 3
      vertex 5.57601 -2.38859 3
    endloop
  endfacet
  facet normal 0 0 -1
    outer loop
      vertex 5.26106 -2.61742 3
      vertex 5.26106 2.61742 3
      vertex 5.57601 2.38859 3
    endloop
  endfacet
  facet normal 0 0 -1
    outer loop
      vertex 4.91992 -2.80496 3
      vertex 5.26106 2.61742 3
      vertex 5.26106 -2.61742 3
    endloop
  endfacet
  facet normal 0 0 -1
    outer loop
      vertex 4.91992 -2.80496 3
      vertex 4.91992 2.80496 3
      vertex 5.26106 2.61742 3
    endloop
  endfacet
  facet normal 0 0 -1
    outer loop
      vertex 4.55795 -2.94827 3
      vertex 4.91992 2.80496 3
      vertex 4.91992 -2.80496 3
    endloop
  endfacet
  facet normal 0 0 -1
    outer loop
      vertex 4.55795 -2.94827 3
      vertex 4.55795 2.94827 3
      vertex 4.91992 2.80496 3
    endloop
  endfacet
  facet normal 0 0 -1
    outer loop
      vertex 4.18088 -3.04509 3
      vertex 4.55795 2.94827 3
      vertex 4.55795 -2.94827 3
    endloop
  endfacet
  facet normal 0 0 -1
    outer loop
      vertex 4.18088 -3.04509 3
      vertex 4.18088 3.04509 3
      vertex 4.55795 2.94827 3
    endloop
  endfacet
  facet normal 0 0 -1
    outer loop
      vertex 3.79465 -3.09388 3
      vertex 4.18088 3.04509 3
      vertex 4.18088 -3.04509 3
    endloop
  endfacet
  facet normal 0 0 -1
    outer loop
      vertex 3.79465 -3.09388 3
      vertex 3.79465 3.09388 3
      vertex 4.18088 3.04509 3
    endloop
  endfacet
  facet normal 0 0 -1
    outer loop
      vertex 3.40535 -3.09388 3
      vertex 3.79465 3.09388 3
      vertex 3.79465 -3.09388 3
    endloop
  endfacet
  facet normal 0 0 -1
    outer loop
      vertex 3.40535 -3.09388 3
      vertex 3.40535 3.09388 3
      vertex 3.79465 3.09388 3
    endloop
  endfacet
  facet normal 0 0 -1
    outer loop
      vertex 3.01912 -3.04509 3
      vertex 3.40535 3.09388 3
      vertex 3.40535 -3.09388 3
    endloop
  endfacet
  facet normal 0 0 -1
    outer loop
      vertex 3.01912 -3.04509 3
      vertex 3.01912 3.04509 3
      vertex 3.40535 3.09388 3
    endloop
  endfacet
  facet normal 0 0 -1
    outer loop
      vertex 2.64205 -2.94827 3
      vertex 3.01912 3.04509 3
      vertex 3.01912 -3.04509 3
    endloop
  endfacet
  facet normal 0 0 -1
    outer loop
      vertex 2.64205 -2.94827 3
      vertex 2.64205 2.94827 3
      vertex 3.01912 3.04509 3
    endloop
  endfacet
  facet normal 0 0 -1
    outer loop
      vertex 2.28008 -2.80496 3
      vertex 2.64205 2.94827 3
      vertex 2.64205 -2.94827 3
    endloop
  endfacet
  facet normal 0 0 -1
    outer loop
      vertex 2.28008 -2.80496 3
      vertex 2.28008 2.80496 3
      vertex 2.64205 2.94827 3
    endloop
  endfacet
  facet normal 0 0 -1
    outer loop
      vertex 1.93894 -2.61742 3
      vertex 2.28008 2.80496 3
      vertex 2.28008 -2.80496 3
    endloop
  endfacet
  facet normal 0 0 -1
    outer loop
      vertex 1.93894 -2.61742 3
      vertex 1.93894 2.61742 3
      vertex 2.28008 2.80496 3
    endloop
  endfacet
  facet normal 0 0 -1
    outer loop
      vertex 1.62399 -2.38859 3
      vertex 1.93894 2.61742 3
      vertex 1.93894 -2.61742 3
    endloop
  endfacet
  facet normal 0 0 -1
    outer loop
      vertex 1.62399 -2.38859 3
      vertex 1.62399 2.38859 3
      vertex 1.93894 2.61742 3
    endloop
  endfacet
  facet normal 0 0 -1
    outer loop
      vertex 1.3402 -2.1221 3
      vertex 1.62399 2.38859 3
      vertex 1.62399 -2.38859 3
    endloop
  endfacet
  facet normal 0 0 -1
    outer loop
      vertex 1.3402 -2.1221 3
      vertex 1.3402 2.1221 3
      vertex 1.62399 2.38859 3
    endloop
  endfacet
  facet normal 0 0 -1
    outer loop
      vertex 1.09205 -1.82213 3
      vertex 1.3402 2.1221 3
      vertex 1.3402 -2.1221 3
    endloop
  endfacet
  facet normal 0 0 -1
    outer loop
      vertex 1.09205 -1.82213 3
      vertex 1.09205 1.82213 3
      vertex 1.3402 2.1221 3
    endloop
  endfacet
  facet normal 0 0 -1
    outer loop
      vertex 0.883449 -1.49344 3
      vertex 1.09205 1.82213 3
      vertex 1.09205 -1.82213 3
    endloop
  endfacet
  facet normal 0 0 -1
    outer loop
      vertex 0.883449 -1.49344 3
      vertex 0.883449 1.49344 3
      vertex 1.09205 1.82213 3
    endloop
  endfacet
  facet normal 0 0 -1
    outer loop
      vertex 0.717692 -1.14119 3
      vertex 0.883449 1.49344 3
      vertex 0.883449 -1.49344 3
    endloop
  endfacet
  facet normal 0 0 -1
    outer loop
      vertex 0.717692 -1.14119 3
      vertex 0.717692 1.14119 3
      vertex 0.883449 1.49344 3
    endloop
  endfacet
  facet normal 0 0 -1
    outer loop
      vertex 0.597392 -0.770938 3
      vertex 0.717692 1.14119 3
      vertex 0.717692 -1.14119 3
    endloop
  endfacet
  facet normal 0 0 -1
    outer loop
      vertex 0.597392 -0.770938 3
      vertex 0.597392 0.770938 3
      vertex 0.717692 1.14119 3
    endloop
  endfacet
  facet normal 0 0 -1
    outer loop
      vertex 0.524444 -0.388533 3
      vertex 0.597392 0.770938 3
      vertex 0.597392 -0.770938 3
    endloop
  endfacet
  facet normal 0 0 -1
    outer loop
      vertex 0.524444 -0.388533 3
      vertex 0.524444 0.388533 3
      vertex 0.597392 0.770938 3
    endloop
  endfacet
  facet normal 0 -0 -1
    outer loop
      vertex 0.524444 0.388533 3
      vertex 0.524444 -0.388533 3
      vertex 0.5 0 3
    endloop
  endfacet
  facet normal -0.998027 0.0627792 0
    outer loop
      vertex 6.67556 -0.388533 0.799999
      vertex 6.7 0 3
      vertex 6.7 0 0.799999
    endloop
  endfacet
  facet normal -0.998027 0.0627792 0
    outer loop
      vertex 6.7 0 3
      vertex 6.67556 -0.388533 0.799999
      vertex 6.67556 -0.388533 3
    endloop
  endfacet
  facet normal -0.481747 0.87631 0
    outer loop
      vertex 5.26106 -2.61742 0.799999
      vertex 4.91992 -2.80496 3
      vertex 5.26106 -2.61742 3
    endloop
  endfacet
  facet normal -0.481747 0.87631 0
    outer loop
      vertex 4.91992 -2.80496 3
      vertex 5.26106 -2.61742 0.799999
      vertex 4.91992 -2.80496 0.799999
    endloop
  endfacet
  facet normal -0.770522 0.637414 0
    outer loop
      vertex 5.8598 -2.1221 0.799999
      vertex 6.10795 -1.82213 3
      vertex 6.10795 -1.82213 0.799999
    endloop
  endfacet
  facet normal -0.770522 0.637414 0
    outer loop
      vertex 6.10795 -1.82213 3
      vertex 5.8598 -2.1221 0.799999
      vertex 5.8598 -2.1221 3
    endloop
  endfacet
  facet normal 0.125328 0.992115 -0
    outer loop
      vertex 3.40535 -3.09388 0.799999
      vertex 3.01912 -3.04509 3
      vertex 3.40535 -3.09388 3
    endloop
  endfacet
  facet normal 0.125328 0.992115 0
    outer loop
      vertex 3.01912 -3.04509 3
      vertex 3.40535 -3.09388 0.799999
      vertex 3.01912 -3.04509 0.799999
    endloop
  endfacet
  facet normal 0.684538 0.728977 -0
    outer loop
      vertex 1.62399 -2.38859 0.799999
      vertex 1.3402 -2.1221 3
      vertex 1.62399 -2.38859 3
    endloop
  endfacet
  facet normal 0.684538 0.728977 0
    outer loop
      vertex 1.3402 -2.1221 3
      vertex 1.62399 -2.38859 0.799999
      vertex 1.3402 -2.1221 0.799999
    endloop
  endfacet
endsolid OpenSCAD_Model
