<svg id="my-svg" width="100%" xmlns="http://www.w3.org/2000/svg" xmlns:xlink="http://www.w3.org/1999/xlink" class="flowchart" style="max-width: 1745.64px; background-color: transparent;" viewBox="0 0 1745.64453125 2745.359375" role="graphics-document document" aria-roledescription="flowchart-v2"><style>#my-svg{font-size:16px;fill:#ccc;}@keyframes edge-animation-frame{from{stroke-dashoffset:0;}}@keyframes dash{to{stroke-dashoffset:0;}}#my-svg .edge-animation-slow{stroke-dasharray:9,5!important;stroke-dashoffset:900;animation:dash 50s linear infinite;stroke-linecap:round;}#my-svg .edge-animation-fast{stroke-dasharray:9,5!important;stroke-dashoffset:900;animation:dash 20s linear infinite;stroke-linecap:round;}#my-svg .error-icon{fill:#a44141;}#my-svg .error-text{fill:#ddd;stroke:#ddd;}#my-svg .edge-thickness-normal{stroke-width:1px;}#my-svg .edge-thickness-thick{stroke-width:3.5px;}#my-svg .edge-pattern-solid{stroke-dasharray:0;}#my-svg .edge-thickness-invisible{stroke-width:0;fill:none;}#my-svg .edge-pattern-dashed{stroke-dasharray:3;}#my-svg .edge-pattern-dotted{stroke-dasharray:2;}#my-svg .marker{fill:#94a3b8;stroke:#94a3b8;}#my-svg .marker.cross{stroke:#94a3b8;}#my-svg svg{font-size:16px;}#my-svg p{margin:0;}#my-svg .label{color:#ccc;}#my-svg .cluster-label text{fill:#f8fafc;}#my-svg .cluster-label span{color:#f8fafc;}#my-svg .cluster-label span p{background-color:transparent;}#my-svg .label text,#my-svg span{fill:#ccc;color:#ccc;}#my-svg .node rect,#my-svg .node circle,#my-svg .node ellipse,#my-svg .node polygon,#my-svg .node path{fill:#1f2020;stroke:#ccc;stroke-width:1px;}#my-svg .rough-node .label text,#my-svg .node .label text,#my-svg .image-shape .label,#my-svg .icon-shape .label{text-anchor:middle;}#my-svg .node .katex path{fill:#000;stroke:#000;stroke-width:1px;}#my-svg .rough-node .label,#my-svg .node .label,#my-svg .image-shape .label,#my-svg .icon-shape .label{text-align:center;}#my-svg .node.clickable{cursor:pointer;}#my-svg .root .anchor path{fill:#94a3b8!important;stroke-width:0;stroke:#94a3b8;}#my-svg .arrowheadPath{fill:lightgrey;}#my-svg .edgePath .path{stroke:#94a3b8;stroke-width:1px;}#my-svg .flowchart-link{stroke:#94a3b8;fill:none;}#my-svg .edgeLabel{background-color:#1e293b;text-align:center;}#my-svg .edgeLabel p{background-color:#1e293b;}#my-svg .edgeLabel rect{opacity:0.5;background-color:#1e293b;fill:#1e293b;}#my-svg .labelBkg{background-color:rgba(30, 41, 59, 0.5);}#my-svg .cluster rect{fill:#0f172a;stroke:#334155;stroke-width:1px;}#my-svg .cluster text{fill:#f8fafc;}#my-svg .cluster span{color:#f8fafc;}#my-svg div.mermaidTooltip{position:absolute;text-align:center;max-width:200px;padding:2px;font-size:12px;background:hsl(20, 1.5873015873%, 12.3529411765%);border:1px solid rgba(255, 255, 255, 0.25);border-radius:2px;pointer-events:none;z-index:100;}#my-svg .flowchartTitleText{text-anchor:middle;font-size:18px;fill:#ccc;}#my-svg rect.text{fill:none;stroke-width:0;}#my-svg .icon-shape,#my-svg .image-shape{background-color:#1e293b;text-align:center;}#my-svg .icon-shape p,#my-svg .image-shape p{background-color:#1e293b;padding:2px;}#my-svg .icon-shape .label rect,#my-svg .image-shape .label rect{opacity:0.5;background-color:#1e293b;fill:#1e293b;}#my-svg .label-icon{display:inline-block;height:1em;overflow:visible;vertical-align:-0.125em;}#my-svg .node .label-icon path{fill:currentColor;stroke:revert;stroke-width:revert;}#my-svg .node .neo-node{stroke:#ccc;}#my-svg [data-look="neo"].node rect,#my-svg [data-look="neo"].cluster rect,#my-svg [data-look="neo"].node polygon{stroke:url(#my-svg-gradient);filter:drop-shadow( 1px 2px 2px rgba(185,185,185,1));}#my-svg [data-look="neo"].node path{stroke:url(#my-svg-gradient);stroke-width:1px;}#my-svg [data-look="neo"].node .outer-path{filter:drop-shadow( 1px 2px 2px rgba(185,185,185,1));}#my-svg [data-look="neo"].node .neo-line path{stroke:#ccc;filter:none;}#my-svg [data-look="neo"].node circle{stroke:url(#my-svg-gradient);filter:drop-shadow( 1px 2px 2px rgba(185,185,185,1));}#my-svg [data-look="neo"].node circle .state-start{fill:#000000;}#my-svg [data-look="neo"].icon-shape .icon{fill:url(#my-svg-gradient);filter:drop-shadow( 1px 2px 2px rgba(185,185,185,1));}#my-svg [data-look="neo"].icon-shape .icon-neo path{stroke:url(#my-svg-gradient);filter:drop-shadow( 1px 2px 2px rgba(185,185,185,1));}#my-svg :root{--mermaid-font-family:"trebuchet ms",verdana,arial,sans-serif;}</style><g><marker id="my-svg_flowchart-v2-pointEnd" class="marker flowchart-v2" viewBox="0 0 10 10" refX="5" refY="5" markerUnits="userSpaceOnUse" markerWidth="8" markerHeight="8" orient="auto"><path d="M 0 0 L 10 5 L 0 10 z" class="arrowMarkerPath" style="stroke-width: 1; stroke-dasharray: 1, 0;"/></marker><marker id="my-svg_flowchart-v2-pointStart" class="marker flowchart-v2" viewBox="0 0 10 10" refX="4.5" refY="5" markerUnits="userSpaceOnUse" markerWidth="8" markerHeight="8" orient="auto"><path d="M 0 5 L 10 10 L 10 0 z" class="arrowMarkerPath" style="stroke-width: 1; stroke-dasharray: 1, 0;"/></marker><marker id="my-svg_flowchart-v2-pointEnd-margin" class="marker flowchart-v2" viewBox="0 0 11.5 14" refX="11.5" refY="7" markerUnits="userSpaceOnUse" markerWidth="10.5" markerHeight="14" orient="auto"><path d="M 0 0 L 11.5 7 L 0 14 z" class="arrowMarkerPath" style="stroke-width: 0; stroke-dasharray: 1, 0;"/></marker><marker id="my-svg_flowchart-v2-pointStart-margin" class="marker flowchart-v2" viewBox="0 0 11.5 14" refX="1" refY="7" markerUnits="userSpaceOnUse" markerWidth="11.5" markerHeight="14" orient="auto"><polygon points="0,7 11.5,14 11.5,0" class="arrowMarkerPath" style="stroke-width: 0; stroke-dasharray: 1, 0;"/></marker><marker id="my-svg_flowchart-v2-circleEnd" class="marker flowchart-v2" viewBox="0 0 10 10" refX="11" refY="5" markerUnits="userSpaceOnUse" markerWidth="11" markerHeight="11" orient="auto"><circle cx="5" cy="5" r="5" class="arrowMarkerPath" style="stroke-width: 1; stroke-dasharray: 1, 0;"/></marker><marker id="my-svg_flowchart-v2-circleStart" class="marker flowchart-v2" viewBox="0 0 10 10" refX="-1" refY="5" markerUnits="userSpaceOnUse" markerWidth="11" markerHeight="11" orient="auto"><circle cx="5" cy="5" r="5" class="arrowMarkerPath" style="stroke-width: 1; stroke-dasharray: 1, 0;"/></marker><marker id="my-svg_flowchart-v2-circleEnd-margin" class="marker flowchart-v2" viewBox="0 0 10 10" refY="5" refX="12.25" markerUnits="userSpaceOnUse" markerWidth="14" markerHeight="14" orient="auto"><circle cx="5" cy="5" r="5" class="arrowMarkerPath" style="stroke-width: 0; stroke-dasharray: 1, 0;"/></marker><marker id="my-svg_flowchart-v2-circleStart-margin" class="marker flowchart-v2" viewBox="0 0 10 10" refX="-2" refY="5" markerUnits="userSpaceOnUse" markerWidth="14" markerHeight="14" orient="auto"><circle cx="5" cy="5" r="5" class="arrowMarkerPath" style="stroke-width: 0; stroke-dasharray: 1, 0;"/></marker><marker id="my-svg_flowchart-v2-crossEnd" class="marker cross flowchart-v2" viewBox="0 0 11 11" refX="12" refY="5.2" markerUnits="userSpaceOnUse" markerWidth="11" markerHeight="11" orient="auto"><path d="M 1,1 l 9,9 M 10,1 l -9,9" class="arrowMarkerPath" style="stroke-width: 2; stroke-dasharray: 1, 0;"/></marker><marker id="my-svg_flowchart-v2-crossStart" class="marker cross flowchart-v2" viewBox="0 0 11 11" refX="-1" refY="5.2" markerUnits="userSpaceOnUse" markerWidth="11" markerHeight="11" orient="auto"><path d="M 1,1 l 9,9 M 10,1 l -9,9" class="arrowMarkerPath" style="stroke-width: 2; stroke-dasharray: 1, 0;"/></marker><marker id="my-svg_flowchart-v2-crossEnd-margin" class="marker cross flowchart-v2" viewBox="0 0 15 15" refX="17.7" refY="7.5" markerUnits="userSpaceOnUse" markerWidth="12" markerHeight="12" orient="auto"><path d="M 1,1 L 14,14 M 1,14 L 14,1" class="arrowMarkerPath" style="stroke-width: 2.5;"/></marker><marker id="my-svg_flowchart-v2-crossStart-margin" class="marker cross flowchart-v2" viewBox="0 0 15 15" refX="-3.5" refY="7.5" markerUnits="userSpaceOnUse" markerWidth="12" markerHeight="12" orient="auto"><path d="M 1,1 L 14,14 M 1,14 L 14,1" class="arrowMarkerPath" style="stroke-width: 2.5; stroke-dasharray: 1, 0;"/></marker><g class="root"><g class="clusters"/><g class="edgePaths"><path d="M338.699,47.5L338.616,51.583C338.533,55.667,338.366,63.833,338.283,71.417C338.199,79,338.199,86,338.199,89.5L338.199,93" id="my-svg-L_V_N_0" class="edge-thickness-normal edge-pattern-solid edge-thickness-normal edge-pattern-solid flowchart-link" style=";" data-edge="true" data-et="edge" data-id="L_V_N_0" data-points="W3sieCI6MzM4LjY5OTIxODc1LCJ5Ijo0Ny40OTk5OTk5OTk5OTk5OX0seyJ4IjozMzguMTk5MjE4NzUsInkiOjcyfSx7IngiOjMzOC4xOTkyMTg3NSwieSI6OTd9XQ==" data-look="classic" marker-end="url(#my-svg_flowchart-v2-pointEnd)"/><path d="M298.894,205.07L284.356,217.787C269.817,230.505,240.741,255.94,226.202,285.866C211.664,315.792,211.664,350.208,211.664,367.417L211.664,384.625" id="my-svg-L_N_E1_0" class="edge-thickness-normal edge-pattern-solid edge-thickness-normal edge-pattern-solid flowchart-link" style=";" data-edge="true" data-et="edge" data-id="L_N_E1_0" data-points="W3sieCI6Mjk4Ljg5NDEyMjU0MzkwNDEsInkiOjIwNS4wNjk5MDM3OTM5MDQwN30seyJ4IjoyMTEuNjY0MDYyNSwieSI6MjgxLjM3NX0seyJ4IjoyMTEuNjY0MDYyNSwieSI6Mzg4LjYyNX1d" data-look="classic" marker-end="url(#my-svg_flowchart-v2-pointEnd)"/><path d="M387.544,195.03L416.717,209.421C445.889,223.812,504.234,252.593,533.406,272.484C562.578,292.375,562.578,303.375,562.578,308.875L562.578,314.375" id="my-svg-L_N_BOUNDS_0" class="edge-thickness-normal edge-pattern-solid edge-thickness-normal edge-pattern-solid flowchart-link" style=";" data-edge="true" data-et="edge" data-id="L_N_BOUNDS_0" data-points="W3sieCI6Mzg3LjU0NDQyNDE5NTUxNTcsInkiOjE5NS4wMjk3OTQ1NTQ0ODQzfSx7IngiOjU2Mi41NzgxMjUsInkiOjI4MS4zNzV9LHsieCI6NTYyLjU3ODEyNSwieSI6MzE4LjM3NX1d" data-look="classic" marker-end="url(#my-svg_flowchart-v2-pointEnd)"/><path d="M562.578,512.875L562.578,519.042C562.578,525.208,562.578,537.542,562.578,557.51C562.578,577.479,562.578,605.083,562.578,618.885L562.578,632.688" id="my-svg-L_BOUNDS_E2_0" class="edge-thickness-normal edge-pattern-solid edge-thickness-normal edge-pattern-solid flowchart-link" style=";" data-edge="true" data-et="edge" data-id="L_BOUNDS_E2_0" data-points="W3sieCI6NTYyLjU3ODEyNSwieSI6NTEyLjg3NX0seyJ4Ijo1NjIuNTc4MTI1LCJ5Ijo1NDkuODc1fSx7IngiOjU2Mi41NzgxMjUsInkiOjYzNi42ODc1fV0=" data-look="classic" marker-end="url(#my-svg_flowchart-v2-pointEnd)"/><path d="M629.002,446.451L666.145,463.688C703.288,480.926,777.574,515.4,814.716,538.138C851.859,560.875,851.859,571.875,851.859,577.375L851.859,582.875" id="my-svg-L_BOUNDS_ACT_0" class="edge-thickness-normal edge-pattern-solid edge-thickness-normal edge-pattern-solid flowchart-link" style=";" data-edge="true" data-et="edge" data-id="L_BOUNDS_ACT_0" data-points="W3sieCI6NjI5LjAwMjAzNDgzNTQ2MDgsInkiOjQ0Ni40NTEwOTAxNjQ1MzkyfSx7IngiOjg1MS44NTkzNzUsInkiOjU0OS44NzV9LHsieCI6ODUxLjg1OTM3NSwieSI6NTg2Ljg3NX1d" data-look="classic" marker-end="url(#my-svg_flowchart-v2-pointEnd)"/><path d="M805.663,694.304L784.742,708.17C763.82,722.036,721.976,749.768,701.055,771.134C680.133,792.5,680.133,807.5,680.133,815L680.133,822.5" id="my-svg-L_ACT_E3_0" class="edge-thickness-normal edge-pattern-solid edge-thickness-normal edge-pattern-solid flowchart-link" style=";" data-edge="true" data-et="edge" data-id="L_ACT_E3_0" data-points="W3sieCI6ODA1LjY2MzQzMDg1NjUyMTQsInkiOjY5NC4zMDQwNTU4NTY1MjE0fSx7IngiOjY4MC4xMzI4MTI1LCJ5Ijo3NzcuNX0seyJ4Ijo2ODAuMTMyODEyNSwieSI6ODI2LjV9XQ==" data-look="classic" marker-end="url(#my-svg_flowchart-v2-pointEnd)"/><path d="M898.699,693.66L920.536,707.634C942.372,721.607,986.046,749.553,1007.882,769.027C1029.719,788.5,1029.719,799.5,1029.719,805L1029.719,810.5" id="my-svg-L_ACT_SRC_0" class="edge-thickness-normal edge-pattern-solid edge-thickness-normal edge-pattern-solid flowchart-link" style=";" data-edge="true" data-et="edge" data-id="L_ACT_SRC_0" data-points="W3sieCI6ODk4LjY5OTA3NTQwNzEzNTYsInkiOjY5My42NjAyOTk1OTI4NjQ0fSx7IngiOjEwMjkuNzE4NzUsInkiOjc3Ny41fSx7IngiOjEwMjkuNzE4NzUsInkiOjgxNC41fV0=" data-look="classic" marker-end="url(#my-svg_flowchart-v2-pointEnd)"/><path d="M1029.719,892.5L1029.719,896.667C1029.719,900.833,1029.719,909.167,1029.719,916.833C1029.719,924.5,1029.719,931.5,1029.719,935L1029.719,938.5" id="my-svg-L_SRC_COLOR_0" class="edge-thickness-normal edge-pattern-solid edge-thickness-normal edge-pattern-solid flowchart-link" style=";" data-edge="true" data-et="edge" data-id="L_SRC_COLOR_0" data-points="W3sieCI6MTAyOS43MTg3NSwieSI6ODkyLjV9LHsieCI6MTAyOS43MTg3NSwieSI6OTE3LjV9LHsieCI6MTAyOS43MTg3NSwieSI6OTQyLjV9XQ==" data-look="classic" marker-end="url(#my-svg_flowchart-v2-pointEnd)"/><path d="M976.847,1091.269L960.33,1106.247C943.813,1121.226,910.78,1151.183,894.263,1183.52C877.746,1215.857,877.746,1250.573,877.746,1267.931L877.746,1285.289" id="my-svg-L_COLOR_E4_0" class="edge-thickness-normal edge-pattern-solid edge-thickness-normal edge-pattern-solid flowchart-link" style=";" data-edge="true" data-et="edge" data-id="L_COLOR_E4_0" data-points="W3sieCI6OTc2Ljg0Njc2MDg2Njk2NDYsInkiOjEwOTEuMjY4NjM1ODY2OTY0Nn0seyJ4Ijo4NzcuNzQ2MDkzNzUsInkiOjExODEuMTQwNjI1fSx7IngiOjg3Ny43NDYwOTM3NSwieSI6MTI4OS4yODkwNjI1fV0=" data-look="classic" marker-end="url(#my-svg_flowchart-v2-pointEnd)"/><path d="M1082.591,1091.269L1099.108,1106.247C1115.624,1121.226,1148.658,1151.183,1165.175,1171.662C1181.691,1192.141,1181.691,1203.141,1181.691,1208.641L1181.691,1214.141" id="my-svg-L_COLOR_OWN_0" class="edge-thickness-normal edge-pattern-solid edge-thickness-normal edge-pattern-solid flowchart-link" style=";" data-edge="true" data-et="edge" data-id="L_COLOR_OWN_0" data-points="W3sieCI6MTA4Mi41OTA3MzkxMzMwMzU0LCJ5IjoxMDkxLjI2ODYzNTg2Njk2NDZ9LHsieCI6MTE4MS42OTE0MDYyNSwieSI6MTE4MS4xNDA2MjV9LHsieCI6MTE4MS42OTE0MDYyNSwieSI6MTIxOC4xNDA2MjV9XQ==" data-look="classic" marker-end="url(#my-svg_flowchart-v2-pointEnd)"/><path d="M1124.325,1357.071L1102.202,1372.799C1080.079,1388.527,1035.832,1419.982,1013.709,1459.876C991.586,1499.771,991.586,1548.104,991.586,1572.271L991.586,1596.438" id="my-svg-L_OWN_E5_0" class="edge-thickness-normal edge-pattern-solid edge-thickness-normal edge-pattern-solid flowchart-link" style=";" data-edge="true" data-et="edge" data-id="L_OWN_E5_0" data-points="W3sieCI6MTEyNC4zMjUyODU5Mzc1OTQsInkiOjEzNTcuMDcxMzc5Njg3NTk0fSx7IngiOjk5MS41ODU5Mzc1LCJ5IjoxNDUxLjQzNzV9LHsieCI6OTkxLjU4NTkzNzUsInkiOjE2MDAuNDM3NX1d" data-look="classic" marker-end="url(#my-svg_flowchart-v2-pointEnd)"/><path d="M1239.058,1357.071L1261.181,1372.799C1283.304,1388.527,1327.55,1419.982,1349.674,1441.21C1371.797,1462.438,1371.797,1473.438,1371.797,1478.938L1371.797,1484.438" id="my-svg-L_OWN_CAST_0" class="edge-thickness-normal edge-pattern-solid edge-thickness-normal edge-pattern-solid flowchart-link" style=";" data-edge="true" data-et="edge" data-id="L_OWN_CAST_0" data-points="W3sieCI6MTIzOS4wNTc1MjY1NjI0MDYsInkiOjEzNTcuMDcxMzc5Njg3NTk0fSx7IngiOjEzNzEuNzk2ODc1LCJ5IjoxNDUxLjQzNzV9LHsieCI6MTM3MS43OTY4NzUsInkiOjE0ODguNDM3NX1d" data-look="classic" marker-end="url(#my-svg_flowchart-v2-pointEnd)"/><path d="M1251.106,1645.747L1077.866,1672.029C904.626,1698.311,558.145,1750.874,384.904,1787.822C211.664,1824.771,211.664,1846.104,211.664,1865.438C211.664,1884.771,211.664,1902.104,211.664,1927.09C211.664,1952.076,211.664,1984.714,211.664,2001.033L211.664,2017.352" id="my-svg-L_CAST_SKIP_0" class="edge-thickness-normal edge-pattern-solid edge-thickness-normal edge-pattern-solid flowchart-link" style=";" data-edge="true" data-et="edge" data-id="L_CAST_SKIP_0" data-points="W3sieCI6MTI1MS4xMDY0MzIwODIyOTgsInkiOjE2NDUuNzQ3MDU3MDgyMjk4fSx7IngiOjIxMS42NjQwNjI1LCJ5IjoxODAzLjQzNzV9LHsieCI6MjExLjY2NDA2MjUsInkiOjE4NjcuNDM3NX0seyJ4IjoyMTEuNjY0MDYyNSwieSI6MTkxOS40Mzc1fSx7IngiOjIxMS42NjQwNjI1LCJ5IjoyMDIxLjM1MTU2MjV9XQ==" data-look="classic" marker-end="url(#my-svg_flowchart-v2-pointEnd)"/><path d="M1445.144,1693.09L1465.691,1711.481C1486.238,1729.872,1527.332,1766.655,1547.879,1790.546C1568.426,1814.438,1568.426,1825.438,1568.426,1830.938L1568.426,1836.438" id="my-svg-L_CAST_PIECE_0" class="edge-thickness-normal edge-pattern-solid edge-thickness-normal edge-pattern-solid flowchart-link" style=";" data-edge="true" data-et="edge" data-id="L_CAST_PIECE_0" data-points="W3sieCI6MTQ0NS4xNDQ0MjY3MDcxNDgzLCJ5IjoxNjkzLjA4OTk0ODI5Mjg1MTd9LHsieCI6MTU2OC40MjU3ODEyNSwieSI6MTgwMy40Mzc1fSx7IngiOjE1NjguNDI1NzgxMjUsInkiOjE4NDAuNDM3NX1d" data-look="classic" marker-end="url(#my-svg_flowchart-v2-pointEnd)"/><path d="M1298.449,1693.09L1277.902,1711.481C1257.356,1729.872,1216.262,1766.655,1195.715,1790.546C1175.168,1814.438,1175.168,1825.438,1175.168,1830.938L1175.168,1836.438" id="my-svg-L_CAST_E_CAST_0" class="edge-thickness-normal edge-pattern-solid edge-thickness-normal edge-pattern-solid flowchart-link" style=";" data-edge="true" data-et="edge" data-id="L_CAST_E_CAST_0" data-points="W3sieCI6MTI5OC40NDkzMjMyOTI4NTE3LCJ5IjoxNjkzLjA4OTk0ODI5Mjg1MTd9LHsieCI6MTE3NS4xNjc5Njg3NSwieSI6MTgwMy40Mzc1fSx7IngiOjExNzUuMTY3OTY4NzUsInkiOjE4NDAuNDM3NX1d" data-look="classic" marker-end="url(#my-svg_flowchart-v2-pointEnd)"/><path d="M211.664,2099.352L211.664,2118.337C211.664,2137.323,211.664,2175.294,246.737,2217.943C281.811,2260.591,351.957,2307.917,387.03,2331.579L422.103,2355.242" id="my-svg-L_SKIP_CHECK_0" class="edge-thickness-normal edge-pattern-solid edge-thickness-normal edge-pattern-solid flowchart-link" style=";" data-edge="true" data-et="edge" data-id="L_SKIP_CHECK_0" data-points="W3sieCI6MjExLjY2NDA2MjUsInkiOjIwOTkuMzUxNTYyNX0seyJ4IjoyMTEuNjY0MDYyNSwieSI6MjIxMy4yNjU2MjV9LHsieCI6NDI1LjQxOTMwMzk5MDA3MywieSI6MjM1Ny40NzkxMzM1MDk5Mjd9XQ==" data-look="classic" marker-end="url(#my-svg_flowchart-v2-pointEnd)"/><path d="M1568.426,1894.438L1568.426,1898.604C1568.426,1902.771,1568.426,1911.104,1568.426,1918.771C1568.426,1926.438,1568.426,1933.438,1568.426,1936.938L1568.426,1940.438" id="my-svg-L_PIECE_PE_0" class="edge-thickness-normal edge-pattern-solid edge-thickness-normal edge-pattern-solid flowchart-link" style=";" data-edge="true" data-et="edge" data-id="L_PIECE_PE_0" data-points="W3sieCI6MTU2OC40MjU3ODEyNSwieSI6MTg5NC40Mzc1fSx7IngiOjE1NjguNDI1NzgxMjUsInkiOjE5MTkuNDM3NX0seyJ4IjoxNTY4LjQyNTc4MTI1LCJ5IjoxOTQ0LjQzNzV9XQ==" data-look="classic" marker-end="url(#my-svg_flowchart-v2-pointEnd)"/><path d="M1582.496,2162.196L1583.671,2170.708C1584.847,2179.219,1587.199,2196.242,1588.375,2235.678C1589.551,2275.115,1589.551,2336.964,1589.551,2367.888L1589.551,2398.813" id="my-svg-L_PE_EP_0" class="edge-thickness-normal edge-pattern-solid edge-thickness-normal edge-pattern-solid flowchart-link" style=";" data-edge="true" data-et="edge" data-id="L_PE_EP_0" data-points="W3sieCI6MTU4Mi40OTU1MjI0NjI5MTAyLCJ5IjoyMTYyLjE5NTg4Mzc4NzA4OTh9LHsieCI6MTU4OS41NTA3ODEyNSwieSI6MjIxMy4yNjU2MjV9LHsieCI6MTU4OS41NTA3ODEyNSwieSI6MjQwMi44MTI1fV0=" data-look="classic" marker-end="url(#my-svg_flowchart-v2-pointEnd)"/><path d="M1508.675,2116.515L1491.52,2132.64C1474.366,2148.765,1440.056,2181.015,1302.007,2227.124C1163.958,2273.233,922.169,2333.201,801.275,2363.185L680.381,2393.168" id="my-svg-L_PE_CHECK_0" class="edge-thickness-normal edge-pattern-solid edge-thickness-normal edge-pattern-solid flowchart-link" style=";" data-edge="true" data-et="edge" data-id="L_PE_CHECK_0" data-points="W3sieCI6MTUwOC42NzUzNDc0NTg1OTczLCJ5IjoyMTE2LjUxNTE5MTIwODU5NzZ9LHsieCI6MTQwNS43NDYwOTM3NSwieSI6MjIxMy4yNjU2MjV9LHsieCI6Njc2LjQ5ODU0OTIzNDc3MjYsInkiOjIzOTQuMTMxMzYxNzM0NzcyM31d" data-look="classic" marker-end="url(#my-svg_flowchart-v2-pointEnd)"/><path d="M425.513,2502.24L389.987,2526.26C354.462,2550.279,283.411,2598.319,247.885,2627.839C212.359,2657.359,212.359,2668.359,212.359,2673.859L212.359,2679.359" id="my-svg-L_CHECK_E6_0" class="edge-thickness-normal edge-pattern-solid edge-thickness-normal edge-pattern-solid flowchart-link" style=";" data-edge="true" data-et="edge" data-id="L_CHECK_E6_0" data-points="W3sieCI6NDI1LjUxMjk5MzI0MjcyNywieSI6MjUwMi4yMzk1NTU3NDI3Mjd9LHsieCI6MjEyLjM1OTM3NSwieSI6MjY0Ni4zNTkzNzV9LHsieCI6MjEyLjM1OTM3NSwieSI6MjY4My4zNTkzNzV9XQ==" data-look="classic" marker-end="url(#my-svg_flowchart-v2-pointEnd)"/><path d="M532.633,2609.359L532.633,2615.526C532.633,2621.693,532.633,2634.026,532.633,2645.693C532.633,2657.359,532.633,2668.359,532.633,2673.859L532.633,2679.359" id="my-svg-L_CHECK_OK_0" class="edge-thickness-normal edge-pattern-solid edge-thickness-normal edge-pattern-solid flowchart-link" style=";" data-edge="true" data-et="edge" data-id="L_CHECK_OK_0" data-points="W3sieCI6NTMyLjYzMjgxMjUsInkiOjI2MDkuMzU5Mzc1fSx7IngiOjUzMi42MzI4MTI1LCJ5IjoyNjQ2LjM1OTM3NX0seyJ4Ijo1MzIuNjMyODEyNSwieSI6MjY4My4zNTkzNzV9XQ==" data-look="classic" marker-end="url(#my-svg_flowchart-v2-pointEnd)"/></g><g class="edgeLabels"><g class="edgeLabel"><g class="label" data-id="L_V_N_0" transform="translate(0, 0)"><foreignObject width="0" height="0"><div xmlns="http://www.w3.org/1999/xhtml" class="labelBkg" style="display: table-cell; white-space: nowrap; line-height: 1.5; max-width: 200px; text-align: center;"><span class="edgeLabel"></span></div></foreignObject></g></g><g class="edgeLabel" transform="translate(211.6640625, 281.375)"><g class="label" data-id="L_N_E1_0" transform="translate(-13.3515625, -12)"><foreignObject width="26.703125" height="24"><div xmlns="http://www.w3.org/1999/xhtml" class="labelBkg" style="display: table-cell; white-space: nowrap; line-height: 1.5; max-width: 200px; text-align: center;"><span class="edgeLabel"><p>ano</p></span></div></foreignObject></g></g><g class="edgeLabel" transform="translate(562.578125, 281.375)"><g class="label" data-id="L_N_BOUNDS_0" transform="translate(-8.8984375, -12)"><foreignObject width="17.796875" height="24"><div xmlns="http://www.w3.org/1999/xhtml" class="labelBkg" style="display: table-cell; white-space: nowrap; line-height: 1.5; max-width: 200px; text-align: center;"><span class="edgeLabel"><p>ne</p></span></div></foreignObject></g></g><g class="edgeLabel" transform="translate(562.578125, 549.875)"><g class="label" data-id="L_BOUNDS_E2_0" transform="translate(-8.8984375, -12)"><foreignObject width="17.796875" height="24"><div xmlns="http://www.w3.org/1999/xhtml" class="labelBkg" style="display: table-cell; white-space: nowrap; line-height: 1.5; max-width: 200px; text-align: center;"><span class="edgeLabel"><p>ne</p></span></div></foreignObject></g></g><g class="edgeLabel" transform="translate(851.859375, 549.875)"><g class="label" data-id="L_BOUNDS_ACT_0" transform="translate(-13.3515625, -12)"><foreignObject width="26.703125" height="24"><div xmlns="http://www.w3.org/1999/xhtml" class="labelBkg" style="display: table-cell; white-space: nowrap; line-height: 1.5; max-width: 200px; text-align: center;"><span class="edgeLabel"><p>ano</p></span></div></foreignObject></g></g><g class="edgeLabel" transform="translate(680.1328125, 777.5)"><g class="label" data-id="L_ACT_E3_0" transform="translate(-8.8984375, -12)"><foreignObject width="17.796875" height="24"><div xmlns="http://www.w3.org/1999/xhtml" class="labelBkg" style="display: table-cell; white-space: nowrap; line-height: 1.5; max-width: 200px; text-align: center;"><span class="edgeLabel"><p>ne</p></span></div></foreignObject></g></g><g class="edgeLabel" transform="translate(1029.71875, 777.5)"><g class="label" data-id="L_ACT_SRC_0" transform="translate(-13.3515625, -12)"><foreignObject width="26.703125" height="24"><div xmlns="http://www.w3.org/1999/xhtml" class="labelBkg" style="display: table-cell; white-space: nowrap; line-height: 1.5; max-width: 200px; text-align: center;"><span class="edgeLabel"><p>ano</p></span></div></foreignObject></g></g><g class="edgeLabel"><g class="label" data-id="L_SRC_COLOR_0" transform="translate(0, 0)"><foreignObject width="0" height="0"><div xmlns="http://www.w3.org/1999/xhtml" class="labelBkg" style="display: table-cell; white-space: nowrap; line-height: 1.5; max-width: 200px; text-align: center;"><span class="edgeLabel"></span></div></foreignObject></g></g><g class="edgeLabel" transform="translate(877.74609375, 1181.140625)"><g class="label" data-id="L_COLOR_E4_0" transform="translate(-8.8984375, -12)"><foreignObject width="17.796875" height="24"><div xmlns="http://www.w3.org/1999/xhtml" class="labelBkg" style="display: table-cell; white-space: nowrap; line-height: 1.5; max-width: 200px; text-align: center;"><span class="edgeLabel"><p>ne</p></span></div></foreignObject></g></g><g class="edgeLabel" transform="translate(1181.69140625, 1181.140625)"><g class="label" data-id="L_COLOR_OWN_0" transform="translate(-13.3515625, -12)"><foreignObject width="26.703125" height="24"><div xmlns="http://www.w3.org/1999/xhtml" class="labelBkg" style="display: table-cell; white-space: nowrap; line-height: 1.5; max-width: 200px; text-align: center;"><span class="edgeLabel"><p>ano</p></span></div></foreignObject></g></g><g class="edgeLabel" transform="translate(991.5859375, 1451.4375)"><g class="label" data-id="L_OWN_E5_0" transform="translate(-13.3515625, -12)"><foreignObject width="26.703125" height="24"><div xmlns="http://www.w3.org/1999/xhtml" class="labelBkg" style="display: table-cell; white-space: nowrap; line-height: 1.5; max-width: 200px; text-align: center;"><span class="edgeLabel"><p>ano</p></span></div></foreignObject></g></g><g class="edgeLabel" transform="translate(1371.796875, 1451.4375)"><g class="label" data-id="L_OWN_CAST_0" transform="translate(-8.8984375, -12)"><foreignObject width="17.796875" height="24"><div xmlns="http://www.w3.org/1999/xhtml" class="labelBkg" style="display: table-cell; white-space: nowrap; line-height: 1.5; max-width: 200px; text-align: center;"><span class="edgeLabel"><p>ne</p></span></div></foreignObject></g></g><g class="edgeLabel" transform="translate(211.6640625, 1867.4375)"><g class="label" data-id="L_CAST_SKIP_0" transform="translate(-44.03125, -12)"><foreignObject width="88.0625" height="24"><div xmlns="http://www.w3.org/1999/xhtml" class="labelBkg" style="display: table-cell; white-space: nowrap; line-height: 1.5; max-width: 200px; text-align: center;"><span class="edgeLabel"><p>ano správně</p></span></div></foreignObject></g></g><g class="edgeLabel" transform="translate(1568.42578125, 1803.4375)"><g class="label" data-id="L_CAST_PIECE_0" transform="translate(-57.8203125, -12)"><foreignObject width="115.640625" height="24"><div xmlns="http://www.w3.org/1999/xhtml" class="labelBkg" style="display: table-cell; white-space: nowrap; line-height: 1.5; max-width: 200px; text-align: center;"><span class="edgeLabel"><p>ne / není rošáda</p></span></div></foreignObject></g></g><g class="edgeLabel" transform="translate(1175.16796875, 1803.4375)"><g class="label" data-id="L_CAST_E_CAST_0" transform="translate(-74.7109375, -12)"><foreignObject width="149.421875" height="24"><div xmlns="http://www.w3.org/1999/xhtml" class="labelBkg" style="display: table-cell; white-space: nowrap; line-height: 1.5; max-width: 200px; text-align: center;"><span class="edgeLabel"><p>špatný tah při rošádě</p></span></div></foreignObject></g></g><g class="edgeLabel"><g class="label" data-id="L_SKIP_CHECK_0" transform="translate(0, 0)"><foreignObject width="0" height="0"><div xmlns="http://www.w3.org/1999/xhtml" class="labelBkg" style="display: table-cell; white-space: nowrap; line-height: 1.5; max-width: 200px; text-align: center;"><span class="edgeLabel"></span></div></foreignObject></g></g><g class="edgeLabel"><g class="label" data-id="L_PIECE_PE_0" transform="translate(0, 0)"><foreignObject width="0" height="0"><div xmlns="http://www.w3.org/1999/xhtml" class="labelBkg" style="display: table-cell; white-space: nowrap; line-height: 1.5; max-width: 200px; text-align: center;"><span class="edgeLabel"></span></div></foreignObject></g></g><g class="edgeLabel" transform="translate(1589.55078125, 2213.265625)"><g class="label" data-id="L_PE_EP_0" transform="translate(-8.8984375, -12)"><foreignObject width="17.796875" height="24"><div xmlns="http://www.w3.org/1999/xhtml" class="labelBkg" style="display: table-cell; white-space: nowrap; line-height: 1.5; max-width: 200px; text-align: center;"><span class="edgeLabel"><p>ne</p></span></div></foreignObject></g></g><g class="edgeLabel" transform="translate(1109.67654, 2286.69589)"><g class="label" data-id="L_PE_CHECK_0" transform="translate(-13.3515625, -12)"><foreignObject width="26.703125" height="24"><div xmlns="http://www.w3.org/1999/xhtml" class="labelBkg" style="display: table-cell; white-space: nowrap; line-height: 1.5; max-width: 200px; text-align: center;"><span class="edgeLabel"><p>ano</p></span></div></foreignObject></g></g><g class="edgeLabel" transform="translate(212.359375, 2646.359375)"><g class="label" data-id="L_CHECK_E6_0" transform="translate(-13.3515625, -12)"><foreignObject width="26.703125" height="24"><div xmlns="http://www.w3.org/1999/xhtml" class="labelBkg" style="display: table-cell; white-space: nowrap; line-height: 1.5; max-width: 200px; text-align: center;"><span class="edgeLabel"><p>ano</p></span></div></foreignObject></g></g><g class="edgeLabel" transform="translate(532.6328125, 2646.359375)"><g class="label" data-id="L_CHECK_OK_0" transform="translate(-8.8984375, -12)"><foreignObject width="17.796875" height="24"><div xmlns="http://www.w3.org/1999/xhtml" class="labelBkg" style="display: table-cell; white-space: nowrap; line-height: 1.5; max-width: 200px; text-align: center;"><span class="edgeLabel"><p>ne</p></span></div></foreignObject></g></g></g><g class="nodes"><g class="node default" id="my-svg-flowchart-V-0" data-look="classic" transform="translate(338.19921875, 27.5)"><g class="basic label-container outer-path"><path d="M-68.03125 -19.5 C-30.2094464971346 -19.5, 7.6123570057308 -19.5, 68.03125 -19.5 C68.03125 -19.5, 68.03125 -19.5, 68.03125 -19.5 C68.32172976856472 -19.4906848792067, 68.61220953712944 -19.481369758413397, 69.2806192896239 -19.45993515863156 C69.60550615559733 -19.428593713404727, 69.93039302157074 -19.39725226817789, 70.52485465284786 -19.3399052695533 C70.79906524054594 -19.295573028269143, 71.07327582824401 -19.251240786984987, 71.75884325967675 -19.140403561325776 C72.23340940205001 -19.03208693616257, 72.70797554442328 -18.923770310999366, 72.97751438623538 -18.862249829261074 C73.24573322774968 -18.78264388500906, 73.513952069264 -18.703037940757046, 74.1758602514606 -18.50658706670804 C74.45726221438643 -18.403028543100103, 74.73866417731227 -18.29947001949217, 75.3489565951478 -18.074876768247425 C75.65544995220897 -17.93920125087885, 75.96194330927014 -17.803525733510273, 76.49198291279238 -17.568892924097174 C76.81550781768175 -17.400110188443982, 77.13903272257112 -17.23132745279079, 77.60024226407678 -16.990714730406097 C77.94446563428875 -16.782044500502547, 78.28868900450071 -16.573374270598997, 78.6691805736057 -16.342718045390892 C79.01228079856041 -16.103386181031844, 79.35538102351511 -15.8640543166728, 79.69440534457871 -15.627565626425154 C79.95544231125987 -15.419395591982338, 80.21647927794105 -15.211225557539525, 80.67170370850187 -14.848196188198123 C80.89074635557385 -14.649267451678202, 81.10978900264584 -14.450338715158281, 81.59705973676799 -14.007812326905688 C81.81553299852655 -13.782220747151603, 82.03400626028511 -13.556629167397517, 82.46667094296865 -13.10986736009568 C82.69417154267401 -12.842632210530915, 82.92167214237938 -12.57539706096615, 83.27696390812658 -12.158051136245305 C83.4851862244047 -11.87905220187588, 83.69340854068281 -11.600053267506455, 84.02460896464063 -11.156274872382312 C84.17945901192823 -10.918383616688686, 84.33430905921584 -10.680492360995059, 84.70653387860425 -10.108655082055241 C84.88555635326973 -9.790782550295381, 85.06457882793522 -9.472910018535522, 85.3199364742735 -9.019496659696287 C85.50364626569059 -8.638019347058862, 85.68735605710768 -8.256542034421436, 85.86229614880834 -7.893275190886684 C85.9976517360598 -7.558944273453327, 86.13300732331126 -7.224613356019971, 86.33138422997033 -6.734618561215508 C86.47034557636125 -6.316089126369833, 86.6093069227522 -5.897559691524157, 86.72527313421489 -5.548287939305138 C86.81496914467913 -5.20623817690816, 86.90466515514336 -4.864188414511182, 87.04234428754556 -4.339158212148133 C87.12997943966869 -3.889170227691797, 87.21761459179183 -3.439182243235461, 87.28129477658177 -3.1121979531509023 C87.31737915685747 -2.8323346253994526, 87.35346353713317 -2.552471297648003, 87.44114270250937 -1.872449005199798 C87.46452632541846 -1.5082302034700859, 87.48790994832754 -1.1440114017403737, 87.52123121591342 -0.6250057626472757 C87.52123121591342 -0.1965205753223624, 87.52123121591342 0.23196461200255092, 87.52123121591342 0.625005762647271 C87.49018768221818 1.108533857840108, 87.45914414852292 1.5920619530329452, 87.44114270250937 1.8724490051997846 C87.38811961755412 2.283685581520201, 87.33509653259888 2.694922157840618, 87.28129477658177 3.1121979531508885 C87.19942336416558 3.5325903523788833, 87.11755195174939 3.952982751606878, 87.04234428754556 4.339158212148129 C86.92145137012464 4.8001753015959405, 86.80055845270373 5.261192391043753, 86.72527313421489 5.548287939305125 C86.60047853717818 5.924149382260876, 86.47568394014145 6.300010825216628, 86.33138422997033 6.734618561215495 C86.2177821224925 7.01521796303306, 86.10418001501468 7.295817364850626, 85.86229614880834 7.893275190886679 C85.743033720461 8.14092617515712, 85.62377129211364 8.388577159427562, 85.3199364742735 9.019496659696284 C85.18367305735464 9.261446154602902, 85.04740964043579 9.503395649509521, 84.70653387860425 10.108655082055236 C84.5192807972161 10.396326099560289, 84.33202771582793 10.683997117065342, 84.02460896464065 11.156274872382301 C83.83301004887717 11.412999964485051, 83.64141113311369 11.6697250565878, 83.27696390812659 12.158051136245302 C83.08875974613906 12.379126454036044, 82.90055558415153 12.600201771826786, 82.46667094296866 13.10986736009567 C82.19729717093435 13.388017895719084, 81.92792339890003 13.6661684313425, 81.59705973676799 14.007812326905684 C81.39945600933042 14.187270803856357, 81.20185228189285 14.366729280807032, 80.6717037085019 14.848196188198111 C80.34560750586486 15.108249232016744, 80.01951130322783 15.36830227583538, 79.69440534457871 15.627565626425152 C79.3467202567152 15.870095692673868, 78.99903516885168 16.112625758922583, 78.6691805736057 16.34271804539089 C78.41002228805498 16.499821321074876, 78.15086400250424 16.656924596758863, 77.60024226407678 16.990714730406093 C77.27979839655929 17.157890090835874, 76.9593545290418 17.325065451265655, 76.49198291279238 17.56889292409717 C76.19827537359119 17.698908539176944, 75.90456783439 17.828924154256722, 75.3489565951478 18.07487676824742 C75.05990818473155 18.181249255214812, 74.77085977431533 18.287621742182203, 74.17586025146062 18.506587066708033 C73.92730618444921 18.580356609110098, 73.6787521174378 18.654126151512163, 72.97751438623541 18.86224982926107 C72.55025562886719 18.959768852506414, 72.12299687149896 19.057287875751754, 71.75884325967677 19.140403561325773 C71.44668434957147 19.19087099308309, 71.13452543946619 19.241338424840414, 70.52485465284788 19.3399052695533 C70.18722762458493 19.372475742913917, 69.849600596322 19.40504621627453, 69.2806192896239 19.45993515863156 C68.88081381414312 19.472756142056078, 68.48100833866235 19.485577125480596, 68.03125 19.5 C68.03125 19.5, 68.03125 19.5, 68.03125 19.5 C19.912042686863778 19.5, -28.207164626272444 19.5, -68.03125 19.5 C-68.35901741102873 19.48948913708887, -68.68678482205746 19.478978274177745, -69.2806192896239 19.45993515863156 C-69.69564061425255 19.4198985505808, -70.11066193888121 19.379861942530045, -70.52485465284786 19.3399052695533 C-70.80171751410026 19.295144229249566, -71.07858037535266 19.250383188945836, -71.75884325967675 19.140403561325773 C-72.16224330630908 19.048330133113264, -72.5656433529414 18.956256704900756, -72.97751438623538 18.862249829261074 C-73.25100034053865 18.781080633580935, -73.52448629484192 18.69991143790079, -74.17586025146059 18.506587066708043 C-74.51988932887528 18.37998118604951, -74.86391840628997 18.25337530539097, -75.3489565951478 18.074876768247425 C-75.59778652366364 17.964727140171032, -75.84661645217949 17.85457751209464, -76.49198291279238 17.568892924097174 C-76.84826788009059 17.383019284869114, -77.2045528473888 17.19714564564105, -77.60024226407678 16.990714730406097 C-77.8154192770102 16.86027316064538, -78.03059628994359 16.72983159088466, -78.66918057360569 16.3427180453909 C-79.05076980847754 16.076537913876038, -79.4323590433494 15.810357782361175, -79.69440534457871 15.627565626425156 C-79.95474590394716 15.419950958282058, -80.21508646331561 15.212336290138959, -80.67170370850187 14.848196188198125 C-81.0377419857291 14.515769909662462, -81.40378026295632 14.183343631126798, -81.59705973676797 14.007812326905697 C-81.93665457927392 13.657152770763222, -82.27624942177985 13.306493214620748, -82.46667094296865 13.109867360095677 C-82.65149253553781 12.892765400817401, -82.83631412810696 12.675663441539124, -83.27696390812658 12.158051136245307 C-83.51126286185114 11.84411188332819, -83.7455618155757 11.530172630411073, -84.02460896464063 11.156274872382316 C-84.19860410809794 10.888971607793875, -84.37259925155523 10.621668343205434, -84.70653387860425 10.108655082055249 C-84.89522300869372 9.773618424735103, -85.08391213878318 9.438581767414957, -85.3199364742735 9.019496659696289 C-85.47875987953884 8.689696460386319, -85.6375832848042 8.35989626107635, -85.86229614880834 7.893275190886686 C-86.03604155478529 7.464120678984738, -86.20978696076223 7.034966167082789, -86.33138422997033 6.73461856121551 C-86.43564178293433 6.420611422873179, -86.53989933589831 6.106604284530849, -86.72527313421489 5.5482879393051325 C-86.83899780206545 5.11460649220809, -86.95272246991603 4.680925045111046, -87.04234428754556 4.339158212148136 C-87.09178813916095 4.0852744840648105, -87.14123199077635 3.8313907559814853, -87.28129477658177 3.112197953150904 C-87.33538101582351 2.6927157621279365, -87.38946725506526 2.273233571104969, -87.44114270250937 1.872449005199809 C-87.45796768965641 1.6103862494993655, -87.47479267680346 1.348323493798922, -87.52123121591342 0.6250057626472781 C-87.52123121591342 0.24337645323095097, -87.52123121591342 -0.1382528561853762, -87.52123121591342 -0.6250057626472687 C-87.49327484394313 -1.0604488220617538, -87.46531847197285 -1.4958918814762392, -87.44114270250937 -1.8724490051997822 C-87.38886520931509 -2.2779029190559767, -87.33658771612079 -2.6833568329121715, -87.28129477658177 -3.112197953150895 C-87.22862173127771 -3.3826629083351536, -87.17594868597367 -3.6531278635194124, -87.04234428754556 -4.339158212148126 C-86.93594647225238 -4.744899194965879, -86.82954865695919 -5.150640177783633, -86.72527313421489 -5.548287939305123 C-86.62962767210821 -5.83635683213553, -86.53398221000154 -6.1244257249659375, -86.33138422997033 -6.734618561215485 C-86.19439937076898 -7.072973811864904, -86.05741451156763 -7.411329062514324, -85.86229614880834 -7.893275190886676 C-85.65752313364962 -8.318490738304408, -85.45275011849088 -8.74370628572214, -85.3199364742735 -9.019496659696282 C-85.15341792102834 -9.315167212815025, -84.98689936778317 -9.610837765933768, -84.70653387860425 -10.108655082055243 C-84.51316751431452 -10.405717743743427, -84.31980115002479 -10.702780405431612, -84.02460896464063 -11.156274872382308 C-83.75277868772488 -11.520502679201739, -83.48094841080913 -11.88473048602117, -83.27696390812659 -12.158051136245302 C-82.95300735918416 -12.53858893228292, -82.62905081024172 -12.91912672832054, -82.46667094296866 -13.10986736009567 C-82.27305252342524 -13.309794274642135, -82.07943410388181 -13.509721189188598, -81.59705973676799 -14.007812326905677 C-81.2613543349848 -14.312691090526968, -80.92564893320163 -14.617569854148261, -80.6717037085019 -14.848196188198107 C-80.44117990729903 -15.032032785161405, -80.21065610609617 -15.215869382124705, -79.69440534457871 -15.627565626425149 C-79.43685342630123 -15.807222695372676, -79.17930150802374 -15.986879764320205, -78.66918057360571 -16.342718045390885 C-78.35885561205434 -16.530838860755225, -78.04853065050297 -16.718959676119567, -77.60024226407678 -16.99071473040609 C-77.16467789409145 -17.217948383235147, -76.72911352410611 -17.445182036064207, -76.4919829127924 -17.56889292409717 C-76.21567885828091 -17.691204532760842, -75.93937480376943 -17.81351614142451, -75.34895659514781 -18.07487676824742 C-74.90193897443102 -18.239383384856787, -74.45492135371423 -18.403890001466156, -74.17586025146062 -18.506587066708033 C-73.71439008402776 -18.643548990095766, -73.2529199165949 -18.7805109134835, -72.97751438623541 -18.862249829261067 C-72.621656889833 -18.943471980627734, -72.26579939343058 -19.0246941319944, -71.75884325967677 -19.140403561325773 C-71.32928518434916 -19.209851179672114, -70.89972710902154 -19.279298798018456, -70.52485465284788 -19.3399052695533 C-70.04069294821414 -19.386611766909674, -69.55653124358041 -19.43331826426605, -69.2806192896239 -19.45993515863156 C-68.83690740086463 -19.47416413527127, -68.39319551210538 -19.48839311191098, -68.03125 -19.5 C-68.03125 -19.5, -68.03125 -19.5, -68.03125 -19.5" stroke="none" stroke-width="0" fill="#1f2020" style=""/><path d="M-68.03125 -19.5 C-22.07947481361318 -19.5, 23.872300372773637 -19.5, 68.03125 -19.5 M-68.03125 -19.5 C-40.28447868928525 -19.5, -12.53770737857051 -19.5, 68.03125 -19.5 M68.03125 -19.5 C68.03125 -19.5, 68.03125 -19.5, 68.03125 -19.5 M68.03125 -19.5 C68.03125 -19.5, 68.03125 -19.5, 68.03125 -19.5 M68.03125 -19.5 C68.3577989187465 -19.48952821176471, 68.68434783749298 -19.479056423529425, 69.2806192896239 -19.45993515863156 M68.03125 -19.5 C68.37306974777155 -19.489038506000743, 68.7148894955431 -19.47807701200149, 69.2806192896239 -19.45993515863156 M69.2806192896239 -19.45993515863156 C69.5448878978389 -19.434441483826557, 69.80915650605391 -19.40894780902156, 70.52485465284786 -19.3399052695533 M69.2806192896239 -19.45993515863156 C69.53444654762629 -19.43544874832401, 69.78827380562868 -19.41096233801646, 70.52485465284786 -19.3399052695533 M70.52485465284786 -19.3399052695533 C70.88607314052595 -19.281506265756715, 71.24729162820404 -19.22310726196013, 71.75884325967675 -19.140403561325776 M70.52485465284786 -19.3399052695533 C70.97951209278295 -19.2663997805857, 71.43416953271804 -19.192894291618103, 71.75884325967675 -19.140403561325776 M71.75884325967675 -19.140403561325776 C72.14416192221546 -19.052457091040573, 72.52948058475418 -18.964510620755373, 72.97751438623538 -18.862249829261074 M71.75884325967675 -19.140403561325776 C72.21614314863015 -19.036027845832823, 72.67344303758354 -18.93165213033987, 72.97751438623538 -18.862249829261074 M72.97751438623538 -18.862249829261074 C73.35588571127727 -18.749951206100256, 73.73425703631916 -18.63765258293944, 74.1758602514606 -18.50658706670804 M72.97751438623538 -18.862249829261074 C73.25006858163444 -18.781357174732804, 73.52262277703349 -18.70046452020453, 74.1758602514606 -18.50658706670804 M74.1758602514606 -18.50658706670804 C74.59917211116247 -18.35080438928582, 75.02248397086433 -18.195021711863596, 75.3489565951478 -18.074876768247425 M74.1758602514606 -18.50658706670804 C74.53118407054016 -18.375824616709384, 74.88650788961974 -18.245062166710724, 75.3489565951478 -18.074876768247425 M75.3489565951478 -18.074876768247425 C75.78337568776672 -17.882572322529544, 76.21779478038566 -17.690267876811667, 76.49198291279238 -17.568892924097174 M75.3489565951478 -18.074876768247425 C75.58866283319134 -17.968765927298463, 75.82836907123486 -17.8626550863495, 76.49198291279238 -17.568892924097174 M76.49198291279238 -17.568892924097174 C76.75059486321967 -17.43397523520812, 77.00920681364695 -17.299057546319062, 77.60024226407678 -16.990714730406097 M76.49198291279238 -17.568892924097174 C76.81387249204712 -17.40096333678009, 77.13576207130187 -17.233033749463008, 77.60024226407678 -16.990714730406097 M77.60024226407678 -16.990714730406097 C77.92896115594193 -16.79144340639081, 78.2576800478071 -16.59217208237552, 78.6691805736057 -16.342718045390892 M77.60024226407678 -16.990714730406097 C77.94988541863438 -16.77875899538203, 78.29952857319198 -16.56680326035797, 78.6691805736057 -16.342718045390892 M78.6691805736057 -16.342718045390892 C78.96640612135921 -16.13538636996463, 79.26363166911273 -15.928054694538364, 79.69440534457871 -15.627565626425154 M78.6691805736057 -16.342718045390892 C78.90700474485826 -16.176822198767553, 79.14482891611081 -16.010926352144214, 79.69440534457871 -15.627565626425154 M79.69440534457871 -15.627565626425154 C79.90623048027837 -15.45864071760827, 80.11805561597804 -15.289715808791389, 80.67170370850187 -14.848196188198123 M79.69440534457871 -15.627565626425154 C79.93973488480695 -15.431921846586373, 80.1850644250352 -15.236278066747595, 80.67170370850187 -14.848196188198123 M80.67170370850187 -14.848196188198123 C80.98141080586815 -14.56692839677082, 81.29111790323445 -14.285660605343514, 81.59705973676799 -14.007812326905688 M80.67170370850187 -14.848196188198123 C80.99029492707025 -14.558860072956035, 81.30888614563865 -14.269523957713947, 81.59705973676799 -14.007812326905688 M81.59705973676799 -14.007812326905688 C81.79267259885818 -13.805825986682912, 81.98828546094836 -13.603839646460136, 82.46667094296865 -13.10986736009568 M81.59705973676799 -14.007812326905688 C81.81409201496591 -13.783708680984917, 82.03112429316381 -13.559605035064147, 82.46667094296865 -13.10986736009568 M82.46667094296865 -13.10986736009568 C82.74633585599852 -12.781357039866426, 83.0260007690284 -12.452846719637174, 83.27696390812658 -12.158051136245305 M82.46667094296865 -13.10986736009568 C82.66317405980669 -12.879043617713618, 82.85967717664472 -12.648219875331554, 83.27696390812658 -12.158051136245305 M83.27696390812658 -12.158051136245305 C83.54867224499499 -11.793986717980342, 83.8203805818634 -11.42992229971538, 84.02460896464063 -11.156274872382312 M83.27696390812658 -12.158051136245305 C83.50688617270207 -11.849976248063356, 83.73680843727756 -11.541901359881406, 84.02460896464063 -11.156274872382312 M84.02460896464063 -11.156274872382312 C84.21337534115374 -10.866279027188709, 84.40214171766684 -10.576283181995105, 84.70653387860425 -10.108655082055241 M84.02460896464063 -11.156274872382312 C84.25992956603186 -10.794759236216143, 84.49525016742308 -10.433243600049975, 84.70653387860425 -10.108655082055241 M84.70653387860425 -10.108655082055241 C84.90366108928924 -9.75863575818941, 85.10078829997425 -9.40861643432358, 85.3199364742735 -9.019496659696287 M84.70653387860425 -10.108655082055241 C84.91410334004243 -9.7400944845846, 85.1216728014806 -9.371533887113957, 85.3199364742735 -9.019496659696287 M85.3199364742735 -9.019496659696287 C85.45815683361691 -8.73247912607778, 85.59637719296032 -8.445461592459276, 85.86229614880834 -7.893275190886684 M85.3199364742735 -9.019496659696287 C85.44062135884707 -8.768891914636432, 85.56130624342062 -8.518287169576576, 85.86229614880834 -7.893275190886684 M85.86229614880834 -7.893275190886684 C85.9958536542949 -7.563385570176169, 86.12941115978147 -7.233495949465652, 86.33138422997033 -6.734618561215508 M85.86229614880834 -7.893275190886684 C86.00064833687846 -7.551542611495901, 86.13900052494859 -7.209810032105118, 86.33138422997033 -6.734618561215508 M86.33138422997033 -6.734618561215508 C86.46247842839476 -6.3397837225851275, 86.5935726268192 -5.944948883954747, 86.72527313421489 -5.548287939305138 M86.33138422997033 -6.734618561215508 C86.42812454595762 -6.44325214293796, 86.5248648619449 -6.1518857246604135, 86.72527313421489 -5.548287939305138 M86.72527313421489 -5.548287939305138 C86.85097427140326 -5.068935023988378, 86.97667540859163 -4.589582108671618, 87.04234428754556 -4.339158212148133 M86.72527313421489 -5.548287939305138 C86.78956876238219 -5.303100843201708, 86.85386439054949 -5.0579137470982785, 87.04234428754556 -4.339158212148133 M87.04234428754556 -4.339158212148133 C87.1017917334608 -4.033908141595534, 87.16123917937604 -3.7286580710429336, 87.28129477658177 -3.1121979531509023 M87.04234428754556 -4.339158212148133 C87.09507365083618 -4.068404076005653, 87.14780301412681 -3.7976499398631716, 87.28129477658177 -3.1121979531509023 M87.28129477658177 -3.1121979531509023 C87.31337744781575 -2.863371090500194, 87.34546011904973 -2.6145442278494855, 87.44114270250937 -1.872449005199798 M87.28129477658177 -3.1121979531509023 C87.33704955589103 -2.6797748948548037, 87.3928043352003 -2.2473518365587046, 87.44114270250937 -1.872449005199798 M87.44114270250937 -1.872449005199798 C87.45986555622714 -1.5808254457299888, 87.47858840994492 -1.2892018862601797, 87.52123121591342 -0.6250057626472757 M87.44114270250937 -1.872449005199798 C87.46818730510768 -1.4512074897208544, 87.49523190770599 -1.029965974241911, 87.52123121591342 -0.6250057626472757 M87.52123121591342 -0.6250057626472757 C87.52123121591342 -0.31567227553490945, 87.52123121591342 -0.006338788422543207, 87.52123121591342 0.625005762647271 M87.52123121591342 -0.6250057626472757 C87.52123121591342 -0.13036295765917572, 87.52123121591342 0.36427984732892427, 87.52123121591342 0.625005762647271 M87.52123121591342 0.625005762647271 C87.49795353971 0.9875743589176298, 87.47467586350658 1.3501429551879887, 87.44114270250937 1.8724490051997846 M87.52123121591342 0.625005762647271 C87.49895885597327 0.9719157466404444, 87.47668649603312 1.318825730633618, 87.44114270250937 1.8724490051997846 M87.44114270250937 1.8724490051997846 C87.40493727389573 2.153251159956615, 87.36873184528208 2.434053314713445, 87.28129477658177 3.1121979531508885 M87.44114270250937 1.8724490051997846 C87.39486310239243 2.231384444766007, 87.34858350227549 2.5903198843322293, 87.28129477658177 3.1121979531508885 M87.28129477658177 3.1121979531508885 C87.22165471533201 3.4184370627370475, 87.16201465408224 3.724676172323206, 87.04234428754556 4.339158212148129 M87.28129477658177 3.1121979531508885 C87.20037837973543 3.52768654927034, 87.11946198288909 3.943175145389791, 87.04234428754556 4.339158212148129 M87.04234428754556 4.339158212148129 C86.93748059862516 4.739048906211921, 86.83261690970474 5.138939600275712, 86.72527313421489 5.548287939305125 M87.04234428754556 4.339158212148129 C86.91886869881682 4.810024146629476, 86.79539311008809 5.280890081110824, 86.72527313421489 5.548287939305125 M86.72527313421489 5.548287939305125 C86.60606890949289 5.907312071553823, 86.4868646847709 6.266336203802522, 86.33138422997033 6.734618561215495 M86.72527313421489 5.548287939305125 C86.62010251697522 5.865045081768713, 86.51493189973557 6.1818022242323005, 86.33138422997033 6.734618561215495 M86.33138422997033 6.734618561215495 C86.16791751644553 7.138384504035661, 86.00445080292073 7.542150446855827, 85.86229614880834 7.893275190886679 M86.33138422997033 6.734618561215495 C86.19153082093244 7.080059185420802, 86.05167741189454 7.425499809626109, 85.86229614880834 7.893275190886679 M85.86229614880834 7.893275190886679 C85.69973956321508 8.230827419024829, 85.53718297762182 8.56837964716298, 85.3199364742735 9.019496659696284 M85.86229614880834 7.893275190886679 C85.7107467371193 8.207970786896942, 85.55919732543025 8.522666382907206, 85.3199364742735 9.019496659696284 M85.3199364742735 9.019496659696284 C85.1544961845338 9.313252646775055, 84.98905589479409 9.607008633853829, 84.70653387860425 10.108655082055236 M85.3199364742735 9.019496659696284 C85.09283436476348 9.422739451713595, 84.86573225525343 9.825982243730907, 84.70653387860425 10.108655082055236 M84.70653387860425 10.108655082055236 C84.4433866802 10.512919843720958, 84.18023948179575 10.91718460538668, 84.02460896464065 11.156274872382301 M84.70653387860425 10.108655082055236 C84.4982958852291 10.42856455961019, 84.29005789185395 10.748474037165145, 84.02460896464065 11.156274872382301 M84.02460896464065 11.156274872382301 C83.77093840309954 11.496170314983821, 83.51726784155842 11.836065757585343, 83.27696390812659 12.158051136245302 M84.02460896464065 11.156274872382301 C83.72964790804032 11.55149581672168, 83.43468685144 11.946716761061058, 83.27696390812659 12.158051136245302 M83.27696390812659 12.158051136245302 C82.96916438540933 12.519609969917992, 82.66136486269207 12.881168803590683, 82.46667094296866 13.10986736009567 M83.27696390812659 12.158051136245302 C82.97028906851936 12.518288853140671, 82.66361422891212 12.87852657003604, 82.46667094296866 13.10986736009567 M82.46667094296866 13.10986736009567 C82.27427014962676 13.308536975620097, 82.08186935628484 13.507206591144522, 81.59705973676799 14.007812326905684 M82.46667094296866 13.10986736009567 C82.13231098977296 13.455121463232912, 81.79795103657726 13.800375566370155, 81.59705973676799 14.007812326905684 M81.59705973676799 14.007812326905684 C81.39926082554626 14.18744806460485, 81.20146191432454 14.367083802304014, 80.6717037085019 14.848196188198111 M81.59705973676799 14.007812326905684 C81.3726002795151 14.21166046711096, 81.1481408222622 14.415508607316237, 80.6717037085019 14.848196188198111 M80.6717037085019 14.848196188198111 C80.47350476719242 15.006254569597083, 80.27530582588294 15.164312950996054, 79.69440534457871 15.627565626425152 M80.6717037085019 14.848196188198111 C80.28417790951178 15.157237700398117, 79.89665211052166 15.466279212598122, 79.69440534457871 15.627565626425152 M79.69440534457871 15.627565626425152 C79.30876341147386 15.896572744788875, 78.92312147836901 16.165579863152598, 78.6691805736057 16.34271804539089 M79.69440534457871 15.627565626425152 C79.29468498385575 15.90639324644996, 78.89496462313278 16.18522086647477, 78.6691805736057 16.34271804539089 M78.6691805736057 16.34271804539089 C78.44988857632522 16.475654142845137, 78.23059657904474 16.608590240299385, 77.60024226407678 16.990714730406093 M78.6691805736057 16.34271804539089 C78.30238813647884 16.56506977628881, 77.93559569935199 16.78742150718673, 77.60024226407678 16.990714730406093 M77.60024226407678 16.990714730406093 C77.18202303204173 17.208899435876578, 76.76380380000667 17.427084141347066, 76.49198291279238 17.56889292409717 M77.60024226407678 16.990714730406093 C77.27354682757078 17.161151530372862, 76.94685139106477 17.33158833033963, 76.49198291279238 17.56889292409717 M76.49198291279238 17.56889292409717 C76.14372793146794 17.723055073712526, 75.79547295014349 17.877217223327886, 75.3489565951478 18.07487676824742 M76.49198291279238 17.56889292409717 C76.06140862934394 17.759495386847487, 75.6308343458955 17.950097849597803, 75.3489565951478 18.07487676824742 M75.3489565951478 18.07487676824742 C75.0731121373174 18.176390078607223, 74.797267679487 18.277903388967026, 74.17586025146062 18.506587066708033 M75.3489565951478 18.07487676824742 C74.94078144462763 18.225088996768573, 74.53260629410745 18.37530122528973, 74.17586025146062 18.506587066708033 M74.17586025146062 18.506587066708033 C73.900024092671 18.588453790743248, 73.62418793388139 18.670320514778464, 72.97751438623541 18.86224982926107 M74.17586025146062 18.506587066708033 C73.72627053183461 18.640022935548437, 73.27668081220861 18.773458804388838, 72.97751438623541 18.86224982926107 M72.97751438623541 18.86224982926107 C72.65435503551565 18.936008842251013, 72.33119568479589 19.00976785524096, 71.75884325967677 19.140403561325773 M72.97751438623541 18.86224982926107 C72.64418749080922 18.938329517980826, 72.31086059538303 19.01440920670058, 71.75884325967677 19.140403561325773 M71.75884325967677 19.140403561325773 C71.43573453953363 19.192641273452967, 71.11262581939049 19.24487898558016, 70.52485465284788 19.3399052695533 M71.75884325967677 19.140403561325773 C71.4585927061592 19.188945742340675, 71.15834215264162 19.23748792335558, 70.52485465284788 19.3399052695533 M70.52485465284788 19.3399052695533 C70.12001707800538 19.378959463509936, 69.71517950316289 19.418013657466574, 69.2806192896239 19.45993515863156 M70.52485465284788 19.3399052695533 C70.13954116370529 19.377075998443615, 69.7542276745627 19.414246727333932, 69.2806192896239 19.45993515863156 M69.2806192896239 19.45993515863156 C68.85843489506398 19.473473790433022, 68.43625050050406 19.487012422234486, 68.03125 19.5 M69.2806192896239 19.45993515863156 C68.89971096376232 19.47215014724886, 68.51880263790073 19.484365135866163, 68.03125 19.5 M68.03125 19.5 C68.03125 19.5, 68.03125 19.5, 68.03125 19.5 M68.03125 19.5 C68.03125 19.5, 68.03125 19.5, 68.03125 19.5 M68.03125 19.5 C33.469365012525614 19.5, -1.0925199749487717 19.5, -68.03125 19.5 M68.03125 19.5 C31.418505112135236 19.5, -5.194239775729528 19.5, -68.03125 19.5 M-68.03125 19.5 C-68.32334990933826 19.490632924445503, -68.61544981867651 19.48126584889101, -69.2806192896239 19.45993515863156 M-68.03125 19.5 C-68.33065650429658 19.490398616166615, -68.63006300859317 19.48079723233323, -69.2806192896239 19.45993515863156 M-69.2806192896239 19.45993515863156 C-69.70054103123636 19.419425813247987, -70.12046277284882 19.378916467864414, -70.52485465284786 19.3399052695533 M-69.2806192896239 19.45993515863156 C-69.57798234352019 19.43124890245358, -69.8753453974165 19.402562646275598, -70.52485465284786 19.3399052695533 M-70.52485465284786 19.3399052695533 C-70.98069069116508 19.266209233939446, -71.4365267294823 19.19251319832559, -71.75884325967675 19.140403561325773 M-70.52485465284786 19.3399052695533 C-70.80029387805764 19.295374391684476, -71.07573310326744 19.25084351381565, -71.75884325967675 19.140403561325773 M-71.75884325967675 19.140403561325773 C-72.24314530736214 19.029864779307797, -72.72744735504752 18.91932599728982, -72.97751438623538 18.862249829261074 M-71.75884325967675 19.140403561325773 C-72.24410239128109 19.02964633114885, -72.72936152288544 18.918889100971928, -72.97751438623538 18.862249829261074 M-72.97751438623538 18.862249829261074 C-73.31352160573655 18.762524650251017, -73.64952882523771 18.66279947124096, -74.17586025146059 18.506587066708043 M-72.97751438623538 18.862249829261074 C-73.35653946329768 18.749757175932217, -73.73556454035996 18.63726452260336, -74.17586025146059 18.506587066708043 M-74.17586025146059 18.506587066708043 C-74.42231839501378 18.415888191646367, -74.66877653856696 18.32518931658469, -75.3489565951478 18.074876768247425 M-74.17586025146059 18.506587066708043 C-74.4631455814687 18.40086340962858, -74.75043091147681 18.295139752549115, -75.3489565951478 18.074876768247425 M-75.3489565951478 18.074876768247425 C-75.7726751947279 17.887309113378986, -76.19639379430801 17.699741458510545, -76.49198291279238 17.568892924097174 M-75.3489565951478 18.074876768247425 C-75.69921761800957 17.919826603550597, -76.04947864087134 17.764776438853772, -76.49198291279238 17.568892924097174 M-76.49198291279238 17.568892924097174 C-76.71456162523336 17.452773752385188, -76.93714033767432 17.336654580673205, -77.60024226407678 16.990714730406097 M-76.49198291279238 17.568892924097174 C-76.91596980686795 17.347699233034515, -77.33995670094353 17.126505541971856, -77.60024226407678 16.990714730406097 M-77.60024226407678 16.990714730406097 C-77.87168492563089 16.826164593797856, -78.14312758718499 16.661614457189618, -78.66918057360569 16.3427180453909 M-77.60024226407678 16.990714730406097 C-78.00367755356605 16.746149887068785, -78.4071128430553 16.50158504373147, -78.66918057360569 16.3427180453909 M-78.66918057360569 16.3427180453909 C-78.9127075743465 16.172844151788066, -79.1562345750873 16.002970258185236, -79.69440534457871 15.627565626425156 M-78.66918057360569 16.3427180453909 C-79.00499449728109 16.1084687893854, -79.34080842095648 15.874219533379902, -79.69440534457871 15.627565626425156 M-79.69440534457871 15.627565626425156 C-79.98677076373319 15.394411984820007, -80.27913618288767 15.161258343214856, -80.67170370850187 14.848196188198125 M-79.69440534457871 15.627565626425156 C-80.01509214010171 15.37182644082959, -80.3357789356247 15.116087255234026, -80.67170370850187 14.848196188198125 M-80.67170370850187 14.848196188198125 C-81.00520639844572 14.545317869188752, -81.33870908838958 14.242439550179377, -81.59705973676797 14.007812326905697 M-80.67170370850187 14.848196188198125 C-80.94316287158378 14.601664158703002, -81.2146220346657 14.355132129207878, -81.59705973676797 14.007812326905697 M-81.59705973676797 14.007812326905697 C-81.83099105066074 13.766259039193361, -82.06492236455351 13.524705751481024, -82.46667094296865 13.109867360095677 M-81.59705973676797 14.007812326905697 C-81.86292953849063 13.73327992831038, -82.12879934021329 13.458747529715064, -82.46667094296865 13.109867360095677 M-82.46667094296865 13.109867360095677 C-82.6857592822037 12.852513730350514, -82.90484762143876 12.595160100605352, -83.27696390812658 12.158051136245307 M-82.46667094296865 13.109867360095677 C-82.69144025857477 12.845840532248351, -82.9162095741809 12.581813704401027, -83.27696390812658 12.158051136245307 M-83.27696390812658 12.158051136245307 C-83.47731733758454 11.889595793344562, -83.67767076704249 11.621140450443816, -84.02460896464063 11.156274872382316 M-83.27696390812658 12.158051136245307 C-83.55961989489718 11.779317864462826, -83.84227588166779 11.400584592680342, -84.02460896464063 11.156274872382316 M-84.02460896464063 11.156274872382316 C-84.18287275923272 10.913139184109493, -84.34113655382481 10.67000349583667, -84.70653387860425 10.108655082055249 M-84.02460896464063 11.156274872382316 C-84.16818141072424 10.935709040597967, -84.31175385680785 10.715143208813618, -84.70653387860425 10.108655082055249 M-84.70653387860425 10.108655082055249 C-84.90378784163232 9.758410696569216, -85.10104180466041 9.408166311083185, -85.3199364742735 9.019496659696289 M-84.70653387860425 10.108655082055249 C-84.9332678556734 9.706065946464156, -85.16000183274257 9.303476810873061, -85.3199364742735 9.019496659696289 M-85.3199364742735 9.019496659696289 C-85.47311363310759 8.701421011911163, -85.62629079194166 8.383345364126038, -85.86229614880834 7.893275190886686 M-85.3199364742735 9.019496659696289 C-85.4546082527057 8.739847830267378, -85.5892800311379 8.460199000838465, -85.86229614880834 7.893275190886686 M-85.86229614880834 7.893275190886686 C-86.00536972215255 7.539880698587134, -86.14844329549676 7.186486206287582, -86.33138422997033 6.73461856121551 M-85.86229614880834 7.893275190886686 C-86.03902081674437 7.456761844345667, -86.21574548468041 7.020248497804648, -86.33138422997033 6.73461856121551 M-86.33138422997033 6.73461856121551 C-86.46634882330153 6.328126709789613, -86.60131341663273 5.921634858363715, -86.72527313421489 5.5482879393051325 M-86.33138422997033 6.73461856121551 C-86.4303883495872 6.436433927093767, -86.52939246920408 6.138249292972024, -86.72527313421489 5.5482879393051325 M-86.72527313421489 5.5482879393051325 C-86.79325627493814 5.289038759647787, -86.8612394156614 5.029789579990441, -87.04234428754556 4.339158212148136 M-86.72527313421489 5.5482879393051325 C-86.82194776576463 5.1796256701555725, -86.9186223973144 4.810963401006012, -87.04234428754556 4.339158212148136 M-87.04234428754556 4.339158212148136 C-87.11111884113618 3.9860154149673654, -87.17989339472679 3.6328726177865955, -87.28129477658177 3.112197953150904 M-87.04234428754556 4.339158212148136 C-87.11456392862922 3.9683256188100575, -87.18678356971289 3.597493025471979, -87.28129477658177 3.112197953150904 M-87.28129477658177 3.112197953150904 C-87.34269393160349 2.635998231437016, -87.40409308662521 2.1597985097231276, -87.44114270250937 1.872449005199809 M-87.28129477658177 3.112197953150904 C-87.33582723381028 2.6892549835382846, -87.3903596910388 2.266312013925665, -87.44114270250937 1.872449005199809 M-87.44114270250937 1.872449005199809 C-87.46495927476253 1.5014866679656116, -87.4887758470157 1.1305243307314141, -87.52123121591342 0.6250057626472781 M-87.44114270250937 1.872449005199809 C-87.46812689531556 1.452148420994993, -87.49511108812175 1.031847836790177, -87.52123121591342 0.6250057626472781 M-87.52123121591342 0.6250057626472781 C-87.52123121591342 0.15037241386411032, -87.52123121591342 -0.3242609349190575, -87.52123121591342 -0.6250057626472687 M-87.52123121591342 0.6250057626472781 C-87.52123121591342 0.16440467901348255, -87.52123121591342 -0.29619640462031305, -87.52123121591342 -0.6250057626472687 M-87.52123121591342 -0.6250057626472687 C-87.5042572974472 -0.8893882438589589, -87.48728337898099 -1.153770725070649, -87.44114270250937 -1.8724490051997822 M-87.52123121591342 -0.6250057626472687 C-87.5034149960473 -0.902507768055828, -87.48559877618119 -1.1800097734643873, -87.44114270250937 -1.8724490051997822 M-87.44114270250937 -1.8724490051997822 C-87.40475293633199 -2.154680845699371, -87.36836317015462 -2.4369126861989594, -87.28129477658177 -3.112197953150895 M-87.44114270250937 -1.8724490051997822 C-87.40157145287156 -2.179355803163471, -87.36200020323376 -2.48626260112716, -87.28129477658177 -3.112197953150895 M-87.28129477658177 -3.112197953150895 C-87.2154273352434 -3.450413343334783, -87.14955989390504 -3.7886287335186712, -87.04234428754556 -4.339158212148126 M-87.28129477658177 -3.112197953150895 C-87.18847156573666 -3.5888255226480084, -87.09564835489154 -4.0654530921451215, -87.04234428754556 -4.339158212148126 M-87.04234428754556 -4.339158212148126 C-86.93359429923913 -4.75386905010362, -86.8248443109327 -5.168579888059114, -86.72527313421489 -5.548287939305123 M-87.04234428754556 -4.339158212148126 C-86.95204542810164 -4.683506898981043, -86.86174656865772 -5.02785558581396, -86.72527313421489 -5.548287939305123 M-86.72527313421489 -5.548287939305123 C-86.63219735223628 -5.828617365012723, -86.53912157025768 -6.108946790720322, -86.33138422997033 -6.734618561215485 M-86.72527313421489 -5.548287939305123 C-86.63955279453218 -5.806463944748069, -86.55383245484946 -6.064639950191015, -86.33138422997033 -6.734618561215485 M-86.33138422997033 -6.734618561215485 C-86.20935735642696 -7.036027298096699, -86.0873304828836 -7.337436034977913, -85.86229614880834 -7.893275190886676 M-86.33138422997033 -6.734618561215485 C-86.17422229142963 -7.122811587930395, -86.01706035288892 -7.511004614645304, -85.86229614880834 -7.893275190886676 M-85.86229614880834 -7.893275190886676 C-85.65988575957091 -8.31358469502673, -85.45747537033348 -8.733894199166784, -85.3199364742735 -9.019496659696282 M-85.86229614880834 -7.893275190886676 C-85.71787107996263 -8.193176936546209, -85.57344601111694 -8.493078682205741, -85.3199364742735 -9.019496659696282 M-85.3199364742735 -9.019496659696282 C-85.12420865161545 -9.367031228416858, -84.9284808289574 -9.714565797137434, -84.70653387860425 -10.108655082055243 M-85.3199364742735 -9.019496659696282 C-85.0779213359509 -9.449219044478227, -84.8359061976283 -9.87894142926017, -84.70653387860425 -10.108655082055243 M-84.70653387860425 -10.108655082055243 C-84.54974309582994 -10.34952782861691, -84.39295231305562 -10.590400575178577, -84.02460896464063 -11.156274872382308 M-84.70653387860425 -10.108655082055243 C-84.4479797336299 -10.505863680245112, -84.18942558865552 -10.90307227843498, -84.02460896464063 -11.156274872382308 M-84.02460896464063 -11.156274872382308 C-83.8260230958827 -11.422361844973114, -83.62743722712477 -11.68844881756392, -83.27696390812659 -12.158051136245302 M-84.02460896464063 -11.156274872382308 C-83.84937100411054 -11.39107777498602, -83.67413304358044 -11.625880677589732, -83.27696390812659 -12.158051136245302 M-83.27696390812659 -12.158051136245302 C-83.10557745028011 -12.359371421797487, -82.93419099243364 -12.560691707349672, -82.46667094296866 -13.10986736009567 M-83.27696390812659 -12.158051136245302 C-83.05192040955819 -12.422400035001559, -82.82687691098981 -12.686748933757816, -82.46667094296866 -13.10986736009567 M-82.46667094296866 -13.10986736009567 C-82.14058792974787 -13.44657484315942, -81.81450491652706 -13.78328232622317, -81.59705973676799 -14.007812326905677 M-82.46667094296866 -13.10986736009567 C-82.25638278229555 -13.327007150969736, -82.04609462162243 -13.544146941843804, -81.59705973676799 -14.007812326905677 M-81.59705973676799 -14.007812326905677 C-81.27846881569873 -14.297148171966924, -80.95987789462949 -14.586484017028171, -80.6717037085019 -14.848196188198107 M-81.59705973676799 -14.007812326905677 C-81.37247462897675 -14.211774579605356, -81.1478895211855 -14.415736832305036, -80.6717037085019 -14.848196188198107 M-80.6717037085019 -14.848196188198107 C-80.45959019288728 -15.01735107232305, -80.24747667727267 -15.186505956447993, -79.69440534457871 -15.627565626425149 M-80.6717037085019 -14.848196188198107 C-80.4313714161377 -15.039854795847667, -80.19103912377348 -15.231513403497226, -79.69440534457871 -15.627565626425149 M-79.69440534457871 -15.627565626425149 C-79.41740667030827 -15.820787910516865, -79.14040799603782 -16.01401019460858, -78.66918057360571 -16.342718045390885 M-79.69440534457871 -15.627565626425149 C-79.4147571916976 -15.82263607210159, -79.13510903881648 -16.01770651777803, -78.66918057360571 -16.342718045390885 M-78.66918057360571 -16.342718045390885 C-78.382550029334 -16.516475165756447, -78.09591948506228 -16.690232286122008, -77.60024226407678 -16.99071473040609 M-78.66918057360571 -16.342718045390885 C-78.28227774112081 -16.577260816136654, -77.8953749086359 -16.811803586882423, -77.60024226407678 -16.99071473040609 M-77.60024226407678 -16.99071473040609 C-77.17835625692211 -17.210812390107797, -76.75647024976746 -17.430910049809505, -76.4919829127924 -17.56889292409717 M-77.60024226407678 -16.99071473040609 C-77.35072139527236 -17.120889607835615, -77.10120052646793 -17.25106448526514, -76.4919829127924 -17.56889292409717 M-76.4919829127924 -17.56889292409717 C-76.13505080077915 -17.72689618207052, -75.77811868876593 -17.884899440043867, -75.34895659514781 -18.07487676824742 M-76.4919829127924 -17.56889292409717 C-76.11321953935166 -17.736560233903113, -75.73445616591093 -17.904227543709055, -75.34895659514781 -18.07487676824742 M-75.34895659514781 -18.07487676824742 C-75.09049689697929 -18.169992326348698, -74.83203719881075 -18.265107884449975, -74.17586025146062 -18.506587066708033 M-75.34895659514781 -18.07487676824742 C-75.01444841148458 -18.197978871995243, -74.67994022782133 -18.32108097574307, -74.17586025146062 -18.506587066708033 M-74.17586025146062 -18.506587066708033 C-73.7415057412171 -18.635501205374958, -73.30715123097359 -18.764415344041886, -72.97751438623541 -18.862249829261067 M-74.17586025146062 -18.506587066708033 C-73.8136546954332 -18.614087774481206, -73.4514491394058 -18.721588482254383, -72.97751438623541 -18.862249829261067 M-72.97751438623541 -18.862249829261067 C-72.63286159827125 -18.94091457904426, -72.28820881030708 -19.019579328827454, -71.75884325967677 -19.140403561325773 M-72.97751438623541 -18.862249829261067 C-72.64625587688103 -18.937857422357418, -72.31499736752663 -19.013465015453765, -71.75884325967677 -19.140403561325773 M-71.75884325967677 -19.140403561325773 C-71.27334680366657 -19.218894863252252, -70.78785034765637 -19.297386165178736, -70.52485465284788 -19.3399052695533 M-71.75884325967677 -19.140403561325773 C-71.36514033224476 -19.204054397421178, -70.97143740481276 -19.267705233516583, -70.52485465284788 -19.3399052695533 M-70.52485465284788 -19.3399052695533 C-70.13805738579825 -19.3772191367138, -69.75126011874862 -19.414533003874308, -69.2806192896239 -19.45993515863156 M-70.52485465284788 -19.3399052695533 C-70.09734175349529 -19.381146924794358, -69.66982885414271 -19.422388580035417, -69.2806192896239 -19.45993515863156 M-69.2806192896239 -19.45993515863156 C-68.88514323885433 -19.472617305832305, -68.48966718808475 -19.48529945303305, -68.03125 -19.5 M-69.2806192896239 -19.45993515863156 C-68.99446953505075 -19.46911142430401, -68.70831978047762 -19.47828768997646, -68.03125 -19.5 M-68.03125 -19.5 C-68.03125 -19.5, -68.03125 -19.5, -68.03125 -19.5 M-68.03125 -19.5 C-68.03125 -19.5, -68.03125 -19.5, -68.03125 -19.5" stroke="#ccc" stroke-width="1.3" fill="none" stroke-dasharray="0 0" style=""/></g><g class="label" style="" transform="translate(-75.15625, -12)"><rect/><foreignObject width="150.3125" height="24"><div xmlns="http://www.w3.org/1999/xhtml" style="display: table-cell; white-space: nowrap; line-height: 1.5; max-width: 200px; text-align: center;"><span class="nodeLabel"><p>game_is_valid_move</p></span></div></foreignObject></g></g><g class="node default" id="my-svg-flowchart-N-1" data-look="classic" transform="translate(338.19921875, 170.6875)"><polygon points="73.6875,0 147.375,-73.6875 73.6875,-147.375 0,-73.6875" class="label-container" transform="translate(-73.1875, 73.6875)"/><g class="label" style="" transform="translate(-46.6875, -12)"><rect/><foreignObject width="93.375" height="24"><div xmlns="http://www.w3.org/1999/xhtml" style="display: table-cell; white-space: nowrap; line-height: 1.5; max-width: 200px; text-align: center;"><span class="nodeLabel"><p>move NULL?</p></span></div></foreignObject></g></g><g class="node default" id="my-svg-flowchart-E1-3" data-look="classic" transform="translate(211.6640625, 415.625)"><rect class="basic label-container" style="" x="-203.6640625" y="-27" width="407.328125" height="54"/><g class="label" style="" transform="translate(-173.6640625, -12)"><rect/><foreignObject width="347.328125" height="24"><div xmlns="http://www.w3.org/1999/xhtml" style="display: table; white-space: break-spaces; line-height: 1.5; max-width: 200px; text-align: center; width: 200px;"><span class="nodeLabel"><p>MOVE_ERROR_INVALID_MOVE_STRUCTURE</p></span></div></foreignObject></g></g><g class="node default" id="my-svg-flowchart-BOUNDS-5" data-look="classic" transform="translate(562.578125, 415.625)"><polygon points="97.25,0 194.5,-97.25 97.25,-194.5 0,-97.25" class="label-container" transform="translate(-96.75, 97.25)"/><g class="label" style="" transform="translate(-70.25, -12)"><rect/><foreignObject width="140.5" height="24"><div xmlns="http://www.w3.org/1999/xhtml" style="display: table-cell; white-space: nowrap; line-height: 1.5; max-width: 200px; text-align: center;"><span class="nodeLabel"><p>from/to v mezi 0–7?</p></span></div></foreignObject></g></g><g class="node default" id="my-svg-flowchart-E2-7" data-look="classic" transform="translate(562.578125, 663.6875)"><rect class="basic label-container" style="" x="-162.46875" y="-27" width="324.9375" height="54"/><g class="label" style="" transform="translate(-132.46875, -12)"><rect/><foreignObject width="264.9375" height="24"><div xmlns="http://www.w3.org/1999/xhtml" style="display: table; white-space: break-spaces; line-height: 1.5; max-width: 200px; text-align: center; width: 200px;"><span class="nodeLabel"><p>MOVE_ERROR_OUT_OF_BOUNDS</p></span></div></foreignObject></g></g><g class="node default" id="my-svg-flowchart-ACT-9" data-look="classic" transform="translate(851.859375, 663.6875)"><polygon points="76.8125,0 153.625,-76.8125 76.8125,-153.625 0,-76.8125" class="label-container" transform="translate(-76.3125, 76.8125)"/><g class="label" style="" transform="translate(-49.8125, -12)"><rect/><foreignObject width="99.625" height="24"><div xmlns="http://www.w3.org/1999/xhtml" style="display: table-cell; white-space: nowrap; line-height: 1.5; max-width: 200px; text-align: center;"><span class="nodeLabel"><p>game_active?</p></span></div></foreignObject></g></g><g class="node default" id="my-svg-flowchart-E3-11" data-look="classic" transform="translate(680.1328125, 853.5)"><rect class="basic label-container" style="" x="-169.5859375" y="-27" width="339.171875" height="54"/><g class="label" style="" transform="translate(-139.5859375, -12)"><rect/><foreignObject width="279.171875" height="24"><div xmlns="http://www.w3.org/1999/xhtml" style="display: table; white-space: break-spaces; line-height: 1.5; max-width: 200px; text-align: center; width: 200px;"><span class="nodeLabel"><p>MOVE_ERROR_GAME_NOT_ACTIVE</p></span></div></foreignObject></g></g><g class="node default" id="my-svg-flowchart-SRC-13" data-look="classic" transform="translate(1029.71875, 853.5)"><rect class="basic label-container" style="" x="-130" y="-39" width="260" height="78"/><g class="label" style="" transform="translate(-100, -24)"><rect/><foreignObject width="200" height="48"><div xmlns="http://www.w3.org/1999/xhtml" style="display: table; white-space: break-spaces; line-height: 1.5; max-width: 200px; text-align: center; width: 200px;"><span class="nodeLabel"><p>source_piece z board · výjimka resignation král</p></span></div></foreignObject></g></g><g class="node default" id="my-svg-flowchart-COLOR-15" data-look="classic" transform="translate(1029.71875, 1043.3203125)"><polygon points="100.8203125,0 201.640625,-100.8203125 100.8203125,-201.640625 0,-100.8203125" class="label-container" transform="translate(-100.3203125, 100.8203125)"/><g class="label" style="" transform="translate(-73.8203125, -12)"><rect/><foreignObject width="147.640625" height="24"><div xmlns="http://www.w3.org/1999/xhtml" style="display: table-cell; white-space: nowrap; line-height: 1.5; max-width: 200px; text-align: center;"><span class="nodeLabel"><p>patří current_player?</p></span></div></foreignObject></g></g><g class="node default" id="my-svg-flowchart-E4-17" data-look="classic" transform="translate(877.74609375, 1316.2890625)"><rect class="basic label-container" style="" x="-155.796875" y="-27" width="311.59375" height="54"/><g class="label" style="" transform="translate(-125.796875, -12)"><rect/><foreignObject width="251.59375" height="24"><div xmlns="http://www.w3.org/1999/xhtml" style="display: table; white-space: break-spaces; line-height: 1.5; max-width: 200px; text-align: center; width: 200px;"><span class="nodeLabel"><p>MOVE_ERROR_WRONG_COLOR</p></span></div></foreignObject></g></g><g class="node default" id="my-svg-flowchart-OWN-19" data-look="classic" transform="translate(1181.69140625, 1316.2890625)"><polygon points="98.1484375,0 196.296875,-98.1484375 98.1484375,-196.296875 0,-98.1484375" class="label-container" transform="translate(-97.6484375, 98.1484375)"/><g class="label" style="" transform="translate(-71.1484375, -12)"><rect/><foreignObject width="142.296875" height="24"><div xmlns="http://www.w3.org/1999/xhtml" style="display: table-cell; white-space: nowrap; line-height: 1.5; max-width: 200px; text-align: center;"><span class="nodeLabel"><p>dest vlastní figurka?</p></span></div></foreignObject></g></g><g class="node default" id="my-svg-flowchart-E5-21" data-look="classic" transform="translate(991.5859375, 1627.4375)"><rect class="basic label-container" style="" x="-191.2109375" y="-27" width="382.421875" height="54"/><g class="label" style="" transform="translate(-161.2109375, -12)"><rect/><foreignObject width="322.421875" height="24"><div xmlns="http://www.w3.org/1999/xhtml" style="display: table; white-space: break-spaces; line-height: 1.5; max-width: 200px; text-align: center; width: 200px;"><span class="nodeLabel"><p>MOVE_ERROR_DESTINATION_OCCUPIED</p></span></div></foreignObject></g></g><g class="node default" id="my-svg-flowchart-CAST-23" data-look="classic" transform="translate(1371.796875, 1627.4375)"><polygon points="139,0 278,-139 139,-278 0,-139" class="label-container" transform="translate(-138.5, 139)"/><g class="label" style="" transform="translate(-100, -24)"><rect/><foreignObject width="200" height="48"><div xmlns="http://www.w3.org/1999/xhtml" style="display: table; white-space: break-spaces; line-height: 1.5; max-width: 200px; text-align: center; width: 200px;"><span class="nodeLabel"><p>rošáda — očekávaný tah věže?</p></span></div></foreignObject></g></g><g class="node default" id="my-svg-flowchart-SKIP-25" data-look="classic" transform="translate(211.6640625, 2060.3515625)"><rect class="basic label-container" style="" x="-130" y="-39" width="260" height="78"/><g class="label" style="" transform="translate(-100, -24)"><rect/><foreignObject width="200" height="48"><div xmlns="http://www.w3.org/1999/xhtml" style="display: table; white-space: break-spaces; line-height: 1.5; max-width: 200px; text-align: center; width: 200px;"><span class="nodeLabel"><p>přeskočit standardní geometrii věže</p></span></div></foreignObject></g></g><g class="node default" id="my-svg-flowchart-PIECE-27" data-look="classic" transform="translate(1568.42578125, 1867.4375)"><rect class="basic label-container" style="" x="-169.21875" y="-27" width="338.4375" height="54"/><g class="label" style="" transform="translate(-139.21875, -12)"><rect/><foreignObject width="278.4375" height="24"><div xmlns="http://www.w3.org/1999/xhtml" style="display: table; white-space: break-spaces; line-height: 1.5; max-width: 200px; text-align: center; width: 200px;"><span class="nodeLabel"><p>game_validate_piece_move_enhanced</p></span></div></foreignObject></g></g><g class="node default" id="my-svg-flowchart-E_CAST-29" data-look="classic" transform="translate(1175.16796875, 1867.4375)"><rect class="basic label-container" style="" x="-174.0390625" y="-27" width="348.078125" height="54"/><g class="label" style="" transform="translate(-144.0390625, -12)"><rect/><foreignObject width="288.078125" height="24"><div xmlns="http://www.w3.org/1999/xhtml" style="display: table; white-space: break-spaces; line-height: 1.5; max-width: 200px; text-align: center; width: 200px;"><span class="nodeLabel"><p>MOVE_ERROR_CASTLING_BLOCKED</p></span></div></foreignObject></g></g><g class="node default" id="my-svg-flowchart-CHECK-31" data-look="classic" transform="translate(532.6328125, 2429.8125)"><polygon points="179.546875,0 359.09375,-179.546875 179.546875,-359.09375 0,-179.546875" class="label-container" transform="translate(-179.046875, 179.546875)"/><g class="label" style="" transform="translate(-152.546875, -12)"><rect/><foreignObject width="305.09375" height="24"><div xmlns="http://www.w3.org/1999/xhtml" style="display: table; white-space: break-spaces; line-height: 1.5; max-width: 200px; text-align: center; width: 200px;"><span class="nodeLabel"><p>game_would_move_leave_king_in_check?</p></span></div></foreignObject></g></g><g class="node default" id="my-svg-flowchart-PE-33" data-look="classic" transform="translate(1568.42578125, 2060.3515625)"><polygon points="115.9140625,0 231.828125,-115.9140625 115.9140625,-231.828125 0,-115.9140625" class="label-container" transform="translate(-115.4140625, 115.9140625)"/><g class="label" style="" transform="translate(-88.9140625, -12)"><rect/><foreignObject width="177.828125" height="24"><div xmlns="http://www.w3.org/1999/xhtml" style="display: table-cell; white-space: nowrap; line-height: 1.5; max-width: 200px; text-align: center;"><span class="nodeLabel"><p>MOVE_ERROR_NONE?</p></span></div></foreignObject></g></g><g class="node default" id="my-svg-flowchart-EP-35" data-look="classic" transform="translate(1589.55078125, 2429.8125)"><rect class="basic label-container" style="" x="-95.8125" y="-27" width="191.625" height="54"/><g class="label" style="" transform="translate(-65.8125, -12)"><rect/><foreignObject width="131.625" height="24"><div xmlns="http://www.w3.org/1999/xhtml" style="display: table-cell; white-space: nowrap; line-height: 1.5; max-width: 200px; text-align: center;"><span class="nodeLabel"><p>vlastní piece_error</p></span></div></foreignObject></g></g><g class="node default" id="my-svg-flowchart-E6-39" data-look="classic" transform="translate(212.359375, 2710.359375)"><rect class="basic label-container" style="" x="-155.8125" y="-27" width="311.625" height="54"/><g class="label" style="" transform="translate(-125.8125, -12)"><rect/><foreignObject width="251.625" height="24"><div xmlns="http://www.w3.org/1999/xhtml" style="display: table; white-space: break-spaces; line-height: 1.5; max-width: 200px; text-align: center; width: 200px;"><span class="nodeLabel"><p>MOVE_ERROR_KING_IN_CHECK</p></span></div></foreignObject></g></g><g class="node default" id="my-svg-flowchart-OK-41" data-look="classic" transform="translate(532.6328125, 2710.359375)"><rect class="basic label-container" style="" x="-114.4609375" y="-27" width="228.921875" height="54"/><g class="label" style="" transform="translate(-84.4609375, -12)"><rect/><foreignObject width="168.921875" height="24"><div xmlns="http://www.w3.org/1999/xhtml" style="display: table-cell; white-space: nowrap; line-height: 1.5; max-width: 200px; text-align: center;"><span class="nodeLabel"><p>MOVE_ERROR_NONE</p></span></div></foreignObject></g></g></g></g></g><defs><filter id="my-svg-drop-shadow" height="130%" width="130%"><feDropShadow dx="4" dy="4" stdDeviation="0" flood-opacity="0.06" flood-color="#FFFFFF"/></filter></defs><defs><filter id="my-svg-drop-shadow-small" height="150%" width="150%"><feDropShadow dx="2" dy="2" stdDeviation="0" flood-opacity="0.06" flood-color="#FFFFFF"/></filter></defs><linearGradient id="my-svg-gradient" gradientUnits="objectBoundingBox" x1="0%" y1="0%" x2="100%" y2="0%"><stop offset="0%" stop-color="#cccccc" stop-opacity="1"/><stop offset="100%" stop-color="hsl(180, 0%, 18.3529411765%)" stop-opacity="1"/></linearGradient></svg>