<svg id="my-svg" width="100%" xmlns="http://www.w3.org/2000/svg" xmlns:xlink="http://www.w3.org/1999/xlink" class="flowchart" style="max-width: 1015.68px; background-color: transparent;" viewBox="0 0 1015.68359375 1743.921875" role="graphics-document document" aria-roledescription="flowchart-v2"><style>#my-svg{font-size:16px;fill:#ccc;}@keyframes edge-animation-frame{from{stroke-dashoffset:0;}}@keyframes dash{to{stroke-dashoffset:0;}}#my-svg .edge-animation-slow{stroke-dasharray:9,5!important;stroke-dashoffset:900;animation:dash 50s linear infinite;stroke-linecap:round;}#my-svg .edge-animation-fast{stroke-dasharray:9,5!important;stroke-dashoffset:900;animation:dash 20s linear infinite;stroke-linecap:round;}#my-svg .error-icon{fill:#a44141;}#my-svg .error-text{fill:#ddd;stroke:#ddd;}#my-svg .edge-thickness-normal{stroke-width:1px;}#my-svg .edge-thickness-thick{stroke-width:3.5px;}#my-svg .edge-pattern-solid{stroke-dasharray:0;}#my-svg .edge-thickness-invisible{stroke-width:0;fill:none;}#my-svg .edge-pattern-dashed{stroke-dasharray:3;}#my-svg .edge-pattern-dotted{stroke-dasharray:2;}#my-svg .marker{fill:#94a3b8;stroke:#94a3b8;}#my-svg .marker.cross{stroke:#94a3b8;}#my-svg svg{font-size:16px;}#my-svg p{margin:0;}#my-svg .label{color:#ccc;}#my-svg .cluster-label text{fill:#f8fafc;}#my-svg .cluster-label span{color:#f8fafc;}#my-svg .cluster-label span p{background-color:transparent;}#my-svg .label text,#my-svg span{fill:#ccc;color:#ccc;}#my-svg .node rect,#my-svg .node circle,#my-svg .node ellipse,#my-svg .node polygon,#my-svg .node path{fill:#1f2020;stroke:#ccc;stroke-width:1px;}#my-svg .rough-node .label text,#my-svg .node .label text,#my-svg .image-shape .label,#my-svg .icon-shape .label{text-anchor:middle;}#my-svg .node .katex path{fill:#000;stroke:#000;stroke-width:1px;}#my-svg .rough-node .label,#my-svg .node .label,#my-svg .image-shape .label,#my-svg .icon-shape .label{text-align:center;}#my-svg .node.clickable{cursor:pointer;}#my-svg .root .anchor path{fill:#94a3b8!important;stroke-width:0;stroke:#94a3b8;}#my-svg .arrowheadPath{fill:lightgrey;}#my-svg .edgePath .path{stroke:#94a3b8;stroke-width:1px;}#my-svg .flowchart-link{stroke:#94a3b8;fill:none;}#my-svg .edgeLabel{background-color:#1e293b;text-align:center;}#my-svg .edgeLabel p{background-color:#1e293b;}#my-svg .edgeLabel rect{opacity:0.5;background-color:#1e293b;fill:#1e293b;}#my-svg .labelBkg{background-color:rgba(30, 41, 59, 0.5);}#my-svg .cluster rect{fill:#0f172a;stroke:#334155;stroke-width:1px;}#my-svg .cluster text{fill:#f8fafc;}#my-svg .cluster span{color:#f8fafc;}#my-svg div.mermaidTooltip{position:absolute;text-align:center;max-width:200px;padding:2px;font-size:12px;background:hsl(20, 1.5873015873%, 12.3529411765%);border:1px solid rgba(255, 255, 255, 0.25);border-radius:2px;pointer-events:none;z-index:100;}#my-svg .flowchartTitleText{text-anchor:middle;font-size:18px;fill:#ccc;}#my-svg rect.text{fill:none;stroke-width:0;}#my-svg .icon-shape,#my-svg .image-shape{background-color:#1e293b;text-align:center;}#my-svg .icon-shape p,#my-svg .image-shape p{background-color:#1e293b;padding:2px;}#my-svg .icon-shape .label rect,#my-svg .image-shape .label rect{opacity:0.5;background-color:#1e293b;fill:#1e293b;}#my-svg .label-icon{display:inline-block;height:1em;overflow:visible;vertical-align:-0.125em;}#my-svg .node .label-icon path{fill:currentColor;stroke:revert;stroke-width:revert;}#my-svg .node .neo-node{stroke:#ccc;}#my-svg [data-look="neo"].node rect,#my-svg [data-look="neo"].cluster rect,#my-svg [data-look="neo"].node polygon{stroke:url(#my-svg-gradient);filter:drop-shadow( 1px 2px 2px rgba(185,185,185,1));}#my-svg [data-look="neo"].node path{stroke:url(#my-svg-gradient);stroke-width:1px;}#my-svg [data-look="neo"].node .outer-path{filter:drop-shadow( 1px 2px 2px rgba(185,185,185,1));}#my-svg [data-look="neo"].node .neo-line path{stroke:#ccc;filter:none;}#my-svg [data-look="neo"].node circle{stroke:url(#my-svg-gradient);filter:drop-shadow( 1px 2px 2px rgba(185,185,185,1));}#my-svg [data-look="neo"].node circle .state-start{fill:#000000;}#my-svg [data-look="neo"].icon-shape .icon{fill:url(#my-svg-gradient);filter:drop-shadow( 1px 2px 2px rgba(185,185,185,1));}#my-svg [data-look="neo"].icon-shape .icon-neo path{stroke:url(#my-svg-gradient);filter:drop-shadow( 1px 2px 2px rgba(185,185,185,1));}#my-svg :root{--mermaid-font-family:"trebuchet ms",verdana,arial,sans-serif;}</style><g><marker id="my-svg_flowchart-v2-pointEnd" class="marker flowchart-v2" viewBox="0 0 10 10" refX="5" refY="5" markerUnits="userSpaceOnUse" markerWidth="8" markerHeight="8" orient="auto"><path d="M 0 0 L 10 5 L 0 10 z" class="arrowMarkerPath" style="stroke-width: 1; stroke-dasharray: 1, 0;"/></marker><marker id="my-svg_flowchart-v2-pointStart" class="marker flowchart-v2" viewBox="0 0 10 10" refX="4.5" refY="5" markerUnits="userSpaceOnUse" markerWidth="8" markerHeight="8" orient="auto"><path d="M 0 5 L 10 10 L 10 0 z" class="arrowMarkerPath" style="stroke-width: 1; stroke-dasharray: 1, 0;"/></marker><marker id="my-svg_flowchart-v2-pointEnd-margin" class="marker flowchart-v2" viewBox="0 0 11.5 14" refX="11.5" refY="7" markerUnits="userSpaceOnUse" markerWidth="10.5" markerHeight="14" orient="auto"><path d="M 0 0 L 11.5 7 L 0 14 z" class="arrowMarkerPath" style="stroke-width: 0; stroke-dasharray: 1, 0;"/></marker><marker id="my-svg_flowchart-v2-pointStart-margin" class="marker flowchart-v2" viewBox="0 0 11.5 14" refX="1" refY="7" markerUnits="userSpaceOnUse" markerWidth="11.5" markerHeight="14" orient="auto"><polygon points="0,7 11.5,14 11.5,0" class="arrowMarkerPath" style="stroke-width: 0; stroke-dasharray: 1, 0;"/></marker><marker id="my-svg_flowchart-v2-circleEnd" class="marker flowchart-v2" viewBox="0 0 10 10" refX="11" refY="5" markerUnits="userSpaceOnUse" markerWidth="11" markerHeight="11" orient="auto"><circle cx="5" cy="5" r="5" class="arrowMarkerPath" style="stroke-width: 1; stroke-dasharray: 1, 0;"/></marker><marker id="my-svg_flowchart-v2-circleStart" class="marker flowchart-v2" viewBox="0 0 10 10" refX="-1" refY="5" markerUnits="userSpaceOnUse" markerWidth="11" markerHeight="11" orient="auto"><circle cx="5" cy="5" r="5" class="arrowMarkerPath" style="stroke-width: 1; stroke-dasharray: 1, 0;"/></marker><marker id="my-svg_flowchart-v2-circleEnd-margin" class="marker flowchart-v2" viewBox="0 0 10 10" refY="5" refX="12.25" markerUnits="userSpaceOnUse" markerWidth="14" markerHeight="14" orient="auto"><circle cx="5" cy="5" r="5" class="arrowMarkerPath" style="stroke-width: 0; stroke-dasharray: 1, 0;"/></marker><marker id="my-svg_flowchart-v2-circleStart-margin" class="marker flowchart-v2" viewBox="0 0 10 10" refX="-2" refY="5" markerUnits="userSpaceOnUse" markerWidth="14" markerHeight="14" orient="auto"><circle cx="5" cy="5" r="5" class="arrowMarkerPath" style="stroke-width: 0; stroke-dasharray: 1, 0;"/></marker><marker id="my-svg_flowchart-v2-crossEnd" class="marker cross flowchart-v2" viewBox="0 0 11 11" refX="12" refY="5.2" markerUnits="userSpaceOnUse" markerWidth="11" markerHeight="11" orient="auto"><path d="M 1,1 l 9,9 M 10,1 l -9,9" class="arrowMarkerPath" style="stroke-width: 2; stroke-dasharray: 1, 0;"/></marker><marker id="my-svg_flowchart-v2-crossStart" class="marker cross flowchart-v2" viewBox="0 0 11 11" refX="-1" refY="5.2" markerUnits="userSpaceOnUse" markerWidth="11" markerHeight="11" orient="auto"><path d="M 1,1 l 9,9 M 10,1 l -9,9" class="arrowMarkerPath" style="stroke-width: 2; stroke-dasharray: 1, 0;"/></marker><marker id="my-svg_flowchart-v2-crossEnd-margin" class="marker cross flowchart-v2" viewBox="0 0 15 15" refX="17.7" refY="7.5" markerUnits="userSpaceOnUse" markerWidth="12" markerHeight="12" orient="auto"><path d="M 1,1 L 14,14 M 1,14 L 14,1" class="arrowMarkerPath" style="stroke-width: 2.5;"/></marker><marker id="my-svg_flowchart-v2-crossStart-margin" class="marker cross flowchart-v2" viewBox="0 0 15 15" refX="-3.5" refY="7.5" markerUnits="userSpaceOnUse" markerWidth="12" markerHeight="12" orient="auto"><path d="M 1,1 L 14,14 M 1,14 L 14,1" class="arrowMarkerPath" style="stroke-width: 2.5; stroke-dasharray: 1, 0;"/></marker><g class="root"><g class="clusters"/><g class="edgePaths"><path d="M418.277,62L418.277,66.167C418.277,70.333,418.277,78.667,418.277,86.333C418.277,94,418.277,101,418.277,104.5L418.277,108" id="my-svg-L_A_B_0" class="edge-thickness-normal edge-pattern-solid edge-thickness-normal edge-pattern-solid flowchart-link" style=";" data-edge="true" data-et="edge" data-id="L_A_B_0" data-points="W3sieCI6NDE4LjI3NzM0Mzc1LCJ5Ijo2Mn0seyJ4Ijo0MTguMjc3MzQzNzUsInkiOjg3fSx7IngiOjQxOC4yNzczNDM3NSwieSI6MTEyfV0=" data-look="classic" marker-end="url(#my-svg_flowchart-v2-pointEnd)"/><path d="M418.277,214L418.277,218.167C418.277,222.333,418.277,230.667,418.277,238.333C418.277,246,418.277,253,418.277,256.5L418.277,260" id="my-svg-L_B_C_0" class="edge-thickness-normal edge-pattern-solid edge-thickness-normal edge-pattern-solid flowchart-link" style=";" data-edge="true" data-et="edge" data-id="L_B_C_0" data-points="W3sieCI6NDE4LjI3NzM0Mzc1LCJ5IjoyMTR9LHsieCI6NDE4LjI3NzM0Mzc1LCJ5IjoyMzl9LHsieCI6NDE4LjI3NzM0Mzc1LCJ5IjoyNjR9XQ==" data-look="classic" marker-end="url(#my-svg_flowchart-v2-pointEnd)"/><path d="M332.894,456.617L300.412,477.014C267.929,497.411,202.965,538.206,170.482,573.269C138,608.333,138,637.667,138,665C138,692.333,138,717.667,138,743C138,768.333,138,793.667,138,819C138,844.333,138,869.667,138,894.41C138,919.154,138,943.307,138,969.461C138,995.615,138,1023.768,138,1052.512C138,1081.255,138,1110.589,138,1137.922C138,1165.255,138,1190.589,138,1213.922C138,1237.255,138,1258.589,138,1279.922C138,1301.255,138,1322.589,138,1347.922C138,1373.255,138,1402.589,138,1431.922C138,1461.255,138,1490.589,138,1508.755C138,1526.922,138,1533.922,138,1537.422L138,1540.922" id="my-svg-L_C_D_0" class="edge-thickness-normal edge-pattern-solid edge-thickness-normal edge-pattern-solid flowchart-link" style=";" data-edge="true" data-et="edge" data-id="L_C_D_0" data-points="W3sieCI6MzMyLjg5Mzg1NjQ1ODk5ODYsInkiOjQ1Ni42MTY1MTI3MDg5OTg2fSx7IngiOjEzOCwieSI6NTc5fSx7IngiOjEzOCwieSI6NjY3fSx7IngiOjEzOCwieSI6NzQzfSx7IngiOjEzOCwieSI6ODE5fSx7IngiOjEzOCwieSI6ODk1fSx7IngiOjEzOCwieSI6OTY3LjQ2MDkzNzV9LHsieCI6MTM4LCJ5IjoxMDUxLjkyMTg3NX0seyJ4IjoxMzgsInkiOjExMzkuOTIxODc1fSx7IngiOjEzOCwieSI6MTIxNS45MjE4NzV9LHsieCI6MTM4LCJ5IjoxMjc5LjkyMTg3NX0seyJ4IjoxMzgsInkiOjEzNDMuOTIxODc1fSx7IngiOjEzOCwieSI6MTQzMS45MjE4NzV9LHsieCI6MTM4LCJ5IjoxNTE5LjkyMTg3NX0seyJ4IjoxMzgsInkiOjE1NDQuOTIxODc1fV0=" data-look="classic" marker-end="url(#my-svg_flowchart-v2-pointEnd)"/><path d="M465.951,494.326L473.318,508.438C480.685,522.551,495.419,550.775,502.785,570.388C510.152,590,510.152,601,510.152,606.5L510.152,612" id="my-svg-L_C_E_0" class="edge-thickness-normal edge-pattern-solid edge-thickness-normal edge-pattern-solid flowchart-link" style=";" data-edge="true" data-et="edge" data-id="L_C_E_0" data-points="W3sieCI6NDY1Ljk1MTE2NTQ5NTIxNjk3LCJ5Ijo0OTQuMzI2MTc4MjU0NzgzMDN9LHsieCI6NTEwLjE1MjM0Mzc1LCJ5Ijo1Nzl9LHsieCI6NTEwLjE1MjM0Mzc1LCJ5Ijo2MTZ9XQ==" data-look="classic" marker-end="url(#my-svg_flowchart-v2-pointEnd)"/><path d="M383.724,718L373.395,722.167C363.066,726.333,342.408,734.667,332.079,742.333C321.75,750,321.75,757,321.75,760.5L321.75,764" id="my-svg-L_E_F_0" class="edge-thickness-normal edge-pattern-solid edge-thickness-normal edge-pattern-solid flowchart-link" style=";" data-edge="true" data-et="edge" data-id="L_E_F_0" data-points="W3sieCI6MzgzLjcyNDQ1NTE4MDkyMTA0LCJ5Ijo3MTh9LHsieCI6MzIxLjc1LCJ5Ijo3NDN9LHsieCI6MzIxLjc1LCJ5Ijo3Njh9XQ==" data-look="classic" marker-end="url(#my-svg_flowchart-v2-pointEnd)"/><path d="M620.457,718L629.468,722.167C638.48,726.333,656.504,734.667,665.516,744.333C674.527,754,674.527,765,674.527,770.5L674.527,776" id="my-svg-L_E_G_0" class="edge-thickness-normal edge-pattern-solid edge-thickness-normal edge-pattern-solid flowchart-link" style=";" data-edge="true" data-et="edge" data-id="L_E_G_0" data-points="W3sieCI6NjIwLjQ1NjYyMDA2NTc4OTUsInkiOjcxOH0seyJ4Ijo2NzQuNTI3MzQzNzUsInkiOjc0M30seyJ4Ijo2NzQuNTI3MzQzNzUsInkiOjc4MH1d" data-look="classic" marker-end="url(#my-svg_flowchart-v2-pointEnd)"/><path d="M674.527,858L674.527,864.167C674.527,870.333,674.527,882.667,674.527,892.333C674.527,902,674.527,909,674.527,912.5L674.527,916" id="my-svg-L_G_H_0" class="edge-thickness-normal edge-pattern-solid edge-thickness-normal edge-pattern-solid flowchart-link" style=";" data-edge="true" data-et="edge" data-id="L_G_H_0" data-points="W3sieCI6Njc0LjUyNzM0Mzc1LCJ5Ijo4NTh9LHsieCI6Njc0LjUyNzM0Mzc1LCJ5Ijo4OTV9LHsieCI6Njc0LjUyNzM0Mzc1LCJ5Ijo5MjB9XQ==" data-look="classic" marker-end="url(#my-svg_flowchart-v2-pointEnd)"/><path d="M642.125,982.519L617.235,994.086C592.345,1005.654,542.565,1028.788,517.675,1047.855C492.785,1066.922,492.785,1081.922,492.785,1089.422L492.785,1096.922" id="my-svg-L_H_I_0" class="edge-thickness-normal edge-pattern-solid edge-thickness-normal edge-pattern-solid flowchart-link" style=";" data-edge="true" data-et="edge" data-id="L_H_I_0" data-points="W3sieCI6NjQyLjEyNDgxNDI4Mjg4NDQsInkiOjk4Mi41MTkzNDU1MzI4ODQ0fSx7IngiOjQ5Mi43ODUxNTYyNSwieSI6MTA1MS45MjE4NzV9LHsieCI6NDkyLjc4NTE1NjI1LCJ5IjoxMTAwLjkyMTg3NX1d" data-look="classic" marker-end="url(#my-svg_flowchart-v2-pointEnd)"/><path d="M706.93,982.519L731.82,994.086C756.71,1005.654,806.49,1028.788,831.38,1045.855C856.27,1062.922,856.27,1073.922,856.27,1079.422L856.27,1084.922" id="my-svg-L_H_J_0" class="edge-thickness-normal edge-pattern-solid edge-thickness-normal edge-pattern-solid flowchart-link" style=";" data-edge="true" data-et="edge" data-id="L_H_J_0" data-points="W3sieCI6NzA2LjkyOTg3MzIxNzExNTYsInkiOjk4Mi41MTkzNDU1MzI4ODQ0fSx7IngiOjg1Ni4yNjk1MzEyNSwieSI6MTA1MS45MjE4NzV9LHsieCI6ODU2LjI2OTUzMTI1LCJ5IjoxMDg4LjkyMTg3NX1d" data-look="classic" marker-end="url(#my-svg_flowchart-v2-pointEnd)"/><path d="M492.785,1178.922L492.785,1185.089C492.785,1191.255,492.785,1203.589,503.989,1213.7C515.192,1223.812,537.599,1231.703,548.802,1235.648L560.005,1239.593" id="my-svg-L_I_K_0" class="edge-thickness-normal edge-pattern-solid edge-thickness-normal edge-pattern-solid flowchart-link" style=";" data-edge="true" data-et="edge" data-id="L_I_K_0" data-points="W3sieCI6NDkyLjc4NTE1NjI1LCJ5IjoxMTc4LjkyMTg3NX0seyJ4Ijo0OTIuNzg1MTU2MjUsInkiOjEyMTUuOTIxODc1fSx7IngiOjU2My43NzgxOTgyNDIxODc1LCJ5IjoxMjQwLjkyMTg3NX1d" data-look="classic" marker-end="url(#my-svg_flowchart-v2-pointEnd)"/><path d="M856.27,1190.922L856.27,1195.089C856.27,1199.255,856.27,1207.589,845.066,1215.7C833.863,1223.812,811.456,1231.703,800.253,1235.648L789.049,1239.593" id="my-svg-L_J_K_0" class="edge-thickness-normal edge-pattern-solid edge-thickness-normal edge-pattern-solid flowchart-link" style=";" data-edge="true" data-et="edge" data-id="L_J_K_0" data-points="W3sieCI6ODU2LjI2OTUzMTI1LCJ5IjoxMTkwLjkyMTg3NX0seyJ4Ijo4NTYuMjY5NTMxMjUsInkiOjEyMTUuOTIxODc1fSx7IngiOjc4NS4yNzY0ODkyNTc4MTI1LCJ5IjoxMjQwLjkyMTg3NX1d" data-look="classic" marker-end="url(#my-svg_flowchart-v2-pointEnd)"/><path d="M674.527,1318.922L674.527,1323.089C674.527,1327.255,674.527,1335.589,674.527,1343.255C674.527,1350.922,674.527,1357.922,674.527,1361.422L674.527,1364.922" id="my-svg-L_K_L_0" class="edge-thickness-normal edge-pattern-solid edge-thickness-normal edge-pattern-solid flowchart-link" style=";" data-edge="true" data-et="edge" data-id="L_K_L_0" data-points="W3sieCI6Njc0LjUyNzM0Mzc1LCJ5IjoxMzE4LjkyMTg3NX0seyJ4Ijo2NzQuNTI3MzQzNzUsInkiOjEzNDMuOTIxODc1fSx7IngiOjY3NC41MjczNDM3NSwieSI6MTM2OC45MjE4NzV9XQ==" data-look="classic" marker-end="url(#my-svg_flowchart-v2-pointEnd)"/><path d="M674.527,1494.922L674.527,1499.089C674.527,1503.255,674.527,1511.589,674.527,1519.255C674.527,1526.922,674.527,1533.922,674.527,1537.422L674.527,1540.922" id="my-svg-L_L_M_0" class="edge-thickness-normal edge-pattern-solid edge-thickness-normal edge-pattern-solid flowchart-link" style=";" data-edge="true" data-et="edge" data-id="L_L_M_0" data-points="W3sieCI6Njc0LjUyNzM0Mzc1LCJ5IjoxNDk0LjkyMTg3NX0seyJ4Ijo2NzQuNTI3MzQzNzUsInkiOjE1MTkuOTIxODc1fSx7IngiOjY3NC41MjczNDM3NSwieSI6MTU0NC45MjE4NzV9XQ==" data-look="classic" marker-end="url(#my-svg_flowchart-v2-pointEnd)"/><path d="M138,1646.922L138,1651.089C138,1655.255,138,1663.589,175.832,1673.831C213.664,1684.073,289.327,1696.224,327.159,1702.299L364.991,1708.375" id="my-svg-L_D_FIN_0" class="edge-thickness-normal edge-pattern-solid edge-thickness-normal edge-pattern-solid flowchart-link" style=";" data-edge="true" data-et="edge" data-id="L_D_FIN_0" data-points="W3sieCI6MTM4LCJ5IjoxNjQ2LjkyMTg3NX0seyJ4IjoxMzgsInkiOjE2NzEuOTIxODc1fSx7IngiOjM2OC45NDAwNDE4NTIzNTY4NCwieSI6MTcwOS4wMDkxNDE0NzQwODQ4fV0=" data-look="classic" marker-end="url(#my-svg_flowchart-v2-pointEnd)"/><path d="M674.527,1646.922L674.527,1651.089C674.527,1655.255,674.527,1663.589,640.81,1673.706C607.093,1683.824,539.658,1695.727,505.941,1701.678L472.224,1707.629" id="my-svg-L_M_FIN_0" class="edge-thickness-normal edge-pattern-solid edge-thickness-normal edge-pattern-solid flowchart-link" style=";" data-edge="true" data-et="edge" data-id="L_M_FIN_0" data-points="W3sieCI6Njc0LjUyNzM0Mzc1LCJ5IjoxNjQ2LjkyMTg3NX0seyJ4Ijo2NzQuNTI3MzQzNzUsInkiOjE2NzEuOTIxODc1fSx7IngiOjQ2OC4yODQ5MTg2MTI0ODg0NywieSI6MTcwOC4zMjQ0NjE5OTk0ODk4fV0=" data-look="classic" marker-end="url(#my-svg_flowchart-v2-pointEnd)"/></g><g class="edgeLabels"><g class="edgeLabel"><g class="label" data-id="L_A_B_0" transform="translate(0, 0)"><foreignObject width="0" height="0"><div xmlns="http://www.w3.org/1999/xhtml" class="labelBkg" style="display: table-cell; white-space: nowrap; line-height: 1.5; max-width: 200px; text-align: center;"><span class="edgeLabel"></span></div></foreignObject></g></g><g class="edgeLabel"><g class="label" data-id="L_B_C_0" transform="translate(0, 0)"><foreignObject width="0" height="0"><div xmlns="http://www.w3.org/1999/xhtml" class="labelBkg" style="display: table-cell; white-space: nowrap; line-height: 1.5; max-width: 200px; text-align: center;"><span class="edgeLabel"></span></div></foreignObject></g></g><g class="edgeLabel" transform="translate(138, 1051.921875)"><g class="label" data-id="L_C_D_0" transform="translate(-13.3515625, -12)"><foreignObject width="26.703125" height="24"><div xmlns="http://www.w3.org/1999/xhtml" class="labelBkg" style="display: table-cell; white-space: nowrap; line-height: 1.5; max-width: 200px; text-align: center;"><span class="edgeLabel"><p>ano</p></span></div></foreignObject></g></g><g class="edgeLabel" transform="translate(510.15234375, 579)"><g class="label" data-id="L_C_E_0" transform="translate(-8.8984375, -12)"><foreignObject width="17.796875" height="24"><div xmlns="http://www.w3.org/1999/xhtml" class="labelBkg" style="display: table-cell; white-space: nowrap; line-height: 1.5; max-width: 200px; text-align: center;"><span class="edgeLabel"><p>ne</p></span></div></foreignObject></g></g><g class="edgeLabel"><g class="label" data-id="L_E_F_0" transform="translate(0, 0)"><foreignObject width="0" height="0"><div xmlns="http://www.w3.org/1999/xhtml" class="labelBkg" style="display: table-cell; white-space: nowrap; line-height: 1.5; max-width: 200px; text-align: center;"><span class="edgeLabel"></span></div></foreignObject></g></g><g class="edgeLabel"><g class="label" data-id="L_E_G_0" transform="translate(0, 0)"><foreignObject width="0" height="0"><div xmlns="http://www.w3.org/1999/xhtml" class="labelBkg" style="display: table-cell; white-space: nowrap; line-height: 1.5; max-width: 200px; text-align: center;"><span class="edgeLabel"></span></div></foreignObject></g></g><g class="edgeLabel"><g class="label" data-id="L_G_H_0" transform="translate(0, 0)"><foreignObject width="0" height="0"><div xmlns="http://www.w3.org/1999/xhtml" class="labelBkg" style="display: table-cell; white-space: nowrap; line-height: 1.5; max-width: 200px; text-align: center;"><span class="edgeLabel"></span></div></foreignObject></g></g><g class="edgeLabel"><g class="label" data-id="L_H_I_0" transform="translate(0, 0)"><foreignObject width="0" height="0"><div xmlns="http://www.w3.org/1999/xhtml" class="labelBkg" style="display: table-cell; white-space: nowrap; line-height: 1.5; max-width: 200px; text-align: center;"><span class="edgeLabel"></span></div></foreignObject></g></g><g class="edgeLabel"><g class="label" data-id="L_H_J_0" transform="translate(0, 0)"><foreignObject width="0" height="0"><div xmlns="http://www.w3.org/1999/xhtml" class="labelBkg" style="display: table-cell; white-space: nowrap; line-height: 1.5; max-width: 200px; text-align: center;"><span class="edgeLabel"></span></div></foreignObject></g></g><g class="edgeLabel"><g class="label" data-id="L_I_K_0" transform="translate(0, 0)"><foreignObject width="0" height="0"><div xmlns="http://www.w3.org/1999/xhtml" class="labelBkg" style="display: table-cell; white-space: nowrap; line-height: 1.5; max-width: 200px; text-align: center;"><span class="edgeLabel"></span></div></foreignObject></g></g><g class="edgeLabel"><g class="label" data-id="L_J_K_0" transform="translate(0, 0)"><foreignObject width="0" height="0"><div xmlns="http://www.w3.org/1999/xhtml" class="labelBkg" style="display: table-cell; white-space: nowrap; line-height: 1.5; max-width: 200px; text-align: center;"><span class="edgeLabel"></span></div></foreignObject></g></g><g class="edgeLabel"><g class="label" data-id="L_K_L_0" transform="translate(0, 0)"><foreignObject width="0" height="0"><div xmlns="http://www.w3.org/1999/xhtml" class="labelBkg" style="display: table-cell; white-space: nowrap; line-height: 1.5; max-width: 200px; text-align: center;"><span class="edgeLabel"></span></div></foreignObject></g></g><g class="edgeLabel"><g class="label" data-id="L_L_M_0" transform="translate(0, 0)"><foreignObject width="0" height="0"><div xmlns="http://www.w3.org/1999/xhtml" class="labelBkg" style="display: table-cell; white-space: nowrap; line-height: 1.5; max-width: 200px; text-align: center;"><span class="edgeLabel"></span></div></foreignObject></g></g><g class="edgeLabel"><g class="label" data-id="L_D_FIN_0" transform="translate(0, 0)"><foreignObject width="0" height="0"><div xmlns="http://www.w3.org/1999/xhtml" class="labelBkg" style="display: table-cell; white-space: nowrap; line-height: 1.5; max-width: 200px; text-align: center;"><span class="edgeLabel"></span></div></foreignObject></g></g><g class="edgeLabel"><g class="label" data-id="L_M_FIN_0" transform="translate(0, 0)"><foreignObject width="0" height="0"><div xmlns="http://www.w3.org/1999/xhtml" class="labelBkg" style="display: table-cell; white-space: nowrap; line-height: 1.5; max-width: 200px; text-align: center;"><span class="edgeLabel"></span></div></foreignObject></g></g></g><g class="nodes"><g class="node default" id="my-svg-flowchart-A-0" data-look="classic" transform="translate(418.27734375, 35)"><rect class="basic label-container" style="" x="-103.828125" y="-27" width="207.65625" height="54"/><g class="label" style="" transform="translate(-73.828125, -12)"><rect/><foreignObject width="147.65625" height="24"><div xmlns="http://www.w3.org/1999/xhtml" style="display: table-cell; white-space: nowrap; line-height: 1.5; max-width: 200px; text-align: center;"><span class="nodeLabel"><p>Pěšec na 8. / 1. řadu</p></span></div></foreignObject></g></g><g class="node default" id="my-svg-flowchart-B-1" data-look="classic" transform="translate(418.27734375, 163)"><rect class="basic label-container" style="" x="-132.6796875" y="-51" width="265.359375" height="102"/><g class="label" style="" transform="translate(-102.6796875, -36)"><rect/><foreignObject width="205.359375" height="72"><div xmlns="http://www.w3.org/1999/xhtml" style="display: table; white-space: break-spaces; line-height: 1.5; max-width: 200px; text-align: center; width: 200px;"><span class="nodeLabel"><p>game_execute_move detekuje MOVE_TYPE_PROMOTION</p></span></div></foreignObject></g></g><g class="node default" id="my-svg-flowchart-C-3" data-look="classic" transform="translate(418.27734375, 403)"><polygon points="139,0 278,-139 139,-278 0,-139" class="label-container" transform="translate(-138.5, 139)"/><g class="label" style="" transform="translate(-100, -24)"><rect/><foreignObject width="200" height="48"><div xmlns="http://www.w3.org/1999/xhtml" style="display: table; white-space: break-spaces; line-height: 1.5; max-width: 200px; text-align: center; width: 200px;"><span class="nodeLabel"><p>Okamžitá volba z API UART před exekucí?</p></span></div></foreignObject></g></g><g class="node default" id="my-svg-flowchart-D-5" data-look="classic" transform="translate(138, 1595.921875)"><rect class="basic label-container" style="" x="-130" y="-51" width="260" height="102"/><g class="label" style="" transform="translate(-100, -36)"><rect/><foreignObject width="200" height="72"><div xmlns="http://www.w3.org/1999/xhtml" style="display: table; white-space: break-spaces; line-height: 1.5; max-width: 200px; text-align: center; width: 200px;"><span class="nodeLabel"><p>Inline promotion_piece v extended_move · dokončí se v jednom průchodu</p></span></div></foreignObject></g></g><g class="node default" id="my-svg-flowchart-E-7" data-look="classic" transform="translate(510.15234375, 667)"><rect class="basic label-container" style="" x="-130" y="-51" width="260" height="102"/><g class="label" style="" transform="translate(-100, -36)"><rect/><foreignObject width="200" height="72"><div xmlns="http://www.w3.org/1999/xhtml" style="display: table; white-space: break-spaces; line-height: 1.5; max-width: 200px; text-align: center; width: 200px;"><span class="nodeLabel"><p>promotion_mutex: promotion_state.pending = true · řádek/sloupec · hráč</p></span></div></foreignObject></g></g><g class="node default" id="my-svg-flowchart-F-9" data-look="classic" transform="translate(321.75, 819)"><rect class="basic label-container" style="" x="-148.75" y="-51" width="297.5" height="102"/><g class="label" style="" transform="translate(-118.75, -36)"><rect/><foreignObject width="237.5" height="72"><div xmlns="http://www.w3.org/1999/xhtml" style="display: table; white-space: break-spaces; line-height: 1.5; max-width: 200px; text-align: center; width: 200px;"><span class="nodeLabel"><p>LED animace PROMOTE · game_check_promotion_needed — zelená promo tlačítka</p></span></div></foreignObject></g></g><g class="node default" id="my-svg-flowchart-G-11" data-look="classic" transform="translate(674.52734375, 819)"><rect class="basic label-container" style="" x="-130" y="-39" width="260" height="78"/><g class="label" style="" transform="translate(-100, -24)"><rect/><foreignObject width="200" height="48"><div xmlns="http://www.w3.org/1999/xhtml" style="display: table; white-space: break-spaces; line-height: 1.5; max-width: 200px; text-align: center; width: 200px;"><span class="nodeLabel"><p>Hráč zůstává na tahu do výběru</p></span></div></foreignObject></g></g><g class="node default" id="my-svg-flowchart-H-13" data-look="classic" transform="translate(674.52734375, 967.4609375)"><polygon points="47.4609375,0 94.921875,-47.4609375 47.4609375,-94.921875 0,-47.4609375" class="label-container" transform="translate(-46.9609375, 47.4609375)"/><g class="label" style="" transform="translate(-20.4609375, -12)"><rect/><foreignObject width="40.921875" height="24"><div xmlns="http://www.w3.org/1999/xhtml" style="display: table-cell; white-space: nowrap; line-height: 1.5; max-width: 200px; text-align: center;"><span class="nodeLabel"><p>Vstup</p></span></div></foreignObject></g></g><g class="node default" id="my-svg-flowchart-I-15" data-look="classic" transform="translate(492.78515625, 1139.921875)"><rect class="basic label-container" style="" x="-162.0703125" y="-39" width="324.140625" height="78"/><g class="label" style="" transform="translate(-132.0703125, -24)"><rect/><foreignObject width="264.140625" height="48"><div xmlns="http://www.w3.org/1999/xhtml" style="display: table; white-space: break-spaces; line-height: 1.5; max-width: 200px; text-align: center; width: 200px;"><span class="nodeLabel"><p>UART/web: game_process_promotion_command</p></span></div></foreignObject></g></g><g class="node default" id="my-svg-flowchart-J-17" data-look="classic" transform="translate(856.26953125, 1139.921875)"><rect class="basic label-container" style="" x="-151.4140625" y="-51" width="302.828125" height="102"/><g class="label" style="" transform="translate(-121.4140625, -36)"><rect/><foreignObject width="242.828125" height="72"><div xmlns="http://www.w3.org/1999/xhtml" style="display: table; white-space: break-spaces; line-height: 1.5; max-width: 200px; text-align: center; width: 200px;"><span class="nodeLabel"><p>Tlačítka: game_process_promotion_button přes frontu</p></span></div></foreignObject></g></g><g class="node default" id="my-svg-flowchart-K-19" data-look="classic" transform="translate(674.52734375, 1279.921875)"><rect class="basic label-container" style="" x="-154.96875" y="-39" width="309.9375" height="78"/><g class="label" style="" transform="translate(-124.96875, -24)"><rect/><foreignObject width="249.9375" height="48"><div xmlns="http://www.w3.org/1999/xhtml" style="display: table; white-space: break-spaces; line-height: 1.5; max-width: 200px; text-align: center; width: 200px;"><span class="nodeLabel"><p>game_execute_promotion — game_piece_for_promotion_choice</p></span></div></foreignObject></g></g><g class="node default" id="my-svg-flowchart-L-23" data-look="classic" transform="translate(674.52734375, 1431.921875)"><rect class="basic label-container" style="" x="-130" y="-63" width="260" height="126"/><g class="label" style="" transform="translate(-100, -48)"><rect/><foreignObject width="200" height="96"><div xmlns="http://www.w3.org/1999/xhtml" style="display: table; white-space: break-spaces; line-height: 1.5; max-width: 200px; text-align: center; width: 200px;"><span class="nodeLabel"><p>Zápis dámy/věže/střelce/jezdce · pending = false · GAME_STATE_ACTIVE</p></span></div></foreignObject></g></g><g class="node default" id="my-svg-flowchart-M-25" data-look="classic" transform="translate(674.52734375, 1595.921875)"><rect class="basic label-container" style="" x="-130" y="-51" width="260" height="102"/><g class="label" style="" transform="translate(-100, -36)"><rect/><foreignObject width="200" height="72"><div xmlns="http://www.w3.org/1999/xhtml" style="display: table; white-space: break-spaces; line-height: 1.5; max-width: 200px; text-align: center; width: 200px;"><span class="nodeLabel"><p>Přepnutí hráče · timery · vyčištění piece_lifted · kontrola konce hry</p></span></div></foreignObject></g></g><g class="node default" id="my-svg-flowchart-FIN-27" data-look="classic" transform="translate(418.27734375, 1716.421875)"><g class="basic label-container outer-path"><path d="M-32.015625 -19.5 C-18.955667540933185 -19.5, -5.895710081866369 -19.5, 32.015625 -19.5 C32.015625 -19.5, 32.015625 -19.5, 32.015625 -19.5 C32.421228445463974 -19.486993086963185, 32.82683189092794 -19.473986173926367, 33.2649942896239 -19.45993515863156 C33.55729181680287 -19.43173756772381, 33.84958934398185 -19.403539976816063, 34.509229652847864 -19.3399052695533 C34.786535326177116 -19.29507263882704, 35.06384099950637 -19.250240008100782, 35.74321825967676 -19.140403561325776 C36.146037238787855 -19.048462757983167, 36.54885621789895 -18.956521954640557, 36.96188938623539 -18.862249829261074 C37.30573040153777 -18.760199620777648, 37.64957141684015 -18.65814941229422, 38.160235251460605 -18.50658706670804 C38.53183557606524 -18.369834712217788, 38.903435900669876 -18.233082357727536, 39.3333315951478 -18.074876768247425 C39.63605803174538 -17.940868754826358, 39.93878446834295 -17.806860741405288, 40.47635791279238 -17.568892924097174 C40.89143342376563 -17.352348295890984, 41.306508934738886 -17.13580366768479, 41.58461726407678 -16.990714730406097 C41.99162390619525 -16.743984912117362, 42.39863054831372 -16.49725509382863, 42.6535555736057 -16.342718045390892 C42.862641396976024 -16.19686882618717, 43.07172722034635 -16.05101960698345, 43.67878034457871 -15.627565626425154 C43.915159092576616 -15.439059865199484, 44.15153784057452 -15.250554103973816, 44.656078708501866 -14.848196188198123 C44.91501663863038 -14.613035611177615, 45.17395456875888 -14.377875034157109, 45.58143473676799 -14.007812326905688 C45.88819495560996 -13.691057215468998, 46.194955174451934 -13.374302104032306, 46.45104594296865 -13.10986736009568 C46.618204263150034 -12.913513685632756, 46.78536258333142 -12.717160011169831, 47.26133890812658 -12.158051136245305 C47.55575387798269 -11.763561898393652, 47.850168847838795 -11.369072660541997, 48.008983964640635 -11.156274872382312 C48.165906899099646 -10.915199105345252, 48.32282983355866 -10.674123338308192, 48.69090887860425 -10.108655082055241 C48.91998920578659 -9.70189976424448, 49.14906953296894 -9.295144446433719, 49.304311474273504 -9.019496659696287 C49.50942656338726 -8.593570788391727, 49.71454165250102 -8.167644917087168, 49.84667114880834 -7.893275190886684 C50.020750925885395 -7.463294775902831, 50.19483070296245 -7.033314360918977, 50.315759229970325 -6.734618561215508 C50.43918496401337 -6.362879915497988, 50.56261069805642 -5.991141269780469, 50.70964813421488 -5.548287939305138 C50.818920116218415 -5.131586513149083, 50.92819209822195 -4.714885086993027, 51.02671928754556 -4.339158212148133 C51.10844059864104 -3.919536551478081, 51.19016190973651 -3.4999148908080286, 51.265669776581774 -3.1121979531509023 C51.312718007430654 -2.747301165411027, 51.35976623827953 -2.382404377671152, 51.42551770250937 -1.872449005199798 C51.44906013487525 -1.5057566179917483, 51.47260256724114 -1.1390642307836987, 51.50560621591342 -0.6250057626472757 C51.50560621591342 -0.31780975752542673, 51.50560621591342 -0.010613752403577759, 51.50560621591342 0.625005762647271 C51.48837636108427 0.8933746592997436, 51.471146506255124 1.161743555952216, 51.42551770250937 1.8724490051997846 C51.38571381417779 2.1811601029326697, 51.34590992584622 2.489871200665555, 51.265669776581774 3.1121979531508885 C51.19896585119475 3.4547085121336365, 51.132261925807725 3.7972190711163845, 51.02671928754556 4.339158212148129 C50.94120015720202 4.66527972037361, 50.85568102685848 4.99140122859909, 50.70964813421489 5.548287939305125 C50.59210944658968 5.902295739185572, 50.474570758964475 6.256303539066019, 50.315759229970325 6.734618561215495 C50.217948493205384 6.9762129720668415, 50.12013775644045 7.217807382918188, 49.84667114880834 7.893275190886679 C49.68206392655547 8.235085609925099, 49.5174567043026 8.576896028963517, 49.304311474273504 9.019496659696284 C49.10020298559202 9.381911949575919, 48.896094496910536 9.744327239455552, 48.69090887860425 10.108655082055236 C48.442418235543336 10.490403438877415, 48.19392759248242 10.872151795699596, 48.00898396464064 11.156274872382301 C47.74610173635563 11.508513109220544, 47.48321950807062 11.860751346058786, 47.26133890812658 12.158051136245302 C47.04899436273568 12.40748312200838, 46.83664981734478 12.656915107771455, 46.45104594296866 13.10986736009567 C46.131741839323986 13.439575062463247, 45.81243773567931 13.769282764830823, 45.58143473676799 14.007812326905684 C45.34115846003851 14.226024884069492, 45.10088218330902 14.444237441233302, 44.65607870850189 14.848196188198111 C44.34093858796492 15.099512048095534, 44.025798467427954 15.350827907992956, 43.67878034457871 15.627565626425152 C43.40021967117792 15.821877493492345, 43.12165899777713 16.016189360559537, 42.65355557360571 16.34271804539089 C42.35710472215062 16.52242829368154, 42.06065387069553 16.70213854197219, 41.58461726407678 16.990714730406093 C41.23836964772236 17.171351890076014, 40.89212203136793 17.35198904974594, 40.47635791279239 17.56889292409717 C40.12821015231998 17.723007610221924, 39.78006239184757 17.87712229634668, 39.333331595147804 18.07487676824742 C38.92668957389746 18.224524791025186, 38.52004755264712 18.37417281380295, 38.16023525146062 18.506587066708033 C37.77009927742858 18.622377375935226, 37.37996330339653 18.738167685162423, 36.96188938623541 18.86224982926107 C36.69032516011506 18.924232591750854, 36.4187609339947 18.986215354240635, 35.743218259676766 19.140403561325773 C35.36419289276325 19.201681443262732, 34.985167525849725 19.262959325199688, 34.50922965284788 19.3399052695533 C34.02557582476609 19.386562772669517, 33.5419219966843 19.433220275785736, 33.2649942896239 19.45993515863156 C32.81405332315478 19.47439595772288, 32.36311235668566 19.4888567568142, 32.01562500000001 19.5 C32.01562500000001 19.5, 32.015625 19.5, 32.015625 19.5 C17.321399963185467 19.5, 2.627174926370934 19.5, -32.01562499999999 19.5 C-32.41588388117421 19.487164476737394, -32.81614276234843 19.474328953474785, -33.26499428962389 19.45993515863156 C-33.624792669994015 19.425225841598117, -33.98459105036413 19.39051652456467, -34.50922965284787 19.3399052695533 C-34.771868847943026 19.29744380128769, -35.03450804303819 19.254982333022085, -35.74321825967676 19.140403561325773 C-36.07800763290818 19.06399007159053, -36.41279700613961 18.98757658185529, -36.961889386235384 18.862249829261074 C-37.27732728383775 18.768629517020006, -37.59276518144012 18.675009204778934, -38.16023525146059 18.506587066708043 C-38.55817442426452 18.36014177260681, -38.956113597068445 18.213696478505575, -39.3333315951478 18.074876768247425 C-39.599811358585114 17.95691408181505, -39.866291122022425 17.838951395382672, -40.47635791279238 17.568892924097174 C-40.85289808397496 17.372452157976713, -41.22943825515754 17.176011391856253, -41.58461726407678 16.990714730406097 C-41.839821846119236 16.836008213023366, -42.095026428161695 16.681301695640634, -42.653555573605686 16.3427180453909 C-42.86416699426054 16.195804635563526, -43.07477841491541 16.048891225736153, -43.67878034457871 15.627565626425156 C-43.87607224579286 15.470230585364856, -44.073364147007005 15.312895544304558, -44.656078708501866 14.848196188198125 C-44.858188443364696 14.664645474526251, -45.06029817822753 14.48109476085438, -45.581434736767974 14.007812326905697 C-45.90715871201268 13.671475580029833, -46.23288268725738 13.33513883315397, -46.451045942968655 13.109867360095677 C-46.65348912513819 12.872066078975946, -46.855932307307725 12.634264797856215, -47.261338908126575 12.158051136245307 C-47.49593329456881 11.843716030400984, -47.73052768101104 11.52938092455666, -48.008983964640635 11.156274872382316 C-48.279322744906914 10.740961909766394, -48.54966152517319 10.325648947150471, -48.69090887860425 10.108655082055249 C-48.87271983519302 9.785831318276184, -49.05453079178179 9.463007554497118, -49.304311474273504 9.019496659696289 C-49.417761784450775 8.783914663165422, -49.53121209462804 8.548332666634556, -49.84667114880834 7.893275190886686 C-50.00857030814963 7.4933811372063905, -50.170469467490925 7.093487083526096, -50.315759229970325 6.73461856121551 C-50.40273256183913 6.4726687429452365, -50.489705893707935 6.210718924674963, -50.70964813421488 5.5482879393051325 C-50.79160228388395 5.235761247463824, -50.87355643355302 4.923234555622515, -51.02671928754556 4.339158212148136 C-51.115424599926406 3.8836751809468995, -51.20412991230725 3.4281921497456636, -51.265669776581774 3.112197953150904 C-51.31766075570195 2.7089661858748877, -51.369651734822135 2.3057344185988713, -51.42551770250937 1.872449005199809 C-51.45308376769193 1.4430852890540764, -51.48064983287449 1.0137215729083437, -51.50560621591342 0.6250057626472781 C-51.50560621591342 0.2735681144300247, -51.50560621591342 -0.07786953378722872, -51.50560621591342 -0.6250057626472687 C-51.48822389133193 -0.8957494987638283, -51.47084156675044 -1.1664932348803878, -51.42551770250937 -1.8724490051997822 C-51.36869927858006 -2.3131214811286274, -51.311880854650745 -2.7537939570574728, -51.265669776581774 -3.112197953150895 C-51.215804647917025 -3.3682448498457203, -51.16593951925227 -3.6242917465405453, -51.02671928754556 -4.339158212148126 C-50.95115627349334 -4.627312733946712, -50.87559325944111 -4.915467255745297, -50.70964813421489 -5.548287939305123 C-50.59923967454665 -5.8808206286267275, -50.48883121487842 -6.213353317948333, -50.31575922997033 -6.734618561215485 C-50.1910323935747 -7.042696258542031, -50.066305557179064 -7.3507739558685765, -49.84667114880834 -7.893275190886676 C-49.67335635361801 -8.253167071441956, -49.500041558427675 -8.613058951997237, -49.304311474273504 -9.019496659696282 C-49.09169615694755 -9.397016685243992, -48.87908083962159 -9.774536710791704, -48.69090887860425 -10.108655082055243 C-48.52671292848204 -10.360904154229136, -48.36251697835983 -10.613153226403028, -48.00898396464064 -11.156274872382308 C-47.72375811341245 -11.53845152841849, -47.43853226218425 -11.92062818445467, -47.26133890812659 -12.158051136245302 C-47.008017481808444 -12.455616897996093, -46.7546960554903 -12.753182659746882, -46.45104594296866 -13.10986736009567 C-46.26637217025665 -13.300558192419533, -46.08169839754465 -13.491249024743395, -45.581434736767996 -14.007812326905677 C-45.349036219184654 -14.218870511647042, -45.11663770160131 -14.429928696388409, -44.65607870850189 -14.848196188198107 C-44.43168021940654 -15.027148011757067, -44.20728173031119 -15.206099835316026, -43.67878034457872 -15.627565626425149 C-43.44986579047612 -15.787246509815793, -43.220951236373516 -15.946927393206435, -42.653555573605715 -16.342718045390885 C-42.42437325557318 -16.481649713407005, -42.19519093754064 -16.620581381423126, -41.58461726407679 -16.99071473040609 C-41.16277651996977 -17.210788776404833, -40.740935775862745 -17.430862822403572, -40.47635791279239 -17.56889292409717 C-40.15866348594258 -17.709526822793244, -39.840969059092785 -17.850160721489317, -39.333331595147804 -18.07487676824742 C-39.09278500816555 -18.163400135845166, -38.852238421183294 -18.25192350344291, -38.16023525146062 -18.506587066708033 C-37.753958628318216 -18.627167835867183, -37.34768200517582 -18.747748605026334, -36.96188938623541 -18.862249829261067 C-36.47643167221383 -18.973052384578853, -35.99097395819224 -19.08385493989664, -35.743218259676766 -19.140403561325773 C-35.40640887471814 -19.194856290690094, -35.06959948975952 -19.24930902005441, -34.50922965284788 -19.3399052695533 C-34.02871907948205 -19.386259546667386, -33.548208506116225 -19.432613823781473, -33.2649942896239 -19.45993515863156 C-32.95469773015179 -19.469885765338216, -32.64440117067969 -19.479836372044872, -32.01562500000001 -19.5 C-32.01562500000001 -19.5, -32.015625 -19.5, -32.015625 -19.5" stroke="none" stroke-width="0" fill="#1f2020" style=""/><path d="M-32.015625 -19.5 C-14.264749168036808 -19.5, 3.4861266639263846 -19.5, 32.015625 -19.5 M-32.015625 -19.5 C-10.121218898309284 -19.5, 11.773187203381433 -19.5, 32.015625 -19.5 M32.015625 -19.5 C32.015625 -19.5, 32.015625 -19.5, 32.015625 -19.5 M32.015625 -19.5 C32.015625 -19.5, 32.015625 -19.5, 32.015625 -19.5 M32.015625 -19.5 C32.37835926069331 -19.488367818278974, 32.741093521386624 -19.476735636557944, 33.2649942896239 -19.45993515863156 M32.015625 -19.5 C32.37092217067196 -19.488606311280538, 32.72621934134392 -19.47721262256108, 33.2649942896239 -19.45993515863156 M33.2649942896239 -19.45993515863156 C33.57527162744589 -19.430003077014966, 33.88554896526789 -19.400070995398373, 34.509229652847864 -19.3399052695533 M33.2649942896239 -19.45993515863156 C33.53486478311944 -19.4339010766908, 33.80473527661498 -19.407866994750037, 34.509229652847864 -19.3399052695533 M34.509229652847864 -19.3399052695533 C34.81178873672371 -19.290989863252992, 35.11434782059956 -19.242074456952682, 35.74321825967676 -19.140403561325776 M34.509229652847864 -19.3399052695533 C34.957027351845156 -19.267508810302438, 35.40482505084245 -19.195112351051577, 35.74321825967676 -19.140403561325776 M35.74321825967676 -19.140403561325776 C36.1466145288994 -19.048330995282377, 36.55001079812204 -18.956258429238975, 36.96188938623539 -18.862249829261074 M35.74321825967676 -19.140403561325776 C36.01289776263108 -19.078850974599675, 36.282577265585395 -19.01729838787357, 36.96188938623539 -18.862249829261074 M36.96188938623539 -18.862249829261074 C37.3464826493031 -18.748104567553813, 37.7310759123708 -18.633959305846552, 38.160235251460605 -18.50658706670804 M36.96188938623539 -18.862249829261074 C37.37824814031423 -18.738676736562176, 37.794606894393056 -18.61510364386328, 38.160235251460605 -18.50658706670804 M38.160235251460605 -18.50658706670804 C38.45217549042448 -18.39915036010335, 38.74411572938836 -18.291713653498654, 39.3333315951478 -18.074876768247425 M38.160235251460605 -18.50658706670804 C38.60374592792962 -18.343371037999688, 39.04725660439865 -18.180155009291337, 39.3333315951478 -18.074876768247425 M39.3333315951478 -18.074876768247425 C39.5725659836888 -17.968974801076318, 39.8118003722298 -17.863072833905207, 40.47635791279238 -17.568892924097174 M39.3333315951478 -18.074876768247425 C39.59373534910987 -17.95960375097132, 39.85413910307195 -17.844330733695212, 40.47635791279238 -17.568892924097174 M40.47635791279238 -17.568892924097174 C40.840719420490615 -17.37880575891569, 41.20508092818885 -17.188718593734205, 41.58461726407678 -16.990714730406097 M40.47635791279238 -17.568892924097174 C40.75481175594293 -17.423623732483733, 41.033265599093475 -17.27835454087029, 41.58461726407678 -16.990714730406097 M41.58461726407678 -16.990714730406097 C41.97825424389347 -16.75208967997356, 42.37189122371015 -16.513464629541023, 42.6535555736057 -16.342718045390892 M41.58461726407678 -16.990714730406097 C41.84326113401862 -16.833923296487264, 42.101905003960454 -16.67713186256843, 42.6535555736057 -16.342718045390892 M42.6535555736057 -16.342718045390892 C42.92275930341393 -16.15493317711831, 43.191963033222166 -15.967148308845726, 43.67878034457871 -15.627565626425154 M42.6535555736057 -16.342718045390892 C42.93228557308267 -16.148288063782964, 43.21101557255964 -15.953858082175039, 43.67878034457871 -15.627565626425154 M43.67878034457871 -15.627565626425154 C43.8980818187354 -15.452678536642512, 44.117383292892086 -15.277791446859872, 44.656078708501866 -14.848196188198123 M43.67878034457871 -15.627565626425154 C44.032537648235376 -15.34545359063617, 44.38629495189204 -15.063341554847186, 44.656078708501866 -14.848196188198123 M44.656078708501866 -14.848196188198123 C44.983609548773494 -14.550741345054584, 45.31114038904512 -14.253286501911045, 45.58143473676799 -14.007812326905688 M44.656078708501866 -14.848196188198123 C44.97973911037938 -14.554256374797935, 45.30339951225689 -14.260316561397746, 45.58143473676799 -14.007812326905688 M45.58143473676799 -14.007812326905688 C45.863662381053054 -13.716389112860835, 46.14589002533812 -13.42496589881598, 46.45104594296865 -13.10986736009568 M45.58143473676799 -14.007812326905688 C45.924489489847616 -13.653580129031939, 46.267544242927244 -13.29934793115819, 46.45104594296865 -13.10986736009568 M46.45104594296865 -13.10986736009568 C46.70626452226514 -12.81007309450546, 46.96148310156163 -12.510278828915242, 47.26133890812658 -12.158051136245305 M46.45104594296865 -13.10986736009568 C46.64692416188451 -12.879777658370703, 46.84280238080038 -12.649687956645725, 47.26133890812658 -12.158051136245305 M47.26133890812658 -12.158051136245305 C47.41249286410948 -11.955518605636893, 47.56364682009238 -11.752986075028481, 48.008983964640635 -11.156274872382312 M47.26133890812658 -12.158051136245305 C47.477507341064126 -11.868405129458369, 47.69367577400166 -11.578759122671434, 48.008983964640635 -11.156274872382312 M48.008983964640635 -11.156274872382312 C48.16443327876224 -10.917462981905976, 48.31988259288384 -10.678651091429638, 48.69090887860425 -10.108655082055241 M48.008983964640635 -11.156274872382312 C48.2525994628829 -10.782016047161266, 48.49621496112516 -10.40775722194022, 48.69090887860425 -10.108655082055241 M48.69090887860425 -10.108655082055241 C48.932338371964995 -9.67997256920605, 49.17376786532574 -9.25129005635686, 49.304311474273504 -9.019496659696287 M48.69090887860425 -10.108655082055241 C48.84040398706425 -9.843211378963263, 48.98989909552426 -9.577767675871284, 49.304311474273504 -9.019496659696287 M49.304311474273504 -9.019496659696287 C49.50726119631356 -8.5980672194517, 49.71021091835362 -8.17663777920711, 49.84667114880834 -7.893275190886684 M49.304311474273504 -9.019496659696287 C49.4490357102456 -8.71897368709764, 49.5937599462177 -8.418450714498993, 49.84667114880834 -7.893275190886684 M49.84667114880834 -7.893275190886684 C49.99564490457228 -7.525307133938124, 50.14461866033622 -7.1573390769895635, 50.315759229970325 -6.734618561215508 M49.84667114880834 -7.893275190886684 C49.99230418757059 -7.533558769520673, 50.13793722633284 -7.173842348154662, 50.315759229970325 -6.734618561215508 M50.315759229970325 -6.734618561215508 C50.43809855509714 -6.3661520060579155, 50.56043788022396 -5.997685450900324, 50.70964813421488 -5.548287939305138 M50.315759229970325 -6.734618561215508 C50.417176350811765 -6.429166351864919, 50.5185934716532 -6.12371414251433, 50.70964813421488 -5.548287939305138 M50.70964813421488 -5.548287939305138 C50.823113671320954 -5.115594670044822, 50.93657920842703 -4.682901400784505, 51.02671928754556 -4.339158212148133 M50.70964813421488 -5.548287939305138 C50.78082116857905 -5.276874312686339, 50.85199420294322 -5.005460686067541, 51.02671928754556 -4.339158212148133 M51.02671928754556 -4.339158212148133 C51.10579330981413 -3.933129820099537, 51.1848673320827 -3.52710142805094, 51.265669776581774 -3.1121979531509023 M51.02671928754556 -4.339158212148133 C51.11781582391085 -3.871396751172131, 51.208912360276145 -3.4036352901961293, 51.265669776581774 -3.1121979531509023 M51.265669776581774 -3.1121979531509023 C51.30045585663788 -2.84240398552419, 51.335241936694 -2.5726100178974773, 51.42551770250937 -1.872449005199798 M51.265669776581774 -3.1121979531509023 C51.319002988238736 -2.698556095373397, 51.3723361998957 -2.284914237595892, 51.42551770250937 -1.872449005199798 M51.42551770250937 -1.872449005199798 C51.456537725709445 -1.389287104946491, 51.48755774890953 -0.9061252046931839, 51.50560621591342 -0.6250057626472757 M51.42551770250937 -1.872449005199798 C51.45753784437774 -1.3737094494065811, 51.48955798624611 -0.8749698936133643, 51.50560621591342 -0.6250057626472757 M51.50560621591342 -0.6250057626472757 C51.50560621591342 -0.2474840118521035, 51.50560621591342 0.1300377389430687, 51.50560621591342 0.625005762647271 M51.50560621591342 -0.6250057626472757 C51.50560621591342 -0.27756655295409416, 51.50560621591342 0.06987265673908738, 51.50560621591342 0.625005762647271 M51.50560621591342 0.625005762647271 C51.48727547066662 0.910521916177374, 51.468944725419824 1.1960380697074768, 51.42551770250937 1.8724490051997846 M51.50560621591342 0.625005762647271 C51.480968785971676 1.0087536209653862, 51.456331356029935 1.3925014792835015, 51.42551770250937 1.8724490051997846 M51.42551770250937 1.8724490051997846 C51.37389715980171 2.272807740811238, 51.32227661709405 2.6731664764226917, 51.265669776581774 3.1121979531508885 M51.42551770250937 1.8724490051997846 C51.386862074406714 2.17225442334681, 51.348206446304054 2.472059841493836, 51.265669776581774 3.1121979531508885 M51.265669776581774 3.1121979531508885 C51.1735176790302 3.5853794977255204, 51.08136558147862 4.058561042300153, 51.02671928754556 4.339158212148129 M51.265669776581774 3.1121979531508885 C51.20834718668223 3.4065373371513727, 51.15102459678269 3.7008767211518565, 51.02671928754556 4.339158212148129 M51.02671928754556 4.339158212148129 C50.95193605160748 4.624339102039493, 50.87715281566941 4.909519991930859, 50.70964813421489 5.548287939305125 M51.02671928754556 4.339158212148129 C50.94771639461777 4.640430482952193, 50.868713501689975 4.941702753756257, 50.70964813421489 5.548287939305125 M50.70964813421489 5.548287939305125 C50.6296420979919 5.7892533731780125, 50.5496360617689 6.0302188070509, 50.315759229970325 6.734618561215495 M50.70964813421489 5.548287939305125 C50.608641218052114 5.852504677520806, 50.50763430188935 6.156721415736488, 50.315759229970325 6.734618561215495 M50.315759229970325 6.734618561215495 C50.19476587613938 7.033474484425295, 50.07377252230843 7.332330407635096, 49.84667114880834 7.893275190886679 M50.315759229970325 6.734618561215495 C50.20357449875506 7.011717016261429, 50.091389767539795 7.288815471307363, 49.84667114880834 7.893275190886679 M49.84667114880834 7.893275190886679 C49.67376049401695 8.252327865256326, 49.50084983922557 8.611380539625975, 49.304311474273504 9.019496659696284 M49.84667114880834 7.893275190886679 C49.63591917847495 8.330906166653744, 49.42516720814156 8.768537142420808, 49.304311474273504 9.019496659696284 M49.304311474273504 9.019496659696284 C49.164279767338996 9.268137135106425, 49.02424806040449 9.516777610516565, 48.69090887860425 10.108655082055236 M49.304311474273504 9.019496659696284 C49.16917795749069 9.259439902496556, 49.03404444070788 9.499383145296829, 48.69090887860425 10.108655082055236 M48.69090887860425 10.108655082055236 C48.48988511139929 10.417481570921806, 48.28886134419432 10.726308059788376, 48.00898396464064 11.156274872382301 M48.69090887860425 10.108655082055236 C48.53281201317982 10.35153432229977, 48.3747151477554 10.594413562544304, 48.00898396464064 11.156274872382301 M48.00898396464064 11.156274872382301 C47.85792668146817 11.358677870231816, 47.706869398295694 11.561080868081332, 47.26133890812658 12.158051136245302 M48.00898396464064 11.156274872382301 C47.740733073877855 11.515706627845548, 47.47248218311507 11.875138383308796, 47.26133890812658 12.158051136245302 M47.26133890812658 12.158051136245302 C46.9610274753606 12.510814033376837, 46.66071604259462 12.863576930508371, 46.45104594296866 13.10986736009567 M47.26133890812658 12.158051136245302 C47.01911816391517 12.442577405146828, 46.776897419703744 12.727103674048355, 46.45104594296866 13.10986736009567 M46.45104594296866 13.10986736009567 C46.11145475538113 13.460523142234809, 45.7718635677936 13.81117892437395, 45.58143473676799 14.007812326905684 M46.45104594296866 13.10986736009567 C46.247665588855256 13.319874273555369, 46.04428523474186 13.529881187015068, 45.58143473676799 14.007812326905684 M45.58143473676799 14.007812326905684 C45.39017107898886 14.181512920341621, 45.19890742120972 14.355213513777556, 44.65607870850189 14.848196188198111 M45.58143473676799 14.007812326905684 C45.25968681610718 14.300015275466349, 44.93793889544637 14.592218224027013, 44.65607870850189 14.848196188198111 M44.65607870850189 14.848196188198111 C44.414466567409185 15.04087544115044, 44.17285442631648 15.23355469410277, 43.67878034457871 15.627565626425152 M44.65607870850189 14.848196188198111 C44.321454281975136 15.11505026362323, 43.986829855448384 15.381904339048349, 43.67878034457871 15.627565626425152 M43.67878034457871 15.627565626425152 C43.27522552353513 15.909067999978518, 42.871670702491535 16.190570373531884, 42.65355557360571 16.34271804539089 M43.67878034457871 15.627565626425152 C43.29912311557464 15.89239807428184, 42.91946588657056 16.157230522138526, 42.65355557360571 16.34271804539089 M42.65355557360571 16.34271804539089 C42.272542600210905 16.573690348943583, 41.89152962681611 16.804662652496276, 41.58461726407678 16.990714730406093 M42.65355557360571 16.34271804539089 C42.40149286331492 16.49551994165407, 42.149430153024134 16.64832183791725, 41.58461726407678 16.990714730406093 M41.58461726407678 16.990714730406093 C41.34902542431838 17.113622842304277, 41.11343358455998 17.23653095420246, 40.47635791279239 17.56889292409717 M41.58461726407678 16.990714730406093 C41.18504411438342 17.1991717866623, 40.78547096469006 17.407628842918513, 40.47635791279239 17.56889292409717 M40.47635791279239 17.56889292409717 C40.172740154194116 17.70329549932782, 39.86912239559584 17.837698074558467, 39.333331595147804 18.07487676824742 M40.47635791279239 17.56889292409717 C40.113422788871574 17.729553537368986, 39.750487664950754 17.890214150640798, 39.333331595147804 18.07487676824742 M39.333331595147804 18.07487676824742 C38.95153833913231 18.21538021571929, 38.56974508311683 18.35588366319116, 38.16023525146062 18.506587066708033 M39.333331595147804 18.07487676824742 C38.969039285056716 18.20893970584214, 38.604746974965636 18.343002643436858, 38.16023525146062 18.506587066708033 M38.16023525146062 18.506587066708033 C37.768245113550115 18.62292768204165, 37.37625497563961 18.739268297375265, 36.96188938623541 18.86224982926107 M38.16023525146062 18.506587066708033 C37.86209088232764 18.59507475047497, 37.56394651319466 18.683562434241914, 36.96188938623541 18.86224982926107 M36.96188938623541 18.86224982926107 C36.61622071889147 18.941146446883465, 36.27055205154752 19.02004306450586, 35.743218259676766 19.140403561325773 M36.96188938623541 18.86224982926107 C36.603469633403776 18.94405679893742, 36.24504988057214 19.02586376861377, 35.743218259676766 19.140403561325773 M35.743218259676766 19.140403561325773 C35.315564009898715 19.20954338392165, 34.887909760120664 19.278683206517528, 34.50922965284788 19.3399052695533 M35.743218259676766 19.140403561325773 C35.44910475451981 19.187953551955253, 35.15499124936286 19.23550354258473, 34.50922965284788 19.3399052695533 M34.50922965284788 19.3399052695533 C34.124089624711054 19.377059264869008, 33.73894959657423 19.414213260184713, 33.2649942896239 19.45993515863156 M34.50922965284788 19.3399052695533 C34.03860445260268 19.38530591661134, 33.567979252357475 19.430706563669382, 33.2649942896239 19.45993515863156 M33.2649942896239 19.45993515863156 C32.98567269527089 19.468892458495958, 32.70635110091789 19.477849758360357, 32.01562500000001 19.5 M33.2649942896239 19.45993515863156 C32.80010782403682 19.474843162736324, 32.335221358449736 19.489751166841092, 32.01562500000001 19.5 M32.01562500000001 19.5 C32.01562500000001 19.5, 32.015625 19.5, 32.015625 19.5 M32.01562500000001 19.5 C32.01562500000001 19.5, 32.015625 19.5, 32.015625 19.5 M32.015625 19.5 C14.416313524832805 19.5, -3.1829979503343893 19.5, -32.01562499999999 19.5 M32.015625 19.5 C16.74647393580399 19.5, 1.4773228716079778 19.5, -32.01562499999999 19.5 M-32.01562499999999 19.5 C-32.389772840230464 19.4880018069984, -32.763920680460934 19.476003613996802, -33.26499428962389 19.45993515863156 M-32.01562499999999 19.5 C-32.30829610233509 19.490614607397855, -32.6009672046702 19.48122921479571, -33.26499428962389 19.45993515863156 M-33.26499428962389 19.45993515863156 C-33.62800473229009 19.424915977811484, -33.99101517495628 19.389896796991408, -34.50922965284787 19.3399052695533 M-33.26499428962389 19.45993515863156 C-33.62234064683516 19.42546238532326, -33.97968700404644 19.390989612014963, -34.50922965284787 19.3399052695533 M-34.50922965284787 19.3399052695533 C-34.768342101770905 19.298013978258474, -35.027454550693946 19.25612268696365, -35.74321825967676 19.140403561325773 M-34.50922965284787 19.3399052695533 C-34.91357852958529 19.274533278934765, -35.3179274063227 19.20916128831623, -35.74321825967676 19.140403561325773 M-35.74321825967676 19.140403561325773 C-36.06803696158749 19.06626581225477, -36.392855663498224 18.992128063183763, -36.961889386235384 18.862249829261074 M-35.74321825967676 19.140403561325773 C-36.213813446004295 19.032993280967098, -36.684408632331824 18.92558300060842, -36.961889386235384 18.862249829261074 M-36.961889386235384 18.862249829261074 C-37.233621783395975 18.78160108013627, -37.50535418055657 18.700952331011464, -38.16023525146059 18.506587066708043 M-36.961889386235384 18.862249829261074 C-37.21752384566808 18.78637886355411, -37.47315830510078 18.710507897847148, -38.16023525146059 18.506587066708043 M-38.16023525146059 18.506587066708043 C-38.5233831057009 18.372945299445643, -38.88653095994121 18.239303532183246, -39.3333315951478 18.074876768247425 M-38.16023525146059 18.506587066708043 C-38.619874401647294 18.337435610581608, -39.079513551834 18.168284154455176, -39.3333315951478 18.074876768247425 M-39.3333315951478 18.074876768247425 C-39.69839947809897 17.91327204581892, -40.063467361050144 17.751667323390414, -40.47635791279238 17.568892924097174 M-39.3333315951478 18.074876768247425 C-39.69468993985694 17.914914148359124, -40.05604828456608 17.754951528470826, -40.47635791279238 17.568892924097174 M-40.47635791279238 17.568892924097174 C-40.85784891056483 17.36986931491593, -41.239339908337286 17.17084570573469, -41.58461726407678 16.990714730406097 M-40.47635791279238 17.568892924097174 C-40.78766510502476 17.406484161311315, -41.098972297257134 17.24407539852546, -41.58461726407678 16.990714730406097 M-41.58461726407678 16.990714730406097 C-41.84614514535899 16.8321749918644, -42.1076730266412 16.673635253322697, -42.653555573605686 16.3427180453909 M-41.58461726407678 16.990714730406097 C-41.89767055211928 16.80093998748941, -42.21072384016177 16.611165244572724, -42.653555573605686 16.3427180453909 M-42.653555573605686 16.3427180453909 C-42.99499018155055 16.104548043354523, -43.33642478949541 15.866378041318146, -43.67878034457871 15.627565626425156 M-42.653555573605686 16.3427180453909 C-42.95538482960848 16.13217502238126, -43.25721408561127 15.92163199937162, -43.67878034457871 15.627565626425156 M-43.67878034457871 15.627565626425156 C-44.02004395694889 15.355416976966056, -44.36130756931907 15.083268327506959, -44.656078708501866 14.848196188198125 M-43.67878034457871 15.627565626425156 C-44.01695397339811 15.357881156619888, -44.35512760221751 15.08819668681462, -44.656078708501866 14.848196188198125 M-44.656078708501866 14.848196188198125 C-44.95037161200649 14.580927159798762, -45.24466451551112 14.313658131399398, -45.581434736767974 14.007812326905697 M-44.656078708501866 14.848196188198125 C-44.912355278492015 14.615452588039542, -45.168631848482164 14.382708987880958, -45.581434736767974 14.007812326905697 M-45.581434736767974 14.007812326905697 C-45.87103756318297 13.708773631797971, -46.16064038959798 13.409734936690246, -46.451045942968655 13.109867360095677 M-45.581434736767974 14.007812326905697 C-45.90717297576192 13.671460851537667, -46.23291121475586 13.335109376169637, -46.451045942968655 13.109867360095677 M-46.451045942968655 13.109867360095677 C-46.67504091174068 12.846750124101263, -46.899035880512706 12.58363288810685, -47.261338908126575 12.158051136245307 M-46.451045942968655 13.109867360095677 C-46.74977261249235 12.758966016044111, -47.04849928201605 12.408064671992545, -47.261338908126575 12.158051136245307 M-47.261338908126575 12.158051136245307 C-47.43121226999275 11.930436307126268, -47.60108563185892 11.70282147800723, -48.008983964640635 11.156274872382316 M-47.261338908126575 12.158051136245307 C-47.52946430277182 11.798787534146635, -47.79758969741707 11.439523932047965, -48.008983964640635 11.156274872382316 M-48.008983964640635 11.156274872382316 C-48.21385394425368 10.841539568404286, -48.41872392386673 10.526804264426255, -48.69090887860425 10.108655082055249 M-48.008983964640635 11.156274872382316 C-48.2755442651636 10.746766669315999, -48.54210456568657 10.337258466249683, -48.69090887860425 10.108655082055249 M-48.69090887860425 10.108655082055249 C-48.920753716795915 9.70054229753229, -49.15059855498759 9.292429513009335, -49.304311474273504 9.019496659696289 M-48.69090887860425 10.108655082055249 C-48.84269078944483 9.8391509297727, -48.994472700285414 9.569646777490151, -49.304311474273504 9.019496659696289 M-49.304311474273504 9.019496659696289 C-49.50123714880873 8.610576282989461, -49.69816282334394 8.201655906282634, -49.84667114880834 7.893275190886686 M-49.304311474273504 9.019496659696289 C-49.462449162375385 8.691120366748248, -49.62058685047727 8.362744073800204, -49.84667114880834 7.893275190886686 M-49.84667114880834 7.893275190886686 C-49.95519429897174 7.6252209118307155, -50.06371744913514 7.357166632774744, -50.315759229970325 6.73461856121551 M-49.84667114880834 7.893275190886686 C-49.986330317469545 7.548314344167173, -50.12598948613075 7.203353497447661, -50.315759229970325 6.73461856121551 M-50.315759229970325 6.73461856121551 C-50.45200507817859 6.324267774240156, -50.58825092638685 5.913916987264803, -50.70964813421488 5.5482879393051325 M-50.315759229970325 6.73461856121551 C-50.43949427320792 6.361948325485727, -50.563229316445515 5.9892780897559454, -50.70964813421488 5.5482879393051325 M-50.70964813421488 5.5482879393051325 C-50.794717758245504 5.2238805934680865, -50.87978738227613 4.899473247631041, -51.02671928754556 4.339158212148136 M-50.70964813421488 5.5482879393051325 C-50.787442177326454 5.251625536769133, -50.865236220438035 4.954963134233132, -51.02671928754556 4.339158212148136 M-51.02671928754556 4.339158212148136 C-51.077151249888004 4.0802007443187005, -51.12758321223045 3.8212432764892657, -51.265669776581774 3.112197953150904 M-51.02671928754556 4.339158212148136 C-51.12196780166721 3.8500772229140545, -51.21721631578885 3.3609962336799732, -51.265669776581774 3.112197953150904 M-51.265669776581774 3.112197953150904 C-51.32486304788762 2.6531066299363415, -51.38405631919346 2.1940153067217785, -51.42551770250937 1.872449005199809 M-51.265669776581774 3.112197953150904 C-51.32470686248354 2.6543179730880895, -51.3837439483853 2.196437993025275, -51.42551770250937 1.872449005199809 M-51.42551770250937 1.872449005199809 C-51.45348829853071 1.4367843947086416, -51.481458894552055 1.0011197842174742, -51.50560621591342 0.6250057626472781 M-51.42551770250937 1.872449005199809 C-51.45052632461941 1.482919529239478, -51.475534946729454 1.093390053279147, -51.50560621591342 0.6250057626472781 M-51.50560621591342 0.6250057626472781 C-51.50560621591342 0.24426225297312998, -51.50560621591342 -0.13648125670101818, -51.50560621591342 -0.6250057626472687 M-51.50560621591342 0.6250057626472781 C-51.50560621591342 0.32608865263636755, -51.50560621591342 0.027171542625456957, -51.50560621591342 -0.6250057626472687 M-51.50560621591342 -0.6250057626472687 C-51.4864929392593 -0.9227104744943742, -51.46737966260518 -1.2204151863414796, -51.42551770250937 -1.8724490051997822 M-51.50560621591342 -0.6250057626472687 C-51.48711970458387 -0.9129480986482962, -51.46863319325433 -1.2008904346493237, -51.42551770250937 -1.8724490051997822 M-51.42551770250937 -1.8724490051997822 C-51.38358137017067 -2.1976989175532218, -51.341645037831974 -2.522948829906661, -51.265669776581774 -3.112197953150895 M-51.42551770250937 -1.8724490051997822 C-51.37351595721901 -2.2757642727656555, -51.32151421192866 -2.6790795403315286, -51.265669776581774 -3.112197953150895 M-51.265669776581774 -3.112197953150895 C-51.18146358955311 -3.5445789265591494, -51.09725740252445 -3.976959899967403, -51.02671928754556 -4.339158212148126 M-51.265669776581774 -3.112197953150895 C-51.17785701995804 -3.563097899181103, -51.0900442633343 -4.0139978452113105, -51.02671928754556 -4.339158212148126 M-51.02671928754556 -4.339158212148126 C-50.94397564818689 -4.654695570342875, -50.861232008828225 -4.970232928537625, -50.70964813421489 -5.548287939305123 M-51.02671928754556 -4.339158212148126 C-50.918621409083244 -4.751382272641838, -50.81052353062092 -5.163606333135551, -50.70964813421489 -5.548287939305123 M-50.70964813421489 -5.548287939305123 C-50.55702309278705 -6.007970246587803, -50.40439805135921 -6.467652553870482, -50.31575922997033 -6.734618561215485 M-50.70964813421489 -5.548287939305123 C-50.57680344958447 -5.948394963485843, -50.44395876495405 -6.3485019876665625, -50.31575922997033 -6.734618561215485 M-50.31575922997033 -6.734618561215485 C-50.216316684738004 -6.98024357053015, -50.116874139505676 -7.225868579844816, -49.84667114880834 -7.893275190886676 M-50.31575922997033 -6.734618561215485 C-50.163712230953436 -7.110177588415959, -50.01166523193654 -7.485736615616432, -49.84667114880834 -7.893275190886676 M-49.84667114880834 -7.893275190886676 C-49.66897500036914 -8.262265045209174, -49.49127885192994 -8.631254899531672, -49.304311474273504 -9.019496659696282 M-49.84667114880834 -7.893275190886676 C-49.73467065551217 -8.12584661164284, -49.62267016221599 -8.358418032399006, -49.304311474273504 -9.019496659696282 M-49.304311474273504 -9.019496659696282 C-49.17079099863528 -9.256575784606198, -49.03727052299707 -9.493654909516117, -48.69090887860425 -10.108655082055243 M-49.304311474273504 -9.019496659696282 C-49.08215714157623 -9.413954172965813, -48.86000280887895 -9.808411686235344, -48.69090887860425 -10.108655082055243 M-48.69090887860425 -10.108655082055243 C-48.46898670935324 -10.44958712847125, -48.24706454010222 -10.790519174887258, -48.00898396464064 -11.156274872382308 M-48.69090887860425 -10.108655082055243 C-48.54136208256929 -10.338399119702448, -48.391815286534346 -10.56814315734965, -48.00898396464064 -11.156274872382308 M-48.00898396464064 -11.156274872382308 C-47.83009287783627 -11.395972631386893, -47.651201791031895 -11.63567039039148, -47.26133890812659 -12.158051136245302 M-48.00898396464064 -11.156274872382308 C-47.797103765111224 -11.44017503706846, -47.585223565581806 -11.724075201754612, -47.26133890812659 -12.158051136245302 M-47.26133890812659 -12.158051136245302 C-46.94752184214966 -12.526678518638713, -46.63370477617273 -12.895305901032126, -46.45104594296866 -13.10986736009567 M-47.26133890812659 -12.158051136245302 C-46.95797562140198 -12.51439891469205, -46.65461233467737 -12.8707466931388, -46.45104594296866 -13.10986736009567 M-46.45104594296866 -13.10986736009567 C-46.12651534228356 -13.444971849760872, -45.80198474159846 -13.780076339426074, -45.581434736767996 -14.007812326905677 M-46.45104594296866 -13.10986736009567 C-46.20781262174539 -13.361025734085757, -45.96457930052212 -13.612184108075846, -45.581434736767996 -14.007812326905677 M-45.581434736767996 -14.007812326905677 C-45.27391083927551 -14.287097393971903, -44.966386941783014 -14.56638246103813, -44.65607870850189 -14.848196188198107 M-45.581434736767996 -14.007812326905677 C-45.23924955028048 -14.31857585954973, -44.89706436379297 -14.629339392193785, -44.65607870850189 -14.848196188198107 M-44.65607870850189 -14.848196188198107 C-44.433587666187044 -15.025626873708905, -44.2110966238722 -15.203057559219701, -43.67878034457872 -15.627565626425149 M-44.65607870850189 -14.848196188198107 C-44.282790612959325 -15.145883510779894, -43.90950251741676 -15.443570833361681, -43.67878034457872 -15.627565626425149 M-43.67878034457872 -15.627565626425149 C-43.272518976484584 -15.910955970036444, -42.86625760839045 -16.19434631364774, -42.653555573605715 -16.342718045390885 M-43.67878034457872 -15.627565626425149 C-43.279327118573754 -15.90620690483476, -42.87987389256879 -16.18484818324437, -42.653555573605715 -16.342718045390885 M-42.653555573605715 -16.342718045390885 C-42.240370784690235 -16.59319309257479, -41.82718599577475 -16.843668139758694, -41.58461726407679 -16.99071473040609 M-42.653555573605715 -16.342718045390885 C-42.34616362191437 -16.529060852941797, -42.038771670223035 -16.715403660492704, -41.58461726407679 -16.99071473040609 M-41.58461726407679 -16.99071473040609 C-41.35188763910559 -17.112129626683124, -41.1191580141344 -17.23354452296016, -40.47635791279239 -17.56889292409717 M-41.58461726407679 -16.99071473040609 C-41.21046670547617 -17.185908837173162, -40.836316146875554 -17.381102943940235, -40.47635791279239 -17.56889292409717 M-40.47635791279239 -17.56889292409717 C-40.17827024970587 -17.70084749008922, -39.880182586619355 -17.832802056081267, -39.333331595147804 -18.07487676824742 M-40.47635791279239 -17.56889292409717 C-40.132810795366964 -17.720971042018252, -39.78926367794154 -17.873049159939335, -39.333331595147804 -18.07487676824742 M-39.333331595147804 -18.07487676824742 C-38.86447027194445 -18.247422069292817, -38.3956089487411 -18.41996737033821, -38.16023525146062 -18.506587066708033 M-39.333331595147804 -18.07487676824742 C-38.89336426633043 -18.23678881226562, -38.453396937513055 -18.398700856283817, -38.16023525146062 -18.506587066708033 M-38.16023525146062 -18.506587066708033 C-37.688465913153074 -18.646605729949922, -37.21669657484553 -18.78662439319181, -36.96188938623541 -18.862249829261067 M-38.16023525146062 -18.506587066708033 C-37.775466508990434 -18.62078440978084, -37.390697766520255 -18.734981752853646, -36.96188938623541 -18.862249829261067 M-36.96188938623541 -18.862249829261067 C-36.61720944090098 -18.940920777536807, -36.27252949556654 -19.019591725812546, -35.743218259676766 -19.140403561325773 M-36.96188938623541 -18.862249829261067 C-36.666797728564006 -18.929602574471538, -36.37170607089261 -18.99695531968201, -35.743218259676766 -19.140403561325773 M-35.743218259676766 -19.140403561325773 C-35.26467558511396 -19.21777062979522, -34.78613291055117 -19.295137698264668, -34.50922965284788 -19.3399052695533 M-35.743218259676766 -19.140403561325773 C-35.41336010029501 -19.193732470446385, -35.08350194091326 -19.247061379566997, -34.50922965284788 -19.3399052695533 M-34.50922965284788 -19.3399052695533 C-34.252492342947775 -19.364672409067573, -33.99575503304767 -19.389439548581844, -33.2649942896239 -19.45993515863156 M-34.50922965284788 -19.3399052695533 C-34.04310197185974 -19.38487204633767, -33.57697429087161 -19.42983882312204, -33.2649942896239 -19.45993515863156 M-33.2649942896239 -19.45993515863156 C-32.791565604866996 -19.47511709507868, -32.318136920110085 -19.4902990315258, -32.01562500000001 -19.5 M-33.2649942896239 -19.45993515863156 C-32.912395221112675 -19.471242324466264, -32.55979615260144 -19.482549490300965, -32.01562500000001 -19.5 M-32.01562500000001 -19.5 C-32.01562500000001 -19.5, -32.01562500000001 -19.5, -32.015625 -19.5 M-32.01562500000001 -19.5 C-32.01562500000001 -19.5, -32.01562500000001 -19.5, -32.015625 -19.5" stroke="#ccc" stroke-width="1.3" fill="none" stroke-dasharray="0 0" style=""/></g><g class="label" style="" transform="translate(-39.140625, -12)"><rect/><foreignObject width="78.28125" height="24"><div xmlns="http://www.w3.org/1999/xhtml" style="display: table-cell; white-space: nowrap; line-height: 1.5; max-width: 200px; text-align: center;"><span class="nodeLabel"><p>konec tahu</p></span></div></foreignObject></g></g></g></g></g><defs><filter id="my-svg-drop-shadow" height="130%" width="130%"><feDropShadow dx="4" dy="4" stdDeviation="0" flood-opacity="0.06" flood-color="#FFFFFF"/></filter></defs><defs><filter id="my-svg-drop-shadow-small" height="150%" width="150%"><feDropShadow dx="2" dy="2" stdDeviation="0" flood-opacity="0.06" flood-color="#FFFFFF"/></filter></defs><linearGradient id="my-svg-gradient" gradientUnits="objectBoundingBox" x1="0%" y1="0%" x2="100%" y2="0%"><stop offset="0%" stop-color="#cccccc" stop-opacity="1"/><stop offset="100%" stop-color="hsl(180, 0%, 18.3529411765%)" stop-opacity="1"/></linearGradient></svg>