<svg id="my-svg" width="100%" xmlns="http://www.w3.org/2000/svg" xmlns:xlink="http://www.w3.org/1999/xlink" class="flowchart" style="max-width: 1728.09px; background-color: transparent;" viewBox="0 0 1728.0859375 2726.75" role="graphics-document document" aria-roledescription="flowchart-v2"><style>#my-svg{font-size:16px;fill:#ccc;}@keyframes edge-animation-frame{from{stroke-dashoffset:0;}}@keyframes dash{to{stroke-dashoffset:0;}}#my-svg .edge-animation-slow{stroke-dasharray:9,5!important;stroke-dashoffset:900;animation:dash 50s linear infinite;stroke-linecap:round;}#my-svg .edge-animation-fast{stroke-dasharray:9,5!important;stroke-dashoffset:900;animation:dash 20s linear infinite;stroke-linecap:round;}#my-svg .error-icon{fill:#a44141;}#my-svg .error-text{fill:#ddd;stroke:#ddd;}#my-svg .edge-thickness-normal{stroke-width:1px;}#my-svg .edge-thickness-thick{stroke-width:3.5px;}#my-svg .edge-pattern-solid{stroke-dasharray:0;}#my-svg .edge-thickness-invisible{stroke-width:0;fill:none;}#my-svg .edge-pattern-dashed{stroke-dasharray:3;}#my-svg .edge-pattern-dotted{stroke-dasharray:2;}#my-svg .marker{fill:#94a3b8;stroke:#94a3b8;}#my-svg .marker.cross{stroke:#94a3b8;}#my-svg svg{font-size:16px;}#my-svg p{margin:0;}#my-svg .label{color:#ccc;}#my-svg .cluster-label text{fill:#f8fafc;}#my-svg .cluster-label span{color:#f8fafc;}#my-svg .cluster-label span p{background-color:transparent;}#my-svg .label text,#my-svg span{fill:#ccc;color:#ccc;}#my-svg .node rect,#my-svg .node circle,#my-svg .node ellipse,#my-svg .node polygon,#my-svg .node path{fill:#1f2020;stroke:#ccc;stroke-width:1px;}#my-svg .rough-node .label text,#my-svg .node .label text,#my-svg .image-shape .label,#my-svg .icon-shape .label{text-anchor:middle;}#my-svg .node .katex path{fill:#000;stroke:#000;stroke-width:1px;}#my-svg .rough-node .label,#my-svg .node .label,#my-svg .image-shape .label,#my-svg .icon-shape .label{text-align:center;}#my-svg .node.clickable{cursor:pointer;}#my-svg .root .anchor path{fill:#94a3b8!important;stroke-width:0;stroke:#94a3b8;}#my-svg .arrowheadPath{fill:lightgrey;}#my-svg .edgePaths .path{stroke:#94a3b8;stroke-width:1px;}#my-svg .flowchart-link{stroke:#94a3b8;fill:none;}#my-svg .edgeLabel{background-color:#1e293b;text-align:center;}#my-svg .edgeLabel p{background-color:#1e293b;}#my-svg .edgeLabel rect{opacity:0.5;background-color:#1e293b;fill:#1e293b;}#my-svg .labelBkg{background-color:rgba(30, 41, 59, 0.5);}#my-svg .cluster rect{fill:#0f172a;stroke:#334155;stroke-width:1px;}#my-svg .cluster text{fill:#f8fafc;}#my-svg .cluster span{color:#f8fafc;}#my-svg .node .collapsed-indicator{fill:#334155;stroke:none;opacity:0.6;}#my-svg .node .collapsed-separator{stroke:#334155;stroke-width:0.75px;}#my-svg div.mermaidTooltip{position:absolute;text-align:center;max-width:200px;padding:2px;font-size:12px;background:hsl(20, 1.5873015873%, 12.3529411765%);border:1px solid rgba(255, 255, 255, 0.25);border-radius:2px;pointer-events:none;z-index:100;}#my-svg .flowchartTitleText{text-anchor:middle;font-size:18px;fill:#ccc;}#my-svg rect.text{fill:none;stroke-width:0;}#my-svg .icon-shape,#my-svg .image-shape{background-color:#1e293b;text-align:center;}#my-svg .icon-shape p,#my-svg .image-shape p{background-color:#1e293b;padding:2px;}#my-svg .icon-shape .label rect,#my-svg .image-shape .label rect{opacity:0.5;background-color:#1e293b;fill:#1e293b;}#my-svg .label-icon{display:inline-block;height:1em;overflow:visible;vertical-align:-0.125em;}#my-svg .node .label-icon path{fill:currentColor;stroke:revert;stroke-width:revert;}#my-svg .node .neo-node{stroke:#ccc;}#my-svg [data-look="neo"].node rect,#my-svg [data-look="neo"].cluster rect,#my-svg [data-look="neo"].node polygon{stroke:url(#my-svg-gradient);filter:drop-shadow( 1px 2px 2px rgba(185,185,185,1));}#my-svg [data-look="neo"].swimlane.cluster rect{filter:none;}#my-svg [data-look="neo"].node path{stroke:url(#my-svg-gradient);stroke-width:1px;}#my-svg [data-look="neo"].node .outer-path{filter:drop-shadow( 1px 2px 2px rgba(185,185,185,1));}#my-svg [data-look="neo"].node .neo-line path{stroke:#ccc;filter:none;}#my-svg [data-look="neo"].node circle{stroke:url(#my-svg-gradient);filter:drop-shadow( 1px 2px 2px rgba(185,185,185,1));}#my-svg [data-look="neo"].node circle .state-start{fill:#000000;}#my-svg [data-look="neo"].icon-shape .icon{fill:url(#my-svg-gradient);filter:drop-shadow( 1px 2px 2px rgba(185,185,185,1));}#my-svg [data-look="neo"].icon-shape .icon-neo path{stroke:url(#my-svg-gradient);filter:drop-shadow( 1px 2px 2px rgba(185,185,185,1));}#my-svg :root{--mermaid-font-family:"trebuchet ms",verdana,arial,sans-serif;}</style><g><marker id="my-svg_flowchart-v2-pointEnd" class="marker flowchart-v2" viewBox="0 0 10 10" refX="5" refY="5" markerUnits="userSpaceOnUse" markerWidth="8" markerHeight="8" orient="auto"><path d="M 0 0 L 10 5 L 0 10 z" class="arrowMarkerPath" style="stroke-width: 1; stroke-dasharray: 1, 0;"/></marker><marker id="my-svg_flowchart-v2-pointStart" class="marker flowchart-v2" viewBox="0 0 10 10" refX="4.5" refY="5" markerUnits="userSpaceOnUse" markerWidth="8" markerHeight="8" orient="auto"><path d="M 0 5 L 10 10 L 10 0 z" class="arrowMarkerPath" style="stroke-width: 1; stroke-dasharray: 1, 0;"/></marker><marker id="my-svg_flowchart-v2-pointEnd-margin" class="marker flowchart-v2" viewBox="0 0 11.5 14" refX="11.5" refY="7" markerUnits="userSpaceOnUse" markerWidth="10.5" markerHeight="14" orient="auto"><path d="M 0 0 L 11.5 7 L 0 14 z" class="arrowMarkerPath" style="stroke-width: 0; stroke-dasharray: 1, 0;"/></marker><marker id="my-svg_flowchart-v2-pointStart-margin" class="marker flowchart-v2" viewBox="0 0 11.5 14" refX="1" refY="7" markerUnits="userSpaceOnUse" markerWidth="11.5" markerHeight="14" orient="auto"><polygon points="0,7 11.5,14 11.5,0" class="arrowMarkerPath" style="stroke-width: 0; stroke-dasharray: 1, 0;"/></marker><marker id="my-svg_flowchart-v2-circleEnd" class="marker flowchart-v2" viewBox="0 0 10 10" refX="11" refY="5" markerUnits="userSpaceOnUse" markerWidth="11" markerHeight="11" orient="auto"><circle cx="5" cy="5" r="5" class="arrowMarkerPath" style="stroke-width: 1; stroke-dasharray: 1, 0;"/></marker><marker id="my-svg_flowchart-v2-circleStart" class="marker flowchart-v2" viewBox="0 0 10 10" refX="-1" refY="5" markerUnits="userSpaceOnUse" markerWidth="11" markerHeight="11" orient="auto"><circle cx="5" cy="5" r="5" class="arrowMarkerPath" style="stroke-width: 1; stroke-dasharray: 1, 0;"/></marker><marker id="my-svg_flowchart-v2-circleEnd-margin" class="marker flowchart-v2" viewBox="0 0 10 10" refY="5" refX="12.25" markerUnits="userSpaceOnUse" markerWidth="14" markerHeight="14" orient="auto"><circle cx="5" cy="5" r="5" class="arrowMarkerPath" style="stroke-width: 0; stroke-dasharray: 1, 0;"/></marker><marker id="my-svg_flowchart-v2-circleStart-margin" class="marker flowchart-v2" viewBox="0 0 10 10" refX="-2" refY="5" markerUnits="userSpaceOnUse" markerWidth="14" markerHeight="14" orient="auto"><circle cx="5" cy="5" r="5" class="arrowMarkerPath" style="stroke-width: 0; stroke-dasharray: 1, 0;"/></marker><marker id="my-svg_flowchart-v2-crossEnd" class="marker cross flowchart-v2" viewBox="0 0 11 11" refX="12" refY="5.2" markerUnits="userSpaceOnUse" markerWidth="11" markerHeight="11" orient="auto"><path d="M 1,1 l 9,9 M 10,1 l -9,9" class="arrowMarkerPath" style="stroke-width: 2; stroke-dasharray: 1, 0;"/></marker><marker id="my-svg_flowchart-v2-crossStart" class="marker cross flowchart-v2" viewBox="0 0 11 11" refX="-1" refY="5.2" markerUnits="userSpaceOnUse" markerWidth="11" markerHeight="11" orient="auto"><path d="M 1,1 l 9,9 M 10,1 l -9,9" class="arrowMarkerPath" style="stroke-width: 2; stroke-dasharray: 1, 0;"/></marker><marker id="my-svg_flowchart-v2-crossEnd-margin" class="marker cross flowchart-v2" viewBox="0 0 15 15" refX="17.7" refY="7.5" markerUnits="userSpaceOnUse" markerWidth="12" markerHeight="12" orient="auto"><path d="M 1,1 L 14,14 M 1,14 L 14,1" class="arrowMarkerPath" style="stroke-width: 2.5;"/></marker><marker id="my-svg_flowchart-v2-crossStart-margin" class="marker cross flowchart-v2" viewBox="0 0 15 15" refX="-3.5" refY="7.5" markerUnits="userSpaceOnUse" markerWidth="12" markerHeight="12" orient="auto"><path d="M 1,1 L 14,14 M 1,14 L 14,1" class="arrowMarkerPath" style="stroke-width: 2.5; stroke-dasharray: 1, 0;"/></marker><g class="root"><g class="clusters"/><g class="edgePaths"><path d="M336.246,47.5L336.163,51.583C336.079,55.667,335.913,63.833,335.829,71.417C335.746,79,335.746,86,335.746,89.5L335.746,93" id="my-svg-L_V_N_0" class="edge-thickness-normal edge-pattern-solid edge-thickness-normal edge-pattern-solid flowchart-link" style=";" data-edge="true" data-et="edge" data-id="L_V_N_0" data-points="W3sieCI6MzM2LjI0NjA5Mzc1LCJ5Ijo0Ny40OTk5OTk5OTk5OTk5OX0seyJ4IjozMzUuNzQ2MDkzNzUsInkiOjcyfSx7IngiOjMzNS43NDYwOTM3NSwieSI6OTd9XQ==" data-look="classic" marker-end="url(#my-svg_flowchart-v2-pointEnd)"/><path d="M296.8,205.429L282.611,218.087C268.422,230.744,240.043,256.06,225.853,283.112C211.664,310.164,211.664,338.953,211.664,353.348L211.664,367.742" id="my-svg-L_N_E1_0" class="edge-thickness-normal edge-pattern-solid edge-thickness-normal edge-pattern-solid flowchart-link" style=";" data-edge="true" data-et="edge" data-id="L_N_E1_0" data-points="W3sieCI6Mjk2LjgwMDI2MTk0MTg3NywieSI6MjA1LjQyOTE2ODE5MTg3N30seyJ4IjoyMTEuNjY0MDYyNSwieSI6MjgxLjM3NX0seyJ4IjoyMTEuNjY0MDYyNSwieSI6MzcxLjc0MjE4NzV9XQ==" data-look="classic" marker-end="url(#my-svg_flowchart-v2-pointEnd)"/><path d="M383.996,196.125L410.946,210.334C437.896,224.542,491.795,252.958,518.745,272.667C545.695,292.375,545.695,303.375,545.695,308.875L545.695,314.375" id="my-svg-L_N_BOUNDS_0" class="edge-thickness-normal edge-pattern-solid edge-thickness-normal edge-pattern-solid flowchart-link" style=";" data-edge="true" data-et="edge" data-id="L_N_BOUNDS_0" data-points="W3sieCI6MzgzLjk5NTgxNzM1MjkzODUsInkiOjE5Ni4xMjUyNzYzOTcwNjE1fSx7IngiOjU0NS42OTUzMTI1LCJ5IjoyODEuMzc1fSx7IngiOjU0NS42OTUzMTI1LCJ5IjozMTguMzc1fV0=" data-look="classic" marker-end="url(#my-svg_flowchart-v2-pointEnd)"/><path d="M545.695,479.109L545.695,485.276C545.695,491.443,545.695,503.776,545.695,523.745C545.695,543.714,545.695,571.318,545.695,585.12L545.695,598.922" id="my-svg-L_BOUNDS_E2_0" class="edge-thickness-normal edge-pattern-solid edge-thickness-normal edge-pattern-solid flowchart-link" style=";" data-edge="true" data-et="edge" data-id="L_BOUNDS_E2_0" data-points="W3sieCI6NTQ1LjY5NTMxMjUsInkiOjQ3OS4xMDkzNzV9LHsieCI6NTQ1LjY5NTMxMjUsInkiOjUxNi4xMDkzNzV9LHsieCI6NTQ1LjY5NTMxMjUsInkiOjYwMi45MjE4NzV9XQ==" data-look="classic" marker-end="url(#my-svg_flowchart-v2-pointEnd)"/><path d="M602.867,421.938L641.552,437.633C680.237,453.328,757.607,484.719,796.292,505.914C834.977,527.109,834.977,538.109,834.977,543.609L834.977,549.109" id="my-svg-L_BOUNDS_ACT_0" class="edge-thickness-normal edge-pattern-solid edge-thickness-normal edge-pattern-solid flowchart-link" style=";" data-edge="true" data-et="edge" data-id="L_BOUNDS_ACT_0" data-points="W3sieCI6NjAyLjg2Njg1OTk5NjY4NTksInkiOjQyMS45Mzc4Mjc1MDMzMTQwNX0seyJ4Ijo4MzQuOTc2NTYyNSwieSI6NTE2LjEwOTM3NX0seyJ4Ijo4MzQuOTc2NTYyNSwieSI6NTUzLjEwOTM3NX1d" data-look="classic" marker-end="url(#my-svg_flowchart-v2-pointEnd)"/><path d="M789.436,661.194L769.403,674.951C749.37,688.708,709.304,716.221,689.271,737.478C669.238,758.734,669.238,773.734,669.238,781.234L669.238,788.734" id="my-svg-L_ACT_E3_0" class="edge-thickness-normal edge-pattern-solid edge-thickness-normal edge-pattern-solid flowchart-link" style=";" data-edge="true" data-et="edge" data-id="L_ACT_E3_0" data-points="W3sieCI6Nzg5LjQzNjQ1ODIyNDE2NjgsInkiOjY2MS4xOTQyNzA3MjQxNjY4fSx7IngiOjY2OS4yMzgyODEyNSwieSI6NzQzLjczNDM3NX0seyJ4Ijo2NjkuMjM4MjgxMjUsInkiOjc5Mi43MzQzNzV9XQ==" data-look="classic" marker-end="url(#my-svg_flowchart-v2-pointEnd)"/><path d="M882.419,659.292L905.153,673.365C927.888,687.439,973.356,715.587,996.09,735.161C1018.824,754.734,1018.824,765.734,1018.824,771.234L1018.824,776.734" id="my-svg-L_ACT_SRC_0" class="edge-thickness-normal edge-pattern-solid edge-thickness-normal edge-pattern-solid flowchart-link" style=";" data-edge="true" data-et="edge" data-id="L_ACT_SRC_0" data-points="W3sieCI6ODgyLjQxOTI1MTA4MDIwMjMsInkiOjY1OS4yOTE2ODY0MTk3OTc3fSx7IngiOjEwMTguODI0MjE4NzUsInkiOjc0My43MzQzNzV9LHsieCI6MTAxOC44MjQyMTg3NSwieSI6NzgwLjczNDM3NX1d" data-look="classic" marker-end="url(#my-svg_flowchart-v2-pointEnd)"/><path d="M1018.824,858.734L1018.824,862.901C1018.824,867.068,1018.824,875.401,1018.824,883.068C1018.824,890.734,1018.824,897.734,1018.824,901.234L1018.824,904.734" id="my-svg-L_SRC_COLOR_0" class="edge-thickness-normal edge-pattern-solid edge-thickness-normal edge-pattern-solid flowchart-link" style=";" data-edge="true" data-et="edge" data-id="L_SRC_COLOR_0" data-points="W3sieCI6MTAxOC44MjQyMTg3NSwieSI6ODU4LjczNDM3NX0seyJ4IjoxMDE4LjgyNDIxODc1LCJ5Ijo4ODMuNzM0Mzc1fSx7IngiOjEwMTguODI0MjE4NzUsInkiOjkwOC43MzQzNzV9XQ==" data-look="classic" marker-end="url(#my-svg_flowchart-v2-pointEnd)"/><path d="M960.647,1094.01L946.125,1109.873C931.603,1125.736,902.559,1157.462,888.038,1188.461C873.516,1219.461,873.516,1249.734,873.516,1264.871L873.516,1280.008" id="my-svg-L_COLOR_E4_0" class="edge-thickness-normal edge-pattern-solid edge-thickness-normal edge-pattern-solid flowchart-link" style=";" data-edge="true" data-et="edge" data-id="L_COLOR_E4_0" data-points="W3sieCI6OTYwLjY0NzAxMzcyODUxMTYsInkiOjEwOTQuMDEwMjk0OTc4NTExNn0seyJ4Ijo4NzMuNTE1NjI1LCJ5IjoxMTg5LjE4NzV9LHsieCI6ODczLjUxNTYyNSwieSI6MTI4NC4wMDc4MTI1fV0=" data-look="classic" marker-end="url(#my-svg_flowchart-v2-pointEnd)"/><path d="M1077.001,1094.01L1091.523,1109.873C1106.045,1125.736,1135.089,1157.462,1149.611,1178.825C1164.133,1200.188,1164.133,1211.188,1164.133,1216.688L1164.133,1222.188" id="my-svg-L_COLOR_OWN_0" class="edge-thickness-normal edge-pattern-solid edge-thickness-normal edge-pattern-solid flowchart-link" style=";" data-edge="true" data-et="edge" data-id="L_COLOR_OWN_0" data-points="W3sieCI6MTA3Ny4wMDE0MjM3NzE0ODg0LCJ5IjoxMDk0LjAxMDI5NDk3ODUxMTZ9LHsieCI6MTE2NC4xMzI4MTI1LCJ5IjoxMTg5LjE4NzV9LHsieCI6MTE2NC4xMzI4MTI1LCJ5IjoxMjI2LjE4NzV9XQ==" data-look="classic" marker-end="url(#my-svg_flowchart-v2-pointEnd)"/><path d="M1112.438,1344.134L1089.37,1358.916C1066.301,1373.699,1020.164,1403.263,997.096,1442.212C974.027,1481.161,974.027,1529.495,974.027,1553.661L974.027,1577.828" id="my-svg-L_OWN_E5_0" class="edge-thickness-normal edge-pattern-solid edge-thickness-normal edge-pattern-solid flowchart-link" style=";" data-edge="true" data-et="edge" data-id="L_OWN_E5_0" data-points="W3sieCI6MTExMi40Mzg0NDcyNDgzODE0LCJ5IjoxMzQ0LjEzMzc1OTc0ODM4MTR9LHsieCI6OTc0LjAyNzM0Mzc1LCJ5IjoxNDMyLjgyODEyNX0seyJ4Ijo5NzQuMDI3MzQzNzUsInkiOjE1ODEuODI4MTI1fV0=" data-look="classic" marker-end="url(#my-svg_flowchart-v2-pointEnd)"/><path d="M1215.827,1344.134L1238.896,1358.916C1261.964,1373.699,1308.101,1403.263,1331.17,1423.546C1354.238,1443.828,1354.238,1454.828,1354.238,1460.328L1354.238,1465.828" id="my-svg-L_OWN_CAST_0" class="edge-thickness-normal edge-pattern-solid edge-thickness-normal edge-pattern-solid flowchart-link" style=";" data-edge="true" data-et="edge" data-id="L_OWN_CAST_0" data-points="W3sieCI6MTIxNS44MjcxNzc3NTE2MTg2LCJ5IjoxMzQ0LjEzMzc1OTc0ODM4MTR9LHsieCI6MTM1NC4yMzgyODEyNSwieSI6MTQzMi44MjgxMjV9LHsieCI6MTM1NC4yMzgyODEyNSwieSI6MTQ2OS44MjgxMjV9XQ==" data-look="classic" marker-end="url(#my-svg_flowchart-v2-pointEnd)"/><path d="M1233.792,1627.381L1063.437,1653.623C893.082,1679.864,552.373,1732.346,382.019,1769.254C211.664,1806.161,211.664,1827.495,211.664,1846.828C211.664,1866.161,211.664,1883.495,211.664,1908.48C211.664,1933.466,211.664,1966.104,211.664,1982.423L211.664,1998.742" id="my-svg-L_CAST_SKIP_0" class="edge-thickness-normal edge-pattern-solid edge-thickness-normal edge-pattern-solid flowchart-link" style=";" data-edge="true" data-et="edge" data-id="L_CAST_SKIP_0" data-points="W3sieCI6MTIzMy43OTE2NTQ3NzQzMTQ2LCJ5IjoxNjI3LjM4MTQ5ODUyNDMxNDZ9LHsieCI6MjExLjY2NDA2MjUsInkiOjE3ODQuODI4MTI1fSx7IngiOjIxMS42NjQwNjI1LCJ5IjoxODQ4LjgyODEyNX0seyJ4IjoyMTEuNjY0MDYyNSwieSI6MTkwMC44MjgxMjV9LHsieCI6MjExLjY2NDA2MjUsInkiOjIwMDIuNzQyMTg3NX1d" data-look="classic" marker-end="url(#my-svg_flowchart-v2-pointEnd)"/><path d="M1427.586,1674.481L1448.133,1692.872C1468.68,1711.263,1509.773,1748.046,1530.32,1771.937C1550.867,1795.828,1550.867,1806.828,1550.867,1812.328L1550.867,1817.828" id="my-svg-L_CAST_PIECE_0" class="edge-thickness-normal edge-pattern-solid edge-thickness-normal edge-pattern-solid flowchart-link" style=";" data-edge="true" data-et="edge" data-id="L_CAST_PIECE_0" data-points="W3sieCI6MTQyNy41ODU4MzI5NTcxNDgzLCJ5IjoxNjc0LjQ4MDU3MzI5Mjg1MTd9LHsieCI6MTU1MC44NjcxODc1LCJ5IjoxNzg0LjgyODEyNX0seyJ4IjoxNTUwLjg2NzE4NzUsInkiOjE4MjEuODI4MTI1fV0=" data-look="classic" marker-end="url(#my-svg_flowchart-v2-pointEnd)"/><path d="M1280.891,1674.481L1260.344,1692.872C1239.797,1711.263,1198.703,1748.046,1178.156,1771.937C1157.609,1795.828,1157.609,1806.828,1157.609,1812.328L1157.609,1817.828" id="my-svg-L_CAST_E_CAST_0" class="edge-thickness-normal edge-pattern-solid edge-thickness-normal edge-pattern-solid flowchart-link" style=";" data-edge="true" data-et="edge" data-id="L_CAST_E_CAST_0" data-points="W3sieCI6MTI4MC44OTA3Mjk1NDI4NTE3LCJ5IjoxNjc0LjQ4MDU3MzI5Mjg1MTd9LHsieCI6MTE1Ny42MDkzNzUsInkiOjE3ODQuODI4MTI1fSx7IngiOjExNTcuNjA5Mzc1LCJ5IjoxODIxLjgyODEyNX1d" data-look="classic" marker-end="url(#my-svg_flowchart-v2-pointEnd)"/><path d="M211.664,2080.742L211.664,2099.728C211.664,2118.714,211.664,2156.685,247.246,2199.415C282.829,2242.145,353.993,2289.634,389.576,2313.378L425.158,2337.123" id="my-svg-L_SKIP_CHECK_0" class="edge-thickness-normal edge-pattern-solid edge-thickness-normal edge-pattern-solid flowchart-link" style=";" data-edge="true" data-et="edge" data-id="L_SKIP_CHECK_0" data-points="W3sieCI6MjExLjY2NDA2MjUsInkiOjIwODAuNzQyMTg3NX0seyJ4IjoyMTEuNjY0MDYyNSwieSI6MjE5NC42NTYyNX0seyJ4Ijo0MjguNDg1MjMwNzU5NTExOSwieSI6MjMzOS4zNDI4OTQyNDA0ODh9XQ==" data-look="classic" marker-end="url(#my-svg_flowchart-v2-pointEnd)"/><path d="M1550.867,1875.828L1550.867,1879.995C1550.867,1884.161,1550.867,1892.495,1550.867,1900.161C1550.867,1907.828,1550.867,1914.828,1550.867,1918.328L1550.867,1921.828" id="my-svg-L_PIECE_PE_0" class="edge-thickness-normal edge-pattern-solid edge-thickness-normal edge-pattern-solid flowchart-link" style=";" data-edge="true" data-et="edge" data-id="L_PIECE_PE_0" data-points="W3sieCI6MTU1MC44NjcxODc1LCJ5IjoxODc1LjgyODEyNX0seyJ4IjoxNTUwLjg2NzE4NzUsInkiOjE5MDAuODI4MTI1fSx7IngiOjE1NTAuODY3MTg3NSwieSI6MTkyNS44MjgxMjV9XQ==" data-look="classic" marker-end="url(#my-svg_flowchart-v2-pointEnd)"/><path d="M1564.673,2143.85L1565.818,2152.318C1566.963,2160.785,1569.253,2177.721,1570.398,2217.113C1571.543,2256.505,1571.543,2318.354,1571.543,2349.279L1571.543,2380.203" id="my-svg-L_PE_EP_0" class="edge-thickness-normal edge-pattern-solid edge-thickness-normal edge-pattern-solid flowchart-link" style=";" data-edge="true" data-et="edge" data-id="L_PE_EP_0" data-points="W3sieCI6MTU2NC42NzMzNzQyNDYxNTc3LCJ5IjoyMTQzLjg1MDA2MzI1Mzg0MjZ9LHsieCI6MTU3MS41NDI5Njg3NSwieSI6MjE5NC42NTYyNX0seyJ4IjoxNTcxLjU0Mjk2ODc1LCJ5IjoyMzg0LjIwMzEyNX1d" data-look="classic" marker-end="url(#my-svg_flowchart-v2-pointEnd)"/><path d="M1491.878,2098.667L1475.3,2114.666C1458.722,2130.664,1425.566,2162.66,1290.812,2208.545C1156.058,2254.431,919.706,2314.205,801.53,2344.093L683.354,2373.98" id="my-svg-L_PE_CHECK_0" class="edge-thickness-normal edge-pattern-solid edge-thickness-normal edge-pattern-solid flowchart-link" style=";" data-edge="true" data-et="edge" data-id="L_PE_CHECK_0" data-points="W3sieCI6MTQ5MS44Nzg0MTYyNDc0NDQsInkiOjIwOTguNjY3NDc4NzQ3NDQ0fSx7IngiOjEzOTIuNDEwMTU2MjUsInkiOjIxOTQuNjU2MjV9LHsieCI6Njc5LjQ3NjM0NDQ1MzMyNDksInkiOjIzNzQuOTYwNzE5NDUzMzI1fV0=" data-look="classic" marker-end="url(#my-svg_flowchart-v2-pointEnd)"/><path d="M429.052,2483.63L393.526,2507.65C358.001,2531.67,286.95,2579.71,251.424,2609.23C215.898,2638.75,215.898,2649.75,215.898,2655.25L215.898,2660.75" id="my-svg-L_CHECK_E6_0" class="edge-thickness-normal edge-pattern-solid edge-thickness-normal edge-pattern-solid flowchart-link" style=";" data-edge="true" data-et="edge" data-id="L_CHECK_E6_0" data-points="W3sieCI6NDI5LjA1MjA1NTc0MjcyNywieSI6MjQ4My42MzAxODA3NDI3Mjd9LHsieCI6MjE1Ljg5ODQzNzUsInkiOjI2MjcuNzV9LHsieCI6MjE1Ljg5ODQzNzUsInkiOjI2NjQuNzV9XQ==" data-look="classic" marker-end="url(#my-svg_flowchart-v2-pointEnd)"/><path d="M536.172,2590.75L536.172,2596.917C536.172,2603.083,536.172,2615.417,536.172,2627.083C536.172,2638.75,536.172,2649.75,536.172,2655.25L536.172,2660.75" id="my-svg-L_CHECK_OK_0" class="edge-thickness-normal edge-pattern-solid edge-thickness-normal edge-pattern-solid flowchart-link" style=";" data-edge="true" data-et="edge" data-id="L_CHECK_OK_0" data-points="W3sieCI6NTM2LjE3MTg3NSwieSI6MjU5MC43NX0seyJ4Ijo1MzYuMTcxODc1LCJ5IjoyNjI3Ljc1fSx7IngiOjUzNi4xNzE4NzUsInkiOjI2NjQuNzV9XQ==" data-look="classic" marker-end="url(#my-svg_flowchart-v2-pointEnd)"/></g><g class="edgeLabels"><g class="edgeLabel"><g class="label" data-id="L_V_N_0" transform="translate(0, 0)"><foreignObject width="0" height="0"><div xmlns="http://www.w3.org/1999/xhtml" class="labelBkg" style="display: table-cell; white-space: nowrap; line-height: 1.5; max-width: 200px; text-align: center;"><span class="edgeLabel"></span></div></foreignObject></g></g><g class="edgeLabel" transform="translate(211.6640625, 281.375)"><g class="label" data-id="L_N_E1_0" transform="translate(-12.453125, -12)"><foreignObject width="24.90625" height="24"><div xmlns="http://www.w3.org/1999/xhtml" class="labelBkg" style="display: table-cell; white-space: nowrap; line-height: 1.5; max-width: 200px; text-align: center;"><span class="edgeLabel"><p>yes</p></span></div></foreignObject></g></g><g class="edgeLabel" transform="translate(545.6953125, 281.375)"><g class="label" data-id="L_N_BOUNDS_0" transform="translate(-8.8984375, -12)"><foreignObject width="17.796875" height="24"><div xmlns="http://www.w3.org/1999/xhtml" class="labelBkg" style="display: table-cell; white-space: nowrap; line-height: 1.5; max-width: 200px; text-align: center;"><span class="edgeLabel"><p>no</p></span></div></foreignObject></g></g><g class="edgeLabel" transform="translate(545.6953125, 516.109375)"><g class="label" data-id="L_BOUNDS_E2_0" transform="translate(-8.8984375, -12)"><foreignObject width="17.796875" height="24"><div xmlns="http://www.w3.org/1999/xhtml" class="labelBkg" style="display: table-cell; white-space: nowrap; line-height: 1.5; max-width: 200px; text-align: center;"><span class="edgeLabel"><p>no</p></span></div></foreignObject></g></g><g class="edgeLabel" transform="translate(834.9765625, 516.109375)"><g class="label" data-id="L_BOUNDS_ACT_0" transform="translate(-12.453125, -12)"><foreignObject width="24.90625" height="24"><div xmlns="http://www.w3.org/1999/xhtml" class="labelBkg" style="display: table-cell; white-space: nowrap; line-height: 1.5; max-width: 200px; text-align: center;"><span class="edgeLabel"><p>yes</p></span></div></foreignObject></g></g><g class="edgeLabel" transform="translate(669.23828125, 743.734375)"><g class="label" data-id="L_ACT_E3_0" transform="translate(-8.8984375, -12)"><foreignObject width="17.796875" height="24"><div xmlns="http://www.w3.org/1999/xhtml" class="labelBkg" style="display: table-cell; white-space: nowrap; line-height: 1.5; max-width: 200px; text-align: center;"><span class="edgeLabel"><p>no</p></span></div></foreignObject></g></g><g class="edgeLabel" transform="translate(1018.82421875, 743.734375)"><g class="label" data-id="L_ACT_SRC_0" transform="translate(-12.453125, -12)"><foreignObject width="24.90625" height="24"><div xmlns="http://www.w3.org/1999/xhtml" class="labelBkg" style="display: table-cell; white-space: nowrap; line-height: 1.5; max-width: 200px; text-align: center;"><span class="edgeLabel"><p>yes</p></span></div></foreignObject></g></g><g class="edgeLabel"><g class="label" data-id="L_SRC_COLOR_0" transform="translate(0, 0)"><foreignObject width="0" height="0"><div xmlns="http://www.w3.org/1999/xhtml" class="labelBkg" style="display: table-cell; white-space: nowrap; line-height: 1.5; max-width: 200px; text-align: center;"><span class="edgeLabel"></span></div></foreignObject></g></g><g class="edgeLabel" transform="translate(873.515625, 1189.1875)"><g class="label" data-id="L_COLOR_E4_0" transform="translate(-8.8984375, -12)"><foreignObject width="17.796875" height="24"><div xmlns="http://www.w3.org/1999/xhtml" class="labelBkg" style="display: table-cell; white-space: nowrap; line-height: 1.5; max-width: 200px; text-align: center;"><span class="edgeLabel"><p>no</p></span></div></foreignObject></g></g><g class="edgeLabel" transform="translate(1164.1328125, 1189.1875)"><g class="label" data-id="L_COLOR_OWN_0" transform="translate(-12.453125, -12)"><foreignObject width="24.90625" height="24"><div xmlns="http://www.w3.org/1999/xhtml" class="labelBkg" style="display: table-cell; white-space: nowrap; line-height: 1.5; max-width: 200px; text-align: center;"><span class="edgeLabel"><p>yes</p></span></div></foreignObject></g></g><g class="edgeLabel" transform="translate(974.02734375, 1432.828125)"><g class="label" data-id="L_OWN_E5_0" transform="translate(-12.453125, -12)"><foreignObject width="24.90625" height="24"><div xmlns="http://www.w3.org/1999/xhtml" class="labelBkg" style="display: table-cell; white-space: nowrap; line-height: 1.5; max-width: 200px; text-align: center;"><span class="edgeLabel"><p>yes</p></span></div></foreignObject></g></g><g class="edgeLabel" transform="translate(1354.23828125, 1432.828125)"><g class="label" data-id="L_OWN_CAST_0" transform="translate(-8.8984375, -12)"><foreignObject width="17.796875" height="24"><div xmlns="http://www.w3.org/1999/xhtml" class="labelBkg" style="display: table-cell; white-space: nowrap; line-height: 1.5; max-width: 200px; text-align: center;"><span class="edgeLabel"><p>no</p></span></div></foreignObject></g></g><g class="edgeLabel" transform="translate(211.6640625, 1848.828125)"><g class="label" data-id="L_CAST_SKIP_0" transform="translate(-39.125, -12)"><foreignObject width="78.25" height="24"><div xmlns="http://www.w3.org/1999/xhtml" class="labelBkg" style="display: table-cell; white-space: nowrap; line-height: 1.5; max-width: 200px; text-align: center;"><span class="edgeLabel"><p>yes correct</p></span></div></foreignObject></g></g><g class="edgeLabel" transform="translate(1550.8671875, 1784.828125)"><g class="label" data-id="L_CAST_PIECE_0" transform="translate(-56.0390625, -12)"><foreignObject width="112.078125" height="24"><div xmlns="http://www.w3.org/1999/xhtml" class="labelBkg" style="display: table-cell; white-space: nowrap; line-height: 1.5; max-width: 200px; text-align: center;"><span class="edgeLabel"><p>no / not castling</p></span></div></foreignObject></g></g><g class="edgeLabel" transform="translate(1157.609375, 1784.828125)"><g class="label" data-id="L_CAST_E_CAST_0" transform="translate(-97.3828125, -12)"><foreignObject width="194.765625" height="24"><div xmlns="http://www.w3.org/1999/xhtml" class="labelBkg" style="display: table-cell; white-space: nowrap; line-height: 1.5; max-width: 200px; text-align: center;"><span class="edgeLabel"><p>wrong move during castling</p></span></div></foreignObject></g></g><g class="edgeLabel"><g class="label" data-id="L_SKIP_CHECK_0" transform="translate(0, 0)"><foreignObject width="0" height="0"><div xmlns="http://www.w3.org/1999/xhtml" class="labelBkg" style="display: table-cell; white-space: nowrap; line-height: 1.5; max-width: 200px; text-align: center;"><span class="edgeLabel"></span></div></foreignObject></g></g><g class="edgeLabel"><g class="label" data-id="L_PIECE_PE_0" transform="translate(0, 0)"><foreignObject width="0" height="0"><div xmlns="http://www.w3.org/1999/xhtml" class="labelBkg" style="display: table-cell; white-space: nowrap; line-height: 1.5; max-width: 200px; text-align: center;"><span class="edgeLabel"></span></div></foreignObject></g></g><g class="edgeLabel" transform="translate(1571.54296875, 2194.65625)"><g class="label" data-id="L_PE_EP_0" transform="translate(-8.8984375, -12)"><foreignObject width="17.796875" height="24"><div xmlns="http://www.w3.org/1999/xhtml" class="labelBkg" style="display: table-cell; white-space: nowrap; line-height: 1.5; max-width: 200px; text-align: center;"><span class="edgeLabel"><p>no</p></span></div></foreignObject></g></g><g class="edgeLabel" transform="translate(1102.94903, 2267.86239)"><g class="label" data-id="L_PE_CHECK_0" transform="translate(-12.453125, -12)"><foreignObject width="24.90625" height="24"><div xmlns="http://www.w3.org/1999/xhtml" class="labelBkg" style="display: table-cell; white-space: nowrap; line-height: 1.5; max-width: 200px; text-align: center;"><span class="edgeLabel"><p>yes</p></span></div></foreignObject></g></g><g class="edgeLabel" transform="translate(215.8984375, 2627.75)"><g class="label" data-id="L_CHECK_E6_0" transform="translate(-12.453125, -12)"><foreignObject width="24.90625" height="24"><div xmlns="http://www.w3.org/1999/xhtml" class="labelBkg" style="display: table-cell; white-space: nowrap; line-height: 1.5; max-width: 200px; text-align: center;"><span class="edgeLabel"><p>yes</p></span></div></foreignObject></g></g><g class="edgeLabel" transform="translate(536.171875, 2627.75)"><g class="label" data-id="L_CHECK_OK_0" transform="translate(-8.8984375, -12)"><foreignObject width="17.796875" height="24"><div xmlns="http://www.w3.org/1999/xhtml" class="labelBkg" style="display: table-cell; white-space: nowrap; line-height: 1.5; max-width: 200px; text-align: center;"><span class="edgeLabel"><p>no</p></span></div></foreignObject></g></g></g><g class="nodes"><g class="node default" id="my-svg-flowchart-V-0" data-look="classic" transform="translate(335.74609375, 27.5)"><g class="basic label-container outer-path"><path d="M-68.03125 -19.5 C-23.90330847868455 -19.5, 20.2246330426309 -19.5, 68.03125 -19.5 C68.03125 -19.5, 68.03125 -19.5, 68.03125 -19.5 C68.40319230771011 -19.48807253413352, 68.77513461542024 -19.47614506826704, 69.2806192896239 -19.45993515863156 C69.6021469815546 -19.428917768884627, 69.92367467348531 -19.3979003791377, 70.52485465284786 -19.3399052695533 C70.97038986005273 -19.26787459242955, 71.41592506725762 -19.1958439153058, 71.75884325967675 -19.140403561325776 C72.0654701525083 -19.07041797396445, 72.37209704533983 -19.00043238660312, 72.97751438623538 -18.862249829261074 C73.28909328845873 -18.769774846592217, 73.60067219068209 -18.67729986392336, 74.1758602514606 -18.50658706670804 C74.53628803880751 -18.373946309206435, 74.89671582615442 -18.24130555170483, 75.3489565951478 -18.074876768247425 C75.7616601347592 -17.89218515367699, 76.17436367437058 -17.709493539106553, 76.49198291279238 -17.568892924097174 C76.91664737408291 -17.347345746652472, 77.34131183537345 -17.12579856920777, 77.60024226407678 -16.990714730406097 C77.98882063759167 -16.75515623684138, 78.37739901110656 -16.51959774327666, 78.6691805736057 -16.342718045390892 C79.0648974729247 -16.066683066734445, 79.46061437224368 -15.790648088077994, 79.69440534457871 -15.627565626425154 C79.90199546479877 -15.462018029754752, 80.10958558501883 -15.296470433084352, 80.67170370850187 -14.848196188198123 C80.96298093462698 -14.583665918204378, 81.2542581607521 -14.319135648210635, 81.59705973676799 -14.007812326905688 C81.8971685380466 -13.69792535019471, 82.1972773393252 -13.388038373483733, 82.46667094296865 -13.10986736009568 C82.77454263315515 -12.74822375440717, 83.08241432334165 -12.38658014871866, 83.27696390812658 -12.158051136245305 C83.50465847611545 -11.85296115854209, 83.73235304410433 -11.547871180838875, 84.02460896464063 -11.156274872382312 C84.24588902964202 -10.81632927052288, 84.46716909464338 -10.476383668663448, 84.70653387860425 -10.108655082055241 C84.83198580340348 -9.885902486189298, 84.95743772820272 -9.663149890323355, 85.3199364742735 -9.019496659696287 C85.4944700968927 -8.657073857906235, 85.6690037195119 -8.294651056116184, 85.86229614880834 -7.893275190886684 C85.98595764049213 -7.5878289155954315, 86.10961913217592 -7.282382640304179, 86.33138422997033 -6.734618561215508 C86.43590428641018 -6.419820804228163, 86.54042434285002 -6.105023047240818, 86.72527313421489 -5.548287939305138 C86.7933724508887 -5.288595730397379, 86.86147176756249 -5.02890352148962, 87.04234428754556 -4.339158212148133 C87.0966907585457 -4.060100569693099, 87.15103722954585 -3.7810429272380652, 87.28129477658177 -3.1121979531509023 C87.3306841114087 -2.729144025260611, 87.38007344623561 -2.34609009737032, 87.44114270250937 -1.872449005199798 C87.46454239359473 -1.507979928654723, 87.48794208468007 -1.143510852109648, 87.52123121591342 -0.6250057626472757 C87.52123121591342 -0.3198470650248121, 87.52123121591342 -0.014688367402348468, 87.52123121591342 0.625005762647271 C87.49725973735518 0.9983808906209564, 87.47328825879696 1.3717560185946418, 87.44114270250937 1.8724490051997846 C87.38757730693095 2.287891635622234, 87.33401191135252 2.7033342660446835, 87.28129477658177 3.1121979531508885 C87.18995462912316 3.5812103056038893, 87.09861448166454 4.0502226580568905, 87.04234428754556 4.339158212148129 C86.94182338492165 4.722487979887918, 86.84130248229772 5.1058177476277065, 86.72527313421489 5.548287939305125 C86.57474506893941 6.001654488524669, 86.42421700366393 6.455021037744212, 86.33138422997033 6.734618561215495 C86.21378767865436 7.025084316540593, 86.09619112733839 7.315550071865691, 85.86229614880834 7.893275190886679 C85.69215971651303 8.246567132884381, 85.52202328421771 8.599859074882085, 85.3199364742735 9.019496659696284 C85.1190135494262 9.376255658415019, 84.9180906245789 9.733014657133754, 84.70653387860425 10.108655082055236 C84.51182598378267 10.407778694891721, 84.3171180889611 10.706902307728207, 84.02460896464065 11.156274872382301 C83.86924665677404 11.364446211126149, 83.71388434890741 11.572617549869994, 83.27696390812659 12.158051136245302 C83.04782631861347 12.42720918718561, 82.81868872910036 12.696367238125921, 82.46667094296866 13.10986736009567 C82.26973374674583 13.313221184040248, 82.07279655052301 13.516575007984828, 81.59705973676799 14.007812326905684 C81.33823812065692 14.242867270613049, 81.07941650454588 14.477922214320415, 80.6717037085019 14.848196188198111 C80.3406368592207 15.112213190441002, 80.00957000993951 15.376230192683892, 79.69440534457871 15.627565626425152 C79.34549798973947 15.870948293205052, 78.99659063490022 16.11433095998495, 78.6691805736057 16.34271804539089 C78.43377261333646 16.485423734316832, 78.19836465306723 16.628129423242772, 77.60024226407678 16.990714730406093 C77.2270879996047 17.18538907116446, 76.85393373513263 17.380063411922833, 76.49198291279238 17.56889292409717 C76.08849937402326 17.74750311779634, 75.68501583525413 17.92611331149551, 75.3489565951478 18.07487676824742 C74.91397070482321 18.23495559685236, 74.47898481449863 18.395034425457297, 74.17586025146062 18.506587066708033 C73.79945164983944 18.618303163860134, 73.42304304821825 18.730019261012234, 72.97751438623541 18.86224982926107 C72.49791554930295 18.971715134116014, 72.01831671237046 19.081180438970954, 71.75884325967677 19.140403561325773 C71.42129623482563 19.194975546587433, 71.0837492099745 19.24954753184909, 70.52485465284788 19.3399052695533 C70.22851142363876 19.368493144470225, 69.93216819442965 19.39708101938715, 69.2806192896239 19.45993515863156 C68.82856594397383 19.474431629558097, 68.37651259832376 19.488928100484635, 68.03125 19.5 C68.03125 19.5, 68.03125 19.5, 68.03125 19.5 C28.07346060088168 19.5, -11.884328798236638 19.5, -68.03125 19.5 C-68.31323499125585 19.490957290180912, -68.59521998251172 19.481914580361828, -69.2806192896239 19.45993515863156 C-69.59995515892638 19.42912921137752, -69.91929102822884 19.398323264123484, -70.52485465284786 19.3399052695533 C-70.97738222488233 19.2667441211105, -71.4299097969168 19.1935829726677, -71.75884325967675 19.140403561325773 C-72.10897148628966 19.06048907840158, -72.45909971290259 18.980574595477385, -72.97751438623538 18.862249829261074 C-73.32547068493544 18.75897822626678, -73.6734269836355 18.655706623272486, -74.17586025146059 18.506587066708043 C-74.51220346918966 18.382809653461123, -74.84854668691872 18.259032240214204, -75.3489565951478 18.074876768247425 C-75.63050836304419 17.950242152536145, -75.91206013094056 17.825607536824865, -76.49198291279238 17.568892924097174 C-76.8867618567287 17.362937001913583, -77.281540800665 17.156981079729995, -77.60024226407678 16.990714730406097 C-77.84760891955337 16.840759610168373, -78.09497557502993 16.690804489930645, -78.66918057360569 16.3427180453909 C-78.9750964518742 16.12932437159572, -79.2810123301427 15.91593069780054, -79.69440534457871 15.627565626425156 C-80.05509789806118 15.33992291345485, -80.41579045154363 15.05228020048454, -80.67170370850187 14.848196188198125 C-80.88983390674433 14.650096113563109, -81.10796410498678 14.451996038928094, -81.59705973676797 14.007812326905697 C-81.81464783341518 13.783134752802498, -82.03223593006237 13.5584571786993, -82.46667094296865 13.109867360095677 C-82.75932721554408 12.76609664971493, -83.05198348811949 12.422325939334183, -83.27696390812658 12.158051136245307 C-83.47205135180975 11.896651734541587, -83.66713879549293 11.635252332837867, -84.02460896464063 11.156274872382316 C-84.29027043295319 10.748147516961431, -84.55593190126575 10.340020161540547, -84.70653387860425 10.108655082055249 C-84.85844474388196 9.838921958111523, -85.01035560915967 9.5691888341678, -85.3199364742735 9.019496659696289 C-85.44886241582503 8.7517791834913, -85.57778835737656 8.484061707286308, -85.86229614880834 7.893275190886686 C-85.96584434791859 7.6375091371161465, -86.06939254702883 7.381743083345608, -86.33138422997033 6.73461856121551 C-86.44167626520515 6.402436523737636, -86.55196830043997 6.0702544862597625, -86.72527313421489 5.5482879393051325 C-86.8348425336305 5.130452331655275, -86.94441193304613 4.712616724005417, -87.04234428754556 4.339158212148136 C-87.0919071351219 4.084663464955198, -87.14146998269823 3.8301687177622594, -87.28129477658177 3.112197953150904 C-87.34518663132658 2.6166653446239603, -87.4090784860714 2.1211327360970165, -87.44114270250937 1.872449005199809 C-87.45879846682476 1.597446224511033, -87.47645423114017 1.322443443822257, -87.52123121591342 0.6250057626472781 C-87.52123121591342 0.26999446528661514, -87.52123121591342 -0.08501683207404787, -87.52123121591342 -0.6250057626472687 C-87.50487876357744 -0.8797084072420487, -87.48852631124146 -1.1344110518368287, -87.44114270250937 -1.8724490051997822 C-87.38180551552676 -2.3326565099838863, -87.32246832854418 -2.79286401476799, -87.28129477658177 -3.112197953150895 C-87.2040071243008 -3.509053712862582, -87.12671947201983 -3.905909472574269, -87.04234428754556 -4.339158212148126 C-86.9678051891675 -4.623408099713217, -86.89326609078947 -4.907657987278307, -86.72527313421489 -5.548287939305123 C-86.60957717119702 -5.896745746266592, -86.49388120817913 -6.245203553228062, -86.33138422997033 -6.734618561215485 C-86.1807334887899 -7.106728804565076, -86.03008274760947 -7.478839047914668, -85.86229614880834 -7.893275190886676 C-85.75056834445668 -8.125280367214943, -85.63884054010502 -8.357285543543208, -85.3199364742735 -9.019496659696282 C-85.19700060520657 -9.237781743831261, -85.07406473613962 -9.456066827966243, -84.70653387860425 -10.108655082055243 C-84.5640553650155 -10.327540339765473, -84.42157685142676 -10.546425597475704, -84.02460896464063 -11.156274872382308 C-83.82180848407258 -11.428009040839656, -83.61900800350452 -11.699743209297004, -83.27696390812659 -12.158051136245302 C-83.10068945362877 -12.365113140799036, -82.92441499913097 -12.57217514535277, -82.46667094296866 -13.10986736009567 C-82.20588704560366 -13.379148144881194, -81.94510314823866 -13.648428929666718, -81.59705973676799 -14.007812326905677 C-81.30323770128334 -14.274653725427791, -81.00941566579868 -14.541495123949904, -80.6717037085019 -14.848196188198107 C-80.40123877185819 -15.063884777797227, -80.13077383521448 -15.279573367396347, -79.69440534457871 -15.627565626425149 C-79.41787850172422 -15.820458781346352, -79.14135165886972 -16.013351936267554, -78.66918057360571 -16.342718045390885 C-78.40589609327883 -16.50232264459639, -78.14261161295194 -16.66192724380189, -77.60024226407678 -16.99071473040609 C-77.34626252954456 -17.123215795229772, -77.09228279501232 -17.25571686005345, -76.4919829127924 -17.56889292409717 C-76.23248668478185 -17.683764206555335, -75.9729904567713 -17.798635489013503, -75.34895659514781 -18.07487676824742 C-75.07199297758693 -18.17680193973344, -74.79502936002605 -18.27872711121946, -74.17586025146062 -18.506587066708033 C-73.86749170336942 -18.59810923312196, -73.55912315527824 -18.689631399535884, -72.97751438623541 -18.862249829261067 C-72.58310380859035 -18.952271469839005, -72.18869323094528 -19.042293110416942, -71.75884325967677 -19.140403561325773 C-71.27522950181044 -19.218590483216893, -70.79161574394412 -19.296777405108017, -70.52485465284788 -19.3399052695533 C-70.0632483551904 -19.384435873925522, -69.60164205753291 -19.428966478297742, -69.2806192896239 -19.45993515863156 C-68.78791843499506 -19.47573511605547, -68.29521758036624 -19.49153507347938, -68.03125 -19.5 C-68.03125 -19.5, -68.03125 -19.5, -68.03125 -19.5" stroke="none" stroke-width="0" fill="#1f2020" style=""/><path d="M-68.03125 -19.5 C-34.4821497475402 -19.5, -0.9330494950803967 -19.5, 68.03125 -19.5 M-68.03125 -19.5 C-31.116992618680896 -19.5, 5.797264762638207 -19.5, 68.03125 -19.5 M68.03125 -19.5 C68.03125 -19.5, 68.03125 -19.5, 68.03125 -19.5 M68.03125 -19.5 C68.03125 -19.5, 68.03125 -19.5, 68.03125 -19.5 M68.03125 -19.5 C68.38098857724596 -19.488784564552567, 68.7307271544919 -19.47756912910513, 69.2806192896239 -19.45993515863156 M68.03125 -19.5 C68.31304858730621 -19.490963267792765, 68.59484717461243 -19.48192653558553, 69.2806192896239 -19.45993515863156 M69.2806192896239 -19.45993515863156 C69.73161785552371 -19.416427869384336, 70.18261642142352 -19.372920580137112, 70.52485465284786 -19.3399052695533 M69.2806192896239 -19.45993515863156 C69.63469814618885 -19.425777597180865, 69.98877700275379 -19.391620035730174, 70.52485465284786 -19.3399052695533 M70.52485465284786 -19.3399052695533 C70.79884846385173 -19.295608075043933, 71.0728422748556 -19.251310880534568, 71.75884325967675 -19.140403561325776 M70.52485465284786 -19.3399052695533 C71.00018615091555 -19.263057359196537, 71.47551764898324 -19.186209448839776, 71.75884325967675 -19.140403561325776 M71.75884325967675 -19.140403561325776 C72.04799403040792 -19.074406784791503, 72.3371448011391 -19.00841000825723, 72.97751438623538 -18.862249829261074 M71.75884325967675 -19.140403561325776 C72.14550913450884 -19.05214959862599, 72.53217500934093 -18.96389563592621, 72.97751438623538 -18.862249829261074 M72.97751438623538 -18.862249829261074 C73.38082466387071 -18.74254945587776, 73.78413494150603 -18.622849082494444, 74.1758602514606 -18.50658706670804 M72.97751438623538 -18.862249829261074 C73.23349212436109 -18.786276980239933, 73.4894698624868 -18.710304131218788, 74.1758602514606 -18.50658706670804 M74.1758602514606 -18.50658706670804 C74.61275461014971 -18.345805904103273, 75.0496489688388 -18.185024741498506, 75.3489565951478 -18.074876768247425 M74.1758602514606 -18.50658706670804 C74.52521053664627 -18.37802293240108, 74.87456082183192 -18.24945879809412, 75.3489565951478 -18.074876768247425 M75.3489565951478 -18.074876768247425 C75.75126518148745 -17.896786691135052, 76.15357376782711 -17.71869661402268, 76.49198291279238 -17.568892924097174 M75.3489565951478 -18.074876768247425 C75.71297296679327 -17.913737518681977, 76.07698933843875 -17.752598269116525, 76.49198291279238 -17.568892924097174 M76.49198291279238 -17.568892924097174 C76.7743160248275 -17.42159992039144, 77.05664913686263 -17.274306916685706, 77.60024226407678 -16.990714730406097 M76.49198291279238 -17.568892924097174 C76.80592349239586 -17.405110324806575, 77.11986407199936 -17.241327725515973, 77.60024226407678 -16.990714730406097 M77.60024226407678 -16.990714730406097 C77.91422888128939 -16.800374197861636, 78.228215498502 -16.61003366531718, 78.6691805736057 -16.342718045390892 M77.60024226407678 -16.990714730406097 C77.89491771241542 -16.812080741918063, 78.18959316075406 -16.63344675343003, 78.6691805736057 -16.342718045390892 M78.6691805736057 -16.342718045390892 C78.90699892261846 -16.176826260109994, 79.14481727163123 -16.010934474829096, 79.69440534457871 -15.627565626425154 M78.6691805736057 -16.342718045390892 C79.00362036976273 -16.10942732125719, 79.33806016591974 -15.87613659712349, 79.69440534457871 -15.627565626425154 M79.69440534457871 -15.627565626425154 C79.99222432796311 -15.390062912472082, 80.29004331134752 -15.152560198519012, 80.67170370850187 -14.848196188198123 M79.69440534457871 -15.627565626425154 C79.89275012958737 -15.46939093855715, 80.09109491459601 -15.311216250689148, 80.67170370850187 -14.848196188198123 M80.67170370850187 -14.848196188198123 C80.94220537512683 -14.60253373165124, 81.21270704175178 -14.356871275104357, 81.59705973676799 -14.007812326905688 M80.67170370850187 -14.848196188198123 C80.90905933371342 -14.632636089466699, 81.14641495892496 -14.417075990735274, 81.59705973676799 -14.007812326905688 M81.59705973676799 -14.007812326905688 C81.77931378973878 -13.819620053877314, 81.96156784270957 -13.631427780848938, 82.46667094296865 -13.10986736009568 M81.59705973676799 -14.007812326905688 C81.91341561256112 -13.681148911848835, 82.22977148835426 -13.354485496791984, 82.46667094296865 -13.10986736009568 M82.46667094296865 -13.10986736009568 C82.71723973230802 -12.81553500236964, 82.96780852164738 -12.521202644643596, 83.27696390812658 -12.158051136245305 M82.46667094296865 -13.10986736009568 C82.75040649702906 -12.776575433285917, 83.03414205108949 -12.443283506476153, 83.27696390812658 -12.158051136245305 M83.27696390812658 -12.158051136245305 C83.54630755615571 -11.797155185597383, 83.81565120418486 -11.436259234949462, 84.02460896464063 -11.156274872382312 M83.27696390812658 -12.158051136245305 C83.57443887991259 -11.759461774579487, 83.87191385169861 -11.360872412913668, 84.02460896464063 -11.156274872382312 M84.02460896464063 -11.156274872382312 C84.1775977890455 -10.921242954844882, 84.33058661345038 -10.686211037307451, 84.70653387860425 -10.108655082055241 M84.02460896464063 -11.156274872382312 C84.17033862730462 -10.932394976636742, 84.31606828996861 -10.70851508089117, 84.70653387860425 -10.108655082055241 M84.70653387860425 -10.108655082055241 C84.88922244829291 -9.784273027349355, 85.07191101798158 -9.45989097264347, 85.3199364742735 -9.019496659696287 M84.70653387860425 -10.108655082055241 C84.92192405654323 -9.726208010503992, 85.13731423448222 -9.343760938952743, 85.3199364742735 -9.019496659696287 M85.3199364742735 -9.019496659696287 C85.53066330896603 -8.581917878625308, 85.74139014365853 -8.14433909755433, 85.86229614880834 -7.893275190886684 M85.3199364742735 -9.019496659696287 C85.45867619763263 -8.731400655586539, 85.59741592099175 -8.44330465147679, 85.86229614880834 -7.893275190886684 M85.86229614880834 -7.893275190886684 C86.03088643474551 -7.476853925150423, 86.1994767206827 -7.060432659414162, 86.33138422997033 -6.734618561215508 M85.86229614880834 -7.893275190886684 C85.97869100081749 -7.605777656082722, 86.09508585282663 -7.318280121278761, 86.33138422997033 -6.734618561215508 M86.33138422997033 -6.734618561215508 C86.43061986772808 -6.43573663134083, 86.52985550548584 -6.136854701466151, 86.72527313421489 -5.548287939305138 M86.33138422997033 -6.734618561215508 C86.41932958874486 -6.4697411527766615, 86.50727494751938 -6.204863744337816, 86.72527313421489 -5.548287939305138 M86.72527313421489 -5.548287939305138 C86.80977951974215 -5.226028465990515, 86.89428590526941 -4.903768992675891, 87.04234428754556 -4.339158212148133 M86.72527313421489 -5.548287939305138 C86.79221428891657 -5.29301230394767, 86.85915544361823 -5.0377366685902025, 87.04234428754556 -4.339158212148133 M87.04234428754556 -4.339158212148133 C87.09891058437911 -4.048702233198898, 87.15547688121266 -3.7582462542496637, 87.28129477658177 -3.1121979531509023 M87.04234428754556 -4.339158212148133 C87.10784306573704 -4.002835829306573, 87.17334184392851 -3.6665134464650126, 87.28129477658177 -3.1121979531509023 M87.28129477658177 -3.1121979531509023 C87.32158420383439 -2.7997211114269267, 87.36187363108701 -2.4872442697029506, 87.44114270250937 -1.872449005199798 M87.28129477658177 -3.1121979531509023 C87.31758780342788 -2.8307164038012522, 87.353880830274 -2.549234854451602, 87.44114270250937 -1.872449005199798 M87.44114270250937 -1.872449005199798 C87.46943115687185 -1.4318334944747777, 87.49771961123433 -0.9912179837497573, 87.52123121591342 -0.6250057626472757 M87.44114270250937 -1.872449005199798 C87.46766965391325 -1.4592703249146204, 87.49419660531713 -1.0460916446294428, 87.52123121591342 -0.6250057626472757 M87.52123121591342 -0.6250057626472757 C87.52123121591342 -0.21103151978972018, 87.52123121591342 0.20294272306783534, 87.52123121591342 0.625005762647271 M87.52123121591342 -0.6250057626472757 C87.52123121591342 -0.23100091732342787, 87.52123121591342 0.16300392800041996, 87.52123121591342 0.625005762647271 M87.52123121591342 0.625005762647271 C87.49324145901592 1.0609688192509605, 87.46525170211842 1.4969318758546502, 87.44114270250937 1.8724490051997846 M87.52123121591342 0.625005762647271 C87.5005139817051 0.9476934080923461, 87.47979674749678 1.2703810535374211, 87.44114270250937 1.8724490051997846 M87.44114270250937 1.8724490051997846 C87.3874591263807 2.2888082206325517, 87.33377555025203 2.7051674360653184, 87.28129477658177 3.1121979531508885 M87.44114270250937 1.8724490051997846 C87.38159675725191 2.33427559793968, 87.32205081199446 2.7961021906795747, 87.28129477658177 3.1121979531508885 M87.28129477658177 3.1121979531508885 C87.21466634778115 3.454320853118676, 87.14803791898053 3.7964437530864634, 87.04234428754556 4.339158212148129 M87.28129477658177 3.1121979531508885 C87.21286931960975 3.4635482129768116, 87.14444386263771 3.814898472802734, 87.04234428754556 4.339158212148129 M87.04234428754556 4.339158212148129 C86.95088069786777 4.687948520160052, 86.85941710818999 5.036738828171977, 86.72527313421489 5.548287939305125 M87.04234428754556 4.339158212148129 C86.97189974997113 4.607793764775142, 86.9014552123967 4.876429317402156, 86.72527313421489 5.548287939305125 M86.72527313421489 5.548287939305125 C86.63506889837761 5.819968725553779, 86.54486466254033 6.091649511802433, 86.33138422997033 6.734618561215495 M86.72527313421489 5.548287939305125 C86.5807067320286 5.983698909162051, 86.4361403298423 6.4191098790189765, 86.33138422997033 6.734618561215495 M86.33138422997033 6.734618561215495 C86.15672505636567 7.166030096824393, 85.98206588276102 7.597441632433291, 85.86229614880834 7.893275190886679 M86.33138422997033 6.734618561215495 C86.16563467964559 7.144023155067138, 85.99988512932086 7.55342774891878, 85.86229614880834 7.893275190886679 M85.86229614880834 7.893275190886679 C85.72758615957592 8.173003365859822, 85.59287617034352 8.452731540832964, 85.3199364742735 9.019496659696284 M85.86229614880834 7.893275190886679 C85.70633803346499 8.217125554366243, 85.55037991812164 8.540975917845808, 85.3199364742735 9.019496659696284 M85.3199364742735 9.019496659696284 C85.09554129883377 9.417933016165001, 84.87114612339401 9.81636937263372, 84.70653387860425 10.108655082055236 M85.3199364742735 9.019496659696284 C85.1519707658049 9.317736783454585, 84.9840050573363 9.615976907212888, 84.70653387860425 10.108655082055236 M84.70653387860425 10.108655082055236 C84.52642369853037 10.38535268500399, 84.3463135184565 10.662050287952745, 84.02460896464065 11.156274872382301 M84.70653387860425 10.108655082055236 C84.52301545494568 10.390588662391618, 84.33949703128712 10.672522242728002, 84.02460896464065 11.156274872382301 M84.02460896464065 11.156274872382301 C83.73676691562596 11.541956995111866, 83.44892486661126 11.92763911784143, 83.27696390812659 12.158051136245302 M84.02460896464065 11.156274872382301 C83.84437503279004 11.397771921413147, 83.66414110093942 11.639268970443993, 83.27696390812659 12.158051136245302 M83.27696390812659 12.158051136245302 C83.06908475805666 12.402237814576168, 82.86120560798673 12.646424492907036, 82.46667094296866 13.10986736009567 M83.27696390812659 12.158051136245302 C82.95940143474951 12.531078087290654, 82.64183896137243 12.904105038336004, 82.46667094296866 13.10986736009567 M82.46667094296866 13.10986736009567 C82.14627563906681 13.440701816317988, 81.82588033516495 13.771536272540306, 81.59705973676799 14.007812326905684 M82.46667094296866 13.10986736009567 C82.1255164229608 13.462137411310788, 81.78436190295292 13.814407462525907, 81.59705973676799 14.007812326905684 M81.59705973676799 14.007812326905684 C81.28499266530318 14.291223384367772, 80.97292559383838 14.574634441829861, 80.6717037085019 14.848196188198111 M81.59705973676799 14.007812326905684 C81.3210577768087 14.258470004329023, 81.04505581684941 14.509127681752364, 80.6717037085019 14.848196188198111 M80.6717037085019 14.848196188198111 C80.35781854167892 15.098511255904345, 80.04393337485594 15.34882632361058, 79.69440534457871 15.627565626425152 M80.6717037085019 14.848196188198111 C80.41556454137472 15.052460357832533, 80.15942537424755 15.256724527466954, 79.69440534457871 15.627565626425152 M79.69440534457871 15.627565626425152 C79.284354672973 15.913599224129815, 78.87430400136729 16.199632821834477, 78.6691805736057 16.34271804539089 M79.69440534457871 15.627565626425152 C79.32487301981742 15.885335379382118, 78.95534069505612 16.143105132339084, 78.6691805736057 16.34271804539089 M78.6691805736057 16.34271804539089 C78.37004796153016 16.524053992729428, 78.07091534945464 16.70538994006797, 77.60024226407678 16.990714730406093 M78.6691805736057 16.34271804539089 C78.36668364399742 16.526093461788705, 78.06418671438914 16.70946887818652, 77.60024226407678 16.990714730406093 M77.60024226407678 16.990714730406093 C77.36504338158618 17.113417836749367, 77.12984449909557 17.236120943092644, 76.49198291279238 17.56889292409717 M77.60024226407678 16.990714730406093 C77.34811558256102 17.12224905865802, 77.09598890104526 17.253783386909948, 76.49198291279238 17.56889292409717 M76.49198291279238 17.56889292409717 C76.21242030911029 17.692646995817245, 75.93285770542819 17.816401067537317, 75.3489565951478 18.07487676824742 M76.49198291279238 17.56889292409717 C76.09414501171304 17.745003961462963, 75.6963071106337 17.92111499882876, 75.3489565951478 18.07487676824742 M75.3489565951478 18.07487676824742 C75.08638659107515 18.171504956916664, 74.82381658700253 18.268133145585907, 74.17586025146062 18.506587066708033 M75.3489565951478 18.07487676824742 C74.91650402049268 18.234023313268285, 74.48405144583755 18.39316985828915, 74.17586025146062 18.506587066708033 M74.17586025146062 18.506587066708033 C73.86941150288732 18.597539446702285, 73.56296275431401 18.688491826696534, 72.97751438623541 18.86224982926107 M74.17586025146062 18.506587066708033 C73.73959670256724 18.636067798025493, 73.30333315367385 18.76554852934295, 72.97751438623541 18.86224982926107 M72.97751438623541 18.86224982926107 C72.7296719837026 18.918818240316362, 72.48182958116978 18.975386651371654, 71.75884325967677 19.140403561325773 M72.97751438623541 18.86224982926107 C72.50746979212917 18.969534440538187, 72.03742519802292 19.076819051815303, 71.75884325967677 19.140403561325773 M71.75884325967677 19.140403561325773 C71.36949657387916 19.20335011405689, 70.98014988808154 19.266296666788, 70.52485465284788 19.3399052695533 M71.75884325967677 19.140403561325773 C71.33745106473671 19.208530983458402, 70.91605886979666 19.276658405591032, 70.52485465284788 19.3399052695533 M70.52485465284788 19.3399052695533 C70.14594973361496 19.37645777141186, 69.76704481438203 19.413010273270427, 69.2806192896239 19.45993515863156 M70.52485465284788 19.3399052695533 C70.17330657990048 19.37381868935212, 69.82175850695309 19.40773210915094, 69.2806192896239 19.45993515863156 M69.2806192896239 19.45993515863156 C68.83305523856738 19.474287666618363, 68.38549118751088 19.48864017460517, 68.03125 19.5 M69.2806192896239 19.45993515863156 C68.89181883828415 19.472403232351855, 68.5030183869444 19.48487130607215, 68.03125 19.5 M68.03125 19.5 C68.03125 19.5, 68.03125 19.5, 68.03125 19.5 M68.03125 19.5 C68.03125 19.5, 68.03125 19.5, 68.03125 19.5 M68.03125 19.5 C40.09103692421216 19.5, 12.150823848424324 19.5, -68.03125 19.5 M68.03125 19.5 C37.60603428777207 19.5, 7.180818575544137 19.5, -68.03125 19.5 M-68.03125 19.5 C-68.39068275355993 19.488473691186748, -68.75011550711986 19.476947382373492, -69.2806192896239 19.45993515863156 M-68.03125 19.5 C-68.29930681199878 19.49140393978013, -68.56736362399755 19.482807879560262, -69.2806192896239 19.45993515863156 M-69.2806192896239 19.45993515863156 C-69.64546379587846 19.424739047902897, -70.010308302133 19.389542937174237, -70.52485465284786 19.3399052695533 M-69.2806192896239 19.45993515863156 C-69.71745065898492 19.417794561795887, -70.15428202834595 19.375653964960215, -70.52485465284786 19.3399052695533 M-70.52485465284786 19.3399052695533 C-70.79451805365683 19.296308182181413, -71.0641814544658 19.252711094809523, -71.75884325967675 19.140403561325773 M-70.52485465284786 19.3399052695533 C-71.0132060573585 19.26095240169372, -71.50155746186914 19.181999533834144, -71.75884325967675 19.140403561325773 M-71.75884325967675 19.140403561325773 C-72.20766338941472 19.03796329553814, -72.6564835191527 18.93552302975051, -72.97751438623538 18.862249829261074 M-71.75884325967675 19.140403561325773 C-72.08599165240155 19.065734075529114, -72.41314004512634 18.991064589732453, -72.97751438623538 18.862249829261074 M-72.97751438623538 18.862249829261074 C-73.39507241228554 18.738320798936194, -73.81263043833569 18.614391768611316, -74.17586025146059 18.506587066708043 M-72.97751438623538 18.862249829261074 C-73.21867894585482 18.790673453864635, -73.45984350547425 18.71909707846819, -74.17586025146059 18.506587066708043 M-74.17586025146059 18.506587066708043 C-74.5058342534144 18.385153583742802, -74.83580825536822 18.26372010077756, -75.3489565951478 18.074876768247425 M-74.17586025146059 18.506587066708043 C-74.5874672246586 18.355111895718025, -74.99907419785661 18.203636724728007, -75.3489565951478 18.074876768247425 M-75.3489565951478 18.074876768247425 C-75.77548568138964 17.886064994303958, -76.2020147676315 17.697253220360487, -76.49198291279238 17.568892924097174 M-75.3489565951478 18.074876768247425 C-75.6507380886566 17.94128705310102, -75.9525195821654 17.807697337954615, -76.49198291279238 17.568892924097174 M-76.49198291279238 17.568892924097174 C-76.79589000940754 17.410344786454832, -77.09979710602269 17.25179664881249, -77.60024226407678 16.990714730406097 M-76.49198291279238 17.568892924097174 C-76.86762786060584 17.372919195434967, -77.24327280841929 17.176945466772757, -77.60024226407678 16.990714730406097 M-77.60024226407678 16.990714730406097 C-77.89334706281261 16.81303287893745, -78.18645186154845 16.635351027468797, -78.66918057360569 16.3427180453909 M-77.60024226407678 16.990714730406097 C-77.88722626271614 16.81674334392574, -78.17421026135551 16.642771957445383, -78.66918057360569 16.3427180453909 M-78.66918057360569 16.3427180453909 C-78.8785695393806 16.19665736716856, -79.08795850515551 16.050596688946214, -79.69440534457871 15.627565626425156 M-78.66918057360569 16.3427180453909 C-78.95376599114262 16.144203577621305, -79.23835140867955 15.94568910985171, -79.69440534457871 15.627565626425156 M-79.69440534457871 15.627565626425156 C-80.0458934033531 15.347263253042641, -80.3973814621275 15.066960879660126, -80.67170370850187 14.848196188198125 M-79.69440534457871 15.627565626425156 C-79.96077882947571 15.415139860715929, -80.22715231437272 15.2027140950067, -80.67170370850187 14.848196188198125 M-80.67170370850187 14.848196188198125 C-80.97111744770973 14.576276552302973, -81.27053118691758 14.304356916407821, -81.59705973676797 14.007812326905697 M-80.67170370850187 14.848196188198125 C-80.86942275717863 14.66863297954925, -81.06714180585539 14.489069770900374, -81.59705973676797 14.007812326905697 M-81.59705973676797 14.007812326905697 C-81.83171370323522 13.765512841079323, -82.06636766970247 13.523213355252947, -82.46667094296865 13.109867360095677 M-81.59705973676797 14.007812326905697 C-81.91928358540825 13.675089748114639, -82.24150743404853 13.342367169323579, -82.46667094296865 13.109867360095677 M-82.46667094296865 13.109867360095677 C-82.64679082192832 12.898288301158185, -82.82691070088799 12.686709242220692, -83.27696390812658 12.158051136245307 M-82.46667094296865 13.109867360095677 C-82.68172282038755 12.857255188080954, -82.89677469780646 12.604643016066229, -83.27696390812658 12.158051136245307 M-83.27696390812658 12.158051136245307 C-83.43117347749134 11.951424362077294, -83.58538304685612 11.744797587909282, -84.02460896464063 11.156274872382316 M-83.27696390812658 12.158051136245307 C-83.446678610297 11.930648896664374, -83.61639331246742 11.703246657083442, -84.02460896464063 11.156274872382316 M-84.02460896464063 11.156274872382316 C-84.23143450811803 10.838535297166217, -84.43826005159544 10.520795721950117, -84.70653387860425 10.108655082055249 M-84.02460896464063 11.156274872382316 C-84.2579379690837 10.797818863947182, -84.49126697352676 10.439362855512048, -84.70653387860425 10.108655082055249 M-84.70653387860425 10.108655082055249 C-84.87736427640988 9.805328412297786, -85.04819467421552 9.502001742540322, -85.3199364742735 9.019496659696289 M-84.70653387860425 10.108655082055249 C-84.84625301744445 9.860569602947493, -84.98597215628466 9.612484123839737, -85.3199364742735 9.019496659696289 M-85.3199364742735 9.019496659696289 C-85.50727539713904 8.63048337795518, -85.69461432000459 8.24147009621407, -85.86229614880834 7.893275190886686 M-85.3199364742735 9.019496659696289 C-85.5131652535404 8.618252965115028, -85.7063940328073 8.217009270533767, -85.86229614880834 7.893275190886686 M-85.86229614880834 7.893275190886686 C-86.009877871486 7.528745482574358, -86.15745959416367 7.164215774262029, -86.33138422997033 6.73461856121551 M-85.86229614880834 7.893275190886686 C-86.04961591413603 7.4305917489460125, -86.23693567946371 6.96790830700534, -86.33138422997033 6.73461856121551 M-86.33138422997033 6.73461856121551 C-86.46088896044952 6.3445709467888465, -86.59039369092872 5.954523332362184, -86.72527313421489 5.5482879393051325 M-86.33138422997033 6.73461856121551 C-86.4240066127858 6.4556547015479175, -86.51662899560127 6.176690841880326, -86.72527313421489 5.5482879393051325 M-86.72527313421489 5.5482879393051325 C-86.83551942694011 5.127871044098334, -86.94576571966533 4.707454148891536, -87.04234428754556 4.339158212148136 M-86.72527313421489 5.5482879393051325 C-86.83396385369628 5.133803119066796, -86.94265457317766 4.719318298828458, -87.04234428754556 4.339158212148136 M-87.04234428754556 4.339158212148136 C-87.10933679039682 3.995165868877374, -87.17632929324809 3.651173525606613, -87.28129477658177 3.112197953150904 M-87.04234428754556 4.339158212148136 C-87.09500326734037 4.068765480381112, -87.14766224713517 3.7983727486140877, -87.28129477658177 3.112197953150904 M-87.28129477658177 3.112197953150904 C-87.31712332969146 2.834318770380297, -87.35295188280114 2.55643958760969, -87.44114270250937 1.872449005199809 M-87.28129477658177 3.112197953150904 C-87.3371611937421 2.6789090537272697, -87.39302761090244 2.245620154303636, -87.44114270250937 1.872449005199809 M-87.44114270250937 1.872449005199809 C-87.46393245004731 1.5174802917433199, -87.48672219758524 1.1625115782868307, -87.52123121591342 0.6250057626472781 M-87.44114270250937 1.872449005199809 C-87.46261080918825 1.5380659149324372, -87.48407891586713 1.2036828246650653, -87.52123121591342 0.6250057626472781 M-87.52123121591342 0.6250057626472781 C-87.52123121591342 0.2472277171362206, -87.52123121591342 -0.13055032837483693, -87.52123121591342 -0.6250057626472687 M-87.52123121591342 0.6250057626472781 C-87.52123121591342 0.2592198263487501, -87.52123121591342 -0.10656610994977789, -87.52123121591342 -0.6250057626472687 M-87.52123121591342 -0.6250057626472687 C-87.49645469048822 -1.0109201453961527, -87.47167816506301 -1.3968345281450367, -87.44114270250937 -1.8724490051997822 M-87.52123121591342 -0.6250057626472687 C-87.49327422672921 -1.0604584356667972, -87.46531723754501 -1.4959111086863257, -87.44114270250937 -1.8724490051997822 M-87.44114270250937 -1.8724490051997822 C-87.40661105807897 -2.140269620357499, -87.37207941364856 -2.4080902355152163, -87.28129477658177 -3.112197953150895 M-87.44114270250937 -1.8724490051997822 C-87.40375928050382 -2.162387444083091, -87.36637585849829 -2.4523258829663996, -87.28129477658177 -3.112197953150895 M-87.28129477658177 -3.112197953150895 C-87.20602344081077 -3.4987003537325676, -87.13075210503976 -3.8852027543142396, -87.04234428754556 -4.339158212148126 M-87.28129477658177 -3.112197953150895 C-87.21055783926721 -3.4754171760041777, -87.13982090195265 -3.83863639885746, -87.04234428754556 -4.339158212148126 M-87.04234428754556 -4.339158212148126 C-86.94292056777287 -4.718303946154095, -86.8434968480002 -5.097449680160064, -86.72527313421489 -5.548287939305123 M-87.04234428754556 -4.339158212148126 C-86.94665477355854 -4.704063801078343, -86.85096525957152 -5.068969390008561, -86.72527313421489 -5.548287939305123 M-86.72527313421489 -5.548287939305123 C-86.63446517084525 -5.821787056690364, -86.54365720747559 -6.095286174075604, -86.33138422997033 -6.734618561215485 M-86.72527313421489 -5.548287939305123 C-86.56938809612618 -6.017788837120403, -86.41350305803746 -6.487289734935682, -86.33138422997033 -6.734618561215485 M-86.33138422997033 -6.734618561215485 C-86.16533969809798 -7.144751765192805, -85.99929516622564 -7.554884969170125, -85.86229614880834 -7.893275190886676 M-86.33138422997033 -6.734618561215485 C-86.1717687323292 -7.128871926344769, -86.01215323468809 -7.523125291474052, -85.86229614880834 -7.893275190886676 M-85.86229614880834 -7.893275190886676 C-85.71723989899492 -8.194487597330802, -85.57218364918148 -8.495700003774928, -85.3199364742735 -9.019496659696282 M-85.86229614880834 -7.893275190886676 C-85.67454102412611 -8.283152724605419, -85.4867858994439 -8.673030258324163, -85.3199364742735 -9.019496659696282 M-85.3199364742735 -9.019496659696282 C-85.0979745524095 -9.413612528047626, -84.8760126305455 -9.807728396398971, -84.70653387860425 -10.108655082055243 M-85.3199364742735 -9.019496659696282 C-85.18189017604922 -9.264611840896979, -85.04384387782495 -9.509727022097678, -84.70653387860425 -10.108655082055243 M-84.70653387860425 -10.108655082055243 C-84.45697242830974 -10.492048486340211, -84.20741097801525 -10.87544189062518, -84.02460896464063 -11.156274872382308 M-84.70653387860425 -10.108655082055243 C-84.5223121075038 -10.391669192937593, -84.33809033640334 -10.674683303819943, -84.02460896464063 -11.156274872382308 M-84.02460896464063 -11.156274872382308 C-83.8560290864611 -11.382156551200028, -83.68744920828159 -11.608038230017748, -83.27696390812659 -12.158051136245302 M-84.02460896464063 -11.156274872382308 C-83.87041660879355 -11.362878582004821, -83.71622425294645 -11.569482291627333, -83.27696390812659 -12.158051136245302 M-83.27696390812659 -12.158051136245302 C-82.96315021611159 -12.526674555391054, -82.64933652409658 -12.895297974536804, -82.46667094296866 -13.10986736009567 M-83.27696390812659 -12.158051136245302 C-83.04184025431425 -12.43424075892818, -82.80671660050191 -12.710430381611058, -82.46667094296866 -13.10986736009567 M-82.46667094296866 -13.10986736009567 C-82.24020883385117 -13.343708080644411, -82.01374672473369 -13.577548801193153, -81.59705973676799 -14.007812326905677 M-82.46667094296866 -13.10986736009567 C-82.16578428281184 -13.420557539961804, -81.86489762265502 -13.731247719827937, -81.59705973676799 -14.007812326905677 M-81.59705973676799 -14.007812326905677 C-81.31941167825269 -14.259964947484205, -81.0417636197374 -14.512117568062731, -80.6717037085019 -14.848196188198107 M-81.59705973676799 -14.007812326905677 C-81.36785388269297 -14.215971019122039, -81.13864802861794 -14.424129711338402, -80.6717037085019 -14.848196188198107 M-80.6717037085019 -14.848196188198107 C-80.35185596942456 -15.103266248606483, -80.03200823034723 -15.358336309014856, -79.69440534457871 -15.627565626425149 M-80.6717037085019 -14.848196188198107 C-80.32466840126682 -15.124947610720707, -79.97763309403175 -15.401699033243307, -79.69440534457871 -15.627565626425149 M-79.69440534457871 -15.627565626425149 C-79.38136226387982 -15.845930928104142, -79.06831918318093 -16.064296229783135, -78.66918057360571 -16.342718045390885 M-79.69440534457871 -15.627565626425149 C-79.36136002138606 -15.859883626584665, -79.02831469819343 -16.09220162674418, -78.66918057360571 -16.342718045390885 M-78.66918057360571 -16.342718045390885 C-78.43355056333148 -16.485558342334766, -78.19792055305724 -16.628398639278647, -77.60024226407678 -16.99071473040609 M-78.66918057360571 -16.342718045390885 C-78.27659924091365 -16.580703156332802, -77.8840179082216 -16.818688267274716, -77.60024226407678 -16.99071473040609 M-77.60024226407678 -16.99071473040609 C-77.15838096976371 -17.221233484623557, -76.71651967545064 -17.451752238841024, -76.4919829127924 -17.56889292409717 M-77.60024226407678 -16.99071473040609 C-77.32451249989407 -17.134562771766873, -77.04878273571136 -17.278410813127653, -76.4919829127924 -17.56889292409717 M-76.4919829127924 -17.56889292409717 C-76.11327652591079 -17.73653500764383, -75.73457013902919 -17.904177091190494, -75.34895659514781 -18.07487676824742 M-76.4919829127924 -17.56889292409717 C-76.10322668291626 -17.740983775019508, -75.71447045304012 -17.91307462594185, -75.34895659514781 -18.07487676824742 M-75.34895659514781 -18.07487676824742 C-74.91906480462079 -18.233080921037512, -74.48917301409377 -18.391285073827607, -74.17586025146062 -18.506587066708033 M-75.34895659514781 -18.07487676824742 C-74.90641807833943 -18.23773503321411, -74.46387956153104 -18.4005932981808, -74.17586025146062 -18.506587066708033 M-74.17586025146062 -18.506587066708033 C-73.92901764964073 -18.57984865522492, -73.68217504782082 -18.65311024374181, -72.97751438623541 -18.862249829261067 M-74.17586025146062 -18.506587066708033 C-73.86439624203703 -18.59902794979701, -73.55293223261343 -18.691468832885985, -72.97751438623541 -18.862249829261067 M-72.97751438623541 -18.862249829261067 C-72.58557315666121 -18.951707857255833, -72.193631927087 -19.041165885250596, -71.75884325967677 -19.140403561325773 M-72.97751438623541 -18.862249829261067 C-72.5692066915284 -18.955443396121233, -72.16089899682137 -19.048636962981394, -71.75884325967677 -19.140403561325773 M-71.75884325967677 -19.140403561325773 C-71.3729584394878 -19.20279042647245, -70.98707361929883 -19.26517729161913, -70.52485465284788 -19.3399052695533 M-71.75884325967677 -19.140403561325773 C-71.4869735958762 -19.18435734018832, -71.2151039320756 -19.228311119050865, -70.52485465284788 -19.3399052695533 M-70.52485465284788 -19.3399052695533 C-70.15476905522506 -19.375606982062923, -69.78468345760223 -19.411308694572543, -69.2806192896239 -19.45993515863156 M-70.52485465284788 -19.3399052695533 C-70.12600990983354 -19.37838134223091, -69.7271651668192 -19.41685741490852, -69.2806192896239 -19.45993515863156 M-69.2806192896239 -19.45993515863156 C-68.98186030047985 -19.469515777914314, -68.68310131133582 -19.47909639719707, -68.03125 -19.5 M-69.2806192896239 -19.45993515863156 C-68.93835474514636 -19.470910916395432, -68.59609020066883 -19.481886674159306, -68.03125 -19.5 M-68.03125 -19.5 C-68.03125 -19.5, -68.03125 -19.5, -68.03125 -19.5 M-68.03125 -19.5 C-68.03125 -19.5, -68.03125 -19.5, -68.03125 -19.5" stroke="#ccc" stroke-width="1.3" fill="none" stroke-dasharray="0 0" style=""/></g><g class="label" style="" transform="translate(-75.15625, -12)"><rect/><foreignObject width="150.3125" height="24"><div xmlns="http://www.w3.org/1999/xhtml" style="display: table-cell; white-space: nowrap; line-height: 1.5; max-width: 200px; text-align: center;"><span class="nodeLabel"><p>game_is_valid_move</p></span></div></foreignObject></g></g><g class="node default" id="my-svg-flowchart-N-1" data-look="classic" transform="translate(335.74609375, 170.6875)"><polygon points="73.6875,0 147.375,-73.6875 73.6875,-147.375 0,-73.6875" class="label-container" transform="translate(-73.1875, 73.6875)"/><g class="label" style="" transform="translate(-46.6875, -12)"><rect/><foreignObject width="93.375" height="24"><div xmlns="http://www.w3.org/1999/xhtml" style="display: table-cell; white-space: nowrap; line-height: 1.5; max-width: 200px; text-align: center;"><span class="nodeLabel"><p>move NULL?</p></span></div></foreignObject></g></g><g class="node default" id="my-svg-flowchart-E1-3" data-look="classic" transform="translate(211.6640625, 398.7421875)"><rect class="basic label-container" style="" x="-203.6640625" y="-27" width="407.328125" height="54"/><g class="label" style="" transform="translate(-173.6640625, -12)"><rect/><foreignObject width="347.328125" height="24"><div xmlns="http://www.w3.org/1999/xhtml" style="display: table; white-space: break-spaces; line-height: 1.5; max-width: 200px; text-align: center; width: 200px;"><span class="nodeLabel"><p>MOVE_ERROR_INVALID_MOVE_STRUCTURE</p></span></div></foreignObject></g></g><g class="node default" id="my-svg-flowchart-BOUNDS-5" data-look="classic" transform="translate(545.6953125, 398.7421875)"><polygon points="80.3671875,0 160.734375,-80.3671875 80.3671875,-160.734375 0,-80.3671875" class="label-container" transform="translate(-79.8671875, 80.3671875)"/><g class="label" style="" transform="translate(-53.3671875, -12)"><rect/><foreignObject width="106.734375" height="24"><div xmlns="http://www.w3.org/1999/xhtml" style="display: table-cell; white-space: nowrap; line-height: 1.5; max-width: 200px; text-align: center;"><span class="nodeLabel"><p>from/to in 0–7?</p></span></div></foreignObject></g></g><g class="node default" id="my-svg-flowchart-E2-7" data-look="classic" transform="translate(545.6953125, 629.921875)"><rect class="basic label-container" style="" x="-162.46875" y="-27" width="324.9375" height="54"/><g class="label" style="" transform="translate(-132.46875, -12)"><rect/><foreignObject width="264.9375" height="24"><div xmlns="http://www.w3.org/1999/xhtml" style="display: table; white-space: break-spaces; line-height: 1.5; max-width: 200px; text-align: center; width: 200px;"><span class="nodeLabel"><p>MOVE_ERROR_OUT_OF_BOUNDS</p></span></div></foreignObject></g></g><g class="node default" id="my-svg-flowchart-ACT-9" data-look="classic" transform="translate(834.9765625, 629.921875)"><polygon points="76.8125,0 153.625,-76.8125 76.8125,-153.625 0,-76.8125" class="label-container" transform="translate(-76.3125, 76.8125)"/><g class="label" style="" transform="translate(-49.8125, -12)"><rect/><foreignObject width="99.625" height="24"><div xmlns="http://www.w3.org/1999/xhtml" style="display: table-cell; white-space: nowrap; line-height: 1.5; max-width: 200px; text-align: center;"><span class="nodeLabel"><p>game_active?</p></span></div></foreignObject></g></g><g class="node default" id="my-svg-flowchart-E3-11" data-look="classic" transform="translate(669.23828125, 819.734375)"><rect class="basic label-container" style="" x="-169.5859375" y="-27" width="339.171875" height="54"/><g class="label" style="" transform="translate(-139.5859375, -12)"><rect/><foreignObject width="279.171875" height="24"><div xmlns="http://www.w3.org/1999/xhtml" style="display: table; white-space: break-spaces; line-height: 1.5; max-width: 200px; text-align: center; width: 200px;"><span class="nodeLabel"><p>MOVE_ERROR_GAME_NOT_ACTIVE</p></span></div></foreignObject></g></g><g class="node default" id="my-svg-flowchart-SRC-13" data-look="classic" transform="translate(1018.82421875, 819.734375)"><rect class="basic label-container" style="" x="-130" y="-39" width="260" height="78"/><g class="label" style="" transform="translate(-100, -24)"><rect/><foreignObject width="200" height="48"><div xmlns="http://www.w3.org/1999/xhtml" style="display: table; white-space: break-spaces; line-height: 1.5; max-width: 200px; text-align: center; width: 200px;"><span class="nodeLabel"><p>source_piece from board · resignation king exception</p></span></div></foreignObject></g></g><g class="node default" id="my-svg-flowchart-COLOR-15" data-look="classic" transform="translate(1018.82421875, 1030.4609375)"><polygon points="121.7265625,0 243.453125,-121.7265625 121.7265625,-243.453125 0,-121.7265625" class="label-container" transform="translate(-121.2265625, 121.7265625)"/><g class="label" style="" transform="translate(-94.7265625, -12)"><rect/><foreignObject width="189.453125" height="24"><div xmlns="http://www.w3.org/1999/xhtml" style="display: table-cell; white-space: nowrap; line-height: 1.5; max-width: 200px; text-align: center;"><span class="nodeLabel"><p>belongs to current_player?</p></span></div></foreignObject></g></g><g class="node default" id="my-svg-flowchart-E4-17" data-look="classic" transform="translate(873.515625, 1311.0078125)"><rect class="basic label-container" style="" x="-155.796875" y="-27" width="311.59375" height="54"/><g class="label" style="" transform="translate(-125.796875, -12)"><rect/><foreignObject width="251.59375" height="24"><div xmlns="http://www.w3.org/1999/xhtml" style="display: table; white-space: break-spaces; line-height: 1.5; max-width: 200px; text-align: center; width: 200px;"><span class="nodeLabel"><p>MOVE_ERROR_WRONG_COLOR</p></span></div></foreignObject></g></g><g class="node default" id="my-svg-flowchart-OWN-19" data-look="classic" transform="translate(1164.1328125, 1311.0078125)"><polygon points="84.8203125,0 169.640625,-84.8203125 84.8203125,-169.640625 0,-84.8203125" class="label-container" transform="translate(-84.3203125, 84.8203125)"/><g class="label" style="" transform="translate(-57.8203125, -12)"><rect/><foreignObject width="115.640625" height="24"><div xmlns="http://www.w3.org/1999/xhtml" style="display: table-cell; white-space: nowrap; line-height: 1.5; max-width: 200px; text-align: center;"><span class="nodeLabel"><p>dest own piece?</p></span></div></foreignObject></g></g><g class="node default" id="my-svg-flowchart-E5-21" data-look="classic" transform="translate(974.02734375, 1608.828125)"><rect class="basic label-container" style="" x="-191.2109375" y="-27" width="382.421875" height="54"/><g class="label" style="" transform="translate(-161.2109375, -12)"><rect/><foreignObject width="322.421875" height="24"><div xmlns="http://www.w3.org/1999/xhtml" style="display: table; white-space: break-spaces; line-height: 1.5; max-width: 200px; text-align: center; width: 200px;"><span class="nodeLabel"><p>MOVE_ERROR_DESTINATION_OCCUPIED</p></span></div></foreignObject></g></g><g class="node default" id="my-svg-flowchart-CAST-23" data-look="classic" transform="translate(1354.23828125, 1608.828125)"><polygon points="139,0 278,-139 139,-278 0,-139" class="label-container" transform="translate(-138.5, 139)"/><g class="label" style="" transform="translate(-100, -24)"><rect/><foreignObject width="200" height="48"><div xmlns="http://www.w3.org/1999/xhtml" style="display: table; white-space: break-spaces; line-height: 1.5; max-width: 200px; text-align: center; width: 200px;"><span class="nodeLabel"><p>castling — expected rook move?</p></span></div></foreignObject></g></g><g class="node default" id="my-svg-flowchart-SKIP-25" data-look="classic" transform="translate(211.6640625, 2041.7421875)"><rect class="basic label-container" style="" x="-130" y="-39" width="260" height="78"/><g class="label" style="" transform="translate(-100, -24)"><rect/><foreignObject width="200" height="48"><div xmlns="http://www.w3.org/1999/xhtml" style="display: table; white-space: break-spaces; line-height: 1.5; max-width: 200px; text-align: center; width: 200px;"><span class="nodeLabel"><p>skip standard rook geometry</p></span></div></foreignObject></g></g><g class="node default" id="my-svg-flowchart-PIECE-27" data-look="classic" transform="translate(1550.8671875, 1848.828125)"><rect class="basic label-container" style="" x="-169.21875" y="-27" width="338.4375" height="54"/><g class="label" style="" transform="translate(-139.21875, -12)"><rect/><foreignObject width="278.4375" height="24"><div xmlns="http://www.w3.org/1999/xhtml" style="display: table; white-space: break-spaces; line-height: 1.5; max-width: 200px; text-align: center; width: 200px;"><span class="nodeLabel"><p>game_validate_piece_move_enhanced</p></span></div></foreignObject></g></g><g class="node default" id="my-svg-flowchart-E_CAST-29" data-look="classic" transform="translate(1157.609375, 1848.828125)"><rect class="basic label-container" style="" x="-174.0390625" y="-27" width="348.078125" height="54"/><g class="label" style="" transform="translate(-144.0390625, -12)"><rect/><foreignObject width="288.078125" height="24"><div xmlns="http://www.w3.org/1999/xhtml" style="display: table; white-space: break-spaces; line-height: 1.5; max-width: 200px; text-align: center; width: 200px;"><span class="nodeLabel"><p>MOVE_ERROR_CASTLING_BLOCKED</p></span></div></foreignObject></g></g><g class="node default" id="my-svg-flowchart-CHECK-31" data-look="classic" transform="translate(536.171875, 2411.203125)"><polygon points="179.546875,0 359.09375,-179.546875 179.546875,-359.09375 0,-179.546875" class="label-container" transform="translate(-179.046875, 179.546875)"/><g class="label" style="" transform="translate(-152.546875, -12)"><rect/><foreignObject width="305.09375" height="24"><div xmlns="http://www.w3.org/1999/xhtml" style="display: table; white-space: break-spaces; line-height: 1.5; max-width: 200px; text-align: center; width: 200px;"><span class="nodeLabel"><p>game_would_move_leave_king_in_check?</p></span></div></foreignObject></g></g><g class="node default" id="my-svg-flowchart-PE-33" data-look="classic" transform="translate(1550.8671875, 2041.7421875)"><polygon points="115.9140625,0 231.828125,-115.9140625 115.9140625,-231.828125 0,-115.9140625" class="label-container" transform="translate(-115.4140625, 115.9140625)"/><g class="label" style="" transform="translate(-88.9140625, -12)"><rect/><foreignObject width="177.828125" height="24"><div xmlns="http://www.w3.org/1999/xhtml" style="display: table-cell; white-space: nowrap; line-height: 1.5; max-width: 200px; text-align: center;"><span class="nodeLabel"><p>MOVE_ERROR_NONE?</p></span></div></foreignObject></g></g><g class="node default" id="my-svg-flowchart-EP-35" data-look="classic" transform="translate(1571.54296875, 2411.203125)"><rect class="basic label-container" style="" x="-87.3671875" y="-27" width="174.734375" height="54"/><g class="label" style="" transform="translate(-57.3671875, -12)"><rect/><foreignObject width="114.734375" height="24"><div xmlns="http://www.w3.org/1999/xhtml" style="display: table-cell; white-space: nowrap; line-height: 1.5; max-width: 200px; text-align: center;"><span class="nodeLabel"><p>own piece_error</p></span></div></foreignObject></g></g><g class="node default" id="my-svg-flowchart-E6-39" data-look="classic" transform="translate(215.8984375, 2691.75)"><rect class="basic label-container" style="" x="-155.8125" y="-27" width="311.625" height="54"/><g class="label" style="" transform="translate(-125.8125, -12)"><rect/><foreignObject width="251.625" height="24"><div xmlns="http://www.w3.org/1999/xhtml" style="display: table; white-space: break-spaces; line-height: 1.5; max-width: 200px; text-align: center; width: 200px;"><span class="nodeLabel"><p>MOVE_ERROR_KING_IN_CHECK</p></span></div></foreignObject></g></g><g class="node default" id="my-svg-flowchart-OK-41" data-look="classic" transform="translate(536.171875, 2691.75)"><rect class="basic label-container" style="" x="-114.4609375" y="-27" width="228.921875" height="54"/><g class="label" style="" transform="translate(-84.4609375, -12)"><rect/><foreignObject width="168.921875" height="24"><div xmlns="http://www.w3.org/1999/xhtml" style="display: table-cell; white-space: nowrap; line-height: 1.5; max-width: 200px; text-align: center;"><span class="nodeLabel"><p>MOVE_ERROR_NONE</p></span></div></foreignObject></g></g></g></g></g><defs><filter id="my-svg-drop-shadow" height="130%" width="130%"><feDropShadow dx="4" dy="4" stdDeviation="0" flood-opacity="0.06" flood-color="#FFFFFF"/></filter></defs><defs><filter id="my-svg-drop-shadow-small" height="150%" width="150%"><feDropShadow dx="2" dy="2" stdDeviation="0" flood-opacity="0.06" flood-color="#FFFFFF"/></filter></defs><linearGradient id="my-svg-gradient" gradientUnits="objectBoundingBox" x1="0%" y1="0%" x2="100%" y2="0%"><stop offset="0%" stop-color="#cccccc" stop-opacity="1"/><stop offset="100%" stop-color="hsl(180, 0%, 18.3529411765%)" stop-opacity="1"/></linearGradient></svg>