<svg id="my-svg" width="100%" xmlns="http://www.w3.org/2000/svg" xmlns:xlink="http://www.w3.org/1999/xlink" class="flowchart" style="max-width: 2284.11px; background-color: transparent;" viewBox="0 0 2284.109375 1546.65625" role="graphics-document document" aria-roledescription="flowchart-v2"><style>#my-svg{font-size:16px;fill:#ccc;}@keyframes edge-animation-frame{from{stroke-dashoffset:0;}}@keyframes dash{to{stroke-dashoffset:0;}}#my-svg .edge-animation-slow{stroke-dasharray:9,5!important;stroke-dashoffset:900;animation:dash 50s linear infinite;stroke-linecap:round;}#my-svg .edge-animation-fast{stroke-dasharray:9,5!important;stroke-dashoffset:900;animation:dash 20s linear infinite;stroke-linecap:round;}#my-svg .error-icon{fill:#a44141;}#my-svg .error-text{fill:#ddd;stroke:#ddd;}#my-svg .edge-thickness-normal{stroke-width:1px;}#my-svg .edge-thickness-thick{stroke-width:3.5px;}#my-svg .edge-pattern-solid{stroke-dasharray:0;}#my-svg .edge-thickness-invisible{stroke-width:0;fill:none;}#my-svg .edge-pattern-dashed{stroke-dasharray:3;}#my-svg .edge-pattern-dotted{stroke-dasharray:2;}#my-svg .marker{fill:#94a3b8;stroke:#94a3b8;}#my-svg .marker.cross{stroke:#94a3b8;}#my-svg svg{font-size:16px;}#my-svg p{margin:0;}#my-svg .label{color:#ccc;}#my-svg .cluster-label text{fill:#f8fafc;}#my-svg .cluster-label span{color:#f8fafc;}#my-svg .cluster-label span p{background-color:transparent;}#my-svg .label text,#my-svg span{fill:#ccc;color:#ccc;}#my-svg .node rect,#my-svg .node circle,#my-svg .node ellipse,#my-svg .node polygon,#my-svg .node path{fill:#1f2020;stroke:#ccc;stroke-width:1px;}#my-svg .rough-node .label text,#my-svg .node .label text,#my-svg .image-shape .label,#my-svg .icon-shape .label{text-anchor:middle;}#my-svg .node .katex path{fill:#000;stroke:#000;stroke-width:1px;}#my-svg .rough-node .label,#my-svg .node .label,#my-svg .image-shape .label,#my-svg .icon-shape .label{text-align:center;}#my-svg .node.clickable{cursor:pointer;}#my-svg .root .anchor path{fill:#94a3b8!important;stroke-width:0;stroke:#94a3b8;}#my-svg .arrowheadPath{fill:lightgrey;}#my-svg .edgePath .path{stroke:#94a3b8;stroke-width:1px;}#my-svg .flowchart-link{stroke:#94a3b8;fill:none;}#my-svg .edgeLabel{background-color:#1e293b;text-align:center;}#my-svg .edgeLabel p{background-color:#1e293b;}#my-svg .edgeLabel rect{opacity:0.5;background-color:#1e293b;fill:#1e293b;}#my-svg .labelBkg{background-color:rgba(30, 41, 59, 0.5);}#my-svg .cluster rect{fill:#0f172a;stroke:#334155;stroke-width:1px;}#my-svg .cluster text{fill:#f8fafc;}#my-svg .cluster span{color:#f8fafc;}#my-svg div.mermaidTooltip{position:absolute;text-align:center;max-width:200px;padding:2px;font-size:12px;background:hsl(20, 1.5873015873%, 12.3529411765%);border:1px solid rgba(255, 255, 255, 0.25);border-radius:2px;pointer-events:none;z-index:100;}#my-svg .flowchartTitleText{text-anchor:middle;font-size:18px;fill:#ccc;}#my-svg rect.text{fill:none;stroke-width:0;}#my-svg .icon-shape,#my-svg .image-shape{background-color:#1e293b;text-align:center;}#my-svg .icon-shape p,#my-svg .image-shape p{background-color:#1e293b;padding:2px;}#my-svg .icon-shape .label rect,#my-svg .image-shape .label rect{opacity:0.5;background-color:#1e293b;fill:#1e293b;}#my-svg .label-icon{display:inline-block;height:1em;overflow:visible;vertical-align:-0.125em;}#my-svg .node .label-icon path{fill:currentColor;stroke:revert;stroke-width:revert;}#my-svg .node .neo-node{stroke:#ccc;}#my-svg [data-look="neo"].node rect,#my-svg [data-look="neo"].cluster rect,#my-svg [data-look="neo"].node polygon{stroke:url(#my-svg-gradient);filter:drop-shadow( 1px 2px 2px rgba(185,185,185,1));}#my-svg [data-look="neo"].swimlane.cluster rect{filter:none;}#my-svg [data-look="neo"].node path{stroke:url(#my-svg-gradient);stroke-width:1px;}#my-svg [data-look="neo"].node .outer-path{filter:drop-shadow( 1px 2px 2px rgba(185,185,185,1));}#my-svg [data-look="neo"].node .neo-line path{stroke:#ccc;filter:none;}#my-svg [data-look="neo"].node circle{stroke:url(#my-svg-gradient);filter:drop-shadow( 1px 2px 2px rgba(185,185,185,1));}#my-svg [data-look="neo"].node circle .state-start{fill:#000000;}#my-svg [data-look="neo"].icon-shape .icon{fill:url(#my-svg-gradient);filter:drop-shadow( 1px 2px 2px rgba(185,185,185,1));}#my-svg [data-look="neo"].icon-shape .icon-neo path{stroke:url(#my-svg-gradient);filter:drop-shadow( 1px 2px 2px rgba(185,185,185,1));}#my-svg :root{--mermaid-font-family:"trebuchet ms",verdana,arial,sans-serif;}</style><g><marker id="my-svg_flowchart-v2-pointEnd" class="marker flowchart-v2" viewBox="0 0 10 10" refX="5" refY="5" markerUnits="userSpaceOnUse" markerWidth="8" markerHeight="8" orient="auto"><path d="M 0 0 L 10 5 L 0 10 z" class="arrowMarkerPath" style="stroke-width: 1; stroke-dasharray: 1, 0;"/></marker><marker id="my-svg_flowchart-v2-pointStart" class="marker flowchart-v2" viewBox="0 0 10 10" refX="4.5" refY="5" markerUnits="userSpaceOnUse" markerWidth="8" markerHeight="8" orient="auto"><path d="M 0 5 L 10 10 L 10 0 z" class="arrowMarkerPath" style="stroke-width: 1; stroke-dasharray: 1, 0;"/></marker><marker id="my-svg_flowchart-v2-pointEnd-margin" class="marker flowchart-v2" viewBox="0 0 11.5 14" refX="11.5" refY="7" markerUnits="userSpaceOnUse" markerWidth="10.5" markerHeight="14" orient="auto"><path d="M 0 0 L 11.5 7 L 0 14 z" class="arrowMarkerPath" style="stroke-width: 0; stroke-dasharray: 1, 0;"/></marker><marker id="my-svg_flowchart-v2-pointStart-margin" class="marker flowchart-v2" viewBox="0 0 11.5 14" refX="1" refY="7" markerUnits="userSpaceOnUse" markerWidth="11.5" markerHeight="14" orient="auto"><polygon points="0,7 11.5,14 11.5,0" class="arrowMarkerPath" style="stroke-width: 0; stroke-dasharray: 1, 0;"/></marker><marker id="my-svg_flowchart-v2-circleEnd" class="marker flowchart-v2" viewBox="0 0 10 10" refX="11" refY="5" markerUnits="userSpaceOnUse" markerWidth="11" markerHeight="11" orient="auto"><circle cx="5" cy="5" r="5" class="arrowMarkerPath" style="stroke-width: 1; stroke-dasharray: 1, 0;"/></marker><marker id="my-svg_flowchart-v2-circleStart" class="marker flowchart-v2" viewBox="0 0 10 10" refX="-1" refY="5" markerUnits="userSpaceOnUse" markerWidth="11" markerHeight="11" orient="auto"><circle cx="5" cy="5" r="5" class="arrowMarkerPath" style="stroke-width: 1; stroke-dasharray: 1, 0;"/></marker><marker id="my-svg_flowchart-v2-circleEnd-margin" class="marker flowchart-v2" viewBox="0 0 10 10" refY="5" refX="12.25" markerUnits="userSpaceOnUse" markerWidth="14" markerHeight="14" orient="auto"><circle cx="5" cy="5" r="5" class="arrowMarkerPath" style="stroke-width: 0; stroke-dasharray: 1, 0;"/></marker><marker id="my-svg_flowchart-v2-circleStart-margin" class="marker flowchart-v2" viewBox="0 0 10 10" refX="-2" refY="5" markerUnits="userSpaceOnUse" markerWidth="14" markerHeight="14" orient="auto"><circle cx="5" cy="5" r="5" class="arrowMarkerPath" style="stroke-width: 0; stroke-dasharray: 1, 0;"/></marker><marker id="my-svg_flowchart-v2-crossEnd" class="marker cross flowchart-v2" viewBox="0 0 11 11" refX="12" refY="5.2" markerUnits="userSpaceOnUse" markerWidth="11" markerHeight="11" orient="auto"><path d="M 1,1 l 9,9 M 10,1 l -9,9" class="arrowMarkerPath" style="stroke-width: 2; stroke-dasharray: 1, 0;"/></marker><marker id="my-svg_flowchart-v2-crossStart" class="marker cross flowchart-v2" viewBox="0 0 11 11" refX="-1" refY="5.2" markerUnits="userSpaceOnUse" markerWidth="11" markerHeight="11" orient="auto"><path d="M 1,1 l 9,9 M 10,1 l -9,9" class="arrowMarkerPath" style="stroke-width: 2; stroke-dasharray: 1, 0;"/></marker><marker id="my-svg_flowchart-v2-crossEnd-margin" class="marker cross flowchart-v2" viewBox="0 0 15 15" refX="17.7" refY="7.5" markerUnits="userSpaceOnUse" markerWidth="12" markerHeight="12" orient="auto"><path d="M 1,1 L 14,14 M 1,14 L 14,1" class="arrowMarkerPath" style="stroke-width: 2.5;"/></marker><marker id="my-svg_flowchart-v2-crossStart-margin" class="marker cross flowchart-v2" viewBox="0 0 15 15" refX="-3.5" refY="7.5" markerUnits="userSpaceOnUse" markerWidth="12" markerHeight="12" orient="auto"><path d="M 1,1 L 14,14 M 1,14 L 14,1" class="arrowMarkerPath" style="stroke-width: 2.5; stroke-dasharray: 1, 0;"/></marker><g class="root"><g class="clusters"/><g class="edgePaths"><path d="M1179.961,47.5L1179.878,51.583C1179.794,55.667,1179.628,63.833,1179.544,71.417C1179.461,79,1179.461,86,1179.461,89.5L1179.461,93" id="my-svg-L_P_BLINK_0" class="edge-thickness-normal edge-pattern-solid edge-thickness-normal edge-pattern-solid flowchart-link" style=";" data-edge="true" data-et="edge" data-id="L_P_BLINK_0" data-points="W3sieCI6MTE3OS45NjA5Mzc1LCJ5Ijo0Ny41fSx7IngiOjExNzkuNDYwOTM3NSwieSI6NzJ9LHsieCI6MTE3OS40NjA5Mzc1LCJ5Ijo5N31d" data-look="classic" marker-end="url(#my-svg_flowchart-v2-pointEnd)"/><path d="M1179.461,151L1179.461,155.167C1179.461,159.333,1179.461,167.667,1179.461,175.333C1179.461,183,1179.461,190,1179.461,193.5L1179.461,197" id="my-svg-L_BLINK_RES_0" class="edge-thickness-normal edge-pattern-solid edge-thickness-normal edge-pattern-solid flowchart-link" style=";" data-edge="true" data-et="edge" data-id="L_BLINK_RES_0" data-points="W3sieCI6MTE3OS40NjA5Mzc1LCJ5IjoxNTF9LHsieCI6MTE3OS40NjA5Mzc1LCJ5IjoxNzZ9LHsieCI6MTE3OS40NjA5Mzc1LCJ5IjoyMDF9XQ==" data-look="classic" marker-end="url(#my-svg_flowchart-v2-pointEnd)"/><path d="M1179.461,255L1179.461,259.167C1179.461,263.333,1179.461,271.667,1179.461,279.333C1179.461,287,1179.461,294,1179.461,297.5L1179.461,301" id="my-svg-L_RES_Q_0" class="edge-thickness-normal edge-pattern-solid edge-thickness-normal edge-pattern-solid flowchart-link" style=";" data-edge="true" data-et="edge" data-id="L_RES_Q_0" data-points="W3sieCI6MTE3OS40NjA5Mzc1LCJ5IjoyNTV9LHsieCI6MTE3OS40NjA5Mzc1LCJ5IjoyODB9LHsieCI6MTE3OS40NjA5Mzc1LCJ5IjozMDV9XQ==" data-look="classic" marker-end="url(#my-svg_flowchart-v2-pointEnd)"/><path d="M1179.461,583L1179.461,587.167C1179.461,591.333,1179.461,599.667,1179.461,607.333C1179.461,615,1179.461,622,1179.461,625.5L1179.461,629" id="my-svg-L_Q_DRAIN_0" class="edge-thickness-normal edge-pattern-solid edge-thickness-normal edge-pattern-solid flowchart-link" style=";" data-edge="true" data-et="edge" data-id="L_Q_DRAIN_0" data-points="W3sieCI6MTE3OS40NjA5Mzc1LCJ5Ijo1ODN9LHsieCI6MTE3OS40NjA5Mzc1LCJ5Ijo2MDh9LHsieCI6MTE3OS40NjA5Mzc1LCJ5Ijo2MzN9XQ==" data-look="classic" marker-end="url(#my-svg_flowchart-v2-pointEnd)"/><path d="M1179.461,711L1179.461,715.167C1179.461,719.333,1179.461,727.667,1179.461,735.333C1179.461,743,1179.461,750,1179.461,753.5L1179.461,757" id="my-svg-L_DRAIN_HA_0" class="edge-thickness-normal edge-pattern-solid edge-thickness-normal edge-pattern-solid flowchart-link" style=";" data-edge="true" data-et="edge" data-id="L_DRAIN_HA_0" data-points="W3sieCI6MTE3OS40NjA5Mzc1LCJ5Ijo3MTF9LHsieCI6MTE3OS40NjA5Mzc1LCJ5Ijo3MzZ9LHsieCI6MTE3OS40NjA5Mzc1LCJ5Ijo3NjF9XQ==" data-look="classic" marker-end="url(#my-svg_flowchart-v2-pointEnd)"/><path d="M1215.03,911.947L1222.487,924.041C1229.944,936.136,1244.859,960.326,1252.316,977.921C1259.773,995.516,1259.773,1006.516,1259.773,1012.016L1259.773,1017.516" id="my-svg-L_HA_HA_REP_0" class="edge-thickness-normal edge-pattern-solid edge-thickness-normal edge-pattern-solid flowchart-link" style=";" data-edge="true" data-et="edge" data-id="L_HA_HA_REP_0" data-points="W3sieCI6MTIxNS4wMjk5MDI0NTc1MTg2LCJ5Ijo5MTEuOTQ2NjYwMDQyNDgxM30seyJ4IjoxMjU5Ljc3MzQzNzUsInkiOjk4NC41MTU2MjV9LHsieCI6MTI1OS43NzM0Mzc1LCJ5IjoxMDIxLjUxNTYyNX1d" data-look="classic" marker-end="url(#my-svg_flowchart-v2-pointEnd)"/><path d="M1143.892,911.947L1136.435,924.041C1128.977,936.136,1114.063,960.326,1106.606,983.087C1099.148,1005.849,1099.148,1027.182,1099.148,1046.516C1099.148,1065.849,1099.148,1083.182,1106.91,1100.699C1114.672,1118.215,1130.195,1135.914,1137.957,1144.764L1145.718,1153.613" id="my-svg-L_HA_SW_0" class="edge-thickness-normal edge-pattern-solid edge-thickness-normal edge-pattern-solid flowchart-link" style=";" data-edge="true" data-et="edge" data-id="L_HA_SW_0" data-points="W3sieCI6MTE0My44OTE5NzI1NDI0ODE0LCJ5Ijo5MTEuOTQ2NjYwMDQyNDgxM30seyJ4IjoxMDk5LjE0ODQzNzUsInkiOjk4NC41MTU2MjV9LHsieCI6MTA5OS4xNDg0Mzc1LCJ5IjoxMDQ4LjUxNTYyNX0seyJ4IjoxMDk5LjE0ODQzNzUsInkiOjExMDAuNTE1NjI1fSx7IngiOjExNDguMzU1ODU5ODg5ODkxNSwieSI6MTE1Ni42MjA3MDI2MTAxMDg1fV0=" data-look="classic" marker-end="url(#my-svg_flowchart-v2-pointEnd)"/><path d="M1259.773,1075.516L1259.773,1079.682C1259.773,1083.849,1259.773,1092.182,1252.012,1105.199C1244.25,1118.215,1228.727,1135.914,1220.965,1144.764L1213.204,1153.613" id="my-svg-L_HA_REP_SW_0" class="edge-thickness-normal edge-pattern-solid edge-thickness-normal edge-pattern-solid flowchart-link" style=";" data-edge="true" data-et="edge" data-id="L_HA_REP_SW_0" data-points="W3sieCI6MTI1OS43NzM0Mzc1LCJ5IjoxMDc1LjUxNTYyNX0seyJ4IjoxMjU5Ljc3MzQzNzUsInkiOjExMDAuNTE1NjI1fSx7IngiOjEyMTAuNTY2MDE1MTEwMTA4NSwieSI6MTE1Ni42MjA3MDI2MTAxMDg1fV0=" data-look="classic" marker-end="url(#my-svg_flowchart-v2-pointEnd)"/><path d="M1118.271,1197.466L954.892,1211.831C791.514,1226.196,464.757,1254.926,301.378,1274.791C138,1294.656,138,1305.656,138,1311.156L138,1316.656" id="my-svg-L_SW_NG_0" class="edge-thickness-normal edge-pattern-solid edge-thickness-normal edge-pattern-solid flowchart-link" style=";" data-edge="true" data-et="edge" data-id="L_SW_NG_0" data-points="W3sieCI6MTExOC4yNzA3NjI4NTQ4NDUzLCJ5IjoxMTk3LjQ2NjA3NTM1NDg0NTN9LHsieCI6MTM4LCJ5IjoxMjgzLjY1NjI1fSx7IngiOjEzOCwieSI6MTMyMC42NTYyNX1d" data-look="classic" marker-end="url(#my-svg_flowchart-v2-pointEnd)"/><path d="M1120.314,1199.509L1008.567,1213.534C896.821,1227.558,673.329,1255.607,561.582,1275.132C449.836,1294.656,449.836,1305.656,449.836,1311.156L449.836,1316.656" id="my-svg-L_SW_MV_0" class="edge-thickness-normal edge-pattern-solid edge-thickness-normal edge-pattern-solid flowchart-link" style=";" data-edge="true" data-et="edge" data-id="L_SW_MV_0" data-points="W3sieCI6MTEyMC4zMTM3ODUxNDk2NzIyLCJ5IjoxMTk5LjUwOTA5NzY0OTY3MjJ9LHsieCI6NDQ5LjgzNTkzNzUsInkiOjEyODMuNjU2MjV9LHsieCI6NDQ5LjgzNTkzNzUsInkiOjEzMjAuNjU2MjV9XQ==" data-look="classic" marker-end="url(#my-svg_flowchart-v2-pointEnd)"/><path d="M1125.819,1205.015L1071.438,1218.122C1017.057,1231.228,908.294,1257.442,853.913,1276.049C799.531,1294.656,799.531,1305.656,799.531,1311.156L799.531,1316.656" id="my-svg-L_SW_PD_0" class="edge-thickness-normal edge-pattern-solid edge-thickness-normal edge-pattern-solid flowchart-link" style=";" data-edge="true" data-et="edge" data-id="L_SW_PD_0" data-points="W3sieCI6MTEyNS44MTkyODczOTQxNjI1LCJ5IjoxMjA1LjAxNDU5OTg5NDE2MjV9LHsieCI6Nzk5LjUzMTI1LCJ5IjoxMjgzLjY1NjI1fSx7IngiOjc5OS41MzEyNSwieSI6MTMyMC42NTYyNX1d" data-look="classic" marker-end="url(#my-svg_flowchart-v2-pointEnd)"/><path d="M1179.461,1258.656L1179.461,1262.823C1179.461,1266.99,1179.461,1275.323,1179.461,1286.99C1179.461,1298.656,1179.461,1313.656,1179.461,1321.156L1179.461,1328.656" id="my-svg-L_SW_PR_0" class="edge-thickness-normal edge-pattern-solid edge-thickness-normal edge-pattern-solid flowchart-link" style=";" data-edge="true" data-et="edge" data-id="L_SW_PR_0" data-points="W3sieCI6MTE3OS40NjA5Mzc1LCJ5IjoxMjU4LjY1NjI1fSx7IngiOjExNzkuNDYwOTM3NSwieSI6MTI4My42NTYyNX0seyJ4IjoxMTc5LjQ2MDkzNzUsInkiOjEzMzIuNjU2MjV9XQ==" data-look="classic" marker-end="url(#my-svg_flowchart-v2-pointEnd)"/><path d="M1232.048,1206.07L1280.676,1219.001C1329.305,1231.932,1426.563,1257.794,1475.192,1278.225C1523.82,1298.656,1523.82,1313.656,1523.82,1321.156L1523.82,1328.656" id="my-svg-L_SW_UNDO_0" class="edge-thickness-normal edge-pattern-solid edge-thickness-normal edge-pattern-solid flowchart-link" style=";" data-edge="true" data-et="edge" data-id="L_SW_UNDO_0" data-points="W3sieCI6MTIzMi4wNDc2NTQ3MjM4NzUsInkiOjEyMDYuMDY5NTMyNzc2MTI1fSx7IngiOjE1MjMuODIwMzEyNSwieSI6MTI4My42NTYyNX0seyJ4IjoxNTIzLjgyMDMxMjUsInkiOjEzMzIuNjU2MjV9XQ==" data-look="classic" marker-end="url(#my-svg_flowchart-v2-pointEnd)"/><path d="M1237.884,1200.233L1337.588,1214.137C1437.293,1228.041,1636.701,1255.849,1736.405,1273.252C1836.109,1290.656,1836.109,1297.656,1836.109,1301.156L1836.109,1304.656" id="my-svg-L_SW_RD_0" class="edge-thickness-normal edge-pattern-solid edge-thickness-normal edge-pattern-solid flowchart-link" style=";" data-edge="true" data-et="edge" data-id="L_SW_RD_0" data-points="W3sieCI6MTIzNy44ODQwODEzODI3MzcxLCJ5IjoxMjAwLjIzMzEwNjExNzI2Mjl9LHsieCI6MTgzNi4xMDkzNzUsInkiOjEyODMuNjU2MjV9LHsieCI6MTgzNi4xMDkzNzUsInkiOjEzMDguNjU2MjV9XQ==" data-look="classic" marker-end="url(#my-svg_flowchart-v2-pointEnd)"/><path d="M1240.271,1197.846L1391.244,1212.148C1542.217,1226.45,1844.163,1255.053,1995.136,1274.855C2146.109,1294.656,2146.109,1305.656,2146.109,1311.156L2146.109,1316.656" id="my-svg-L_SW_OT_0" class="edge-thickness-normal edge-pattern-solid edge-thickness-normal edge-pattern-solid flowchart-link" style=";" data-edge="true" data-et="edge" data-id="L_SW_OT_0" data-points="W3sieCI6MTI0MC4yNzA3NTQ1MjY5NzI3LCJ5IjoxMTk3Ljg0NjQzMjk3MzAyNzN9LHsieCI6MjE0Ni4xMDkzNzUsInkiOjEyODMuNjU2MjV9LHsieCI6MjE0Ni4xMDkzNzUsInkiOjEzMjAuNjU2MjV9XQ==" data-look="classic" marker-end="url(#my-svg_flowchart-v2-pointEnd)"/><path d="M138,1398.656L138,1404.823C138,1410.99,138,1423.323,138,1432.99C138,1442.656,138,1449.656,138,1453.156L138,1456.656" id="my-svg-L_NG_FN_0" class="edge-thickness-normal edge-pattern-solid edge-thickness-normal edge-pattern-solid flowchart-link" style=";" data-edge="true" data-et="edge" data-id="L_NG_FN_0" data-points="W3sieCI6MTM4LCJ5IjoxMzk4LjY1NjI1fSx7IngiOjEzOCwieSI6MTQzNS42NTYyNX0seyJ4IjoxMzgsInkiOjE0NjAuNjU2MjV9XQ==" data-look="classic" marker-end="url(#my-svg_flowchart-v2-pointEnd)"/><path d="M449.836,1398.656L449.836,1404.823C449.836,1410.99,449.836,1423.323,449.836,1434.99C449.836,1446.656,449.836,1457.656,449.836,1463.156L449.836,1468.656" id="my-svg-L_MV_PCM_0" class="edge-thickness-normal edge-pattern-solid edge-thickness-normal edge-pattern-solid flowchart-link" style=";" data-edge="true" data-et="edge" data-id="L_MV_PCM_0" data-points="W3sieCI6NDQ5LjgzNTkzNzUsInkiOjEzOTguNjU2MjV9LHsieCI6NDQ5LjgzNTkzNzUsInkiOjE0MzUuNjU2MjV9LHsieCI6NDQ5LjgzNTkzNzUsInkiOjE0NzIuNjU2MjV9XQ==" data-look="classic" marker-end="url(#my-svg_flowchart-v2-pointEnd)"/><path d="M799.531,1398.656L799.531,1404.823C799.531,1410.99,799.531,1423.323,799.531,1434.99C799.531,1446.656,799.531,1457.656,799.531,1463.156L799.531,1468.656" id="my-svg-L_PD_PPP_0" class="edge-thickness-normal edge-pattern-solid edge-thickness-normal edge-pattern-solid flowchart-link" style=";" data-edge="true" data-et="edge" data-id="L_PD_PPP_0" data-points="W3sieCI6Nzk5LjUzMTI1LCJ5IjoxMzk4LjY1NjI1fSx7IngiOjc5OS41MzEyNSwieSI6MTQzNS42NTYyNX0seyJ4Ijo3OTkuNTMxMjUsInkiOjE0NzIuNjU2MjV9XQ==" data-look="classic" marker-end="url(#my-svg_flowchart-v2-pointEnd)"/><path d="M1179.461,1386.656L1179.461,1394.823C1179.461,1402.99,1179.461,1419.323,1179.461,1432.99C1179.461,1446.656,1179.461,1457.656,1179.461,1463.156L1179.461,1468.656" id="my-svg-L_PR_PPR_0" class="edge-thickness-normal edge-pattern-solid edge-thickness-normal edge-pattern-solid flowchart-link" style=";" data-edge="true" data-et="edge" data-id="L_PR_PPR_0" data-points="W3sieCI6MTE3OS40NjA5Mzc1LCJ5IjoxMzg2LjY1NjI1fSx7IngiOjExNzkuNDYwOTM3NSwieSI6MTQzNS42NTYyNX0seyJ4IjoxMTc5LjQ2MDkzNzUsInkiOjE0NzIuNjU2MjV9XQ==" data-look="classic" marker-end="url(#my-svg_flowchart-v2-pointEnd)"/><path d="M1523.82,1386.656L1523.82,1394.823C1523.82,1402.99,1523.82,1419.323,1523.82,1432.99C1523.82,1446.656,1523.82,1457.656,1523.82,1463.156L1523.82,1468.656" id="my-svg-L_UNDO_U_0" class="edge-thickness-normal edge-pattern-solid edge-thickness-normal edge-pattern-solid flowchart-link" style=";" data-edge="true" data-et="edge" data-id="L_UNDO_U_0" data-points="W3sieCI6MTUyMy44MjAzMTI1LCJ5IjoxMzg2LjY1NjI1fSx7IngiOjE1MjMuODIwMzEyNSwieSI6MTQzNS42NTYyNX0seyJ4IjoxNTIzLjgyMDMxMjUsInkiOjE0NzIuNjU2MjV9XQ==" data-look="classic" marker-end="url(#my-svg_flowchart-v2-pointEnd)"/><path d="M1836.109,1410.656L1836.109,1414.823C1836.109,1418.99,1836.109,1427.323,1836.109,1434.99C1836.109,1442.656,1836.109,1449.656,1836.109,1453.156L1836.109,1456.656" id="my-svg-L_RD_SEND_0" class="edge-thickness-normal edge-pattern-solid edge-thickness-normal edge-pattern-solid flowchart-link" style=";" data-edge="true" data-et="edge" data-id="L_RD_SEND_0" data-points="W3sieCI6MTgzNi4xMDkzNzUsInkiOjE0MTAuNjU2MjV9LHsieCI6MTgzNi4xMDkzNzUsInkiOjE0MzUuNjU2MjV9LHsieCI6MTgzNi4xMDkzNzUsInkiOjE0NjAuNjU2MjV9XQ==" data-look="classic" marker-end="url(#my-svg_flowchart-v2-pointEnd)"/></g><g class="edgeLabels"><g class="edgeLabel"><g class="label" data-id="L_P_BLINK_0" transform="translate(0, 0)"><foreignObject width="0" height="0"><div xmlns="http://www.w3.org/1999/xhtml" class="labelBkg" style="display: table-cell; white-space: nowrap; line-height: 1.5; max-width: 200px; text-align: center;"><span class="edgeLabel"></span></div></foreignObject></g></g><g class="edgeLabel"><g class="label" data-id="L_BLINK_RES_0" transform="translate(0, 0)"><foreignObject width="0" height="0"><div xmlns="http://www.w3.org/1999/xhtml" class="labelBkg" style="display: table-cell; white-space: nowrap; line-height: 1.5; max-width: 200px; text-align: center;"><span class="edgeLabel"></span></div></foreignObject></g></g><g class="edgeLabel"><g class="label" data-id="L_RES_Q_0" transform="translate(0, 0)"><foreignObject width="0" height="0"><div xmlns="http://www.w3.org/1999/xhtml" class="labelBkg" style="display: table-cell; white-space: nowrap; line-height: 1.5; max-width: 200px; text-align: center;"><span class="edgeLabel"></span></div></foreignObject></g></g><g class="edgeLabel"><g class="label" data-id="L_Q_DRAIN_0" transform="translate(0, 0)"><foreignObject width="0" height="0"><div xmlns="http://www.w3.org/1999/xhtml" class="labelBkg" style="display: table-cell; white-space: nowrap; line-height: 1.5; max-width: 200px; text-align: center;"><span class="edgeLabel"></span></div></foreignObject></g></g><g class="edgeLabel"><g class="label" data-id="L_DRAIN_HA_0" transform="translate(0, 0)"><foreignObject width="0" height="0"><div xmlns="http://www.w3.org/1999/xhtml" class="labelBkg" style="display: table-cell; white-space: nowrap; line-height: 1.5; max-width: 200px; text-align: center;"><span class="edgeLabel"></span></div></foreignObject></g></g><g class="edgeLabel" transform="translate(1259.7734375, 984.515625)"><g class="label" data-id="L_HA_HA_REP_0" transform="translate(-8.8984375, -12)"><foreignObject width="17.796875" height="24"><div xmlns="http://www.w3.org/1999/xhtml" class="labelBkg" style="display: table-cell; white-space: nowrap; line-height: 1.5; max-width: 200px; text-align: center;"><span class="edgeLabel"><p>ne</p></span></div></foreignObject></g></g><g class="edgeLabel" transform="translate(1099.1484375, 1048.515625)"><g class="label" data-id="L_HA_SW_0" transform="translate(-13.3515625, -12)"><foreignObject width="26.703125" height="24"><div xmlns="http://www.w3.org/1999/xhtml" class="labelBkg" style="display: table-cell; white-space: nowrap; line-height: 1.5; max-width: 200px; text-align: center;"><span class="edgeLabel"><p>ano</p></span></div></foreignObject></g></g><g class="edgeLabel"><g class="label" data-id="L_HA_REP_SW_0" transform="translate(0, 0)"><foreignObject width="0" height="0"><div xmlns="http://www.w3.org/1999/xhtml" class="labelBkg" style="display: table-cell; white-space: nowrap; line-height: 1.5; max-width: 200px; text-align: center;"><span class="edgeLabel"></span></div></foreignObject></g></g><g class="edgeLabel"><g class="label" data-id="L_SW_NG_0" transform="translate(0, 0)"><foreignObject width="0" height="0"><div xmlns="http://www.w3.org/1999/xhtml" class="labelBkg" style="display: table-cell; white-space: nowrap; line-height: 1.5; max-width: 200px; text-align: center;"><span class="edgeLabel"></span></div></foreignObject></g></g><g class="edgeLabel"><g class="label" data-id="L_SW_MV_0" transform="translate(0, 0)"><foreignObject width="0" height="0"><div xmlns="http://www.w3.org/1999/xhtml" class="labelBkg" style="display: table-cell; white-space: nowrap; line-height: 1.5; max-width: 200px; text-align: center;"><span class="edgeLabel"></span></div></foreignObject></g></g><g class="edgeLabel"><g class="label" data-id="L_SW_PD_0" transform="translate(0, 0)"><foreignObject width="0" height="0"><div xmlns="http://www.w3.org/1999/xhtml" class="labelBkg" style="display: table-cell; white-space: nowrap; line-height: 1.5; max-width: 200px; text-align: center;"><span class="edgeLabel"></span></div></foreignObject></g></g><g class="edgeLabel"><g class="label" data-id="L_SW_PR_0" transform="translate(0, 0)"><foreignObject width="0" height="0"><div xmlns="http://www.w3.org/1999/xhtml" class="labelBkg" style="display: table-cell; white-space: nowrap; line-height: 1.5; max-width: 200px; text-align: center;"><span class="edgeLabel"></span></div></foreignObject></g></g><g class="edgeLabel"><g class="label" data-id="L_SW_UNDO_0" transform="translate(0, 0)"><foreignObject width="0" height="0"><div xmlns="http://www.w3.org/1999/xhtml" class="labelBkg" style="display: table-cell; white-space: nowrap; line-height: 1.5; max-width: 200px; text-align: center;"><span class="edgeLabel"></span></div></foreignObject></g></g><g class="edgeLabel"><g class="label" data-id="L_SW_RD_0" transform="translate(0, 0)"><foreignObject width="0" height="0"><div xmlns="http://www.w3.org/1999/xhtml" class="labelBkg" style="display: table-cell; white-space: nowrap; line-height: 1.5; max-width: 200px; text-align: center;"><span class="edgeLabel"></span></div></foreignObject></g></g><g class="edgeLabel"><g class="label" data-id="L_SW_OT_0" transform="translate(0, 0)"><foreignObject width="0" height="0"><div xmlns="http://www.w3.org/1999/xhtml" class="labelBkg" style="display: table-cell; white-space: nowrap; line-height: 1.5; max-width: 200px; text-align: center;"><span class="edgeLabel"></span></div></foreignObject></g></g><g class="edgeLabel"><g class="label" data-id="L_NG_FN_0" transform="translate(0, 0)"><foreignObject width="0" height="0"><div xmlns="http://www.w3.org/1999/xhtml" class="labelBkg" style="display: table-cell; white-space: nowrap; line-height: 1.5; max-width: 200px; text-align: center;"><span class="edgeLabel"></span></div></foreignObject></g></g><g class="edgeLabel"><g class="label" data-id="L_MV_PCM_0" transform="translate(0, 0)"><foreignObject width="0" height="0"><div xmlns="http://www.w3.org/1999/xhtml" class="labelBkg" style="display: table-cell; white-space: nowrap; line-height: 1.5; max-width: 200px; text-align: center;"><span class="edgeLabel"></span></div></foreignObject></g></g><g class="edgeLabel"><g class="label" data-id="L_PD_PPP_0" transform="translate(0, 0)"><foreignObject width="0" height="0"><div xmlns="http://www.w3.org/1999/xhtml" class="labelBkg" style="display: table-cell; white-space: nowrap; line-height: 1.5; max-width: 200px; text-align: center;"><span class="edgeLabel"></span></div></foreignObject></g></g><g class="edgeLabel"><g class="label" data-id="L_PR_PPR_0" transform="translate(0, 0)"><foreignObject width="0" height="0"><div xmlns="http://www.w3.org/1999/xhtml" class="labelBkg" style="display: table-cell; white-space: nowrap; line-height: 1.5; max-width: 200px; text-align: center;"><span class="edgeLabel"></span></div></foreignObject></g></g><g class="edgeLabel"><g class="label" data-id="L_UNDO_U_0" transform="translate(0, 0)"><foreignObject width="0" height="0"><div xmlns="http://www.w3.org/1999/xhtml" class="labelBkg" style="display: table-cell; white-space: nowrap; line-height: 1.5; max-width: 200px; text-align: center;"><span class="edgeLabel"></span></div></foreignObject></g></g><g class="edgeLabel"><g class="label" data-id="L_RD_SEND_0" transform="translate(0, 0)"><foreignObject width="0" height="0"><div xmlns="http://www.w3.org/1999/xhtml" class="labelBkg" style="display: table-cell; white-space: nowrap; line-height: 1.5; max-width: 200px; text-align: center;"><span class="edgeLabel"></span></div></foreignObject></g></g></g><g class="nodes"><g class="node default" id="my-svg-flowchart-P-0" data-look="classic" transform="translate(1179.4609375, 27.5)"><g class="basic label-container outer-path"><path d="M-88.921875 -19.5 C-28.69925884926883 -19.5, 31.52335730146234 -19.5, 88.921875 -19.5 C88.921875 -19.5, 88.921875 -19.5, 88.921875 -19.5 C89.19223537653883 -19.491330068948947, 89.46259575307766 -19.4826601378979, 90.1712442896239 -19.45993515863156 C90.45587537000773 -19.43247714062589, 90.74050645039155 -19.405019122620217, 91.41547965284786 -19.3399052695533 C91.77304950667579 -19.28209614858203, 92.13061936050372 -19.224287027610764, 92.64946825967675 -19.140403561325776 C93.07892090629034 -19.042383797176647, 93.50837355290392 -18.94436403302752, 93.86813938623538 -18.862249829261074 C94.17934782382125 -18.769884798552013, 94.49055626140712 -18.677519767842952, 95.0664852514606 -18.50658706670804 C95.41354736154433 -18.378865001990253, 95.76060947162806 -18.251142937272466, 96.2395815951478 -18.074876768247425 C96.50630667371928 -17.956805488082168, 96.77303175229076 -17.838734207916907, 97.38260791279238 -17.568892924097174 C97.81913685010433 -17.34115605711166, 98.25566578741628 -17.113419190126148, 98.49086726407678 -16.990714730406097 C98.70812709501908 -16.85901054412839, 98.92538692596138 -16.727306357850686, 99.5598055736057 -16.342718045390892 C99.80127602605228 -16.174278710851574, 100.04274647849886 -16.005839376312256, 100.58503034457871 -15.627565626425154 C100.86098297957385 -15.407500743424553, 101.13693561456898 -15.187435860423951, 101.56232870850187 -14.848196188198123 C101.89327804623639 -14.547636756107273, 102.2242273839709 -14.247077324016423, 102.48768473676799 -14.007812326905688 C102.71592923483563 -13.772131143429062, 102.94417373290325 -13.536449959952437, 103.35729594296865 -13.10986736009568 C103.57670085324317 -12.852141867994165, 103.79610576351769 -12.594416375892648, 104.16758890812658 -12.158051136245305 C104.45649499056589 -11.770943305662197, 104.74540107300518 -11.383835475079087, 104.91523396464063 -11.156274872382312 C105.09845478718378 -10.874798487276298, 105.28167560972693 -10.593322102170282, 105.59715887860425 -10.108655082055241 C105.83488752037003 -9.686543805964774, 106.07261616213582 -9.264432529874307, 106.2105614742735 -9.019496659696287 C106.41049004168491 -8.604340711680452, 106.61041860909631 -8.189184763664617, 106.75292114880834 -7.893275190886684 C106.91558644707152 -7.491488759257032, 107.0782517453347 -7.089702327627379, 107.22200922997033 -6.734618561215508 C107.34589647754686 -6.361489910267316, 107.46978372512339 -5.988361259319125, 107.61589813421489 -5.548287939305138 C107.72113040806934 -5.146991671142114, 107.8263626819238 -4.74569540297909, 107.93296928754556 -4.339158212148133 C108.01177763049247 -3.93449402726494, 108.09058597343937 -3.5298298423817465, 108.17191977658177 -3.1121979531509023 C108.22562578159958 -2.6956647836831036, 108.27933178661738 -2.2791316142153053, 108.33176770250937 -1.872449005199798 C108.36052715585772 -1.4244973050862901, 108.38928660920607 -0.9765456049727822, 108.41185621591342 -0.6250057626472757 C108.41185621591342 -0.3025346268607488, 108.41185621591342 0.01993650892577814, 108.41185621591342 0.625005762647271 C108.38365119431084 1.064321740791115, 108.35544617270826 1.503637718934959, 108.33176770250937 1.8724490051997846 C108.28230267634129 2.256089980185091, 108.23283765017322 2.6397309551703976, 108.17191977658177 3.1121979531508885 C108.1191997772225 3.382904007484963, 108.06647977786322 3.6536100618190366, 107.93296928754556 4.339158212148129 C107.85139504202935 4.650236164803069, 107.76982079651316 4.961314117458008, 107.61589813421489 5.548287939305125 C107.47736207902526 5.965536464813434, 107.33882602383562 6.382784990321743, 107.22200922997033 6.734618561215495 C107.11767404063116 6.9923284960669045, 107.01333885129199 7.250038430918314, 106.75292114880834 7.893275190886679 C106.55178479643948 8.31093913020915, 106.3506484440706 8.72860306953162, 106.2105614742735 9.019496659696284 C105.97197696529197 9.443127614694262, 105.73339245631045 9.866758569692239, 105.59715887860425 10.108655082055236 C105.34439150890589 10.496973639454449, 105.09162413920751 10.885292196853662, 104.91523396464065 11.156274872382301 C104.6324870831945 11.535129934749326, 104.34974020174836 11.91398499711635, 104.16758890812659 12.158051136245302 C103.85257318700188 12.528086527180706, 103.53755746587717 12.898121918116109, 103.35729594296866 13.10986736009567 C103.02963046186039 13.448208871176256, 102.70196498075214 13.786550382256841, 102.48768473676799 14.007812326905684 C102.29455322720477 14.183209253911274, 102.10142171764156 14.358606180916862, 101.5623287085019 14.848196188198111 C101.32113459144595 15.040542078105204, 101.07994047439003 15.232887968012298, 100.58503034457871 15.627565626425152 C100.31720859589875 15.814386484487656, 100.04938684721878 16.00120734255016, 99.5598055736057 16.34271804539089 C99.32857600161871 16.482890770785193, 99.09734642963174 16.623063496179498, 98.49086726407678 16.990714730406093 C98.14604439904255 17.170608598224867, 97.80122153400832 17.350502466043636, 97.38260791279238 17.56889292409717 C97.0536625359787 17.714507284594678, 96.72471715916502 17.860121645092185, 96.2395815951478 18.07487676824742 C95.82590953927689 18.227111908750484, 95.41223748340597 18.379347049253546, 95.06648525146062 18.506587066708033 C94.64954321143406 18.63033327561449, 94.2326011714075 18.754079484520943, 93.86813938623541 18.86224982926107 C93.49525821411297 18.94735752352097, 93.1223770419905 19.03246521778087, 92.64946825967677 19.140403561325773 C92.24262259444951 19.20617921334446, 91.83577692922225 19.27195486536315, 91.41547965284788 19.3399052695533 C90.95578074047758 19.38425187076083, 90.4960818281073 19.428598471968364, 90.1712442896239 19.45993515863156 C89.8983778008567 19.468685455823923, 89.6255113120895 19.477435753016287, 88.921875 19.5 C88.921875 19.5, 88.921875 19.5, 88.921875 19.5 C51.70775882743591 19.5, 14.49364265487182 19.5, -88.921875 19.5 C-89.33230536778126 19.4868382969595, -89.74273573556252 19.473676593919006, -90.1712442896239 19.45993515863156 C-90.50892879710989 19.427359140319425, -90.84661330459589 19.394783122007286, -91.41547965284786 19.3399052695533 C-91.90809950880558 19.260262311566095, -92.40071936476329 19.18061935357889, -92.64946825967675 19.140403561325773 C-92.89801806320631 19.083673690609196, -93.14656786673586 19.026943819892622, -93.86813938623538 18.862249829261074 C-94.26498185069462 18.744469068878175, -94.66182431515386 18.62668830849528, -95.06648525146059 18.506587066708043 C-95.479363376538 18.354644100076005, -95.89224150161542 18.20270113344397, -96.2395815951478 18.074876768247425 C-96.61425314337673 17.909020788083062, -96.98892469160567 17.743164807918703, -97.38260791279238 17.568892924097174 C-97.82242835347404 17.33943888191199, -98.26224879415571 17.109984839726803, -98.49086726407678 16.990714730406097 C-98.74685260336663 16.83553491339176, -99.00283794265647 16.680355096377422, -99.55980557360569 16.3427180453909 C-99.90191544371416 16.104077009700816, -100.24402531382263 15.865435974010731, -100.58503034457871 15.627565626425156 C-100.97584461457946 15.315901646104058, -101.3666588845802 15.00423766578296, -101.56232870850187 14.848196188198125 C-101.76428707666612 14.66478294175695, -101.96624544483039 14.481369695315774, -102.48768473676797 14.007812326905697 C-102.68957168478265 13.799347477853852, -102.89145863279732 13.590882628802007, -103.35729594296865 13.109867360095677 C-103.62710913032348 12.792929437423403, -103.89692231767832 12.475991514751131, -104.16758890812658 12.158051136245307 C-104.44828540028712 11.781943408726688, -104.72898189244765 11.405835681208067, -104.91523396464063 11.156274872382316 C-105.06025165897164 10.933488751186477, -105.20526935330264 10.71070262999064, -105.59715887860425 10.108655082055249 C-105.82222112378162 9.70903427571923, -106.047283368959 9.30941346938321, -106.2105614742735 9.019496659696289 C-106.36390136018743 8.70108310564805, -106.51724124610136 8.382669551599813, -106.75292114880834 7.893275190886686 C-106.8617888019787 7.624369982742985, -106.97065645514908 7.355464774599286, -107.22200922997033 6.73461856121551 C-107.3500355117323 6.349023798766296, -107.47806179349429 5.963429036317082, -107.61589813421489 5.5482879393051325 C-107.71752935514648 5.1607240466431685, -107.81916057607808 4.7731601539812045, -107.93296928754556 4.339158212148136 C-108.01733571676913 3.9059544289362376, -108.1017021459927 3.4727506457243393, -108.17191977658177 3.112197953150904 C-108.22994188158218 2.6621899645284084, -108.28796398658257 2.2121819759059123, -108.33176770250937 1.872449005199809 C-108.35733972980981 1.4741440386264302, -108.38291175711026 1.0758390720530513, -108.41185621591342 0.6250057626472781 C-108.41185621591342 0.14374421653639258, -108.41185621591342 -0.337517329574493, -108.41185621591342 -0.6250057626472687 C-108.38573831106088 -1.0318132127188604, -108.35962040620835 -1.438620662790452, -108.33176770250937 -1.8724490051997822 C-108.2735054057269 -2.3243198738528124, -108.21524310894442 -2.7761907425058423, -108.17191977658177 -3.112197953150895 C-108.0959859802248 -3.5021019488304104, -108.02005218386783 -3.8920059445099255, -107.93296928754556 -4.339158212148126 C-107.82369151936544 -4.7558817035032535, -107.71441375118532 -5.172605194858381, -107.61589813421489 -5.548287939305123 C-107.48171128188733 -5.952437358744215, -107.34752442955978 -6.356586778183309, -107.22200922997033 -6.734618561215485 C-107.04327914823165 -7.176085318621073, -106.86454906649297 -7.61755207602666, -106.75292114880834 -7.893275190886676 C-106.59186984230301 -8.227701674790934, -106.43081853579767 -8.562128158695192, -106.2105614742735 -9.019496659696282 C-106.0461090469421 -9.311498597037204, -105.8816566196107 -9.603500534378124, -105.59715887860425 -10.108655082055243 C-105.45438602450754 -10.327992525827185, -105.31161317041085 -10.547329969599128, -104.91523396464063 -11.156274872382308 C-104.70039634699259 -11.444137707921094, -104.48555872934453 -11.732000543459879, -104.16758890812659 -12.158051136245302 C-103.8877417072209 -12.486775582185965, -103.60789450631519 -12.815500028126628, -103.35729594296866 -13.10986736009567 C-103.13353494788709 -13.340918958636749, -102.90977395280551 -13.571970557177826, -102.48768473676799 -14.007812326905677 C-102.1237634258357 -14.338316032664133, -101.75984211490344 -14.668819738422592, -101.5623287085019 -14.848196188198107 C-101.36107359097602 -15.00869178880139, -101.15981847345014 -15.169187389404671, -100.58503034457871 -15.627565626425149 C-100.27712949795422 -15.842343928217566, -99.96922865132974 -16.057122230009984, -99.55980557360571 -16.342718045390885 C-99.27889941092626 -16.51300501199502, -98.99799324824679 -16.683291978599154, -98.49086726407678 -16.99071473040609 C-98.15075295950052 -17.16815214524992, -97.81063865492426 -17.345589560093746, -97.3826079127924 -17.56889292409717 C-96.93211875010759 -17.76831111313152, -96.48162958742279 -17.96772930216587, -96.23958159514781 -18.07487676824742 C-95.87347678753817 -18.20960672168351, -95.50737197992852 -18.344336675119603, -95.06648525146062 -18.506587066708033 C-94.7454605289958 -18.601865519242438, -94.42443580653098 -18.69714397177684, -93.86813938623541 -18.862249829261067 C-93.51233057834453 -18.943460867792698, -93.15652177045365 -19.024671906324333, -92.64946825967677 -19.140403561325773 C-92.32983039578004 -19.19208013233194, -92.0101925318833 -19.243756703338107, -91.41547965284788 -19.3399052695533 C-91.12430222068505 -19.36799480624195, -90.83312478852224 -19.3960843429306, -90.1712442896239 -19.45993515863156 C-89.71375204322736 -19.474606044518858, -89.25625979683082 -19.48927693040616, -88.921875 -19.5 C-88.921875 -19.5, -88.921875 -19.5, -88.921875 -19.5" stroke="none" stroke-width="0" fill="#1f2020" style=""/><path d="M-88.921875 -19.5 C-23.23602562305814 -19.5, 42.44982375388372 -19.5, 88.921875 -19.5 M-88.921875 -19.5 C-29.237601772262707 -19.5, 30.446671455474586 -19.5, 88.921875 -19.5 M88.921875 -19.5 C88.921875 -19.5, 88.921875 -19.5, 88.921875 -19.5 M88.921875 -19.5 C88.921875 -19.5, 88.921875 -19.5, 88.921875 -19.5 M88.921875 -19.5 C89.3650700739414 -19.48578759660558, 89.80826514788279 -19.47157519321116, 90.1712442896239 -19.45993515863156 M88.921875 -19.5 C89.28221697712658 -19.48844453415666, 89.64255895425316 -19.47688906831332, 90.1712442896239 -19.45993515863156 M90.1712442896239 -19.45993515863156 C90.50836731375026 -19.427413305943844, 90.84549033787663 -19.39489145325613, 91.41547965284786 -19.3399052695533 M90.1712442896239 -19.45993515863156 C90.636080276396 -19.41509299003472, 91.10091626316809 -19.37025082143788, 91.41547965284786 -19.3399052695533 M91.41547965284786 -19.3399052695533 C91.66637014863328 -19.299343239879565, 91.91726064441869 -19.258781210205836, 92.64946825967675 -19.140403561325776 M91.41547965284786 -19.3399052695533 C91.85440124894406 -19.26894382978428, 92.29332284504027 -19.197982390015262, 92.64946825967675 -19.140403561325776 M92.64946825967675 -19.140403561325776 C93.02328872150265 -19.055081480320503, 93.39710918332855 -18.96975939931523, 93.86813938623538 -18.862249829261074 M92.64946825967675 -19.140403561325776 C93.10704988004593 -19.03596354247564, 93.56463150041513 -18.931523523625497, 93.86813938623538 -18.862249829261074 M93.86813938623538 -18.862249829261074 C94.1814336667771 -18.769265731311535, 94.4947279473188 -18.676281633361995, 95.0664852514606 -18.50658706670804 M93.86813938623538 -18.862249829261074 C94.33451387250491 -18.723832329785914, 94.80088835877446 -18.58541483031075, 95.0664852514606 -18.50658706670804 M95.0664852514606 -18.50658706670804 C95.36185037316386 -18.397889971595983, 95.65721549486713 -18.28919287648393, 96.2395815951478 -18.074876768247425 M95.0664852514606 -18.50658706670804 C95.44291089067661 -18.368058951836083, 95.81933652989262 -18.22953083696413, 96.2395815951478 -18.074876768247425 M96.2395815951478 -18.074876768247425 C96.6451120266493 -17.895360475854545, 97.0506424581508 -17.715844183461666, 97.38260791279238 -17.568892924097174 M96.2395815951478 -18.074876768247425 C96.59580191953422 -17.917188597542037, 96.95202224392064 -17.75950042683665, 97.38260791279238 -17.568892924097174 M97.38260791279238 -17.568892924097174 C97.68700524600432 -17.4100890303363, 97.99140257921626 -17.251285136575433, 98.49086726407678 -16.990714730406097 M97.38260791279238 -17.568892924097174 C97.73043580727347 -17.387431334340793, 98.07826370175455 -17.20596974458441, 98.49086726407678 -16.990714730406097 M98.49086726407678 -16.990714730406097 C98.8668263352432 -16.762806132084272, 99.24278540640962 -16.53489753376245, 99.5598055736057 -16.342718045390892 M98.49086726407678 -16.990714730406097 C98.87337696677636 -16.75883510075309, 99.25588666947593 -16.526955471100084, 99.5598055736057 -16.342718045390892 M99.5598055736057 -16.342718045390892 C99.76573361568535 -16.1990715577174, 99.97166165776498 -16.055425070043906, 100.58503034457871 -15.627565626425154 M99.5598055736057 -16.342718045390892 C99.92771649263133 -16.086079314885605, 100.29562741165695 -15.829440584380322, 100.58503034457871 -15.627565626425154 M100.58503034457871 -15.627565626425154 C100.87407897210012 -15.397057037883846, 101.16312759962153 -15.166548449342537, 101.56232870850187 -14.848196188198123 M100.58503034457871 -15.627565626425154 C100.80988284491204 -15.448251740985652, 101.03473534524537 -15.26893785554615, 101.56232870850187 -14.848196188198123 M101.56232870850187 -14.848196188198123 C101.88520512060262 -14.554968373569947, 102.20808153270339 -14.261740558941769, 102.48768473676799 -14.007812326905688 M101.56232870850187 -14.848196188198123 C101.7735205604586 -14.65639733608121, 101.98471241241536 -14.464598483964293, 102.48768473676799 -14.007812326905688 M102.48768473676799 -14.007812326905688 C102.76792260411793 -13.718443720910077, 103.04816047146787 -13.429075114914466, 103.35729594296865 -13.10986736009568 M102.48768473676799 -14.007812326905688 C102.70669126472593 -13.781670106018773, 102.92569779268386 -13.555527885131857, 103.35729594296865 -13.10986736009568 M103.35729594296865 -13.10986736009568 C103.60233295775721 -12.822032939523908, 103.84736997254576 -12.534198518952135, 104.16758890812658 -12.158051136245305 M103.35729594296865 -13.10986736009568 C103.62024218532949 -12.800995741753589, 103.88318842769033 -12.492124123411497, 104.16758890812658 -12.158051136245305 M104.16758890812658 -12.158051136245305 C104.40318366450045 -11.842375625828161, 104.63877842087432 -11.526700115411018, 104.91523396464063 -11.156274872382312 M104.16758890812658 -12.158051136245305 C104.43590993007014 -11.798525411388903, 104.7042309520137 -11.438999686532501, 104.91523396464063 -11.156274872382312 M104.91523396464063 -11.156274872382312 C105.1280210971515 -10.829376695499999, 105.34080822966237 -10.502478518617686, 105.59715887860425 -10.108655082055241 M104.91523396464063 -11.156274872382312 C105.13074104559678 -10.825198124279627, 105.34624812655292 -10.494121376176942, 105.59715887860425 -10.108655082055241 M105.59715887860425 -10.108655082055241 C105.78841556011663 -9.769059477190927, 105.97967224162902 -9.429463872326615, 106.2105614742735 -9.019496659696287 M105.59715887860425 -10.108655082055241 C105.76521025828907 -9.810262840377373, 105.9332616379739 -9.511870598699502, 106.2105614742735 -9.019496659696287 M106.2105614742735 -9.019496659696287 C106.32223304154755 -8.787608260862953, 106.4339046088216 -8.555719862029617, 106.75292114880834 -7.893275190886684 M106.2105614742735 -9.019496659696287 C106.36606559141224 -8.696589033202624, 106.52156970855096 -8.37368140670896, 106.75292114880834 -7.893275190886684 M106.75292114880834 -7.893275190886684 C106.90225229733912 -7.524424366894332, 107.05158344586988 -7.155573542901978, 107.22200922997033 -6.734618561215508 M106.75292114880834 -7.893275190886684 C106.9149502991523 -7.493060056916618, 107.07697944949624 -7.0928449229465516, 107.22200922997033 -6.734618561215508 M107.22200922997033 -6.734618561215508 C107.31837905898333 -6.444367990675435, 107.41474888799632 -6.154117420135362, 107.61589813421489 -5.548287939305138 M107.22200922997033 -6.734618561215508 C107.33726600870449 -6.387483507342059, 107.45252278743865 -6.040348453468609, 107.61589813421489 -5.548287939305138 M107.61589813421489 -5.548287939305138 C107.71051248244261 -5.187482423394935, 107.80512683067032 -4.826676907484732, 107.93296928754556 -4.339158212148133 M107.61589813421489 -5.548287939305138 C107.72049732070118 -5.1494059076586725, 107.8250965071875 -4.750523876012206, 107.93296928754556 -4.339158212148133 M107.93296928754556 -4.339158212148133 C108.00587647301411 -3.964795223706242, 108.07878365848265 -3.590432235264351, 108.17191977658177 -3.1121979531509023 M107.93296928754556 -4.339158212148133 C108.01211001973302 -3.932787278765225, 108.09125075192047 -3.5264163453823163, 108.17191977658177 -3.1121979531509023 M108.17191977658177 -3.1121979531509023 C108.23205227975491 -2.645822133045864, 108.29218478292806 -2.1794463129408257, 108.33176770250937 -1.872449005199798 M108.17191977658177 -3.1121979531509023 C108.23404259979267 -2.6303856038661984, 108.29616542300357 -2.148573254581495, 108.33176770250937 -1.872449005199798 M108.33176770250937 -1.872449005199798 C108.35888947337106 -1.4500055317294642, 108.38601124423276 -1.0275620582591305, 108.41185621591342 -0.6250057626472757 M108.33176770250937 -1.872449005199798 C108.34988225086641 -1.5903002927385457, 108.36799679922346 -1.3081515802772934, 108.41185621591342 -0.6250057626472757 M108.41185621591342 -0.6250057626472757 C108.41185621591342 -0.2014610938214655, 108.41185621591342 0.22208357500434472, 108.41185621591342 0.625005762647271 M108.41185621591342 -0.6250057626472757 C108.41185621591342 -0.3155334999998596, 108.41185621591342 -0.00606123735244346, 108.41185621591342 0.625005762647271 M108.41185621591342 0.625005762647271 C108.38434853083756 1.0534601615074617, 108.35684084576171 1.4819145603676525, 108.33176770250937 1.8724490051997846 M108.41185621591342 0.625005762647271 C108.38220791325385 1.0868020082491565, 108.35255961059428 1.5485982538510417, 108.33176770250937 1.8724490051997846 M108.33176770250937 1.8724490051997846 C108.27459502881477 2.3158689723536003, 108.21742235512019 2.7592889395074165, 108.17191977658177 3.1121979531508885 M108.33176770250937 1.8724490051997846 C108.2741032818501 2.319682864705174, 108.21643886119084 2.7669167242105632, 108.17191977658177 3.1121979531508885 M108.17191977658177 3.1121979531508885 C108.11019782227572 3.4291271435728357, 108.04847586796966 3.7460563339947823, 107.93296928754556 4.339158212148129 M108.17191977658177 3.1121979531508885 C108.09410120388384 3.5117798769936233, 108.0162826311859 3.9113618008363575, 107.93296928754556 4.339158212148129 M107.93296928754556 4.339158212148129 C107.8682959492319 4.585785680740257, 107.80362261091824 4.8324131493323845, 107.61589813421489 5.548287939305125 M107.93296928754556 4.339158212148129 C107.8173175743431 4.7801883183587295, 107.70166586114061 5.221218424569329, 107.61589813421489 5.548287939305125 M107.61589813421489 5.548287939305125 C107.46517506304413 6.002241815211288, 107.31445199187337 6.4561956911174505, 107.22200922997033 6.734618561215495 M107.61589813421489 5.548287939305125 C107.47844964044411 5.962260903099198, 107.34100114667335 6.37623386689327, 107.22200922997033 6.734618561215495 M107.22200922997033 6.734618561215495 C107.0743694599756 7.099291647523231, 106.92672968998087 7.4639647338309665, 106.75292114880834 7.893275190886679 M107.22200922997033 6.734618561215495 C107.06217278366238 7.12941767382359, 106.90233633735443 7.524216786431685, 106.75292114880834 7.893275190886679 M106.75292114880834 7.893275190886679 C106.59133611669787 8.228809967429894, 106.42975108458741 8.564344743973109, 106.2105614742735 9.019496659696284 M106.75292114880834 7.893275190886679 C106.63049303415282 8.14749979051087, 106.50806491949731 8.401724390135064, 106.2105614742735 9.019496659696284 M106.2105614742735 9.019496659696284 C106.05696896980307 9.292215704311134, 105.90337646533261 9.564934748925985, 105.59715887860425 10.108655082055236 M106.2105614742735 9.019496659696284 C105.98778092030449 9.415066092245558, 105.76500036633549 9.810635524794833, 105.59715887860425 10.108655082055236 M105.59715887860425 10.108655082055236 C105.431608791968 10.36298447155126, 105.26605870533176 10.617313861047283, 104.91523396464065 11.156274872382301 M105.59715887860425 10.108655082055236 C105.39954661093599 10.412240591517541, 105.20193434326772 10.715826100979848, 104.91523396464065 11.156274872382301 M104.91523396464065 11.156274872382301 C104.73316650507856 11.400228681508711, 104.55109904551648 11.644182490635123, 104.16758890812659 12.158051136245302 M104.91523396464065 11.156274872382301 C104.64799831076755 11.51434630290336, 104.38076265689443 11.872417733424419, 104.16758890812659 12.158051136245302 M104.16758890812659 12.158051136245302 C103.97121235916862 12.388726204793524, 103.77483581021063 12.619401273341747, 103.35729594296866 13.10986736009567 M104.16758890812659 12.158051136245302 C103.90510245110728 12.466382664562696, 103.64261599408798 12.77471419288009, 103.35729594296866 13.10986736009567 M103.35729594296866 13.10986736009567 C103.0983589086727 13.377241107132136, 102.83942187437673 13.6446148541686, 102.48768473676799 14.007812326905684 M103.35729594296866 13.10986736009567 C103.17942458393748 13.293534141805532, 103.00155322490629 13.477200923515394, 102.48768473676799 14.007812326905684 M102.48768473676799 14.007812326905684 C102.19369396975601 14.274806962936525, 101.89970320274402 14.541801598967368, 101.5623287085019 14.848196188198111 M102.48768473676799 14.007812326905684 C102.15245781846484 14.312256544490392, 101.81723090016169 14.6167007620751, 101.5623287085019 14.848196188198111 M101.5623287085019 14.848196188198111 C101.31671808072586 15.044064127876199, 101.07110745294982 15.239932067554287, 100.58503034457871 15.627565626425152 M101.5623287085019 14.848196188198111 C101.33637225124735 15.028390449904744, 101.11041579399283 15.208584711611376, 100.58503034457871 15.627565626425152 M100.58503034457871 15.627565626425152 C100.28397243975263 15.83757058824517, 99.98291453492656 16.047575550065186, 99.5598055736057 16.34271804539089 M100.58503034457871 15.627565626425152 C100.21117982189631 15.888347567320105, 99.8373292992139 16.149129508215058, 99.5598055736057 16.34271804539089 M99.5598055736057 16.34271804539089 C99.16076738443333 16.58461734067587, 98.76172919526097 16.826516635960854, 98.49086726407678 16.990714730406093 M99.5598055736057 16.34271804539089 C99.18300426913015 16.571137210494218, 98.8062029646546 16.799556375597547, 98.49086726407678 16.990714730406093 M98.49086726407678 16.990714730406093 C98.14698544121582 17.17011765712584, 97.80310361835485 17.349520583845585, 97.38260791279238 17.56889292409717 M98.49086726407678 16.990714730406093 C98.12520650511298 17.18147971414061, 97.75954574614919 17.372244697875132, 97.38260791279238 17.56889292409717 M97.38260791279238 17.56889292409717 C97.13555073032485 17.678257810084617, 96.88849354785732 17.787622696072066, 96.2395815951478 18.07487676824742 M97.38260791279238 17.56889292409717 C96.98185211772416 17.746295626575595, 96.58109632265592 17.92369832905402, 96.2395815951478 18.07487676824742 M96.2395815951478 18.07487676824742 C95.85676167967218 18.21575803589096, 95.47394176419654 18.356639303534497, 95.06648525146062 18.506587066708033 M96.2395815951478 18.07487676824742 C95.88430881644916 18.205620434914085, 95.52903603775053 18.33636410158075, 95.06648525146062 18.506587066708033 M95.06648525146062 18.506587066708033 C94.70773727408313 18.613061583287113, 94.34898929670564 18.71953609986619, 93.86813938623541 18.86224982926107 M95.06648525146062 18.506587066708033 C94.61860616278712 18.63951522926102, 94.17072707411361 18.772443391814004, 93.86813938623541 18.86224982926107 M93.86813938623541 18.86224982926107 C93.43782820398103 18.960465548567743, 93.00751702172663 19.05868126787442, 92.64946825967677 19.140403561325773 M93.86813938623541 18.86224982926107 C93.58127950635128 18.927723724908965, 93.29441962646715 18.99319762055686, 92.64946825967677 19.140403561325773 M92.64946825967677 19.140403561325773 C92.38066635939182 19.18386136797397, 92.11186445910688 19.22731917462217, 91.41547965284788 19.3399052695533 M92.64946825967677 19.140403561325773 C92.26816034553703 19.202050467796848, 91.8868524313973 19.26369737426792, 91.41547965284788 19.3399052695533 M91.41547965284788 19.3399052695533 C91.02522614153521 19.377552556441117, 90.63497263022255 19.41519984332893, 90.1712442896239 19.45993515863156 M91.41547965284788 19.3399052695533 C91.0386487816333 19.37625769049394, 90.66181791041872 19.41261011143458, 90.1712442896239 19.45993515863156 M90.1712442896239 19.45993515863156 C89.84770374886976 19.470310474040087, 89.52416320811564 19.48068578944861, 88.921875 19.5 M90.1712442896239 19.45993515863156 C89.76680257931804 19.472904817083034, 89.36236086901216 19.485874475534512, 88.921875 19.5 M88.921875 19.5 C88.921875 19.5, 88.921875 19.5, 88.921875 19.5 M88.921875 19.5 C88.921875 19.5, 88.921875 19.5, 88.921875 19.5 M88.921875 19.5 C47.512680608754145 19.5, 6.103486217508291 19.5, -88.921875 19.5 M88.921875 19.5 C51.79635425605142 19.5, 14.670833512102845 19.5, -88.921875 19.5 M-88.921875 19.5 C-89.37026377198062 19.48562104481838, -89.81865254396122 19.47124208963676, -90.1712442896239 19.45993515863156 M-88.921875 19.5 C-89.39761381017388 19.484743982327142, -89.87335262034777 19.469487964654284, -90.1712442896239 19.45993515863156 M-90.1712442896239 19.45993515863156 C-90.5674713631816 19.421711609378224, -90.96369843673928 19.383488060124886, -91.41547965284786 19.3399052695533 M-90.1712442896239 19.45993515863156 C-90.51540856520725 19.42673404488413, -90.85957284079062 19.393532931136704, -91.41547965284786 19.3399052695533 M-91.41547965284786 19.3399052695533 C-91.80725562165051 19.276565969185302, -92.19903159045316 19.213226668817303, -92.64946825967675 19.140403561325773 M-91.41547965284786 19.3399052695533 C-91.79670521462317 19.278271677173855, -92.17793077639847 19.216638084794408, -92.64946825967675 19.140403561325773 M-92.64946825967675 19.140403561325773 C-93.00082367263371 19.06020898112669, -93.35217908559068 18.980014400927605, -93.86813938623538 18.862249829261074 M-92.64946825967675 19.140403561325773 C-92.9322570876816 19.075858856703228, -93.21504591568645 19.011314152080683, -93.86813938623538 18.862249829261074 M-93.86813938623538 18.862249829261074 C-94.13595291071915 18.78276418097617, -94.40376643520293 18.703278532691265, -95.06648525146059 18.506587066708043 M-93.86813938623538 18.862249829261074 C-94.1889286755734 18.767041252042898, -94.50971796491139 18.67183267482472, -95.06648525146059 18.506587066708043 M-95.06648525146059 18.506587066708043 C-95.50506930802108 18.34518407966721, -95.94365336458156 18.183781092626376, -96.2395815951478 18.074876768247425 M-95.06648525146059 18.506587066708043 C-95.43416557201168 18.37127730994562, -95.80184589256277 18.235967553183194, -96.2395815951478 18.074876768247425 M-96.2395815951478 18.074876768247425 C-96.59026982896249 17.9196374899345, -96.94095806277718 17.764398211621582, -97.38260791279238 17.568892924097174 M-96.2395815951478 18.074876768247425 C-96.6669299836737 17.885702313486544, -97.0942783721996 17.696527858725666, -97.38260791279238 17.568892924097174 M-97.38260791279238 17.568892924097174 C-97.63075584789766 17.439434305299088, -97.87890378300294 17.309975686501, -98.49086726407678 16.990714730406097 M-97.38260791279238 17.568892924097174 C-97.70378126805912 17.40133699037587, -98.02495462332585 17.23378105665457, -98.49086726407678 16.990714730406097 M-98.49086726407678 16.990714730406097 C-98.76289942026172 16.82580723868839, -99.03493157644665 16.660899746970685, -99.55980557360569 16.3427180453909 M-98.49086726407678 16.990714730406097 C-98.73588027961934 16.842186400527897, -98.9808932951619 16.693658070649697, -99.55980557360569 16.3427180453909 M-99.55980557360569 16.3427180453909 C-99.94675409426975 16.07279950810714, -100.3337026149338 15.80288097082338, -100.58503034457871 15.627565626425156 M-99.55980557360569 16.3427180453909 C-99.92419513896171 16.088535658768592, -100.28858470431771 15.834353272146288, -100.58503034457871 15.627565626425156 M-100.58503034457871 15.627565626425156 C-100.88390509342076 15.38922096761471, -101.1827798422628 15.150876308804266, -101.56232870850187 14.848196188198125 M-100.58503034457871 15.627565626425156 C-100.83984611078415 15.424356833808634, -101.09466187698959 15.221148041192112, -101.56232870850187 14.848196188198125 M-101.56232870850187 14.848196188198125 C-101.83606512353745 14.599596018731463, -102.10980153857304 14.3509958492648, -102.48768473676797 14.007812326905697 M-101.56232870850187 14.848196188198125 C-101.90350952524068 14.538344797585669, -102.2446903419795 14.228493406973213, -102.48768473676797 14.007812326905697 M-102.48768473676797 14.007812326905697 C-102.77106696646189 13.715196908632986, -103.05444919615579 13.422581490360276, -103.35729594296865 13.109867360095677 M-102.48768473676797 14.007812326905697 C-102.75501099363105 13.731776018800707, -103.02233725049412 13.455739710695719, -103.35729594296865 13.109867360095677 M-103.35729594296865 13.109867360095677 C-103.55936340522551 12.872507420964443, -103.76143086748237 12.63514748183321, -104.16758890812658 12.158051136245307 M-103.35729594296865 13.109867360095677 C-103.59493417691202 12.830723968507222, -103.83257241085539 12.551580576918766, -104.16758890812658 12.158051136245307 M-104.16758890812658 12.158051136245307 C-104.3263894268739 11.945272908148755, -104.48518994562124 11.732494680052206, -104.91523396464063 11.156274872382316 M-104.16758890812658 12.158051136245307 C-104.32228175001015 11.950776820929127, -104.47697459189374 11.743502505612947, -104.91523396464063 11.156274872382316 M-104.91523396464063 11.156274872382316 C-105.15515472713203 10.787692153450068, -105.39507548962342 10.419109434517823, -105.59715887860425 10.108655082055249 M-104.91523396464063 11.156274872382316 C-105.18475813704077 10.742213366201634, -105.4542823094409 10.328151860020954, -105.59715887860425 10.108655082055249 M-105.59715887860425 10.108655082055249 C-105.83665804897045 9.683400053149278, -106.07615721933664 9.258145024243307, -106.2105614742735 9.019496659696289 M-105.59715887860425 10.108655082055249 C-105.75821827065165 9.822677822443135, -105.91927766269907 9.53670056283102, -106.2105614742735 9.019496659696289 M-106.2105614742735 9.019496659696289 C-106.32798958381544 8.775654677673437, -106.44541769335736 8.531812695650585, -106.75292114880834 7.893275190886686 M-106.2105614742735 9.019496659696289 C-106.3747350828645 8.678586648704572, -106.53890869145552 8.337676637712857, -106.75292114880834 7.893275190886686 M-106.75292114880834 7.893275190886686 C-106.91407636335016 7.495218695244269, -107.07523157789198 7.0971621996018515, -107.22200922997033 6.73461856121551 M-106.75292114880834 7.893275190886686 C-106.92829098932602 7.460108294262834, -107.10366082984368 7.026941397638981, -107.22200922997033 6.73461856121551 M-107.22200922997033 6.73461856121551 C-107.33031653816218 6.40841420536774, -107.43862384635403 6.0822098495199715, -107.61589813421489 5.5482879393051325 M-107.22200922997033 6.73461856121551 C-107.32485933779829 6.4248504233769665, -107.42770944562626 6.115082285538422, -107.61589813421489 5.5482879393051325 M-107.61589813421489 5.5482879393051325 C-107.72715514731212 5.1240167292709025, -107.83841216040935 4.699745519236672, -107.93296928754556 4.339158212148136 M-107.61589813421489 5.5482879393051325 C-107.69086920387714 5.262390758015819, -107.7658402735394 4.976493576726504, -107.93296928754556 4.339158212148136 M-107.93296928754556 4.339158212148136 C-107.9886868485547 4.0530603122768465, -108.04440440956385 3.766962412405558, -108.17191977658177 3.112197953150904 M-107.93296928754556 4.339158212148136 C-107.9815049921679 4.089937626937257, -108.03004069679022 3.840717041726378, -108.17191977658177 3.112197953150904 M-108.17191977658177 3.112197953150904 C-108.21489602690573 2.77888264225877, -108.25787227722971 2.4455673313666364, -108.33176770250937 1.872449005199809 M-108.17191977658177 3.112197953150904 C-108.2280430969454 2.676916563213748, -108.28416641730904 2.2416351732765922, -108.33176770250937 1.872449005199809 M-108.33176770250937 1.872449005199809 C-108.35325880526844 1.5377077324213497, -108.37474990802751 1.2029664596428904, -108.41185621591342 0.6250057626472781 M-108.33176770250937 1.872449005199809 C-108.35414200127548 1.5239512417088417, -108.37651630004157 1.1754534782178745, -108.41185621591342 0.6250057626472781 M-108.41185621591342 0.6250057626472781 C-108.41185621591342 0.27412542559987196, -108.41185621591342 -0.07675491144753421, -108.41185621591342 -0.6250057626472687 M-108.41185621591342 0.6250057626472781 C-108.41185621591342 0.25124299102869485, -108.41185621591342 -0.12251978058988844, -108.41185621591342 -0.6250057626472687 M-108.41185621591342 -0.6250057626472687 C-108.38792021056794 -0.9978283666989142, -108.36398420522245 -1.3706509707505596, -108.33176770250937 -1.8724490051997822 M-108.41185621591342 -0.6250057626472687 C-108.39439510815794 -0.8969766102912873, -108.37693400040247 -1.1689474579353059, -108.33176770250937 -1.8724490051997822 M-108.33176770250937 -1.8724490051997822 C-108.28396605767392 -2.2431891230410423, -108.23616441283848 -2.6139292408823023, -108.17191977658177 -3.112197953150895 M-108.33176770250937 -1.8724490051997822 C-108.28008741862438 -2.2732710815853734, -108.2284071347394 -2.6740931579709644, -108.17191977658177 -3.112197953150895 M-108.17191977658177 -3.112197953150895 C-108.09586991712993 -3.5026979082926406, -108.01982005767809 -3.893197863434386, -107.93296928754556 -4.339158212148126 M-108.17191977658177 -3.112197953150895 C-108.09048129795008 -3.530367328896115, -108.00904281931838 -3.9485367046413344, -107.93296928754556 -4.339158212148126 M-107.93296928754556 -4.339158212148126 C-107.83630242922878 -4.7077908385914355, -107.739635570912 -5.076423465034745, -107.61589813421489 -5.548287939305123 M-107.93296928754556 -4.339158212148126 C-107.84228932037209 -4.684960227926977, -107.7516093531986 -5.030762243705828, -107.61589813421489 -5.548287939305123 M-107.61589813421489 -5.548287939305123 C-107.51786389745263 -5.8435514407986195, -107.41982966069035 -6.138814942292117, -107.22200922997033 -6.734618561215485 M-107.61589813421489 -5.548287939305123 C-107.46979686967813 -5.988321670014544, -107.32369560514138 -6.428355400723966, -107.22200922997033 -6.734618561215485 M-107.22200922997033 -6.734618561215485 C-107.12642452123413 -6.970714639798534, -107.03083981249792 -7.2068107183815835, -106.75292114880834 -7.893275190886676 M-107.22200922997033 -6.734618561215485 C-107.1220974471832 -6.981402596362626, -107.02218566439605 -7.228186631509766, -106.75292114880834 -7.893275190886676 M-106.75292114880834 -7.893275190886676 C-106.58587655786553 -8.240146858161083, -106.41883196692274 -8.58701852543549, -106.2105614742735 -9.019496659696282 M-106.75292114880834 -7.893275190886676 C-106.56091228922901 -8.291985696134605, -106.36890342964969 -8.690696201382533, -106.2105614742735 -9.019496659696282 M-106.2105614742735 -9.019496659696282 C-105.96546626496294 -9.454688022408352, -105.7203710556524 -9.88987938512042, -105.59715887860425 -10.108655082055243 M-106.2105614742735 -9.019496659696282 C-105.99031909304082 -9.41055930953435, -105.77007671180814 -9.801621959372417, -105.59715887860425 -10.108655082055243 M-105.59715887860425 -10.108655082055243 C-105.35638894703823 -10.478542352719943, -105.11561901547219 -10.848429623384645, -104.91523396464063 -11.156274872382308 M-105.59715887860425 -10.108655082055243 C-105.37617898845008 -10.448139534741122, -105.15519909829592 -10.787623987427002, -104.91523396464063 -11.156274872382308 M-104.91523396464063 -11.156274872382308 C-104.73425606633167 -11.398768768690623, -104.55327816802269 -11.641262664998937, -104.16758890812659 -12.158051136245302 M-104.91523396464063 -11.156274872382308 C-104.6191734594672 -11.552968977647824, -104.32311295429378 -11.94966308291334, -104.16758890812659 -12.158051136245302 M-104.16758890812659 -12.158051136245302 C-103.98025812279882 -12.37810053611496, -103.79292733747104 -12.59814993598462, -103.35729594296866 -13.10986736009567 M-104.16758890812659 -12.158051136245302 C-103.93803804123378 -12.427694646311938, -103.70848717434099 -12.697338156378573, -103.35729594296866 -13.10986736009567 M-103.35729594296866 -13.10986736009567 C-103.08786949307918 -13.38807228992948, -102.81844304318969 -13.66627721976329, -102.48768473676799 -14.007812326905677 M-103.35729594296866 -13.10986736009567 C-103.12502853245383 -13.349702530961292, -102.89276112193897 -13.589537701826913, -102.48768473676799 -14.007812326905677 M-102.48768473676799 -14.007812326905677 C-102.25121511631774 -14.222567779555291, -102.0147454958675 -14.437323232204903, -101.5623287085019 -14.848196188198107 M-102.48768473676799 -14.007812326905677 C-102.28672111789594 -14.190322168359298, -102.08575749902388 -14.372832009812921, -101.5623287085019 -14.848196188198107 M-101.5623287085019 -14.848196188198107 C-101.2354645567944 -15.108861650964451, -100.90860040508691 -15.369527113730795, -100.58503034457871 -15.627565626425149 M-101.5623287085019 -14.848196188198107 C-101.31602447104896 -15.04461726313579, -101.06972023359603 -15.241038338073471, -100.58503034457871 -15.627565626425149 M-100.58503034457871 -15.627565626425149 C-100.36597978207284 -15.780365816283227, -100.14692921956697 -15.933166006141308, -99.55980557360571 -16.342718045390885 M-100.58503034457871 -15.627565626425149 C-100.23760314798443 -15.869915798888387, -99.89017595139013 -16.112265971351626, -99.55980557360571 -16.342718045390885 M-99.55980557360571 -16.342718045390885 C-99.21426597013472 -16.552186183631107, -98.86872636666372 -16.76165432187133, -98.49086726407678 -16.99071473040609 M-99.55980557360571 -16.342718045390885 C-99.32663650678734 -16.484066503949716, -99.09346743996896 -16.625414962508547, -98.49086726407678 -16.99071473040609 M-98.49086726407678 -16.99071473040609 C-98.1177496380833 -17.18536995689365, -97.74463201208982 -17.380025183381203, -97.3826079127924 -17.56889292409717 M-98.49086726407678 -16.99071473040609 C-98.06862054447774 -17.211000573558987, -97.64637382487868 -17.43128641671188, -97.3826079127924 -17.56889292409717 M-97.3826079127924 -17.56889292409717 C-96.96996019933658 -17.751559826084552, -96.55731248588077 -17.934226728071938, -96.23958159514781 -18.07487676824742 M-97.3826079127924 -17.56889292409717 C-97.06010696651867 -17.71165452636188, -96.73760602024494 -17.85441612862659, -96.23958159514781 -18.07487676824742 M-96.23958159514781 -18.07487676824742 C-95.90101288758449 -18.199473182325548, -95.56244418002116 -18.324069596403675, -95.06648525146062 -18.506587066708033 M-96.23958159514781 -18.07487676824742 C-95.94833327844376 -18.18205884106444, -95.6570849617397 -18.28924091388146, -95.06648525146062 -18.506587066708033 M-95.06648525146062 -18.506587066708033 C-94.61341063518523 -18.641057234581375, -94.16033601890985 -18.77552740245472, -93.86813938623541 -18.862249829261067 M-95.06648525146062 -18.506587066708033 C-94.5933530616289 -18.64701021712854, -94.1202208717972 -18.78743336754905, -93.86813938623541 -18.862249829261067 M-93.86813938623541 -18.862249829261067 C-93.54145233970036 -18.936814015800486, -93.21476529316529 -19.011378202339905, -92.64946825967677 -19.140403561325773 M-93.86813938623541 -18.862249829261067 C-93.59201096931184 -18.925274338517553, -93.31588255238827 -18.988298847774043, -92.64946825967677 -19.140403561325773 M-92.64946825967677 -19.140403561325773 C-92.24676839087961 -19.205508953128774, -91.84406852208244 -19.270614344931776, -91.41547965284788 -19.3399052695533 M-92.64946825967677 -19.140403561325773 C-92.18296711966933 -19.215823847871803, -91.71646597966189 -19.291244134417834, -91.41547965284788 -19.3399052695533 M-91.41547965284788 -19.3399052695533 C-90.97040234581772 -19.382841342078724, -90.52532503878754 -19.425777414604145, -90.1712442896239 -19.45993515863156 M-91.41547965284788 -19.3399052695533 C-90.99589140949949 -19.380382442760425, -90.5763031661511 -19.42085961596755, -90.1712442896239 -19.45993515863156 M-90.1712442896239 -19.45993515863156 C-89.77474582560073 -19.47265009263534, -89.37824736157756 -19.485365026639123, -88.921875 -19.5 M-90.1712442896239 -19.45993515863156 C-89.87094078512617 -19.469565307515488, -89.57063728062843 -19.47919545639942, -88.921875 -19.5 M-88.921875 -19.5 C-88.921875 -19.5, -88.921875 -19.5, -88.921875 -19.5 M-88.921875 -19.5 C-88.921875 -19.5, -88.921875 -19.5, -88.921875 -19.5" stroke="#ccc" stroke-width="1.3" fill="none" stroke-dasharray="0 0" style=""/></g><g class="label" style="" transform="translate(-96.046875, -12)"><rect/><foreignObject width="192.09375" height="24"><div xmlns="http://www.w3.org/1999/xhtml" style="display: table-cell; white-space: nowrap; line-height: 1.5; max-width: 200px; text-align: center;"><span class="nodeLabel"><p>game_process_commands</p></span></div></foreignObject></g></g><g class="node default" id="my-svg-flowchart-BLINK-1" data-look="classic" transform="translate(1179.4609375, 124)"><rect class="basic label-container" style="" x="-121.171875" y="-27" width="242.34375" height="54"/><g class="label" style="" transform="translate(-91.171875, -12)"><rect/><foreignObject width="182.34375" height="24"><div xmlns="http://www.w3.org/1999/xhtml" style="display: table-cell; white-space: nowrap; line-height: 1.5; max-width: 200px; text-align: center;"><span class="nodeLabel"><p>game_update_error_blink</p></span></div></foreignObject></g></g><g class="node default" id="my-svg-flowchart-RES-3" data-look="classic" transform="translate(1179.4609375, 228)"><rect class="basic label-container" style="" x="-85.5859375" y="-27" width="171.171875" height="54"/><g class="label" style="" transform="translate(-55.5859375, -12)"><rect/><foreignObject width="111.171875" height="24"><div xmlns="http://www.w3.org/1999/xhtml" style="display: table-cell; white-space: nowrap; line-height: 1.5; max-width: 200px; text-align: center;"><span class="nodeLabel"><p>resignation_tick</p></span></div></foreignObject></g></g><g class="node default" id="my-svg-flowchart-Q-5" data-look="classic" transform="translate(1179.4609375, 444)"><polygon points="139,0 278,-139 139,-278 0,-139" class="label-container" transform="translate(-138.5, 139)"/><g class="label" style="" transform="translate(-100, -24)"><rect/><foreignObject width="200" height="48"><div xmlns="http://www.w3.org/1999/xhtml" style="display: table; white-space: break-spaces; line-height: 1.5; max-width: 200px; text-align: center; width: 200px;"><span class="nodeLabel"><p>fronta chess_move_command_t</p></span></div></foreignObject></g></g><g class="node default" id="my-svg-flowchart-DRAIN-7" data-look="classic" transform="translate(1179.4609375, 672)"><rect class="basic label-container" style="" x="-130" y="-39" width="260" height="78"/><g class="label" style="" transform="translate(-100, -24)"><rect/><foreignObject width="200" height="48"><div xmlns="http://www.w3.org/1999/xhtml" style="display: table; white-space: break-spaces; line-height: 1.5; max-width: 200px; text-align: center; width: 200px;"><span class="nodeLabel"><p>while receive non-blocking max ~15 / tick</p></span></div></foreignObject></g></g><g class="node default" id="my-svg-flowchart-HA-9" data-look="classic" transform="translate(1179.4609375, 854.2578125)"><polygon points="93.2578125,0 186.515625,-93.2578125 93.2578125,-186.515625 0,-93.2578125" class="label-container" transform="translate(-92.7578125, 93.2578125)"/><g class="label" style="" transform="translate(-66.2578125, -12)"><rect/><foreignObject width="132.515625" height="24"><div xmlns="http://www.w3.org/1999/xhtml" style="display: table-cell; white-space: nowrap; line-height: 1.5; max-width: 200px; text-align: center;"><span class="nodeLabel"><p>read-only GET_* ?</p></span></div></foreignObject></g></g><g class="node default" id="my-svg-flowchart-HA_REP-11" data-look="classic" transform="translate(1259.7734375, 1048.515625)"><rect class="basic label-container" style="" x="-112.2734375" y="-27" width="224.546875" height="54"/><g class="label" style="" transform="translate(-82.2734375, -12)"><rect/><foreignObject width="164.546875" height="24"><div xmlns="http://www.w3.org/1999/xhtml" style="display: table-cell; white-space: nowrap; line-height: 1.5; max-width: 200px; text-align: center;"><span class="nodeLabel"><p>ha_light_report_activity</p></span></div></foreignObject></g></g><g class="node default" id="my-svg-flowchart-SW-13" data-look="classic" transform="translate(1179.4609375, 1192.0859375)"><polygon points="66.5703125,0 133.140625,-66.5703125 66.5703125,-133.140625 0,-66.5703125" class="label-container" transform="translate(-66.0703125, 66.5703125)"/><g class="label" style="" transform="translate(-39.5703125, -12)"><rect/><foreignObject width="79.140625" height="24"><div xmlns="http://www.w3.org/1999/xhtml" style="display: table-cell; white-space: nowrap; line-height: 1.5; max-width: 200px; text-align: center;"><span class="nodeLabel"><p>switch type</p></span></div></foreignObject></g></g><g class="node default" id="my-svg-flowchart-NG-17" data-look="classic" transform="translate(138, 1359.65625)"><rect class="basic label-container" style="" x="-130" y="-39" width="260" height="78"/><g class="label" style="" transform="translate(-100, -24)"><rect/><foreignObject width="200" height="48"><div xmlns="http://www.w3.org/1999/xhtml" style="display: table; white-space: break-spaces; line-height: 1.5; max-width: 200px; text-align: center; width: 200px;"><span class="nodeLabel"><p>NEW_GAME / FROM_FEN / RESET</p></span></div></foreignObject></g></g><g class="node default" id="my-svg-flowchart-MV-19" data-look="classic" transform="translate(449.8359375, 1359.65625)"><rect class="basic label-container" style="" x="-130" y="-39" width="260" height="78"/><g class="label" style="" transform="translate(-100, -24)"><rect/><foreignObject width="200" height="48"><div xmlns="http://www.w3.org/1999/xhtml" style="display: table; white-space: break-spaces; line-height: 1.5; max-width: 200px; text-align: center; width: 200px;"><span class="nodeLabel"><p>MAKE_MOVE / MOVE / chess notation</p></span></div></foreignObject></g></g><g class="node default" id="my-svg-flowchart-PD-21" data-look="classic" transform="translate(799.53125, 1359.65625)"><rect class="basic label-container" style="" x="-130" y="-39" width="260" height="78"/><g class="label" style="" transform="translate(-100, -24)"><rect/><foreignObject width="200" height="48"><div xmlns="http://www.w3.org/1999/xhtml" style="display: table; white-space: break-spaces; line-height: 1.5; max-width: 200px; text-align: center; width: 200px;"><span class="nodeLabel"><p>PICKUP / DROP / matrix tah</p></span></div></foreignObject></g></g><g class="node default" id="my-svg-flowchart-PR-23" data-look="classic" transform="translate(1179.4609375, 1359.65625)"><rect class="basic label-container" style="" x="-79.3359375" y="-27" width="158.671875" height="54"/><g class="label" style="" transform="translate(-49.3359375, -12)"><rect/><foreignObject width="98.671875" height="24"><div xmlns="http://www.w3.org/1999/xhtml" style="display: table-cell; white-space: nowrap; line-height: 1.5; max-width: 200px; text-align: center;"><span class="nodeLabel"><p>PROMOTION</p></span></div></foreignObject></g></g><g class="node default" id="my-svg-flowchart-UNDO-25" data-look="classic" transform="translate(1523.8203125, 1359.65625)"><rect class="basic label-container" style="" x="-81.5625" y="-27" width="163.125" height="54"/><g class="label" style="" transform="translate(-51.5625, -12)"><rect/><foreignObject width="103.125" height="24"><div xmlns="http://www.w3.org/1999/xhtml" style="display: table-cell; white-space: nowrap; line-height: 1.5; max-width: 200px; text-align: center;"><span class="nodeLabel"><p>UNDO_MOVE</p></span></div></foreignObject></g></g><g class="node default" id="my-svg-flowchart-RD-27" data-look="classic" transform="translate(1836.109375, 1359.65625)"><rect class="basic label-container" style="" x="-130" y="-51" width="260" height="102"/><g class="label" style="" transform="translate(-100, -36)"><rect/><foreignObject width="200" height="72"><div xmlns="http://www.w3.org/1999/xhtml" style="display: table; white-space: break-spaces; line-height: 1.5; max-width: 200px; text-align: center; width: 200px;"><span class="nodeLabel"><p>GET_BOARD · GET_STATUS · SHOW_BOARD</p></span></div></foreignObject></g></g><g class="node default" id="my-svg-flowchart-OT-29" data-look="classic" transform="translate(2146.109375, 1359.65625)"><rect class="basic label-container" style="" x="-130" y="-39" width="260" height="78"/><g class="label" style="" transform="translate(-100, -24)"><rect/><foreignObject width="200" height="48"><div xmlns="http://www.w3.org/1999/xhtml" style="display: table; white-space: break-spaces; line-height: 1.5; max-width: 200px; text-align: center; width: 200px;"><span class="nodeLabel"><p>další desítky typů — viz game_task.c</p></span></div></foreignObject></g></g><g class="node default" id="my-svg-flowchart-FN-31" data-look="classic" transform="translate(138, 1499.65625)"><rect class="basic label-container" style="" x="-130" y="-39" width="260" height="78"/><g class="label" style="" transform="translate(-100, -24)"><rect/><foreignObject width="200" height="48"><div xmlns="http://www.w3.org/1999/xhtml" style="display: table; white-space: break-spaces; line-height: 1.5; max-width: 200px; text-align: center; width: 200px;"><span class="nodeLabel"><p>game_start_new_game* · UART echo</p></span></div></foreignObject></g></g><g class="node default" id="my-svg-flowchart-PCM-33" data-look="classic" transform="translate(449.8359375, 1499.65625)"><rect class="basic label-container" style="" x="-131.8359375" y="-27" width="263.671875" height="54"/><g class="label" style="" transform="translate(-101.8359375, -12)"><rect/><foreignObject width="203.671875" height="24"><div xmlns="http://www.w3.org/1999/xhtml" style="display: table; white-space: break-spaces; line-height: 1.5; max-width: 200px; text-align: center; width: 200px;"><span class="nodeLabel"><p>game_process_chess_move</p></span></div></foreignObject></g></g><g class="node default" id="my-svg-flowchart-PPP-35" data-look="classic" transform="translate(799.53125, 1499.65625)"><rect class="basic label-container" style="" x="-167.859375" y="-27" width="335.71875" height="54"/><g class="label" style="" transform="translate(-137.859375, -12)"><rect/><foreignObject width="275.71875" height="24"><div xmlns="http://www.w3.org/1999/xhtml" style="display: table; white-space: break-spaces; line-height: 1.5; max-width: 200px; text-align: center; width: 200px;"><span class="nodeLabel"><p>game_process_pickup/drop_command</p></span></div></foreignObject></g></g><g class="node default" id="my-svg-flowchart-PPR-37" data-look="classic" transform="translate(1179.4609375, 1499.65625)"><rect class="basic label-container" style="" x="-162.0703125" y="-27" width="324.140625" height="54"/><g class="label" style="" transform="translate(-132.0703125, -12)"><rect/><foreignObject width="264.140625" height="24"><div xmlns="http://www.w3.org/1999/xhtml" style="display: table; white-space: break-spaces; line-height: 1.5; max-width: 200px; text-align: center; width: 200px;"><span class="nodeLabel"><p>game_process_promotion_command</p></span></div></foreignObject></g></g><g class="node default" id="my-svg-flowchart-U-39" data-look="classic" transform="translate(1523.8203125, 1499.65625)"><rect class="basic label-container" style="" x="-132.2890625" y="-27" width="264.578125" height="54"/><g class="label" style="" transform="translate(-102.2890625, -12)"><rect/><foreignObject width="204.578125" height="24"><div xmlns="http://www.w3.org/1999/xhtml" style="display: table; white-space: break-spaces; line-height: 1.5; max-width: 200px; text-align: center; width: 200px;"><span class="nodeLabel"><p>game_undo_last_move_impl</p></span></div></foreignObject></g></g><g class="node default" id="my-svg-flowchart-SEND-41" data-look="classic" transform="translate(1836.109375, 1499.65625)"><rect class="basic label-container" style="" x="-130" y="-39" width="260" height="78"/><g class="label" style="" transform="translate(-100, -24)"><rect/><foreignObject width="200" height="48"><div xmlns="http://www.w3.org/1999/xhtml" style="display: table; white-space: break-spaces; line-height: 1.5; max-width: 200px; text-align: center; width: 200px;"><span class="nodeLabel"><p>game_send_board_to_uart / game_print_status</p></span></div></foreignObject></g></g></g></g></g><defs><filter id="my-svg-drop-shadow" height="130%" width="130%"><feDropShadow dx="4" dy="4" stdDeviation="0" flood-opacity="0.06" flood-color="#FFFFFF"/></filter></defs><defs><filter id="my-svg-drop-shadow-small" height="150%" width="150%"><feDropShadow dx="2" dy="2" stdDeviation="0" flood-opacity="0.06" flood-color="#FFFFFF"/></filter></defs><linearGradient id="my-svg-gradient" gradientUnits="objectBoundingBox" x1="0%" y1="0%" x2="100%" y2="0%"><stop offset="0%" stop-color="#cccccc" stop-opacity="1"/><stop offset="100%" stop-color="hsl(180, 0%, 18.3529411765%)" stop-opacity="1"/></linearGradient></svg>