<svg id="my-svg" width="100%" xmlns="http://www.w3.org/2000/svg" xmlns:xlink="http://www.w3.org/1999/xlink" class="flowchart" style="max-width: 2284.11px; background-color: transparent;" viewBox="0 0 2284.109375 1546.65625" role="graphics-document document" aria-roledescription="flowchart-v2"><style>#my-svg{font-size:16px;fill:#ccc;}@keyframes edge-animation-frame{from{stroke-dashoffset:0;}}@keyframes dash{to{stroke-dashoffset:0;}}#my-svg .edge-animation-slow{stroke-dasharray:9,5!important;stroke-dashoffset:900;animation:dash 50s linear infinite;stroke-linecap:round;}#my-svg .edge-animation-fast{stroke-dasharray:9,5!important;stroke-dashoffset:900;animation:dash 20s linear infinite;stroke-linecap:round;}#my-svg .error-icon{fill:#a44141;}#my-svg .error-text{fill:#ddd;stroke:#ddd;}#my-svg .edge-thickness-normal{stroke-width:1px;}#my-svg .edge-thickness-thick{stroke-width:3.5px;}#my-svg .edge-pattern-solid{stroke-dasharray:0;}#my-svg .edge-thickness-invisible{stroke-width:0;fill:none;}#my-svg .edge-pattern-dashed{stroke-dasharray:3;}#my-svg .edge-pattern-dotted{stroke-dasharray:2;}#my-svg .marker{fill:#94a3b8;stroke:#94a3b8;}#my-svg .marker.cross{stroke:#94a3b8;}#my-svg svg{font-size:16px;}#my-svg p{margin:0;}#my-svg .label{color:#ccc;}#my-svg .cluster-label text{fill:#f8fafc;}#my-svg .cluster-label span{color:#f8fafc;}#my-svg .cluster-label span p{background-color:transparent;}#my-svg .label text,#my-svg span{fill:#ccc;color:#ccc;}#my-svg .node rect,#my-svg .node circle,#my-svg .node ellipse,#my-svg .node polygon,#my-svg .node path{fill:#1f2020;stroke:#ccc;stroke-width:1px;}#my-svg .rough-node .label text,#my-svg .node .label text,#my-svg .image-shape .label,#my-svg .icon-shape .label{text-anchor:middle;}#my-svg .node .katex path{fill:#000;stroke:#000;stroke-width:1px;}#my-svg .rough-node .label,#my-svg .node .label,#my-svg .image-shape .label,#my-svg .icon-shape .label{text-align:center;}#my-svg .node.clickable{cursor:pointer;}#my-svg .root .anchor path{fill:#94a3b8!important;stroke-width:0;stroke:#94a3b8;}#my-svg .arrowheadPath{fill:lightgrey;}#my-svg .edgePath .path{stroke:#94a3b8;stroke-width:1px;}#my-svg .flowchart-link{stroke:#94a3b8;fill:none;}#my-svg .edgeLabel{background-color:#1e293b;text-align:center;}#my-svg .edgeLabel p{background-color:#1e293b;}#my-svg .edgeLabel rect{opacity:0.5;background-color:#1e293b;fill:#1e293b;}#my-svg .labelBkg{background-color:rgba(30, 41, 59, 0.5);}#my-svg .cluster rect{fill:#0f172a;stroke:#334155;stroke-width:1px;}#my-svg .cluster text{fill:#f8fafc;}#my-svg .cluster span{color:#f8fafc;}#my-svg div.mermaidTooltip{position:absolute;text-align:center;max-width:200px;padding:2px;font-size:12px;background:hsl(20, 1.5873015873%, 12.3529411765%);border:1px solid rgba(255, 255, 255, 0.25);border-radius:2px;pointer-events:none;z-index:100;}#my-svg .flowchartTitleText{text-anchor:middle;font-size:18px;fill:#ccc;}#my-svg rect.text{fill:none;stroke-width:0;}#my-svg .icon-shape,#my-svg .image-shape{background-color:#1e293b;text-align:center;}#my-svg .icon-shape p,#my-svg .image-shape p{background-color:#1e293b;padding:2px;}#my-svg .icon-shape .label rect,#my-svg .image-shape .label rect{opacity:0.5;background-color:#1e293b;fill:#1e293b;}#my-svg .label-icon{display:inline-block;height:1em;overflow:visible;vertical-align:-0.125em;}#my-svg .node .label-icon path{fill:currentColor;stroke:revert;stroke-width:revert;}#my-svg .node .neo-node{stroke:#ccc;}#my-svg [data-look="neo"].node rect,#my-svg [data-look="neo"].cluster rect,#my-svg [data-look="neo"].node polygon{stroke:url(#my-svg-gradient);filter:drop-shadow( 1px 2px 2px rgba(185,185,185,1));}#my-svg [data-look="neo"].node path{stroke:url(#my-svg-gradient);stroke-width:1px;}#my-svg [data-look="neo"].node .outer-path{filter:drop-shadow( 1px 2px 2px rgba(185,185,185,1));}#my-svg [data-look="neo"].node .neo-line path{stroke:#ccc;filter:none;}#my-svg [data-look="neo"].node circle{stroke:url(#my-svg-gradient);filter:drop-shadow( 1px 2px 2px rgba(185,185,185,1));}#my-svg [data-look="neo"].node circle .state-start{fill:#000000;}#my-svg [data-look="neo"].icon-shape .icon{fill:url(#my-svg-gradient);filter:drop-shadow( 1px 2px 2px rgba(185,185,185,1));}#my-svg [data-look="neo"].icon-shape .icon-neo path{stroke:url(#my-svg-gradient);filter:drop-shadow( 1px 2px 2px rgba(185,185,185,1));}#my-svg :root{--mermaid-font-family:"trebuchet ms",verdana,arial,sans-serif;}</style><g><marker id="my-svg_flowchart-v2-pointEnd" class="marker flowchart-v2" viewBox="0 0 10 10" refX="5" refY="5" markerUnits="userSpaceOnUse" markerWidth="8" markerHeight="8" orient="auto"><path d="M 0 0 L 10 5 L 0 10 z" class="arrowMarkerPath" style="stroke-width: 1; stroke-dasharray: 1, 0;"/></marker><marker id="my-svg_flowchart-v2-pointStart" class="marker flowchart-v2" viewBox="0 0 10 10" refX="4.5" refY="5" markerUnits="userSpaceOnUse" markerWidth="8" markerHeight="8" orient="auto"><path d="M 0 5 L 10 10 L 10 0 z" class="arrowMarkerPath" style="stroke-width: 1; stroke-dasharray: 1, 0;"/></marker><marker id="my-svg_flowchart-v2-pointEnd-margin" class="marker flowchart-v2" viewBox="0 0 11.5 14" refX="11.5" refY="7" markerUnits="userSpaceOnUse" markerWidth="10.5" markerHeight="14" orient="auto"><path d="M 0 0 L 11.5 7 L 0 14 z" class="arrowMarkerPath" style="stroke-width: 0; stroke-dasharray: 1, 0;"/></marker><marker id="my-svg_flowchart-v2-pointStart-margin" class="marker flowchart-v2" viewBox="0 0 11.5 14" refX="1" refY="7" markerUnits="userSpaceOnUse" markerWidth="11.5" markerHeight="14" orient="auto"><polygon points="0,7 11.5,14 11.5,0" class="arrowMarkerPath" style="stroke-width: 0; stroke-dasharray: 1, 0;"/></marker><marker id="my-svg_flowchart-v2-circleEnd" class="marker flowchart-v2" viewBox="0 0 10 10" refX="11" refY="5" markerUnits="userSpaceOnUse" markerWidth="11" markerHeight="11" orient="auto"><circle cx="5" cy="5" r="5" class="arrowMarkerPath" style="stroke-width: 1; stroke-dasharray: 1, 0;"/></marker><marker id="my-svg_flowchart-v2-circleStart" class="marker flowchart-v2" viewBox="0 0 10 10" refX="-1" refY="5" markerUnits="userSpaceOnUse" markerWidth="11" markerHeight="11" orient="auto"><circle cx="5" cy="5" r="5" class="arrowMarkerPath" style="stroke-width: 1; stroke-dasharray: 1, 0;"/></marker><marker id="my-svg_flowchart-v2-circleEnd-margin" class="marker flowchart-v2" viewBox="0 0 10 10" refY="5" refX="12.25" markerUnits="userSpaceOnUse" markerWidth="14" markerHeight="14" orient="auto"><circle cx="5" cy="5" r="5" class="arrowMarkerPath" style="stroke-width: 0; stroke-dasharray: 1, 0;"/></marker><marker id="my-svg_flowchart-v2-circleStart-margin" class="marker flowchart-v2" viewBox="0 0 10 10" refX="-2" refY="5" markerUnits="userSpaceOnUse" markerWidth="14" markerHeight="14" orient="auto"><circle cx="5" cy="5" r="5" class="arrowMarkerPath" style="stroke-width: 0; stroke-dasharray: 1, 0;"/></marker><marker id="my-svg_flowchart-v2-crossEnd" class="marker cross flowchart-v2" viewBox="0 0 11 11" refX="12" refY="5.2" markerUnits="userSpaceOnUse" markerWidth="11" markerHeight="11" orient="auto"><path d="M 1,1 l 9,9 M 10,1 l -9,9" class="arrowMarkerPath" style="stroke-width: 2; stroke-dasharray: 1, 0;"/></marker><marker id="my-svg_flowchart-v2-crossStart" class="marker cross flowchart-v2" viewBox="0 0 11 11" refX="-1" refY="5.2" markerUnits="userSpaceOnUse" markerWidth="11" markerHeight="11" orient="auto"><path d="M 1,1 l 9,9 M 10,1 l -9,9" class="arrowMarkerPath" style="stroke-width: 2; stroke-dasharray: 1, 0;"/></marker><marker id="my-svg_flowchart-v2-crossEnd-margin" class="marker cross flowchart-v2" viewBox="0 0 15 15" refX="17.7" refY="7.5" markerUnits="userSpaceOnUse" markerWidth="12" markerHeight="12" orient="auto"><path d="M 1,1 L 14,14 M 1,14 L 14,1" class="arrowMarkerPath" style="stroke-width: 2.5;"/></marker><marker id="my-svg_flowchart-v2-crossStart-margin" class="marker cross flowchart-v2" viewBox="0 0 15 15" refX="-3.5" refY="7.5" markerUnits="userSpaceOnUse" markerWidth="12" markerHeight="12" orient="auto"><path d="M 1,1 L 14,14 M 1,14 L 14,1" class="arrowMarkerPath" style="stroke-width: 2.5; stroke-dasharray: 1, 0;"/></marker><g class="root"><g class="clusters"/><g class="edgePaths"><path d="M1179.961,47.5L1179.878,51.583C1179.794,55.667,1179.628,63.833,1179.544,71.417C1179.461,79,1179.461,86,1179.461,89.5L1179.461,93" id="my-svg-L_P_BLINK_0" class="edge-thickness-normal edge-pattern-solid edge-thickness-normal edge-pattern-solid flowchart-link" style=";" data-edge="true" data-et="edge" data-id="L_P_BLINK_0" data-points="W3sieCI6MTE3OS45NjA5Mzc1LCJ5Ijo0Ny41fSx7IngiOjExNzkuNDYwOTM3NSwieSI6NzJ9LHsieCI6MTE3OS40NjA5Mzc1LCJ5Ijo5N31d" data-look="classic" marker-end="url(#my-svg_flowchart-v2-pointEnd)"/><path d="M1179.461,151L1179.461,155.167C1179.461,159.333,1179.461,167.667,1179.461,175.333C1179.461,183,1179.461,190,1179.461,193.5L1179.461,197" id="my-svg-L_BLINK_RES_0" class="edge-thickness-normal edge-pattern-solid edge-thickness-normal edge-pattern-solid flowchart-link" style=";" data-edge="true" data-et="edge" data-id="L_BLINK_RES_0" data-points="W3sieCI6MTE3OS40NjA5Mzc1LCJ5IjoxNTF9LHsieCI6MTE3OS40NjA5Mzc1LCJ5IjoxNzZ9LHsieCI6MTE3OS40NjA5Mzc1LCJ5IjoyMDF9XQ==" data-look="classic" marker-end="url(#my-svg_flowchart-v2-pointEnd)"/><path d="M1179.461,255L1179.461,259.167C1179.461,263.333,1179.461,271.667,1179.461,279.333C1179.461,287,1179.461,294,1179.461,297.5L1179.461,301" id="my-svg-L_RES_Q_0" class="edge-thickness-normal edge-pattern-solid edge-thickness-normal edge-pattern-solid flowchart-link" style=";" data-edge="true" data-et="edge" data-id="L_RES_Q_0" data-points="W3sieCI6MTE3OS40NjA5Mzc1LCJ5IjoyNTV9LHsieCI6MTE3OS40NjA5Mzc1LCJ5IjoyODB9LHsieCI6MTE3OS40NjA5Mzc1LCJ5IjozMDV9XQ==" data-look="classic" marker-end="url(#my-svg_flowchart-v2-pointEnd)"/><path d="M1179.461,583L1179.461,587.167C1179.461,591.333,1179.461,599.667,1179.461,607.333C1179.461,615,1179.461,622,1179.461,625.5L1179.461,629" id="my-svg-L_Q_DRAIN_0" class="edge-thickness-normal edge-pattern-solid edge-thickness-normal edge-pattern-solid flowchart-link" style=";" data-edge="true" data-et="edge" data-id="L_Q_DRAIN_0" data-points="W3sieCI6MTE3OS40NjA5Mzc1LCJ5Ijo1ODN9LHsieCI6MTE3OS40NjA5Mzc1LCJ5Ijo2MDh9LHsieCI6MTE3OS40NjA5Mzc1LCJ5Ijo2MzN9XQ==" data-look="classic" marker-end="url(#my-svg_flowchart-v2-pointEnd)"/><path d="M1179.461,711L1179.461,715.167C1179.461,719.333,1179.461,727.667,1179.461,735.333C1179.461,743,1179.461,750,1179.461,753.5L1179.461,757" id="my-svg-L_DRAIN_HA_0" class="edge-thickness-normal edge-pattern-solid edge-thickness-normal edge-pattern-solid flowchart-link" style=";" data-edge="true" data-et="edge" data-id="L_DRAIN_HA_0" data-points="W3sieCI6MTE3OS40NjA5Mzc1LCJ5Ijo3MTF9LHsieCI6MTE3OS40NjA5Mzc1LCJ5Ijo3MzZ9LHsieCI6MTE3OS40NjA5Mzc1LCJ5Ijo3NjF9XQ==" data-look="classic" marker-end="url(#my-svg_flowchart-v2-pointEnd)"/><path d="M1215.03,911.947L1222.487,924.041C1229.944,936.136,1244.859,960.326,1252.316,977.921C1259.773,995.516,1259.773,1006.516,1259.773,1012.016L1259.773,1017.516" id="my-svg-L_HA_HA_REP_0" class="edge-thickness-normal edge-pattern-solid edge-thickness-normal edge-pattern-solid flowchart-link" style=";" data-edge="true" data-et="edge" data-id="L_HA_HA_REP_0" data-points="W3sieCI6MTIxNS4wMjk5MDI0NTc1MTg2LCJ5Ijo5MTEuOTQ2NjYwMDQyNDgxM30seyJ4IjoxMjU5Ljc3MzQzNzUsInkiOjk4NC41MTU2MjV9LHsieCI6MTI1OS43NzM0Mzc1LCJ5IjoxMDIxLjUxNTYyNX1d" data-look="classic" marker-end="url(#my-svg_flowchart-v2-pointEnd)"/><path d="M1143.892,911.947L1136.435,924.041C1128.977,936.136,1114.063,960.326,1106.606,983.087C1099.148,1005.849,1099.148,1027.182,1099.148,1046.516C1099.148,1065.849,1099.148,1083.182,1106.91,1100.699C1114.672,1118.215,1130.195,1135.914,1137.957,1144.764L1145.718,1153.613" id="my-svg-L_HA_SW_0" class="edge-thickness-normal edge-pattern-solid edge-thickness-normal edge-pattern-solid flowchart-link" style=";" data-edge="true" data-et="edge" data-id="L_HA_SW_0" data-points="W3sieCI6MTE0My44OTE5NzI1NDI0ODE0LCJ5Ijo5MTEuOTQ2NjYwMDQyNDgxM30seyJ4IjoxMDk5LjE0ODQzNzUsInkiOjk4NC41MTU2MjV9LHsieCI6MTA5OS4xNDg0Mzc1LCJ5IjoxMDQ4LjUxNTYyNX0seyJ4IjoxMDk5LjE0ODQzNzUsInkiOjExMDAuNTE1NjI1fSx7IngiOjExNDguMzU1ODU5ODg5ODkxNSwieSI6MTE1Ni42MjA3MDI2MTAxMDg1fV0=" data-look="classic" marker-end="url(#my-svg_flowchart-v2-pointEnd)"/><path d="M1259.773,1075.516L1259.773,1079.682C1259.773,1083.849,1259.773,1092.182,1252.012,1105.199C1244.25,1118.215,1228.727,1135.914,1220.965,1144.764L1213.204,1153.613" id="my-svg-L_HA_REP_SW_0" class="edge-thickness-normal edge-pattern-solid edge-thickness-normal edge-pattern-solid flowchart-link" style=";" data-edge="true" data-et="edge" data-id="L_HA_REP_SW_0" data-points="W3sieCI6MTI1OS43NzM0Mzc1LCJ5IjoxMDc1LjUxNTYyNX0seyJ4IjoxMjU5Ljc3MzQzNzUsInkiOjExMDAuNTE1NjI1fSx7IngiOjEyMTAuNTY2MDE1MTEwMTA4NSwieSI6MTE1Ni42MjA3MDI2MTAxMDg1fV0=" data-look="classic" marker-end="url(#my-svg_flowchart-v2-pointEnd)"/><path d="M1118.271,1197.466L954.892,1211.831C791.514,1226.196,464.757,1254.926,301.378,1274.791C138,1294.656,138,1305.656,138,1311.156L138,1316.656" id="my-svg-L_SW_NG_0" class="edge-thickness-normal edge-pattern-solid edge-thickness-normal edge-pattern-solid flowchart-link" style=";" data-edge="true" data-et="edge" data-id="L_SW_NG_0" data-points="W3sieCI6MTExOC4yNzA3NjI4NTQ4NDUzLCJ5IjoxMTk3LjQ2NjA3NTM1NDg0NTN9LHsieCI6MTM4LCJ5IjoxMjgzLjY1NjI1fSx7IngiOjEzOCwieSI6MTMyMC42NTYyNX1d" data-look="classic" marker-end="url(#my-svg_flowchart-v2-pointEnd)"/><path d="M1120.314,1199.509L1008.567,1213.534C896.821,1227.558,673.329,1255.607,561.582,1275.132C449.836,1294.656,449.836,1305.656,449.836,1311.156L449.836,1316.656" id="my-svg-L_SW_MV_0" class="edge-thickness-normal edge-pattern-solid edge-thickness-normal edge-pattern-solid flowchart-link" style=";" data-edge="true" data-et="edge" data-id="L_SW_MV_0" data-points="W3sieCI6MTEyMC4zMTM3ODUxNDk2NzIyLCJ5IjoxMTk5LjUwOTA5NzY0OTY3MjJ9LHsieCI6NDQ5LjgzNTkzNzUsInkiOjEyODMuNjU2MjV9LHsieCI6NDQ5LjgzNTkzNzUsInkiOjEzMjAuNjU2MjV9XQ==" data-look="classic" marker-end="url(#my-svg_flowchart-v2-pointEnd)"/><path d="M1125.819,1205.015L1071.438,1218.122C1017.057,1231.228,908.294,1257.442,853.913,1276.049C799.531,1294.656,799.531,1305.656,799.531,1311.156L799.531,1316.656" id="my-svg-L_SW_PD_0" class="edge-thickness-normal edge-pattern-solid edge-thickness-normal edge-pattern-solid flowchart-link" style=";" data-edge="true" data-et="edge" data-id="L_SW_PD_0" data-points="W3sieCI6MTEyNS44MTkyODczOTQxNjI1LCJ5IjoxMjA1LjAxNDU5OTg5NDE2MjV9LHsieCI6Nzk5LjUzMTI1LCJ5IjoxMjgzLjY1NjI1fSx7IngiOjc5OS41MzEyNSwieSI6MTMyMC42NTYyNX1d" data-look="classic" marker-end="url(#my-svg_flowchart-v2-pointEnd)"/><path d="M1179.461,1258.656L1179.461,1262.823C1179.461,1266.99,1179.461,1275.323,1179.461,1286.99C1179.461,1298.656,1179.461,1313.656,1179.461,1321.156L1179.461,1328.656" id="my-svg-L_SW_PR_0" class="edge-thickness-normal edge-pattern-solid edge-thickness-normal edge-pattern-solid flowchart-link" style=";" data-edge="true" data-et="edge" data-id="L_SW_PR_0" data-points="W3sieCI6MTE3OS40NjA5Mzc1LCJ5IjoxMjU4LjY1NjI1fSx7IngiOjExNzkuNDYwOTM3NSwieSI6MTI4My42NTYyNX0seyJ4IjoxMTc5LjQ2MDkzNzUsInkiOjEzMzIuNjU2MjV9XQ==" data-look="classic" marker-end="url(#my-svg_flowchart-v2-pointEnd)"/><path d="M1232.048,1206.07L1280.676,1219.001C1329.305,1231.932,1426.563,1257.794,1475.192,1278.225C1523.82,1298.656,1523.82,1313.656,1523.82,1321.156L1523.82,1328.656" id="my-svg-L_SW_UNDO_0" class="edge-thickness-normal edge-pattern-solid edge-thickness-normal edge-pattern-solid flowchart-link" style=";" data-edge="true" data-et="edge" data-id="L_SW_UNDO_0" data-points="W3sieCI6MTIzMi4wNDc2NTQ3MjM4NzUsInkiOjEyMDYuMDY5NTMyNzc2MTI1fSx7IngiOjE1MjMuODIwMzEyNSwieSI6MTI4My42NTYyNX0seyJ4IjoxNTIzLjgyMDMxMjUsInkiOjEzMzIuNjU2MjV9XQ==" data-look="classic" marker-end="url(#my-svg_flowchart-v2-pointEnd)"/><path d="M1237.884,1200.233L1337.588,1214.137C1437.293,1228.041,1636.701,1255.849,1736.405,1273.252C1836.109,1290.656,1836.109,1297.656,1836.109,1301.156L1836.109,1304.656" id="my-svg-L_SW_RD_0" class="edge-thickness-normal edge-pattern-solid edge-thickness-normal edge-pattern-solid flowchart-link" style=";" data-edge="true" data-et="edge" data-id="L_SW_RD_0" data-points="W3sieCI6MTIzNy44ODQwODEzODI3MzcxLCJ5IjoxMjAwLjIzMzEwNjExNzI2Mjl9LHsieCI6MTgzNi4xMDkzNzUsInkiOjEyODMuNjU2MjV9LHsieCI6MTgzNi4xMDkzNzUsInkiOjEzMDguNjU2MjV9XQ==" data-look="classic" marker-end="url(#my-svg_flowchart-v2-pointEnd)"/><path d="M1240.271,1197.846L1391.244,1212.148C1542.217,1226.45,1844.163,1255.053,1995.136,1274.855C2146.109,1294.656,2146.109,1305.656,2146.109,1311.156L2146.109,1316.656" id="my-svg-L_SW_OT_0" class="edge-thickness-normal edge-pattern-solid edge-thickness-normal edge-pattern-solid flowchart-link" style=";" data-edge="true" data-et="edge" data-id="L_SW_OT_0" data-points="W3sieCI6MTI0MC4yNzA3NTQ1MjY5NzI3LCJ5IjoxMTk3Ljg0NjQzMjk3MzAyNzN9LHsieCI6MjE0Ni4xMDkzNzUsInkiOjEyODMuNjU2MjV9LHsieCI6MjE0Ni4xMDkzNzUsInkiOjEzMjAuNjU2MjV9XQ==" data-look="classic" marker-end="url(#my-svg_flowchart-v2-pointEnd)"/><path d="M138,1398.656L138,1404.823C138,1410.99,138,1423.323,138,1432.99C138,1442.656,138,1449.656,138,1453.156L138,1456.656" id="my-svg-L_NG_FN_0" class="edge-thickness-normal edge-pattern-solid edge-thickness-normal edge-pattern-solid flowchart-link" style=";" data-edge="true" data-et="edge" data-id="L_NG_FN_0" data-points="W3sieCI6MTM4LCJ5IjoxMzk4LjY1NjI1fSx7IngiOjEzOCwieSI6MTQzNS42NTYyNX0seyJ4IjoxMzgsInkiOjE0NjAuNjU2MjV9XQ==" data-look="classic" marker-end="url(#my-svg_flowchart-v2-pointEnd)"/><path d="M449.836,1398.656L449.836,1404.823C449.836,1410.99,449.836,1423.323,449.836,1434.99C449.836,1446.656,449.836,1457.656,449.836,1463.156L449.836,1468.656" id="my-svg-L_MV_PCM_0" class="edge-thickness-normal edge-pattern-solid edge-thickness-normal edge-pattern-solid flowchart-link" style=";" data-edge="true" data-et="edge" data-id="L_MV_PCM_0" data-points="W3sieCI6NDQ5LjgzNTkzNzUsInkiOjEzOTguNjU2MjV9LHsieCI6NDQ5LjgzNTkzNzUsInkiOjE0MzUuNjU2MjV9LHsieCI6NDQ5LjgzNTkzNzUsInkiOjE0NzIuNjU2MjV9XQ==" data-look="classic" marker-end="url(#my-svg_flowchart-v2-pointEnd)"/><path d="M799.531,1398.656L799.531,1404.823C799.531,1410.99,799.531,1423.323,799.531,1434.99C799.531,1446.656,799.531,1457.656,799.531,1463.156L799.531,1468.656" id="my-svg-L_PD_PPP_0" class="edge-thickness-normal edge-pattern-solid edge-thickness-normal edge-pattern-solid flowchart-link" style=";" data-edge="true" data-et="edge" data-id="L_PD_PPP_0" data-points="W3sieCI6Nzk5LjUzMTI1LCJ5IjoxMzk4LjY1NjI1fSx7IngiOjc5OS41MzEyNSwieSI6MTQzNS42NTYyNX0seyJ4Ijo3OTkuNTMxMjUsInkiOjE0NzIuNjU2MjV9XQ==" data-look="classic" marker-end="url(#my-svg_flowchart-v2-pointEnd)"/><path d="M1179.461,1386.656L1179.461,1394.823C1179.461,1402.99,1179.461,1419.323,1179.461,1432.99C1179.461,1446.656,1179.461,1457.656,1179.461,1463.156L1179.461,1468.656" id="my-svg-L_PR_PPR_0" class="edge-thickness-normal edge-pattern-solid edge-thickness-normal edge-pattern-solid flowchart-link" style=";" data-edge="true" data-et="edge" data-id="L_PR_PPR_0" data-points="W3sieCI6MTE3OS40NjA5Mzc1LCJ5IjoxMzg2LjY1NjI1fSx7IngiOjExNzkuNDYwOTM3NSwieSI6MTQzNS42NTYyNX0seyJ4IjoxMTc5LjQ2MDkzNzUsInkiOjE0NzIuNjU2MjV9XQ==" data-look="classic" marker-end="url(#my-svg_flowchart-v2-pointEnd)"/><path d="M1523.82,1386.656L1523.82,1394.823C1523.82,1402.99,1523.82,1419.323,1523.82,1432.99C1523.82,1446.656,1523.82,1457.656,1523.82,1463.156L1523.82,1468.656" id="my-svg-L_UNDO_U_0" class="edge-thickness-normal edge-pattern-solid edge-thickness-normal edge-pattern-solid flowchart-link" style=";" data-edge="true" data-et="edge" data-id="L_UNDO_U_0" data-points="W3sieCI6MTUyMy44MjAzMTI1LCJ5IjoxMzg2LjY1NjI1fSx7IngiOjE1MjMuODIwMzEyNSwieSI6MTQzNS42NTYyNX0seyJ4IjoxNTIzLjgyMDMxMjUsInkiOjE0NzIuNjU2MjV9XQ==" data-look="classic" marker-end="url(#my-svg_flowchart-v2-pointEnd)"/><path d="M1836.109,1410.656L1836.109,1414.823C1836.109,1418.99,1836.109,1427.323,1836.109,1434.99C1836.109,1442.656,1836.109,1449.656,1836.109,1453.156L1836.109,1456.656" id="my-svg-L_RD_SEND_0" class="edge-thickness-normal edge-pattern-solid edge-thickness-normal edge-pattern-solid flowchart-link" style=";" data-edge="true" data-et="edge" data-id="L_RD_SEND_0" data-points="W3sieCI6MTgzNi4xMDkzNzUsInkiOjE0MTAuNjU2MjV9LHsieCI6MTgzNi4xMDkzNzUsInkiOjE0MzUuNjU2MjV9LHsieCI6MTgzNi4xMDkzNzUsInkiOjE0NjAuNjU2MjV9XQ==" data-look="classic" marker-end="url(#my-svg_flowchart-v2-pointEnd)"/></g><g class="edgeLabels"><g class="edgeLabel"><g class="label" data-id="L_P_BLINK_0" transform="translate(0, 0)"><foreignObject width="0" height="0"><div xmlns="http://www.w3.org/1999/xhtml" class="labelBkg" style="display: table-cell; white-space: nowrap; line-height: 1.5; max-width: 200px; text-align: center;"><span class="edgeLabel"></span></div></foreignObject></g></g><g class="edgeLabel"><g class="label" data-id="L_BLINK_RES_0" transform="translate(0, 0)"><foreignObject width="0" height="0"><div xmlns="http://www.w3.org/1999/xhtml" class="labelBkg" style="display: table-cell; white-space: nowrap; line-height: 1.5; max-width: 200px; text-align: center;"><span class="edgeLabel"></span></div></foreignObject></g></g><g class="edgeLabel"><g class="label" data-id="L_RES_Q_0" transform="translate(0, 0)"><foreignObject width="0" height="0"><div xmlns="http://www.w3.org/1999/xhtml" class="labelBkg" style="display: table-cell; white-space: nowrap; line-height: 1.5; max-width: 200px; text-align: center;"><span class="edgeLabel"></span></div></foreignObject></g></g><g class="edgeLabel"><g class="label" data-id="L_Q_DRAIN_0" transform="translate(0, 0)"><foreignObject width="0" height="0"><div xmlns="http://www.w3.org/1999/xhtml" class="labelBkg" style="display: table-cell; white-space: nowrap; line-height: 1.5; max-width: 200px; text-align: center;"><span class="edgeLabel"></span></div></foreignObject></g></g><g class="edgeLabel"><g class="label" data-id="L_DRAIN_HA_0" transform="translate(0, 0)"><foreignObject width="0" height="0"><div xmlns="http://www.w3.org/1999/xhtml" class="labelBkg" style="display: table-cell; white-space: nowrap; line-height: 1.5; max-width: 200px; text-align: center;"><span class="edgeLabel"></span></div></foreignObject></g></g><g class="edgeLabel" transform="translate(1259.7734375, 984.515625)"><g class="label" data-id="L_HA_HA_REP_0" transform="translate(-8.8984375, -12)"><foreignObject width="17.796875" height="24"><div xmlns="http://www.w3.org/1999/xhtml" class="labelBkg" style="display: table-cell; white-space: nowrap; line-height: 1.5; max-width: 200px; text-align: center;"><span class="edgeLabel"><p>ne</p></span></div></foreignObject></g></g><g class="edgeLabel" transform="translate(1099.1484375, 1048.515625)"><g class="label" data-id="L_HA_SW_0" transform="translate(-13.3515625, -12)"><foreignObject width="26.703125" height="24"><div xmlns="http://www.w3.org/1999/xhtml" class="labelBkg" style="display: table-cell; white-space: nowrap; line-height: 1.5; max-width: 200px; text-align: center;"><span class="edgeLabel"><p>ano</p></span></div></foreignObject></g></g><g class="edgeLabel"><g class="label" data-id="L_HA_REP_SW_0" transform="translate(0, 0)"><foreignObject width="0" height="0"><div xmlns="http://www.w3.org/1999/xhtml" class="labelBkg" style="display: table-cell; white-space: nowrap; line-height: 1.5; max-width: 200px; text-align: center;"><span class="edgeLabel"></span></div></foreignObject></g></g><g class="edgeLabel"><g class="label" data-id="L_SW_NG_0" transform="translate(0, 0)"><foreignObject width="0" height="0"><div xmlns="http://www.w3.org/1999/xhtml" class="labelBkg" style="display: table-cell; white-space: nowrap; line-height: 1.5; max-width: 200px; text-align: center;"><span class="edgeLabel"></span></div></foreignObject></g></g><g class="edgeLabel"><g class="label" data-id="L_SW_MV_0" transform="translate(0, 0)"><foreignObject width="0" height="0"><div xmlns="http://www.w3.org/1999/xhtml" class="labelBkg" style="display: table-cell; white-space: nowrap; line-height: 1.5; max-width: 200px; text-align: center;"><span class="edgeLabel"></span></div></foreignObject></g></g><g class="edgeLabel"><g class="label" data-id="L_SW_PD_0" transform="translate(0, 0)"><foreignObject width="0" height="0"><div xmlns="http://www.w3.org/1999/xhtml" class="labelBkg" style="display: table-cell; white-space: nowrap; line-height: 1.5; max-width: 200px; text-align: center;"><span class="edgeLabel"></span></div></foreignObject></g></g><g class="edgeLabel"><g class="label" data-id="L_SW_PR_0" transform="translate(0, 0)"><foreignObject width="0" height="0"><div xmlns="http://www.w3.org/1999/xhtml" class="labelBkg" style="display: table-cell; white-space: nowrap; line-height: 1.5; max-width: 200px; text-align: center;"><span class="edgeLabel"></span></div></foreignObject></g></g><g class="edgeLabel"><g class="label" data-id="L_SW_UNDO_0" transform="translate(0, 0)"><foreignObject width="0" height="0"><div xmlns="http://www.w3.org/1999/xhtml" class="labelBkg" style="display: table-cell; white-space: nowrap; line-height: 1.5; max-width: 200px; text-align: center;"><span class="edgeLabel"></span></div></foreignObject></g></g><g class="edgeLabel"><g class="label" data-id="L_SW_RD_0" transform="translate(0, 0)"><foreignObject width="0" height="0"><div xmlns="http://www.w3.org/1999/xhtml" class="labelBkg" style="display: table-cell; white-space: nowrap; line-height: 1.5; max-width: 200px; text-align: center;"><span class="edgeLabel"></span></div></foreignObject></g></g><g class="edgeLabel"><g class="label" data-id="L_SW_OT_0" transform="translate(0, 0)"><foreignObject width="0" height="0"><div xmlns="http://www.w3.org/1999/xhtml" class="labelBkg" style="display: table-cell; white-space: nowrap; line-height: 1.5; max-width: 200px; text-align: center;"><span class="edgeLabel"></span></div></foreignObject></g></g><g class="edgeLabel"><g class="label" data-id="L_NG_FN_0" transform="translate(0, 0)"><foreignObject width="0" height="0"><div xmlns="http://www.w3.org/1999/xhtml" class="labelBkg" style="display: table-cell; white-space: nowrap; line-height: 1.5; max-width: 200px; text-align: center;"><span class="edgeLabel"></span></div></foreignObject></g></g><g class="edgeLabel"><g class="label" data-id="L_MV_PCM_0" transform="translate(0, 0)"><foreignObject width="0" height="0"><div xmlns="http://www.w3.org/1999/xhtml" class="labelBkg" style="display: table-cell; white-space: nowrap; line-height: 1.5; max-width: 200px; text-align: center;"><span class="edgeLabel"></span></div></foreignObject></g></g><g class="edgeLabel"><g class="label" data-id="L_PD_PPP_0" transform="translate(0, 0)"><foreignObject width="0" height="0"><div xmlns="http://www.w3.org/1999/xhtml" class="labelBkg" style="display: table-cell; white-space: nowrap; line-height: 1.5; max-width: 200px; text-align: center;"><span class="edgeLabel"></span></div></foreignObject></g></g><g class="edgeLabel"><g class="label" data-id="L_PR_PPR_0" transform="translate(0, 0)"><foreignObject width="0" height="0"><div xmlns="http://www.w3.org/1999/xhtml" class="labelBkg" style="display: table-cell; white-space: nowrap; line-height: 1.5; max-width: 200px; text-align: center;"><span class="edgeLabel"></span></div></foreignObject></g></g><g class="edgeLabel"><g class="label" data-id="L_UNDO_U_0" transform="translate(0, 0)"><foreignObject width="0" height="0"><div xmlns="http://www.w3.org/1999/xhtml" class="labelBkg" style="display: table-cell; white-space: nowrap; line-height: 1.5; max-width: 200px; text-align: center;"><span class="edgeLabel"></span></div></foreignObject></g></g><g class="edgeLabel"><g class="label" data-id="L_RD_SEND_0" transform="translate(0, 0)"><foreignObject width="0" height="0"><div xmlns="http://www.w3.org/1999/xhtml" class="labelBkg" style="display: table-cell; white-space: nowrap; line-height: 1.5; max-width: 200px; text-align: center;"><span class="edgeLabel"></span></div></foreignObject></g></g></g><g class="nodes"><g class="node default" id="my-svg-flowchart-P-0" data-look="classic" transform="translate(1179.4609375, 27.5)"><g class="basic label-container outer-path"><path d="M-88.921875 -19.5 C-20.722542130925163 -19.5, 47.476790738149674 -19.5, 88.921875 -19.5 C88.921875 -19.5, 88.921875 -19.5, 88.921875 -19.5 C89.2678748843362 -19.488904457157258, 89.6138747686724 -19.477808914314515, 90.1712442896239 -19.45993515863156 C90.51506428612986 -19.426767257072672, 90.85888428263583 -19.393599355513786, 91.41547965284786 -19.3399052695533 C91.87408059395719 -19.265762225898158, 92.33268153506651 -19.191619182243016, 92.64946825967675 -19.140403561325776 C92.99104882571869 -19.06244002614821, 93.33262939176065 -18.98447649097064, 93.86813938623538 -18.862249829261074 C94.17733901362807 -18.77048100287289, 94.48653864102076 -18.67871217648471, 95.0664852514606 -18.50658706670804 C95.45435110983931 -18.363848845431985, 95.84221696821803 -18.221110624155926, 96.2395815951478 -18.074876768247425 C96.50804163075058 -17.956037474070083, 96.77650166635335 -17.83719817989274, 97.38260791279238 -17.568892924097174 C97.79685756239044 -17.352779147241435, 98.21110721198849 -17.136665370385693, 98.49086726407678 -16.990714730406097 C98.7160352134393 -16.854216596268788, 98.94120316280183 -16.71771846213148, 99.5598055736057 -16.342718045390892 C99.843903443047 -16.144543670067193, 100.1280013124883 -15.946369294743498, 100.58503034457871 -15.627565626425154 C100.8571454514046 -15.410561070018607, 101.1292605582305 -15.193556513612062, 101.56232870850187 -14.848196188198123 C101.85365026081082 -14.583625662337017, 102.1449718131198 -14.319055136475912, 102.48768473676799 -14.007812326905688 C102.68449426363098 -13.804590332056993, 102.88130379049396 -13.601368337208298, 103.35729594296865 -13.10986736009568 C103.67019806710043 -12.742314720455237, 103.98310019123223 -12.374762080814794, 104.16758890812658 -12.158051136245305 C104.35613076913535 -11.905422219010436, 104.54467263014413 -11.652793301775567, 104.91523396464063 -11.156274872382312 C105.1532496377694 -10.790618882299185, 105.39126531089816 -10.424962892216058, 105.59715887860425 -10.108655082055241 C105.75656559670277 -9.825612312390753, 105.91597231480131 -9.542569542726266, 106.2105614742735 -9.019496659696287 C106.4239674064449 -8.576354675386922, 106.63737333861629 -8.133212691077556, 106.75292114880834 -7.893275190886684 C106.92360622286247 -7.471679758001561, 107.09429129691661 -7.050084325116439, 107.22200922997033 -6.734618561215508 C107.37519226747646 -6.273255658649618, 107.52837530498259 -5.8118927560837275, 107.61589813421489 -5.548287939305138 C107.69049169269361 -5.263830371772998, 107.76508525117234 -4.979372804240858, 107.93296928754556 -4.339158212148133 C107.98586387170612 -4.067555701758015, 108.03875845586667 -3.7959531913678974, 108.17191977658177 -3.1121979531509023 C108.23360273032104 -2.633797144626091, 108.29528568406032 -2.15539633610128, 108.33176770250937 -1.872449005199798 C108.35697111062913 -1.479885579909565, 108.3821745187489 -1.087322154619332, 108.41185621591342 -0.6250057626472757 C108.41185621591342 -0.13794825062659932, 108.41185621591342 0.34910926139407705, 108.41185621591342 0.625005762647271 C108.38634430967535 1.0223742951451142, 108.3608324034373 1.4197428276429571, 108.33176770250937 1.8724490051997846 C108.2762972027949 2.3026672470960787, 108.22082670308042 2.7328854889923733, 108.17191977658177 3.1121979531508885 C108.11489510686462 3.40500757998023, 108.05787043714749 3.6978172068095714, 107.93296928754556 4.339158212148129 C107.80723107219836 4.818652522554243, 107.68149285685116 5.298146832960357, 107.61589813421489 5.548287939305125 C107.4635475204109 6.007143714308879, 107.3111969066069 6.465999489312631, 107.22200922997033 6.734618561215495 C107.05473856251967 7.147780343776972, 106.88746789506901 7.560942126338449, 106.75292114880834 7.893275190886679 C106.61098391221164 8.188010899650077, 106.46904667561495 8.482746608413475, 106.2105614742735 9.019496659696284 C106.02609598734408 9.347033810895539, 105.84163050041464 9.674570962094794, 105.59715887860425 10.108655082055236 C105.43721806803326 10.354367117213496, 105.27727725746227 10.600079152371755, 104.91523396464065 11.156274872382301 C104.74141486848558 11.389176625984685, 104.56759577233049 11.62207837958707, 104.16758890812659 12.158051136245302 C103.95038762980062 12.413188116869845, 103.73318635147464 12.66832509749439, 103.35729594296866 13.10986736009567 C103.08788816298573 13.388053011718126, 102.81848038300282 13.666238663340582, 102.48768473676799 14.007812326905684 C102.14290526267312 14.32093192291365, 101.79812578857826 14.634051518921614, 101.5623287085019 14.848196188198111 C101.28396145394676 15.070186666042082, 101.00559419939162 15.292177143886052, 100.58503034457871 15.627565626425152 C100.27240487465247 15.845639620907232, 99.9597794047262 16.06371361538931, 99.5598055736057 16.34271804539089 C99.2465219553756 16.532632415820874, 98.9332383371455 16.722546786250856, 98.49086726407678 16.990714730406093 C98.10809347970999 17.19040756853194, 97.7253196953432 17.39010040665778, 97.38260791279238 17.56889292409717 C97.08706752121155 17.699719888555773, 96.79152712963072 17.83054685301438, 96.2395815951478 18.07487676824742 C95.9901491191774 18.16667022513306, 95.740716643207 18.2584636820187, 95.06648525146062 18.506587066708033 C94.72162973266113 18.608938374504163, 94.37677421386164 18.711289682300297, 93.86813938623541 18.86224982926107 C93.42095021668766 18.964317839028293, 92.97376104713992 19.06638584879552, 92.64946825967677 19.140403561325773 C92.40188421847604 19.18043102906419, 92.15430017727533 19.220458496802607, 91.41547965284788 19.3399052695533 C90.9544736916066 19.384377960193458, 90.49346773036531 19.42885065083362, 90.1712442896239 19.45993515863156 C89.81490805275178 19.47136216818164, 89.45857181587964 19.482789177731718, 88.921875 19.5 C88.921875 19.5, 88.921875 19.5, 88.921875 19.5 C41.5648828718078 19.5, -5.792109256384407 19.5, -88.921875 19.5 C-89.32864862604579 19.486955561549543, -89.7354222520916 19.473911123099086, -90.1712442896239 19.45993515863156 C-90.64475324602068 19.414256319085798, -91.11826220241747 19.368577479540036, -91.41547965284786 19.3399052695533 C-91.75416856816724 19.285148672296227, -92.09285748348663 19.230392075039155, -92.64946825967675 19.140403561325773 C-92.90797598494854 19.081400859953046, -93.16648371022032 19.02239815858032, -93.86813938623538 18.862249829261074 C-94.30054621582448 18.733913751988798, -94.73295304541358 18.605577674716518, -95.06648525146059 18.506587066708043 C-95.42066028001229 18.376247382242944, -95.77483530856398 18.24590769777785, -96.2395815951478 18.074876768247425 C-96.61799142804718 17.907365960351733, -96.99640126094656 17.739855152456038, -97.38260791279238 17.568892924097174 C-97.64716222211483 17.43087511037877, -97.91171653143729 17.292857296660372, -98.49086726407678 16.990714730406097 C-98.836922280565 16.780934145765926, -99.18297729705324 16.571153561125755, -99.55980557360569 16.3427180453909 C-99.87121267247453 16.125493933816035, -100.18261977134337 15.908269822241172, -100.58503034457871 15.627565626425156 C-100.79150244328784 15.46290962215792, -100.99797454199698 15.298253617890683, -101.56232870850187 14.848196188198125 C-101.84777699937754 14.588959602972745, -102.13322529025322 14.329723017747364, -102.48768473676797 14.007812326905697 C-102.8230775664634 13.661491693981747, -103.15847039615882 13.315171061057796, -103.35729594296865 13.109867360095677 C-103.60773757909857 12.81568436376468, -103.85817921522849 12.521501367433684, -104.16758890812658 12.158051136245307 C-104.4106911153931 11.83231632557485, -104.65379332265964 11.506581514904394, -104.91523396464063 11.156274872382316 C-105.10388679278385 10.866453467976864, -105.29253962092706 10.576632063571413, -105.59715887860425 10.108655082055249 C-105.7263995498587 9.87917518320591, -105.85564022111313 9.64969528435657, -106.2105614742735 9.019496659696289 C-106.35039262146479 8.729134290646323, -106.49022376865608 8.438771921596356, -106.75292114880834 7.893275190886686 C-106.91438462344402 7.4944572868526524, -107.07584809807969 7.095639382818619, -107.22200922997033 6.73461856121551 C-107.34255863718995 6.371542953609667, -107.4631080444096 6.008467346003823, -107.61589813421489 5.5482879393051325 C-107.7084996953191 5.195158053044303, -107.80110125642332 4.842028166783474, -107.93296928754556 4.339158212148136 C-107.99987837468724 3.995594190916192, -108.06678746182891 3.6520301696842474, -108.17191977658177 3.112197953150904 C-108.20938380858735 2.8216343190255775, -108.24684784059292 2.531070684900251, -108.33176770250937 1.872449005199809 C-108.35003112085727 1.5879815224654066, -108.36829453920515 1.303514039731004, -108.41185621591342 0.6250057626472781 C-108.41185621591342 0.3219730029684321, -108.41185621591342 0.0189402432895861, -108.41185621591342 -0.6250057626472687 C-108.39388057772585 -0.9049908370926198, -108.37590493953829 -1.184975911537971, -108.33176770250937 -1.8724490051997822 C-108.26889516956426 -2.3600759551360726, -108.20602263661915 -2.8477029050723632, -108.17191977658177 -3.112197953150895 C-108.10459248099778 -3.4579093863457175, -108.0372651854138 -3.8036208195405394, -107.93296928754556 -4.339158212148126 C-107.86689148402213 -4.591141515284157, -107.8008136804987 -4.843124818420189, -107.61589813421489 -5.548287939305123 C-107.52701480506451 -5.815990365070754, -107.43813147591412 -6.083692790836385, -107.22200922997033 -6.734618561215485 C-107.08534115811993 -7.072191340983362, -106.94867308626955 -7.409764120751239, -106.75292114880834 -7.893275190886676 C-106.60310242067305 -8.204376985466851, -106.45328369253777 -8.515478780047026, -106.2105614742735 -9.019496659696282 C-106.05188915576221 -9.301235428527603, -105.89321683725093 -9.582974197358924, -105.59715887860425 -10.108655082055243 C-105.45673270305444 -10.32438739740773, -105.31630652750464 -10.540119712760218, -104.91523396464063 -11.156274872382308 C-104.64715048440685 -11.515482312988105, -104.37906700417307 -11.874689753593902, -104.16758890812659 -12.158051136245302 C-103.97554441750825 -12.383637522566689, -103.7834999268899 -12.609223908888076, -103.35729594296866 -13.10986736009567 C-103.10083425421261 -13.374685109632518, -102.84437256545657 -13.639502859169365, -102.48768473676799 -14.007812326905677 C-102.28452374718414 -14.192317762300512, -102.08136275760027 -14.376823197695348, -101.5623287085019 -14.848196188198107 C-101.24919950947573 -15.097908391703537, -100.93607031044955 -15.347620595208967, -100.58503034457871 -15.627565626425149 C-100.29595926343713 -15.829209098944103, -100.00688818229554 -16.030852571463058, -99.55980557360571 -16.342718045390885 C-99.31027545714217 -16.493984668392816, -99.06074534067862 -16.64525129139475, -98.49086726407678 -16.99071473040609 C-98.06703352421297 -17.211828521014578, -97.64319978434916 -17.432942311623062, -97.3826079127924 -17.56889292409717 C-97.11383250696954 -17.68787182331581, -96.84505710114671 -17.80685072253445, -96.23958159514781 -18.07487676824742 C-95.83784238332792 -18.222720511833703, -95.43610317150804 -18.370564255419985, -95.06648525146062 -18.506587066708033 C-94.81942043985552 -18.579914605922763, -94.57235562825043 -18.653242145137494, -93.86813938623541 -18.862249829261067 C-93.52502289581483 -18.940563929155218, -93.18190640539423 -19.018878029049368, -92.64946825967677 -19.140403561325773 C-92.15675434747156 -19.220061725597652, -91.66404043526636 -19.299719889869536, -91.41547965284788 -19.3399052695533 C-91.1190140974465 -19.368504945130876, -90.82254854204511 -19.39710462070845, -90.1712442896239 -19.45993515863156 C-89.8248926583081 -19.471041981315302, -89.4785410269923 -19.48214880399905, -88.921875 -19.5 C-88.921875 -19.5, -88.921875 -19.5, -88.921875 -19.5" stroke="none" stroke-width="0" fill="#1f2020" style=""/><path d="M-88.921875 -19.5 C-49.62716349386362 -19.5, -10.33245198772724 -19.5, 88.921875 -19.5 M-88.921875 -19.5 C-23.757159841809028 -19.5, 41.407555316381945 -19.5, 88.921875 -19.5 M88.921875 -19.5 C88.921875 -19.5, 88.921875 -19.5, 88.921875 -19.5 M88.921875 -19.5 C88.921875 -19.5, 88.921875 -19.5, 88.921875 -19.5 M88.921875 -19.5 C89.20036021219279 -19.49106952128356, 89.47884542438557 -19.48213904256712, 90.1712442896239 -19.45993515863156 M88.921875 -19.5 C89.2592917438312 -19.489179701767185, 89.5967084876624 -19.478359403534366, 90.1712442896239 -19.45993515863156 M90.1712442896239 -19.45993515863156 C90.46362241593742 -19.431729792422235, 90.75600054225096 -19.40352442621291, 91.41547965284786 -19.3399052695533 M90.1712442896239 -19.45993515863156 C90.53655265782189 -19.42469429969909, 90.90186102601987 -19.389453440766623, 91.41547965284786 -19.3399052695533 M91.41547965284786 -19.3399052695533 C91.7677884208253 -19.282946720142007, 92.12009718880275 -19.225988170730716, 92.64946825967675 -19.140403561325776 M91.41547965284786 -19.3399052695533 C91.88735682157113 -19.26361582837622, 92.3592339902944 -19.18732638719914, 92.64946825967675 -19.140403561325776 M92.64946825967675 -19.140403561325776 C93.08315701019518 -19.041416934103527, 93.51684576071361 -18.942430306881278, 93.86813938623538 -18.862249829261074 M92.64946825967675 -19.140403561325776 C92.95468752847302 -19.070739254964895, 93.25990679726927 -19.001074948604018, 93.86813938623538 -18.862249829261074 M93.86813938623538 -18.862249829261074 C94.22119644604395 -18.757464347144218, 94.57425350585251 -18.652678865027365, 95.0664852514606 -18.50658706670804 M93.86813938623538 -18.862249829261074 C94.30815503734532 -18.731655493700934, 94.74817068845525 -18.601061158140794, 95.0664852514606 -18.50658706670804 M95.0664852514606 -18.50658706670804 C95.53285853962755 -18.33495738555519, 95.99923182779449 -18.163327704402334, 96.2395815951478 -18.074876768247425 M95.0664852514606 -18.50658706670804 C95.49625986451431 -18.348426036311302, 95.92603447756802 -18.190265005914565, 96.2395815951478 -18.074876768247425 M96.2395815951478 -18.074876768247425 C96.5322819540579 -17.945307002005578, 96.82498231296798 -17.815737235763734, 97.38260791279238 -17.568892924097174 M96.2395815951478 -18.074876768247425 C96.63361438889699 -17.900450139022187, 97.02764718264619 -17.72602350979695, 97.38260791279238 -17.568892924097174 M97.38260791279238 -17.568892924097174 C97.80951536265425 -17.34617558095151, 98.23642281251612 -17.123458237805846, 98.49086726407678 -16.990714730406097 M97.38260791279238 -17.568892924097174 C97.70676908942954 -17.39977824588071, 98.0309302660667 -17.23066356766425, 98.49086726407678 -16.990714730406097 M98.49086726407678 -16.990714730406097 C98.89682011595978 -16.744623725950856, 99.3027729678428 -16.498532721495618, 99.5598055736057 -16.342718045390892 M98.49086726407678 -16.990714730406097 C98.8302144558702 -16.785000468515474, 99.16956164766361 -16.579286206624847, 99.5598055736057 -16.342718045390892 M99.5598055736057 -16.342718045390892 C99.77555222268633 -16.192222522514157, 99.99129887176696 -16.04172699963742, 100.58503034457871 -15.627565626425154 M99.5598055736057 -16.342718045390892 C99.81093930616252 -16.167538024963314, 100.06207303871936 -15.992358004535738, 100.58503034457871 -15.627565626425154 M100.58503034457871 -15.627565626425154 C100.89394579626922 -15.381213774287382, 101.20286124795973 -15.134861922149609, 101.56232870850187 -14.848196188198123 M100.58503034457871 -15.627565626425154 C100.90351994866369 -15.373578642531694, 101.22200955274866 -15.119591658638235, 101.56232870850187 -14.848196188198123 M101.56232870850187 -14.848196188198123 C101.8982469519735 -14.543124127386868, 102.23416519544513 -14.238052066575612, 102.48768473676799 -14.007812326905688 M101.56232870850187 -14.848196188198123 C101.81288699482242 -14.62064578197077, 102.06344528114298 -14.39309537574342, 102.48768473676799 -14.007812326905688 M102.48768473676799 -14.007812326905688 C102.68493415579583 -13.80413610728096, 102.88218357482367 -13.600459887656234, 103.35729594296865 -13.10986736009568 M102.48768473676799 -14.007812326905688 C102.82527446236223 -13.659223218597694, 103.16286418795649 -13.310634110289701, 103.35729594296865 -13.10986736009568 M103.35729594296865 -13.10986736009568 C103.64942109147715 -12.766720538265748, 103.94154623998566 -12.423573716435813, 104.16758890812658 -12.158051136245305 M103.35729594296865 -13.10986736009568 C103.54014457736503 -12.89508294975165, 103.7229932117614 -12.68029853940762, 104.16758890812658 -12.158051136245305 M104.16758890812658 -12.158051136245305 C104.34470997066246 -11.920725048507968, 104.52183103319834 -11.683398960770633, 104.91523396464063 -11.156274872382312 M104.16758890812658 -12.158051136245305 C104.43915567323585 -11.794176411240143, 104.71072243834512 -11.430301686234978, 104.91523396464063 -11.156274872382312 M104.91523396464063 -11.156274872382312 C105.15282402550747 -10.791272737026413, 105.39041408637429 -10.426270601670515, 105.59715887860425 -10.108655082055241 M104.91523396464063 -11.156274872382312 C105.1492244447745 -10.796802659655002, 105.38321492490839 -10.43733044692769, 105.59715887860425 -10.108655082055241 M105.59715887860425 -10.108655082055241 C105.77145414006569 -9.799176196021419, 105.94574940152711 -9.489697309987596, 106.2105614742735 -9.019496659696287 M105.59715887860425 -10.108655082055241 C105.76245576621083 -9.815153719984867, 105.92775265381741 -9.521652357914492, 106.2105614742735 -9.019496659696287 M106.2105614742735 -9.019496659696287 C106.3314364291808 -8.768497229521575, 106.45231138408809 -8.517497799346863, 106.75292114880834 -7.893275190886684 M106.2105614742735 -9.019496659696287 C106.34835428528335 -8.733366939340486, 106.4861470962932 -8.447237218984686, 106.75292114880834 -7.893275190886684 M106.75292114880834 -7.893275190886684 C106.9134866045017 -7.496675411002206, 107.07405206019504 -7.100075631117727, 107.22200922997033 -6.734618561215508 M106.75292114880834 -7.893275190886684 C106.90725462541619 -7.5120685198305255, 107.06158810202403 -7.130861848774366, 107.22200922997033 -6.734618561215508 M107.22200922997033 -6.734618561215508 C107.34611996564354 -6.360816799728117, 107.47023070131675 -5.9870150382407274, 107.61589813421489 -5.548287939305138 M107.22200922997033 -6.734618561215508 C107.32427040487215 -6.426624195516795, 107.42653157977398 -6.118629829818081, 107.61589813421489 -5.548287939305138 M107.61589813421489 -5.548287939305138 C107.69170606431352 -5.259199446474329, 107.76751399441214 -4.9701109536435215, 107.93296928754556 -4.339158212148133 M107.61589813421489 -5.548287939305138 C107.71152596499363 -5.183617575181759, 107.80715379577236 -4.81894721105838, 107.93296928754556 -4.339158212148133 M107.93296928754556 -4.339158212148133 C107.9979703536411 -4.005391475727716, 108.06297141973664 -3.6716247393072994, 108.17191977658177 -3.1121979531509023 M107.93296928754556 -4.339158212148133 C108.00368343015879 -3.9760560352685337, 108.07439757277201 -3.6129538583889342, 108.17191977658177 -3.1121979531509023 M108.17191977658177 -3.1121979531509023 C108.20777315140809 -2.8341262580476836, 108.24362652623441 -2.5560545629444644, 108.33176770250937 -1.872449005199798 M108.17191977658177 -3.1121979531509023 C108.20733905140688 -2.8374930519343367, 108.24275832623198 -2.562788150717771, 108.33176770250937 -1.872449005199798 M108.33176770250937 -1.872449005199798 C108.36162096393402 -1.4074603613920214, 108.39147422535866 -0.9424717175842449, 108.41185621591342 -0.6250057626472757 M108.33176770250937 -1.872449005199798 C108.35846445565817 -1.4566255256761071, 108.38516120880695 -1.0408020461524163, 108.41185621591342 -0.6250057626472757 M108.41185621591342 -0.6250057626472757 C108.41185621591342 -0.31944736401053553, 108.41185621591342 -0.013888965373795359, 108.41185621591342 0.625005762647271 M108.41185621591342 -0.6250057626472757 C108.41185621591342 -0.31680068618741497, 108.41185621591342 -0.008595609727554243, 108.41185621591342 0.625005762647271 M108.41185621591342 0.625005762647271 C108.39125535219797 0.9458808437331468, 108.37065448848253 1.2667559248190225, 108.33176770250937 1.8724490051997846 M108.41185621591342 0.625005762647271 C108.39437718802263 0.8972557308636934, 108.37689816013183 1.1695056990801156, 108.33176770250937 1.8724490051997846 M108.33176770250937 1.8724490051997846 C108.27555368876509 2.308433795087792, 108.21933967502082 2.7444185849757994, 108.17191977658177 3.1121979531508885 M108.33176770250937 1.8724490051997846 C108.28452204584642 2.2388769885674913, 108.23727638918345 2.6053049719351984, 108.17191977658177 3.1121979531508885 M108.17191977658177 3.1121979531508885 C108.09552422732264 3.504472952391489, 108.01912867806351 3.89674795163209, 107.93296928754556 4.339158212148129 M108.17191977658177 3.1121979531508885 C108.09898423339101 3.4867065525029375, 108.02604869020026 3.861215151854986, 107.93296928754556 4.339158212148129 M107.93296928754556 4.339158212148129 C107.85059556296308 4.653284924979223, 107.76822183838058 4.967411637810319, 107.61589813421489 5.548287939305125 M107.93296928754556 4.339158212148129 C107.82639466299214 4.745573445304771, 107.71982003843873 5.1519886784614135, 107.61589813421489 5.548287939305125 M107.61589813421489 5.548287939305125 C107.50065343600399 5.895386608567287, 107.38540873779307 6.242485277829448, 107.22200922997033 6.734618561215495 M107.61589813421489 5.548287939305125 C107.50629713962675 5.878388672457572, 107.3966961450386 6.208489405610017, 107.22200922997033 6.734618561215495 M107.22200922997033 6.734618561215495 C107.08052803526725 7.084079847484924, 106.93904684056416 7.433541133754353, 106.75292114880834 7.893275190886679 M107.22200922997033 6.734618561215495 C107.04277051519071 7.177341652065948, 106.8635318004111 7.6200647429164015, 106.75292114880834 7.893275190886679 M106.75292114880834 7.893275190886679 C106.55503006763549 8.304200255132951, 106.35713898646263 8.715125319379224, 106.2105614742735 9.019496659696284 M106.75292114880834 7.893275190886679 C106.54640054648203 8.322119640450266, 106.33987994415573 8.750964090013852, 106.2105614742735 9.019496659696284 M106.2105614742735 9.019496659696284 C106.04772035219978 9.308637561389846, 105.88487923012605 9.597778463083408, 105.59715887860425 10.108655082055236 M106.2105614742735 9.019496659696284 C106.02754654941417 9.344458191054748, 105.84453162455483 9.669419722413213, 105.59715887860425 10.108655082055236 M105.59715887860425 10.108655082055236 C105.40487351424069 10.404057037567688, 105.21258814987715 10.699458993080139, 104.91523396464065 11.156274872382301 M105.59715887860425 10.108655082055236 C105.45887186408117 10.32110107162551, 105.3205848495581 10.533547061195783, 104.91523396464065 11.156274872382301 M104.91523396464065 11.156274872382301 C104.7283670787211 11.40665947559097, 104.54150019280156 11.65704407879964, 104.16758890812659 12.158051136245302 M104.91523396464065 11.156274872382301 C104.74545085723705 11.383768768743856, 104.57566774983343 11.611262665105412, 104.16758890812659 12.158051136245302 M104.16758890812659 12.158051136245302 C103.86944051762414 12.50827320085349, 103.57129212712171 12.858495265461677, 103.35729594296866 13.10986736009567 M104.16758890812659 12.158051136245302 C103.8489877162367 12.53229822516054, 103.53038652434684 12.906545314075778, 103.35729594296866 13.10986736009567 M103.35729594296866 13.10986736009567 C103.12764787364279 13.346997846131769, 102.89799980431691 13.584128332167868, 102.48768473676799 14.007812326905684 M103.35729594296866 13.10986736009567 C103.07619309050598 13.400129134236787, 102.7950902380433 13.690390908377905, 102.48768473676799 14.007812326905684 M102.48768473676799 14.007812326905684 C102.24543445704684 14.22781762135727, 102.00318417732569 14.447822915808855, 101.5623287085019 14.848196188198111 M102.48768473676799 14.007812326905684 C102.22732895501129 14.244260559260617, 101.9669731732546 14.48070879161555, 101.5623287085019 14.848196188198111 M101.5623287085019 14.848196188198111 C101.32093346436037 15.04070247160375, 101.07953822021884 15.23320875500939, 100.58503034457871 15.627565626425152 M101.5623287085019 14.848196188198111 C101.3295423725182 15.033837096440537, 101.09675603653452 15.219478004682964, 100.58503034457871 15.627565626425152 M100.58503034457871 15.627565626425152 C100.36738159152017 15.779387974696126, 100.14973283846163 15.9312103229671, 99.5598055736057 16.34271804539089 M100.58503034457871 15.627565626425152 C100.29472828470398 15.830067776420135, 100.00442622482925 16.032569926415118, 99.5598055736057 16.34271804539089 M99.5598055736057 16.34271804539089 C99.32607340778064 16.484407857876715, 99.09234124195557 16.62609767036254, 98.49086726407678 16.990714730406093 M99.5598055736057 16.34271804539089 C99.19986134897285 16.560918349630377, 98.83991712434 16.779118653869865, 98.49086726407678 16.990714730406093 M98.49086726407678 16.990714730406093 C98.22482379845468 17.129509436012174, 97.95878033283257 17.268304141618252, 97.38260791279238 17.56889292409717 M98.49086726407678 16.990714730406093 C98.23452178314089 17.12445000361323, 97.978176302205 17.258185276820367, 97.38260791279238 17.56889292409717 M97.38260791279238 17.56889292409717 C97.05196057523159 17.715260692130553, 96.72131323767081 17.86162846016393, 96.2395815951478 18.07487676824742 M97.38260791279238 17.56889292409717 C97.05005089951754 17.71610604892064, 96.71749388624272 17.863319173744113, 96.2395815951478 18.07487676824742 M96.2395815951478 18.07487676824742 C95.80769719520649 18.233814219721452, 95.37581279526519 18.392751671195484, 95.06648525146062 18.506587066708033 M96.2395815951478 18.07487676824742 C95.78354406412772 18.242702795227537, 95.32750653310764 18.410528822207652, 95.06648525146062 18.506587066708033 M95.06648525146062 18.506587066708033 C94.60663388254197 18.643068539193994, 94.14678251362334 18.779550011679955, 93.86813938623541 18.86224982926107 M95.06648525146062 18.506587066708033 C94.71946116288407 18.60958199463094, 94.37243707430753 18.712576922553847, 93.86813938623541 18.86224982926107 M93.86813938623541 18.86224982926107 C93.60741731005155 18.92175794177949, 93.34669523386769 18.981266054297905, 92.64946825967677 19.140403561325773 M93.86813938623541 18.86224982926107 C93.61906030424159 18.91910050433325, 93.36998122224776 18.975951179405428, 92.64946825967677 19.140403561325773 M92.64946825967677 19.140403561325773 C92.24056210052827 19.20651233802228, 91.83165594137975 19.272621114718785, 91.41547965284788 19.3399052695533 M92.64946825967677 19.140403561325773 C92.31756405916863 19.19406325850841, 91.9856598586605 19.24772295569105, 91.41547965284788 19.3399052695533 M91.41547965284788 19.3399052695533 C90.92151452865251 19.387557491004447, 90.42754940445712 19.4352097124556, 90.1712442896239 19.45993515863156 M91.41547965284788 19.3399052695533 C91.07220692530764 19.373020376733248, 90.7289341977674 19.4061354839132, 90.1712442896239 19.45993515863156 M90.1712442896239 19.45993515863156 C89.78920188530027 19.47218651493779, 89.40715948097666 19.48443787124402, 88.921875 19.5 M90.1712442896239 19.45993515863156 C89.87513966619431 19.46943065757226, 89.57903504276473 19.478926156512962, 88.921875 19.5 M88.921875 19.5 C88.921875 19.5, 88.921875 19.5, 88.921875 19.5 M88.921875 19.5 C88.921875 19.5, 88.921875 19.5, 88.921875 19.5 M88.921875 19.5 C45.846600442714326 19.5, 2.771325885428652 19.5, -88.921875 19.5 M88.921875 19.5 C37.49273031197698 19.5, -13.936414376046045 19.5, -88.921875 19.5 M-88.921875 19.5 C-89.36609167640879 19.48575483580288, -89.81030835281759 19.471509671605755, -90.1712442896239 19.45993515863156 M-88.921875 19.5 C-89.38156484261675 19.48525864147928, -89.84125468523351 19.47051728295856, -90.1712442896239 19.45993515863156 M-90.1712442896239 19.45993515863156 C-90.44672113860285 19.433360238319942, -90.72219798758181 19.406785318008325, -91.41547965284786 19.3399052695533 M-90.1712442896239 19.45993515863156 C-90.42672796493615 19.43528895573826, -90.6822116402484 19.41064275284496, -91.41547965284786 19.3399052695533 M-91.41547965284786 19.3399052695533 C-91.85946719875804 19.268124806305384, -92.3034547446682 19.19634434305747, -92.64946825967675 19.140403561325773 M-91.41547965284786 19.3399052695533 C-91.80572729903238 19.27681305653388, -92.1959749452169 19.213720843514462, -92.64946825967675 19.140403561325773 M-92.64946825967675 19.140403561325773 C-92.9162992170381 19.07950113654277, -93.18313017439944 19.018598711759765, -93.86813938623538 18.862249829261074 M-92.64946825967675 19.140403561325773 C-92.89705193434004 19.083894203218343, -93.14463560900333 19.027384845110916, -93.86813938623538 18.862249829261074 M-93.86813938623538 18.862249829261074 C-94.26473620988754 18.744541973780326, -94.66133303353969 18.626834118299573, -95.06648525146059 18.506587066708043 M-93.86813938623538 18.862249829261074 C-94.21428650327098 18.759515181888208, -94.56043362030657 18.656780534515338, -95.06648525146059 18.506587066708043 M-95.06648525146059 18.506587066708043 C-95.4931678492046 18.34956392652755, -95.9198504469486 18.19254078634706, -96.2395815951478 18.074876768247425 M-95.06648525146059 18.506587066708043 C-95.43772630633372 18.36996692680004, -95.80896736120684 18.23334678689204, -96.2395815951478 18.074876768247425 M-96.2395815951478 18.074876768247425 C-96.68097611707195 17.879484506894883, -97.1223706389961 17.68409224554234, -97.38260791279238 17.568892924097174 M-96.2395815951478 18.074876768247425 C-96.65216493064939 17.892238364470668, -97.06474826615099 17.70959996069391, -97.38260791279238 17.568892924097174 M-97.38260791279238 17.568892924097174 C-97.74291019779588 17.380923452795482, -98.10321248279936 17.192953981493787, -98.49086726407678 16.990714730406097 M-97.38260791279238 17.568892924097174 C-97.72269980196361 17.39146720335579, -98.06279169113486 17.21404148261441, -98.49086726407678 16.990714730406097 M-98.49086726407678 16.990714730406097 C-98.72196125088381 16.85062419754467, -98.95305523769083 16.71053366468324, -99.55980557360569 16.3427180453909 M-98.49086726407678 16.990714730406097 C-98.73134046158933 16.84493846489662, -98.97181365910188 16.699162199387143, -99.55980557360569 16.3427180453909 M-99.55980557360569 16.3427180453909 C-99.76502438303 16.19956628771558, -99.9702431924543 16.056414530040257, -100.58503034457871 15.627565626425156 M-99.55980557360569 16.3427180453909 C-99.95598798778511 16.066358343719628, -100.35217040196454 15.789998642048355, -100.58503034457871 15.627565626425156 M-100.58503034457871 15.627565626425156 C-100.9161315303663 15.363521241732142, -101.24723271615389 15.099476857039127, -101.56232870850187 14.848196188198125 M-100.58503034457871 15.627565626425156 C-100.94055360805564 15.344045284673683, -101.29607687153255 15.06052494292221, -101.56232870850187 14.848196188198125 M-101.56232870850187 14.848196188198125 C-101.87047962578187 14.568341678350915, -102.17863054306187 14.288487168503705, -102.48768473676797 14.007812326905697 M-101.56232870850187 14.848196188198125 C-101.75344400256309 14.674630334765308, -101.94455929662432 14.501064481332488, -102.48768473676797 14.007812326905697 M-102.48768473676797 14.007812326905697 C-102.70566477215094 13.782730043879052, -102.9236448075339 13.557647760852406, -103.35729594296865 13.109867360095677 M-102.48768473676797 14.007812326905697 C-102.79597838525352 13.6894738234651, -103.10427203373906 13.371135320024505, -103.35729594296865 13.109867360095677 M-103.35729594296865 13.109867360095677 C-103.52972290529016 12.90732483878074, -103.70214986761165 12.704782317465803, -104.16758890812658 12.158051136245307 M-103.35729594296865 13.109867360095677 C-103.66374331913102 12.749896834705671, -103.9701906952934 12.389926309315666, -104.16758890812658 12.158051136245307 M-104.16758890812658 12.158051136245307 C-104.3573908112972 11.903733877305775, -104.54719271446781 11.649416618366246, -104.91523396464063 11.156274872382316 M-104.16758890812658 12.158051136245307 C-104.35535133949747 11.906466583717693, -104.54311377086837 11.654882031190077, -104.91523396464063 11.156274872382316 M-104.91523396464063 11.156274872382316 C-105.16742389397297 10.76884341844978, -105.41961382330531 10.381411964517245, -105.59715887860425 10.108655082055249 M-104.91523396464063 11.156274872382316 C-105.13195579601945 10.823331941424236, -105.34867762739829 10.490389010466156, -105.59715887860425 10.108655082055249 M-105.59715887860425 10.108655082055249 C-105.73495873081465 9.863977490707532, -105.87275858302507 9.619299899359813, -106.2105614742735 9.019496659696289 M-105.59715887860425 10.108655082055249 C-105.8284933340585 9.69789733124245, -106.05982778951278 9.287139580429649, -106.2105614742735 9.019496659696289 M-106.2105614742735 9.019496659696289 C-106.37891381640675 8.66990941909354, -106.54726615854 8.320322178490793, -106.75292114880834 7.893275190886686 M-106.2105614742735 9.019496659696289 C-106.32274597639667 8.786543140673707, -106.43493047851985 8.553589621651126, -106.75292114880834 7.893275190886686 M-106.75292114880834 7.893275190886686 C-106.88331675245298 7.571195528856937, -107.01371235609761 7.2491158668271884, -107.22200922997033 6.73461856121551 M-106.75292114880834 7.893275190886686 C-106.8940690958171 7.54463703286513, -107.03521704282586 7.195998874843574, -107.22200922997033 6.73461856121551 M-107.22200922997033 6.73461856121551 C-107.30268342601008 6.491640736431337, -107.38335762204984 6.248662911647164, -107.61589813421489 5.5482879393051325 M-107.22200922997033 6.73461856121551 C-107.36825032799602 6.29416367431683, -107.51449142602172 5.853708787418151, -107.61589813421489 5.5482879393051325 M-107.61589813421489 5.5482879393051325 C-107.68685826875134 5.277686192000796, -107.75781840328779 5.007084444696459, -107.93296928754556 4.339158212148136 M-107.61589813421489 5.5482879393051325 C-107.69336611452812 5.252868955535718, -107.77083409484135 4.957449971766303, -107.93296928754556 4.339158212148136 M-107.93296928754556 4.339158212148136 C-107.99999865490157 3.9949765774368218, -108.06702802225759 3.6507949427255078, -108.17191977658177 3.112197953150904 M-107.93296928754556 4.339158212148136 C-108.02403407371402 3.8715597817224645, -108.11509885988248 3.4039613512967932, -108.17191977658177 3.112197953150904 M-108.17191977658177 3.112197953150904 C-108.21892914895366 2.7476025440850953, -108.26593852132555 2.3830071350192865, -108.33176770250937 1.872449005199809 M-108.17191977658177 3.112197953150904 C-108.22113843623553 2.73046774820005, -108.2703570958893 2.3487375432491957, -108.33176770250937 1.872449005199809 M-108.33176770250937 1.872449005199809 C-108.35731715607847 1.4744956427134315, -108.38286660964755 1.0765422802270541, -108.41185621591342 0.6250057626472781 M-108.33176770250937 1.872449005199809 C-108.35308913873968 1.5403504255591811, -108.37441057496999 1.2082518459185532, -108.41185621591342 0.6250057626472781 M-108.41185621591342 0.6250057626472781 C-108.41185621591342 0.3065870847634065, -108.41185621591342 -0.011831593120465111, -108.41185621591342 -0.6250057626472687 M-108.41185621591342 0.6250057626472781 C-108.41185621591342 0.3474591659391101, -108.41185621591342 0.06991256923094202, -108.41185621591342 -0.6250057626472687 M-108.41185621591342 -0.6250057626472687 C-108.38680383525244 -1.0152168133597097, -108.36175145459146 -1.4054278640721507, -108.33176770250937 -1.8724490051997822 M-108.41185621591342 -0.6250057626472687 C-108.39282129079658 -0.9214900860570803, -108.37378636567973 -1.2179744094668918, -108.33176770250937 -1.8724490051997822 M-108.33176770250937 -1.8724490051997822 C-108.27459719301369 -2.315852187254198, -108.21742668351801 -2.7592553693086135, -108.17191977658177 -3.112197953150895 M-108.33176770250937 -1.8724490051997822 C-108.29271510269814 -2.1753332575276048, -108.2536625028869 -2.478217509855427, -108.17191977658177 -3.112197953150895 M-108.17191977658177 -3.112197953150895 C-108.11885165387737 -3.3846915472862866, -108.06578353117297 -3.657185141421678, -107.93296928754556 -4.339158212148126 M-108.17191977658177 -3.112197953150895 C-108.11670289711489 -3.3957249591217677, -108.061486017648 -3.6792519650926403, -107.93296928754556 -4.339158212148126 M-107.93296928754556 -4.339158212148126 C-107.8230443509297 -4.7583496372332545, -107.71311941431387 -5.177541062318384, -107.61589813421489 -5.548287939305123 M-107.93296928754556 -4.339158212148126 C-107.86357693286953 -4.603781335364604, -107.7941845781935 -4.8684044585810815, -107.61589813421489 -5.548287939305123 M-107.61589813421489 -5.548287939305123 C-107.52982376380659 -5.80753022888639, -107.44374939339829 -6.066772518467657, -107.22200922997033 -6.734618561215485 M-107.61589813421489 -5.548287939305123 C-107.47218637319133 -5.98112486614844, -107.3284746121678 -6.413961792991758, -107.22200922997033 -6.734618561215485 M-107.22200922997033 -6.734618561215485 C-107.0860641937875 -7.070405428905557, -106.95011915760466 -7.40619229659563, -106.75292114880834 -7.893275190886676 M-107.22200922997033 -6.734618561215485 C-107.09713670992384 -7.043056099976215, -106.97226418987738 -7.351493638736944, -106.75292114880834 -7.893275190886676 M-106.75292114880834 -7.893275190886676 C-106.60096724766112 -8.208810717911533, -106.4490133465139 -8.524346244936387, -106.2105614742735 -9.019496659696282 M-106.75292114880834 -7.893275190886676 C-106.6165019210921 -8.176552636143338, -106.48008269337585 -8.459830081400002, -106.2105614742735 -9.019496659696282 M-106.2105614742735 -9.019496659696282 C-105.99059691535336 -9.410066007885872, -105.77063235643323 -9.800635356075464, -105.59715887860425 -10.108655082055243 M-106.2105614742735 -9.019496659696282 C-106.06578037351187 -9.276570164774775, -105.92099927275022 -9.533643669853266, -105.59715887860425 -10.108655082055243 M-105.59715887860425 -10.108655082055243 C-105.34987466224027 -10.488550043499995, -105.10259044587629 -10.868445004944746, -104.91523396464063 -11.156274872382308 M-105.59715887860425 -10.108655082055243 C-105.37748648204101 -10.446130873474274, -105.15781408547777 -10.783606664893306, -104.91523396464063 -11.156274872382308 M-104.91523396464063 -11.156274872382308 C-104.74359335826416 -11.386257648145865, -104.5719527518877 -11.61624042390942, -104.16758890812659 -12.158051136245302 M-104.91523396464063 -11.156274872382308 C-104.71518156277938 -11.424326865727663, -104.51512916091812 -11.692378859073015, -104.16758890812659 -12.158051136245302 M-104.16758890812659 -12.158051136245302 C-103.87997189130112 -12.495902450080376, -103.59235487447566 -12.833753763915452, -103.35729594296866 -13.10986736009567 M-104.16758890812659 -12.158051136245302 C-103.97107422916339 -12.388888460157478, -103.7745595502002 -12.619725784069653, -103.35729594296866 -13.10986736009567 M-103.35729594296866 -13.10986736009567 C-103.03072750290313 -13.447076086230886, -102.7041590628376 -13.784284812366101, -102.48768473676799 -14.007812326905677 M-103.35729594296866 -13.10986736009567 C-103.09071161897455 -13.385137561599631, -102.82412729498043 -13.660407763103592, -102.48768473676799 -14.007812326905677 M-102.48768473676799 -14.007812326905677 C-102.13242102897348 -14.33045342656204, -101.77715732117896 -14.653094526218403, -101.5623287085019 -14.848196188198107 M-102.48768473676799 -14.007812326905677 C-102.13292957241752 -14.32999158086148, -101.77817440806706 -14.65217083481728, -101.5623287085019 -14.848196188198107 M-101.5623287085019 -14.848196188198107 C-101.30119622116634 -15.056442397820879, -101.04006373383079 -15.26468860744365, -100.58503034457871 -15.627565626425149 M-101.5623287085019 -14.848196188198107 C-101.19552827636734 -15.140709771855974, -100.8287278442328 -15.433223355513839, -100.58503034457871 -15.627565626425149 M-100.58503034457871 -15.627565626425149 C-100.24937498126167 -15.861704277588627, -99.91371961794464 -16.095842928752106, -99.55980557360571 -16.342718045390885 M-100.58503034457871 -15.627565626425149 C-100.34186337483573 -15.797188377989393, -100.09869640509275 -15.966811129553639, -99.55980557360571 -16.342718045390885 M-99.55980557360571 -16.342718045390885 C-99.14319555080769 -16.59526948948329, -98.72658552800968 -16.847820933575694, -98.49086726407678 -16.99071473040609 M-99.55980557360571 -16.342718045390885 C-99.20698722984733 -16.556598598767945, -98.85416888608894 -16.770479152145008, -98.49086726407678 -16.99071473040609 M-98.49086726407678 -16.99071473040609 C-98.21765664213731 -17.13324853687216, -97.94444602019784 -17.275782343338225, -97.3826079127924 -17.56889292409717 M-98.49086726407678 -16.99071473040609 C-98.06417491258938 -17.213319856867578, -97.63748256110198 -17.435924983329066, -97.3826079127924 -17.56889292409717 M-97.3826079127924 -17.56889292409717 C-97.15304378451366 -17.670514153908258, -96.9234796562349 -17.77213538371934, -96.23958159514781 -18.07487676824742 M-97.3826079127924 -17.56889292409717 C-96.94475714627987 -17.76271647005076, -96.50690637976733 -17.956540016004343, -96.23958159514781 -18.07487676824742 M-96.23958159514781 -18.07487676824742 C-95.80831965572087 -18.233585148498204, -95.37705771629392 -18.392293528748983, -95.06648525146062 -18.506587066708033 M-96.23958159514781 -18.07487676824742 C-95.78297636702507 -18.242911713009047, -95.32637113890233 -18.410946657770676, -95.06648525146062 -18.506587066708033 M-95.06648525146062 -18.506587066708033 C-94.66706040394311 -18.62513426482742, -94.26763555642562 -18.743681462946807, -93.86813938623541 -18.862249829261067 M-95.06648525146062 -18.506587066708033 C-94.75755725321712 -18.59827527499055, -94.44862925497362 -18.68996348327307, -93.86813938623541 -18.862249829261067 M-93.86813938623541 -18.862249829261067 C-93.54743441167564 -18.935448646908796, -93.22672943711586 -19.008647464556525, -92.64946825967677 -19.140403561325773 M-93.86813938623541 -18.862249829261067 C-93.5929543858535 -18.92505900984829, -93.31776938547159 -18.98786819043551, -92.64946825967677 -19.140403561325773 M-92.64946825967677 -19.140403561325773 C-92.3856143630305 -19.18306141311801, -92.12176046638423 -19.225719264910254, -91.41547965284788 -19.3399052695533 M-92.64946825967677 -19.140403561325773 C-92.35776670458759 -19.187563606573246, -92.06606514949841 -19.23472365182072, -91.41547965284788 -19.3399052695533 M-91.41547965284788 -19.3399052695533 C-91.00325750425544 -19.379671844458343, -90.591035355663 -19.419438419363388, -90.1712442896239 -19.45993515863156 M-91.41547965284788 -19.3399052695533 C-91.1016264867337 -19.370182307024677, -90.78777332061952 -19.400459344496053, -90.1712442896239 -19.45993515863156 M-90.1712442896239 -19.45993515863156 C-89.91779005874818 -19.46806294249701, -89.66433582787245 -19.476190726362464, -88.921875 -19.5 M-90.1712442896239 -19.45993515863156 C-89.79457657355985 -19.4720141591465, -89.4179088574958 -19.48409315966144, -88.921875 -19.5 M-88.921875 -19.5 C-88.921875 -19.5, -88.921875 -19.5, -88.921875 -19.5 M-88.921875 -19.5 C-88.921875 -19.5, -88.921875 -19.5, -88.921875 -19.5" stroke="#ccc" stroke-width="1.3" fill="none" stroke-dasharray="0 0" style=""/></g><g class="label" style="" transform="translate(-96.046875, -12)"><rect/><foreignObject width="192.09375" height="24"><div xmlns="http://www.w3.org/1999/xhtml" style="display: table-cell; white-space: nowrap; line-height: 1.5; max-width: 200px; text-align: center;"><span class="nodeLabel"><p>game_process_commands</p></span></div></foreignObject></g></g><g class="node default" id="my-svg-flowchart-BLINK-1" data-look="classic" transform="translate(1179.4609375, 124)"><rect class="basic label-container" style="" x="-121.171875" y="-27" width="242.34375" height="54"/><g class="label" style="" transform="translate(-91.171875, -12)"><rect/><foreignObject width="182.34375" height="24"><div xmlns="http://www.w3.org/1999/xhtml" style="display: table-cell; white-space: nowrap; line-height: 1.5; max-width: 200px; text-align: center;"><span class="nodeLabel"><p>game_update_error_blink</p></span></div></foreignObject></g></g><g class="node default" id="my-svg-flowchart-RES-3" data-look="classic" transform="translate(1179.4609375, 228)"><rect class="basic label-container" style="" x="-85.5859375" y="-27" width="171.171875" height="54"/><g class="label" style="" transform="translate(-55.5859375, -12)"><rect/><foreignObject width="111.171875" height="24"><div xmlns="http://www.w3.org/1999/xhtml" style="display: table-cell; white-space: nowrap; line-height: 1.5; max-width: 200px; text-align: center;"><span class="nodeLabel"><p>resignation_tick</p></span></div></foreignObject></g></g><g class="node default" id="my-svg-flowchart-Q-5" data-look="classic" transform="translate(1179.4609375, 444)"><polygon points="139,0 278,-139 139,-278 0,-139" class="label-container" transform="translate(-138.5, 139)"/><g class="label" style="" transform="translate(-100, -24)"><rect/><foreignObject width="200" height="48"><div xmlns="http://www.w3.org/1999/xhtml" style="display: table; white-space: break-spaces; line-height: 1.5; max-width: 200px; text-align: center; width: 200px;"><span class="nodeLabel"><p>fronta chess_move_command_t</p></span></div></foreignObject></g></g><g class="node default" id="my-svg-flowchart-DRAIN-7" data-look="classic" transform="translate(1179.4609375, 672)"><rect class="basic label-container" style="" x="-130" y="-39" width="260" height="78"/><g class="label" style="" transform="translate(-100, -24)"><rect/><foreignObject width="200" height="48"><div xmlns="http://www.w3.org/1999/xhtml" style="display: table; white-space: break-spaces; line-height: 1.5; max-width: 200px; text-align: center; width: 200px;"><span class="nodeLabel"><p>while receive non-blocking max ~15 / tick</p></span></div></foreignObject></g></g><g class="node default" id="my-svg-flowchart-HA-9" data-look="classic" transform="translate(1179.4609375, 854.2578125)"><polygon points="93.2578125,0 186.515625,-93.2578125 93.2578125,-186.515625 0,-93.2578125" class="label-container" transform="translate(-92.7578125, 93.2578125)"/><g class="label" style="" transform="translate(-66.2578125, -12)"><rect/><foreignObject width="132.515625" height="24"><div xmlns="http://www.w3.org/1999/xhtml" style="display: table-cell; white-space: nowrap; line-height: 1.5; max-width: 200px; text-align: center;"><span class="nodeLabel"><p>read-only GET_* ?</p></span></div></foreignObject></g></g><g class="node default" id="my-svg-flowchart-HA_REP-11" data-look="classic" transform="translate(1259.7734375, 1048.515625)"><rect class="basic label-container" style="" x="-112.2734375" y="-27" width="224.546875" height="54"/><g class="label" style="" transform="translate(-82.2734375, -12)"><rect/><foreignObject width="164.546875" height="24"><div xmlns="http://www.w3.org/1999/xhtml" style="display: table-cell; white-space: nowrap; line-height: 1.5; max-width: 200px; text-align: center;"><span class="nodeLabel"><p>ha_light_report_activity</p></span></div></foreignObject></g></g><g class="node default" id="my-svg-flowchart-SW-13" data-look="classic" transform="translate(1179.4609375, 1192.0859375)"><polygon points="66.5703125,0 133.140625,-66.5703125 66.5703125,-133.140625 0,-66.5703125" class="label-container" transform="translate(-66.0703125, 66.5703125)"/><g class="label" style="" transform="translate(-39.5703125, -12)"><rect/><foreignObject width="79.140625" height="24"><div xmlns="http://www.w3.org/1999/xhtml" style="display: table-cell; white-space: nowrap; line-height: 1.5; max-width: 200px; text-align: center;"><span class="nodeLabel"><p>switch type</p></span></div></foreignObject></g></g><g class="node default" id="my-svg-flowchart-NG-17" data-look="classic" transform="translate(138, 1359.65625)"><rect class="basic label-container" style="" x="-130" y="-39" width="260" height="78"/><g class="label" style="" transform="translate(-100, -24)"><rect/><foreignObject width="200" height="48"><div xmlns="http://www.w3.org/1999/xhtml" style="display: table; white-space: break-spaces; line-height: 1.5; max-width: 200px; text-align: center; width: 200px;"><span class="nodeLabel"><p>NEW_GAME / FROM_FEN / RESET</p></span></div></foreignObject></g></g><g class="node default" id="my-svg-flowchart-MV-19" data-look="classic" transform="translate(449.8359375, 1359.65625)"><rect class="basic label-container" style="" x="-130" y="-39" width="260" height="78"/><g class="label" style="" transform="translate(-100, -24)"><rect/><foreignObject width="200" height="48"><div xmlns="http://www.w3.org/1999/xhtml" style="display: table; white-space: break-spaces; line-height: 1.5; max-width: 200px; text-align: center; width: 200px;"><span class="nodeLabel"><p>MAKE_MOVE / MOVE / chess notation</p></span></div></foreignObject></g></g><g class="node default" id="my-svg-flowchart-PD-21" data-look="classic" transform="translate(799.53125, 1359.65625)"><rect class="basic label-container" style="" x="-130" y="-39" width="260" height="78"/><g class="label" style="" transform="translate(-100, -24)"><rect/><foreignObject width="200" height="48"><div xmlns="http://www.w3.org/1999/xhtml" style="display: table; white-space: break-spaces; line-height: 1.5; max-width: 200px; text-align: center; width: 200px;"><span class="nodeLabel"><p>PICKUP / DROP / matrix tah</p></span></div></foreignObject></g></g><g class="node default" id="my-svg-flowchart-PR-23" data-look="classic" transform="translate(1179.4609375, 1359.65625)"><rect class="basic label-container" style="" x="-79.3359375" y="-27" width="158.671875" height="54"/><g class="label" style="" transform="translate(-49.3359375, -12)"><rect/><foreignObject width="98.671875" height="24"><div xmlns="http://www.w3.org/1999/xhtml" style="display: table-cell; white-space: nowrap; line-height: 1.5; max-width: 200px; text-align: center;"><span class="nodeLabel"><p>PROMOTION</p></span></div></foreignObject></g></g><g class="node default" id="my-svg-flowchart-UNDO-25" data-look="classic" transform="translate(1523.8203125, 1359.65625)"><rect class="basic label-container" style="" x="-81.5625" y="-27" width="163.125" height="54"/><g class="label" style="" transform="translate(-51.5625, -12)"><rect/><foreignObject width="103.125" height="24"><div xmlns="http://www.w3.org/1999/xhtml" style="display: table-cell; white-space: nowrap; line-height: 1.5; max-width: 200px; text-align: center;"><span class="nodeLabel"><p>UNDO_MOVE</p></span></div></foreignObject></g></g><g class="node default" id="my-svg-flowchart-RD-27" data-look="classic" transform="translate(1836.109375, 1359.65625)"><rect class="basic label-container" style="" x="-130" y="-51" width="260" height="102"/><g class="label" style="" transform="translate(-100, -36)"><rect/><foreignObject width="200" height="72"><div xmlns="http://www.w3.org/1999/xhtml" style="display: table; white-space: break-spaces; line-height: 1.5; max-width: 200px; text-align: center; width: 200px;"><span class="nodeLabel"><p>GET_BOARD · GET_STATUS · SHOW_BOARD</p></span></div></foreignObject></g></g><g class="node default" id="my-svg-flowchart-OT-29" data-look="classic" transform="translate(2146.109375, 1359.65625)"><rect class="basic label-container" style="" x="-130" y="-39" width="260" height="78"/><g class="label" style="" transform="translate(-100, -24)"><rect/><foreignObject width="200" height="48"><div xmlns="http://www.w3.org/1999/xhtml" style="display: table; white-space: break-spaces; line-height: 1.5; max-width: 200px; text-align: center; width: 200px;"><span class="nodeLabel"><p>další desítky typů — viz game_task.c</p></span></div></foreignObject></g></g><g class="node default" id="my-svg-flowchart-FN-31" data-look="classic" transform="translate(138, 1499.65625)"><rect class="basic label-container" style="" x="-130" y="-39" width="260" height="78"/><g class="label" style="" transform="translate(-100, -24)"><rect/><foreignObject width="200" height="48"><div xmlns="http://www.w3.org/1999/xhtml" style="display: table; white-space: break-spaces; line-height: 1.5; max-width: 200px; text-align: center; width: 200px;"><span class="nodeLabel"><p>game_start_new_game* · UART echo</p></span></div></foreignObject></g></g><g class="node default" id="my-svg-flowchart-PCM-33" data-look="classic" transform="translate(449.8359375, 1499.65625)"><rect class="basic label-container" style="" x="-131.8359375" y="-27" width="263.671875" height="54"/><g class="label" style="" transform="translate(-101.8359375, -12)"><rect/><foreignObject width="203.671875" height="24"><div xmlns="http://www.w3.org/1999/xhtml" style="display: table; white-space: break-spaces; line-height: 1.5; max-width: 200px; text-align: center; width: 200px;"><span class="nodeLabel"><p>game_process_chess_move</p></span></div></foreignObject></g></g><g class="node default" id="my-svg-flowchart-PPP-35" data-look="classic" transform="translate(799.53125, 1499.65625)"><rect class="basic label-container" style="" x="-167.859375" y="-27" width="335.71875" height="54"/><g class="label" style="" transform="translate(-137.859375, -12)"><rect/><foreignObject width="275.71875" height="24"><div xmlns="http://www.w3.org/1999/xhtml" style="display: table; white-space: break-spaces; line-height: 1.5; max-width: 200px; text-align: center; width: 200px;"><span class="nodeLabel"><p>game_process_pickup/drop_command</p></span></div></foreignObject></g></g><g class="node default" id="my-svg-flowchart-PPR-37" data-look="classic" transform="translate(1179.4609375, 1499.65625)"><rect class="basic label-container" style="" x="-162.0703125" y="-27" width="324.140625" height="54"/><g class="label" style="" transform="translate(-132.0703125, -12)"><rect/><foreignObject width="264.140625" height="24"><div xmlns="http://www.w3.org/1999/xhtml" style="display: table; white-space: break-spaces; line-height: 1.5; max-width: 200px; text-align: center; width: 200px;"><span class="nodeLabel"><p>game_process_promotion_command</p></span></div></foreignObject></g></g><g class="node default" id="my-svg-flowchart-U-39" data-look="classic" transform="translate(1523.8203125, 1499.65625)"><rect class="basic label-container" style="" x="-132.2890625" y="-27" width="264.578125" height="54"/><g class="label" style="" transform="translate(-102.2890625, -12)"><rect/><foreignObject width="204.578125" height="24"><div xmlns="http://www.w3.org/1999/xhtml" style="display: table; white-space: break-spaces; line-height: 1.5; max-width: 200px; text-align: center; width: 200px;"><span class="nodeLabel"><p>game_undo_last_move_impl</p></span></div></foreignObject></g></g><g class="node default" id="my-svg-flowchart-SEND-41" data-look="classic" transform="translate(1836.109375, 1499.65625)"><rect class="basic label-container" style="" x="-130" y="-39" width="260" height="78"/><g class="label" style="" transform="translate(-100, -24)"><rect/><foreignObject width="200" height="48"><div xmlns="http://www.w3.org/1999/xhtml" style="display: table; white-space: break-spaces; line-height: 1.5; max-width: 200px; text-align: center; width: 200px;"><span class="nodeLabel"><p>game_send_board_to_uart / game_print_status</p></span></div></foreignObject></g></g></g></g></g><defs><filter id="my-svg-drop-shadow" height="130%" width="130%"><feDropShadow dx="4" dy="4" stdDeviation="0" flood-opacity="0.06" flood-color="#FFFFFF"/></filter></defs><defs><filter id="my-svg-drop-shadow-small" height="150%" width="150%"><feDropShadow dx="2" dy="2" stdDeviation="0" flood-opacity="0.06" flood-color="#FFFFFF"/></filter></defs><linearGradient id="my-svg-gradient" gradientUnits="objectBoundingBox" x1="0%" y1="0%" x2="100%" y2="0%"><stop offset="0%" stop-color="#cccccc" stop-opacity="1"/><stop offset="100%" stop-color="hsl(180, 0%, 18.3529411765%)" stop-opacity="1"/></linearGradient></svg>