<?xml version="1.0" encoding="UTF-8"?>
<svg xmlns="http://www.w3.org/2000/svg" viewBox="0 0 640 600" role="img" aria-labelledby="title desc">
  <title id="title">CzechMate &#8212; tok firmware</title>
  <desc id="desc">Kompaktni poster, rovne sipky, C a D pod frontou</desc>
  <defs>
    <marker id="arr" markerWidth="7" markerHeight="7" refX="6" refY="3.5" orient="auto">
      <path d="M0,0 L7,3.5 L0,7 Z" fill="#455a64"/>
    </marker>
  </defs>

  <rect width="640" height="600" fill="#f8fafc"/>

  <text x="320" y="34" text-anchor="middle" fill="#1a2332" font-family="Nunito, Segoe UI, sans-serif" font-size="19" font-weight="700">CzechMate</text>
  <text x="320" y="52" text-anchor="middle" fill="#607d8b" font-family="Nunito, Segoe UI, sans-serif" font-size="9.5">tok firmware &#183; ESP32-C6</text>

  <rect x="168" y="64" width="200" height="32" rx="16" ry="16" fill="#ffb74d" stroke="#ef6c00" stroke-width="2"/>
  <text x="268" y="84" text-anchor="middle" fill="#e65100" font-family="Nunito, Segoe UI, sans-serif" font-size="9" font-weight="600">Mobiln&#237; app &#183; Flutter</text>

  <rect x="24" y="108" width="288" height="178" rx="32" ry="32" fill="#d6e8f7" stroke="#455a64" stroke-width="3"/>
  <text x="40" y="130" fill="#263238" font-family="Nunito, Segoe UI, sans-serif" font-size="9" font-weight="700">B &#183; S&#237;&#357; a komunikace</text>
  <rect x="44" y="144" width="248" height="28" rx="14" ry="14" fill="#79a8dc" stroke="#37474f" stroke-width="1.8"/>
  <text x="168" y="162" text-anchor="middle" fill="#102030" font-family="Nunito, Segoe UI, sans-serif" font-size="8.5">WiFi STA &#183; volit. AP</text>
  <rect x="44" y="180" width="248" height="28" rx="14" ry="14" fill="#79a8dc" stroke="#37474f" stroke-width="1.8"/>
  <text x="168" y="198" text-anchor="middle" fill="#102030" font-family="Nunito, Segoe UI, sans-serif" font-size="8.5">web_server_task &#183; HTTP :80</text>
  <rect x="44" y="216" width="248" height="28" rx="14" ry="14" fill="#79a8dc" stroke="#37474f" stroke-width="1.8"/>
  <text x="168" y="234" text-anchor="middle" fill="#102030" font-family="Nunito, Segoe UI, sans-serif" font-size="8.5">NimBLE &#183; GATT</text>
  <rect x="44" y="252" width="248" height="28" rx="14" ry="14" fill="#79a8dc" stroke="#37474f" stroke-width="1.8"/>
  <text x="168" y="270" text-anchor="middle" fill="#102030" font-family="Nunito, Segoe UI, sans-serif" font-size="8.5">uart_task</text>

  <rect x="328" y="108" width="288" height="178" rx="32" ry="32" fill="#cfe8fc" stroke="#1565c0" stroke-width="3"/>
  <text x="344" y="130" fill="#0d47a1" font-family="Nunito, Segoe UI, sans-serif" font-size="9" font-weight="700">A &#183; Fyzick&#225; deska</text>
  <rect x="348" y="144" width="248" height="28" rx="14" ry="14" fill="#64b5f6" stroke="#1565c0" stroke-width="1.8"/>
  <text x="472" y="162" text-anchor="middle" fill="#0d47a1" font-family="Nunito, Segoe UI, sans-serif" font-size="8.5">8&#215;8 reed / Hall</text>
  <rect x="348" y="180" width="248" height="28" rx="14" ry="14" fill="#66bb6a" stroke="#2e7d32" stroke-width="1.8"/>
  <text x="472" y="198" text-anchor="middle" fill="#1b5e20" font-family="Nunito, Segoe UI, sans-serif" font-size="8.5">Hall I&#178;C &#183; STM32</text>
  <rect x="348" y="216" width="248" height="40" rx="18" ry="18" fill="#66bb6a" stroke="#2e7d32" stroke-width="1.8"/>
  <text x="472" y="234" text-anchor="middle" fill="#1b5e20" font-family="Nunito, Segoe UI, sans-serif" font-size="8.5">matrix_detect_moves</text>
  <text x="472" y="248" text-anchor="middle" fill="#2e7d32" font-family="Nunito, Segoe UI, sans-serif" font-size="7" font-style="italic">PICKUP &#183; DROP &#183; GUARD</text>

  <rect x="170" y="292" width="300" height="38" rx="19" ry="19" fill="#ffca28" stroke="#ef6c00" stroke-width="2.5"/>
  <text x="320" y="315" text-anchor="middle" fill="#bf360c" font-family="Nunito, Segoe UI, sans-serif" font-size="10" font-weight="700">game_command_queue &#183; 24</text>

  <rect x="24" y="338" width="288" height="118" rx="32" ry="32" fill="#ecd9f5" stroke="#7b1fa2" stroke-width="3"/>
  <text x="40" y="360" fill="#4a148c" font-family="Nunito, Segoe UI, sans-serif" font-size="9" font-weight="700">C &#183; Logika a spr&#225;va</text>
  <rect x="44" y="374" width="248" height="46" rx="20" ry="20" fill="#ba68c8" stroke="#6a1b9a" stroke-width="2"/>
  <text x="168" y="392" text-anchor="middle" fill="#4a148c" font-family="Nunito, Segoe UI, sans-serif" font-size="9" font-weight="600">game_task &#183; 100 ms</text>
  <text x="168" y="408" text-anchor="middle" fill="#6a1b9a" font-family="Nunito, Segoe UI, sans-serif" font-size="7" font-style="italic">&#353;ach &#183; NVS &#183; Management</text>
  <rect x="44" y="426" width="248" height="26" rx="13" ry="13" fill="#9575cd" stroke="#4527a0" stroke-width="1.6"/>
  <text x="168" y="443" text-anchor="middle" fill="#311b92" font-family="Nunito, Segoe UI, sans-serif" font-size="8">matrix_task</text>

  <rect x="328" y="338" width="288" height="118" rx="32" ry="32" fill="#d4f0dc" stroke="#2e7d32" stroke-width="3"/>
  <text x="344" y="360" fill="#1b5e20" font-family="Nunito, Segoe UI, sans-serif" font-size="9" font-weight="700">D &#183; LED v&#253;stup</text>
  <rect x="348" y="374" width="248" height="42" rx="18" ry="18" fill="#66bb6a" stroke="#2e7d32" stroke-width="2"/>
  <text x="472" y="392" text-anchor="middle" fill="#1b5e20" font-family="Nunito, Segoe UI, sans-serif" font-size="9">led_task &#183; 30 FPS</text>
  <text x="472" y="406" text-anchor="middle" fill="#2e7d32" font-family="Nunito, Segoe UI, sans-serif" font-size="7" font-style="italic">led_set_pixel_safe</text>
  <rect x="348" y="422" width="248" height="26" rx="13" ry="13" fill="#9ccc65" stroke="#558b2f" stroke-width="1.6"/>
  <text x="472" y="439" text-anchor="middle" fill="#33691e" font-family="Nunito, Segoe UI, sans-serif" font-size="8">WS2812B &#183; 64+9</text>

  <rect x="24" y="468" width="380" height="48" rx="24" ry="24" fill="#fff0c2" stroke="#f9a825" stroke-width="2.5" stroke-dasharray="7 4"/>
  <text x="40" y="488" fill="#e65100" font-family="Nunito, Segoe UI, sans-serif" font-size="8" font-weight="700">E &#183; Voliteln&#233;</text>
  <rect x="110" y="480" width="130" height="30" rx="15" ry="15" fill="#ffb74d" stroke="#e65100" stroke-width="1.5"/>
  <text x="175" y="499" text-anchor="middle" fill="#bf360c" font-family="Nunito, Segoe UI, sans-serif" font-size="8">ha_light &#183; MQTT</text>
  <rect x="252" y="480" width="100" height="30" rx="15" ry="15" fill="#ffb74d" stroke="#e65100" stroke-width="1.5"/>
  <text x="302" y="499" text-anchor="middle" fill="#bf360c" font-family="Nunito, Segoe UI, sans-serif" font-size="8">test_task</text>

  <rect x="420" y="528" width="196" height="36" rx="16" ry="16" fill="#e8eef4" stroke="#90a4ae" stroke-width="1"/>
  <line x1="436" y1="540" x2="468" y2="540" stroke="#455a64" stroke-width="1.8" marker-end="url(#arr)"/>
  <text x="476" y="544" fill="#616161" font-family="Nunito, Segoe UI, sans-serif" font-size="7">hlavn&#237; tok</text>
  <line x1="436" y1="554" x2="468" y2="554" stroke="#455a64" stroke-width="1.8" stroke-dasharray="5 3"/>
  <text x="476" y="558" fill="#616161" font-family="Nunito, Segoe UI, sans-serif" font-size="7">vol. spojen&#237;</text>

  <g stroke="#455a64" stroke-width="1.6" fill="none" marker-end="url(#arr)">
    <path d="M268 96 L268 102 L168 102 L168 180"/>
    <path d="M472 172 L472 180"/>
    <path d="M472 208 L472 216"/>
    <path d="M472 256 L472 286 L320 286 L320 292"/>
    <path d="M168 208 L132 208 L132 286 L320 286"/>
    <path d="M168 244 L132 244"/>
    <path d="M168 280 L132 280"/>
    <path d="M320 330 L320 374"/>
    <path d="M292 395 L348 395"/>
  </g>
  <g stroke="#455a64" stroke-width="1.3" fill="none" stroke-dasharray="4 3" marker-end="url(#arr)">
    <path d="M352 96 L368 96 L368 230 L292 230"/>
    <path d="M168 420 L168 426"/>
  </g>
</svg>
