<svg id="my-svg" width="100%" xmlns="http://www.w3.org/2000/svg" xmlns:xlink="http://www.w3.org/1999/xlink" class="flowchart" style="max-width: 713.484px; background-color: transparent;" viewBox="0 0 713.484375 973" role="graphics-document document" aria-roledescription="flowchart-v2"><style>#my-svg{font-size:16px;fill:#ccc;}@keyframes edge-animation-frame{from{stroke-dashoffset:0;}}@keyframes dash{to{stroke-dashoffset:0;}}#my-svg .edge-animation-slow{stroke-dasharray:9,5!important;stroke-dashoffset:900;animation:dash 50s linear infinite;stroke-linecap:round;}#my-svg .edge-animation-fast{stroke-dasharray:9,5!important;stroke-dashoffset:900;animation:dash 20s linear infinite;stroke-linecap:round;}#my-svg .error-icon{fill:#a44141;}#my-svg .error-text{fill:#ddd;stroke:#ddd;}#my-svg .edge-thickness-normal{stroke-width:1px;}#my-svg .edge-thickness-thick{stroke-width:3.5px;}#my-svg .edge-pattern-solid{stroke-dasharray:0;}#my-svg .edge-thickness-invisible{stroke-width:0;fill:none;}#my-svg .edge-pattern-dashed{stroke-dasharray:3;}#my-svg .edge-pattern-dotted{stroke-dasharray:2;}#my-svg .marker{fill:#94a3b8;stroke:#94a3b8;}#my-svg .marker.cross{stroke:#94a3b8;}#my-svg svg{font-size:16px;}#my-svg p{margin:0;}#my-svg .label{color:#ccc;}#my-svg .cluster-label text{fill:#f8fafc;}#my-svg .cluster-label span{color:#f8fafc;}#my-svg .cluster-label span p{background-color:transparent;}#my-svg .label text,#my-svg span{fill:#ccc;color:#ccc;}#my-svg .node rect,#my-svg .node circle,#my-svg .node ellipse,#my-svg .node polygon,#my-svg .node path{fill:#1f2020;stroke:#ccc;stroke-width:1px;}#my-svg .rough-node .label text,#my-svg .node .label text,#my-svg .image-shape .label,#my-svg .icon-shape .label{text-anchor:middle;}#my-svg .node .katex path{fill:#000;stroke:#000;stroke-width:1px;}#my-svg .rough-node .label,#my-svg .node .label,#my-svg .image-shape .label,#my-svg .icon-shape .label{text-align:center;}#my-svg .node.clickable{cursor:pointer;}#my-svg .root .anchor path{fill:#94a3b8!important;stroke-width:0;stroke:#94a3b8;}#my-svg .arrowheadPath{fill:lightgrey;}#my-svg .edgePath .path{stroke:#94a3b8;stroke-width:1px;}#my-svg .flowchart-link{stroke:#94a3b8;fill:none;}#my-svg .edgeLabel{background-color:#1e293b;text-align:center;}#my-svg .edgeLabel p{background-color:#1e293b;}#my-svg .edgeLabel rect{opacity:0.5;background-color:#1e293b;fill:#1e293b;}#my-svg .labelBkg{background-color:rgba(30, 41, 59, 0.5);}#my-svg .cluster rect{fill:#0f172a;stroke:#334155;stroke-width:1px;}#my-svg .cluster text{fill:#f8fafc;}#my-svg .cluster span{color:#f8fafc;}#my-svg div.mermaidTooltip{position:absolute;text-align:center;max-width:200px;padding:2px;font-size:12px;background:hsl(20, 1.5873015873%, 12.3529411765%);border:1px solid rgba(255, 255, 255, 0.25);border-radius:2px;pointer-events:none;z-index:100;}#my-svg .flowchartTitleText{text-anchor:middle;font-size:18px;fill:#ccc;}#my-svg rect.text{fill:none;stroke-width:0;}#my-svg .icon-shape,#my-svg .image-shape{background-color:#1e293b;text-align:center;}#my-svg .icon-shape p,#my-svg .image-shape p{background-color:#1e293b;padding:2px;}#my-svg .icon-shape .label rect,#my-svg .image-shape .label rect{opacity:0.5;background-color:#1e293b;fill:#1e293b;}#my-svg .label-icon{display:inline-block;height:1em;overflow:visible;vertical-align:-0.125em;}#my-svg .node .label-icon path{fill:currentColor;stroke:revert;stroke-width:revert;}#my-svg .node .neo-node{stroke:#ccc;}#my-svg [data-look="neo"].node rect,#my-svg [data-look="neo"].cluster rect,#my-svg [data-look="neo"].node polygon{stroke:url(#my-svg-gradient);filter:drop-shadow( 1px 2px 2px rgba(185,185,185,1));}#my-svg [data-look="neo"].swimlane.cluster rect{filter:none;}#my-svg [data-look="neo"].node path{stroke:url(#my-svg-gradient);stroke-width:1px;}#my-svg [data-look="neo"].node .outer-path{filter:drop-shadow( 1px 2px 2px rgba(185,185,185,1));}#my-svg [data-look="neo"].node .neo-line path{stroke:#ccc;filter:none;}#my-svg [data-look="neo"].node circle{stroke:url(#my-svg-gradient);filter:drop-shadow( 1px 2px 2px rgba(185,185,185,1));}#my-svg [data-look="neo"].node circle .state-start{fill:#000000;}#my-svg [data-look="neo"].icon-shape .icon{fill:url(#my-svg-gradient);filter:drop-shadow( 1px 2px 2px rgba(185,185,185,1));}#my-svg [data-look="neo"].icon-shape .icon-neo path{stroke:url(#my-svg-gradient);filter:drop-shadow( 1px 2px 2px rgba(185,185,185,1));}#my-svg :root{--mermaid-font-family:"trebuchet ms",verdana,arial,sans-serif;}</style><g><marker id="my-svg_flowchart-v2-pointEnd" class="marker flowchart-v2" viewBox="0 0 10 10" refX="5" refY="5" markerUnits="userSpaceOnUse" markerWidth="8" markerHeight="8" orient="auto"><path d="M 0 0 L 10 5 L 0 10 z" class="arrowMarkerPath" style="stroke-width: 1; stroke-dasharray: 1, 0;"/></marker><marker id="my-svg_flowchart-v2-pointStart" class="marker flowchart-v2" viewBox="0 0 10 10" refX="4.5" refY="5" markerUnits="userSpaceOnUse" markerWidth="8" markerHeight="8" orient="auto"><path d="M 0 5 L 10 10 L 10 0 z" class="arrowMarkerPath" style="stroke-width: 1; stroke-dasharray: 1, 0;"/></marker><marker id="my-svg_flowchart-v2-pointEnd-margin" class="marker flowchart-v2" viewBox="0 0 11.5 14" refX="11.5" refY="7" markerUnits="userSpaceOnUse" markerWidth="10.5" markerHeight="14" orient="auto"><path d="M 0 0 L 11.5 7 L 0 14 z" class="arrowMarkerPath" style="stroke-width: 0; stroke-dasharray: 1, 0;"/></marker><marker id="my-svg_flowchart-v2-pointStart-margin" class="marker flowchart-v2" viewBox="0 0 11.5 14" refX="1" refY="7" markerUnits="userSpaceOnUse" markerWidth="11.5" markerHeight="14" orient="auto"><polygon points="0,7 11.5,14 11.5,0" class="arrowMarkerPath" style="stroke-width: 0; stroke-dasharray: 1, 0;"/></marker><marker id="my-svg_flowchart-v2-circleEnd" class="marker flowchart-v2" viewBox="0 0 10 10" refX="11" refY="5" markerUnits="userSpaceOnUse" markerWidth="11" markerHeight="11" orient="auto"><circle cx="5" cy="5" r="5" class="arrowMarkerPath" style="stroke-width: 1; stroke-dasharray: 1, 0;"/></marker><marker id="my-svg_flowchart-v2-circleStart" class="marker flowchart-v2" viewBox="0 0 10 10" refX="-1" refY="5" markerUnits="userSpaceOnUse" markerWidth="11" markerHeight="11" orient="auto"><circle cx="5" cy="5" r="5" class="arrowMarkerPath" style="stroke-width: 1; stroke-dasharray: 1, 0;"/></marker><marker id="my-svg_flowchart-v2-circleEnd-margin" class="marker flowchart-v2" viewBox="0 0 10 10" refY="5" refX="12.25" markerUnits="userSpaceOnUse" markerWidth="14" markerHeight="14" orient="auto"><circle cx="5" cy="5" r="5" class="arrowMarkerPath" style="stroke-width: 0; stroke-dasharray: 1, 0;"/></marker><marker id="my-svg_flowchart-v2-circleStart-margin" class="marker flowchart-v2" viewBox="0 0 10 10" refX="-2" refY="5" markerUnits="userSpaceOnUse" markerWidth="14" markerHeight="14" orient="auto"><circle cx="5" cy="5" r="5" class="arrowMarkerPath" style="stroke-width: 0; stroke-dasharray: 1, 0;"/></marker><marker id="my-svg_flowchart-v2-crossEnd" class="marker cross flowchart-v2" viewBox="0 0 11 11" refX="12" refY="5.2" markerUnits="userSpaceOnUse" markerWidth="11" markerHeight="11" orient="auto"><path d="M 1,1 l 9,9 M 10,1 l -9,9" class="arrowMarkerPath" style="stroke-width: 2; stroke-dasharray: 1, 0;"/></marker><marker id="my-svg_flowchart-v2-crossStart" class="marker cross flowchart-v2" viewBox="0 0 11 11" refX="-1" refY="5.2" markerUnits="userSpaceOnUse" markerWidth="11" markerHeight="11" orient="auto"><path d="M 1,1 l 9,9 M 10,1 l -9,9" class="arrowMarkerPath" style="stroke-width: 2; stroke-dasharray: 1, 0;"/></marker><marker id="my-svg_flowchart-v2-crossEnd-margin" class="marker cross flowchart-v2" viewBox="0 0 15 15" refX="17.7" refY="7.5" markerUnits="userSpaceOnUse" markerWidth="12" markerHeight="12" orient="auto"><path d="M 1,1 L 14,14 M 1,14 L 14,1" class="arrowMarkerPath" style="stroke-width: 2.5;"/></marker><marker id="my-svg_flowchart-v2-crossStart-margin" class="marker cross flowchart-v2" viewBox="0 0 15 15" refX="-3.5" refY="7.5" markerUnits="userSpaceOnUse" markerWidth="12" markerHeight="12" orient="auto"><path d="M 1,1 L 14,14 M 1,14 L 14,1" class="arrowMarkerPath" style="stroke-width: 2.5; stroke-dasharray: 1, 0;"/></marker><g class="root"><g class="clusters"/><g class="edgePaths"><path d="M357.242,47.5L357.159,51.583C357.076,55.667,356.909,63.833,356.826,71.417C356.742,79,356.742,86,356.742,89.5L356.742,93" id="my-svg-L_START_WDT_0" class="edge-thickness-normal edge-pattern-solid edge-thickness-normal edge-pattern-solid flowchart-link" style=";" data-edge="true" data-et="edge" data-id="L_START_WDT_0" data-points="W3sieCI6MzU3LjI0MjE4NzUsInkiOjQ3LjQ5OTk5OTk5OTk5OTk5fSx7IngiOjM1Ni43NDIxODc1LCJ5Ijo3Mn0seyJ4IjozNTYuNzQyMTg3NSwieSI6OTd9XQ==" data-look="classic" marker-end="url(#my-svg_flowchart-v2-pointEnd)"/><path d="M356.742,151L356.742,155.167C356.742,159.333,356.742,167.667,356.742,175.333C356.742,183,356.742,190,356.742,193.5L356.742,197" id="my-svg-L_WDT_LOCK_0" class="edge-thickness-normal edge-pattern-solid edge-thickness-normal edge-pattern-solid flowchart-link" style=";" data-edge="true" data-et="edge" data-id="L_WDT_LOCK_0" data-points="W3sieCI6MzU2Ljc0MjE4NzUsInkiOjE1MX0seyJ4IjozNTYuNzQyMTg3NSwieSI6MTc2fSx7IngiOjM1Ni43NDIxODc1LCJ5IjoyMDF9XQ==" data-look="classic" marker-end="url(#my-svg_flowchart-v2-pointEnd)"/><path d="M356.742,255L356.742,259.167C356.742,263.333,356.742,271.667,356.742,279.333C356.742,287,356.742,294,356.742,297.5L356.742,301" id="my-svg-L_LOCK_WIFI_0" class="edge-thickness-normal edge-pattern-solid edge-thickness-normal edge-pattern-solid flowchart-link" style=";" data-edge="true" data-et="edge" data-id="L_LOCK_WIFI_0" data-points="W3sieCI6MzU2Ljc0MjE4NzUsInkiOjI1NX0seyJ4IjozNTYuNzQyMTg3NSwieSI6MjgwfSx7IngiOjM1Ni43NDIxODc1LCJ5IjozMDV9XQ==" data-look="classic" marker-end="url(#my-svg_flowchart-v2-pointEnd)"/><path d="M356.742,383L356.742,387.167C356.742,391.333,356.742,399.667,356.742,407.333C356.742,415,356.742,422,356.742,425.5L356.742,429" id="my-svg-L_WIFI_READY_0" class="edge-thickness-normal edge-pattern-solid edge-thickness-normal edge-pattern-solid flowchart-link" style=";" data-edge="true" data-et="edge" data-id="L_WIFI_READY_0" data-points="W3sieCI6MzU2Ljc0MjE4NzUsInkiOjM4M30seyJ4IjozNTYuNzQyMTg3NSwieSI6NDA4fSx7IngiOjM1Ni43NDIxODc1LCJ5Ijo0MzN9XQ==" data-look="classic" marker-end="url(#my-svg_flowchart-v2-pointEnd)"/><path d="M356.742,511L356.742,515.167C356.742,519.333,356.742,527.667,356.742,535.333C356.742,543,356.742,550,356.742,553.5L356.742,557" id="my-svg-L_READY_HTTP_0" class="edge-thickness-normal edge-pattern-solid edge-thickness-normal edge-pattern-solid flowchart-link" style=";" data-edge="true" data-et="edge" data-id="L_READY_HTTP_0" data-points="W3sieCI6MzU2Ljc0MjE4NzUsInkiOjUxMX0seyJ4IjozNTYuNzQyMTg3NSwieSI6NTM2fSx7IngiOjM1Ni43NDIxODc1LCJ5Ijo1NjF9XQ==" data-look="classic" marker-end="url(#my-svg_flowchart-v2-pointEnd)"/><path d="M356.742,639L356.742,643.167C356.742,647.333,356.742,655.667,356.742,663.333C356.742,671,356.742,678,356.742,681.5L356.742,685" id="my-svg-L_HTTP_RUN_0" class="edge-thickness-normal edge-pattern-solid edge-thickness-normal edge-pattern-solid flowchart-link" style=";" data-edge="true" data-et="edge" data-id="L_HTTP_RUN_0" data-points="W3sieCI6MzU2Ljc0MjE4NzUsInkiOjYzOX0seyJ4IjozNTYuNzQyMTg3NSwieSI6NjY0fSx7IngiOjM1Ni43NDIxODc1LCJ5Ijo2ODl9XQ==" data-look="classic" marker-end="url(#my-svg_flowchart-v2-pointEnd)"/><path d="M356.742,767L356.742,771.167C356.742,775.333,356.742,783.667,356.742,791.333C356.742,799,356.742,806,356.742,809.5L356.742,813" id="my-svg-L_RUN_EP_0" class="edge-thickness-normal edge-pattern-dotted edge-thickness-normal edge-pattern-solid flowchart-link" style=";" data-edge="true" data-et="edge" data-id="L_RUN_EP_0" data-points="W3sieCI6MzU2Ljc0MjE4NzUsInkiOjc2N30seyJ4IjozNTYuNzQyMTg3NSwieSI6NzkyfSx7IngiOjM1Ni43NDIxODc1LCJ5Ijo4MTd9XQ==" data-look="classic" marker-end="url(#my-svg_flowchart-v2-pointEnd)"/></g><g class="edgeLabels"><g class="edgeLabel"><g class="label" data-id="L_START_WDT_0" transform="translate(0, 0)"><foreignObject width="0" height="0"><div xmlns="http://www.w3.org/1999/xhtml" class="labelBkg" style="display: table-cell; white-space: nowrap; line-height: 1.5; max-width: 200px; text-align: center;"><span class="edgeLabel"></span></div></foreignObject></g></g><g class="edgeLabel"><g class="label" data-id="L_WDT_LOCK_0" transform="translate(0, 0)"><foreignObject width="0" height="0"><div xmlns="http://www.w3.org/1999/xhtml" class="labelBkg" style="display: table-cell; white-space: nowrap; line-height: 1.5; max-width: 200px; text-align: center;"><span class="edgeLabel"></span></div></foreignObject></g></g><g class="edgeLabel"><g class="label" data-id="L_LOCK_WIFI_0" transform="translate(0, 0)"><foreignObject width="0" height="0"><div xmlns="http://www.w3.org/1999/xhtml" class="labelBkg" style="display: table-cell; white-space: nowrap; line-height: 1.5; max-width: 200px; text-align: center;"><span class="edgeLabel"></span></div></foreignObject></g></g><g class="edgeLabel"><g class="label" data-id="L_WIFI_READY_0" transform="translate(0, 0)"><foreignObject width="0" height="0"><div xmlns="http://www.w3.org/1999/xhtml" class="labelBkg" style="display: table-cell; white-space: nowrap; line-height: 1.5; max-width: 200px; text-align: center;"><span class="edgeLabel"></span></div></foreignObject></g></g><g class="edgeLabel"><g class="label" data-id="L_READY_HTTP_0" transform="translate(0, 0)"><foreignObject width="0" height="0"><div xmlns="http://www.w3.org/1999/xhtml" class="labelBkg" style="display: table-cell; white-space: nowrap; line-height: 1.5; max-width: 200px; text-align: center;"><span class="edgeLabel"></span></div></foreignObject></g></g><g class="edgeLabel"><g class="label" data-id="L_HTTP_RUN_0" transform="translate(0, 0)"><foreignObject width="0" height="0"><div xmlns="http://www.w3.org/1999/xhtml" class="labelBkg" style="display: table-cell; white-space: nowrap; line-height: 1.5; max-width: 200px; text-align: center;"><span class="edgeLabel"></span></div></foreignObject></g></g><g class="edgeLabel"><g class="label" data-id="L_RUN_EP_0" transform="translate(0, 0)"><foreignObject width="0" height="0"><div xmlns="http://www.w3.org/1999/xhtml" class="labelBkg" style="display: table-cell; white-space: nowrap; line-height: 1.5; max-width: 200px; text-align: center;"><span class="edgeLabel"></span></div></foreignObject></g></g></g><g class="nodes"><g class="root" transform="translate(0, 809)"><g class="clusters"><g class="cluster" id="my-svg-EP" data-look="classic"><rect style="" x="8" y="8" width="697.484375" height="148"/><g class="cluster-label" transform="translate(276.6796875, 8)"><foreignObject width="160.125" height="24"><div xmlns="http://www.w3.org/1999/xhtml" style="display: table-cell; white-space: nowrap; line-height: 1.5;"><span class="nodeLabel"><p>Handler zjednodušeně</p></span></div></foreignObject></g></g></g><g class="edgePaths"><path d="M267.938,82L274.188,82C280.438,82,292.938,82,304.771,82C316.604,82,327.771,82,333.354,82L338.938,82" id="my-svg-L_H_D_0" class="edge-thickness-normal edge-pattern-solid edge-thickness-normal edge-pattern-solid flowchart-link" style=";" data-edge="true" data-et="edge" data-id="L_H_D_0" data-points="W3sieCI6MjY3LjkzNzUsInkiOjgyfSx7IngiOjMwNS40Mzc1LCJ5Ijo4Mn0seyJ4IjozNDIuOTM3NSwieSI6ODJ9XQ==" data-look="classic" marker-end="url(#my-svg_flowchart-v2-pointEnd)"/></g><g class="edgeLabels"><g class="edgeLabel"><g class="label" data-id="L_H_D_0" transform="translate(0, 0)"><foreignObject width="0" height="0"><div xmlns="http://www.w3.org/1999/xhtml" class="labelBkg" style="display: table-cell; white-space: nowrap; line-height: 1.5; max-width: 200px; text-align: center;"><span class="edgeLabel"></span></div></foreignObject></g></g></g><g class="nodes"><g class="node default" id="my-svg-flowchart-H-12" data-look="classic" transform="translate(156.71875, 82)"><rect class="basic label-container" style="" x="-111.21875" y="-27" width="222.4375" height="54"/><g class="label" style="" transform="translate(-81.21875, -12)"><rect/><foreignObject width="162.4375" height="24"><div xmlns="http://www.w3.org/1999/xhtml" style="display: table-cell; white-space: nowrap; line-height: 1.5; max-width: 200px; text-align: center;"><span class="nodeLabel"><p>REST / WS požadavky</p></span></div></foreignObject></g></g><g class="node default" id="my-svg-flowchart-D-13" data-look="classic" transform="translate(505.4609375, 82)"><rect class="basic label-container" style="" x="-162.5234375" y="-39" width="325.046875" height="78"/><g class="label" style="" transform="translate(-132.5234375, -24)"><rect/><foreignObject width="265.046875" height="48"><div xmlns="http://www.w3.org/1999/xhtml" style="display: table; white-space: break-spaces; line-height: 1.5; max-width: 200px; text-align: center; width: 200px;"><span class="nodeLabel"><p>web_server_ble_command_dispatch · fronty</p></span></div></foreignObject></g></g></g></g><g class="node default" id="my-svg-flowchart-START-0" data-look="classic" transform="translate(356.7421875, 27.5)"><g class="basic label-container outer-path"><path d="M-73.359375 -19.5 C-29.702458727110425 -19.5, 13.95445754577915 -19.5, 73.359375 -19.5 C73.359375 -19.5, 73.359375 -19.5, 73.359375 -19.5 C73.83195848697689 -19.484845167400607, 74.30454197395376 -19.469690334801214, 74.6087442896239 -19.45993515863156 C74.97290503117102 -19.424805009861878, 75.33706577271813 -19.389674861092193, 75.85297965284786 -19.3399052695533 C76.17686132413762 -19.287542592679046, 76.50074299542737 -19.235179915804792, 77.08696825967675 -19.140403561325776 C77.57182585825608 -19.029737978441567, 78.0566834568354 -18.919072395557357, 78.30563938623538 -18.862249829261074 C78.77958537983092 -18.72158514615521, 79.25353137342644 -18.580920463049345, 79.5039852514606 -18.50658706670804 C79.82483126091347 -18.388512769361384, 80.14567727036635 -18.270438472014728, 80.6770815951478 -18.074876768247425 C80.92112940736958 -17.966844041197977, 81.16517721959136 -17.858811314148525, 81.82010791279238 -17.568892924097174 C82.16740269116994 -17.38770946067052, 82.5146974695475 -17.206525997243872, 82.92836726407678 -16.990714730406097 C83.15359520919696 -16.85418022648792, 83.37882315431716 -16.71764572256974, 83.9973055736057 -16.342718045390892 C84.40285478312555 -16.05982447277217, 84.8084039926454 -15.776930900153452, 85.02253034457871 -15.627565626425154 C85.25631939049289 -15.441125083696388, 85.49010843640707 -15.254684540967622, 85.99982870850187 -14.848196188198123 C86.28338753004724 -14.590675569025914, 86.5669463515926 -14.333154949853704, 86.92518473676799 -14.007812326905688 C87.25999099560993 -13.66209737654632, 87.59479725445188 -13.316382426186955, 87.79479594296865 -13.10986736009568 C88.06683870615214 -12.790310450788601, 88.33888146933563 -12.470753541481521, 88.60508890812658 -12.158051136245305 C88.76921939299643 -11.938131239114465, 88.9333498778663 -11.718211341983626, 89.35273396464063 -11.156274872382312 C89.5169672972873 -10.903968370612256, 89.68120062993394 -10.651661868842202, 90.03465887860425 -10.108655082055241 C90.24278743403015 -9.739101756594987, 90.45091598945605 -9.369548431134733, 90.6480614742735 -9.019496659696287 C90.78009743222158 -8.745321167900194, 90.91213339016964 -8.471145676104099, 91.19042114880834 -7.893275190886684 C91.30276650220256 -7.615779995953328, 91.41511185559678 -7.33828480101997, 91.65950922997033 -6.734618561215508 C91.79458165572117 -6.327801935722393, 91.92965408147204 -5.920985310229278, 92.05339813421489 -5.548287939305138 C92.13208015363473 -5.248239298254332, 92.21076217305458 -4.948190657203527, 92.37046928754556 -4.339158212148133 C92.42135827895301 -4.077853996663061, 92.47224727036044 -3.8165497811779883, 92.60941977658177 -3.1121979531509023 C92.66024749817215 -2.7179881815648117, 92.71107521976253 -2.323778409978721, 92.76926770250937 -1.872449005199798 C92.79477846325547 -1.4750983146637722, 92.82028922400158 -1.0777476241277464, 92.84935621591342 -0.6250057626472757 C92.84935621591342 -0.2232778579608536, 92.84935621591342 0.17845004672556852, 92.84935621591342 0.625005762647271 C92.81885186641337 1.1001356287782371, 92.78834751691332 1.5752654949092033, 92.76926770250937 1.8724490051997846 C92.71390904502641 2.3017998208341646, 92.65855038754346 2.731150636468545, 92.60941977658177 3.1121979531508885 C92.54514156545679 3.442252982072972, 92.4808633543318 3.772308010995056, 92.37046928754556 4.339158212148129 C92.26936501257208 4.724712631491983, 92.1682607375986 5.110267050835837, 92.05339813421489 5.548287939305125 C91.94266223616958 5.881806820848254, 91.83192633812428 6.215325702391382, 91.65950922997033 6.734618561215495 C91.51178664794352 7.099496194843512, 91.36406406591674 7.46437382847153, 91.19042114880834 7.893275190886679 C91.0733723227349 8.136329582671863, 90.95632349666145 8.379383974457047, 90.6480614742735 9.019496659696284 C90.42948947140879 9.407593383597877, 90.21091746854407 9.795690107499471, 90.03465887860425 10.108655082055236 C89.81716527747105 10.44278365860525, 89.59967167633783 10.776912235155265, 89.35273396464065 11.156274872382301 C89.09488337993447 11.50177116521706, 88.8370327952283 11.84726745805182, 88.60508890812659 12.158051136245302 C88.29730920456853 12.519586689205857, 87.98952950101047 12.881122242166414, 87.79479594296866 13.10986736009567 C87.57358708187554 13.338283670759568, 87.35237822078243 13.566699981423463, 86.92518473676799 14.007812326905684 C86.64151344046736 14.2654350926747, 86.35784214416675 14.523057858443716, 85.9998287085019 14.848196188198111 C85.63307442922864 15.14067296617727, 85.26632014995539 15.433149744156431, 85.02253034457871 15.627565626425152 C84.76725366246416 15.8056355891188, 84.51197698034962 15.983705551812449, 83.9973055736057 16.34271804539089 C83.75943761515065 16.48691499967363, 83.52156965669559 16.63111195395637, 82.92836726407678 16.990714730406093 C82.52331872697594 17.20202829276563, 82.11827018987512 17.41334185512516, 81.82010791279238 17.56889292409717 C81.56186635653815 17.683208800587327, 81.30362480028393 17.797524677077487, 80.6770815951478 18.07487676824742 C80.29654263521446 18.214918623166472, 79.91600367528113 18.354960478085523, 79.50398525146062 18.506587066708033 C79.07568627139003 18.63370395580576, 78.64738729131945 18.76082084490349, 78.30563938623541 18.86224982926107 C77.93765520835233 18.94623981654171, 77.56967103046925 19.030229803822344, 77.08696825967677 19.140403561325773 C76.60261268793455 19.218710413931497, 76.11825711619234 19.297017266537217, 75.85297965284788 19.3399052695533 C75.41194395017402 19.38245145336721, 74.97090824750015 19.42499763718112, 74.6087442896239 19.45993515863156 C74.33425413080408 19.46873752376223, 74.05976397198427 19.4775398888929, 73.359375 19.5 C73.359375 19.5, 73.359375 19.5, 73.359375 19.5 C24.555657904769497 19.5, -24.248059190461007 19.5, -73.359375 19.5 C-73.8256280211324 19.485048173118734, -74.2918810422648 19.47009634623747, -74.6087442896239 19.45993515863156 C-74.89955394270659 19.43188110114845, -75.19036359578928 19.40382704366534, -75.85297965284786 19.3399052695533 C-76.1246301170846 19.295986929176316, -76.39628058132135 19.252068588799332, -77.08696825967675 19.140403561325773 C-77.4502940295852 19.057476825266395, -77.81361979949364 18.974550089207014, -78.30563938623538 18.862249829261074 C-78.55071245107499 18.78951343003145, -78.79578551591457 18.71677703080183, -79.50398525146059 18.506587066708043 C-79.84289119553374 18.381866546476925, -80.18179713960687 18.257146026245803, -80.6770815951478 18.074876768247425 C-81.09473088628471 17.889995816187152, -81.5123801774216 17.705114864126877, -81.82010791279238 17.568892924097174 C-82.12798937291264 17.408271363559926, -82.43587083303288 17.24764980302268, -82.92836726407678 16.990714730406097 C-83.34037403062791 16.74095380730229, -83.75238079717904 16.491192884198483, -83.99730557360569 16.3427180453909 C-84.22341093194316 16.18499673535789, -84.44951629028063 16.027275425324877, -85.02253034457871 15.627565626425156 C-85.33535499519614 15.378096292171323, -85.64817964581356 15.128626957917492, -85.99982870850187 14.848196188198125 C-86.26396722711931 14.608312574311995, -86.52810574573675 14.368428960425867, -86.92518473676797 14.007812326905697 C-87.21159301650633 13.712072263518772, -87.49800129624468 13.416332200131848, -87.79479594296865 13.109867360095677 C-88.0968953049221 12.75500425960448, -88.39899466687557 12.400141159113282, -88.60508890812658 12.158051136245307 C-88.81801992687124 11.872742969542315, -89.03095094561593 11.587434802839324, -89.35273396464063 11.156274872382316 C-89.61951145538778 10.746433006807914, -89.88628894613494 10.336591141233514, -90.03465887860425 10.108655082055249 C-90.17403942448199 9.861170809038596, -90.31341997035973 9.613686536021945, -90.6480614742735 9.019496659696289 C-90.79973441847093 8.704544545789195, -90.95140736266838 8.389592431882104, -91.19042114880834 7.893275190886686 C-91.31573008708585 7.58375969065773, -91.44103902536337 7.274244190428774, -91.65950922997033 6.73461856121551 C-91.78080416341122 6.369297547414708, -91.90209909685211 6.003976533613906, -92.05339813421489 5.5482879393051325 C-92.12319322515938 5.282129008150028, -92.19298831610386 5.015970076994923, -92.37046928754556 4.339158212148136 C-92.45398093657167 3.9103435445923704, -92.53749258559776 3.481528877036605, -92.60941977658177 3.112197953150904 C-92.6441215617962 2.8430577596704163, -92.67882334701062 2.5739175661899285, -92.76926770250937 1.872449005199809 C-92.7878426110401 1.5831298114372798, -92.80641751957084 1.2938106176747506, -92.84935621591342 0.6250057626472781 C-92.84935621591342 0.3621743064300976, -92.84935621591342 0.09934285021291711, -92.84935621591342 -0.6250057626472687 C-92.82922838467506 -0.9385129810775965, -92.8091005534367 -1.2520201995079243, -92.76926770250937 -1.8724490051997822 C-92.72123213824217 -2.2450033559610842, -92.67319657397498 -2.617557706722386, -92.60941977658177 -3.112197953150895 C-92.52234517692942 -3.5593076191425776, -92.43527057727707 -4.00641728513426, -92.37046928754556 -4.339158212148126 C-92.25834103206951 -4.766751846971654, -92.14621277659346 -5.194345481795181, -92.05339813421489 -5.548287939305123 C-91.94919695861176 -5.862125278019, -91.84499578300866 -6.1759626167328765, -91.65950922997033 -6.734618561215485 C-91.50809631773859 -7.10861138179738, -91.35668340550686 -7.4826042023792745, -91.19042114880834 -7.893275190886676 C-91.00712021041362 -8.273903511475106, -90.8238192720189 -8.654531832063535, -90.6480614742735 -9.019496659696282 C-90.41421228587235 -9.434719573500603, -90.1803630974712 -9.849942487304924, -90.03465887860425 -10.108655082055243 C-89.87867849308758 -10.348282840807034, -89.7226981075709 -10.587910599558825, -89.35273396464063 -11.156274872382308 C-89.11498165056982 -11.474841313555821, -88.87722933649898 -11.793407754729335, -88.60508890812659 -12.158051136245302 C-88.42962705051944 -12.364158618253185, -88.2541651929123 -12.570266100261069, -87.79479594296866 -13.10986736009567 C-87.51157293819095 -13.402318365569798, -87.22834993341323 -13.694769371043925, -86.92518473676799 -14.007812326905677 C-86.62670735515397 -14.278881587608769, -86.32822997353996 -14.549950848311859, -85.9998287085019 -14.848196188198107 C-85.7145410553231 -15.07570549978491, -85.4292534021443 -15.30321481137171, -85.02253034457871 -15.627565626425149 C-84.65201623988119 -15.886020226565062, -84.28150213518366 -16.144474826704975, -83.99730557360571 -16.342718045390885 C-83.61442741626662 -16.57482103441164, -83.23154925892753 -16.8069240234324, -82.92836726407678 -16.99071473040609 C-82.64007780684811 -17.141115155584078, -82.35178834961945 -17.291515580762063, -81.8201079127924 -17.56889292409717 C-81.52314343734265 -17.700350288240593, -81.22617896189293 -17.83180765238402, -80.67708159514781 -18.07487676824742 C-80.32952807854991 -18.20277967510494, -79.981974561952 -18.330682581962456, -79.50398525146062 -18.506587066708033 C-79.14033055305858 -18.614517872331295, -78.77667585465653 -18.722448677954556, -78.30563938623541 -18.862249829261067 C-77.87613353000253 -18.960281738158578, -77.44662767376965 -19.058313647056085, -77.08696825967677 -19.140403561325773 C-76.71216422422584 -19.200998971128772, -76.33736018877494 -19.261594380931772, -75.85297965284788 -19.3399052695533 C-75.48328976727973 -19.37556880819692, -75.11359988171158 -19.411232346840542, -74.6087442896239 -19.45993515863156 C-74.15761929948812 -19.474401859003688, -73.70649430935235 -19.488868559375817, -73.359375 -19.5 C-73.359375 -19.5, -73.359375 -19.5, -73.359375 -19.5" stroke="none" stroke-width="0" fill="#1f2020" style=""/><path d="M-73.359375 -19.5 C-39.519674395841804 -19.5, -5.679973791683608 -19.5, 73.359375 -19.5 M-73.359375 -19.5 C-22.343044332070967 -19.5, 28.673286335858066 -19.5, 73.359375 -19.5 M73.359375 -19.5 C73.359375 -19.5, 73.359375 -19.5, 73.359375 -19.5 M73.359375 -19.5 C73.359375 -19.5, 73.359375 -19.5, 73.359375 -19.5 M73.359375 -19.5 C73.85732194970461 -19.484031810517912, 74.35526889940923 -19.468063621035828, 74.6087442896239 -19.45993515863156 M73.359375 -19.5 C73.67794801550231 -19.4897839834576, 73.9965210310046 -19.479567966915198, 74.6087442896239 -19.45993515863156 M74.6087442896239 -19.45993515863156 C74.87534947194537 -19.43421607733265, 75.14195465426685 -19.40849699603374, 75.85297965284786 -19.3399052695533 M74.6087442896239 -19.45993515863156 C74.87948721585882 -19.433816914153685, 75.15023014209373 -19.40769866967581, 75.85297965284786 -19.3399052695533 M75.85297965284786 -19.3399052695533 C76.13221742606524 -19.29476027190079, 76.41145519928261 -19.249615274248278, 77.08696825967675 -19.140403561325776 M75.85297965284786 -19.3399052695533 C76.2202640065623 -19.28052558357745, 76.58754836027676 -19.221145897601602, 77.08696825967675 -19.140403561325776 M77.08696825967675 -19.140403561325776 C77.3984667047131 -19.069306073963553, 77.70996514974944 -18.998208586601326, 78.30563938623538 -18.862249829261074 M77.08696825967675 -19.140403561325776 C77.57373824688335 -19.029301488216895, 78.06050823408994 -18.91819941510801, 78.30563938623538 -18.862249829261074 M78.30563938623538 -18.862249829261074 C78.63812271687097 -18.763570521969054, 78.97060604750654 -18.66489121467703, 79.5039852514606 -18.50658706670804 M78.30563938623538 -18.862249829261074 C78.66701704703304 -18.754994836446382, 79.0283947078307 -18.64773984363169, 79.5039852514606 -18.50658706670804 M79.5039852514606 -18.50658706670804 C79.82740853990796 -18.387564306867308, 80.15083182835532 -18.268541547026572, 80.6770815951478 -18.074876768247425 M79.5039852514606 -18.50658706670804 C79.76587028999224 -18.410210951689642, 80.02775532852385 -18.313834836671248, 80.6770815951478 -18.074876768247425 M80.6770815951478 -18.074876768247425 C81.0927126648918 -17.890889222929378, 81.50834373463582 -17.70690167761133, 81.82010791279238 -17.568892924097174 M80.6770815951478 -18.074876768247425 C80.94295261119123 -17.95718355622847, 81.20882362723466 -17.839490344209512, 81.82010791279238 -17.568892924097174 M81.82010791279238 -17.568892924097174 C82.23710604307445 -17.351345266629068, 82.65410417335653 -17.13379760916096, 82.92836726407678 -16.990714730406097 M81.82010791279238 -17.568892924097174 C82.2462643284843 -17.34656739499691, 82.67242074417622 -17.124241865896646, 82.92836726407678 -16.990714730406097 M82.92836726407678 -16.990714730406097 C83.22075507696724 -16.81346751997039, 83.51314288985769 -16.636220309534686, 83.9973055736057 -16.342718045390892 M82.92836726407678 -16.990714730406097 C83.21682539336082 -16.81584971726598, 83.50528352264487 -16.640984704125867, 83.9973055736057 -16.342718045390892 M83.9973055736057 -16.342718045390892 C84.32252476673484 -16.115859214775963, 84.64774395986399 -15.889000384161037, 85.02253034457871 -15.627565626425154 M83.9973055736057 -16.342718045390892 C84.28477964546614 -16.142188577413048, 84.57225371732657 -15.941659109435207, 85.02253034457871 -15.627565626425154 M85.02253034457871 -15.627565626425154 C85.30210957183895 -15.404608632600802, 85.5816887990992 -15.181651638776447, 85.99982870850187 -14.848196188198123 M85.02253034457871 -15.627565626425154 C85.25831702093778 -15.439532026575762, 85.49410369729686 -15.25149842672637, 85.99982870850187 -14.848196188198123 M85.99982870850187 -14.848196188198123 C86.33346328546438 -14.545198092887956, 86.66709786242687 -14.242199997577787, 86.92518473676799 -14.007812326905688 M85.99982870850187 -14.848196188198123 C86.34160490846824 -14.537804086291377, 86.68338110843462 -14.227411984384633, 86.92518473676799 -14.007812326905688 M86.92518473676799 -14.007812326905688 C87.11378954173448 -13.81306238103532, 87.30239434670096 -13.618312435164952, 87.79479594296865 -13.10986736009568 M86.92518473676799 -14.007812326905688 C87.15020274617406 -13.775462757871777, 87.37522075558012 -13.543113188837866, 87.79479594296865 -13.10986736009568 M87.79479594296865 -13.10986736009568 C88.01148154715119 -12.855336119662695, 88.22816715133375 -12.60080487922971, 88.60508890812658 -12.158051136245305 M87.79479594296865 -13.10986736009568 C88.03842284257932 -12.823689341049672, 88.28204974219001 -12.537511322003665, 88.60508890812658 -12.158051136245305 M88.60508890812658 -12.158051136245305 C88.78415597838375 -11.918117575446388, 88.96322304864093 -11.67818401464747, 89.35273396464063 -11.156274872382312 M88.60508890812658 -12.158051136245305 C88.858004602436 -11.81916714696443, 89.11092029674542 -11.480283157683555, 89.35273396464063 -11.156274872382312 M89.35273396464063 -11.156274872382312 C89.5767824804093 -10.812076186711181, 89.800830996178 -10.46787750104005, 90.03465887860425 -10.108655082055241 M89.35273396464063 -11.156274872382312 C89.53043979101119 -10.883271002381234, 89.70814561738175 -10.610267132380155, 90.03465887860425 -10.108655082055241 M90.03465887860425 -10.108655082055241 C90.1859106250515 -9.840092290338015, 90.33716237149875 -9.57152949862079, 90.6480614742735 -9.019496659696287 M90.03465887860425 -10.108655082055241 C90.20307955367039 -9.809607119032643, 90.37150022873652 -9.510559156010045, 90.6480614742735 -9.019496659696287 M90.6480614742735 -9.019496659696287 C90.79598786390792 -8.712324346502717, 90.94391425354235 -8.405152033309145, 91.19042114880834 -7.893275190886684 M90.6480614742735 -9.019496659696287 C90.83491081597306 -8.631500003721703, 91.02176015767262 -8.243503347747119, 91.19042114880834 -7.893275190886684 M91.19042114880834 -7.893275190886684 C91.37767985485426 -7.430742566552471, 91.56493856090019 -6.968209942218258, 91.65950922997033 -6.734618561215508 M91.19042114880834 -7.893275190886684 C91.34261636933108 -7.517350053701094, 91.49481158985382 -7.141424916515503, 91.65950922997033 -6.734618561215508 M91.65950922997033 -6.734618561215508 C91.77343575877872 -6.391490008171956, 91.88736228758711 -6.048361455128403, 92.05339813421489 -5.548287939305138 M91.65950922997033 -6.734618561215508 C91.7634720943065 -6.42149897806794, 91.86743495864266 -6.108379394920372, 92.05339813421489 -5.548287939305138 M92.05339813421489 -5.548287939305138 C92.15911849369442 -5.14513038911601, 92.26483885317397 -4.741972838926881, 92.37046928754556 -4.339158212148133 M92.05339813421489 -5.548287939305138 C92.14587449405425 -5.195635499729763, 92.2383508538936 -4.8429830601543875, 92.37046928754556 -4.339158212148133 M92.37046928754556 -4.339158212148133 C92.43451537414485 -4.010295093605955, 92.49856146074414 -3.6814319750637776, 92.60941977658177 -3.1121979531509023 M92.37046928754556 -4.339158212148133 C92.42983726076972 -4.0343162170677, 92.48920523399386 -3.7294742219872665, 92.60941977658177 -3.1121979531509023 M92.60941977658177 -3.1121979531509023 C92.6465093907622 -2.8245382297402606, 92.68359900494262 -2.5368785063296184, 92.76926770250937 -1.872449005199798 M92.60941977658177 -3.1121979531509023 C92.64692565885274 -2.821309736631494, 92.6844315411237 -2.5304215201120854, 92.76926770250937 -1.872449005199798 M92.76926770250937 -1.872449005199798 C92.7914933726307 -1.5262662528221809, 92.81371904275201 -1.1800835004445638, 92.84935621591342 -0.6250057626472757 M92.76926770250937 -1.872449005199798 C92.7890577265416 -1.5642034066778814, 92.80884775057383 -1.2559578081559648, 92.84935621591342 -0.6250057626472757 M92.84935621591342 -0.6250057626472757 C92.84935621591342 -0.2671827290483071, 92.84935621591342 0.09064030455066152, 92.84935621591342 0.625005762647271 M92.84935621591342 -0.6250057626472757 C92.84935621591342 -0.1326174513237593, 92.84935621591342 0.3597708599997571, 92.84935621591342 0.625005762647271 M92.84935621591342 0.625005762647271 C92.81879076264678 1.1010873692649743, 92.78822530938014 1.5771689758826777, 92.76926770250937 1.8724490051997846 M92.84935621591342 0.625005762647271 C92.82783796501312 0.9601698896389343, 92.80631971411282 1.2953340166305976, 92.76926770250937 1.8724490051997846 M92.76926770250937 1.8724490051997846 C92.73531416441611 2.135785941766646, 92.70136062632284 2.3991228783335066, 92.60941977658177 3.1121979531508885 M92.76926770250937 1.8724490051997846 C92.73187961962213 2.162423592961065, 92.69449153673492 2.452398180722346, 92.60941977658177 3.1121979531508885 M92.60941977658177 3.1121979531508885 C92.5214224946917 3.5640453974242567, 92.43342521280165 4.0158928416976245, 92.37046928754556 4.339158212148129 M92.60941977658177 3.1121979531508885 C92.53840462323016 3.4768457565534368, 92.46738946987855 3.841493559955985, 92.37046928754556 4.339158212148129 M92.37046928754556 4.339158212148129 C92.25498062439006 4.779566537863272, 92.13949196123457 5.2199748635784164, 92.05339813421489 5.548287939305125 M92.37046928754556 4.339158212148129 C92.25159482003875 4.792478077271742, 92.13272035253193 5.245797942395356, 92.05339813421489 5.548287939305125 M92.05339813421489 5.548287939305125 C91.94153175974164 5.885211635732268, 91.82966538526838 6.222135332159409, 91.65950922997033 6.734618561215495 M92.05339813421489 5.548287939305125 C91.95636575716746 5.840533998962215, 91.85933338012002 6.132780058619304, 91.65950922997033 6.734618561215495 M91.65950922997033 6.734618561215495 C91.53685763508116 7.037570371899005, 91.414206040192 7.340522182582514, 91.19042114880834 7.893275190886679 M91.65950922997033 6.734618561215495 C91.47580840511114 7.188363150231531, 91.29210758025195 7.642107739247567, 91.19042114880834 7.893275190886679 M91.19042114880834 7.893275190886679 C90.99143821846577 8.306467503295682, 90.79245528812321 8.719659815704684, 90.6480614742735 9.019496659696284 M91.19042114880834 7.893275190886679 C91.07701619534616 8.128763003228192, 90.96361124188398 8.364250815569706, 90.6480614742735 9.019496659696284 M90.6480614742735 9.019496659696284 C90.44944441918432 9.37216135316486, 90.25082736409512 9.724826046633437, 90.03465887860425 10.108655082055236 M90.6480614742735 9.019496659696284 C90.48573770623908 9.307718946905304, 90.32341393820464 9.595941234114324, 90.03465887860425 10.108655082055236 M90.03465887860425 10.108655082055236 C89.81211872139691 10.450536523925162, 89.58957856418958 10.792417965795087, 89.35273396464065 11.156274872382301 M90.03465887860425 10.108655082055236 C89.81248390134844 10.449975509455065, 89.59030892409264 10.791295936854896, 89.35273396464065 11.156274872382301 M89.35273396464065 11.156274872382301 C89.13250987856121 11.45135508490178, 88.91228579248177 11.746435297421257, 88.60508890812659 12.158051136245302 M89.35273396464065 11.156274872382301 C89.17573023581761 11.393443743633748, 88.99872650699457 11.630612614885194, 88.60508890812659 12.158051136245302 M88.60508890812659 12.158051136245302 C88.34563192423832 12.46282407304108, 88.08617494035005 12.767597009836859, 87.79479594296866 13.10986736009567 M88.60508890812659 12.158051136245302 C88.40224559681792 12.396322431819849, 88.19940228550925 12.634593727394396, 87.79479594296866 13.10986736009567 M87.79479594296866 13.10986736009567 C87.57614446122594 13.335642966615541, 87.35749297948321 13.561418573135413, 86.92518473676799 14.007812326905684 M87.79479594296866 13.10986736009567 C87.47304725541002 13.442099296058478, 87.1512985678514 13.774331232021284, 86.92518473676799 14.007812326905684 M86.92518473676799 14.007812326905684 C86.67484652535191 14.235162866927654, 86.42450831393583 14.462513406949624, 85.9998287085019 14.848196188198111 M86.92518473676799 14.007812326905684 C86.60351025528044 14.29994857995229, 86.28183577379289 14.592084832998895, 85.9998287085019 14.848196188198111 M85.9998287085019 14.848196188198111 C85.61944316669234 15.151543535306843, 85.23905762488279 15.454890882415572, 85.02253034457871 15.627565626425152 M85.9998287085019 14.848196188198111 C85.7008189065839 15.086648548242703, 85.40180910466592 15.325100908287293, 85.02253034457871 15.627565626425152 M85.02253034457871 15.627565626425152 C84.69393958987041 15.856776312445154, 84.3653488351621 16.085986998465156, 83.9973055736057 16.34271804539089 M85.02253034457871 15.627565626425152 C84.7532027860032 15.815436872285325, 84.4838752274277 16.003308118145497, 83.9973055736057 16.34271804539089 M83.9973055736057 16.34271804539089 C83.63411827969423 16.56288431728547, 83.27093098578275 16.78305058918005, 82.92836726407678 16.990714730406093 M83.9973055736057 16.34271804539089 C83.66492878237902 16.54420680949534, 83.33255199115233 16.74569557359979, 82.92836726407678 16.990714730406093 M82.92836726407678 16.990714730406093 C82.59194574182133 17.166225623078496, 82.25552421956587 17.341736515750895, 81.82010791279238 17.56889292409717 M82.92836726407678 16.990714730406093 C82.50061040969939 17.213875207343435, 82.072853555322 17.43703568428078, 81.82010791279238 17.56889292409717 M81.82010791279238 17.56889292409717 C81.43734351373648 17.73833136925674, 81.05457911468058 17.90776981441631, 80.6770815951478 18.07487676824742 M81.82010791279238 17.56889292409717 C81.36503043474721 17.770342224234017, 80.90995295670203 17.971791524370865, 80.6770815951478 18.07487676824742 M80.6770815951478 18.07487676824742 C80.36579369249782 18.189433593936442, 80.05450578984784 18.303990419625464, 79.50398525146062 18.506587066708033 M80.6770815951478 18.07487676824742 C80.34516977182354 18.19702338739001, 80.01325794849927 18.3191700065326, 79.50398525146062 18.506587066708033 M79.50398525146062 18.506587066708033 C79.16989418541716 18.60574354142994, 78.83580311937371 18.704900016151846, 78.30563938623541 18.86224982926107 M79.50398525146062 18.506587066708033 C79.24643524403352 18.58302655700482, 78.98888523660641 18.65946604730161, 78.30563938623541 18.86224982926107 M78.30563938623541 18.86224982926107 C77.83125821841551 18.97052423518954, 77.35687705059561 19.078798641118013, 77.08696825967677 19.140403561325773 M78.30563938623541 18.86224982926107 C77.84471872943402 18.96745196138761, 77.38379807263263 19.07265409351415, 77.08696825967677 19.140403561325773 M77.08696825967677 19.140403561325773 C76.63624016274464 19.213273784589163, 76.18551206581252 19.286144007852553, 75.85297965284788 19.3399052695533 M77.08696825967677 19.140403561325773 C76.60069139189176 19.21902103417582, 76.11441452410673 19.297638507025873, 75.85297965284788 19.3399052695533 M75.85297965284788 19.3399052695533 C75.50771874831887 19.373212173776224, 75.16245784378985 19.40651907799915, 74.6087442896239 19.45993515863156 M75.85297965284788 19.3399052695533 C75.37525359447606 19.38599092785478, 74.89752753610425 19.432076586156267, 74.6087442896239 19.45993515863156 M74.6087442896239 19.45993515863156 C74.33786363928536 19.468621773850714, 74.06698298894682 19.477308389069872, 73.359375 19.5 M74.6087442896239 19.45993515863156 C74.27084829042704 19.47077082565114, 73.93295229123018 19.481606492670718, 73.359375 19.5 M73.359375 19.5 C73.359375 19.5, 73.359375 19.5, 73.359375 19.5 M73.359375 19.5 C73.359375 19.5, 73.359375 19.5, 73.359375 19.5 M73.359375 19.5 C31.75649219063981 19.5, -9.846390618720378 19.5, -73.359375 19.5 M73.359375 19.5 C41.87005408172594 19.5, 10.380733163451879 19.5, -73.359375 19.5 M-73.359375 19.5 C-73.77361652275593 19.48671608063743, -74.18785804551186 19.473432161274857, -74.6087442896239 19.45993515863156 M-73.359375 19.5 C-73.66893354872593 19.490073059861523, -73.97849209745188 19.480146119723045, -74.6087442896239 19.45993515863156 M-74.6087442896239 19.45993515863156 C-74.9155291503341 19.430339992081624, -75.22231401104429 19.400744825531685, -75.85297965284786 19.3399052695533 M-74.6087442896239 19.45993515863156 C-75.01708253641101 19.420543259062597, -75.4254207831981 19.38115135949364, -75.85297965284786 19.3399052695533 M-75.85297965284786 19.3399052695533 C-76.31528801234056 19.26516283924539, -76.77759637183327 19.190420408937484, -77.08696825967675 19.140403561325773 M-75.85297965284786 19.3399052695533 C-76.17229396895476 19.28828100724464, -76.49160828506166 19.23665674493598, -77.08696825967675 19.140403561325773 M-77.08696825967675 19.140403561325773 C-77.49197619681243 19.047963142598338, -77.89698413394812 18.955522723870903, -78.30563938623538 18.862249829261074 M-77.08696825967675 19.140403561325773 C-77.54046677630701 19.036895484259304, -77.99396529293728 18.933387407192832, -78.30563938623538 18.862249829261074 M-78.30563938623538 18.862249829261074 C-78.59955906127334 18.775016012525665, -78.89347873631131 18.68778219579026, -79.50398525146059 18.506587066708043 M-78.30563938623538 18.862249829261074 C-78.59362362394714 18.77677761916834, -78.88160786165888 18.691305409075603, -79.50398525146059 18.506587066708043 M-79.50398525146059 18.506587066708043 C-79.87346785998588 18.370614051310945, -80.24295046851117 18.234641035913846, -80.6770815951478 18.074876768247425 M-79.50398525146059 18.506587066708043 C-79.81386963929037 18.392546747446804, -80.12375402712014 18.27850642818557, -80.6770815951478 18.074876768247425 M-80.6770815951478 18.074876768247425 C-81.11048114657127 17.883023643173157, -81.54388069799475 17.691170518098886, -81.82010791279238 17.568892924097174 M-80.6770815951478 18.074876768247425 C-80.96145185410711 17.948994490150156, -81.24582211306641 17.823112212052887, -81.82010791279238 17.568892924097174 M-81.82010791279238 17.568892924097174 C-82.22702112246425 17.35660656325171, -82.63393433213612 17.144320202406245, -82.92836726407678 16.990714730406097 M-81.82010791279238 17.568892924097174 C-82.13839698791384 17.402841717480197, -82.45668606303529 17.236790510863216, -82.92836726407678 16.990714730406097 M-82.92836726407678 16.990714730406097 C-83.30621937328672 16.761658561297562, -83.68407148249668 16.532602392189027, -83.99730557360569 16.3427180453909 M-82.92836726407678 16.990714730406097 C-83.29908303547244 16.765984651218368, -83.66979880686807 16.541254572030635, -83.99730557360569 16.3427180453909 M-83.99730557360569 16.3427180453909 C-84.27374603565514 16.149885145979937, -84.55018649770457 15.957052246568976, -85.02253034457871 15.627565626425156 M-83.99730557360569 16.3427180453909 C-84.29975669766529 16.131741234145068, -84.60220782172487 15.920764422899236, -85.02253034457871 15.627565626425156 M-85.02253034457871 15.627565626425156 C-85.26279757317515 15.43595890539897, -85.50306480177159 15.244352184372783, -85.99982870850187 14.848196188198125 M-85.02253034457871 15.627565626425156 C-85.3804633945341 15.34212354408421, -85.73839644448951 15.056681461743263, -85.99982870850187 14.848196188198125 M-85.99982870850187 14.848196188198125 C-86.24768971046622 14.623095384256843, -86.49555071243057 14.39799458031556, -86.92518473676797 14.007812326905697 M-85.99982870850187 14.848196188198125 C-86.2686131636243 14.604093257702914, -86.53739761874672 14.3599903272077, -86.92518473676797 14.007812326905697 M-86.92518473676797 14.007812326905697 C-87.2236756343298 13.69959596861466, -87.52216653189163 13.391379610323623, -87.79479594296865 13.109867360095677 M-86.92518473676797 14.007812326905697 C-87.19188295767684 13.732424517486134, -87.45858117858572 13.457036708066573, -87.79479594296865 13.109867360095677 M-87.79479594296865 13.109867360095677 C-88.00888366825338 12.858387736039568, -88.2229713935381 12.606908111983458, -88.60508890812658 12.158051136245307 M-87.79479594296865 13.109867360095677 C-88.0421982793514 12.819254498188757, -88.28960061573414 12.528641636281836, -88.60508890812658 12.158051136245307 M-88.60508890812658 12.158051136245307 C-88.7950850153089 11.903473661622439, -88.98508112249122 11.64889618699957, -89.35273396464063 11.156274872382316 M-88.60508890812658 12.158051136245307 C-88.86594647909051 11.808525755767235, -89.12680405005445 11.459000375289163, -89.35273396464063 11.156274872382316 M-89.35273396464063 11.156274872382316 C-89.51213623413732 10.911390180932717, -89.671538503634 10.666505489483118, -90.03465887860425 10.108655082055249 M-89.35273396464063 11.156274872382316 C-89.53487354943822 10.876459558806488, -89.71701313423578 10.59664424523066, -90.03465887860425 10.108655082055249 M-90.03465887860425 10.108655082055249 C-90.21227534960052 9.793279052183381, -90.3898918205968 9.477903022311516, -90.6480614742735 9.019496659696289 M-90.03465887860425 10.108655082055249 C-90.2399864232079 9.744075234942999, -90.44531396781156 9.379495387830747, -90.6480614742735 9.019496659696289 M-90.6480614742735 9.019496659696289 C-90.81483002755331 8.67319819053535, -90.98159858083312 8.32689972137441, -91.19042114880834 7.893275190886686 M-90.6480614742735 9.019496659696289 C-90.76844954277404 8.769508259562928, -90.88883761127455 8.519519859429568, -91.19042114880834 7.893275190886686 M-91.19042114880834 7.893275190886686 C-91.31653762644173 7.581765052836006, -91.44265410407512 7.270254914785324, -91.65950922997033 6.73461856121551 M-91.19042114880834 7.893275190886686 C-91.35358896296016 7.4902475352966205, -91.51675677711198 7.087219879706555, -91.65950922997033 6.73461856121551 M-91.65950922997033 6.73461856121551 C-91.74279640202452 6.4837708689970155, -91.82608357407874 6.232923176778521, -92.05339813421489 5.5482879393051325 M-91.65950922997033 6.73461856121551 C-91.75160965544212 6.4572267539044494, -91.84371008091392 6.179834946593388, -92.05339813421489 5.5482879393051325 M-92.05339813421489 5.5482879393051325 C-92.15859684743103 5.1471196524012734, -92.26379556064717 4.745951365497414, -92.37046928754556 4.339158212148136 M-92.05339813421489 5.5482879393051325 C-92.15608911373296 5.156682727850645, -92.25878009325105 4.765077516396157, -92.37046928754556 4.339158212148136 M-92.37046928754556 4.339158212148136 C-92.42894453881901 4.038900155607713, -92.48741979009246 3.738642099067291, -92.60941977658177 3.112197953150904 M-92.37046928754556 4.339158212148136 C-92.43945182423835 3.984947465694976, -92.50843436093113 3.6307367192418156, -92.60941977658177 3.112197953150904 M-92.60941977658177 3.112197953150904 C-92.66372808053946 2.690993472042788, -92.71803638449713 2.269788990934672, -92.76926770250937 1.872449005199809 M-92.60941977658177 3.112197953150904 C-92.6499218176254 2.7980721208491617, -92.69042385866904 2.4839462885474193, -92.76926770250937 1.872449005199809 M-92.76926770250937 1.872449005199809 C-92.78722332677565 1.5927756637335149, -92.80517895104192 1.313102322267221, -92.84935621591342 0.6250057626472781 M-92.76926770250937 1.872449005199809 C-92.79692206594275 1.4417099725244382, -92.82457642937614 1.0109709398490674, -92.84935621591342 0.6250057626472781 M-92.84935621591342 0.6250057626472781 C-92.84935621591342 0.14315691379614665, -92.84935621591342 -0.33869193505498485, -92.84935621591342 -0.6250057626472687 M-92.84935621591342 0.6250057626472781 C-92.84935621591342 0.3059835041055133, -92.84935621591342 -0.013038754436251576, -92.84935621591342 -0.6250057626472687 M-92.84935621591342 -0.6250057626472687 C-92.82445323489546 -1.0128897933265182, -92.79955025387748 -1.4007738240057677, -92.76926770250937 -1.8724490051997822 M-92.84935621591342 -0.6250057626472687 C-92.82910662262573 -0.9404095232805468, -92.80885702933804 -1.255813283913825, -92.76926770250937 -1.8724490051997822 M-92.76926770250937 -1.8724490051997822 C-92.70593523359021 -2.3636431277262426, -92.64260276467104 -2.854837250252703, -92.60941977658177 -3.112197953150895 M-92.76926770250937 -1.8724490051997822 C-92.71566975934972 -2.2881440682349776, -92.66207181619008 -2.7038391312701733, -92.60941977658177 -3.112197953150895 M-92.60941977658177 -3.112197953150895 C-92.53519415372014 -3.493330838954437, -92.46096853085851 -3.8744637247579785, -92.37046928754556 -4.339158212148126 M-92.60941977658177 -3.112197953150895 C-92.52887414904416 -3.5257827272321243, -92.44832852150655 -3.9393675013133533, -92.37046928754556 -4.339158212148126 M-92.37046928754556 -4.339158212148126 C-92.296384204537 -4.621676742337839, -92.22229912152845 -4.904195272527553, -92.05339813421489 -5.548287939305123 M-92.37046928754556 -4.339158212148126 C-92.24970092005972 -4.799700338713187, -92.12893255257389 -5.260242465278248, -92.05339813421489 -5.548287939305123 M-92.05339813421489 -5.548287939305123 C-91.92034285919891 -5.949029228174125, -91.78728758418292 -6.349770517043128, -91.65950922997033 -6.734618561215485 M-92.05339813421489 -5.548287939305123 C-91.90985952606269 -5.980603357288107, -91.76632091791049 -6.412918775271091, -91.65950922997033 -6.734618561215485 M-91.65950922997033 -6.734618561215485 C-91.48865310205278 -7.156636500450326, -91.31779697413525 -7.5786544396851685, -91.19042114880834 -7.893275190886676 M-91.65950922997033 -6.734618561215485 C-91.54460040329147 -7.018445584723305, -91.4296915766126 -7.302272608231125, -91.19042114880834 -7.893275190886676 M-91.19042114880834 -7.893275190886676 C-91.02412412836507 -8.23859451202334, -90.85782710792182 -8.583913833160002, -90.6480614742735 -9.019496659696282 M-91.19042114880834 -7.893275190886676 C-91.02540843547162 -8.235927620836828, -90.86039572213491 -8.578580050786979, -90.6480614742735 -9.019496659696282 M-90.6480614742735 -9.019496659696282 C-90.49045158975578 -9.299348969388923, -90.33284170523805 -9.579201279081563, -90.03465887860425 -10.108655082055243 M-90.6480614742735 -9.019496659696282 C-90.479117650705 -9.319473525859342, -90.31017382713652 -9.619450392022403, -90.03465887860425 -10.108655082055243 M-90.03465887860425 -10.108655082055243 C-89.89343519088975 -10.325612590254712, -89.75221150317525 -10.542570098454183, -89.35273396464063 -11.156274872382308 M-90.03465887860425 -10.108655082055243 C-89.84314390462876 -10.40287351105284, -89.65162893065327 -10.697091940050438, -89.35273396464063 -11.156274872382308 M-89.35273396464063 -11.156274872382308 C-89.09081900319792 -11.507217059771696, -88.82890404175521 -11.858159247161081, -88.60508890812659 -12.158051136245302 M-89.35273396464063 -11.156274872382308 C-89.18854880948237 -11.376268022719042, -89.0243636543241 -11.596261173055776, -88.60508890812659 -12.158051136245302 M-88.60508890812659 -12.158051136245302 C-88.28417761355276 -12.535011803221678, -87.96326631897892 -12.911972470198055, -87.79479594296866 -13.10986736009567 M-88.60508890812659 -12.158051136245302 C-88.3868999212417 -12.414348335545345, -88.16871093435682 -12.670645534845386, -87.79479594296866 -13.10986736009567 M-87.79479594296866 -13.10986736009567 C-87.60863811278162 -13.302090603605896, -87.42248028259456 -13.494313847116121, -86.92518473676799 -14.007812326905677 M-87.79479594296866 -13.10986736009567 C-87.5933629239187 -13.317863490223182, -87.39192990486873 -13.525859620350696, -86.92518473676799 -14.007812326905677 M-86.92518473676799 -14.007812326905677 C-86.59199519259822 -14.31040625520842, -86.25880564842844 -14.613000183511161, -85.9998287085019 -14.848196188198107 M-86.92518473676799 -14.007812326905677 C-86.71796791516913 -14.196001161625107, -86.51075109357026 -14.384189996344535, -85.9998287085019 -14.848196188198107 M-85.9998287085019 -14.848196188198107 C-85.79660184395378 -15.01026420458124, -85.59337497940565 -15.172332220964375, -85.02253034457871 -15.627565626425149 M-85.9998287085019 -14.848196188198107 C-85.77306075726814 -15.02903759475841, -85.54629280603437 -15.209879001318715, -85.02253034457871 -15.627565626425149 M-85.02253034457871 -15.627565626425149 C-84.61519937706962 -15.911702076286108, -84.20786840956052 -16.195838526147067, -83.99730557360571 -16.342718045390885 M-85.02253034457871 -15.627565626425149 C-84.7397176208996 -15.824843539698215, -84.45690489722048 -16.02212145297128, -83.99730557360571 -16.342718045390885 M-83.99730557360571 -16.342718045390885 C-83.6414056894702 -16.558466646653702, -83.2855058053347 -16.774215247916516, -82.92836726407678 -16.99071473040609 M-83.99730557360571 -16.342718045390885 C-83.60379538253946 -16.58126623573781, -83.21028519147322 -16.81981442608474, -82.92836726407678 -16.99071473040609 M-82.92836726407678 -16.99071473040609 C-82.62946145923043 -17.146653697336134, -82.33055565438406 -17.302592664266175, -81.8201079127924 -17.56889292409717 M-82.92836726407678 -16.99071473040609 C-82.69042455737268 -17.114849288084045, -82.45248185066858 -17.238983845762004, -81.8201079127924 -17.56889292409717 M-81.8201079127924 -17.56889292409717 C-81.54659963833325 -17.68996692386554, -81.2730913638741 -17.811040923633914, -80.67708159514781 -18.07487676824742 M-81.8201079127924 -17.56889292409717 C-81.47860332464845 -17.720066874894822, -81.1370987365045 -17.871240825692475, -80.67708159514781 -18.07487676824742 M-80.67708159514781 -18.07487676824742 C-80.24080528895966 -18.235430481818625, -79.8045289827715 -18.39598419538983, -79.50398525146062 -18.506587066708033 M-80.67708159514781 -18.07487676824742 C-80.44049916723584 -18.161941288663016, -80.20391673932386 -18.249005809078614, -79.50398525146062 -18.506587066708033 M-79.50398525146062 -18.506587066708033 C-79.03832702554887 -18.644791983868735, -78.5726687996371 -18.78299690102944, -78.30563938623541 -18.862249829261067 M-79.50398525146062 -18.506587066708033 C-79.08441113649114 -18.631114461641502, -78.66483702152166 -18.75564185657497, -78.30563938623541 -18.862249829261067 M-78.30563938623541 -18.862249829261067 C-77.97635791159637 -18.937406177084995, -77.64707643695732 -19.012562524908926, -77.08696825967677 -19.140403561325773 M-78.30563938623541 -18.862249829261067 C-77.84947777022137 -18.96636574138354, -77.39331615420731 -19.07048165350601, -77.08696825967677 -19.140403561325773 M-77.08696825967677 -19.140403561325773 C-76.61319856522098 -19.21699897138653, -76.13942887076522 -19.293594381447285, -75.85297965284788 -19.3399052695533 M-77.08696825967677 -19.140403561325773 C-76.69274985815389 -19.204137735274628, -76.29853145663101 -19.267871909223487, -75.85297965284788 -19.3399052695533 M-75.85297965284788 -19.3399052695533 C-75.54516437741464 -19.369599838972313, -75.2373491019814 -19.399294408391327, -74.6087442896239 -19.45993515863156 M-75.85297965284788 -19.3399052695533 C-75.55810606256611 -19.368351370170405, -75.26323247228434 -19.396797470787508, -74.6087442896239 -19.45993515863156 M-74.6087442896239 -19.45993515863156 C-74.18320220199632 -19.47358146511435, -73.75766011436873 -19.48722777159714, -73.359375 -19.5 M-74.6087442896239 -19.45993515863156 C-74.25721283347576 -19.47120808821576, -73.90568137732761 -19.48248101779996, -73.359375 -19.5 M-73.359375 -19.5 C-73.359375 -19.5, -73.359375 -19.5, -73.359375 -19.5 M-73.359375 -19.5 C-73.359375 -19.5, -73.359375 -19.5, -73.359375 -19.5" stroke="#ccc" stroke-width="1.3" fill="none" stroke-dasharray="0 0" style=""/></g><g class="label" style="" transform="translate(-80.484375, -12)"><rect/><foreignObject width="160.96875" height="24"><div xmlns="http://www.w3.org/1999/xhtml" style="display: table-cell; white-space: nowrap; line-height: 1.5; max-width: 200px; text-align: center;"><span class="nodeLabel"><p>web_server_task_start</p></span></div></foreignObject></g></g><g class="node default" id="my-svg-flowchart-WDT-1" data-look="classic" transform="translate(356.7421875, 124)"><rect class="basic label-container" style="" x="-48.21875" y="-27" width="96.4375" height="54"/><g class="label" style="" transform="translate(-18.21875, -12)"><rect/><foreignObject width="36.4375" height="24"><div xmlns="http://www.w3.org/1999/xhtml" style="display: table-cell; white-space: nowrap; line-height: 1.5; max-width: 200px; text-align: center;"><span class="nodeLabel"><p>WDT</p></span></div></foreignObject></g></g><g class="node default" id="my-svg-flowchart-LOCK-3" data-look="classic" transform="translate(356.7421875, 228)"><rect class="basic label-container" style="" x="-88.25" y="-27" width="176.5" height="54"/><g class="label" style="" transform="translate(-58.25, -12)"><rect/><foreignObject width="116.5" height="24"><div xmlns="http://www.w3.org/1999/xhtml" style="display: table-cell; white-space: nowrap; line-height: 1.5; max-width: 200px; text-align: center;"><span class="nodeLabel"><p>web_lock z NVS</p></span></div></foreignObject></g></g><g class="node default" id="my-svg-flowchart-WIFI-5" data-look="classic" transform="translate(356.7421875, 344)"><rect class="basic label-container" style="" x="-130" y="-39" width="260" height="78"/><g class="label" style="" transform="translate(-100, -24)"><rect/><foreignObject width="200" height="48"><div xmlns="http://www.w3.org/1999/xhtml" style="display: table; white-space: break-spaces; line-height: 1.5; max-width: 200px; text-align: center; width: 200px;"><span class="nodeLabel"><p>wifi_init_apsta · AP+STA nebo STA-only dle NVS</p></span></div></foreignObject></g></g><g class="node default" id="my-svg-flowchart-READY-7" data-look="classic" transform="translate(356.7421875, 472)"><rect class="basic label-container" style="" x="-130" y="-39" width="260" height="78"/><g class="label" style="" transform="translate(-100, -24)"><rect/><foreignObject width="200" height="48"><div xmlns="http://www.w3.org/1999/xhtml" style="display: table; white-space: break-spaces; line-height: 1.5; max-width: 200px; text-align: center; width: 200px;"><span class="nodeLabel"><p>prodleva · volitelně wifi_connect_sta z NVS</p></span></div></foreignObject></g></g><g class="node default" id="my-svg-flowchart-HTTP-9" data-look="classic" transform="translate(356.7421875, 600)"><rect class="basic label-container" style="" x="-130" y="-39" width="260" height="78"/><g class="label" style="" transform="translate(-100, -24)"><rect/><foreignObject width="200" height="48"><div xmlns="http://www.w3.org/1999/xhtml" style="display: table; white-space: break-spaces; line-height: 1.5; max-width: 200px; text-align: center; width: 200px;"><span class="nodeLabel"><p>start_http_server — handler registrace</p></span></div></foreignObject></g></g><g class="node default" id="my-svg-flowchart-RUN-11" data-look="classic" transform="translate(356.7421875, 728)"><rect class="basic label-container" style="" x="-130" y="-39" width="260" height="78"/><g class="label" style="" transform="translate(-100, -24)"><rect/><foreignObject width="200" height="48"><div xmlns="http://www.w3.org/1999/xhtml" style="display: table; white-space: break-spaces; line-height: 1.5; max-width: 200px; text-align: center; width: 200px;"><span class="nodeLabel"><p>task_running — watchdog smyčka / retry HTTP</p></span></div></foreignObject></g></g></g></g></g><defs><filter id="my-svg-drop-shadow" height="130%" width="130%"><feDropShadow dx="4" dy="4" stdDeviation="0" flood-opacity="0.06" flood-color="#FFFFFF"/></filter></defs><defs><filter id="my-svg-drop-shadow-small" height="150%" width="150%"><feDropShadow dx="2" dy="2" stdDeviation="0" flood-opacity="0.06" flood-color="#FFFFFF"/></filter></defs><linearGradient id="my-svg-gradient" gradientUnits="objectBoundingBox" x1="0%" y1="0%" x2="100%" y2="0%"><stop offset="0%" stop-color="#cccccc" stop-opacity="1"/><stop offset="100%" stop-color="hsl(180, 0%, 18.3529411765%)" stop-opacity="1"/></linearGradient></svg>