<svg id="my-svg" width="100%" xmlns="http://www.w3.org/2000/svg" xmlns:xlink="http://www.w3.org/1999/xlink" class="flowchart" style="max-width: 341.359px; background-color: transparent;" viewBox="0 0 341.359375 736" role="graphics-document document" aria-roledescription="flowchart-v2"><style>#my-svg{font-size:16px;fill:#ccc;}@keyframes edge-animation-frame{from{stroke-dashoffset:0;}}@keyframes dash{to{stroke-dashoffset:0;}}#my-svg .edge-animation-slow{stroke-dasharray:9,5!important;stroke-dashoffset:900;animation:dash 50s linear infinite;stroke-linecap:round;}#my-svg .edge-animation-fast{stroke-dasharray:9,5!important;stroke-dashoffset:900;animation:dash 20s linear infinite;stroke-linecap:round;}#my-svg .error-icon{fill:#a44141;}#my-svg .error-text{fill:#ddd;stroke:#ddd;}#my-svg .edge-thickness-normal{stroke-width:1px;}#my-svg .edge-thickness-thick{stroke-width:3.5px;}#my-svg .edge-pattern-solid{stroke-dasharray:0;}#my-svg .edge-thickness-invisible{stroke-width:0;fill:none;}#my-svg .edge-pattern-dashed{stroke-dasharray:3;}#my-svg .edge-pattern-dotted{stroke-dasharray:2;}#my-svg .marker{fill:#94a3b8;stroke:#94a3b8;}#my-svg .marker.cross{stroke:#94a3b8;}#my-svg svg{font-size:16px;}#my-svg p{margin:0;}#my-svg .label{color:#ccc;}#my-svg .cluster-label text{fill:#f8fafc;}#my-svg .cluster-label span{color:#f8fafc;}#my-svg .cluster-label span p{background-color:transparent;}#my-svg .label text,#my-svg span{fill:#ccc;color:#ccc;}#my-svg .node rect,#my-svg .node circle,#my-svg .node ellipse,#my-svg .node polygon,#my-svg .node path{fill:#1f2020;stroke:#ccc;stroke-width:1px;}#my-svg .rough-node .label text,#my-svg .node .label text,#my-svg .image-shape .label,#my-svg .icon-shape .label{text-anchor:middle;}#my-svg .node .katex path{fill:#000;stroke:#000;stroke-width:1px;}#my-svg .rough-node .label,#my-svg .node .label,#my-svg .image-shape .label,#my-svg .icon-shape .label{text-align:center;}#my-svg .node.clickable{cursor:pointer;}#my-svg .root .anchor path{fill:#94a3b8!important;stroke-width:0;stroke:#94a3b8;}#my-svg .arrowheadPath{fill:lightgrey;}#my-svg .edgePath .path{stroke:#94a3b8;stroke-width:1px;}#my-svg .flowchart-link{stroke:#94a3b8;fill:none;}#my-svg .edgeLabel{background-color:#1e293b;text-align:center;}#my-svg .edgeLabel p{background-color:#1e293b;}#my-svg .edgeLabel rect{opacity:0.5;background-color:#1e293b;fill:#1e293b;}#my-svg .labelBkg{background-color:rgba(30, 41, 59, 0.5);}#my-svg .cluster rect{fill:#0f172a;stroke:#334155;stroke-width:1px;}#my-svg .cluster text{fill:#f8fafc;}#my-svg .cluster span{color:#f8fafc;}#my-svg div.mermaidTooltip{position:absolute;text-align:center;max-width:200px;padding:2px;font-size:12px;background:hsl(20, 1.5873015873%, 12.3529411765%);border:1px solid rgba(255, 255, 255, 0.25);border-radius:2px;pointer-events:none;z-index:100;}#my-svg .flowchartTitleText{text-anchor:middle;font-size:18px;fill:#ccc;}#my-svg rect.text{fill:none;stroke-width:0;}#my-svg .icon-shape,#my-svg .image-shape{background-color:#1e293b;text-align:center;}#my-svg .icon-shape p,#my-svg .image-shape p{background-color:#1e293b;padding:2px;}#my-svg .icon-shape .label rect,#my-svg .image-shape .label rect{opacity:0.5;background-color:#1e293b;fill:#1e293b;}#my-svg .label-icon{display:inline-block;height:1em;overflow:visible;vertical-align:-0.125em;}#my-svg .node .label-icon path{fill:currentColor;stroke:revert;stroke-width:revert;}#my-svg .node .neo-node{stroke:#ccc;}#my-svg [data-look="neo"].node rect,#my-svg [data-look="neo"].cluster rect,#my-svg [data-look="neo"].node polygon{stroke:url(#my-svg-gradient);filter:drop-shadow( 1px 2px 2px rgba(185,185,185,1));}#my-svg [data-look="neo"].node path{stroke:url(#my-svg-gradient);stroke-width:1px;}#my-svg [data-look="neo"].node .outer-path{filter:drop-shadow( 1px 2px 2px rgba(185,185,185,1));}#my-svg [data-look="neo"].node .neo-line path{stroke:#ccc;filter:none;}#my-svg [data-look="neo"].node circle{stroke:url(#my-svg-gradient);filter:drop-shadow( 1px 2px 2px rgba(185,185,185,1));}#my-svg [data-look="neo"].node circle .state-start{fill:#000000;}#my-svg [data-look="neo"].icon-shape .icon{fill:url(#my-svg-gradient);filter:drop-shadow( 1px 2px 2px rgba(185,185,185,1));}#my-svg [data-look="neo"].icon-shape .icon-neo path{stroke:url(#my-svg-gradient);filter:drop-shadow( 1px 2px 2px rgba(185,185,185,1));}#my-svg :root{--mermaid-font-family:"trebuchet ms",verdana,arial,sans-serif;}</style><g><marker id="my-svg_flowchart-v2-pointEnd" class="marker flowchart-v2" viewBox="0 0 10 10" refX="5" refY="5" markerUnits="userSpaceOnUse" markerWidth="8" markerHeight="8" orient="auto"><path d="M 0 0 L 10 5 L 0 10 z" class="arrowMarkerPath" style="stroke-width: 1; stroke-dasharray: 1, 0;"/></marker><marker id="my-svg_flowchart-v2-pointStart" class="marker flowchart-v2" viewBox="0 0 10 10" refX="4.5" refY="5" markerUnits="userSpaceOnUse" markerWidth="8" markerHeight="8" orient="auto"><path d="M 0 5 L 10 10 L 10 0 z" class="arrowMarkerPath" style="stroke-width: 1; stroke-dasharray: 1, 0;"/></marker><marker id="my-svg_flowchart-v2-pointEnd-margin" class="marker flowchart-v2" viewBox="0 0 11.5 14" refX="11.5" refY="7" markerUnits="userSpaceOnUse" markerWidth="10.5" markerHeight="14" orient="auto"><path d="M 0 0 L 11.5 7 L 0 14 z" class="arrowMarkerPath" style="stroke-width: 0; stroke-dasharray: 1, 0;"/></marker><marker id="my-svg_flowchart-v2-pointStart-margin" class="marker flowchart-v2" viewBox="0 0 11.5 14" refX="1" refY="7" markerUnits="userSpaceOnUse" markerWidth="11.5" markerHeight="14" orient="auto"><polygon points="0,7 11.5,14 11.5,0" class="arrowMarkerPath" style="stroke-width: 0; stroke-dasharray: 1, 0;"/></marker><marker id="my-svg_flowchart-v2-circleEnd" class="marker flowchart-v2" viewBox="0 0 10 10" refX="11" refY="5" markerUnits="userSpaceOnUse" markerWidth="11" markerHeight="11" orient="auto"><circle cx="5" cy="5" r="5" class="arrowMarkerPath" style="stroke-width: 1; stroke-dasharray: 1, 0;"/></marker><marker id="my-svg_flowchart-v2-circleStart" class="marker flowchart-v2" viewBox="0 0 10 10" refX="-1" refY="5" markerUnits="userSpaceOnUse" markerWidth="11" markerHeight="11" orient="auto"><circle cx="5" cy="5" r="5" class="arrowMarkerPath" style="stroke-width: 1; stroke-dasharray: 1, 0;"/></marker><marker id="my-svg_flowchart-v2-circleEnd-margin" class="marker flowchart-v2" viewBox="0 0 10 10" refY="5" refX="12.25" markerUnits="userSpaceOnUse" markerWidth="14" markerHeight="14" orient="auto"><circle cx="5" cy="5" r="5" class="arrowMarkerPath" style="stroke-width: 0; stroke-dasharray: 1, 0;"/></marker><marker id="my-svg_flowchart-v2-circleStart-margin" class="marker flowchart-v2" viewBox="0 0 10 10" refX="-2" refY="5" markerUnits="userSpaceOnUse" markerWidth="14" markerHeight="14" orient="auto"><circle cx="5" cy="5" r="5" class="arrowMarkerPath" style="stroke-width: 0; stroke-dasharray: 1, 0;"/></marker><marker id="my-svg_flowchart-v2-crossEnd" class="marker cross flowchart-v2" viewBox="0 0 11 11" refX="12" refY="5.2" markerUnits="userSpaceOnUse" markerWidth="11" markerHeight="11" orient="auto"><path d="M 1,1 l 9,9 M 10,1 l -9,9" class="arrowMarkerPath" style="stroke-width: 2; stroke-dasharray: 1, 0;"/></marker><marker id="my-svg_flowchart-v2-crossStart" class="marker cross flowchart-v2" viewBox="0 0 11 11" refX="-1" refY="5.2" markerUnits="userSpaceOnUse" markerWidth="11" markerHeight="11" orient="auto"><path d="M 1,1 l 9,9 M 10,1 l -9,9" class="arrowMarkerPath" style="stroke-width: 2; stroke-dasharray: 1, 0;"/></marker><marker id="my-svg_flowchart-v2-crossEnd-margin" class="marker cross flowchart-v2" viewBox="0 0 15 15" refX="17.7" refY="7.5" markerUnits="userSpaceOnUse" markerWidth="12" markerHeight="12" orient="auto"><path d="M 1,1 L 14,14 M 1,14 L 14,1" class="arrowMarkerPath" style="stroke-width: 2.5;"/></marker><marker id="my-svg_flowchart-v2-crossStart-margin" class="marker cross flowchart-v2" viewBox="0 0 15 15" refX="-3.5" refY="7.5" markerUnits="userSpaceOnUse" markerWidth="12" markerHeight="12" orient="auto"><path d="M 1,1 L 14,14 M 1,14 L 14,1" class="arrowMarkerPath" style="stroke-width: 2.5; stroke-dasharray: 1, 0;"/></marker><g class="root"><g class="clusters"/><g class="edgePaths"><path d="M221.75,47.5L221.667,51.583C221.583,55.667,221.417,63.833,221.333,71.417C221.25,79,221.25,86,221.25,89.5L221.25,93" id="my-svg-L_START_REG_0" class="edge-thickness-normal edge-pattern-solid edge-thickness-normal edge-pattern-solid flowchart-link" style=";" data-edge="true" data-et="edge" data-id="L_START_REG_0" data-points="W3sieCI6MjIxLjc1LCJ5Ijo0Ny41MDAwMDAwMDAwMDAwMX0seyJ4IjoyMjEuMjUsInkiOjcyfSx7IngiOjIyMS4yNSwieSI6OTd9XQ==" data-look="classic" marker-end="url(#my-svg_flowchart-v2-pointEnd)"/><path d="M221.25,151L221.25,155.167C221.25,159.333,221.25,167.667,221.32,175.417C221.391,183.167,221.531,190.334,221.601,193.917L221.672,197.501" id="my-svg-L_REG_LOOP_0" class="edge-thickness-normal edge-pattern-solid edge-thickness-normal edge-pattern-solid flowchart-link" style=";" data-edge="true" data-et="edge" data-id="L_REG_LOOP_0" data-points="W3sieCI6MjIxLjI1LCJ5IjoxNTF9LHsieCI6MjIxLjI1LCJ5IjoxNzZ9LHsieCI6MjIxLjc1LCJ5IjoyMDEuNX1d" data-look="classic" marker-end="url(#my-svg_flowchart-v2-pointEnd)"/><path d="M195.54,235.095L186.033,240.079C176.526,245.063,157.513,255.032,148.007,263.516C138.5,272,138.5,279,138.5,282.5L138.5,286" id="my-svg-L_LOOP_WDT_0" class="edge-thickness-normal edge-pattern-solid edge-thickness-normal edge-pattern-solid flowchart-link" style=";" data-edge="true" data-et="edge" data-id="L_LOOP_WDT_0" data-points="W3sieCI6MTk1LjUzOTY3NjMzOTI4NTcsInkiOjIzNS4wOTQ5Nzc2Nzg1NzE0NH0seyJ4IjoxMzguNSwieSI6MjY1fSx7IngiOjEzOC41LCJ5IjoyOTB9XQ==" data-look="classic" marker-end="url(#my-svg_flowchart-v2-pointEnd)"/><path d="M138.5,344L138.5,348.167C138.5,352.333,138.5,360.667,138.5,368.333C138.5,376,138.5,383,138.5,386.5L138.5,390" id="my-svg-L_WDT_CMD_0" class="edge-thickness-normal edge-pattern-solid edge-thickness-normal edge-pattern-solid flowchart-link" style=";" data-edge="true" data-et="edge" data-id="L_WDT_CMD_0" data-points="W3sieCI6MTM4LjUsInkiOjM0NH0seyJ4IjoxMzguNSwieSI6MzY5fSx7IngiOjEzOC41LCJ5IjozOTR9XQ==" data-look="classic" marker-end="url(#my-svg_flowchart-v2-pointEnd)"/><path d="M138.5,472L138.5,476.167C138.5,480.333,138.5,488.667,138.5,496.333C138.5,504,138.5,511,138.5,514.5L138.5,518" id="my-svg-L_CMD_EVT_0" class="edge-thickness-normal edge-pattern-solid edge-thickness-normal edge-pattern-solid flowchart-link" style=";" data-edge="true" data-et="edge" data-id="L_CMD_EVT_0" data-points="W3sieCI6MTM4LjUsInkiOjQ3Mn0seyJ4IjoxMzguNSwieSI6NDk3fSx7IngiOjEzOC41LCJ5Ijo1MjJ9XQ==" data-look="classic" marker-end="url(#my-svg_flowchart-v2-pointEnd)"/><path d="M138.5,624L138.5,628.167C138.5,632.333,138.5,640.667,144.566,648.645C150.632,656.624,162.765,664.248,168.831,668.06L174.897,671.872" id="my-svg-L_EVT_DLY_0" class="edge-thickness-normal edge-pattern-solid edge-thickness-normal edge-pattern-solid flowchart-link" style=";" data-edge="true" data-et="edge" data-id="L_EVT_DLY_0" data-points="W3sieCI6MTM4LjUsInkiOjYyNH0seyJ4IjoxMzguNSwieSI6NjQ5fSx7IngiOjE3OC4yODM2NTM4NDYxNTM4NCwieSI6Njc0fV0=" data-look="classic" marker-end="url(#my-svg_flowchart-v2-pointEnd)"/><path d="M264.216,674L270.847,669.833C277.478,665.667,290.739,657.333,297.369,640.5C304,623.667,304,598.333,304,573C304,547.667,304,522.333,304,499C304,475.667,304,454.333,304,433C304,411.667,304,390.333,304,371C304,351.667,304,334.333,304,317C304,299.667,304,282.333,295.248,268.996C286.496,255.659,268.993,246.319,260.241,241.648L251.489,236.978" id="my-svg-L_DLY_LOOP_0" class="edge-thickness-normal edge-pattern-solid edge-thickness-normal edge-pattern-solid flowchart-link" style=";" data-edge="true" data-et="edge" data-id="L_DLY_LOOP_0" data-points="W3sieCI6MjY0LjIxNjM0NjE1Mzg0NjEzLCJ5Ijo2NzR9LHsieCI6MzA0LCJ5Ijo2NDl9LHsieCI6MzA0LCJ5Ijo1NzN9LHsieCI6MzA0LCJ5Ijo0OTd9LHsieCI6MzA0LCJ5Ijo0MzN9LHsieCI6MzA0LCJ5IjozNjl9LHsieCI6MzA0LCJ5IjozMTd9LHsieCI6MzA0LCJ5IjoyNjV9LHsieCI6MjQ3Ljk2MDMyMzY2MDcxNDMsInkiOjIzNS4wOTQ5Nzc2Nzg1NzE0NH1d" data-look="classic" marker-end="url(#my-svg_flowchart-v2-pointEnd)"/></g><g class="edgeLabels"><g class="edgeLabel"><g class="label" data-id="L_START_REG_0" transform="translate(0, 0)"><foreignObject width="0" height="0"><div xmlns="http://www.w3.org/1999/xhtml" class="labelBkg" style="display: table-cell; white-space: nowrap; line-height: 1.5; max-width: 200px; text-align: center;"><span class="edgeLabel"></span></div></foreignObject></g></g><g class="edgeLabel"><g class="label" data-id="L_REG_LOOP_0" transform="translate(0, 0)"><foreignObject width="0" height="0"><div xmlns="http://www.w3.org/1999/xhtml" class="labelBkg" style="display: table-cell; white-space: nowrap; line-height: 1.5; max-width: 200px; text-align: center;"><span class="edgeLabel"></span></div></foreignObject></g></g><g class="edgeLabel"><g class="label" data-id="L_LOOP_WDT_0" transform="translate(0, 0)"><foreignObject width="0" height="0"><div xmlns="http://www.w3.org/1999/xhtml" class="labelBkg" style="display: table-cell; white-space: nowrap; line-height: 1.5; max-width: 200px; text-align: center;"><span class="edgeLabel"></span></div></foreignObject></g></g><g class="edgeLabel"><g class="label" data-id="L_WDT_CMD_0" transform="translate(0, 0)"><foreignObject width="0" height="0"><div xmlns="http://www.w3.org/1999/xhtml" class="labelBkg" style="display: table-cell; white-space: nowrap; line-height: 1.5; max-width: 200px; text-align: center;"><span class="edgeLabel"></span></div></foreignObject></g></g><g class="edgeLabel"><g class="label" data-id="L_CMD_EVT_0" transform="translate(0, 0)"><foreignObject width="0" height="0"><div xmlns="http://www.w3.org/1999/xhtml" class="labelBkg" style="display: table-cell; white-space: nowrap; line-height: 1.5; max-width: 200px; text-align: center;"><span class="edgeLabel"></span></div></foreignObject></g></g><g class="edgeLabel"><g class="label" data-id="L_EVT_DLY_0" transform="translate(0, 0)"><foreignObject width="0" height="0"><div xmlns="http://www.w3.org/1999/xhtml" class="labelBkg" style="display: table-cell; white-space: nowrap; line-height: 1.5; max-width: 200px; text-align: center;"><span class="edgeLabel"></span></div></foreignObject></g></g><g class="edgeLabel"><g class="label" data-id="L_DLY_LOOP_0" transform="translate(0, 0)"><foreignObject width="0" height="0"><div xmlns="http://www.w3.org/1999/xhtml" class="labelBkg" style="display: table-cell; white-space: nowrap; line-height: 1.5; max-width: 200px; text-align: center;"><span class="edgeLabel"></span></div></foreignObject></g></g></g><g class="nodes"><g class="node default" id="my-svg-flowchart-START-0" data-look="classic" transform="translate(221.25, 27.5)"><g class="basic label-container outer-path"><path d="M-54.25 -19.5 C-29.212362776168558 -19.5, -4.174725552337115 -19.5, 54.25 -19.5 C54.25 -19.5, 54.25 -19.5, 54.25 -19.5 C54.5105158935719 -19.491645762356576, 54.7710317871438 -19.48329152471315, 55.4993692896239 -19.45993515863156 C55.93861477893332 -19.41756167454787, 56.377860268242735 -19.37518819046418, 56.743604652847864 -19.3399052695533 C57.10124479021412 -19.282084785684614, 57.45888492758037 -19.224264301815925, 57.97759325967676 -19.140403561325776 C58.44110375139715 -19.034610316279228, 58.904614243117535 -18.92881707123268, 59.19626438623539 -18.862249829261074 C59.46251885678356 -18.783226900000614, 59.72877332733173 -18.704203970740153, 60.394610251460605 -18.50658706670804 C60.639970303421485 -18.416292299502977, 60.885330355382365 -18.32599753229792, 61.5677065951478 -18.074876768247425 C61.82190579222872 -17.962350324250963, 62.07610498930965 -17.849823880254505, 62.71073291279238 -17.568892924097174 C63.08689397724484 -17.372649937714986, 63.4630550416973 -17.176406951332797, 63.81899226407678 -16.990714730406097 C64.06462257120734 -16.84181219473965, 64.31025287833788 -16.6929096590732, 64.8879305736057 -16.342718045390892 C65.26252957191677 -16.081414000298366, 65.63712857022784 -15.82010995520584, 65.91315534457871 -15.627565626425154 C66.15240272025292 -15.436772210965023, 66.39165009592712 -15.245978795504893, 66.89045370850187 -14.848196188198123 C67.24672977118819 -14.524635694614465, 67.60300583387452 -14.201075201030807, 67.81580973676799 -14.007812326905688 C68.00043143359154 -13.817175267212159, 68.1850531304151 -13.62653820751863, 68.68542094296865 -13.10986736009568 C68.93748544389925 -12.813778054426184, 69.18954994482984 -12.517688748756685, 69.49571390812658 -12.158051136245305 C69.74132502139312 -11.828954620100856, 69.98693613465969 -11.499858103956406, 70.24335896464063 -11.156274872382312 C70.41753195830252 -10.888698382120166, 70.5917049519644 -10.62112189185802, 70.92528387860425 -10.108655082055241 C71.15433350098363 -9.701954283731334, 71.38338312336302 -9.295253485407429, 71.5386864742735 -9.019496659696287 C71.71164420833063 -8.660346224223991, 71.88460194238776 -8.301195788751695, 72.08104614880834 -7.893275190886684 C72.23839295482689 -7.504625537927312, 72.39573976084544 -7.11597588496794, 72.55013422997033 -6.734618561215508 C72.68389684823622 -6.331746867177629, 72.8176594665021 -5.92887517313975, 72.94402313421489 -5.548287939305138 C73.0682411692047 -5.074590735452095, 73.19245920419449 -4.600893531599053, 73.26109428754556 -4.339158212148133 C73.35037313272363 -3.8807302112493045, 73.43965197790172 -3.422302210350476, 73.50004477658177 -3.1121979531509023 C73.55734297015529 -2.667804478602831, 73.6146411637288 -2.2234110040547597, 73.65989270250937 -1.872449005199798 C73.67998891238057 -1.559434315087179, 73.70008512225178 -1.24641962497456, 73.73998121591342 -0.6250057626472757 C73.73998121591342 -0.1481662861341823, 73.73998121591342 0.3286731903789111, 73.73998121591342 0.625005762647271 C73.71720405055865 0.979778498444686, 73.69442688520388 1.334551234242101, 73.65989270250937 1.8724490051997846 C73.60122080178581 2.3274966811343774, 73.54254890106226 2.78254435706897, 73.50004477658177 3.1121979531508885 C73.42318214752626 3.5068713084285386, 73.34631951847075 3.901544663706189, 73.26109428754556 4.339158212148129 C73.1751957442891 4.666726586249157, 73.08929720103264 4.994294960350186, 72.94402313421489 5.548287939305125 C72.81304256084309 5.94278055738068, 72.68206198747129 6.337273175456234, 72.55013422997033 6.734618561215495 C72.4307696109446 7.029451477966955, 72.31140499191888 7.324284394718414, 72.08104614880834 7.893275190886679 C71.90724949775297 8.25416765545576, 71.73345284669762 8.61506012002484, 71.5386864742735 9.019496659696284 C71.35410224553463 9.347244649002104, 71.16951801679576 9.674992638307922, 70.92528387860425 10.108655082055236 C70.77352258465437 10.341801183175727, 70.62176129070448 10.574947284296217, 70.24335896464065 11.156274872382301 C70.0097340683178 11.469310949789026, 69.77610917199493 11.782347027195751, 69.49571390812659 12.158051136245302 C69.3031422865516 12.384256720582961, 69.11057066497662 12.61046230492062, 68.68542094296866 13.10986736009567 C68.37848719109022 13.426801658639848, 68.07155343921177 13.743735957184025, 67.81580973676799 14.007812326905684 C67.46231616499968 14.328845835858287, 67.10882259323137 14.64987934481089, 66.8904537085019 14.848196188198111 C66.65848173502066 15.03318766401593, 66.42650976153942 15.218179139833747, 65.91315534457871 15.627565626425152 C65.70329059210067 15.773958192855124, 65.49342583962262 15.920350759285098, 64.8879305736057 16.34271804539089 C64.47136471749216 16.59524271537961, 64.05479886137863 16.847767385368332, 63.81899226407678 16.990714730406093 C63.50848682042085 17.152705221473166, 63.19798137676491 17.314695712540242, 62.71073291279239 17.56889292409717 C62.44548991313661 17.686308131890755, 62.18024691348083 17.80372333968434, 61.567706595147804 18.07487676824742 C61.297546938027345 18.174298019396243, 61.027387280906886 18.273719270545065, 60.39461025146062 18.506587066708033 C60.06685024814621 18.603864515244386, 59.7390902448318 18.70114196378074, 59.19626438623541 18.86224982926107 C58.920586885219095 18.92517141990423, 58.64490938420277 18.988093010547388, 57.977593259676766 19.140403561325773 C57.533534052765916 19.21219561016854, 57.08947484585506 19.283987659011302, 56.74360465284788 19.3399052695533 C56.40042431201488 19.373011464298713, 56.05724397118188 19.406117659044128, 55.4993692896239 19.45993515863156 C55.181970261231044 19.470113527692387, 54.86457123283819 19.480291896753215, 54.25000000000001 19.5 C54.25000000000001 19.5, 54.25 19.5, 54.25 19.5 C26.964124108199915 19.5, -0.3217517836001704 19.5, -54.24999999999999 19.5 C-54.511626272699104 19.49161015465919, -54.77325254539822 19.483220309318373, -55.49936928962389 19.45993515863156 C-55.824557644726696 19.42856462911101, -56.1497459998295 19.397194099590457, -56.74360465284787 19.3399052695533 C-57.228846758646434 19.26145508899652, -57.714088864445 19.183004908439738, -57.97759325967676 19.140403561325773 C-58.32374943351804 19.06139567352664, -58.66990560735932 18.982387785727504, -59.196264386235384 18.862249829261074 C-59.67063590184276 18.721458853455704, -60.14500741745013 18.580667877650335, -60.39461025146059 18.506587066708043 C-60.77638493661899 18.36609045348325, -61.158159621777386 18.22559384025846, -61.5677065951478 18.074876768247425 C-61.886312247549895 17.933839497029897, -62.20491789995199 17.79280222581237, -62.71073291279238 17.568892924097174 C-63.05718201222986 17.388150650831882, -63.40363111166734 17.20740837756659, -63.81899226407678 16.990714730406097 C-64.20347168027783 16.75764104885318, -64.58795109647886 16.52456736730026, -64.88793057360569 16.3427180453909 C-65.21881587549643 16.111906782585773, -65.54970117738718 15.88109551978065, -65.91315534457871 15.627565626425156 C-66.2062867810449 15.393801106398506, -66.49941821751106 15.160036586371856, -66.89045370850187 14.848196188198125 C-67.1932107869203 14.57324022009183, -67.49596786533876 14.298284251985532, -67.81580973676797 14.007812326905697 C-68.15439688602717 13.658193296773636, -68.49298403528637 13.308574266641577, -68.68542094296865 13.109867360095677 C-68.98771990603606 12.754769796778403, -69.29001886910348 12.399672233461128, -69.49571390812658 12.158051136245307 C-69.755252860665 11.810292584328817, -70.01479181320342 11.462534032412327, -70.24335896464063 11.156274872382316 C-70.46076770918806 10.822276658335248, -70.67817645373549 10.48827844428818, -70.92528387860425 10.108655082055249 C-71.12844733432524 9.747917793891913, -71.33161079004624 9.387180505728578, -71.5386864742735 9.019496659696289 C-71.71395552195926 8.655546732019959, -71.88922456964501 8.291596804343628, -72.08104614880834 7.893275190886686 C-72.22876213468456 7.5284138498781275, -72.37647812056078 7.16355250886957, -72.55013422997033 6.73461856121551 C-72.64063487780868 6.462045029246447, -72.73113552564703 6.189471497277383, -72.94402313421489 5.5482879393051325 C-73.01928869907587 5.261267720188027, -73.09455426393686 4.974247501070922, -73.26109428754556 4.339158212148136 C-73.34695963395356 3.89825780599042, -73.43282498036157 3.4573573998327034, -73.50004477658177 3.112197953150904 C-73.54495686009199 2.763868702339698, -73.58986894360221 2.4155394515284914, -73.65989270250937 1.872449005199809 C-73.68586678364717 1.4678817255775278, -73.71184086478499 1.0633144459552466, -73.73998121591342 0.6250057626472781 C-73.73998121591342 0.23337001119052414, -73.73998121591342 -0.15826574026622986, -73.73998121591342 -0.6250057626472687 C-73.71629254531666 -0.9939759283425347, -73.6926038747199 -1.3629460940378006, -73.65989270250937 -1.8724490051997822 C-73.6270524883114 -2.1271512214854122, -73.59421227411343 -2.3818534377710425, -73.50004477658177 -3.112197953150895 C-73.44598000108721 -3.389809148721184, -73.39191522559263 -3.6674203442914726, -73.26109428754556 -4.339158212148126 C-73.15254531660038 -4.75310248378369, -73.0439963456552 -5.1670467554192525, -72.94402313421489 -5.548287939305123 C-72.81055334681919 -5.950277673418258, -72.67708355942348 -6.352267407531393, -72.55013422997033 -6.734618561215485 C-72.43058845272242 -7.029898942278183, -72.31104267547451 -7.32517932334088, -72.08104614880834 -7.893275190886676 C-71.94130494933604 -8.183450781573592, -71.80156374986375 -8.473626372260508, -71.5386864742735 -9.019496659696282 C-71.35259687845812 -9.34991758068141, -71.16650728264273 -9.680338501666538, -70.92528387860425 -10.108655082055243 C-70.71046844456463 -10.438669274760949, -70.495653010525 -10.768683467466655, -70.24335896464063 -11.156274872382308 C-69.9478127495998 -11.552279875722942, -69.65226653455898 -11.948284879063575, -69.49571390812659 -12.158051136245302 C-69.25568594713451 -12.4400016372045, -69.01565798614241 -12.721952138163696, -68.68542094296866 -13.10986736009567 C-68.45352310217406 -13.349320919882908, -68.22162526137944 -13.588774479670146, -67.81580973676799 -14.007812326905677 C-67.62688406150271 -14.179389626482156, -67.43795838623744 -14.350966926058636, -66.8904537085019 -14.848196188198107 C-66.53167077847309 -15.134316027281344, -66.17288784844426 -15.420435866364578, -65.91315534457871 -15.627565626425149 C-65.61444019057576 -15.835936386687006, -65.31572503657281 -16.044307146948864, -64.88793057360571 -16.342718045390885 C-64.5560007178182 -16.54393587460563, -64.22407086203067 -16.74515370382037, -63.81899226407679 -16.99071473040609 C-63.44914860081952 -17.183661932631235, -63.07930493756225 -17.376609134856384, -62.71073291279239 -17.56889292409717 C-62.425791152102526 -17.69502818905756, -62.140849391412665 -17.82116345401795, -61.567706595147804 -18.07487676824742 C-61.30437170429139 -18.171786442323626, -61.04103681343498 -18.268696116399834, -60.39461025146062 -18.506587066708033 C-59.99096740655103 -18.62638614431267, -59.587324561641445 -18.746185221917305, -59.19626438623541 -18.862249829261067 C-58.80194820822437 -18.952249923738552, -58.407632030213314 -19.04225001821604, -57.977593259676766 -19.140403561325773 C-57.7141394732242 -19.182996726404795, -57.45068568677163 -19.22558989148382, -56.74360465284788 -19.3399052695533 C-56.47766933674724 -19.365559729663516, -56.21173402064661 -19.391214189773734, -55.4993692896239 -19.45993515863156 C-55.06770783518981 -19.47377770129721, -54.63604638075572 -19.487620243962862, -54.25000000000001 -19.5 C-54.25000000000001 -19.5, -54.25 -19.5, -54.25 -19.5" stroke="none" stroke-width="0" fill="#1f2020" style=""/><path d="M-54.25 -19.5 C-15.245872212680062 -19.5, 23.758255574639875 -19.5, 54.25 -19.5 M-54.25 -19.5 C-15.494159373297833 -19.5, 23.261681253404333 -19.5, 54.25 -19.5 M54.25 -19.5 C54.25 -19.5, 54.25 -19.5, 54.25 -19.5 M54.25 -19.5 C54.25 -19.5, 54.25 -19.5, 54.25 -19.5 M54.25 -19.5 C54.67433691287523 -19.486392341125786, 55.098673825750474 -19.472784682251575, 55.4993692896239 -19.45993515863156 M54.25 -19.5 C54.640162916253644 -19.48748823468179, 55.03032583250729 -19.474976469363583, 55.4993692896239 -19.45993515863156 M55.4993692896239 -19.45993515863156 C55.83914036053843 -19.427157852054933, 56.17891143145296 -19.394380545478306, 56.743604652847864 -19.3399052695533 M55.4993692896239 -19.45993515863156 C55.81529527586592 -19.42945815869538, 56.131221262107935 -19.3989811587592, 56.743604652847864 -19.3399052695533 M56.743604652847864 -19.3399052695533 C57.170648410386 -19.270864146608336, 57.597692167924144 -19.20182302366337, 57.97759325967676 -19.140403561325776 M56.743604652847864 -19.3399052695533 C57.13980123977006 -19.27585127793014, 57.535997826692245 -19.211797286306982, 57.97759325967676 -19.140403561325776 M57.97759325967676 -19.140403561325776 C58.3828695637053 -19.047901889606305, 58.78814586773383 -18.955400217886833, 59.19626438623539 -18.862249829261074 M57.97759325967676 -19.140403561325776 C58.300054363189005 -19.06680391870446, 58.62251546670125 -18.99320427608314, 59.19626438623539 -18.862249829261074 M59.19626438623539 -18.862249829261074 C59.64075166491672 -18.730328338109793, 60.08523894359806 -18.59840684695851, 60.394610251460605 -18.50658706670804 M59.19626438623539 -18.862249829261074 C59.633649542430334 -18.732436210783952, 60.071034698625276 -18.60262259230683, 60.394610251460605 -18.50658706670804 M60.394610251460605 -18.50658706670804 C60.82815920525925 -18.34703704402754, 61.261708159057896 -18.187487021347046, 61.5677065951478 -18.074876768247425 M60.394610251460605 -18.50658706670804 C60.724216726835124 -18.385288836921358, 61.053823202209635 -18.26399060713468, 61.5677065951478 -18.074876768247425 M61.5677065951478 -18.074876768247425 C61.84400676736801 -17.952566878158937, 62.12030693958822 -17.83025698807045, 62.71073291279238 -17.568892924097174 M61.5677065951478 -18.074876768247425 C61.907827004364904 -17.924315552400476, 62.24794741358201 -17.773754336553527, 62.71073291279238 -17.568892924097174 M62.71073291279238 -17.568892924097174 C62.99144351134611 -17.42244638463541, 63.27215410989985 -17.275999845173647, 63.81899226407678 -16.990714730406097 M62.71073291279238 -17.568892924097174 C63.10187894201801 -17.36483229119115, 63.49302497124365 -17.160771658285128, 63.81899226407678 -16.990714730406097 M63.81899226407678 -16.990714730406097 C64.15506597317511 -16.786984872962353, 64.49113968227344 -16.583255015518606, 64.8879305736057 -16.342718045390892 M63.81899226407678 -16.990714730406097 C64.21588258168211 -16.75011748748735, 64.61277289928744 -16.509520244568606, 64.8879305736057 -16.342718045390892 M64.8879305736057 -16.342718045390892 C65.13660723125565 -16.169251974053292, 65.3852838889056 -15.995785902715694, 65.91315534457871 -15.627565626425154 M64.8879305736057 -16.342718045390892 C65.10441038680354 -16.19171109896416, 65.32089020000136 -16.04070415253743, 65.91315534457871 -15.627565626425154 M65.91315534457871 -15.627565626425154 C66.18398827387756 -15.41158357247625, 66.45482120317641 -15.195601518527345, 66.89045370850187 -14.848196188198123 M65.91315534457871 -15.627565626425154 C66.1277794033073 -15.456408650975167, 66.34240346203589 -15.285251675525181, 66.89045370850187 -14.848196188198123 M66.89045370850187 -14.848196188198123 C67.23873612654201 -14.531895311181879, 67.58701854458215 -14.215594434165633, 67.81580973676799 -14.007812326905688 M66.89045370850187 -14.848196188198123 C67.24796204421355 -14.523516576856991, 67.60547037992524 -14.198836965515858, 67.81580973676799 -14.007812326905688 M67.81580973676799 -14.007812326905688 C68.09515800262317 -13.719362307491062, 68.37450626847833 -13.430912288076437, 68.68542094296865 -13.10986736009568 M67.81580973676799 -14.007812326905688 C68.13170721783082 -13.681622242042781, 68.44760469889364 -13.355432157179875, 68.68542094296865 -13.10986736009568 M68.68542094296865 -13.10986736009568 C68.9948639144887 -12.74637803794433, 69.30430688600876 -12.38288871579298, 69.49571390812658 -12.158051136245305 M68.68542094296865 -13.10986736009568 C68.86309627372546 -12.901159806576002, 69.04077160448227 -12.692452253056322, 69.49571390812658 -12.158051136245305 M69.49571390812658 -12.158051136245305 C69.69427276371356 -11.89200035884262, 69.89283161930054 -11.625949581439935, 70.24335896464063 -11.156274872382312 M69.49571390812658 -12.158051136245305 C69.7530136444442 -11.813292930067899, 70.0103133807618 -11.46853472389049, 70.24335896464063 -11.156274872382312 M70.24335896464063 -11.156274872382312 C70.43202872718406 -10.86642745219061, 70.62069848972749 -10.576580031998907, 70.92528387860425 -10.108655082055241 M70.24335896464063 -11.156274872382312 C70.49523470727429 -10.769326093589898, 70.74711044990794 -10.382377314797484, 70.92528387860425 -10.108655082055241 M70.92528387860425 -10.108655082055241 C71.06543896472516 -9.85979553440615, 71.20559405084606 -9.610935986757058, 71.5386864742735 -9.019496659696287 M70.92528387860425 -10.108655082055241 C71.14174762248376 -9.72430178546624, 71.35821136636328 -9.339948488877237, 71.5386864742735 -9.019496659696287 M71.5386864742735 -9.019496659696287 C71.71658883253085 -8.650078606274251, 71.89449119078817 -8.280660552852215, 72.08104614880834 -7.893275190886684 M71.5386864742735 -9.019496659696287 C71.68474713022984 -8.716198582405582, 71.83080778618616 -8.412900505114877, 72.08104614880834 -7.893275190886684 M72.08104614880834 -7.893275190886684 C72.22998150502455 -7.525401981563429, 72.37891686124075 -7.157528772240174, 72.55013422997033 -6.734618561215508 M72.08104614880834 -7.893275190886684 C72.20176842537342 -7.595088833764525, 72.32249070193848 -7.296902476642365, 72.55013422997033 -6.734618561215508 M72.55013422997033 -6.734618561215508 C72.68519989103838 -6.327822309869166, 72.82026555210645 -5.921026058522823, 72.94402313421489 -5.548287939305138 M72.55013422997033 -6.734618561215508 C72.6350203515913 -6.478955087659941, 72.71990647321226 -6.223291614104372, 72.94402313421489 -5.548287939305138 M72.94402313421489 -5.548287939305138 C73.0405547064698 -5.180171217249049, 73.13708627872474 -4.81205449519296, 73.26109428754556 -4.339158212148133 M72.94402313421489 -5.548287939305138 C73.00966859724889 -5.297953337832826, 73.07531406028289 -5.047618736360514, 73.26109428754556 -4.339158212148133 M73.26109428754556 -4.339158212148133 C73.3525639769842 -3.8694806890064486, 73.44403366642283 -3.399803165864764, 73.50004477658177 -3.1121979531509023 M73.26109428754556 -4.339158212148133 C73.35453867394098 -3.859341037485742, 73.44798306033638 -3.3795238628233513, 73.50004477658177 -3.1121979531509023 M73.50004477658177 -3.1121979531509023 C73.54012758654143 -2.801323594349903, 73.58021039650109 -2.490449235548904, 73.65989270250937 -1.872449005199798 M73.50004477658177 -3.1121979531509023 C73.54988346401217 -2.72565893520282, 73.59972215144255 -2.3391199172547386, 73.65989270250937 -1.872449005199798 M73.65989270250937 -1.872449005199798 C73.68441491451105 -1.4904957593002774, 73.70893712651274 -1.108542513400757, 73.73998121591342 -0.6250057626472757 M73.65989270250937 -1.872449005199798 C73.68363699872191 -1.502612425638529, 73.70738129493445 -1.13277584607726, 73.73998121591342 -0.6250057626472757 M73.73998121591342 -0.6250057626472757 C73.73998121591342 -0.31677855179300457, 73.73998121591342 -0.008551340938733443, 73.73998121591342 0.625005762647271 M73.73998121591342 -0.6250057626472757 C73.73998121591342 -0.37369201119328566, 73.73998121591342 -0.12237825973929561, 73.73998121591342 0.625005762647271 M73.73998121591342 0.625005762647271 C73.71738230332942 0.9770020676569959, 73.69478339074541 1.328998372666721, 73.65989270250937 1.8724490051997846 M73.73998121591342 0.625005762647271 C73.70812690918589 1.1211623022620416, 73.67627260245837 1.617318841876812, 73.65989270250937 1.8724490051997846 M73.65989270250937 1.8724490051997846 C73.60407377046813 2.3053696194167363, 73.54825483842689 2.7382902336336885, 73.50004477658177 3.1121979531508885 M73.65989270250937 1.8724490051997846 C73.62313277985851 2.1575517062120317, 73.58637285720765 2.4426544072242784, 73.50004477658177 3.1121979531508885 M73.50004477658177 3.1121979531508885 C73.4507789412707 3.365167605135289, 73.40151310595962 3.61813725711969, 73.26109428754556 4.339158212148129 M73.50004477658177 3.1121979531508885 C73.41389080894841 3.5545803683007247, 73.32773684131504 3.996962783450561, 73.26109428754556 4.339158212148129 M73.26109428754556 4.339158212148129 C73.17636498602548 4.66226776075579, 73.09163568450539 4.985377309363452, 72.94402313421489 5.548287939305125 M73.26109428754556 4.339158212148129 C73.18323903632633 4.636054027726369, 73.10538378510711 4.93294984330461, 72.94402313421489 5.548287939305125 M72.94402313421489 5.548287939305125 C72.81090846293377 5.949208120261231, 72.67779379165263 6.350128301217337, 72.55013422997033 6.734618561215495 M72.94402313421489 5.548287939305125 C72.82967442832178 5.892688022463049, 72.71532572242869 6.2370881056209715, 72.55013422997033 6.734618561215495 M72.55013422997033 6.734618561215495 C72.44044423779148 7.0055549626089615, 72.33075424561264 7.276491364002428, 72.08104614880834 7.893275190886679 M72.55013422997033 6.734618561215495 C72.44892554604677 6.984605967243482, 72.3477168621232 7.234593373271469, 72.08104614880834 7.893275190886679 M72.08104614880834 7.893275190886679 C71.95695730191625 8.150948336534107, 71.83286845502415 8.408621482181536, 71.5386864742735 9.019496659696284 M72.08104614880834 7.893275190886679 C71.87588338493677 8.319300059845917, 71.6707206210652 8.745324928805154, 71.5386864742735 9.019496659696284 M71.5386864742735 9.019496659696284 C71.36714216822936 9.324090945822263, 71.19559786218522 9.628685231948245, 70.92528387860425 10.108655082055236 M71.5386864742735 9.019496659696284 C71.29408161550296 9.453817355371179, 71.04947675673242 9.888138051046072, 70.92528387860425 10.108655082055236 M70.92528387860425 10.108655082055236 C70.76449023521931 10.355677297433399, 70.60369659183438 10.602699512811562, 70.24335896464065 11.156274872382301 M70.92528387860425 10.108655082055236 C70.72643630982583 10.41413834574755, 70.5275887410474 10.719621609439862, 70.24335896464065 11.156274872382301 M70.24335896464065 11.156274872382301 C69.98595447793348 11.50117343453877, 69.72854999122629 11.846071996695242, 69.49571390812659 12.158051136245302 M70.24335896464065 11.156274872382301 C70.00912188799073 11.470131215656522, 69.7748848113408 11.783987558930743, 69.49571390812659 12.158051136245302 M69.49571390812659 12.158051136245302 C69.17666270753644 12.532826830986096, 68.8576115069463 12.90760252572689, 68.68542094296866 13.10986736009567 M69.49571390812659 12.158051136245302 C69.20742814558147 12.49668799685538, 68.91914238303636 12.835324857465459, 68.68542094296866 13.10986736009567 M68.68542094296866 13.10986736009567 C68.4410982065552 13.36215064471229, 68.19677547014172 13.61443392932891, 67.81580973676799 14.007812326905684 M68.68542094296866 13.10986736009567 C68.43334256758314 13.37015897870073, 68.18126419219763 13.630450597305787, 67.81580973676799 14.007812326905684 M67.81580973676799 14.007812326905684 C67.6220198185206 14.183807203257707, 67.4282299002732 14.359802079609732, 66.8904537085019 14.848196188198111 M67.81580973676799 14.007812326905684 C67.55738536865083 14.242506500495605, 67.29896100053365 14.477200674085523, 66.8904537085019 14.848196188198111 M66.8904537085019 14.848196188198111 C66.57862776280889 15.096869081851368, 66.26680181711589 15.345541975504624, 65.91315534457871 15.627565626425152 M66.8904537085019 14.848196188198111 C66.64048540120588 15.047539261330666, 66.39051709390985 15.24688233446322, 65.91315534457871 15.627565626425152 M65.91315534457871 15.627565626425152 C65.60584708124502 15.841930567766424, 65.29853881791134 16.056295509107695, 64.8879305736057 16.34271804539089 M65.91315534457871 15.627565626425152 C65.64506885807664 15.814571154132043, 65.37698237157457 16.001576681838934, 64.8879305736057 16.34271804539089 M64.8879305736057 16.34271804539089 C64.57314565947175 16.53354251022038, 64.25836074533781 16.724366975049865, 63.81899226407678 16.990714730406093 M64.8879305736057 16.34271804539089 C64.58947470461999 16.523643747091395, 64.29101883563429 16.7045694487919, 63.81899226407678 16.990714730406093 M63.81899226407678 16.990714730406093 C63.470760704926015 17.17238691176209, 63.122529145775246 17.354059093118085, 62.71073291279239 17.56889292409717 M63.81899226407678 16.990714730406093 C63.37882034629701 17.220352137968234, 62.93864842851723 17.44998954553037, 62.71073291279239 17.56889292409717 M62.71073291279239 17.56889292409717 C62.459689155753615 17.680022548389772, 62.20864539871484 17.791152172682374, 61.567706595147804 18.07487676824742 M62.71073291279239 17.56889292409717 C62.35908724768193 17.724556028843537, 62.00744158257147 17.880219133589904, 61.567706595147804 18.07487676824742 M61.567706595147804 18.07487676824742 C61.13840969455502 18.23286199604261, 60.709112793962234 18.390847223837802, 60.39461025146062 18.506587066708033 M61.567706595147804 18.07487676824742 C61.266170357400036 18.185844891109024, 60.96463411965227 18.29681301397063, 60.39461025146062 18.506587066708033 M60.39461025146062 18.506587066708033 C60.11412843799988 18.5898325966641, 59.83364662453914 18.673078126620165, 59.19626438623541 18.86224982926107 M60.39461025146062 18.506587066708033 C60.050920589864624 18.60859235420588, 59.70723092826862 18.710597641703725, 59.19626438623541 18.86224982926107 M59.19626438623541 18.86224982926107 C58.73850654482985 18.966730069412808, 58.2807487034243 19.07121030956455, 57.977593259676766 19.140403561325773 M59.19626438623541 18.86224982926107 C58.82261872509768 18.94753201314995, 58.448973063959954 19.032814197038828, 57.977593259676766 19.140403561325773 M57.977593259676766 19.140403561325773 C57.51694317475269 19.214877894661537, 57.05629308982861 19.2893522279973, 56.74360465284788 19.3399052695533 M57.977593259676766 19.140403561325773 C57.57373914759393 19.20569556223191, 57.1698850355111 19.27098756313805, 56.74360465284788 19.3399052695533 M56.74360465284788 19.3399052695533 C56.316885224147086 19.381070379634867, 55.8901657954463 19.422235489716435, 55.4993692896239 19.45993515863156 M56.74360465284788 19.3399052695533 C56.261040500533454 19.386457652958768, 55.77847634821902 19.433010036364237, 55.4993692896239 19.45993515863156 M55.4993692896239 19.45993515863156 C55.12345352522258 19.47199004552026, 54.74753776082127 19.484044932408963, 54.25000000000001 19.5 M55.4993692896239 19.45993515863156 C55.20350977753003 19.469422797328804, 54.90765026543616 19.478910436026048, 54.25000000000001 19.5 M54.25000000000001 19.5 C54.25000000000001 19.5, 54.25 19.5, 54.25 19.5 M54.25000000000001 19.5 C54.25000000000001 19.5, 54.25 19.5, 54.25 19.5 M54.25 19.5 C14.843816862343587 19.5, -24.562366275312826 19.5, -54.24999999999999 19.5 M54.25 19.5 C21.648421138807286 19.5, -10.953157722385427 19.5, -54.24999999999999 19.5 M-54.24999999999999 19.5 C-54.60939113645251 19.488475025766377, -54.968782272905024 19.476950051532757, -55.49936928962389 19.45993515863156 M-54.24999999999999 19.5 C-54.650088346271325 19.4871699454598, -55.05017669254265 19.474339890919605, -55.49936928962389 19.45993515863156 M-55.49936928962389 19.45993515863156 C-55.94984697653237 19.41647811795418, -56.40032466344085 19.373021077276803, -56.74360465284787 19.3399052695533 M-55.49936928962389 19.45993515863156 C-55.86977022866702 19.424203025514373, -56.24017116771015 19.388470892397187, -56.74360465284787 19.3399052695533 M-56.74360465284787 19.3399052695533 C-57.23206595054976 19.260934635014795, -57.720527248251656 19.18196400047629, -57.97759325967676 19.140403561325773 M-56.74360465284787 19.3399052695533 C-57.052462241248044 19.28997156988713, -57.36131982964822 19.24003787022096, -57.97759325967676 19.140403561325773 M-57.97759325967676 19.140403561325773 C-58.33276462439089 19.05933801503953, -58.687935989105014 18.978272468753286, -59.196264386235384 18.862249829261074 M-57.97759325967676 19.140403561325773 C-58.35011354292444 19.055378237596518, -58.72263382617213 18.970352913867263, -59.196264386235384 18.862249829261074 M-59.196264386235384 18.862249829261074 C-59.60201209175022 18.74182604007744, -60.007759797265045 18.62140225089381, -60.39461025146059 18.506587066708043 M-59.196264386235384 18.862249829261074 C-59.589631597668436 18.745500505734373, -59.982998809101495 18.628751182207672, -60.39461025146059 18.506587066708043 M-60.39461025146059 18.506587066708043 C-60.7049475758326 18.392380062612364, -61.015284900204605 18.27817305851669, -61.5677065951478 18.074876768247425 M-60.39461025146059 18.506587066708043 C-60.81805803603501 18.350754367676245, -61.241505820609426 18.194921668644447, -61.5677065951478 18.074876768247425 M-61.5677065951478 18.074876768247425 C-61.818507754315405 17.963854534835974, -62.06930891348301 17.852832301424527, -62.71073291279238 17.568892924097174 M-61.5677065951478 18.074876768247425 C-61.96909379589794 17.897194561203598, -62.370480996648084 17.719512354159775, -62.71073291279238 17.568892924097174 M-62.71073291279238 17.568892924097174 C-63.126543284583676 17.35196491947291, -63.54235365637497 17.135036914848644, -63.81899226407678 16.990714730406097 M-62.71073291279238 17.568892924097174 C-63.01732268273455 17.408945237498465, -63.32391245267672 17.248997550899755, -63.81899226407678 16.990714730406097 M-63.81899226407678 16.990714730406097 C-64.1776933263079 16.77326803852017, -64.53639438853902 16.55582134663424, -64.88793057360569 16.3427180453909 M-63.81899226407678 16.990714730406097 C-64.16589003753533 16.78042326153793, -64.51278781099387 16.57013179266976, -64.88793057360569 16.3427180453909 M-64.88793057360569 16.3427180453909 C-65.18735049250145 16.1338556716486, -65.48677041139722 15.924993297906301, -65.91315534457871 15.627565626425156 M-64.88793057360569 16.3427180453909 C-65.25699578298034 16.085274131906562, -65.62606099235498 15.827830218422227, -65.91315534457871 15.627565626425156 M-65.91315534457871 15.627565626425156 C-66.15625428790663 15.433700688255705, -66.39935323123456 15.239835750086256, -66.89045370850187 14.848196188198125 M-65.91315534457871 15.627565626425156 C-66.2994531061535 15.319503441384416, -66.6857508677283 15.011441256343678, -66.89045370850187 14.848196188198125 M-66.89045370850187 14.848196188198125 C-67.18880196066293 14.577244199447629, -67.48715021282399 14.306292210697132, -67.81580973676797 14.007812326905697 M-66.89045370850187 14.848196188198125 C-67.24537069454962 14.525869972058421, -67.60028768059736 14.203543755918718, -67.81580973676797 14.007812326905697 M-67.81580973676797 14.007812326905697 C-68.07835877402603 13.736708890259912, -68.34090781128408 13.465605453614128, -68.68542094296865 13.109867360095677 M-67.81580973676797 14.007812326905697 C-68.09470894926578 13.719825991950522, -68.37360816176358 13.431839656995347, -68.68542094296865 13.109867360095677 M-68.68542094296865 13.109867360095677 C-68.84889722375016 12.91783881862582, -69.01237350453168 12.725810277155961, -69.49571390812658 12.158051136245307 M-68.68542094296865 13.109867360095677 C-68.90362683343946 12.853550304881754, -69.12183272391027 12.59723324966783, -69.49571390812658 12.158051136245307 M-69.49571390812658 12.158051136245307 C-69.70695438087297 11.875008147168092, -69.91819485361938 11.591965158090877, -70.24335896464063 11.156274872382316 M-69.49571390812658 12.158051136245307 C-69.66522460638122 11.93092224332638, -69.83473530463587 11.703793350407453, -70.24335896464063 11.156274872382316 M-70.24335896464063 11.156274872382316 C-70.47317700124715 10.803212653371, -70.70299503785365 10.450150434359685, -70.92528387860425 10.108655082055249 M-70.24335896464063 11.156274872382316 C-70.38353828279548 10.940921796278957, -70.52371760095035 10.7255687201756, -70.92528387860425 10.108655082055249 M-70.92528387860425 10.108655082055249 C-71.11366956224586 9.77415722463056, -71.30205524588746 9.43965936720587, -71.5386864742735 9.019496659696289 M-70.92528387860425 10.108655082055249 C-71.14325149296796 9.72163151113816, -71.36121910733168 9.334607940221069, -71.5386864742735 9.019496659696289 M-71.5386864742735 9.019496659696289 C-71.71136918584773 8.66091731429427, -71.88405189742197 8.30233796889225, -72.08104614880834 7.893275190886686 M-71.5386864742735 9.019496659696289 C-71.72572025374235 8.631117014747435, -71.9127540332112 8.242737369798581, -72.08104614880834 7.893275190886686 M-72.08104614880834 7.893275190886686 C-72.19585659549305 7.609691167866447, -72.31066704217778 7.3261071448462065, -72.55013422997033 6.73461856121551 M-72.08104614880834 7.893275190886686 C-72.26008704312848 7.451040720395724, -72.43912793744863 7.008806249904763, -72.55013422997033 6.73461856121551 M-72.55013422997033 6.73461856121551 C-72.63741105009018 6.4717546846873635, -72.72468787021003 6.208890808159216, -72.94402313421489 5.5482879393051325 M-72.55013422997033 6.73461856121551 C-72.64971253659094 6.434704567322796, -72.74929084321155 6.134790573430081, -72.94402313421489 5.5482879393051325 M-72.94402313421489 5.5482879393051325 C-73.04428291636131 5.165953937116344, -73.14454269850775 4.783619934927554, -73.26109428754556 4.339158212148136 M-72.94402313421489 5.5482879393051325 C-73.05806115202876 5.113411552991258, -73.17209916984264 4.678535166677384, -73.26109428754556 4.339158212148136 M-73.26109428754556 4.339158212148136 C-73.32611505915867 4.0052902920597795, -73.39113583077177 3.671422371971423, -73.50004477658177 3.112197953150904 M-73.26109428754556 4.339158212148136 C-73.33087579011571 3.9808449447762295, -73.40065729268585 3.6225316774043232, -73.50004477658177 3.112197953150904 M-73.50004477658177 3.112197953150904 C-73.54881083491445 2.7339780346700997, -73.59757689324714 2.3557581161892953, -73.65989270250937 1.872449005199809 M-73.50004477658177 3.112197953150904 C-73.53918268330338 2.8086520772720154, -73.57832059002497 2.5051062013931262, -73.65989270250937 1.872449005199809 M-73.65989270250937 1.872449005199809 C-73.67757979441781 1.596958271962205, -73.69526688632625 1.3214675387246013, -73.73998121591342 0.6250057626472781 M-73.65989270250937 1.872449005199809 C-73.69154753675255 1.379399410539999, -73.72320237099572 0.8863498158801887, -73.73998121591342 0.6250057626472781 M-73.73998121591342 0.6250057626472781 C-73.73998121591342 0.35896816304599405, -73.73998121591342 0.09293056344470996, -73.73998121591342 -0.6250057626472687 M-73.73998121591342 0.6250057626472781 C-73.73998121591342 0.33022644024135006, -73.73998121591342 0.03544711783542198, -73.73998121591342 -0.6250057626472687 M-73.73998121591342 -0.6250057626472687 C-73.72251437716724 -0.8970658750973859, -73.70504753842107 -1.169125987547503, -73.65989270250937 -1.8724490051997822 M-73.73998121591342 -0.6250057626472687 C-73.71885395234025 -0.9540799464194605, -73.69772668876709 -1.2831541301916523, -73.65989270250937 -1.8724490051997822 M-73.65989270250937 -1.8724490051997822 C-73.61042004460955 -2.256149170389421, -73.56094738670974 -2.63984933557906, -73.50004477658177 -3.112197953150895 M-73.65989270250937 -1.8724490051997822 C-73.61320037712198 -2.234585460461769, -73.5665080517346 -2.596721915723756, -73.50004477658177 -3.112197953150895 M-73.50004477658177 -3.112197953150895 C-73.40987292525323 -3.57521135189549, -73.31970107392468 -4.038224750640085, -73.26109428754556 -4.339158212148126 M-73.50004477658177 -3.112197953150895 C-73.40792333877944 -3.585222066393144, -73.31580190097709 -4.058246179635392, -73.26109428754556 -4.339158212148126 M-73.26109428754556 -4.339158212148126 C-73.14295305892816 -4.789681919598652, -73.02481183031077 -5.240205627049179, -72.94402313421489 -5.548287939305123 M-73.26109428754556 -4.339158212148126 C-73.1470535092523 -4.774045125366276, -73.03301273095904 -5.208932038584424, -72.94402313421489 -5.548287939305123 M-72.94402313421489 -5.548287939305123 C-72.86231824206061 -5.7943700565671135, -72.78061334990633 -6.040452173829104, -72.55013422997033 -6.734618561215485 M-72.94402313421489 -5.548287939305123 C-72.81735343590752 -5.929796888531253, -72.69068373760015 -6.311305837757383, -72.55013422997033 -6.734618561215485 M-72.55013422997033 -6.734618561215485 C-72.39816769400922 -7.109978843112513, -72.24620115804812 -7.485339125009542, -72.08104614880834 -7.893275190886676 M-72.55013422997033 -6.734618561215485 C-72.43358312609757 -7.022502041143478, -72.31703202222482 -7.310385521071471, -72.08104614880834 -7.893275190886676 M-72.08104614880834 -7.893275190886676 C-71.94641410004677 -8.17284152080446, -71.81178205128519 -8.452407850722244, -71.5386864742735 -9.019496659696282 M-72.08104614880834 -7.893275190886676 C-71.88252506461772 -8.305508469879234, -71.68400398042711 -8.71774174887179, -71.5386864742735 -9.019496659696282 M-71.5386864742735 -9.019496659696282 C-71.39555051419903 -9.273649050896141, -71.25241455412457 -9.527801442095999, -70.92528387860425 -10.108655082055243 M-71.5386864742735 -9.019496659696282 C-71.38156842478615 -9.298475666488802, -71.2244503752988 -9.577454673281323, -70.92528387860425 -10.108655082055243 M-70.92528387860425 -10.108655082055243 C-70.75814380767711 -10.365427114392634, -70.59100373674997 -10.622199146730026, -70.24335896464063 -11.156274872382308 M-70.92528387860425 -10.108655082055243 C-70.66782418124161 -10.504182314813173, -70.41036448387896 -10.899709547571105, -70.24335896464063 -11.156274872382308 M-70.24335896464063 -11.156274872382308 C-70.06359814818607 -11.397137989884154, -69.8838373317315 -11.638001107386, -69.49571390812659 -12.158051136245302 M-70.24335896464063 -11.156274872382308 C-70.01497283363892 -11.462291481520042, -69.78658670263721 -11.768308090657776, -69.49571390812659 -12.158051136245302 M-69.49571390812659 -12.158051136245302 C-69.29415387078785 -12.394815025194406, -69.09259383344913 -12.631578914143509, -68.68542094296866 -13.10986736009567 M-69.49571390812659 -12.158051136245302 C-69.32073995942496 -12.36358549268997, -69.14576601072332 -12.569119849134639, -68.68542094296866 -13.10986736009567 M-68.68542094296866 -13.10986736009567 C-68.47120234910287 -13.331065645935743, -68.25698375523707 -13.552263931775816, -67.81580973676799 -14.007812326905677 M-68.68542094296866 -13.10986736009567 C-68.36611460133136 -13.439577373374371, -68.04680825969406 -13.769287386653073, -67.81580973676799 -14.007812326905677 M-67.81580973676799 -14.007812326905677 C-67.47663535597609 -14.31584152547854, -67.13746097518417 -14.623870724051402, -66.8904537085019 -14.848196188198107 M-67.81580973676799 -14.007812326905677 C-67.57098005292364 -14.23016016793466, -67.32615036907929 -14.452508008963642, -66.8904537085019 -14.848196188198107 M-66.8904537085019 -14.848196188198107 C-66.51133815180206 -15.150530755977561, -66.13222259510222 -15.452865323757015, -65.91315534457871 -15.627565626425149 M-66.8904537085019 -14.848196188198107 C-66.63230180106 -15.054065464672256, -66.3741498936181 -15.259934741146404, -65.91315534457871 -15.627565626425149 M-65.91315534457871 -15.627565626425149 C-65.64418711382704 -15.81518622075047, -65.37521888307536 -16.00280681507579, -64.88793057360571 -16.342718045390885 M-65.91315534457871 -15.627565626425149 C-65.52884800245207 -15.895641791895988, -65.14454066032543 -16.163717957366828, -64.88793057360571 -16.342718045390885 M-64.88793057360571 -16.342718045390885 C-64.6301263789973 -16.499000463188118, -64.37232218438889 -16.655282880985347, -63.81899226407679 -16.99071473040609 M-64.88793057360571 -16.342718045390885 C-64.65962231859984 -16.481119851263674, -64.43131406359397 -16.619521657136463, -63.81899226407679 -16.99071473040609 M-63.81899226407679 -16.99071473040609 C-63.47826638455445 -17.16847120350755, -63.13754050503211 -17.346227676609015, -62.71073291279239 -17.56889292409717 M-63.81899226407679 -16.99071473040609 C-63.5090983000717 -17.152386212930992, -63.1992043360666 -17.31405769545589, -62.71073291279239 -17.56889292409717 M-62.71073291279239 -17.56889292409717 C-62.27819776666937 -17.760363402586595, -61.84566262054635 -17.951833881076023, -61.567706595147804 -18.07487676824742 M-62.71073291279239 -17.56889292409717 C-62.38592353460221 -17.712676400694093, -62.06111415641204 -17.856459877291016, -61.567706595147804 -18.07487676824742 M-61.567706595147804 -18.07487676824742 C-61.11062661555455 -18.243086425938753, -60.65354663596129 -18.411296083630084, -60.39461025146062 -18.506587066708033 M-61.567706595147804 -18.07487676824742 C-61.25107371656375 -18.191400594488595, -60.93444083797971 -18.30792442072977, -60.39461025146062 -18.506587066708033 M-60.39461025146062 -18.506587066708033 C-60.09387654875256 -18.595843251088368, -59.793142846044496 -18.6850994354687, -59.19626438623541 -18.862249829261067 M-60.39461025146062 -18.506587066708033 C-60.09445975394148 -18.5956701588496, -59.79430925642234 -18.68475325099117, -59.19626438623541 -18.862249829261067 M-59.19626438623541 -18.862249829261067 C-58.854367781407454 -18.940285498229198, -58.51247117657949 -19.01832116719733, -57.977593259676766 -19.140403561325773 M-59.19626438623541 -18.862249829261067 C-58.79814428061641 -18.95311814539212, -58.40002417499741 -19.043986461523176, -57.977593259676766 -19.140403561325773 M-57.977593259676766 -19.140403561325773 C-57.656924651697544 -19.192246775041657, -57.33625604371832 -19.244089988757544, -56.74360465284788 -19.3399052695533 M-57.977593259676766 -19.140403561325773 C-57.604314938422874 -19.200752305489488, -57.23103661716899 -19.2611010496532, -56.74360465284788 -19.3399052695533 M-56.74360465284788 -19.3399052695533 C-56.358698265288304 -19.377036725843514, -55.97379187772872 -19.41416818213373, -55.4993692896239 -19.45993515863156 M-56.74360465284788 -19.3399052695533 C-56.367116551994265 -19.37622462384946, -55.990628451140644 -19.41254397814562, -55.4993692896239 -19.45993515863156 M-55.4993692896239 -19.45993515863156 C-55.23499448787972 -19.46841314394916, -54.970619686135535 -19.47689112926676, -54.25000000000001 -19.5 M-55.4993692896239 -19.45993515863156 C-55.102846248166394 -19.47265088078582, -54.70632320670889 -19.485366602940086, -54.25000000000001 -19.5 M-54.25000000000001 -19.5 C-54.25000000000001 -19.5, -54.25000000000001 -19.5, -54.25 -19.5 M-54.25000000000001 -19.5 C-54.25000000000001 -19.5, -54.25 -19.5, -54.25 -19.5" stroke="#ccc" stroke-width="1.3" fill="none" stroke-dasharray="0 0" style=""/></g><g class="label" style="" transform="translate(-61.375, -12)"><rect/><foreignObject width="122.75" height="24"><div xmlns="http://www.w3.org/1999/xhtml" style="display: table-cell; white-space: nowrap; line-height: 1.5; max-width: 200px; text-align: center;"><span class="nodeLabel"><p>button_task_start</p></span></div></foreignObject></g></g><g class="node default" id="my-svg-flowchart-REG-1" data-look="classic" transform="translate(221.25, 124)"><rect class="basic label-container" style="" x="-112.109375" y="-27" width="224.21875" height="54"/><g class="label" style="" transform="translate(-82.109375, -12)"><rect/><foreignObject width="164.21875" height="24"><div xmlns="http://www.w3.org/1999/xhtml" style="display: table-cell; white-space: nowrap; line-height: 1.5; max-width: 200px; text-align: center;"><span class="nodeLabel"><p>WDT · button_reset_all</p></span></div></foreignObject></g></g><g class="node default" id="my-svg-flowchart-LOOP-3" data-look="classic" transform="translate(221.25, 220.5)"><polygon points="9.75,0 56.765625,0 66.515625,-19.5 56.765625,-39 9.75,-39 0,-19.5" class="label-container" transform="translate(-33.2578125,19.5)"/><g class="label" style="" transform="translate(-16.0078125, -12)"><rect/><foreignObject width="32.015625" height="24"><div xmlns="http://www.w3.org/1999/xhtml" style="display: table-cell; white-space: nowrap; line-height: 1.5; max-width: 200px; text-align: center;"><span class="nodeLabel"><p>for ;;</p></span></div></foreignObject></g></g><g class="node default" id="my-svg-flowchart-WDT-5" data-look="classic" transform="translate(138.5, 317)"><rect class="basic label-container" style="" x="-68.078125" y="-27" width="136.15625" height="54"/><g class="label" style="" transform="translate(-38.078125, -12)"><rect/><foreignObject width="76.15625" height="24"><div xmlns="http://www.w3.org/1999/xhtml" style="display: table-cell; white-space: nowrap; line-height: 1.5; max-width: 200px; text-align: center;"><span class="nodeLabel"><p>WDT reset</p></span></div></foreignObject></g></g><g class="node default" id="my-svg-flowchart-CMD-7" data-look="classic" transform="translate(138.5, 433)"><rect class="basic label-container" style="" x="-130.5" y="-39" width="261" height="78"/><g class="label" style="" transform="translate(-100.5, -24)"><rect/><foreignObject width="201" height="48"><div xmlns="http://www.w3.org/1999/xhtml" style="display: table; white-space: break-spaces; line-height: 1.5; max-width: 200px; text-align: center; width: 200px;"><span class="nodeLabel"><p>button_process_commands — button_command_queue</p></span></div></foreignObject></g></g><g class="node default" id="my-svg-flowchart-EVT-9" data-look="classic" transform="translate(138.5, 573)"><rect class="basic label-container" style="" x="-130" y="-51" width="260" height="102"/><g class="label" style="" transform="translate(-100, -36)"><rect/><foreignObject width="200" height="72"><div xmlns="http://www.w3.org/1999/xhtml" style="display: table; white-space: break-spaces; line-height: 1.5; max-width: 200px; text-align: center; width: 200px;"><span class="nodeLabel"><p>button_process_events — debounce · long/double press</p></span></div></foreignObject></g></g><g class="node default" id="my-svg-flowchart-DLY-11" data-look="classic" transform="translate(221.25, 701)"><rect class="basic label-container" style="" x="-106.46875" y="-27" width="212.9375" height="54"/><g class="label" style="" transform="translate(-76.46875, -12)"><rect/><foreignObject width="152.9375" height="24"><div xmlns="http://www.w3.org/1999/xhtml" style="display: table-cell; white-space: nowrap; line-height: 1.5; max-width: 200px; text-align: center;"><span class="nodeLabel"><p>vTaskDelayUntil 5 ms</p></span></div></foreignObject></g></g></g></g></g><defs><filter id="my-svg-drop-shadow" height="130%" width="130%"><feDropShadow dx="4" dy="4" stdDeviation="0" flood-opacity="0.06" flood-color="#FFFFFF"/></filter></defs><defs><filter id="my-svg-drop-shadow-small" height="150%" width="150%"><feDropShadow dx="2" dy="2" stdDeviation="0" flood-opacity="0.06" flood-color="#FFFFFF"/></filter></defs><linearGradient id="my-svg-gradient" gradientUnits="objectBoundingBox" x1="0%" y1="0%" x2="100%" y2="0%"><stop offset="0%" stop-color="#cccccc" stop-opacity="1"/><stop offset="100%" stop-color="hsl(180, 0%, 18.3529411765%)" stop-opacity="1"/></linearGradient></svg>