<svg id="my-svg" width="100%" xmlns="http://www.w3.org/2000/svg" xmlns:xlink="http://www.w3.org/1999/xlink" class="flowchart" style="max-width: 358.559px; background-color: transparent;" viewBox="0 0 358.55859375 760" role="graphics-document document" aria-roledescription="flowchart-v2"><style>#my-svg{font-size:16px;fill:#ccc;}@keyframes edge-animation-frame{from{stroke-dashoffset:0;}}@keyframes dash{to{stroke-dashoffset:0;}}#my-svg .edge-animation-slow{stroke-dasharray:9,5!important;stroke-dashoffset:900;animation:dash 50s linear infinite;stroke-linecap:round;}#my-svg .edge-animation-fast{stroke-dasharray:9,5!important;stroke-dashoffset:900;animation:dash 20s linear infinite;stroke-linecap:round;}#my-svg .error-icon{fill:#a44141;}#my-svg .error-text{fill:#ddd;stroke:#ddd;}#my-svg .edge-thickness-normal{stroke-width:1px;}#my-svg .edge-thickness-thick{stroke-width:3.5px;}#my-svg .edge-pattern-solid{stroke-dasharray:0;}#my-svg .edge-thickness-invisible{stroke-width:0;fill:none;}#my-svg .edge-pattern-dashed{stroke-dasharray:3;}#my-svg .edge-pattern-dotted{stroke-dasharray:2;}#my-svg .marker{fill:#94a3b8;stroke:#94a3b8;}#my-svg .marker.cross{stroke:#94a3b8;}#my-svg svg{font-size:16px;}#my-svg p{margin:0;}#my-svg .label{color:#ccc;}#my-svg .cluster-label text{fill:#f8fafc;}#my-svg .cluster-label span{color:#f8fafc;}#my-svg .cluster-label span p{background-color:transparent;}#my-svg .label text,#my-svg span{fill:#ccc;color:#ccc;}#my-svg .node rect,#my-svg .node circle,#my-svg .node ellipse,#my-svg .node polygon,#my-svg .node path{fill:#1f2020;stroke:#ccc;stroke-width:1px;}#my-svg .rough-node .label text,#my-svg .node .label text,#my-svg .image-shape .label,#my-svg .icon-shape .label{text-anchor:middle;}#my-svg .node .katex path{fill:#000;stroke:#000;stroke-width:1px;}#my-svg .rough-node .label,#my-svg .node .label,#my-svg .image-shape .label,#my-svg .icon-shape .label{text-align:center;}#my-svg .node.clickable{cursor:pointer;}#my-svg .root .anchor path{fill:#94a3b8!important;stroke-width:0;stroke:#94a3b8;}#my-svg .arrowheadPath{fill:lightgrey;}#my-svg .edgePaths .path{stroke:#94a3b8;stroke-width:1px;}#my-svg .flowchart-link{stroke:#94a3b8;fill:none;}#my-svg .edgeLabel{background-color:#1e293b;text-align:center;}#my-svg .edgeLabel p{background-color:#1e293b;}#my-svg .edgeLabel rect{opacity:0.5;background-color:#1e293b;fill:#1e293b;}#my-svg .labelBkg{background-color:rgba(30, 41, 59, 0.5);}#my-svg .cluster rect{fill:#0f172a;stroke:#334155;stroke-width:1px;}#my-svg .cluster text{fill:#f8fafc;}#my-svg .cluster span{color:#f8fafc;}#my-svg .node .collapsed-indicator{fill:#334155;stroke:none;opacity:0.6;}#my-svg .node .collapsed-separator{stroke:#334155;stroke-width:0.75px;}#my-svg div.mermaidTooltip{position:absolute;text-align:center;max-width:200px;padding:2px;font-size:12px;background:hsl(20, 1.5873015873%, 12.3529411765%);border:1px solid rgba(255, 255, 255, 0.25);border-radius:2px;pointer-events:none;z-index:100;}#my-svg .flowchartTitleText{text-anchor:middle;font-size:18px;fill:#ccc;}#my-svg rect.text{fill:none;stroke-width:0;}#my-svg .icon-shape,#my-svg .image-shape{background-color:#1e293b;text-align:center;}#my-svg .icon-shape p,#my-svg .image-shape p{background-color:#1e293b;padding:2px;}#my-svg .icon-shape .label rect,#my-svg .image-shape .label rect{opacity:0.5;background-color:#1e293b;fill:#1e293b;}#my-svg .label-icon{display:inline-block;height:1em;overflow:visible;vertical-align:-0.125em;}#my-svg .node .label-icon path{fill:currentColor;stroke:revert;stroke-width:revert;}#my-svg .node .neo-node{stroke:#ccc;}#my-svg [data-look="neo"].node rect,#my-svg [data-look="neo"].cluster rect,#my-svg [data-look="neo"].node polygon{stroke:url(#my-svg-gradient);filter:drop-shadow( 1px 2px 2px rgba(185,185,185,1));}#my-svg [data-look="neo"].swimlane.cluster rect{filter:none;}#my-svg [data-look="neo"].node path{stroke:url(#my-svg-gradient);stroke-width:1px;}#my-svg [data-look="neo"].node .outer-path{filter:drop-shadow( 1px 2px 2px rgba(185,185,185,1));}#my-svg [data-look="neo"].node .neo-line path{stroke:#ccc;filter:none;}#my-svg [data-look="neo"].node circle{stroke:url(#my-svg-gradient);filter:drop-shadow( 1px 2px 2px rgba(185,185,185,1));}#my-svg [data-look="neo"].node circle .state-start{fill:#000000;}#my-svg [data-look="neo"].icon-shape .icon{fill:url(#my-svg-gradient);filter:drop-shadow( 1px 2px 2px rgba(185,185,185,1));}#my-svg [data-look="neo"].icon-shape .icon-neo path{stroke:url(#my-svg-gradient);filter:drop-shadow( 1px 2px 2px rgba(185,185,185,1));}#my-svg :root{--mermaid-font-family:"trebuchet ms",verdana,arial,sans-serif;}</style><g><marker id="my-svg_flowchart-v2-pointEnd" class="marker flowchart-v2" viewBox="0 0 10 10" refX="5" refY="5" markerUnits="userSpaceOnUse" markerWidth="8" markerHeight="8" orient="auto"><path d="M 0 0 L 10 5 L 0 10 z" class="arrowMarkerPath" style="stroke-width: 1; stroke-dasharray: 1, 0;"/></marker><marker id="my-svg_flowchart-v2-pointStart" class="marker flowchart-v2" viewBox="0 0 10 10" refX="4.5" refY="5" markerUnits="userSpaceOnUse" markerWidth="8" markerHeight="8" orient="auto"><path d="M 0 5 L 10 10 L 10 0 z" class="arrowMarkerPath" style="stroke-width: 1; stroke-dasharray: 1, 0;"/></marker><marker id="my-svg_flowchart-v2-pointEnd-margin" class="marker flowchart-v2" viewBox="0 0 11.5 14" refX="11.5" refY="7" markerUnits="userSpaceOnUse" markerWidth="10.5" markerHeight="14" orient="auto"><path d="M 0 0 L 11.5 7 L 0 14 z" class="arrowMarkerPath" style="stroke-width: 0; stroke-dasharray: 1, 0;"/></marker><marker id="my-svg_flowchart-v2-pointStart-margin" class="marker flowchart-v2" viewBox="0 0 11.5 14" refX="1" refY="7" markerUnits="userSpaceOnUse" markerWidth="11.5" markerHeight="14" orient="auto"><polygon points="0,7 11.5,14 11.5,0" class="arrowMarkerPath" style="stroke-width: 0; stroke-dasharray: 1, 0;"/></marker><marker id="my-svg_flowchart-v2-circleEnd" class="marker flowchart-v2" viewBox="0 0 10 10" refX="11" refY="5" markerUnits="userSpaceOnUse" markerWidth="11" markerHeight="11" orient="auto"><circle cx="5" cy="5" r="5" class="arrowMarkerPath" style="stroke-width: 1; stroke-dasharray: 1, 0;"/></marker><marker id="my-svg_flowchart-v2-circleStart" class="marker flowchart-v2" viewBox="0 0 10 10" refX="-1" refY="5" markerUnits="userSpaceOnUse" markerWidth="11" markerHeight="11" orient="auto"><circle cx="5" cy="5" r="5" class="arrowMarkerPath" style="stroke-width: 1; stroke-dasharray: 1, 0;"/></marker><marker id="my-svg_flowchart-v2-circleEnd-margin" class="marker flowchart-v2" viewBox="0 0 10 10" refY="5" refX="12.25" markerUnits="userSpaceOnUse" markerWidth="14" markerHeight="14" orient="auto"><circle cx="5" cy="5" r="5" class="arrowMarkerPath" style="stroke-width: 0; stroke-dasharray: 1, 0;"/></marker><marker id="my-svg_flowchart-v2-circleStart-margin" class="marker flowchart-v2" viewBox="0 0 10 10" refX="-2" refY="5" markerUnits="userSpaceOnUse" markerWidth="14" markerHeight="14" orient="auto"><circle cx="5" cy="5" r="5" class="arrowMarkerPath" style="stroke-width: 0; stroke-dasharray: 1, 0;"/></marker><marker id="my-svg_flowchart-v2-crossEnd" class="marker cross flowchart-v2" viewBox="0 0 11 11" refX="12" refY="5.2" markerUnits="userSpaceOnUse" markerWidth="11" markerHeight="11" orient="auto"><path d="M 1,1 l 9,9 M 10,1 l -9,9" class="arrowMarkerPath" style="stroke-width: 2; stroke-dasharray: 1, 0;"/></marker><marker id="my-svg_flowchart-v2-crossStart" class="marker cross flowchart-v2" viewBox="0 0 11 11" refX="-1" refY="5.2" markerUnits="userSpaceOnUse" markerWidth="11" markerHeight="11" orient="auto"><path d="M 1,1 l 9,9 M 10,1 l -9,9" class="arrowMarkerPath" style="stroke-width: 2; stroke-dasharray: 1, 0;"/></marker><marker id="my-svg_flowchart-v2-crossEnd-margin" class="marker cross flowchart-v2" viewBox="0 0 15 15" refX="17.7" refY="7.5" markerUnits="userSpaceOnUse" markerWidth="12" markerHeight="12" orient="auto"><path d="M 1,1 L 14,14 M 1,14 L 14,1" class="arrowMarkerPath" style="stroke-width: 2.5;"/></marker><marker id="my-svg_flowchart-v2-crossStart-margin" class="marker cross flowchart-v2" viewBox="0 0 15 15" refX="-3.5" refY="7.5" markerUnits="userSpaceOnUse" markerWidth="12" markerHeight="12" orient="auto"><path d="M 1,1 L 14,14 M 1,14 L 14,1" class="arrowMarkerPath" style="stroke-width: 2.5; stroke-dasharray: 1, 0;"/></marker><g class="root"><g class="clusters"/><g class="edgePaths"><path d="M221.059,47.5L220.975,51.583C220.892,55.667,220.725,63.833,220.642,71.417C220.559,79,220.559,86,220.559,89.5L220.559,93" id="my-svg-L_START_REG_0" class="edge-thickness-normal edge-pattern-solid edge-thickness-normal edge-pattern-solid flowchart-link" style=";" data-edge="true" data-et="edge" data-id="L_START_REG_0" data-points="W3sieCI6MjIxLjA1ODU5Mzc1LCJ5Ijo0Ny41MDAwMDAwMDAwMDAwMX0seyJ4IjoyMjAuNTU4NTkzNzUsInkiOjcyfSx7IngiOjIyMC41NTg1OTM3NSwieSI6OTd9XQ==" data-look="classic" marker-end="url(#my-svg_flowchart-v2-pointEnd)"/><path d="M220.559,175L220.559,179.167C220.559,183.333,220.559,191.667,220.629,199.417C220.699,207.167,220.84,214.334,220.91,217.917L220.98,221.501" id="my-svg-L_REG_LOOP_0" class="edge-thickness-normal edge-pattern-solid edge-thickness-normal edge-pattern-solid flowchart-link" style=";" data-edge="true" data-et="edge" data-id="L_REG_LOOP_0" data-points="W3sieCI6MjIwLjU1ODU5Mzc1LCJ5IjoxNzV9LHsieCI6MjIwLjU1ODU5Mzc1LCJ5IjoyMDB9LHsieCI6MjIxLjA1ODU5Mzc1LCJ5IjoyMjUuNX1d" data-look="classic" marker-end="url(#my-svg_flowchart-v2-pointEnd)"/><path d="M194.864,259.126L185.393,264.105C175.922,269.084,156.981,279.042,147.51,287.521C138.039,296,138.039,303,138.039,306.5L138.039,310" id="my-svg-L_LOOP_WDT_0" class="edge-thickness-normal edge-pattern-solid edge-thickness-normal edge-pattern-solid flowchart-link" style=";" data-edge="true" data-et="edge" data-id="L_LOOP_WDT_0" data-points="W3sieCI6MTk0Ljg2Mzc3MjkzNTYxOTQ3LCJ5IjoyNTkuMTI1OTgzMzcxMjM4OTN9LHsieCI6MTM4LjAzOTA2MjUsInkiOjI4OX0seyJ4IjoxMzguMDM5MDYyNSwieSI6MzE0fV0=" data-look="classic" marker-end="url(#my-svg_flowchart-v2-pointEnd)"/><path d="M138.039,368L138.039,372.167C138.039,376.333,138.039,384.667,138.039,392.333C138.039,400,138.039,407,138.039,410.5L138.039,414" id="my-svg-L_WDT_CMD_0" class="edge-thickness-normal edge-pattern-solid edge-thickness-normal edge-pattern-solid flowchart-link" style=";" data-edge="true" data-et="edge" data-id="L_WDT_CMD_0" data-points="W3sieCI6MTM4LjAzOTA2MjUsInkiOjM2OH0seyJ4IjoxMzguMDM5MDYyNSwieSI6MzkzfSx7IngiOjEzOC4wMzkwNjI1LCJ5Ijo0MTh9XQ==" data-look="classic" marker-end="url(#my-svg_flowchart-v2-pointEnd)"/><path d="M138.039,520L138.039,524.167C138.039,528.333,138.039,536.667,138.039,544.333C138.039,552,138.039,559,138.039,562.5L138.039,566" id="my-svg-L_CMD_NOTE_0" class="edge-thickness-normal edge-pattern-solid edge-thickness-normal edge-pattern-solid flowchart-link" style=";" data-edge="true" data-et="edge" data-id="L_CMD_NOTE_0" data-points="W3sieCI6MTM4LjAzOTA2MjUsInkiOjUyMH0seyJ4IjoxMzguMDM5MDYyNSwieSI6NTQ1fSx7IngiOjEzOC4wMzkwNjI1LCJ5Ijo1NzB9XQ==" data-look="classic" marker-end="url(#my-svg_flowchart-v2-pointEnd)"/><path d="M138.039,648L138.039,652.167C138.039,656.333,138.039,664.667,144.087,672.645C150.135,680.622,162.232,688.245,168.28,692.056L174.328,695.867" id="my-svg-L_NOTE_DLY_0" class="edge-thickness-normal edge-pattern-solid edge-thickness-normal edge-pattern-solid flowchart-link" style=";" data-edge="true" data-et="edge" data-id="L_NOTE_DLY_0" data-points="W3sieCI6MTM4LjAzOTA2MjUsInkiOjY0OH0seyJ4IjoxMzguMDM5MDYyNSwieSI6NjczfSx7IngiOjE3Ny43MTE5MTQwNjI1LCJ5Ijo2OTh9XQ==" data-look="classic" marker-end="url(#my-svg_flowchart-v2-pointEnd)"/><path d="M263.405,698L270.017,693.833C276.63,689.667,289.854,681.333,296.466,666.5C303.078,651.667,303.078,630.333,303.078,609C303.078,587.667,303.078,566.333,303.078,543C303.078,519.667,303.078,494.333,303.078,469C303.078,443.667,303.078,418.333,303.078,397C303.078,375.667,303.078,358.333,303.078,341C303.078,323.667,303.078,306.333,294.362,293.002C285.645,279.671,268.213,270.342,259.497,265.678L250.78,261.013" id="my-svg-L_DLY_LOOP_0" class="edge-thickness-normal edge-pattern-solid edge-thickness-normal edge-pattern-solid flowchart-link" style=";" data-edge="true" data-et="edge" data-id="L_DLY_LOOP_0" data-points="W3sieCI6MjYzLjQwNTI3MzQzNzUsInkiOjY5OH0seyJ4IjozMDMuMDc4MTI1LCJ5Ijo2NzN9LHsieCI6MzAzLjA3ODEyNSwieSI6NjA5fSx7IngiOjMwMy4wNzgxMjUsInkiOjU0NX0seyJ4IjozMDMuMDc4MTI1LCJ5Ijo0Njl9LHsieCI6MzAzLjA3ODEyNSwieSI6MzkzfSx7IngiOjMwMy4wNzgxMjUsInkiOjM0MX0seyJ4IjozMDMuMDc4MTI1LCJ5IjoyODl9LHsieCI6MjQ3LjI1MzQxNDU2NDM4MDUzLCJ5IjoyNTkuMTI1OTgzMzcxMjM4OTN9XQ==" data-look="classic" marker-end="url(#my-svg_flowchart-v2-pointEnd)"/></g><g class="edgeLabels"><g class="edgeLabel"><g class="label" data-id="L_START_REG_0" transform="translate(0, 0)"><foreignObject width="0" height="0"><div xmlns="http://www.w3.org/1999/xhtml" class="labelBkg" style="display: table-cell; white-space: nowrap; line-height: 1.5; max-width: 200px; text-align: center;"><span class="edgeLabel"></span></div></foreignObject></g></g><g class="edgeLabel"><g class="label" data-id="L_REG_LOOP_0" transform="translate(0, 0)"><foreignObject width="0" height="0"><div xmlns="http://www.w3.org/1999/xhtml" class="labelBkg" style="display: table-cell; white-space: nowrap; line-height: 1.5; max-width: 200px; text-align: center;"><span class="edgeLabel"></span></div></foreignObject></g></g><g class="edgeLabel"><g class="label" data-id="L_LOOP_WDT_0" transform="translate(0, 0)"><foreignObject width="0" height="0"><div xmlns="http://www.w3.org/1999/xhtml" class="labelBkg" style="display: table-cell; white-space: nowrap; line-height: 1.5; max-width: 200px; text-align: center;"><span class="edgeLabel"></span></div></foreignObject></g></g><g class="edgeLabel"><g class="label" data-id="L_WDT_CMD_0" transform="translate(0, 0)"><foreignObject width="0" height="0"><div xmlns="http://www.w3.org/1999/xhtml" class="labelBkg" style="display: table-cell; white-space: nowrap; line-height: 1.5; max-width: 200px; text-align: center;"><span class="edgeLabel"></span></div></foreignObject></g></g><g class="edgeLabel"><g class="label" data-id="L_CMD_NOTE_0" transform="translate(0, 0)"><foreignObject width="0" height="0"><div xmlns="http://www.w3.org/1999/xhtml" class="labelBkg" style="display: table-cell; white-space: nowrap; line-height: 1.5; max-width: 200px; text-align: center;"><span class="edgeLabel"></span></div></foreignObject></g></g><g class="edgeLabel"><g class="label" data-id="L_NOTE_DLY_0" transform="translate(0, 0)"><foreignObject width="0" height="0"><div xmlns="http://www.w3.org/1999/xhtml" class="labelBkg" style="display: table-cell; white-space: nowrap; line-height: 1.5; max-width: 200px; text-align: center;"><span class="edgeLabel"></span></div></foreignObject></g></g><g class="edgeLabel"><g class="label" data-id="L_DLY_LOOP_0" transform="translate(0, 0)"><foreignObject width="0" height="0"><div xmlns="http://www.w3.org/1999/xhtml" class="labelBkg" style="display: table-cell; white-space: nowrap; line-height: 1.5; max-width: 200px; text-align: center;"><span class="edgeLabel"></span></div></foreignObject></g></g></g><g class="nodes"><g class="node default" id="my-svg-flowchart-START-0" data-look="classic" transform="translate(220.55859375, 27.5)"><g class="basic label-container outer-path"><path d="M-53.78125 -19.5 C-27.046518281639813 -19.5, -0.3117865632796253 -19.5, 53.78125 -19.5 C53.78125 -19.5, 53.78125 -19.5, 53.78125 -19.5 C54.184796220084756 -19.48705905817695, 54.58834244016951 -19.474118116353896, 55.0306192896239 -19.45993515863156 C55.492571911702896 -19.41537114475891, 55.954524533781886 -19.370807130886263, 56.274854652847864 -19.3399052695533 C56.59454499695796 -19.288220213953227, 56.91423534106805 -19.236535158353153, 57.50884325967676 -19.140403561325776 C57.81544868700622 -19.070422873325224, 58.122054114335675 -19.00044218532467, 58.72751438623539 -18.862249829261074 C59.17843177850409 -18.728419914149416, 59.629349170772784 -18.594589999037762, 59.925860251460605 -18.50658706670804 C60.3916841861845 -18.335159552700397, 60.857508120908385 -18.163732038692757, 61.0989565951478 -18.074876768247425 C61.44572041053511 -17.92137471355857, 61.792484225922415 -17.767872658869717, 62.24198291279238 -17.568892924097174 C62.491443905156544 -17.438749284168182, 62.740904897520714 -17.308605644239186, 63.35024226407678 -16.990714730406097 C63.59693370477923 -16.84116892933245, 63.84362514548168 -16.691623128258804, 64.4191805736057 -16.342718045390892 C64.75285164234067 -16.109963552229143, 65.08652271107563 -15.877209059067393, 65.44440534457871 -15.627565626425154 C65.64869186024372 -15.464652566474808, 65.8529783759087 -15.301739506524463, 66.42170370850187 -14.848196188198123 C66.69863905046938 -14.59669083793085, 66.9755743924369 -14.345185487663578, 67.34705973676799 -14.007812326905688 C67.69103691032109 -13.652627654160957, 68.03501408387417 -13.297442981416225, 68.21667094296865 -13.10986736009568 C68.41347364542553 -12.878691707398819, 68.61027634788242 -12.647516054701956, 69.02696390812658 -12.158051136245305 C69.29815820314182 -11.794675487233413, 69.56935249815706 -11.431299838221518, 69.77460896464063 -11.156274872382312 C69.92564385174443 -10.92424472724497, 70.07667873884822 -10.692214582107626, 70.45653387860425 -10.108655082055241 C70.6486280175128 -9.767572486782274, 70.84072215642136 -9.42648989150931, 71.0699364742735 -9.019496659696287 C71.21497536179518 -8.718320306422475, 71.36001424931686 -8.417143953148663, 71.61229614880834 -7.893275190886684 C71.77295328272743 -7.496448964012158, 71.93361041664652 -7.099622737137632, 72.08138422997033 -6.734618561215508 C72.20249150523958 -6.369862743928411, 72.32359878050883 -6.005106926641314, 72.47527313421489 -5.548287939305138 C72.56897345997916 -5.19096798718786, 72.66267378574345 -4.833648035070583, 72.79234428754556 -4.339158212148133 C72.87466397237378 -3.916464028826748, 72.956983657202 -3.4937698455053625, 73.03129477658177 -3.1121979531509023 C73.08790472560061 -2.673142367459681, 73.14451467461944 -2.2340867817684598, 73.19114270250937 -1.872449005199798 C73.20864786413789 -1.5997919829235374, 73.2261530257664 -1.3271349606472769, 73.27123121591342 -0.6250057626472757 C73.27123121591342 -0.2180751389127561, 73.27123121591342 0.1888554848217635, 73.27123121591342 0.625005762647271 C73.24324470764506 1.0609182192297324, 73.2152581993767 1.4968306758121939, 73.19114270250937 1.8724490051997846 C73.13755335280233 2.2880774191135194, 73.08396400309529 2.703705833027254, 73.03129477658177 3.1121979531508885 C72.93832299786273 3.5895883872808367, 72.84535121914367 4.0669788214107845, 72.79234428754556 4.339158212148129 C72.69936477120528 4.693729405530906, 72.606385254865 5.048300598913683, 72.47527313421489 5.548287939305125 C72.38368886329583 5.824125171341365, 72.29210459237679 6.099962403377604, 72.08138422997033 6.734618561215495 C71.94681375754577 7.06701022984724, 71.81224328512121 7.399401898478985, 71.61229614880834 7.893275190886679 C71.48080219601597 8.16632519737992, 71.34930824322359 8.439375203873158, 71.0699364742735 9.019496659696284 C70.91574077234219 9.293286742483273, 70.76154507041088 9.567076825270263, 70.45653387860425 10.108655082055236 C70.28105629027284 10.378235780062486, 70.10557870194144 10.647816478069737, 69.77460896464065 11.156274872382301 C69.57312568890806 11.426244106359936, 69.37164241317548 11.69621334033757, 69.02696390812659 12.158051136245302 C68.79810483434811 12.426882026755708, 68.56924576056963 12.695712917266114, 68.21667094296866 13.10986736009567 C67.8830488547213 13.454359557093914, 67.54942676647394 13.798851754092158, 67.34705973676799 14.007812326905684 C67.04897065794154 14.278528941291045, 66.75088157911507 14.549245555676405, 66.4217037085019 14.848196188198111 C66.18869191789018 15.034016890506788, 65.95568012727847 15.219837592815466, 65.44440534457871 15.627565626425152 C65.06521207491865 15.892074436327933, 64.68601880525858 16.156583246230714, 64.4191805736057 16.34271804539089 C64.16621849482715 16.496065144116628, 63.913256416048604 16.649412242842363, 63.35024226407678 16.990714730406093 C63.01682127901948 17.164660244744155, 62.68340029396217 17.338605759082217, 62.24198291279239 17.56889292409717 C61.851676018838205 17.741670208008046, 61.46136912488402 17.91444749191892, 61.098956595147804 18.07487676824742 C60.73780730811003 18.207783044304733, 60.37665802107226 18.34068932036205, 59.92586025146062 18.506587066708033 C59.56722010173039 18.613029580607403, 59.20857995200016 18.719472094506777, 58.72751438623541 18.86224982926107 C58.42186027337952 18.932013385940937, 58.11620616052364 19.001776942620804, 57.508843259676766 19.140403561325773 C57.187027271797575 19.19243227452582, 56.865211283918384 19.24446098772587, 56.27485465284788 19.3399052695533 C55.828479525054426 19.382966541286898, 55.38210439726097 19.4260278130205, 55.0306192896239 19.45993515863156 C54.75705232999971 19.468707918560924, 54.483485370375526 19.477480678490284, 53.78125000000001 19.5 C53.78125000000001 19.5, 53.78125 19.5, 53.78125 19.5 C29.20174042231578 19.5, 4.622230844631559 19.5, -53.78124999999999 19.5 C-54.048048712537266 19.49144428458112, -54.31484742507455 19.48288856916224, -55.03061928962389 19.45993515863156 C-55.29033320834158 19.434880869244548, -55.550047127059266 19.40982657985754, -56.27485465284787 19.3399052695533 C-56.70274860921606 19.27072669305488, -57.13064256558425 19.201548116556463, -57.50884325967676 19.140403561325773 C-57.947875569770076 19.04019730150054, -58.386907879863394 18.93999104167531, -58.727514386235384 18.862249829261074 C-59.127150131891675 18.743640037681125, -59.52678587754796 18.625030246101176, -59.92586025146059 18.506587066708043 C-60.31090321286032 18.364887697614826, -60.695946174260044 18.223188328521612, -61.0989565951478 18.074876768247425 C-61.35274945479688 17.962530197778467, -61.60654231444597 17.850183627309512, -62.24198291279238 17.568892924097174 C-62.486778878235626 17.44118302572473, -62.73157484367888 17.31347312735229, -63.35024226407678 16.990714730406097 C-63.61136002149146 16.832423611363055, -63.87247777890612 16.674132492320012, -64.41918057360569 16.3427180453909 C-64.77921558030452 16.09157321038203, -65.13925058700337 15.840428375373165, -65.44440534457871 15.627565626425156 C-65.76086392696257 15.37519832829058, -66.07732250934642 15.122831030156005, -66.42170370850187 14.848196188198125 C-66.60865647391995 14.678410633144534, -66.79560923933803 14.50862507809094, -67.34705973676797 14.007812326905697 C-67.57030695493368 13.777291245212114, -67.79355417309941 13.546770163518529, -68.21667094296865 13.109867360095677 C-68.48761387438152 12.79160237576857, -68.7585568057944 12.473337391441461, -69.02696390812658 12.158051136245307 C-69.31656166478996 11.770016525214755, -69.60615942145334 11.381981914184204, -69.77460896464063 11.156274872382316 C-69.91800700277021 10.935976978050464, -70.06140504089977 10.715679083718612, -70.45653387860425 10.108655082055249 C-70.58772600585353 9.875710175480734, -70.7189181331028 9.642765268906219, -71.0699364742735 9.019496659696289 C-71.22441924298316 8.698709885068963, -71.3789020116928 8.377923110441637, -71.61229614880834 7.893275190886686 C-71.79851782096425 7.4333040603104985, -71.98473949312016 6.973332929734311, -72.08138422997033 6.73461856121551 C-72.21781934349144 6.323697737273168, -72.35425445701256 5.912776913330826, -72.47527313421489 5.5482879393051325 C-72.55113273365335 5.259002408887928, -72.62699233309179 4.969716878470724, -72.79234428754556 4.339158212148136 C-72.86812853203041 3.9500221337241896, -72.94391277651525 3.560886055300244, -73.03129477658177 3.112197953150904 C-73.0709825679733 2.8043872803590517, -73.11067035936483 2.4965766075671993, -73.19114270250937 1.872449005199809 C-73.21416084347595 1.5139228797362208, -73.23717898444255 1.1553967542726322, -73.27123121591342 0.6250057626472781 C-73.27123121591342 0.22977904073879746, -73.27123121591342 -0.16544768116968323, -73.27123121591342 -0.6250057626472687 C-73.24320093361268 -1.0616000351177948, -73.21517065131195 -1.4981943075883208, -73.19114270250937 -1.8724490051997822 C-73.13434765343433 -2.3129401903747797, -73.07755260435928 -2.7534313755497775, -73.03129477658177 -3.112197953150895 C-72.97607176970098 -3.3957564220971657, -72.92084876282017 -3.6793148910434366, -72.79234428754556 -4.339158212148126 C-72.70060728580192 -4.688991158864702, -72.60887028405827 -5.038824105581279, -72.47527313421489 -5.548287939305123 C-72.31889470399759 -6.019274855600348, -72.1625162737803 -6.4902617718955735, -72.08138422997033 -6.734618561215485 C-71.96500480310866 -7.022077995606959, -71.84862537624699 -7.309537429998432, -71.61229614880834 -7.893275190886676 C-71.43891734109714 -8.253299994811204, -71.26553853338592 -8.61332479873573, -71.0699364742735 -9.019496659696282 C-70.83659745027045 -9.433813724952048, -70.60325842626737 -9.848130790207815, -70.45653387860425 -10.108655082055243 C-70.27334817876489 -10.390077509256468, -70.09016247892554 -10.671499936457694, -69.77460896464063 -11.156274872382308 C-69.50475219471694 -11.517858359622574, -69.23489542479325 -11.879441846862841, -69.02696390812659 -12.158051136245302 C-68.8014498927781 -12.422952730784635, -68.5759358774296 -12.687854325323968, -68.21667094296866 -13.10986736009567 C-67.91960569679995 -13.41661161627516, -67.62254045063123 -13.723355872454649, -67.34705973676799 -14.007812326905677 C-67.06877618771931 -14.26054208317246, -66.79049263867064 -14.513271839439241, -66.4217037085019 -14.848196188198107 C-66.11050145207288 -15.096371706260397, -65.79929919564388 -15.344547224322685, -65.44440534457871 -15.627565626425149 C-65.047545694042 -15.904397738862182, -64.65068604350529 -16.181229851299214, -64.41918057360571 -16.342718045390885 C-64.14237644631126 -16.510518334038395, -63.8655723190168 -16.678318622685907, -63.35024226407679 -16.99071473040609 C-63.081935167120086 -17.130690371029505, -62.81362807016338 -17.270666011652917, -62.24198291279239 -17.56889292409717 C-61.8410114939441 -17.746391076826775, -61.44004007509581 -17.923889229556384, -61.098956595147804 -18.07487676824742 C-60.688461339878785 -18.225942816762963, -60.277966084609766 -18.377008865278505, -59.92586025146062 -18.506587066708033 C-59.6827222322799 -18.578749154543363, -59.43958421309919 -18.650911242378694, -58.72751438623541 -18.862249829261067 C-58.37456796001409 -18.94280754785541, -58.021621533792775 -19.02336526644975, -57.508843259676766 -19.140403561325773 C-57.23926734065178 -19.183986505321258, -56.96969142162679 -19.227569449316743, -56.27485465284788 -19.3399052695533 C-55.939633318326756 -19.37224366853191, -55.60441198380564 -19.404582067510525, -55.0306192896239 -19.45993515863156 C-54.753973887532226 -19.46880663821903, -54.47732848544055 -19.4776781178065, -53.78125000000001 -19.5 C-53.78125000000001 -19.5, -53.78125 -19.5, -53.78125 -19.5" stroke="none" stroke-width="0" fill="#1f2020" style=""/><path d="M-53.78125 -19.5 C-18.82717681203509 -19.5, 16.126896375929817 -19.5, 53.78125 -19.5 M-53.78125 -19.5 C-12.824357399430305 -19.5, 28.13253520113939 -19.5, 53.78125 -19.5 M53.78125 -19.5 C53.78125 -19.5, 53.78125 -19.5, 53.78125 -19.5 M53.78125 -19.5 C53.78125 -19.5, 53.78125 -19.5, 53.78125 -19.5 M53.78125 -19.5 C54.23399279531159 -19.48548141976475, 54.68673559062318 -19.4709628395295, 55.0306192896239 -19.45993515863156 M53.78125 -19.5 C54.032407687705785 -19.49194586180406, 54.28356537541157 -19.483891723608117, 55.0306192896239 -19.45993515863156 M55.0306192896239 -19.45993515863156 C55.47977442100478 -19.41660570329532, 55.92892955238566 -19.373276247959087, 56.274854652847864 -19.3399052695533 M55.0306192896239 -19.45993515863156 C55.415849603023645 -19.42277245360512, 55.8010799164234 -19.385609748578684, 56.274854652847864 -19.3399052695533 M56.274854652847864 -19.3399052695533 C56.65274756320537 -19.278810474409987, 57.03064047356287 -19.217715679266675, 57.50884325967676 -19.140403561325776 M56.274854652847864 -19.3399052695533 C56.724027971566926 -19.267286410773913, 57.17320129028599 -19.194667551994527, 57.50884325967676 -19.140403561325776 M57.50884325967676 -19.140403561325776 C57.90454794763515 -19.050086548513683, 58.300252635593544 -18.95976953570159, 58.72751438623539 -18.862249829261074 M57.50884325967676 -19.140403561325776 C57.95301521619428 -19.039024210743545, 58.397187172711796 -18.937644860161317, 58.72751438623539 -18.862249829261074 M58.72751438623539 -18.862249829261074 C59.173760400097045 -18.729806354740063, 59.620006413958706 -18.59736288021905, 59.925860251460605 -18.50658706670804 M58.72751438623539 -18.862249829261074 C59.012454805643166 -18.777681008463627, 59.29739522505095 -18.693112187666184, 59.925860251460605 -18.50658706670804 M59.925860251460605 -18.50658706670804 C60.29112706923021 -18.372165501279376, 60.6563938869998 -18.237743935850716, 61.0989565951478 -18.074876768247425 M59.925860251460605 -18.50658706670804 C60.213442184332855 -18.400754257032805, 60.501024117205105 -18.294921447357574, 61.0989565951478 -18.074876768247425 M61.0989565951478 -18.074876768247425 C61.41945411950727 -17.933002021434753, 61.73995164386675 -17.791127274622077, 62.24198291279238 -17.568892924097174 M61.0989565951478 -18.074876768247425 C61.5236398508253 -17.886882088740172, 61.948323106502805 -17.69888740923292, 62.24198291279238 -17.568892924097174 M62.24198291279238 -17.568892924097174 C62.523546893815656 -17.422001175547667, 62.80511087483893 -17.275109426998164, 63.35024226407678 -16.990714730406097 M62.24198291279238 -17.568892924097174 C62.51445303829305 -17.42674543414892, 62.78692316379372 -17.284597944200666, 63.35024226407678 -16.990714730406097 M63.35024226407678 -16.990714730406097 C63.743447704236004 -16.752351281849922, 64.13665314439523 -16.513987833293747, 64.4191805736057 -16.342718045390892 M63.35024226407678 -16.990714730406097 C63.65297785749968 -16.80719463460132, 63.955713450922566 -16.62367453879654, 64.4191805736057 -16.342718045390892 M64.4191805736057 -16.342718045390892 C64.79728324206171 -16.07896999167669, 65.17538591051773 -15.81522193796249, 65.44440534457871 -15.627565626425154 M64.4191805736057 -16.342718045390892 C64.74240820538978 -16.117248441756985, 65.06563583717386 -15.891778838123075, 65.44440534457871 -15.627565626425154 M65.44440534457871 -15.627565626425154 C65.75128299255077 -15.382838868524612, 66.05816064052284 -15.138112110624068, 66.42170370850187 -14.848196188198123 M65.44440534457871 -15.627565626425154 C65.83431290243279 -15.316624724912407, 66.22422046028684 -15.00568382339966, 66.42170370850187 -14.848196188198123 M66.42170370850187 -14.848196188198123 C66.6985106657762 -14.596807433512325, 66.97531762305054 -14.345418678826524, 67.34705973676799 -14.007812326905688 M66.42170370850187 -14.848196188198123 C66.65466212057316 -14.636629522096793, 66.88762053264446 -14.425062855995463, 67.34705973676799 -14.007812326905688 M67.34705973676799 -14.007812326905688 C67.55392418774717 -13.794207797382402, 67.76078863872634 -13.580603267859116, 68.21667094296865 -13.10986736009568 M67.34705973676799 -14.007812326905688 C67.5329518682598 -13.815863439112565, 67.7188439997516 -13.623914551319443, 68.21667094296865 -13.10986736009568 M68.21667094296865 -13.10986736009568 C68.4808044689802 -12.799601090819108, 68.74493799499176 -12.489334821542535, 69.02696390812658 -12.158051136245305 M68.21667094296865 -13.10986736009568 C68.40624494583136 -12.887182949266792, 68.59581894869407 -12.664498538437904, 69.02696390812658 -12.158051136245305 M69.02696390812658 -12.158051136245305 C69.27041807969628 -11.831844725473195, 69.513872251266 -11.505638314701082, 69.77460896464063 -11.156274872382312 M69.02696390812658 -12.158051136245305 C69.31416034096601 -11.773234080373742, 69.60135677380545 -11.38841702450218, 69.77460896464063 -11.156274872382312 M69.77460896464063 -11.156274872382312 C70.00891441446231 -10.79631878163333, 70.243219864284 -10.436362690884348, 70.45653387860425 -10.108655082055241 M69.77460896464063 -11.156274872382312 C70.0010421642019 -10.808412672028496, 70.22747536376318 -10.460550471674678, 70.45653387860425 -10.108655082055241 M70.45653387860425 -10.108655082055241 C70.63476280141374 -9.792191581971538, 70.81299172422324 -9.475728081887834, 71.0699364742735 -9.019496659696287 M70.45653387860425 -10.108655082055241 C70.69749126652614 -9.680810840218584, 70.93844865444805 -9.252966598381926, 71.0699364742735 -9.019496659696287 M71.0699364742735 -9.019496659696287 C71.27720518832982 -8.58909874011832, 71.48447390238613 -8.158700820540354, 71.61229614880834 -7.893275190886684 M71.0699364742735 -9.019496659696287 C71.2332154318374 -8.680444410704855, 71.39649438940127 -8.341392161713422, 71.61229614880834 -7.893275190886684 M71.61229614880834 -7.893275190886684 C71.70759978548179 -7.657873365732806, 71.80290342215524 -7.422471540578928, 72.08138422997033 -6.734618561215508 M71.61229614880834 -7.893275190886684 C71.70718997957982 -7.658885594233729, 71.80208381035129 -7.424495997580773, 72.08138422997033 -6.734618561215508 M72.08138422997033 -6.734618561215508 C72.16351851797302 -6.487243172073028, 72.24565280597572 -6.239867782930549, 72.47527313421489 -5.548287939305138 M72.08138422997033 -6.734618561215508 C72.23606415382218 -6.268747275472733, 72.39074407767404 -5.802875989729959, 72.47527313421489 -5.548287939305138 M72.47527313421489 -5.548287939305138 C72.58943020206388 -5.112957563610754, 72.70358726991287 -4.6776271879163716, 72.79234428754556 -4.339158212148133 M72.47527313421489 -5.548287939305138 C72.5772422516072 -5.159435500993186, 72.67921136899953 -4.770583062681235, 72.79234428754556 -4.339158212148133 M72.79234428754556 -4.339158212148133 C72.87087953035163 -3.935896338768388, 72.94941477315771 -3.5326344653886435, 73.03129477658177 -3.1121979531509023 M72.79234428754556 -4.339158212148133 C72.84126002948445 -4.087986215637648, 72.89017577142334 -3.8368142191271626, 73.03129477658177 -3.1121979531509023 M73.03129477658177 -3.1121979531509023 C73.08159358803728 -2.72209030412583, 73.13189239949277 -2.331982655100757, 73.19114270250937 -1.872449005199798 M73.03129477658177 -3.1121979531509023 C73.0708450584497 -2.805453777069762, 73.11039534031764 -2.4987096009886214, 73.19114270250937 -1.872449005199798 M73.19114270250937 -1.872449005199798 C73.21697723968897 -1.4700552353644454, 73.24281177686856 -1.0676614655290928, 73.27123121591342 -0.6250057626472757 M73.19114270250937 -1.872449005199798 C73.21121239105919 -1.5598474060753236, 73.231282079609 -1.2472458069508492, 73.27123121591342 -0.6250057626472757 M73.27123121591342 -0.6250057626472757 C73.27123121591342 -0.3447492264521646, 73.27123121591342 -0.06449269025705351, 73.27123121591342 0.625005762647271 M73.27123121591342 -0.6250057626472757 C73.27123121591342 -0.22911314794932125, 73.27123121591342 0.1667794667486332, 73.27123121591342 0.625005762647271 M73.27123121591342 0.625005762647271 C73.24858739442435 0.9777015601031337, 73.2259435729353 1.3303973575589962, 73.19114270250937 1.8724490051997846 M73.27123121591342 0.625005762647271 C73.25192317434774 0.9257440952033236, 73.23261513278206 1.2264824277593762, 73.19114270250937 1.8724490051997846 M73.19114270250937 1.8724490051997846 C73.15749483500498 2.133415221040829, 73.1238469675006 2.394381436881873, 73.03129477658177 3.1121979531508885 M73.19114270250937 1.8724490051997846 C73.12782779248792 2.363506944382908, 73.06451288246649 2.854564883566031, 73.03129477658177 3.1121979531508885 M73.03129477658177 3.1121979531508885 C72.97598108219198 3.3962220832890107, 72.9206673878022 3.6802462134271328, 72.79234428754556 4.339158212148129 M73.03129477658177 3.1121979531508885 C72.94012548674345 3.5803329878344394, 72.84895619690514 4.048468022517991, 72.79234428754556 4.339158212148129 M72.79234428754556 4.339158212148129 C72.70136119158227 4.686116189379381, 72.61037809561898 5.033074166610633, 72.47527313421489 5.548287939305125 M72.79234428754556 4.339158212148129 C72.69609554711933 4.706196373861361, 72.59984680669308 5.073234535574592, 72.47527313421489 5.548287939305125 M72.47527313421489 5.548287939305125 C72.34430287851947 5.942749482183282, 72.21333262282407 6.337211025061438, 72.08138422997033 6.734618561215495 M72.47527313421489 5.548287939305125 C72.34518214799483 5.940101262616076, 72.21509116177478 6.331914585927025, 72.08138422997033 6.734618561215495 M72.08138422997033 6.734618561215495 C71.95978441165848 7.03497246341831, 71.83818459334663 7.335326365621125, 71.61229614880834 7.893275190886679 M72.08138422997033 6.734618561215495 C71.97114391900122 7.006914260660608, 71.86090360803212 7.279209960105721, 71.61229614880834 7.893275190886679 M71.61229614880834 7.893275190886679 C71.47177967610449 8.185060653027108, 71.33126320340062 8.476846115167538, 71.0699364742735 9.019496659696284 M71.61229614880834 7.893275190886679 C71.4269192682183 8.278214249861747, 71.24154238762824 8.663153308836817, 71.0699364742735 9.019496659696284 M71.0699364742735 9.019496659696284 C70.88676613725708 9.344734141076836, 70.70359580024066 9.669971622457387, 70.45653387860425 10.108655082055236 M71.0699364742735 9.019496659696284 C70.83209034286098 9.44181655055167, 70.59424421144844 9.864136441407055, 70.45653387860425 10.108655082055236 M70.45653387860425 10.108655082055236 C70.26886874555659 10.396959121560657, 70.08120361250893 10.685263161066079, 69.77460896464065 11.156274872382301 M70.45653387860425 10.108655082055236 C70.26978512412434 10.395551317998494, 70.08303636964442 10.682447553941753, 69.77460896464065 11.156274872382301 M69.77460896464065 11.156274872382301 C69.51881406363786 11.499016736331157, 69.26301916263508 11.841758600280013, 69.02696390812659 12.158051136245302 M69.77460896464065 11.156274872382301 C69.50185321530171 11.521742727936532, 69.22909746596277 11.887210583490763, 69.02696390812659 12.158051136245302 M69.02696390812659 12.158051136245302 C68.81466933577184 12.407424420836573, 68.60237476341707 12.656797705427847, 68.21667094296866 13.10986736009567 M69.02696390812659 12.158051136245302 C68.78781986389745 12.438963338278448, 68.54867581966832 12.719875540311595, 68.21667094296866 13.10986736009567 M68.21667094296866 13.10986736009567 C67.96945735032803 13.365135691110549, 67.72224375768738 13.620404022125427, 67.34705973676799 14.007812326905684 M68.21667094296866 13.10986736009567 C67.921289622181 13.414872825066372, 67.62590830139335 13.719878290037075, 67.34705973676799 14.007812326905684 M67.34705973676799 14.007812326905684 C67.07062992931613 14.258858564101558, 66.79420012186425 14.509904801297433, 66.4217037085019 14.848196188198111 M67.34705973676799 14.007812326905684 C67.15434986141419 14.182826336878106, 66.9616399860604 14.357840346850528, 66.4217037085019 14.848196188198111 M66.4217037085019 14.848196188198111 C66.03374869367761 15.157579988603954, 65.64579367885332 15.466963789009796, 65.44440534457871 15.627565626425152 M66.4217037085019 14.848196188198111 C66.17349552594784 15.046135608687832, 65.92528734339379 15.244075029177552, 65.44440534457871 15.627565626425152 M65.44440534457871 15.627565626425152 C65.03687469818986 15.911841363628664, 64.62934405180101 16.196117100832176, 64.4191805736057 16.34271804539089 M65.44440534457871 15.627565626425152 C65.08111022696507 15.88098457368026, 64.71781510935142 16.13440352093537, 64.4191805736057 16.34271804539089 M64.4191805736057 16.34271804539089 C64.11234837394832 16.528721527969342, 63.80551617429095 16.714725010547795, 63.35024226407678 16.990714730406093 M64.4191805736057 16.34271804539089 C64.08087452094323 16.547801162621923, 63.74256846828075 16.752884279852957, 63.35024226407678 16.990714730406093 M63.35024226407678 16.990714730406093 C62.93299204570354 17.208393902069893, 62.51574182733031 17.42607307373369, 62.24198291279239 17.56889292409717 M63.35024226407678 16.990714730406093 C63.000591333997775 17.173127396666203, 62.650940403918774 17.35554006292631, 62.24198291279239 17.56889292409717 M62.24198291279239 17.56889292409717 C61.983409581812886 17.68335566741646, 61.72483625083338 17.79781841073575, 61.098956595147804 18.07487676824742 M62.24198291279239 17.56889292409717 C61.81540855757462 17.75772473727342, 61.388834202356854 17.94655655044967, 61.098956595147804 18.07487676824742 M61.098956595147804 18.07487676824742 C60.71076745717493 18.21773395940249, 60.322578319202066 18.360591150557564, 59.92586025146062 18.506587066708033 M61.098956595147804 18.07487676824742 C60.661433294566045 18.235889387282562, 60.223909993984286 18.396902006317706, 59.92586025146062 18.506587066708033 M59.92586025146062 18.506587066708033 C59.60700998326196 18.601220152630184, 59.2881597150633 18.695853238552335, 58.72751438623541 18.86224982926107 M59.92586025146062 18.506587066708033 C59.526282154762995 18.625179748379658, 59.12670405806538 18.743772430051283, 58.72751438623541 18.86224982926107 M58.72751438623541 18.86224982926107 C58.35598910202352 18.94704805095338, 57.98446381781163 19.03184627264569, 57.508843259676766 19.140403561325773 M58.72751438623541 18.86224982926107 C58.26764537691436 18.967211929712864, 57.80777636759331 19.072174030164657, 57.508843259676766 19.140403561325773 M57.508843259676766 19.140403561325773 C57.13006992248941 19.201640697051126, 56.75129658530206 19.262877832776475, 56.27485465284788 19.3399052695533 M57.508843259676766 19.140403561325773 C57.03542317441192 19.2169424492838, 56.562003089147076 19.293481337241825, 56.27485465284788 19.3399052695533 M56.27485465284788 19.3399052695533 C55.908383491627845 19.375258301730142, 55.54191233040782 19.41061133390698, 55.0306192896239 19.45993515863156 M56.27485465284788 19.3399052695533 C55.82306183873654 19.383489178970265, 55.371269024625214 19.42707308838723, 55.0306192896239 19.45993515863156 M55.0306192896239 19.45993515863156 C54.748119192656645 19.468994386888216, 54.46561909568939 19.478053615144876, 53.78125000000001 19.5 M55.0306192896239 19.45993515863156 C54.6339644695808 19.472655106668572, 54.2373096495377 19.48537505470558, 53.78125000000001 19.5 M53.78125000000001 19.5 C53.78125000000001 19.5, 53.78125 19.5, 53.78125 19.5 M53.78125000000001 19.5 C53.78125000000001 19.5, 53.78125 19.5, 53.78125 19.5 M53.78125 19.5 C18.87385215184002 19.5, -16.033545696319962 19.5, -53.78124999999999 19.5 M53.78125 19.5 C30.992685063850082 19.5, 8.204120127700165 19.5, -53.78124999999999 19.5 M-53.78124999999999 19.5 C-54.08088327800286 19.490391343975244, -54.38051655600573 19.480782687950487, -55.03061928962389 19.45993515863156 M-53.78124999999999 19.5 C-54.16694541697103 19.487631498688327, -54.552640833942064 19.47526299737665, -55.03061928962389 19.45993515863156 M-55.03061928962389 19.45993515863156 C-55.302091835537986 19.43374652862073, -55.57356438145208 19.4075578986099, -56.27485465284787 19.3399052695533 M-55.03061928962389 19.45993515863156 C-55.354240114496854 19.42871584686705, -55.677860939369815 19.39749653510254, -56.27485465284787 19.3399052695533 M-56.27485465284787 19.3399052695533 C-56.62499926741226 19.28329660368257, -56.975143881976635 19.22668793781184, -57.50884325967676 19.140403561325773 M-56.27485465284787 19.3399052695533 C-56.67470492077814 19.27526057911947, -57.074555188708416 19.210615888685645, -57.50884325967676 19.140403561325773 M-57.50884325967676 19.140403561325773 C-57.85280829104824 19.061895787496827, -58.19677332241973 18.983388013667884, -58.727514386235384 18.862249829261074 M-57.50884325967676 19.140403561325773 C-57.781805062753115 19.078101811015824, -58.05476686582947 19.015800060705878, -58.727514386235384 18.862249829261074 M-58.727514386235384 18.862249829261074 C-59.06944073681753 18.760767883216335, -59.411367087399675 18.659285937171592, -59.92586025146059 18.506587066708043 M-58.727514386235384 18.862249829261074 C-59.20182613638511 18.72147659152982, -59.676137886534825 18.580703353798565, -59.92586025146059 18.506587066708043 M-59.92586025146059 18.506587066708043 C-60.33078216455675 18.357572059631526, -60.735704077652905 18.208557052555005, -61.0989565951478 18.074876768247425 M-59.92586025146059 18.506587066708043 C-60.176765845744555 18.414251488665656, -60.427671440028526 18.321915910623268, -61.0989565951478 18.074876768247425 M-61.0989565951478 18.074876768247425 C-61.41171123758071 17.93642956557921, -61.724465880013625 17.797982362910997, -62.24198291279238 17.568892924097174 M-61.0989565951478 18.074876768247425 C-61.471120160594644 17.91013099766403, -61.843283726041484 17.745385227080636, -62.24198291279238 17.568892924097174 M-62.24198291279238 17.568892924097174 C-62.465640565226636 17.45221087008179, -62.68929821766089 17.3355288160664, -63.35024226407678 16.990714730406097 M-62.24198291279238 17.568892924097174 C-62.470161742049825 17.44985217502908, -62.69834057130728 17.330811425960984, -63.35024226407678 16.990714730406097 M-63.35024226407678 16.990714730406097 C-63.56454882782173 16.86080083205875, -63.77885539156667 16.730886933711403, -64.41918057360569 16.3427180453909 M-63.35024226407678 16.990714730406097 C-63.56670590550029 16.85949319889361, -63.7831695469238 16.728271667381122, -64.41918057360569 16.3427180453909 M-64.41918057360569 16.3427180453909 C-64.78272384200827 16.089125998887702, -65.14626711041086 15.835533952384502, -65.44440534457871 15.627565626425156 M-64.41918057360569 16.3427180453909 C-64.73681719667357 16.121148487406543, -65.05445381974145 15.899578929422189, -65.44440534457871 15.627565626425156 M-65.44440534457871 15.627565626425156 C-65.66380857744032 15.452597386783252, -65.88321181030193 15.277629147141345, -66.42170370850187 14.848196188198125 M-65.44440534457871 15.627565626425156 C-65.75516485434378 15.379743187045374, -66.06592436410884 15.131920747665593, -66.42170370850187 14.848196188198125 M-66.42170370850187 14.848196188198125 C-66.73300577588489 14.565479887202212, -67.04430784326792 14.282763586206299, -67.34705973676797 14.007812326905697 M-66.42170370850187 14.848196188198125 C-66.78878116682036 14.514826152890596, -67.15585862513886 14.181456117583066, -67.34705973676797 14.007812326905697 M-67.34705973676797 14.007812326905697 C-67.66494016302613 13.679574688325783, -67.9828205892843 13.351337049745869, -68.21667094296865 13.109867360095677 M-67.34705973676797 14.007812326905697 C-67.60380482375292 13.742701945430078, -67.86054991073787 13.477591563954457, -68.21667094296865 13.109867360095677 M-68.21667094296865 13.109867360095677 C-68.44428711364893 12.842496454287613, -68.67190328432919 12.575125548479546, -69.02696390812658 12.158051136245307 M-68.21667094296865 13.109867360095677 C-68.53745186848664 12.733059832030495, -68.85823279400464 12.356252303965313, -69.02696390812658 12.158051136245307 M-69.02696390812658 12.158051136245307 C-69.21839348952145 11.90155293676981, -69.40982307091632 11.645054737294316, -69.77460896464063 11.156274872382316 M-69.02696390812658 12.158051136245307 C-69.24781841628554 11.862126215571902, -69.4686729244445 11.566201294898498, -69.77460896464063 11.156274872382316 M-69.77460896464063 11.156274872382316 C-69.98926123742078 10.826511339186109, -70.20391351020092 10.4967478059899, -70.45653387860425 10.108655082055249 M-69.77460896464063 11.156274872382316 C-69.91173125194328 10.945618216595681, -70.04885353924593 10.73496156080905, -70.45653387860425 10.108655082055249 M-70.45653387860425 10.108655082055249 C-70.61641277723437 9.824773908043444, -70.7762916758645 9.54089273403164, -71.0699364742735 9.019496659696289 M-70.45653387860425 10.108655082055249 C-70.67796816377174 9.715476086087572, -70.89940244893923 9.322297090119894, -71.0699364742735 9.019496659696289 M-71.0699364742735 9.019496659696289 C-71.20523003304618 8.738556690086403, -71.34052359181887 8.457616720476517, -71.61229614880834 7.893275190886686 M-71.0699364742735 9.019496659696289 C-71.18703863113466 8.77633152538934, -71.3041407879958 8.533166391082393, -71.61229614880834 7.893275190886686 M-71.61229614880834 7.893275190886686 C-71.76209144742205 7.523277907215749, -71.91188674603576 7.153280623544812, -72.08138422997033 6.73461856121551 M-71.61229614880834 7.893275190886686 C-71.74570548944224 7.563751540226801, -71.87911483007616 7.234227889566916, -72.08138422997033 6.73461856121551 M-72.08138422997033 6.73461856121551 C-72.18219961785147 6.4309786756681895, -72.28301500573262 6.127338790120868, -72.47527313421489 5.5482879393051325 M-72.08138422997033 6.73461856121551 C-72.18097022616075 6.43468140756366, -72.2805562223512 6.134744253911808, -72.47527313421489 5.5482879393051325 M-72.47527313421489 5.5482879393051325 C-72.56122971888243 5.220498228148313, -72.64718630354999 4.892708516991492, -72.79234428754556 4.339158212148136 M-72.47527313421489 5.5482879393051325 C-72.55381279176899 5.2487821857484285, -72.6323524493231 4.949276432191725, -72.79234428754556 4.339158212148136 M-72.79234428754556 4.339158212148136 C-72.88549422283437 3.8608529816858805, -72.97864415812319 3.3825477512236257, -73.03129477658177 3.112197953150904 M-72.79234428754556 4.339158212148136 C-72.84660525856037 4.060539594047333, -72.9008662295752 3.7819209759465293, -73.03129477658177 3.112197953150904 M-73.03129477658177 3.112197953150904 C-73.06700914396639 2.835204372315367, -73.102723511351 2.5582107914798304, -73.19114270250937 1.872449005199809 M-73.03129477658177 3.112197953150904 C-73.06878633040354 2.821420865254028, -73.10627788422529 2.5306437773571515, -73.19114270250937 1.872449005199809 M-73.19114270250937 1.872449005199809 C-73.21870271499773 1.4431795646519252, -73.24626272748608 1.0139101241040414, -73.27123121591342 0.6250057626472781 M-73.19114270250937 1.872449005199809 C-73.22192305195333 1.3930202171592394, -73.25270340139728 0.91359142911867, -73.27123121591342 0.6250057626472781 M-73.27123121591342 0.6250057626472781 C-73.27123121591342 0.1783967905649868, -73.27123121591342 -0.2682121815173045, -73.27123121591342 -0.6250057626472687 M-73.27123121591342 0.6250057626472781 C-73.27123121591342 0.2627585593027581, -73.27123121591342 -0.09948864404176194, -73.27123121591342 -0.6250057626472687 M-73.27123121591342 -0.6250057626472687 C-73.23991757861981 -1.1127409394083851, -73.20860394132619 -1.6004761161695016, -73.19114270250937 -1.8724490051997822 M-73.27123121591342 -0.6250057626472687 C-73.2494742303542 -0.9638883746547425, -73.22771724479497 -1.3027709866622164, -73.19114270250937 -1.8724490051997822 M-73.19114270250937 -1.8724490051997822 C-73.13331519003917 -2.3209477725846464, -73.07548767756899 -2.7694465399695103, -73.03129477658177 -3.112197953150895 M-73.19114270250937 -1.8724490051997822 C-73.12776353399114 -2.3640053205946963, -73.06438436547292 -2.8555616359896105, -73.03129477658177 -3.112197953150895 M-73.03129477658177 -3.112197953150895 C-72.95142901000949 -3.5222917848638486, -72.87156324343721 -3.9323856165768016, -72.79234428754556 -4.339158212148126 M-73.03129477658177 -3.112197953150895 C-72.96408684879256 -3.457296457947934, -72.89687892100335 -3.8023949627449727, -72.79234428754556 -4.339158212148126 M-72.79234428754556 -4.339158212148126 C-72.71629167181943 -4.6291797973239985, -72.64023905609331 -4.919201382499872, -72.47527313421489 -5.548287939305123 M-72.79234428754556 -4.339158212148126 C-72.7017277749293 -4.684718248198967, -72.61111126231302 -5.030278284249809, -72.47527313421489 -5.548287939305123 M-72.47527313421489 -5.548287939305123 C-72.3263865980769 -5.996710464304696, -72.1775000619389 -6.445132989304269, -72.08138422997033 -6.734618561215485 M-72.47527313421489 -5.548287939305123 C-72.33532207280534 -5.969798238097207, -72.19537101139578 -6.39130853688929, -72.08138422997033 -6.734618561215485 M-72.08138422997033 -6.734618561215485 C-71.91826812165661 -7.137518502385788, -71.7551520133429 -7.54041844355609, -71.61229614880834 -7.893275190886676 M-72.08138422997033 -6.734618561215485 C-71.97359702263053 -7.000855047268683, -71.86580981529072 -7.2670915333218815, -71.61229614880834 -7.893275190886676 M-71.61229614880834 -7.893275190886676 C-71.46564591784603 -8.197797533292176, -71.31899568688374 -8.502319875697676, -71.0699364742735 -9.019496659696282 M-71.61229614880834 -7.893275190886676 C-71.43577785636242 -8.259819202037043, -71.2592595639165 -8.62636321318741, -71.0699364742735 -9.019496659696282 M-71.0699364742735 -9.019496659696282 C-70.92118616104474 -9.283617903436484, -70.772435847816 -9.547739147176687, -70.45653387860425 -10.108655082055243 M-71.0699364742735 -9.019496659696282 C-70.8932734557393 -9.333179738174202, -70.7166104372051 -9.646862816652122, -70.45653387860425 -10.108655082055243 M-70.45653387860425 -10.108655082055243 C-70.31239429455796 -10.330092190048122, -70.16825471051169 -10.551529298041, -69.77460896464063 -11.156274872382308 M-70.45653387860425 -10.108655082055243 C-70.3132847881906 -10.328724152697372, -70.17003569777695 -10.548793223339503, -69.77460896464063 -11.156274872382308 M-69.77460896464063 -11.156274872382308 C-69.59671717854965 -11.394633659469125, -69.41882539245866 -11.632992446555942, -69.02696390812659 -12.158051136245302 M-69.77460896464063 -11.156274872382308 C-69.4854563967653 -11.543712970994424, -69.19630382888995 -11.931151069606537, -69.02696390812659 -12.158051136245302 M-69.02696390812659 -12.158051136245302 C-68.8096126422399 -12.413364300793202, -68.59226137635319 -12.668677465341101, -68.21667094296866 -13.10986736009567 M-69.02696390812659 -12.158051136245302 C-68.81275832771664 -12.40966919963764, -68.5985527473067 -12.66128726302998, -68.21667094296866 -13.10986736009567 M-68.21667094296866 -13.10986736009567 C-67.97833554650882 -13.355968224640424, -67.74000015004896 -13.602069089185179, -67.34705973676799 -14.007812326905677 M-68.21667094296866 -13.10986736009567 C-67.99307229865977 -13.34075131813471, -67.76947365435086 -13.57163527617375, -67.34705973676799 -14.007812326905677 M-67.34705973676799 -14.007812326905677 C-67.12511078135684 -14.209380495762522, -66.9031618259457 -14.410948664619365, -66.4217037085019 -14.848196188198107 M-67.34705973676799 -14.007812326905677 C-67.07483063482059 -14.255043594506974, -66.80260153287318 -14.502274862108269, -66.4217037085019 -14.848196188198107 M-66.4217037085019 -14.848196188198107 C-66.19249889044282 -15.03098093120385, -65.96329407238375 -15.213765674209592, -65.44440534457871 -15.627565626425149 M-66.4217037085019 -14.848196188198107 C-66.1009873434764 -15.103958954685032, -65.7802709784509 -15.359721721171956, -65.44440534457871 -15.627565626425149 M-65.44440534457871 -15.627565626425149 C-65.0671846751991 -15.890698435764781, -64.68996400581948 -16.153831245104413, -64.41918057360571 -16.342718045390885 M-65.44440534457871 -15.627565626425149 C-65.23632507503812 -15.77271341480698, -65.02824480549752 -15.91786120318881, -64.41918057360571 -16.342718045390885 M-64.41918057360571 -16.342718045390885 C-64.07536480784704 -16.5511411830795, -63.73154904208837 -16.75956432076812, -63.35024226407679 -16.99071473040609 M-64.41918057360571 -16.342718045390885 C-64.19817843415491 -16.476690841078696, -63.977176294704094 -16.610663636766507, -63.35024226407679 -16.99071473040609 M-63.35024226407679 -16.99071473040609 C-63.09192794831772 -17.12547714347938, -62.83361363255865 -17.260239556552673, -62.24198291279239 -17.56889292409717 M-63.35024226407679 -16.99071473040609 C-63.00569524275928 -17.170464690734534, -62.66114822144177 -17.35021465106298, -62.24198291279239 -17.56889292409717 M-62.24198291279239 -17.56889292409717 C-61.798743731868726 -17.76510176126893, -61.35550455094507 -17.961310598440686, -61.098956595147804 -18.07487676824742 M-62.24198291279239 -17.56889292409717 C-61.85233917202673 -17.74137664976323, -61.46269543126107 -17.913860375429284, -61.098956595147804 -18.07487676824742 M-61.098956595147804 -18.07487676824742 C-60.76872588310012 -18.19640472290021, -60.43849517105243 -18.317932677552996, -59.92586025146062 -18.506587066708033 M-61.098956595147804 -18.07487676824742 C-60.80414711713876 -18.18336938134369, -60.50933763912971 -18.29186199443996, -59.92586025146062 -18.506587066708033 M-59.92586025146062 -18.506587066708033 C-59.6782568180099 -18.580074466059262, -59.43065338455918 -18.65356186541049, -58.72751438623541 -18.862249829261067 M-59.92586025146062 -18.506587066708033 C-59.66105921242327 -18.5851786251253, -59.39625817338592 -18.66377018354257, -58.72751438623541 -18.862249829261067 M-58.72751438623541 -18.862249829261067 C-58.24759829270065 -18.97178754586519, -57.76768219916589 -19.081325262469313, -57.508843259676766 -19.140403561325773 M-58.72751438623541 -18.862249829261067 C-58.44501704424265 -18.926728004103477, -58.16251970224989 -18.99120617894589, -57.508843259676766 -19.140403561325773 M-57.508843259676766 -19.140403561325773 C-57.19904138388653 -19.19048992605411, -56.889239508096296 -19.240576290782446, -56.27485465284788 -19.3399052695533 M-57.508843259676766 -19.140403561325773 C-57.05976596866113 -19.213006895090775, -56.6106886776455 -19.285610228855777, -56.27485465284788 -19.3399052695533 M-56.27485465284788 -19.3399052695533 C-55.86964925622874 -19.378994946834357, -55.464443859609595 -19.41808462411542, -55.0306192896239 -19.45993515863156 M-56.27485465284788 -19.3399052695533 C-55.92405878988778 -19.373746124559307, -55.57326292692768 -19.40758697956532, -55.0306192896239 -19.45993515863156 M-55.0306192896239 -19.45993515863156 C-54.72518537226758 -19.469729829870122, -54.419751454911264 -19.479524501108685, -53.78125000000001 -19.5 M-55.0306192896239 -19.45993515863156 C-54.62355989451856 -19.47298876113954, -54.216500499413215 -19.48604236364752, -53.78125000000001 -19.5 M-53.78125000000001 -19.5 C-53.78125000000001 -19.5, -53.78125 -19.5, -53.78125 -19.5 M-53.78125000000001 -19.5 C-53.78125000000001 -19.5, -53.78125 -19.5, -53.78125 -19.5" stroke="#ccc" stroke-width="1.3" fill="none" stroke-dasharray="0 0" style=""/></g><g class="label" style="" transform="translate(-60.90625, -12)"><rect/><foreignObject width="121.8125" height="24"><div xmlns="http://www.w3.org/1999/xhtml" style="display: table-cell; white-space: nowrap; line-height: 1.5; max-width: 200px; text-align: center;"><span class="nodeLabel"><p>matrix_task_start</p></span></div></foreignObject></g></g><g class="node default" id="my-svg-flowchart-REG-1" data-look="classic" transform="translate(220.55859375, 136)"><rect class="basic label-container" style="" x="-130" y="-39" width="260" height="78"/><g class="label" style="" transform="translate(-100, -24)"><rect/><foreignObject width="200" height="48"><div xmlns="http://www.w3.org/1999/xhtml" style="display: table; white-space: break-spaces; line-height: 1.5; max-width: 200px; text-align: center; width: 200px;"><span class="nodeLabel"><p>WDT · matrix_reset · pattern</p></span></div></foreignObject></g></g><g class="node default" id="my-svg-flowchart-LOOP-3" data-look="classic" transform="translate(220.55859375, 244.5)"><polygon points="9.75,0 56.765625,0 66.515625,-19.5 56.765625,-39 9.75,-39 0,-19.5" class="label-container" transform="translate(-33.2578125,19.5)"/><g class="label" style="" transform="translate(-16.0078125, -12)"><rect/><foreignObject width="32.015625" height="24"><div xmlns="http://www.w3.org/1999/xhtml" style="display: table-cell; white-space: nowrap; line-height: 1.5; max-width: 200px; text-align: center;"><span class="nodeLabel"><p>for ;;</p></span></div></foreignObject></g></g><g class="node default" id="my-svg-flowchart-WDT-5" data-look="classic" transform="translate(138.0390625, 341)"><rect class="basic label-container" style="" x="-68.078125" y="-27" width="136.15625" height="54"/><g class="label" style="" transform="translate(-38.078125, -12)"><rect/><foreignObject width="76.15625" height="24"><div xmlns="http://www.w3.org/1999/xhtml" style="display: table-cell; white-space: nowrap; line-height: 1.5; max-width: 200px; text-align: center;"><span class="nodeLabel"><p>WDT reset</p></span></div></foreignObject></g></g><g class="node default" id="my-svg-flowchart-CMD-7" data-look="classic" transform="translate(138.0390625, 469)"><rect class="basic label-container" style="" x="-130.0390625" y="-51" width="260.078125" height="102"/><g class="label" style="" transform="translate(-100.0390625, -36)"><rect/><foreignObject width="200.078125" height="72"><div xmlns="http://www.w3.org/1999/xhtml" style="display: table; white-space: break-spaces; line-height: 1.5; max-width: 200px; text-align: center; width: 200px;"><span class="nodeLabel"><p>matrix_process_commands — drain matrix_command_queue</p></span></div></foreignObject></g></g><g class="node default" id="my-svg-flowchart-NOTE-9" data-look="classic" transform="translate(138.0390625, 609)"><rect class="basic label-container" style="" x="-130" y="-39" width="260" height="78"/><g class="label" style="" transform="translate(-100, -24)"><rect/><foreignObject width="200" height="48"><div xmlns="http://www.w3.org/1999/xhtml" style="display: table; white-space: break-spaces; line-height: 1.5; max-width: 200px; text-align: center; width: 200px;"><span class="nodeLabel"><p>GPIO scan driven by timer callback — not directly here</p></span></div></foreignObject></g></g><g class="node default" id="my-svg-flowchart-DLY-11" data-look="classic" transform="translate(220.55859375, 725)"><rect class="basic label-container" style="" x="-110.9140625" y="-27" width="221.828125" height="54"/><g class="label" style="" transform="translate(-80.9140625, -12)"><rect/><foreignObject width="161.828125" height="24"><div xmlns="http://www.w3.org/1999/xhtml" style="display: table-cell; white-space: nowrap; line-height: 1.5; max-width: 200px; text-align: center;"><span class="nodeLabel"><p>vTaskDelayUntil 10 ms</p></span></div></foreignObject></g></g></g></g></g><defs><filter id="my-svg-drop-shadow" height="130%" width="130%"><feDropShadow dx="4" dy="4" stdDeviation="0" flood-opacity="0.06" flood-color="#FFFFFF"/></filter></defs><defs><filter id="my-svg-drop-shadow-small" height="150%" width="150%"><feDropShadow dx="2" dy="2" stdDeviation="0" flood-opacity="0.06" flood-color="#FFFFFF"/></filter></defs><linearGradient id="my-svg-gradient" gradientUnits="objectBoundingBox" x1="0%" y1="0%" x2="100%" y2="0%"><stop offset="0%" stop-color="#cccccc" stop-opacity="1"/><stop offset="100%" stop-color="hsl(180, 0%, 18.3529411765%)" stop-opacity="1"/></linearGradient></svg>