<svg id="my-svg" width="100%" xmlns="http://www.w3.org/2000/svg" xmlns:xlink="http://www.w3.org/1999/xlink" class="flowchart" style="max-width: 742.434px; background-color: transparent;" viewBox="0 0 742.43359375 1963.5" role="graphics-document document" aria-roledescription="flowchart-v2"><style>#my-svg{font-size:16px;fill:#ccc;}@keyframes edge-animation-frame{from{stroke-dashoffset:0;}}@keyframes dash{to{stroke-dashoffset:0;}}#my-svg .edge-animation-slow{stroke-dasharray:9,5!important;stroke-dashoffset:900;animation:dash 50s linear infinite;stroke-linecap:round;}#my-svg .edge-animation-fast{stroke-dasharray:9,5!important;stroke-dashoffset:900;animation:dash 20s linear infinite;stroke-linecap:round;}#my-svg .error-icon{fill:#a44141;}#my-svg .error-text{fill:#ddd;stroke:#ddd;}#my-svg .edge-thickness-normal{stroke-width:1px;}#my-svg .edge-thickness-thick{stroke-width:3.5px;}#my-svg .edge-pattern-solid{stroke-dasharray:0;}#my-svg .edge-thickness-invisible{stroke-width:0;fill:none;}#my-svg .edge-pattern-dashed{stroke-dasharray:3;}#my-svg .edge-pattern-dotted{stroke-dasharray:2;}#my-svg .marker{fill:#94a3b8;stroke:#94a3b8;}#my-svg .marker.cross{stroke:#94a3b8;}#my-svg svg{font-size:16px;}#my-svg p{margin:0;}#my-svg .label{color:#ccc;}#my-svg .cluster-label text{fill:#f8fafc;}#my-svg .cluster-label span{color:#f8fafc;}#my-svg .cluster-label span p{background-color:transparent;}#my-svg .label text,#my-svg span{fill:#ccc;color:#ccc;}#my-svg .node rect,#my-svg .node circle,#my-svg .node ellipse,#my-svg .node polygon,#my-svg .node path{fill:#1f2020;stroke:#ccc;stroke-width:1px;}#my-svg .rough-node .label text,#my-svg .node .label text,#my-svg .image-shape .label,#my-svg .icon-shape .label{text-anchor:middle;}#my-svg .node .katex path{fill:#000;stroke:#000;stroke-width:1px;}#my-svg .rough-node .label,#my-svg .node .label,#my-svg .image-shape .label,#my-svg .icon-shape .label{text-align:center;}#my-svg .node.clickable{cursor:pointer;}#my-svg .root .anchor path{fill:#94a3b8!important;stroke-width:0;stroke:#94a3b8;}#my-svg .arrowheadPath{fill:lightgrey;}#my-svg .edgePath .path{stroke:#94a3b8;stroke-width:1px;}#my-svg .flowchart-link{stroke:#94a3b8;fill:none;}#my-svg .edgeLabel{background-color:#1e293b;text-align:center;}#my-svg .edgeLabel p{background-color:#1e293b;}#my-svg .edgeLabel rect{opacity:0.5;background-color:#1e293b;fill:#1e293b;}#my-svg .labelBkg{background-color:rgba(30, 41, 59, 0.5);}#my-svg .cluster rect{fill:#0f172a;stroke:#334155;stroke-width:1px;}#my-svg .cluster text{fill:#f8fafc;}#my-svg .cluster span{color:#f8fafc;}#my-svg div.mermaidTooltip{position:absolute;text-align:center;max-width:200px;padding:2px;font-size:12px;background:hsl(20, 1.5873015873%, 12.3529411765%);border:1px solid rgba(255, 255, 255, 0.25);border-radius:2px;pointer-events:none;z-index:100;}#my-svg .flowchartTitleText{text-anchor:middle;font-size:18px;fill:#ccc;}#my-svg rect.text{fill:none;stroke-width:0;}#my-svg .icon-shape,#my-svg .image-shape{background-color:#1e293b;text-align:center;}#my-svg .icon-shape p,#my-svg .image-shape p{background-color:#1e293b;padding:2px;}#my-svg .icon-shape .label rect,#my-svg .image-shape .label rect{opacity:0.5;background-color:#1e293b;fill:#1e293b;}#my-svg .label-icon{display:inline-block;height:1em;overflow:visible;vertical-align:-0.125em;}#my-svg .node .label-icon path{fill:currentColor;stroke:revert;stroke-width:revert;}#my-svg .node .neo-node{stroke:#ccc;}#my-svg [data-look="neo"].node rect,#my-svg [data-look="neo"].cluster rect,#my-svg [data-look="neo"].node polygon{stroke:url(#my-svg-gradient);filter:drop-shadow( 1px 2px 2px rgba(185,185,185,1));}#my-svg [data-look="neo"].node path{stroke:url(#my-svg-gradient);stroke-width:1px;}#my-svg [data-look="neo"].node .outer-path{filter:drop-shadow( 1px 2px 2px rgba(185,185,185,1));}#my-svg [data-look="neo"].node .neo-line path{stroke:#ccc;filter:none;}#my-svg [data-look="neo"].node circle{stroke:url(#my-svg-gradient);filter:drop-shadow( 1px 2px 2px rgba(185,185,185,1));}#my-svg [data-look="neo"].node circle .state-start{fill:#000000;}#my-svg [data-look="neo"].icon-shape .icon{fill:url(#my-svg-gradient);filter:drop-shadow( 1px 2px 2px rgba(185,185,185,1));}#my-svg [data-look="neo"].icon-shape .icon-neo path{stroke:url(#my-svg-gradient);filter:drop-shadow( 1px 2px 2px rgba(185,185,185,1));}#my-svg :root{--mermaid-font-family:"trebuchet ms",verdana,arial,sans-serif;}#my-svg .path&gt;*{fill:#1e3a8a!important;stroke:#38bdf8!important;color:#e0f2fe!important;}#my-svg .path span{fill:#1e3a8a!important;stroke:#38bdf8!important;color:#e0f2fe!important;}#my-svg .path tspan{fill:#e0f2fe!important;}</style><g><marker id="my-svg_flowchart-v2-pointEnd" class="marker flowchart-v2" viewBox="0 0 10 10" refX="5" refY="5" markerUnits="userSpaceOnUse" markerWidth="8" markerHeight="8" orient="auto"><path d="M 0 0 L 10 5 L 0 10 z" class="arrowMarkerPath" style="stroke-width: 1; stroke-dasharray: 1, 0;"/></marker><marker id="my-svg_flowchart-v2-pointStart" class="marker flowchart-v2" viewBox="0 0 10 10" refX="4.5" refY="5" markerUnits="userSpaceOnUse" markerWidth="8" markerHeight="8" orient="auto"><path d="M 0 5 L 10 10 L 10 0 z" class="arrowMarkerPath" style="stroke-width: 1; stroke-dasharray: 1, 0;"/></marker><marker id="my-svg_flowchart-v2-pointEnd-margin" class="marker flowchart-v2" viewBox="0 0 11.5 14" refX="11.5" refY="7" markerUnits="userSpaceOnUse" markerWidth="10.5" markerHeight="14" orient="auto"><path d="M 0 0 L 11.5 7 L 0 14 z" class="arrowMarkerPath" style="stroke-width: 0; stroke-dasharray: 1, 0;"/></marker><marker id="my-svg_flowchart-v2-pointStart-margin" class="marker flowchart-v2" viewBox="0 0 11.5 14" refX="1" refY="7" markerUnits="userSpaceOnUse" markerWidth="11.5" markerHeight="14" orient="auto"><polygon points="0,7 11.5,14 11.5,0" class="arrowMarkerPath" style="stroke-width: 0; stroke-dasharray: 1, 0;"/></marker><marker id="my-svg_flowchart-v2-circleEnd" class="marker flowchart-v2" viewBox="0 0 10 10" refX="11" refY="5" markerUnits="userSpaceOnUse" markerWidth="11" markerHeight="11" orient="auto"><circle cx="5" cy="5" r="5" class="arrowMarkerPath" style="stroke-width: 1; stroke-dasharray: 1, 0;"/></marker><marker id="my-svg_flowchart-v2-circleStart" class="marker flowchart-v2" viewBox="0 0 10 10" refX="-1" refY="5" markerUnits="userSpaceOnUse" markerWidth="11" markerHeight="11" orient="auto"><circle cx="5" cy="5" r="5" class="arrowMarkerPath" style="stroke-width: 1; stroke-dasharray: 1, 0;"/></marker><marker id="my-svg_flowchart-v2-circleEnd-margin" class="marker flowchart-v2" viewBox="0 0 10 10" refY="5" refX="12.25" markerUnits="userSpaceOnUse" markerWidth="14" markerHeight="14" orient="auto"><circle cx="5" cy="5" r="5" class="arrowMarkerPath" style="stroke-width: 0; stroke-dasharray: 1, 0;"/></marker><marker id="my-svg_flowchart-v2-circleStart-margin" class="marker flowchart-v2" viewBox="0 0 10 10" refX="-2" refY="5" markerUnits="userSpaceOnUse" markerWidth="14" markerHeight="14" orient="auto"><circle cx="5" cy="5" r="5" class="arrowMarkerPath" style="stroke-width: 0; stroke-dasharray: 1, 0;"/></marker><marker id="my-svg_flowchart-v2-crossEnd" class="marker cross flowchart-v2" viewBox="0 0 11 11" refX="12" refY="5.2" markerUnits="userSpaceOnUse" markerWidth="11" markerHeight="11" orient="auto"><path d="M 1,1 l 9,9 M 10,1 l -9,9" class="arrowMarkerPath" style="stroke-width: 2; stroke-dasharray: 1, 0;"/></marker><marker id="my-svg_flowchart-v2-crossStart" class="marker cross flowchart-v2" viewBox="0 0 11 11" refX="-1" refY="5.2" markerUnits="userSpaceOnUse" markerWidth="11" markerHeight="11" orient="auto"><path d="M 1,1 l 9,9 M 10,1 l -9,9" class="arrowMarkerPath" style="stroke-width: 2; stroke-dasharray: 1, 0;"/></marker><marker id="my-svg_flowchart-v2-crossEnd-margin" class="marker cross flowchart-v2" viewBox="0 0 15 15" refX="17.7" refY="7.5" markerUnits="userSpaceOnUse" markerWidth="12" markerHeight="12" orient="auto"><path d="M 1,1 L 14,14 M 1,14 L 14,1" class="arrowMarkerPath" style="stroke-width: 2.5;"/></marker><marker id="my-svg_flowchart-v2-crossStart-margin" class="marker cross flowchart-v2" viewBox="0 0 15 15" refX="-3.5" refY="7.5" markerUnits="userSpaceOnUse" markerWidth="12" markerHeight="12" orient="auto"><path d="M 1,1 L 14,14 M 1,14 L 14,1" class="arrowMarkerPath" style="stroke-width: 2.5; stroke-dasharray: 1, 0;"/></marker><g class="root"><g class="clusters"/><g class="edgePaths"><path d="M259.492,47.5L259.409,51.583C259.326,55.667,259.159,63.833,259.076,71.417C258.992,79,258.992,86,258.992,89.5L258.992,93" id="my-svg-L_START_INIT_0" class="edge-thickness-normal edge-pattern-solid edge-thickness-normal edge-pattern-solid flowchart-link" style=";" data-edge="true" data-et="edge" data-id="L_START_INIT_0" data-points="W3sieCI6MjU5LjQ5MjE4NzUsInkiOjQ3LjV9LHsieCI6MjU4Ljk5MjE4NzUsInkiOjcyfSx7IngiOjI1OC45OTIxODc1LCJ5Ijo5N31d" data-look="classic" marker-end="url(#my-svg_flowchart-v2-pointEnd)"/><path d="M258.992,223L258.992,227.167C258.992,231.333,258.992,239.667,259.062,247.417C259.133,255.167,259.273,262.334,259.344,265.917L259.414,269.501" id="my-svg-L_INIT_LOOP_0" class="edge-thickness-normal edge-pattern-solid edge-thickness-normal edge-pattern-solid flowchart-link" style=";" data-edge="true" data-et="edge" data-id="L_INIT_LOOP_0" data-points="W3sieCI6MjU4Ljk5MjE4NzUsInkiOjIyM30seyJ4IjoyNTguOTkyMTg3NSwieSI6MjQ4fSx7IngiOjI1OS40OTIxODc1LCJ5IjoyNzMuNX1d" data-look="classic" marker-end="url(#my-svg_flowchart-v2-pointEnd)"/><path d="M228.211,302.235L208.22,308.029C188.228,313.823,148.245,325.412,128.253,334.706C108.262,344,108.262,351,108.262,354.5L108.262,358" id="my-svg-L_LOOP_BOOT_0" class="edge-thickness-normal edge-pattern-solid edge-thickness-normal edge-pattern-solid flowchart-link" style=";" data-edge="true" data-et="edge" data-id="L_LOOP_BOOT_0" data-points="W3sieCI6MjI4LjIxMTI2Njg4MDA2NjgzLCJ5IjozMDIuMjM1MDMzNzYwMTMzNjZ9LHsieCI6MTA4LjI2MTcxODc1LCJ5IjozMzd9LHsieCI6MTA4LjI2MTcxODc1LCJ5IjozNjJ9XQ==" data-look="classic" marker-end="url(#my-svg_flowchart-v2-pointEnd)"/><path d="M108.262,525.828L108.262,531.995C108.262,538.161,108.262,550.495,113.445,562.336C118.628,574.177,128.994,585.526,134.177,591.2L139.36,596.875" id="my-svg-L_BOOT_W10_0" class="edge-thickness-normal edge-pattern-solid edge-thickness-normal edge-pattern-solid flowchart-link" style=";" data-edge="true" data-et="edge" data-id="L_BOOT_W10_0" data-points="W3sieCI6MTA4LjI2MTcxODc1LCJ5Ijo1MjUuODI4MTI1fSx7IngiOjEwOC4yNjE3MTg3NSwieSI6NTYyLjgyODEyNX0seyJ4IjoxNDIuMDU3MTg5OTQxNDA2MjUsInkiOjU5OS44MjgxMjV9XQ==" data-look="classic" marker-end="url(#my-svg_flowchart-v2-pointEnd)"/><path d="M205.647,599.828L214.538,593.661C223.428,587.495,241.21,575.161,250.101,549.176C258.992,523.19,258.992,483.552,258.992,445.914C258.992,408.276,258.992,372.638,259.062,351.402C259.132,330.166,259.271,323.333,259.341,319.916L259.411,316.499" id="my-svg-L_W10_LOOP_0" class="edge-thickness-normal edge-pattern-solid edge-thickness-normal edge-pattern-solid flowchart-link" style=";" data-edge="true" data-et="edge" data-id="L_W10_LOOP_0" data-points="W3sieCI6MjA1LjY0NjYwNjQ0NTMxMjUsInkiOjU5OS44MjgxMjV9LHsieCI6MjU4Ljk5MjE4NzUsInkiOjU2Mi44MjgxMjV9LHsieCI6MjU4Ljk5MjE4NzUsInkiOjQ0My45MTQwNjI1fSx7IngiOjI1OC45OTIxODc1LCJ5IjozMzd9LHsieCI6MjU5LjQ5MjE4NzUsInkiOjMxMi41fV0=" data-look="classic" marker-end="url(#my-svg_flowchart-v2-pointEnd)"/><path d="M165.241,468.849L201.034,484.512C236.827,500.175,308.414,531.502,344.207,552.665C380,573.828,380,584.828,380,590.328L380,595.828" id="my-svg-L_BOOT_WDT_0" class="edge-thickness-normal edge-pattern-solid edge-thickness-normal edge-pattern-solid flowchart-link" style=";" data-edge="true" data-et="edge" data-id="L_BOOT_WDT_0" data-points="W3sieCI6MTY1LjI0MTI0Nzc2MTA5NDIzLCJ5Ijo0NjguODQ4NTk1OTg4OTA1OH0seyJ4IjozODAsInkiOjU2Mi44MjgxMjV9LHsieCI6MzgwLCJ5Ijo1OTkuODI4MTI1fV0=" data-look="classic" marker-end="url(#my-svg_flowchart-v2-pointEnd)"/><path d="M380,653.828L380,657.995C380,662.161,380,670.495,380,678.161C380,685.828,380,692.828,380,696.328L380,699.828" id="my-svg-L_WDT_PC_0" class="edge-thickness-normal edge-pattern-solid edge-thickness-normal edge-pattern-solid flowchart-link" style=";" data-edge="true" data-et="edge" data-id="L_WDT_PC_0" data-points="W3sieCI6MzgwLCJ5Ijo2NTMuODI4MTI1fSx7IngiOjM4MCwieSI6Njc4LjgyODEyNX0seyJ4IjozODAsInkiOjcwMy44MjgxMjV9XQ==" data-look="classic" marker-end="url(#my-svg_flowchart-v2-pointEnd)"/><path d="M380,829.828L380,833.995C380,838.161,380,846.495,380,854.161C380,861.828,380,868.828,380,872.328L380,875.828" id="my-svg-L_PC_SETUP_0" class="edge-thickness-normal edge-pattern-solid edge-thickness-normal edge-pattern-solid flowchart-link" style=";" data-edge="true" data-et="edge" data-id="L_PC_SETUP_0" data-points="W3sieCI6MzgwLCJ5Ijo4MjkuODI4MTI1fSx7IngiOjM4MCwieSI6ODU0LjgyODEyNX0seyJ4IjozODAsInkiOjg3OS44MjgxMjV9XQ==" data-look="classic" marker-end="url(#my-svg_flowchart-v2-pointEnd)"/><path d="M332.98,1124.48L326.317,1138.483C319.653,1152.487,306.327,1180.493,299.663,1199.997C293,1219.5,293,1230.5,293,1236L293,1241.5" id="my-svg-L_SETUP_POS_0" class="edge-thickness-normal edge-pattern-solid edge-thickness-normal edge-pattern-solid flowchart-link" style=";" data-edge="true" data-et="edge" data-id="L_SETUP_POS_0" data-points="W3sieCI6MzMyLjk3OTg0ODg2NjQ5ODc0LCJ5IjoxMTI0LjQ3OTg0ODg2NjQ5ODd9LHsieCI6MjkzLCJ5IjoxMjA4LjV9LHsieCI6MjkzLCJ5IjoxMjQ1LjV9XQ==" data-look="classic" marker-end="url(#my-svg_flowchart-v2-pointEnd)"/><path d="M227.909,1458.409L212.924,1475.424C197.94,1492.44,167.97,1526.47,152.985,1548.985C138,1571.5,138,1582.5,138,1588L138,1593.5" id="my-svg-L_POS_ACTIVE_0" class="edge-thickness-normal edge-pattern-solid edge-thickness-normal edge-pattern-solid flowchart-link" style=";" data-edge="true" data-et="edge" data-id="L_POS_ACTIVE_0" data-points="W3sieCI6MjI3LjkwOTM2NTU1ODkxMjM4LCJ5IjoxNDU4LjQwOTM2NTU1ODkxMjR9LHsieCI6MTM4LCJ5IjoxNTYwLjV9LHsieCI6MTM4LCJ5IjoxNTk3LjV9XQ==" data-look="classic" marker-end="url(#my-svg_flowchart-v2-pointEnd)"/><path d="M358.091,1458.409L373.076,1475.424C388.06,1492.44,418.03,1526.47,433.015,1550.985C448,1575.5,448,1590.5,448,1598L448,1605.5" id="my-svg-L_POS_MISS_0" class="edge-thickness-normal edge-pattern-solid edge-thickness-normal edge-pattern-solid flowchart-link" style=";" data-edge="true" data-et="edge" data-id="L_POS_MISS_0" data-points="W3sieCI6MzU4LjA5MDYzNDQ0MTA4NzYsInkiOjE0NTguNDA5MzY1NTU4OTEyNH0seyJ4Ijo0NDgsInkiOjE1NjAuNX0seyJ4Ijo0NDgsInkiOjE2MDkuNX1d" data-look="classic" marker-end="url(#my-svg_flowchart-v2-pointEnd)"/><path d="M138,1699.5L138,1703.667C138,1707.833,138,1716.167,167.353,1727.529C196.705,1738.892,255.41,1753.284,284.763,1760.48L314.115,1767.677" id="my-svg-L_ACTIVE_MORE_0" class="edge-thickness-normal edge-pattern-solid edge-thickness-normal edge-pattern-solid flowchart-link" style=";" data-edge="true" data-et="edge" data-id="L_ACTIVE_MORE_0" data-points="W3sieCI6MTM4LCJ5IjoxNjk5LjV9LHsieCI6MTM4LCJ5IjoxNzI0LjV9LHsieCI6MzE4LCJ5IjoxNzY4LjYyOTAzMjI1ODA2NDZ9XQ==" data-look="classic" marker-end="url(#my-svg_flowchart-v2-pointEnd)"/><path d="M448,1687.5L448,1693.667C448,1699.833,448,1712.167,448,1721.833C448,1731.5,448,1738.5,448,1742L448,1745.5" id="my-svg-L_MISS_MORE_0" class="edge-thickness-normal edge-pattern-solid edge-thickness-normal edge-pattern-solid flowchart-link" style=";" data-edge="true" data-et="edge" data-id="L_MISS_MORE_0" data-points="W3sieCI6NDQ4LCJ5IjoxNjg3LjV9LHsieCI6NDQ4LCJ5IjoxNzI0LjV9LHsieCI6NDQ4LCJ5IjoxNzQ5LjV9XQ==" data-look="classic" marker-end="url(#my-svg_flowchart-v2-pointEnd)"/><path d="M462.401,1089.099L488.251,1108.999C514.101,1128.899,565.8,1168.7,591.65,1217.933C617.5,1267.167,617.5,1325.833,617.5,1384.5C617.5,1443.167,617.5,1501.833,617.5,1545.833C617.5,1589.833,617.5,1619.167,617.5,1646.5C617.5,1673.833,617.5,1699.167,608.816,1715.727C600.131,1732.288,582.762,1740.076,574.078,1743.97L565.393,1747.863" id="my-svg-L_SETUP_MORE_0" class="edge-thickness-normal edge-pattern-solid edge-thickness-normal edge-pattern-solid flowchart-link" style=";" data-edge="true" data-et="edge" data-id="L_SETUP_MORE_0" data-points="W3sieCI6NDYyLjQwMDg0MTk2MDQ4NTUsInkiOjEwODkuMDk5MTU4MDM5NTE0Nn0seyJ4Ijo2MTcuNSwieSI6MTIwOC41fSx7IngiOjYxNy41LCJ5IjoxMzg0LjV9LHsieCI6NjE3LjUsInkiOjE1NjAuNX0seyJ4Ijo2MTcuNSwieSI6MTY0OC41fSx7IngiOjYxNy41LCJ5IjoxNzI0LjV9LHsieCI6NTYxLjc0MzQyMTA1MjYzMTYsInkiOjE3NDkuNX1d" data-look="classic" marker-end="url(#my-svg_flowchart-v2-pointEnd)"/><path d="M448,1851.5L448,1855.667C448,1859.833,448,1868.167,461.576,1876.312C475.153,1884.458,502.306,1892.417,515.882,1896.396L529.459,1900.375" id="my-svg-L_MORE_DELAY_0" class="edge-thickness-normal edge-pattern-solid edge-thickness-normal edge-pattern-solid flowchart-link" style=";" data-edge="true" data-et="edge" data-id="L_MORE_DELAY_0" data-points="W3sieCI6NDQ4LCJ5IjoxODUxLjV9LHsieCI6NDQ4LCJ5IjoxODc2LjV9LHsieCI6NTMzLjI5NzEwMDM2MDU3NjksInkiOjE5MDEuNX1d" data-look="classic" marker-end="url(#my-svg_flowchart-v2-pointEnd)"/><path d="M675.714,1901.5L683.476,1897.333C691.238,1893.167,706.762,1884.833,714.523,1868C722.285,1851.167,722.285,1825.833,722.285,1800.5C722.285,1775.167,722.285,1749.833,722.285,1724.5C722.285,1699.167,722.285,1673.833,722.285,1646.5C722.285,1619.167,722.285,1589.833,722.285,1545.833C722.285,1501.833,722.285,1443.167,722.285,1384.5C722.285,1325.833,722.285,1267.167,722.285,1207.361C722.285,1147.555,722.285,1086.609,722.285,1027.664C722.285,968.719,722.285,911.773,722.285,868.634C722.285,825.495,722.285,796.161,722.285,766.828C722.285,737.495,722.285,708.161,722.285,684.828C722.285,661.495,722.285,644.161,722.285,624.828C722.285,605.495,722.285,584.161,722.285,553.676C722.285,523.19,722.285,483.552,722.285,445.914C722.285,408.276,722.285,372.638,651.526,348.097C580.766,323.556,439.247,310.112,368.487,303.39L297.728,296.668" id="my-svg-L_DELAY_LOOP_0" class="edge-thickness-normal edge-pattern-solid edge-thickness-normal edge-pattern-solid flowchart-link" style=";" data-edge="true" data-et="edge" data-id="L_DELAY_LOOP_0" data-points="W3sieCI6Njc1LjcxNDM5MzAyODg0NjIsInkiOjE5MDEuNX0seyJ4Ijo3MjIuMjg1MTU2MjUsInkiOjE4NzYuNX0seyJ4Ijo3MjIuMjg1MTU2MjUsInkiOjE4MDAuNX0seyJ4Ijo3MjIuMjg1MTU2MjUsInkiOjE3MjQuNX0seyJ4Ijo3MjIuMjg1MTU2MjUsInkiOjE2NDguNX0seyJ4Ijo3MjIuMjg1MTU2MjUsInkiOjE1NjAuNX0seyJ4Ijo3MjIuMjg1MTU2MjUsInkiOjEzODQuNX0seyJ4Ijo3MjIuMjg1MTU2MjUsInkiOjEyMDguNX0seyJ4Ijo3MjIuMjg1MTU2MjUsInkiOjEwMjUuNjY0MDYyNX0seyJ4Ijo3MjIuMjg1MTU2MjUsInkiOjg1NC44MjgxMjV9LHsieCI6NzIyLjI4NTE1NjI1LCJ5Ijo3NjYuODI4MTI1fSx7IngiOjcyMi4yODUxNTYyNSwieSI6Njc4LjgyODEyNX0seyJ4Ijo3MjIuMjg1MTU2MjUsInkiOjYyNi44MjgxMjV9LHsieCI6NzIyLjI4NTE1NjI1LCJ5Ijo1NjIuODI4MTI1fSx7IngiOjcyMi4yODUxNTYyNSwieSI6NDQzLjkxNDA2MjV9LHsieCI6NzIyLjI4NTE1NjI1LCJ5IjozMzd9LHsieCI6MjkzLjc0NTU3OTU4NTMxNDQzLCJ5IjoyOTYuMjkwMDkwODI5MzcxMTR9XQ==" data-look="classic" marker-end="url(#my-svg_flowchart-v2-pointEnd)"/></g><g class="edgeLabels"><g class="edgeLabel"><g class="label" data-id="L_START_INIT_0" transform="translate(0, 0)"><foreignObject width="0" height="0"><div xmlns="http://www.w3.org/1999/xhtml" class="labelBkg" style="display: table-cell; white-space: nowrap; line-height: 1.5; max-width: 200px; text-align: center;"><span class="edgeLabel"></span></div></foreignObject></g></g><g class="edgeLabel"><g class="label" data-id="L_INIT_LOOP_0" transform="translate(0, 0)"><foreignObject width="0" height="0"><div xmlns="http://www.w3.org/1999/xhtml" class="labelBkg" style="display: table-cell; white-space: nowrap; line-height: 1.5; max-width: 200px; text-align: center;"><span class="edgeLabel"></span></div></foreignObject></g></g><g class="edgeLabel"><g class="label" data-id="L_LOOP_BOOT_0" transform="translate(0, 0)"><foreignObject width="0" height="0"><div xmlns="http://www.w3.org/1999/xhtml" class="labelBkg" style="display: table-cell; white-space: nowrap; line-height: 1.5; max-width: 200px; text-align: center;"><span class="edgeLabel"></span></div></foreignObject></g></g><g class="edgeLabel" transform="translate(108.26171875, 562.828125)"><g class="label" data-id="L_BOOT_W10_0" transform="translate(-12.8671875, -12)"><foreignObject width="25.734375" height="24"><div xmlns="http://www.w3.org/1999/xhtml" class="labelBkg" style="display: table-cell; white-space: nowrap; line-height: 1.5; max-width: 200px; text-align: center;"><span class="edgeLabel"><p>ano</p></span></div></foreignObject></g></g><g class="edgeLabel"><g class="label" data-id="L_W10_LOOP_0" transform="translate(0, 0)"><foreignObject width="0" height="0"><div xmlns="http://www.w3.org/1999/xhtml" class="labelBkg" style="display: table-cell; white-space: nowrap; line-height: 1.5; max-width: 200px; text-align: center;"><span class="edgeLabel"></span></div></foreignObject></g></g><g class="edgeLabel" transform="translate(380, 562.828125)"><g class="label" data-id="L_BOOT_WDT_0" transform="translate(-8.734375, -12)"><foreignObject width="17.46875" height="24"><div xmlns="http://www.w3.org/1999/xhtml" class="labelBkg" style="display: table-cell; white-space: nowrap; line-height: 1.5; max-width: 200px; text-align: center;"><span class="edgeLabel"><p>ne</p></span></div></foreignObject></g></g><g class="edgeLabel"><g class="label" data-id="L_WDT_PC_0" transform="translate(0, 0)"><foreignObject width="0" height="0"><div xmlns="http://www.w3.org/1999/xhtml" class="labelBkg" style="display: table-cell; white-space: nowrap; line-height: 1.5; max-width: 200px; text-align: center;"><span class="edgeLabel"></span></div></foreignObject></g></g><g class="edgeLabel"><g class="label" data-id="L_PC_SETUP_0" transform="translate(0, 0)"><foreignObject width="0" height="0"><div xmlns="http://www.w3.org/1999/xhtml" class="labelBkg" style="display: table-cell; white-space: nowrap; line-height: 1.5; max-width: 200px; text-align: center;"><span class="edgeLabel"></span></div></foreignObject></g></g><g class="edgeLabel" transform="translate(293, 1208.5)"><g class="label" data-id="L_SETUP_POS_0" transform="translate(-12.8671875, -12)"><foreignObject width="25.734375" height="24"><div xmlns="http://www.w3.org/1999/xhtml" class="labelBkg" style="display: table-cell; white-space: nowrap; line-height: 1.5; max-width: 200px; text-align: center;"><span class="edgeLabel"><p>ano</p></span></div></foreignObject></g></g><g class="edgeLabel" transform="translate(138, 1560.5)"><g class="label" data-id="L_POS_ACTIVE_0" transform="translate(-12.8671875, -12)"><foreignObject width="25.734375" height="24"><div xmlns="http://www.w3.org/1999/xhtml" class="labelBkg" style="display: table-cell; white-space: nowrap; line-height: 1.5; max-width: 200px; text-align: center;"><span class="edgeLabel"><p>ano</p></span></div></foreignObject></g></g><g class="edgeLabel" transform="translate(448, 1560.5)"><g class="label" data-id="L_POS_MISS_0" transform="translate(-8.734375, -12)"><foreignObject width="17.46875" height="24"><div xmlns="http://www.w3.org/1999/xhtml" class="labelBkg" style="display: table-cell; white-space: nowrap; line-height: 1.5; max-width: 200px; text-align: center;"><span class="edgeLabel"><p>ne</p></span></div></foreignObject></g></g><g class="edgeLabel"><g class="label" data-id="L_ACTIVE_MORE_0" transform="translate(0, 0)"><foreignObject width="0" height="0"><div xmlns="http://www.w3.org/1999/xhtml" class="labelBkg" style="display: table-cell; white-space: nowrap; line-height: 1.5; max-width: 200px; text-align: center;"><span class="edgeLabel"></span></div></foreignObject></g></g><g class="edgeLabel"><g class="label" data-id="L_MISS_MORE_0" transform="translate(0, 0)"><foreignObject width="0" height="0"><div xmlns="http://www.w3.org/1999/xhtml" class="labelBkg" style="display: table-cell; white-space: nowrap; line-height: 1.5; max-width: 200px; text-align: center;"><span class="edgeLabel"></span></div></foreignObject></g></g><g class="edgeLabel" transform="translate(617.5, 1560.5)"><g class="label" data-id="L_SETUP_MORE_0" transform="translate(-8.734375, -12)"><foreignObject width="17.46875" height="24"><div xmlns="http://www.w3.org/1999/xhtml" class="labelBkg" style="display: table-cell; white-space: nowrap; line-height: 1.5; max-width: 200px; text-align: center;"><span class="edgeLabel"><p>ne</p></span></div></foreignObject></g></g><g class="edgeLabel"><g class="label" data-id="L_MORE_DELAY_0" transform="translate(0, 0)"><foreignObject width="0" height="0"><div xmlns="http://www.w3.org/1999/xhtml" class="labelBkg" style="display: table-cell; white-space: nowrap; line-height: 1.5; max-width: 200px; text-align: center;"><span class="edgeLabel"></span></div></foreignObject></g></g><g class="edgeLabel"><g class="label" data-id="L_DELAY_LOOP_0" transform="translate(0, 0)"><foreignObject width="0" height="0"><div xmlns="http://www.w3.org/1999/xhtml" class="labelBkg" style="display: table-cell; white-space: nowrap; line-height: 1.5; max-width: 200px; text-align: center;"><span class="edgeLabel"></span></div></foreignObject></g></g></g><g class="nodes"><g class="node default" id="my-svg-flowchart-START-0" data-look="classic" transform="translate(258.9921875, 27.5)"><g class="basic label-container outer-path"><path d="M-52.03125 -19.5 C-24.932834624446595 -19.5, 2.165580751106809 -19.5, 52.03125 -19.5 C52.03125 -19.5, 52.03125 -19.5, 52.03125 -19.5 C52.36978600053906 -19.489143809383062, 52.70832200107812 -19.478287618766128, 53.2806192896239 -19.45993515863156 C53.67041894868679 -19.42233165432444, 54.06021860774968 -19.38472815001732, 54.524854652847864 -19.3399052695533 C54.834642793199734 -19.28982112546412, 55.144430933551604 -19.23973698137494, 55.75884325967676 -19.140403561325776 C56.09031260550985 -19.064747846179, 56.42178195134294 -18.989092131032226, 56.97751438623539 -18.862249829261074 C57.3934368160528 -18.738806235312655, 57.80935924587021 -18.615362641364232, 58.175860251460605 -18.50658706670804 C58.640216164109304 -18.335699798394316, 59.104572076758004 -18.164812530080592, 59.3489565951478 -18.074876768247425 C59.62264952459067 -17.953721027195353, 59.896342454033544 -17.832565286143286, 60.49198291279238 -17.568892924097174 C60.90027347627896 -17.35588799864881, 61.30856403976555 -17.142883073200448, 61.60024226407678 -16.990714730406097 C61.85028721981308 -16.83913600881149, 62.10033217554938 -16.68755728721688, 62.6691805736057 -16.342718045390892 C62.96946788932107 -16.133250613176237, 63.26975520503645 -15.923783180961578, 63.69440534457871 -15.627565626425154 C63.91768075208416 -15.449509430547682, 64.1409561595896 -15.27145323467021, 64.67170370850187 -14.848196188198123 C65.02298615999571 -14.529170760175765, 65.37426861148955 -14.210145332153406, 65.59705973676799 -14.007812326905688 C65.85004851169272 -13.746580646031193, 66.10303728661745 -13.485348965156698, 66.46667094296865 -13.10986736009568 C66.63835209125972 -12.908200914378906, 66.81003323955079 -12.706534468662129, 67.27696390812658 -12.158051136245305 C67.54052108433044 -11.804908530684822, 67.80407826053431 -11.451765925124338, 68.02460896464063 -11.156274872382312 C68.19971091515531 -10.887271254934435, 68.37481286566998 -10.618267637486557, 68.70653387860425 -10.108655082055241 C68.86584013046154 -9.825790700375387, 69.02514638231882 -9.542926318695534, 69.3199364742735 -9.019496659696287 C69.4890688291708 -8.66828970589937, 69.6582011840681 -8.317082752102452, 69.86229614880834 -7.893275190886684 C70.02502152997634 -7.491340353320508, 70.18774691114434 -7.089405515754331, 70.33138422997033 -6.734618561215508 C70.44429438969047 -6.394551149929311, 70.55720454941063 -6.054483738643114, 70.72527313421489 -5.548287939305138 C70.81513945140739 -5.205588723541861, 70.90500576859989 -4.862889507778584, 71.04234428754556 -4.339158212148133 C71.13513221599014 -3.8627118103208637, 71.2279201444347 -3.3862654084935944, 71.28129477658177 -3.1121979531509023 C71.3303907477524 -2.7314192958476076, 71.37948671892303 -2.350640638544313, 71.44114270250937 -1.872449005199798 C71.470511482448 -1.4150065516031363, 71.49988026238663 -0.9575640980064746, 71.52123121591342 -0.6250057626472757 C71.52123121591342 -0.23573915015296143, 71.52123121591342 0.15352746234135284, 71.52123121591342 0.625005762647271 C71.5033762136278 0.9031118355442471, 71.48552121134217 1.1812179084412233, 71.44114270250937 1.8724490051997846 C71.40059303453064 2.1869442226050726, 71.36004336655193 2.50143944001036, 71.28129477658177 3.1121979531508885 C71.21415349904764 3.4569542229746193, 71.14701222151352 3.8017104927983505, 71.04234428754556 4.339158212148129 C70.95904231116921 4.656824751376089, 70.87574033479287 4.974491290604049, 70.72527313421489 5.548287939305125 C70.56952963069847 6.017362557539135, 70.41378612718205 6.486437175773145, 70.33138422997033 6.734618561215495 C70.21159488482812 7.030500559686171, 70.09180553968592 7.326382558156848, 69.86229614880834 7.893275190886679 C69.65822679287791 8.317029574860966, 69.45415743694747 8.740783958835252, 69.3199364742735 9.019496659696284 C69.14966201722594 9.32183620034268, 68.97938756017838 9.624175740989077, 68.70653387860425 10.108655082055236 C68.49557761519712 10.432740552337027, 68.28462135178998 10.756826022618815, 68.02460896464065 11.156274872382301 C67.75666907136373 11.515289919546934, 67.48872917808681 11.874304966711566, 67.27696390812659 12.158051136245302 C67.00048289379545 12.48282146789405, 66.72400187946431 12.807591799542797, 66.46667094296866 13.10986736009567 C66.20144789489517 13.38373193244877, 65.93622484682166 13.65759650480187, 65.59705973676799 14.007812326905684 C65.39118820425242 14.19477940567407, 65.18531667173684 14.381746484442456, 64.6717037085019 14.848196188198111 C64.3612477609875 15.095776544761112, 64.0507918134731 15.343356901324112, 63.69440534457871 15.627565626425152 C63.34011245744449 15.874705007398092, 62.98581957031027 16.12184438837103, 62.66918057360571 16.34271804539089 C62.3677582287424 16.525442042201338, 62.0663358838791 16.70816603901179, 61.60024226407678 16.990714730406093 C61.35670552079242 17.11776769338482, 61.11316877750805 17.244820656363544, 60.49198291279239 17.56889292409717 C60.215671288913285 17.69120788349535, 59.93935966503418 17.813522842893526, 59.348956595147804 18.07487676824742 C59.05398993027769 18.183427227561584, 58.75902326540757 18.291977686875747, 58.17586025146062 18.506587066708033 C57.846850345733415 18.60423547971963, 57.51784044000622 18.701883892731228, 56.97751438623541 18.86224982926107 C56.73252430601478 18.91816721636175, 56.48753422579414 18.97408460346243, 55.758843259676766 19.140403561325773 C55.29403566820883 19.215550048077603, 54.82922807674089 19.290696534829433, 54.52485465284788 19.3399052695533 C54.25358632843913 19.36607419856112, 53.982318004030375 19.39224312756894, 53.2806192896239 19.45993515863156 C52.79675496095315 19.47545174586725, 52.31289063228241 19.490968333102938, 52.03125000000001 19.5 C52.03125000000001 19.5, 52.03125 19.5, 52.03125 19.5 C18.77581104413253 19.5, -14.479627911734937 19.5, -52.03124999999999 19.5 C-52.366396688231845 19.48925249803186, -52.7015433764637 19.47850499606372, -53.28061928962389 19.45993515863156 C-53.58334528948 19.43073154550672, -53.88607128933611 19.401527932381885, -54.52485465284787 19.3399052695533 C-54.86748648187454 19.284511212585784, -55.21011831090121 19.229117155618273, -55.75884325967676 19.140403561325773 C-56.21286022555008 19.036777151602774, -56.666877191423396 18.93315074187977, -56.977514386235384 18.862249829261074 C-57.28216768884314 18.77183032820491, -57.5868209914509 18.68141082714875, -58.17586025146059 18.506587066708043 C-58.45423704280973 18.404141834204708, -58.732613834158876 18.301696601701373, -59.3489565951478 18.074876768247425 C-59.70750638506788 17.916157412251426, -60.066056174987956 17.757438056255424, -60.49198291279238 17.568892924097174 C-60.8972091147796 17.357486674080214, -61.30243531676681 17.146080424063253, -61.60024226407678 16.990714730406097 C-61.91100851172619 16.802326404815844, -62.22177475937559 16.61393807922559, -62.669180573605686 16.3427180453909 C-62.957988151629834 16.14125838123981, -63.246795729653975 15.939798717088717, -63.69440534457871 15.627565626425156 C-64.03506358768672 15.355899742843082, -64.37572183079473 15.08423385926101, -64.67170370850187 14.848196188198125 C-64.90785363714747 14.633731071186917, -65.14400356579306 14.41926595417571, -65.59705973676797 14.007812326905697 C-65.80708806752524 13.79094083175217, -66.01711639828251 13.574069336598644, -66.46667094296865 13.109867360095677 C-66.76867382566475 12.755117589630006, -67.07067670836084 12.400367819164332, -67.27696390812658 12.158051136245307 C-67.5712078057934 11.76379111954228, -67.86545170346025 11.369531102839254, -68.02460896464063 11.156274872382316 C-68.21936811816119 10.857072512419322, -68.41412727168174 10.557870152456328, -68.70653387860425 10.108655082055249 C-68.93817728071507 9.69734876516949, -69.16982068282589 9.286042448283734, -69.3199364742735 9.019496659696289 C-69.43850491591876 8.77328675366168, -69.55707335756401 8.527076847627068, -69.86229614880834 7.893275190886686 C-69.96378994699856 7.642583547107757, -70.06528374518878 7.391891903328826, -70.33138422997033 6.73461856121551 C-70.44921259208371 6.379738307930039, -70.56704095419708 6.024858054644569, -70.72527313421489 5.5482879393051325 C-70.79209195178512 5.2934788284511125, -70.85891076935535 5.0386697175970925, -71.04234428754556 4.339158212148136 C-71.09182014583577 4.085110136554272, -71.14129600412598 3.8310620609604085, -71.28129477658177 3.112197953150904 C-71.33932763209546 2.6621065856702386, -71.39736048760916 2.2120152181895736, -71.44114270250937 1.872449005199809 C-71.46332065880478 1.5270094341747171, -71.48549861510018 1.1815698631496252, -71.52123121591342 0.6250057626472781 C-71.52123121591342 0.2302845705424963, -71.52123121591342 -0.16443662156228556, -71.52123121591342 -0.6250057626472687 C-71.5033596440054 -0.9033699207877975, -71.48548807209738 -1.1817340789283264, -71.44114270250937 -1.8724490051997822 C-71.3882615618876 -2.282584689299818, -71.33538042126584 -2.692720373399854, -71.28129477658177 -3.112197953150895 C-71.19180154650422 -3.5717267751982194, -71.10230831642669 -4.0312555972455435, -71.04234428754556 -4.339158212148126 C-70.96452794851528 -4.635905638685253, -70.886711609485 -4.932653065222381, -70.72527313421489 -5.548287939305123 C-70.59853149501353 -5.930013563041747, -70.47178985581216 -6.311739186778371, -70.33138422997033 -6.734618561215485 C-70.22714587639102 -6.992089309867845, -70.12290752281172 -7.249560058520206, -69.86229614880834 -7.893275190886676 C-69.64935244415489 -8.335457349864951, -69.43640873950145 -8.777639508843226, -69.3199364742735 -9.019496659696282 C-69.19245092738005 -9.24586015751706, -69.06496538048661 -9.472223655337837, -68.70653387860425 -10.108655082055243 C-68.43394974958875 -10.527417503310518, -68.16136562057326 -10.946179924565794, -68.02460896464063 -11.156274872382308 C-67.80523157902037 -11.450220583422487, -67.58585419340011 -11.744166294462666, -67.27696390812659 -12.158051136245302 C-67.07872723088407 -12.390911217320854, -66.88049055364154 -12.623771298396406, -66.46667094296866 -13.10986736009567 C-66.19359860657634 -13.391836967076506, -65.92052627018401 -13.673806574057341, -65.59705973676799 -14.007812326905677 C-65.32768429188859 -14.252451978661444, -65.05830884700919 -14.49709163041721, -64.6717037085019 -14.848196188198107 C-64.3827094472067 -15.078661421120762, -64.09371518591148 -15.309126654043414, -63.69440534457872 -15.627565626425149 C-63.39216834538075 -15.838393073436828, -63.08993134618278 -16.049220520448507, -62.669180573605715 -16.342718045390885 C-62.26758784424513 -16.586165917950108, -61.86599511488454 -16.82961379050933, -61.60024226407679 -16.99071473040609 C-61.216633566558954 -17.190843142188047, -60.833024869041125 -17.390971553970004, -60.49198291279239 -17.56889292409717 C-60.14071895479011 -17.724387058429684, -59.78945499678783 -17.879881192762195, -59.348956595147804 -18.07487676824742 C-59.09832067146124 -18.167113105017158, -58.84768474777468 -18.259349441786895, -58.17586025146062 -18.506587066708033 C-57.916324302319026 -18.583615974081262, -57.656788353177426 -18.66064488145449, -56.97751438623541 -18.862249829261067 C-56.51780298607784 -18.967175956449793, -56.058091585920266 -19.07210208363852, -55.758843259676766 -19.140403561325773 C-55.41435939714585 -19.196097040707517, -55.06987553461493 -19.251790520089266, -54.52485465284788 -19.3399052695533 C-54.17365915667313 -19.373784676694896, -53.822463660498386 -19.407664083836494, -53.2806192896239 -19.45993515863156 C-53.0008579128009 -19.468906561463786, -52.72109653597791 -19.477877964296013, -52.03125000000001 -19.5 C-52.03125000000001 -19.5, -52.03125 -19.5, -52.03125 -19.5" stroke="none" stroke-width="0" fill="#1f2020" style=""/><path d="M-52.03125 -19.5 C-13.804127068457817 -19.5, 24.422995863084367 -19.5, 52.03125 -19.5 M-52.03125 -19.5 C-23.431979778116997 -19.5, 5.1672904437660065 -19.5, 52.03125 -19.5 M52.03125 -19.5 C52.03125 -19.5, 52.03125 -19.5, 52.03125 -19.5 M52.03125 -19.5 C52.03125 -19.5, 52.03125 -19.5, 52.03125 -19.5 M52.03125 -19.5 C52.38668647990199 -19.488601843904682, 52.74212295980397 -19.477203687809364, 53.2806192896239 -19.45993515863156 M52.03125 -19.5 C52.3506827213424 -19.489756414364624, 52.6701154426848 -19.479512828729245, 53.2806192896239 -19.45993515863156 M53.2806192896239 -19.45993515863156 C53.579145996199074 -19.431136646279143, 53.877672702774255 -19.40233813392673, 54.524854652847864 -19.3399052695533 M53.2806192896239 -19.45993515863156 C53.765848611692014 -19.413125669505288, 54.25107793376012 -19.366316180379016, 54.524854652847864 -19.3399052695533 M54.524854652847864 -19.3399052695533 C54.97128197841129 -19.26773036165182, 55.417709303974725 -19.195555453750345, 55.75884325967676 -19.140403561325776 M54.524854652847864 -19.3399052695533 C54.83313854520434 -19.290064320614395, 55.14142243756081 -19.240223371675494, 55.75884325967676 -19.140403561325776 M55.75884325967676 -19.140403561325776 C56.197349297002624 -19.040317419825463, 56.6358553343285 -18.94023127832515, 56.97751438623539 -18.862249829261074 M55.75884325967676 -19.140403561325776 C56.03951403925767 -19.076342287434436, 56.320184818838584 -19.0122810135431, 56.97751438623539 -18.862249829261074 M56.97751438623539 -18.862249829261074 C57.415166943035565 -18.73235684768793, 57.85281949983574 -18.602463866114793, 58.175860251460605 -18.50658706670804 M56.97751438623539 -18.862249829261074 C57.36896657853068 -18.746068873362322, 57.76041877082597 -18.629887917463567, 58.175860251460605 -18.50658706670804 M58.175860251460605 -18.50658706670804 C58.62908857978509 -18.339794852287888, 59.082316908109576 -18.17300263786774, 59.3489565951478 -18.074876768247425 M58.175860251460605 -18.50658706670804 C58.514626922868466 -18.381917800105164, 58.853393594276326 -18.25724853350229, 59.3489565951478 -18.074876768247425 M59.3489565951478 -18.074876768247425 C59.71158196545526 -17.91435327371173, 60.074207335762715 -17.753829779176034, 60.49198291279238 -17.568892924097174 M59.3489565951478 -18.074876768247425 C59.61727557201687 -17.956099916587135, 59.88559454888594 -17.83732306492685, 60.49198291279238 -17.568892924097174 M60.49198291279238 -17.568892924097174 C60.748024814066866 -17.43531602820494, 61.00406671534135 -17.301739132312708, 61.60024226407678 -16.990714730406097 M60.49198291279238 -17.568892924097174 C60.86419847633919 -17.374708303010248, 61.23641403988601 -17.180523681923326, 61.60024226407678 -16.990714730406097 M61.60024226407678 -16.990714730406097 C61.94431314378705 -16.78213694114081, 62.28838402349731 -16.57355915187552, 62.6691805736057 -16.342718045390892 M61.60024226407678 -16.990714730406097 C61.84079653666924 -16.844889316706734, 62.081350809261686 -16.69906390300737, 62.6691805736057 -16.342718045390892 M62.6691805736057 -16.342718045390892 C62.88360614544387 -16.193144048809984, 63.09803171728204 -16.043570052229075, 63.69440534457871 -15.627565626425154 M62.6691805736057 -16.342718045390892 C63.06879840074661 -16.063961948354315, 63.46841622788752 -15.78520585131774, 63.69440534457871 -15.627565626425154 M63.69440534457871 -15.627565626425154 C64.0812994643517 -15.319027861591115, 64.46819358412469 -15.010490096757074, 64.67170370850187 -14.848196188198123 M63.69440534457871 -15.627565626425154 C63.94765214607196 -15.425608041414705, 64.20089894756521 -15.223650456404258, 64.67170370850187 -14.848196188198123 M64.67170370850187 -14.848196188198123 C65.01749832957461 -14.534154662564168, 65.36329295064736 -14.220113136930214, 65.59705973676799 -14.007812326905688 M64.67170370850187 -14.848196188198123 C64.99347525772787 -14.555971780799736, 65.31524680695387 -14.263747373401348, 65.59705973676799 -14.007812326905688 M65.59705973676799 -14.007812326905688 C65.78518483194283 -13.813557720780102, 65.97330992711768 -13.619303114654517, 66.46667094296865 -13.10986736009568 M65.59705973676799 -14.007812326905688 C65.83835776970682 -13.758652296959413, 66.07965580264563 -13.50949226701314, 66.46667094296865 -13.10986736009568 M66.46667094296865 -13.10986736009568 C66.74662742304936 -12.781014548617875, 67.02658390313009 -12.452161737140072, 67.27696390812658 -12.158051136245305 M66.46667094296865 -13.10986736009568 C66.77026998227768 -12.753242653248572, 67.0738690215867 -12.396617946401463, 67.27696390812658 -12.158051136245305 M67.27696390812658 -12.158051136245305 C67.4561178925233 -11.91800111841743, 67.63527187692003 -11.677951100589556, 68.02460896464063 -11.156274872382312 M67.27696390812658 -12.158051136245305 C67.56682769230558 -11.769660072579429, 67.85669147648458 -11.381269008913552, 68.02460896464063 -11.156274872382312 M68.02460896464063 -11.156274872382312 C68.20050413603266 -10.886052654657188, 68.37639930742469 -10.615830436932065, 68.70653387860425 -10.108655082055241 M68.02460896464063 -11.156274872382312 C68.28387042342784 -10.757979650235557, 68.54313188221505 -10.359684428088801, 68.70653387860425 -10.108655082055241 M68.70653387860425 -10.108655082055241 C68.85869758242644 -9.838473017673113, 69.01086128624864 -9.568290953290985, 69.3199364742735 -9.019496659696287 M68.70653387860425 -10.108655082055241 C68.92182689516066 -9.726380530377412, 69.13711991171706 -9.344105978699583, 69.3199364742735 -9.019496659696287 M69.3199364742735 -9.019496659696287 C69.46236420594808 -8.723742427408775, 69.60479193762265 -8.427988195121262, 69.86229614880834 -7.893275190886684 M69.3199364742735 -9.019496659696287 C69.43970825005454 -8.770788004581506, 69.55948002583557 -8.522079349466726, 69.86229614880834 -7.893275190886684 M69.86229614880834 -7.893275190886684 C70.0416751562447 -7.450205574461701, 70.22105416368106 -7.0071359580367165, 70.33138422997033 -6.734618561215508 M69.86229614880834 -7.893275190886684 C70.04125581041676 -7.451241366764224, 70.22021547202517 -7.009207542641763, 70.33138422997033 -6.734618561215508 M70.33138422997033 -6.734618561215508 C70.41774531896351 -6.474512720938954, 70.5041064079567 -6.214406880662398, 70.72527313421489 -5.548287939305138 M70.33138422997033 -6.734618561215508 C70.44139941075908 -6.403270365218435, 70.55141459154783 -6.071922169221362, 70.72527313421489 -5.548287939305138 M70.72527313421489 -5.548287939305138 C70.8009313590742 -5.2597703374345235, 70.8765895839335 -4.971252735563908, 71.04234428754556 -4.339158212148133 M70.72527313421489 -5.548287939305138 C70.80555635350528 -5.242133229183509, 70.88583957279567 -4.935978519061881, 71.04234428754556 -4.339158212148133 M71.04234428754556 -4.339158212148133 C71.11284361534086 -3.977159063957442, 71.18334294313617 -3.6151599157667507, 71.28129477658177 -3.1121979531509023 M71.04234428754556 -4.339158212148133 C71.09707512025868 -4.058126953531878, 71.15180595297178 -3.7770956949156234, 71.28129477658177 -3.1121979531509023 M71.28129477658177 -3.1121979531509023 C71.33532056740464 -2.6931845881279357, 71.38934635822748 -2.2741712231049696, 71.44114270250937 -1.872449005199798 M71.28129477658177 -3.1121979531509023 C71.3351182568103 -2.6947536691468255, 71.38894173703882 -2.277309385142748, 71.44114270250937 -1.872449005199798 M71.44114270250937 -1.872449005199798 C71.46785950774833 -1.4563131981860409, 71.49457631298728 -1.0401773911722838, 71.52123121591342 -0.6250057626472757 M71.44114270250937 -1.872449005199798 C71.46491710537283 -1.5021434902486157, 71.48869150823631 -1.1318379752974337, 71.52123121591342 -0.6250057626472757 M71.52123121591342 -0.6250057626472757 C71.52123121591342 -0.26496836306041194, 71.52123121591342 0.09506903652645182, 71.52123121591342 0.625005762647271 M71.52123121591342 -0.6250057626472757 C71.52123121591342 -0.32663999792675225, 71.52123121591342 -0.028274233206228794, 71.52123121591342 0.625005762647271 M71.52123121591342 0.625005762647271 C71.49181285102402 1.0832205418762635, 71.46239448613464 1.5414353211052558, 71.44114270250937 1.8724490051997846 M71.52123121591342 0.625005762647271 C71.50135142008298 0.9346496293885838, 71.48147162425256 1.2442934961298966, 71.44114270250937 1.8724490051997846 M71.44114270250937 1.8724490051997846 C71.39679058161335 2.216435296552416, 71.35243846071732 2.560421587905047, 71.28129477658177 3.1121979531508885 M71.44114270250937 1.8724490051997846 C71.40413163828705 2.159499510646715, 71.36712057406474 2.4465500160936453, 71.28129477658177 3.1121979531508885 M71.28129477658177 3.1121979531508885 C71.21358344736937 3.4598813178620396, 71.14587211815699 3.807564682573191, 71.04234428754556 4.339158212148129 M71.28129477658177 3.1121979531508885 C71.185874363598 3.6021616067111255, 71.09045395061423 4.092125260271362, 71.04234428754556 4.339158212148129 M71.04234428754556 4.339158212148129 C70.91879109687797 4.810320076455216, 70.79523790621039 5.281481940762303, 70.72527313421489 5.548287939305125 M71.04234428754556 4.339158212148129 C70.91811669308733 4.812891870397394, 70.7938890986291 5.28662552864666, 70.72527313421489 5.548287939305125 M70.72527313421489 5.548287939305125 C70.59393809292055 5.943848158286531, 70.46260305162623 6.339408377267936, 70.33138422997033 6.734618561215495 M70.72527313421489 5.548287939305125 C70.58651289666895 5.966211666352016, 70.44775265912301 6.384135393398907, 70.33138422997033 6.734618561215495 M70.33138422997033 6.734618561215495 C70.22139555619593 7.00629271192458, 70.11140688242155 7.277966862633665, 69.86229614880834 7.893275190886679 M70.33138422997033 6.734618561215495 C70.216165251297 7.019211666146023, 70.10094627262367 7.3038047710765515, 69.86229614880834 7.893275190886679 M69.86229614880834 7.893275190886679 C69.69561069415398 8.23940110397383, 69.52892523949964 8.58552701706098, 69.3199364742735 9.019496659696284 M69.86229614880834 7.893275190886679 C69.71662514393539 8.195764149365557, 69.57095413906244 8.498253107844434, 69.3199364742735 9.019496659696284 M69.3199364742735 9.019496659696284 C69.1876986123091 9.25429837414961, 69.05546075034471 9.489100088602934, 68.70653387860425 10.108655082055236 M69.3199364742735 9.019496659696284 C69.13917356817511 9.340459503703068, 68.95841066207672 9.661422347709852, 68.70653387860425 10.108655082055236 M68.70653387860425 10.108655082055236 C68.56246695655128 10.329980561713922, 68.4184000344983 10.551306041372609, 68.02460896464065 11.156274872382301 M68.70653387860425 10.108655082055236 C68.5498152646727 10.349416957894357, 68.39309665074117 10.590178833733479, 68.02460896464065 11.156274872382301 M68.02460896464065 11.156274872382301 C67.87009017267391 11.36331597666619, 67.71557138070717 11.57035708095008, 67.27696390812659 12.158051136245302 M68.02460896464065 11.156274872382301 C67.85565666708575 11.382655559234912, 67.68670436953086 11.609036246087522, 67.27696390812659 12.158051136245302 M67.27696390812659 12.158051136245302 C67.06142113973324 12.411239936731096, 66.8458783713399 12.664428737216893, 66.46667094296866 13.10986736009567 M67.27696390812659 12.158051136245302 C66.96831927616726 12.520602683321806, 66.65967464420794 12.88315423039831, 66.46667094296866 13.10986736009567 M66.46667094296866 13.10986736009567 C66.27926421425975 13.303380193866186, 66.09185748555086 13.496893027636702, 65.59705973676799 14.007812326905684 M66.46667094296866 13.10986736009567 C66.20891168252099 13.376024958936734, 65.95115242207333 13.642182557777797, 65.59705973676799 14.007812326905684 M65.59705973676799 14.007812326905684 C65.26916418171241 14.305598394366184, 64.94126862665684 14.603384461826684, 64.6717037085019 14.848196188198111 M65.59705973676799 14.007812326905684 C65.25941479350914 14.314452530777722, 64.92176985025029 14.621092734649759, 64.6717037085019 14.848196188198111 M64.6717037085019 14.848196188198111 C64.30112588459805 15.143722141271375, 63.9305480606942 15.43924809434464, 63.69440534457871 15.627565626425152 M64.6717037085019 14.848196188198111 C64.46660713317836 15.01175524916955, 64.2615105578548 15.17531431014099, 63.69440534457871 15.627565626425152 M63.69440534457871 15.627565626425152 C63.306059564990896 15.898458831047765, 62.91771378540308 16.16935203567038, 62.66918057360571 16.34271804539089 M63.69440534457871 15.627565626425152 C63.469693867224784 15.784314625424178, 63.244982389870856 15.941063624423206, 62.66918057360571 16.34271804539089 M62.66918057360571 16.34271804539089 C62.32109872744643 16.55372730608862, 61.973016881287165 16.76473656678635, 61.60024226407678 16.990714730406093 M62.66918057360571 16.34271804539089 C62.27256106825268 16.58315112033082, 61.87594156289965 16.823584195270758, 61.60024226407678 16.990714730406093 M61.60024226407678 16.990714730406093 C61.32419594242072 17.134727919597953, 61.04814962076466 17.278741108789813, 60.49198291279239 17.56889292409717 M61.60024226407678 16.990714730406093 C61.170537759607384 17.21489129514891, 60.740833255137986 17.439067859891725, 60.49198291279239 17.56889292409717 M60.49198291279239 17.56889292409717 C60.21919678785483 17.68964724969414, 59.946410662917266 17.810401575291106, 59.348956595147804 18.07487676824742 M60.49198291279239 17.56889292409717 C60.156365702405616 17.717460707404577, 59.82074849201884 17.866028490711983, 59.348956595147804 18.07487676824742 M59.348956595147804 18.07487676824742 C58.956484161498395 18.219310251805812, 58.56401172784898 18.363743735364203, 58.17586025146062 18.506587066708033 M59.348956595147804 18.07487676824742 C58.88189890462275 18.2467583157946, 58.4148412140977 18.418639863341784, 58.17586025146062 18.506587066708033 M58.17586025146062 18.506587066708033 C57.8673400611389 18.598154239739994, 57.558819870817175 18.689721412771956, 56.97751438623541 18.86224982926107 M58.17586025146062 18.506587066708033 C57.77318476267767 18.62609903809204, 57.37050927389473 18.745611009476043, 56.97751438623541 18.86224982926107 M56.97751438623541 18.86224982926107 C56.58618727495002 18.95156768876391, 56.19486016366463 19.040885548266747, 55.758843259676766 19.140403561325773 M56.97751438623541 18.86224982926107 C56.59810284957885 18.94884803661127, 56.218691312922296 19.035446243961466, 55.758843259676766 19.140403561325773 M55.758843259676766 19.140403561325773 C55.377394804418536 19.202073189394973, 54.9959463491603 19.263742817464173, 54.52485465284788 19.3399052695533 M55.758843259676766 19.140403561325773 C55.49737822316552 19.18267520073727, 55.23591318665427 19.224946840148768, 54.52485465284788 19.3399052695533 M54.52485465284788 19.3399052695533 C54.158405912589764 19.37525613880691, 53.79195717233165 19.41060700806052, 53.2806192896239 19.45993515863156 M54.52485465284788 19.3399052695533 C54.1699558893244 19.3741419264422, 53.81505712580092 19.4083785833311, 53.2806192896239 19.45993515863156 M53.2806192896239 19.45993515863156 C52.82201439579907 19.474641724956246, 52.36340950197424 19.489348291280937, 52.03125000000001 19.5 M53.2806192896239 19.45993515863156 C52.814183298387235 19.47489285300794, 52.34774730715056 19.489850547384318, 52.03125000000001 19.5 M52.03125000000001 19.5 C52.03125000000001 19.5, 52.03125 19.5, 52.03125 19.5 M52.03125000000001 19.5 C52.03125000000001 19.5, 52.03125 19.5, 52.03125 19.5 M52.03125 19.5 C30.76555725929768 19.5, 9.49986451859536 19.5, -52.03124999999999 19.5 M52.03125 19.5 C16.920576034390464 19.5, -18.19009793121907 19.5, -52.03124999999999 19.5 M-52.03124999999999 19.5 C-52.346679671252495 19.48988478438954, -52.662109342505005 19.479769568779083, -53.28061928962389 19.45993515863156 M-52.03124999999999 19.5 C-52.44304575627662 19.486794511608025, -52.85484151255324 19.473589023216046, -53.28061928962389 19.45993515863156 M-53.28061928962389 19.45993515863156 C-53.56615599516658 19.432389776055988, -53.851692700709265 19.404844393480413, -54.52485465284787 19.3399052695533 M-53.28061928962389 19.45993515863156 C-53.602283908522125 19.42890455970475, -53.92394852742036 19.39787396077794, -54.52485465284787 19.3399052695533 M-54.52485465284787 19.3399052695533 C-54.95294050078488 19.270695669514176, -55.381026348721875 19.201486069475056, -55.75884325967676 19.140403561325773 M-54.52485465284787 19.3399052695533 C-55.0070047485946 19.261954981202802, -55.48915484434133 19.18400469285231, -55.75884325967676 19.140403561325773 M-55.75884325967676 19.140403561325773 C-56.033270731372745 19.077767281717776, -56.30769820306874 19.01513100210978, -56.977514386235384 18.862249829261074 M-55.75884325967676 19.140403561325773 C-56.129211542753914 19.055869417592326, -56.49957982583108 18.971335273858884, -56.977514386235384 18.862249829261074 M-56.977514386235384 18.862249829261074 C-57.22399389295066 18.789096005465314, -57.470473399665934 18.71594218166955, -58.17586025146059 18.506587066708043 M-56.977514386235384 18.862249829261074 C-57.22572114158495 18.788583367137168, -57.47392789693452 18.714916905013265, -58.17586025146059 18.506587066708043 M-58.17586025146059 18.506587066708043 C-58.44244253499269 18.408482322108615, -58.70902481852479 18.310377577509186, -59.3489565951478 18.074876768247425 M-58.17586025146059 18.506587066708043 C-58.527058144737616 18.37734299554436, -58.87825603801464 18.248098924380677, -59.3489565951478 18.074876768247425 M-59.3489565951478 18.074876768247425 C-59.735359225755744 17.90382778590407, -60.12176185636369 17.732778803560716, -60.49198291279238 17.568892924097174 M-59.3489565951478 18.074876768247425 C-59.7609718150101 17.892489852411632, -60.172987034872406 17.71010293657584, -60.49198291279238 17.568892924097174 M-60.49198291279238 17.568892924097174 C-60.899140327580035 17.35647916159923, -61.30629774236768 17.14406539910128, -61.60024226407678 16.990714730406097 M-60.49198291279238 17.568892924097174 C-60.767951333932444 17.424920375554613, -61.04391975507251 17.280947827012053, -61.60024226407678 16.990714730406097 M-61.60024226407678 16.990714730406097 C-61.90918039320308 16.803434621007767, -62.21811852232938 16.61615451160944, -62.669180573605686 16.3427180453909 M-61.60024226407678 16.990714730406097 C-61.89834247015776 16.81000463364855, -62.19644267623873 16.629294536891, -62.669180573605686 16.3427180453909 M-62.669180573605686 16.3427180453909 C-63.01775104637078 16.09957037296254, -63.36632151913588 15.856422700534177, -63.69440534457871 15.627565626425156 M-62.669180573605686 16.3427180453909 C-63.0336403160558 16.08848670626567, -63.39810005850591 15.834255367140438, -63.69440534457871 15.627565626425156 M-63.69440534457871 15.627565626425156 C-63.99575226819379 15.38724947402055, -64.29709919180887 15.146933321615943, -64.67170370850187 14.848196188198125 M-63.69440534457871 15.627565626425156 C-64.0467978663998 15.346541967831678, -64.39919038822087 15.065518309238202, -64.67170370850187 14.848196188198125 M-64.67170370850187 14.848196188198125 C-64.86891457044469 14.669094501295131, -65.06612543238751 14.489992814392135, -65.59705973676797 14.007812326905697 M-64.67170370850187 14.848196188198125 C-64.91008048425023 14.631708707567332, -65.1484572599986 14.41522122693654, -65.59705973676797 14.007812326905697 M-65.59705973676797 14.007812326905697 C-65.91565068197599 13.678841019175369, -66.234241627184 13.34986971144504, -66.46667094296865 13.109867360095677 M-65.59705973676797 14.007812326905697 C-65.92916889427563 13.66488235511011, -66.26127805178331 13.321952383314523, -66.46667094296865 13.109867360095677 M-66.46667094296865 13.109867360095677 C-66.73564601618554 12.79391393397988, -67.00462108940242 12.477960507864081, -67.27696390812658 12.158051136245307 M-66.46667094296865 13.109867360095677 C-66.63017190200254 12.917809830146346, -66.79367286103643 12.725752300197014, -67.27696390812658 12.158051136245307 M-67.27696390812658 12.158051136245307 C-67.45133008032822 11.924416350580179, -67.62569625252986 11.690781564915051, -68.02460896464063 11.156274872382316 M-67.27696390812658 12.158051136245307 C-67.56485336126596 11.772305496307256, -67.85274281440535 11.386559856369207, -68.02460896464063 11.156274872382316 M-68.02460896464063 11.156274872382316 C-68.2419296362432 10.822411962029445, -68.45925030784578 10.488549051676577, -68.70653387860425 10.108655082055249 M-68.02460896464063 11.156274872382316 C-68.21879201171022 10.857957566634248, -68.41297505877981 10.559640260886182, -68.70653387860425 10.108655082055249 M-68.70653387860425 10.108655082055249 C-68.84495658904915 9.862871542840972, -68.98337929949403 9.617088003626694, -69.3199364742735 9.019496659696289 M-68.70653387860425 10.108655082055249 C-68.91255131028677 9.742850270575813, -69.11856874196931 9.377045459096378, -69.3199364742735 9.019496659696289 M-69.3199364742735 9.019496659696289 C-69.46605098732694 8.71608674699109, -69.61216550038037 8.412676834285891, -69.86229614880834 7.893275190886686 M-69.3199364742735 9.019496659696289 C-69.46248699587642 8.72348745149528, -69.60503751747935 8.427478243294274, -69.86229614880834 7.893275190886686 M-69.86229614880834 7.893275190886686 C-70.01895104141812 7.50633457742422, -70.1756059340279 7.1193939639617545, -70.33138422997033 6.73461856121551 M-69.86229614880834 7.893275190886686 C-70.04634107990135 7.438680652820261, -70.23038601099438 6.984086114753835, -70.33138422997033 6.73461856121551 M-70.33138422997033 6.73461856121551 C-70.48129305859602 6.283117054123165, -70.6312018872217 5.83161554703082, -70.72527313421489 5.5482879393051325 M-70.33138422997033 6.73461856121551 C-70.48510074545582 6.271648907973931, -70.63881726094132 5.808679254732351, -70.72527313421489 5.5482879393051325 M-70.72527313421489 5.5482879393051325 C-70.83241971788155 5.13969157816104, -70.93956630154821 4.7310952170169465, -71.04234428754556 4.339158212148136 M-70.72527313421489 5.5482879393051325 C-70.84021426069772 5.109967608226773, -70.95515538718054 4.671647277148413, -71.04234428754556 4.339158212148136 M-71.04234428754556 4.339158212148136 C-71.09693960567373 4.058822792284581, -71.15153492380189 3.7784873724210257, -71.28129477658177 3.112197953150904 M-71.04234428754556 4.339158212148136 C-71.11979386108968 3.9414710209722688, -71.19724343463379 3.5437838297964017, -71.28129477658177 3.112197953150904 M-71.28129477658177 3.112197953150904 C-71.33337761202365 2.7082537663828123, -71.38546044746555 2.3043095796147206, -71.44114270250937 1.872449005199809 M-71.28129477658177 3.112197953150904 C-71.32260645310772 2.791792747928911, -71.36391812963367 2.471387542706918, -71.44114270250937 1.872449005199809 M-71.44114270250937 1.872449005199809 C-71.46365755277817 1.5217620386031108, -71.48617240304698 1.1710750720064125, -71.52123121591342 0.6250057626472781 M-71.44114270250937 1.872449005199809 C-71.46155851700404 1.5544562150964105, -71.48197433149872 1.236463424993012, -71.52123121591342 0.6250057626472781 M-71.52123121591342 0.6250057626472781 C-71.52123121591342 0.2614224958019171, -71.52123121591342 -0.1021607710434439, -71.52123121591342 -0.6250057626472687 M-71.52123121591342 0.6250057626472781 C-71.52123121591342 0.34097719689519707, -71.52123121591342 0.05694863114311599, -71.52123121591342 -0.6250057626472687 M-71.52123121591342 -0.6250057626472687 C-71.50209367406359 -0.9230884245041557, -71.48295613221376 -1.2211710863610428, -71.44114270250937 -1.8724490051997822 M-71.52123121591342 -0.6250057626472687 C-71.50515586865511 -0.8753922719820764, -71.48908052139682 -1.125778781316884, -71.44114270250937 -1.8724490051997822 M-71.44114270250937 -1.8724490051997822 C-71.39933377398758 -2.1967107987079952, -71.35752484546579 -2.520972592216208, -71.28129477658177 -3.112197953150895 M-71.44114270250937 -1.8724490051997822 C-71.37766390710486 -2.364778007051107, -71.31418511170037 -2.8571070089024317, -71.28129477658177 -3.112197953150895 M-71.28129477658177 -3.112197953150895 C-71.22875996484403 -3.381953108187821, -71.17622515310629 -3.651708263224747, -71.04234428754556 -4.339158212148126 M-71.28129477658177 -3.112197953150895 C-71.2291286011392 -3.380060238723447, -71.17696242569662 -3.6479225242959994, -71.04234428754556 -4.339158212148126 M-71.04234428754556 -4.339158212148126 C-70.94159990939063 -4.72334018894256, -70.8408555312357 -5.107522165736994, -70.72527313421489 -5.548287939305123 M-71.04234428754556 -4.339158212148126 C-70.97041144030138 -4.613469334583402, -70.89847859305719 -4.887780457018679, -70.72527313421489 -5.548287939305123 M-70.72527313421489 -5.548287939305123 C-70.63348536746292 -5.824738068367444, -70.54169760071095 -6.101188197429766, -70.33138422997033 -6.734618561215485 M-70.72527313421489 -5.548287939305123 C-70.57810357855114 -5.991539192679981, -70.43093402288739 -6.434790446054839, -70.33138422997033 -6.734618561215485 M-70.33138422997033 -6.734618561215485 C-70.15657811296707 -7.166393049859901, -69.9817719959638 -7.598167538504318, -69.86229614880834 -7.893275190886676 M-70.33138422997033 -6.734618561215485 C-70.16536289274424 -7.1446944739681255, -69.99934155551814 -7.554770386720767, -69.86229614880834 -7.893275190886676 M-69.86229614880834 -7.893275190886676 C-69.66039596886114 -8.312525234518851, -69.45849578891394 -8.731775278151026, -69.3199364742735 -9.019496659696282 M-69.86229614880834 -7.893275190886676 C-69.72366634961112 -8.181142935122224, -69.5850365504139 -8.46901067935777, -69.3199364742735 -9.019496659696282 M-69.3199364742735 -9.019496659696282 C-69.1113882404301 -9.389795166683864, -68.90284000658669 -9.760093673671445, -68.70653387860425 -10.108655082055243 M-69.3199364742735 -9.019496659696282 C-69.15352757348673 -9.314972513771638, -68.98711867269995 -9.610448367846995, -68.70653387860425 -10.108655082055243 M-68.70653387860425 -10.108655082055243 C-68.54585746542433 -10.35549720035776, -68.38518105224443 -10.602339318660276, -68.02460896464063 -11.156274872382308 M-68.70653387860425 -10.108655082055243 C-68.51337219549974 -10.405403298478321, -68.32021051239524 -10.702151514901399, -68.02460896464063 -11.156274872382308 M-68.02460896464063 -11.156274872382308 C-67.82403849044793 -11.42502103545443, -67.62346801625525 -11.69376719852655, -67.27696390812659 -12.158051136245302 M-68.02460896464063 -11.156274872382308 C-67.73752393742339 -11.540942654869397, -67.45043891020616 -11.925610437356486, -67.27696390812659 -12.158051136245302 M-67.27696390812659 -12.158051136245302 C-67.04664312722505 -12.428599031115938, -66.81632234632353 -12.699146925986575, -66.46667094296866 -13.10986736009567 M-67.27696390812659 -12.158051136245302 C-66.99882303043388 -12.484771237847442, -66.72068215274118 -12.811491339449582, -66.46667094296866 -13.10986736009567 M-66.46667094296866 -13.10986736009567 C-66.18843235921148 -13.397171541637526, -65.91019377545429 -13.684475723179382, -65.59705973676799 -14.007812326905677 M-66.46667094296866 -13.10986736009567 C-66.1793947615334 -13.406503603240706, -65.89211858009814 -13.703139846385742, -65.59705973676799 -14.007812326905677 M-65.59705973676799 -14.007812326905677 C-65.25054906382972 -14.322504151898208, -64.90403839089146 -14.637195976890741, -64.6717037085019 -14.848196188198107 M-65.59705973676799 -14.007812326905677 C-65.36654582911595 -14.217158958771483, -65.13603192146391 -14.426505590637289, -64.6717037085019 -14.848196188198107 M-64.6717037085019 -14.848196188198107 C-64.43888050299773 -15.033866498901979, -64.20605729749356 -15.21953680960585, -63.69440534457872 -15.627565626425149 M-64.6717037085019 -14.848196188198107 C-64.30656904405164 -15.139381366455689, -63.94143437960139 -15.430566544713272, -63.69440534457872 -15.627565626425149 M-63.69440534457872 -15.627565626425149 C-63.34558797723118 -15.870885521826327, -62.996770609883654 -16.114205417227506, -62.669180573605715 -16.342718045390885 M-63.69440534457872 -15.627565626425149 C-63.39461811163835 -15.8366842225442, -63.09483087869798 -16.04580281866325, -62.669180573605715 -16.342718045390885 M-62.669180573605715 -16.342718045390885 C-62.38923411814356 -16.512423231840025, -62.10928766268141 -16.68212841828916, -61.60024226407679 -16.99071473040609 M-62.669180573605715 -16.342718045390885 C-62.44643013753096 -16.477750668766262, -62.223679701456206 -16.612783292141643, -61.60024226407679 -16.99071473040609 M-61.60024226407679 -16.99071473040609 C-61.23636556489256 -17.180548971296353, -60.87248886570833 -17.370383212186617, -60.49198291279239 -17.56889292409717 M-61.60024226407679 -16.99071473040609 C-61.30439865846959 -17.145056149954495, -61.00855505286238 -17.2993975695029, -60.49198291279239 -17.56889292409717 M-60.49198291279239 -17.56889292409717 C-60.169211357712435 -17.711774316853074, -59.84643980263248 -17.854655709608977, -59.348956595147804 -18.07487676824742 M-60.49198291279239 -17.56889292409717 C-60.184588635800004 -17.704967251994454, -59.877194358807614 -17.84104157989174, -59.348956595147804 -18.07487676824742 M-59.348956595147804 -18.07487676824742 C-58.89808115473722 -18.240803098165397, -58.447205714326635 -18.406729428083374, -58.17586025146062 -18.506587066708033 M-59.348956595147804 -18.07487676824742 C-59.09360480223078 -18.168848588486984, -58.838253009313746 -18.26282040872655, -58.17586025146062 -18.506587066708033 M-58.17586025146062 -18.506587066708033 C-57.71591259597107 -18.64309711654282, -57.255964940481526 -18.779607166377605, -56.97751438623541 -18.862249829261067 M-58.17586025146062 -18.506587066708033 C-57.81328235909874 -18.61419828195084, -57.450704466736866 -18.721809497193654, -56.97751438623541 -18.862249829261067 M-56.97751438623541 -18.862249829261067 C-56.646253677336965 -18.937857924388993, -56.314992968438524 -19.01346601951692, -55.758843259676766 -19.140403561325773 M-56.97751438623541 -18.862249829261067 C-56.57239019718362 -18.95471678172974, -56.16726600813183 -19.047183734198413, -55.758843259676766 -19.140403561325773 M-55.758843259676766 -19.140403561325773 C-55.27968493688781 -19.217870163026, -54.80052661409886 -19.29533676472623, -54.52485465284788 -19.3399052695533 M-55.758843259676766 -19.140403561325773 C-55.44304690424747 -19.19145906703427, -55.12725054881817 -19.242514572742767, -54.52485465284788 -19.3399052695533 M-54.52485465284788 -19.3399052695533 C-54.177250583087094 -19.373438216108063, -53.82964651332631 -19.40697116266283, -53.2806192896239 -19.45993515863156 M-54.52485465284788 -19.3399052695533 C-54.12751820033358 -19.378235839260356, -53.73018174781929 -19.41656640896741, -53.2806192896239 -19.45993515863156 M-53.2806192896239 -19.45993515863156 C-52.92921630190358 -19.471203968483326, -52.57781331418326 -19.482472778335097, -52.03125000000001 -19.5 M-53.2806192896239 -19.45993515863156 C-52.84005897714338 -19.474063070354184, -52.399498664662865 -19.488190982076805, -52.03125000000001 -19.5 M-52.03125000000001 -19.5 C-52.03125000000001 -19.5, -52.03125 -19.5, -52.03125 -19.5 M-52.03125000000001 -19.5 C-52.03125000000001 -19.5, -52.03125 -19.5, -52.03125 -19.5" stroke="#ccc" stroke-width="1.3" fill="none" stroke-dasharray="0 0" style=""/></g><g class="label" style="" transform="translate(-59.15625, -12)"><rect/><foreignObject width="118.3125" height="24"><div xmlns="http://www.w3.org/1999/xhtml" style="display: table-cell; white-space: nowrap; line-height: 1.5; max-width: 200px; text-align: center;"><span class="nodeLabel"><p>game_task_start</p></span></div></foreignObject></g></g><g class="node default" id="my-svg-flowchart-INIT-1" data-look="classic" transform="translate(258.9921875, 160)"><rect class="basic label-container" style="" x="-130" y="-63" width="260" height="126"/><g class="label" style="" transform="translate(-100, -48)"><rect/><foreignObject width="200" height="96"><div xmlns="http://www.w3.org/1999/xhtml" style="display: table; white-space: break-spaces; line-height: 1.5; max-width: 200px; text-align: center; width: 200px;"><span class="nodeLabel"><p>recursive promotion mutex · timer · NVS config · game_initialize_board · snapshot / new game</p></span></div></foreignObject></g></g><g class="node default" id="my-svg-flowchart-LOOP-3" data-look="classic" transform="translate(258.9921875, 292.5)"><polygon points="9.75,0 62.046875,0 71.796875,-19.5 62.046875,-39 9.75,-39 0,-19.5" class="label-container" transform="translate(-35.8984375,19.5)"/><g class="label" style="" transform="translate(-18.6484375, -12)"><rect/><foreignObject width="37.296875" height="24"><div xmlns="http://www.w3.org/1999/xhtml" style="display: table-cell; white-space: nowrap; line-height: 1.5; max-width: 200px; text-align: center;"><span class="nodeLabel"><p>for ;;</p></span></div></foreignObject></g></g><g class="node default" id="my-svg-flowchart-BOOT-5" data-look="classic" transform="translate(108.26171875, 443.9140625)"><polygon points="81.9140625,0 163.828125,-81.9140625 81.9140625,-163.828125 0,-81.9140625" class="label-container" transform="translate(-81.4140625, 81.9140625)"/><g class="label" style="" transform="translate(-54.9140625, -12)"><rect/><foreignObject width="109.828125" height="24"><div xmlns="http://www.w3.org/1999/xhtml" style="display: table-cell; white-space: nowrap; line-height: 1.5; max-width: 200px; text-align: center;"><span class="nodeLabel"><p>led_is_booting?</p></span></div></foreignObject></g></g><g class="node default" id="my-svg-flowchart-W10-7" data-look="classic" transform="translate(166.71875, 626.828125)"><rect class="basic label-container" style="" x="-96.3984375" y="-27" width="192.796875" height="54"/><g class="label" style="" transform="translate(-66.3984375, -12)"><rect/><foreignObject width="132.796875" height="24"><div xmlns="http://www.w3.org/1999/xhtml" style="display: table-cell; white-space: nowrap; line-height: 1.5; max-width: 200px; text-align: center;"><span class="nodeLabel"><p>WDT · delay 10 ms</p></span></div></foreignObject></g></g><g class="node default" id="my-svg-flowchart-WDT-10" data-look="classic" transform="translate(380, 626.828125)"><rect class="basic label-container" style="" x="-66.8828125" y="-27" width="133.765625" height="54"/><g class="label" style="" transform="translate(-36.8828125, -12)"><rect/><foreignObject width="73.765625" height="24"><div xmlns="http://www.w3.org/1999/xhtml" style="display: table-cell; white-space: nowrap; line-height: 1.5; max-width: 200px; text-align: center;"><span class="nodeLabel"><p>WDT reset</p></span></div></foreignObject></g></g><g class="node default" id="my-svg-flowchart-PC-12" data-look="classic" transform="translate(380, 766.828125)"><rect class="basic label-container" style="" x="-130" y="-63" width="260" height="126"/><g class="label" style="" transform="translate(-100, -48)"><rect/><foreignObject width="200" height="96"><div xmlns="http://www.w3.org/1999/xhtml" style="display: table; white-space: break-spaces; line-height: 1.5; max-width: 200px; text-align: center; width: 200px;"><span class="nodeLabel"><p>game_process_commands — drain game_command_queue max ~15</p></span></div></foreignObject></g></g><g class="node default" id="my-svg-flowchart-SETUP-14" data-look="classic" transform="translate(380, 1025.6640625)"><polygon points="145.8359375,0 291.671875,-145.8359375 145.8359375,-291.671875 0,-145.8359375" class="label-container" transform="translate(-145.3359375, 145.8359375)"/><g class="label" style="" transform="translate(-106.8359375, -24)"><rect/><foreignObject width="213.671875" height="48"><div xmlns="http://www.w3.org/1999/xhtml" style="display: table; white-space: break-spaces; line-height: 1.5; max-width: 200px; text-align: center; width: 200px;"><span class="nodeLabel"><p>stav WAITING_FOR_BOARD_SETUP?</p></span></div></foreignObject></g></g><g class="node default" id="my-svg-flowchart-POS-16" data-look="classic" transform="translate(293, 1384.5)"><polygon points="139,0 278,-139 139,-278 0,-139" class="label-container" transform="translate(-138.5, 139)"/><g class="label" style="" transform="translate(-100, -24)"><rect/><foreignObject width="200" height="48"><div xmlns="http://www.w3.org/1999/xhtml" style="display: table; white-space: break-spaces; line-height: 1.5; max-width: 200px; text-align: center; width: 200px;"><span class="nodeLabel"><p>starting check OFF nebo deska OK?</p></span></div></foreignObject></g></g><g class="node default" id="my-svg-flowchart-ACTIVE-18" data-look="classic" transform="translate(138, 1648.5)"><rect class="basic label-container" style="" x="-130" y="-51" width="260" height="102"/><g class="label" style="" transform="translate(-100, -36)"><rect/><foreignObject width="200" height="72"><div xmlns="http://www.w3.org/1999/xhtml" style="display: table; white-space: break-spaces; line-height: 1.5; max-width: 200px; text-align: center; width: 200px;"><span class="nodeLabel"><p>přechod ACTIVE · LED · timer · nápovědy · revision notify</p></span></div></foreignObject></g></g><g class="node default" id="my-svg-flowchart-MISS-20" data-look="classic" transform="translate(448, 1648.5)"><rect class="basic label-container" style="" x="-130" y="-39" width="260" height="78"/><g class="label" style="" transform="translate(-100, -24)"><rect/><foreignObject width="200" height="48"><div xmlns="http://www.w3.org/1999/xhtml" style="display: table; white-space: break-spaces; line-height: 1.5; max-width: 200px; text-align: center; width: 200px;"><span class="nodeLabel"><p>chybějící figury LED ~500 ms</p></span></div></foreignObject></g></g><g class="node default" id="my-svg-flowchart-MORE-22" data-look="classic" transform="translate(448, 1800.5)"><rect class="basic label-container" style="" x="-130" y="-51" width="260" height="102"/><g class="label" style="" transform="translate(-100, -36)"><rect/><foreignObject width="200" height="72"><div xmlns="http://www.w3.org/1999/xhtml" style="display: table; white-space: break-spaces; line-height: 1.5; max-width: 200px; text-align: center; width: 200px;"><span class="nodeLabel"><p>další logika smyčky — timery · promoce · LED hints · …</p></span></div></foreignObject></g></g><g class="node default" id="my-svg-flowchart-DELAY-28" data-look="classic" transform="translate(625.41796875, 1928.5)"><rect class="basic label-container" style="" x="-109.015625" y="-27" width="218.03125" height="54"/><g class="label" style="" transform="translate(-79.015625, -12)"><rect/><foreignObject width="158.03125" height="24"><div xmlns="http://www.w3.org/1999/xhtml" style="display: table-cell; white-space: nowrap; line-height: 1.5; max-width: 200px; text-align: center;"><span class="nodeLabel"><p>delay ~100 ms typicky</p></span></div></foreignObject></g></g></g></g></g><defs><filter id="my-svg-drop-shadow" height="130%" width="130%"><feDropShadow dx="4" dy="4" stdDeviation="0" flood-opacity="0.06" flood-color="#FFFFFF"/></filter></defs><defs><filter id="my-svg-drop-shadow-small" height="150%" width="150%"><feDropShadow dx="2" dy="2" stdDeviation="0" flood-opacity="0.06" flood-color="#FFFFFF"/></filter></defs><linearGradient id="my-svg-gradient" gradientUnits="objectBoundingBox" x1="0%" y1="0%" x2="100%" y2="0%"><stop offset="0%" stop-color="#cccccc" stop-opacity="1"/><stop offset="100%" stop-color="hsl(180, 0%, 18.3529411765%)" stop-opacity="1"/></linearGradient></svg>